<?xml version="1.0" encoding="UTF-8"?> <svg xmlns="http://www.w3.org/2000/svg" width="71" height="20" viewBox="0 0 71 20" fill="none"> <path d="M25.2792 19.8985H19.1878V8.32487C19.1878 8.10152 19.0051 7.91878 18.7817 7.91878C18.5787 7.91878 18.4162 8.06091 18.3858 8.25381L14.8223 19.8985H10.4467L6.8934 8.24365C6.86294 8.06091 6.70051 7.91878 6.49746 7.91878C6.27411 7.91878 6.09137 8.10152 6.09137 8.32487V19.8985H0V0H5.22843H6.79188C7.90863 0 9.0863 0.873097 9.41117 1.93909L12.3756 11.6345C12.5279 12.1218 12.7614 12.1117 12.9137 11.6345L15.8782 1.93909C16.203 0.862945 17.3807 0 18.4975 0H20.0508H25.2792V19.8985ZM47.9188 19.8985H41.8274V8.07107C41.8173 7.87817 41.665 7.71574 41.4619 7.71574C41.3198 7.71574 41.2081 7.7868 41.1472 7.90863V7.91878C41.1472 7.92893 41.1371 7.93909 41.1371 7.94924L36.1624 18.6193C35.8477 19.3096 34.9949 19.868 34.2234 19.9086H28.132V0.0101528H34.2234V11.5838C34.2234 11.8071 34.4061 11.9898 34.6294 11.9898C34.7716 11.9898 34.8934 11.9188 34.9645 11.8173C34.9848 11.7766 35.0051 11.7462 35.0152 11.6954L39.8579 1.29949C40.1827 0.598985 41.0558 0.0406097 41.8274 0.0101528H47.9188V19.8985ZM63.9594 13.5025H57.0558V20H50.9645V9.03553H70.264C69.33 11.6244 66.8629 13.4822 63.9594 13.5025Z" fill="#4DB45E"></path> <path d="M70.5178 8.0203C70.5178 8.0203 59.9392 8.0203 59.929 8.0203C54.7513 8.0203 50.5077 4.47716 50.1523 0H63.9392C67.6447 0.0304569 70.6397 3.03553 70.6397 6.75127C70.6397 7.18782 70.5991 7.61421 70.5178 8.0203Z" fill="#0694D1"></path> </svg> 