<?xml version="1.0" encoding="UTF-8"?> <svg xmlns="http://www.w3.org/2000/svg" width="30" height="30" viewBox="0 0 30 30" fill="none"> <circle cx="15" cy="15" r="15" fill="#FE0000"></circle> <path fill-rule="evenodd" clip-rule="evenodd" d="M9.16901 6.00809C7.98679 6.13476 7.29986 6.40229 6.77693 6.93976C6.43117 7.29506 6.23469 7.65924 6.08928 8.21429L6.00781 8.52517V13.5683C6.00781 18.3682 6.01085 18.6193 6.0709 18.7749C6.15088 18.9821 6.38588 19.1942 6.59345 19.2464C6.79006 19.2959 7.33199 19.2962 7.52791 19.2469C7.73223 19.1954 7.93251 19.0159 8.03263 18.7943C8.11337 18.6157 8.11552 18.5862 8.12571 17.5147L8.13614 16.418H10.5787H13.0212V18.9828C13.0212 20.9691 13.0313 21.5865 13.0659 21.7202C13.3958 22.9948 14.2881 23.675 15.9751 23.9381C16.3238 23.9924 16.6214 24 18.4107 24C20.2443 24 20.4838 23.9936 20.7946 23.9363C22.1929 23.6783 23.2376 22.9623 23.7444 21.9145C24.0247 21.335 24.0076 21.699 24.0076 16.2971C24.0076 11.7848 24.0039 11.4866 23.9465 11.3427C23.8559 11.1159 23.7357 10.9772 23.5508 10.8862C23.4031 10.8135 23.3384 10.8049 22.9366 10.8049C22.4259 10.8049 22.2897 10.8502 22.0971 11.0838C21.9082 11.313 21.8829 11.4914 21.8829 12.5948V13.5856H19.3796H16.8763L16.8656 11.0381L16.8549 8.49063L16.7585 8.18103C16.3975 7.02197 15.5709 6.37638 14.0749 6.08516C13.6915 6.01055 13.6005 6.00758 11.4838 6.00146C10.2772 5.99797 9.23551 6.00094 9.16901 6.00809ZM13.9647 8.41277C14.2804 8.50814 14.4636 8.62261 14.5845 8.80002L14.6968 8.96475V11.1244C14.6968 12.6426 14.6851 13.323 14.6574 13.4156C14.5683 13.7126 14.2837 13.9128 13.7867 14.0279C13.5678 14.0785 13.2297 14.0852 10.8446 14.0858L8.14982 14.0864L8.14008 11.634C8.133 9.85987 8.14136 9.14112 8.17021 9.03563C8.26186 8.70047 8.65371 8.46869 9.29127 8.37256C9.40456 8.35547 10.4611 8.34507 11.6392 8.34942C13.4904 8.35626 13.8061 8.36486 13.9647 8.41277ZM11.0346 9.63283C10.5305 9.74198 10.079 10.0772 9.87504 10.4941C9.78449 10.6791 9.7736 10.7366 9.7736 11.0295C9.7736 11.3134 9.78611 11.3843 9.86647 11.5557C9.99178 11.823 10.1169 11.9801 10.3298 12.1373C10.9536 12.5981 11.8273 12.6091 12.4902 12.1646C12.7202 12.0104 12.8664 11.8353 12.9958 11.5592C13.0779 11.3839 13.0903 11.3148 13.0903 11.0295C13.0903 10.7366 13.0794 10.6791 12.9888 10.4941C12.7816 10.0706 12.3314 9.74039 11.812 9.6309C11.5171 9.56872 11.3285 9.56917 11.0346 9.63283ZM21.8829 18.3198C21.8829 20.0238 21.8713 20.7509 21.8425 20.8653C21.742 21.2644 21.2445 21.5287 20.3982 21.6325C20.0275 21.678 16.5694 21.6783 16.2169 21.6329C15.7008 21.5664 15.4012 21.3833 15.2457 21.0393L15.1632 20.8567L15.1524 18.9328C15.1411 16.8898 15.152 16.7066 15.2986 16.4852C15.4576 16.2448 15.8812 16.0401 16.366 15.9693C16.4645 15.9548 17.7461 15.9411 19.214 15.9388L21.8829 15.9344V18.3198ZM18.0656 17.5294C17.2822 17.6788 16.699 18.4504 16.8375 19.1543C16.941 19.6804 17.2778 20.0607 17.8317 20.2772C18.0346 20.3565 18.1151 20.3684 18.4453 20.3676C18.7471 20.3669 18.8674 20.3513 19.0298 20.292C19.9036 19.973 20.3091 19.1136 19.9416 18.36C19.8214 18.1135 19.4746 17.7811 19.215 17.6634C18.8534 17.4995 18.462 17.4538 18.0656 17.5294Z" fill="white"></path> </svg> 