<?xml version="1.0" encoding="UTF-8"?> <svg xmlns="http://www.w3.org/2000/svg" width="60" height="60" viewBox="0 0 60 60" fill="none"> <rect x="0.5" y="0.5" width="59" height="59" rx="9.5" stroke="white"></rect> <path d="M8.43466 23V8.45455H17.7528V10.6634H11.0696V14.6122H17.1136V16.821H11.0696V23H8.43466Z" fill="white"></path> <path d="M10.7188 42.9531H11.9844C12.5781 42.9531 13.1055 43.0859 13.5664 43.3516C14.0273 43.6172 14.3893 43.987 14.6523 44.4609C14.9154 44.9349 15.0469 45.4844 15.0469 46.1094C15.0469 46.7344 14.9154 47.2852 14.6523 47.7617C14.3893 48.2383 14.0273 48.6107 13.5664 48.8789C13.1055 49.1471 12.5781 49.2812 11.9844 49.2812H10.7188C10.125 49.2812 9.59766 49.1484 9.13672 48.8828C8.67578 48.6172 8.3138 48.2474 8.05078 47.7734C7.78776 47.2995 7.65625 46.75 7.65625 46.125C7.65625 45.5 7.78776 44.9492 8.05078 44.4727C8.3138 43.9961 8.67578 43.6237 9.13672 43.3555C9.59766 43.0872 10.125 42.9531 10.7188 42.9531ZM10.7188 43.8125C10.2656 43.8125 9.88281 43.9076 9.57031 44.0977C9.26042 44.2878 9.02474 44.556 8.86328 44.9023C8.70443 45.2487 8.625 45.6562 8.625 46.125C8.625 46.5885 8.70443 46.9922 8.86328 47.3359C9.02474 47.6797 9.26042 47.9466 9.57031 48.1367C9.88281 48.3268 10.2656 48.4219 10.7188 48.4219H11.9844C12.4375 48.4219 12.819 48.3268 13.1289 48.1367C13.4414 47.9466 13.6771 47.6784 13.8359 47.332C13.9974 46.9857 14.0781 46.5781 14.0781 46.1094C14.0781 45.6458 13.9974 45.2422 13.8359 44.8984C13.6771 44.5547 13.4414 44.2878 13.1289 44.0977C12.819 43.9076 12.4375 43.8125 11.9844 43.8125H10.7188ZM11.8438 41.8594V50.3281H10.875V41.8594H11.8438ZM16.2012 44.8594V44H21.0762V44.8594H19.1074V50H18.1855V44.8594H16.2012ZM24.5469 50.125C24.0052 50.125 23.5299 49.9961 23.1211 49.7383C22.7148 49.4805 22.3971 49.1198 22.168 48.6562C21.9414 48.1927 21.8281 47.651 21.8281 47.0312C21.8281 46.4062 21.9414 45.8607 22.168 45.3945C22.3971 44.9284 22.7148 44.5664 23.1211 44.3086C23.5299 44.0508 24.0052 43.9219 24.5469 43.9219C25.0885 43.9219 25.5625 44.0508 25.9688 44.3086C26.3776 44.5664 26.6953 44.9284 26.9219 45.3945C27.151 45.8607 27.2656 46.4062 27.2656 47.0312C27.2656 47.651 27.151 48.1927 26.9219 48.6562C26.6953 49.1198 26.3776 49.4805 25.9688 49.7383C25.5625 49.9961 25.0885 50.125 24.5469 50.125ZM24.5469 49.2969C24.9583 49.2969 25.2969 49.1914 25.5625 48.9805C25.8281 48.7695 26.0247 48.4922 26.1523 48.1484C26.2799 47.8047 26.3438 47.4323 26.3438 47.0312C26.3438 46.6302 26.2799 46.2565 26.1523 45.9102C26.0247 45.5638 25.8281 45.2839 25.5625 45.0703C25.2969 44.8568 24.9583 44.75 24.5469 44.75C24.1354 44.75 23.7969 44.8568 23.5313 45.0703C23.2656 45.2839 23.069 45.5638 22.9414 45.9102C22.8138 46.2565 22.75 46.6302 22.75 47.0312C22.75 47.4323 22.8138 47.8047 22.9414 48.1484C23.069 48.4922 23.2656 48.7695 23.5313 48.9805C23.7969 49.1914 24.1354 49.2969 24.5469 49.2969ZM28.6729 52.25V44H29.5635V44.9531H29.6729C29.7406 44.849 29.8343 44.7161 29.9541 44.5547C30.0765 44.3906 30.251 44.2448 30.4775 44.1172C30.7067 43.987 31.0166 43.9219 31.4072 43.9219C31.9124 43.9219 32.3577 44.0482 32.7432 44.3008C33.1286 44.5534 33.4294 44.9115 33.6455 45.375C33.8617 45.8385 33.9697 46.3854 33.9697 47.0156C33.9697 47.651 33.8617 48.2018 33.6455 48.668C33.4294 49.1315 33.1299 49.4909 32.7471 49.7461C32.3643 49.9987 31.9229 50.125 31.4229 50.125C31.0374 50.125 30.7288 50.0612 30.4971 49.9336C30.2653 49.8034 30.0869 49.6562 29.9619 49.4922C29.8369 49.3255 29.7406 49.1875 29.6729 49.0781H29.5947V52.25H28.6729ZM29.5791 47C29.5791 47.4531 29.6455 47.8529 29.7783 48.1992C29.9111 48.543 30.1051 48.8125 30.3604 49.0078C30.6156 49.2005 30.9281 49.2969 31.2979 49.2969C31.6833 49.2969 32.0049 49.1953 32.2627 48.9922C32.5231 48.7865 32.7184 48.5104 32.8486 48.1641C32.9814 47.8151 33.0479 47.4271 33.0479 47C33.0479 46.5781 32.9827 46.1979 32.8525 45.8594C32.7249 45.5182 32.5309 45.2487 32.2705 45.0508C32.0127 44.8503 31.6885 44.75 31.2979 44.75C30.9229 44.75 30.6077 44.8451 30.3525 45.0352C30.0973 45.2227 29.9046 45.4857 29.7744 45.8242C29.6442 46.1602 29.5791 46.5521 29.5791 47Z" fill="white" fill-opacity="0.6"></path> </svg> 