<?xml version="1.0" encoding="UTF-8"?> <svg xmlns="http://www.w3.org/2000/svg" width="60" height="60" viewBox="0 0 60 60" fill="none"> <rect x="0.5" y="0.5" width="59" height="59" rx="9.5" stroke="white"></rect> <path d="M20.8849 13.3622H18.2287C18.1529 12.9266 18.0133 12.5407 17.8097 12.2045C17.6061 11.8636 17.3527 11.5748 17.0497 11.3381C16.7467 11.1013 16.401 10.9238 16.0128 10.8054C15.6293 10.6823 15.215 10.6207 14.7699 10.6207C13.9792 10.6207 13.2784 10.8196 12.6676 11.2173C12.0568 11.6103 11.5786 12.188 11.233 12.9503C10.8873 13.7079 10.7145 14.6335 10.7145 15.7273C10.7145 16.84 10.8873 17.7775 11.233 18.5398C11.5833 19.2973 12.0616 19.8703 12.6676 20.2585C13.2784 20.642 13.9768 20.8338 14.7628 20.8338C15.1984 20.8338 15.6056 20.777 15.9844 20.6634C16.3679 20.545 16.7112 20.3722 17.0142 20.1449C17.322 19.9176 17.58 19.6383 17.7884 19.3068C18.0014 18.9754 18.1482 18.5966 18.2287 18.1705L20.8849 18.1847C20.7855 18.8759 20.5701 19.5246 20.2386 20.1307C19.9119 20.7367 19.4834 21.2718 18.9531 21.7358C18.4228 22.1951 17.8026 22.5549 17.0923 22.8153C16.3821 23.071 15.5938 23.1989 14.7273 23.1989C13.4489 23.1989 12.3078 22.9029 11.304 22.3111C10.3002 21.7192 9.50947 20.8646 8.93182 19.7472C8.35417 18.6297 8.06534 17.2898 8.06534 15.7273C8.06534 14.16 8.35653 12.8201 8.93892 11.7074C9.52131 10.59 10.3144 9.73532 11.3182 9.14347C12.322 8.55161 13.4583 8.25568 14.7273 8.25568C15.5369 8.25568 16.2898 8.36932 16.9858 8.59659C17.6818 8.82386 18.3021 9.15767 18.8466 9.59801C19.3911 10.0336 19.8385 10.5687 20.1889 11.2031C20.544 11.8329 20.776 12.5526 20.8849 13.3622ZM26.3235 23.2202C25.6322 23.2202 25.0096 23.0971 24.4556 22.8509C23.9064 22.5999 23.4708 22.2306 23.1488 21.7429C22.8316 21.2552 22.6729 20.6539 22.6729 19.9389C22.6729 19.3234 22.7866 18.8144 23.0138 18.4119C23.2411 18.0095 23.5513 17.6875 23.9442 17.446C24.3372 17.2045 24.7799 17.0223 25.2724 16.8991C25.7695 16.7713 26.2833 16.679 26.8136 16.6222C27.4528 16.5559 27.9712 16.4967 28.369 16.4446C28.7667 16.3878 29.0555 16.3026 29.2354 16.1889C29.4201 16.0705 29.5124 15.8883 29.5124 15.642V15.5994C29.5124 15.0644 29.3538 14.6501 29.0366 14.3565C28.7193 14.063 28.2624 13.9162 27.6658 13.9162C27.0361 13.9162 26.5366 14.0535 26.1673 14.3281C25.8027 14.6027 25.5565 14.9271 25.4286 15.3011L23.0281 14.9602C23.2174 14.2973 23.5299 13.7434 23.9656 13.2983C24.4012 12.8485 24.9338 12.5123 25.5636 12.2898C26.1933 12.0625 26.8893 11.9489 27.6516 11.9489C28.1772 11.9489 28.7004 12.0104 29.2212 12.1335C29.7421 12.2566 30.2179 12.4602 30.6488 12.7443C31.0797 13.0237 31.4253 13.4048 31.6857 13.8878C31.9509 14.3707 32.0835 14.9744 32.0835 15.6989V23H29.6119V21.5014H29.5266C29.3704 21.8045 29.1502 22.0885 28.8661 22.3537C28.5868 22.6141 28.234 22.8248 27.8079 22.9858C27.3865 23.142 26.8917 23.2202 26.3235 23.2202ZM26.9911 21.331C27.5072 21.331 27.9547 21.2292 28.3335 21.0256C28.7122 20.8172 29.0034 20.5426 29.207 20.2017C29.4154 19.8608 29.5195 19.4891 29.5195 19.0866V17.8011C29.439 17.8674 29.3017 17.929 29.1076 17.9858C28.9182 18.0426 28.7051 18.0923 28.4684 18.1349C28.2317 18.1776 27.9973 18.2154 27.7653 18.2486C27.5333 18.2817 27.332 18.3101 27.1616 18.3338C26.7781 18.3859 26.4348 18.4711 26.1317 18.5895C25.8287 18.7079 25.5896 18.8736 25.4144 19.0866C25.2392 19.295 25.1516 19.5649 25.1516 19.8963C25.1516 20.3698 25.3245 20.7273 25.6701 20.9688C26.0157 21.2102 26.4561 21.331 26.9911 21.331Z" fill="white"></path> <path d="M12.6719 50L9.92188 46.3281H8.9375V50H7.96875V42H8.9375V45.4687H9.35938L12.5625 42H13.7188L10.4844 45.5156L13.8281 50H12.6719ZM16.7207 50.1406C16.3405 50.1406 15.9954 50.069 15.6855 49.9258C15.3757 49.7799 15.1296 49.5703 14.9473 49.2969C14.765 49.0208 14.6738 48.6875 14.6738 48.2969C14.6738 47.9531 14.7415 47.6745 14.877 47.4609C15.0124 47.2448 15.1934 47.0755 15.4199 46.9531C15.6465 46.8307 15.8965 46.7396 16.1699 46.6797C16.446 46.6172 16.7233 46.5677 17.002 46.5313C17.3665 46.4844 17.6621 46.4492 17.8887 46.4258C18.1178 46.3997 18.2845 46.3568 18.3887 46.2969C18.4954 46.237 18.5488 46.1328 18.5488 45.9844V45.9531C18.5488 45.5677 18.4434 45.2682 18.2324 45.0547C18.0241 44.8411 17.7077 44.7344 17.2832 44.7344C16.8431 44.7344 16.498 44.8307 16.248 45.0234C15.998 45.2161 15.8223 45.4219 15.7207 45.6406L14.8457 45.3281C15.002 44.9635 15.2103 44.6797 15.4707 44.4766C15.7337 44.2708 16.0202 44.1276 16.3301 44.0469C16.6426 43.9635 16.9499 43.9219 17.252 43.9219C17.4447 43.9219 17.666 43.9453 17.916 43.9922C18.1686 44.0365 18.4121 44.1289 18.6465 44.2695C18.8835 44.4102 19.0801 44.6224 19.2363 44.9062C19.3926 45.1901 19.4707 45.5703 19.4707 46.0469V50H18.5488V49.1875H18.502C18.4395 49.3177 18.3353 49.457 18.1895 49.6055C18.0436 49.7539 17.8496 49.8802 17.6074 49.9844C17.3652 50.0885 17.0697 50.1406 16.7207 50.1406ZM16.8613 49.3125C17.2259 49.3125 17.5332 49.2409 17.7832 49.0977C18.0358 48.9544 18.2259 48.7695 18.3535 48.543C18.4837 48.3164 18.5488 48.0781 18.5488 47.8281V46.9844C18.5098 47.0312 18.4238 47.0742 18.291 47.1133C18.1608 47.1497 18.0098 47.1823 17.8379 47.2109C17.6686 47.237 17.5033 47.2604 17.3418 47.2812C17.1829 47.2995 17.054 47.3151 16.9551 47.3281C16.7155 47.3594 16.4915 47.4102 16.2832 47.4805C16.0775 47.5482 15.9108 47.651 15.7832 47.7891C15.6582 47.9245 15.5957 48.1094 15.5957 48.3437C15.5957 48.6641 15.7142 48.9062 15.9512 49.0703C16.1908 49.2318 16.4941 49.3125 16.8613 49.3125ZM20.6221 50V49.1406H20.8408C21.0205 49.1406 21.1702 49.1055 21.29 49.0352C21.4098 48.9622 21.5062 48.8359 21.5791 48.6562C21.6546 48.474 21.7119 48.2214 21.751 47.8984C21.7926 47.5729 21.8226 47.1589 21.8408 46.6562L21.9502 44H25.9502V50H25.0283V44.8594H22.8252L22.7314 47C22.7106 47.4922 22.6663 47.9258 22.5986 48.3008C22.5335 48.6732 22.4333 48.9857 22.2979 49.2383C22.165 49.4909 21.988 49.681 21.7666 49.8086C21.5452 49.9362 21.2679 50 20.9346 50H20.6221ZM28.4385 46.1719H30.1572C30.8604 46.1719 31.3981 46.3503 31.7705 46.707C32.1429 47.0638 32.3291 47.5156 32.3291 48.0625C32.3291 48.4219 32.2458 48.7487 32.0791 49.043C31.9124 49.3346 31.6676 49.5677 31.3447 49.7422C31.0218 49.9141 30.626 50 30.1572 50H27.6416V44H28.5635V49.1406H30.1572C30.5218 49.1406 30.8213 49.0443 31.0557 48.8516C31.29 48.6589 31.4072 48.4115 31.4072 48.1094C31.4072 47.7917 31.29 47.5326 31.0557 47.332C30.8213 47.1315 30.5218 47.0312 30.1572 47.0312H28.4385V46.1719ZM38.4512 44V49.1406H39.2949V51.9375H38.373V50H33.7324V44H34.6543V49.1406H37.5293V44H38.4512ZM41.6367 48.6406L44.5273 44H45.5898V50H44.668V45.3594L41.793 50H40.7148V44H41.6367V48.6406ZM48.2002 48.6406L51.0908 44H52.1533V50H51.2314V45.3594L48.3564 50H47.2783V44H48.2002V48.6406ZM50.4814 42H51.3408C51.3408 42.4219 51.195 42.7669 50.9033 43.0352C50.6117 43.3034 50.2158 43.4375 49.7158 43.4375C49.2236 43.4375 48.8317 43.3034 48.54 43.0352C48.251 42.7669 48.1064 42.4219 48.1064 42H48.9658C48.9658 42.2031 49.0218 42.3815 49.1338 42.5352C49.2484 42.6888 49.4424 42.7656 49.7158 42.7656C49.9893 42.7656 50.1846 42.6888 50.3018 42.5352C50.4215 42.3815 50.4814 42.2031 50.4814 42Z" fill="white" fill-opacity="0.6"></path> </svg> 