<?xml version="1.0" encoding="UTF-8"?> <svg xmlns="http://www.w3.org/2000/svg" width="122" height="185" viewBox="0 0 122 185" fill="none"> <path d="M120.134 102.855C120.144 103.24 120.027 103.627 119.913 104.001C119.859 104.179 119.803 104.363 119.761 104.547C119.518 105.601 119.461 106.677 119.59 107.746C119.6 107.831 119.612 107.917 119.624 108.005C119.687 108.462 119.752 108.935 119.608 109.353C119.436 109.853 119.057 110.302 118.788 110.597C118.227 111.209 117.455 111.665 116.554 111.918C115.907 112.099 115.191 112.183 114.366 112.175C113.911 112.171 113.429 112.14 112.849 112.078C111.929 111.979 111.025 111.834 110.164 111.647C110.011 111.614 109.854 111.582 109.696 111.55C109.147 111.441 108.58 111.328 108.087 111.119C107.929 111.052 107.776 110.971 107.63 110.879C106.811 110.361 106.223 109.462 106.016 108.412C105.886 107.748 105.88 107.234 105.997 106.742C106.091 106.346 106.249 105.958 106.402 105.582C106.471 105.412 106.54 105.241 106.604 105.069C106.819 104.494 106.991 103.969 107.132 103.465C107.187 103.268 107.222 103.055 107.256 102.848C107.302 102.572 107.349 102.287 107.442 102.05L107.456 102.014C107.717 101.363 108.099 100.863 108.591 100.527C109.164 100.137 109.871 100.018 110.554 99.903L110.759 99.8684C112.612 99.5497 114.386 99.4824 116.019 99.6698L116.263 99.6973C116.847 99.762 117.452 99.8293 117.992 100.009C118.727 100.255 119.208 100.816 119.482 101.244C119.903 101.902 120.123 102.445 120.134 102.855ZM120.404 102.848C120.392 102.387 120.158 101.799 119.71 101.098C119.284 100.432 118.719 99.9668 118.077 99.7524C117.51 99.5633 116.891 99.4948 116.293 99.4283L116.05 99.4011C115.49 99.3368 114.908 99.3012 114.321 99.2958C113.17 99.2846 111.956 99.3877 110.713 99.6018L110.51 99.6362C109.797 99.7556 109.061 99.8795 108.439 100.303C107.901 100.67 107.486 101.212 107.205 101.914L107.19 101.951C107.087 102.214 107.037 102.514 106.989 102.804C106.955 103.012 106.922 103.21 106.871 103.392C106.733 103.889 106.563 104.407 106.351 104.975C106.288 105.144 106.219 105.313 106.151 105.481C105.995 105.866 105.833 106.263 105.734 106.679C105.607 107.21 105.612 107.761 105.751 108.464C105.971 109.587 106.604 110.55 107.485 111.108C107.643 111.207 107.81 111.295 107.981 111.368C108.5 111.587 109.08 111.704 109.642 111.816C109.799 111.847 109.955 111.878 110.106 111.911C110.977 112.1 111.89 112.247 112.82 112.347C113.409 112.41 113.9 112.442 114.363 112.446C115.215 112.454 115.955 112.366 116.627 112.178C117.577 111.912 118.393 111.429 118.988 110.779C119.274 110.467 119.675 109.989 119.864 109.441C120.029 108.962 119.959 108.457 119.892 107.968C119.88 107.882 119.869 107.797 119.859 107.713C119.733 106.676 119.789 105.63 120.025 104.608C120.065 104.433 120.12 104.253 120.172 104.08C120.292 103.685 120.415 103.277 120.404 102.848Z" fill="#4285F4" stroke="#4285F4" stroke-width="0.5"></path> <path d="M112.845 105.45C111.764 106.992 111.273 108.471 111.342 109.965C111.738 110.06 112.132 110.241 112.758 110.618C111.774 110.212 110.765 109.999 109.733 109.986C110.005 109.853 110.522 109.884 110.723 109.886C110.839 109.887 110.955 109.898 111.071 109.914C111.015 108.374 111.523 106.855 112.632 105.278C112.651 104.838 112.681 104.387 112.736 103.954C109.767 103.457 108.586 104.269 107.832 104.718C108.475 104.115 109.652 103.58 111.201 103.595C111.675 103.6 112.201 103.631 112.775 103.686C112.952 103.047 113.135 102.499 113.31 102.027C113.374 101.853 113.403 101.662 113.297 101.511C113.06 101.172 112.494 101.149 112.345 101.006C112.35 101.006 112.728 101.032 112.734 101.032C113.1 101.036 113.384 101.262 113.59 101.602C113.751 101.197 113.985 100.832 114.404 100.741C114.088 100.921 113.912 101.272 113.605 102.065C113.208 103.09 112.705 104.39 112.909 105.167C113.57 105.068 114.217 105.02 114.845 105.026C116.195 105.039 117.463 105.293 118.632 105.787C117.169 105.394 114.943 105.073 112.845 105.45Z" fill="#4285F4" stroke="#4285F4" stroke-width="0.5"></path> <path d="M117.138 118.965C117.045 119.399 116.921 119.831 116.812 120.202C116.746 120.427 116.728 120.646 116.71 120.858C116.703 120.953 116.695 121.049 116.683 121.147C116.624 121.617 116.653 122.092 116.682 122.551C116.719 123.157 116.754 123.729 116.607 124.297C116.386 125.148 115.709 126.04 114.839 126.628C114.3 126.992 113.368 127.414 112.514 127.406C112.402 127.404 112.294 127.395 112.193 127.379C109.653 126.959 106.945 126.014 103.914 124.492C102.95 123.939 102.51 122.95 102.575 121.471C102.573 121.098 102.579 120.73 102.595 120.371C102.633 119.462 102.729 118.569 102.88 117.718C102.925 117.464 102.994 117.232 103.067 116.987C103.092 116.903 103.117 116.818 103.142 116.731C103.196 116.542 103.212 116.345 103.228 116.155C103.241 115.998 103.253 115.85 103.285 115.707C103.576 114.388 104.484 113.211 105.654 112.635C106.368 112.284 107.204 112.111 108.139 112.12C108.251 112.121 108.363 112.125 108.475 112.131C109.524 112.189 110.56 112.469 111.345 112.706C112.648 113.099 113.938 113.587 115.179 114.156C115.28 114.202 115.391 114.248 115.506 114.295C115.907 114.457 116.361 114.642 116.559 114.959C116.874 115.463 117.093 115.984 117.209 116.506C117.368 117.216 117.345 117.997 117.138 118.965ZM117.474 116.447C117.35 115.895 117.12 115.346 116.789 114.816C116.544 114.425 116.047 114.222 115.609 114.044C115.497 113.998 115.39 113.955 115.292 113.91C114.04 113.336 112.738 112.843 111.424 112.447C110.624 112.205 109.568 111.921 108.49 111.861C108.374 111.854 108.258 111.85 108.141 111.849C107.164 111.84 106.287 112.022 105.535 112.392C104.273 113.013 103.333 114.23 103.02 115.648C102.985 115.809 102.971 115.973 102.958 116.133C102.943 116.318 102.928 116.494 102.882 116.658C102.858 116.743 102.832 116.826 102.808 116.91C102.736 117.152 102.661 117.402 102.614 117.671C102.461 118.534 102.363 119.439 102.324 120.359C102.308 120.722 102.302 121.095 102.304 121.465C102.236 123.026 102.734 124.127 103.785 124.731C106.848 126.268 109.581 127.221 112.148 127.646C112.263 127.665 112.385 127.675 112.512 127.676C113.427 127.685 114.419 127.238 114.991 126.852C115.926 126.22 116.629 125.29 116.869 124.365C117.027 123.756 116.989 123.135 116.952 122.534C116.924 122.087 116.895 121.625 116.951 121.181C116.964 121.079 116.972 120.979 116.98 120.881C116.997 120.673 117.014 120.476 117.072 120.278C117.182 119.903 117.307 119.465 117.402 119.022C117.616 118.028 117.639 117.187 117.474 116.447Z" fill="#4285F4" stroke="#4285F4" stroke-width="0.5"></path> <path d="M110.868 119.011C110.619 119.034 110.364 119.049 110.137 119.153C109.825 119.295 109.601 119.563 109.399 119.831C109.187 120.114 108.951 120.382 108.751 120.672C108.305 121.321 107.917 122.07 107.885 122.873C107.876 123.084 107.894 123.296 107.939 123.503C107.951 123.557 108.128 124.132 108.162 124.116C108.162 124.116 108.399 124.258 108.46 124.286C108.597 124.347 109.374 124.874 109.578 125.109C108.842 124.726 108.091 124.148 106.552 124.12C106.816 124.058 107.074 124.028 107.325 124.03C107.508 124.032 107.687 124.054 107.863 124.09C107.118 122.205 108.514 120.405 109.925 118.854C109.986 118.787 109.794 118.263 109.767 118.173C109.696 117.929 109.608 117.69 109.507 117.457C109.302 116.986 109.038 116.55 108.748 116.128C107.325 116.481 104.669 116.243 104.668 116.05C106.173 116.201 107.556 116.132 108.777 115.845C109.909 115.578 110.938 115.114 111.842 114.468C111.428 114.287 111.071 113.993 110.772 113.571C111.641 114.394 112.835 114.66 114.281 114.497C113.831 114.585 113.024 114.661 112.494 114.626C112.264 114.611 112.033 114.67 111.842 114.8C110.999 115.373 110.055 115.795 109.028 116.059C109.656 116.967 110.04 117.88 110.197 118.838C111.738 118.599 113.283 118.935 114.593 119.793C115.022 120.074 115.418 120.407 115.764 120.785C115.174 120.161 113.178 118.804 110.868 119.011Z" fill="#4285F4" stroke="#4285F4" stroke-width="0.5"></path> <path d="M107.967 143.696C108.724 143.696 109.479 143.596 110.213 143.398C111.651 143.011 112.758 141.83 112.967 140.46C113.302 138.261 113.932 136.237 114.843 134.443C115.338 133.465 114.98 132.173 114.667 131.286C114.251 130.109 113.323 129.491 112.383 128.998L112.138 128.87C111.008 128.277 109.839 127.664 108.648 127.197C107.972 126.933 107.278 126.697 106.582 126.495C106.431 126.451 106.265 126.395 106.089 126.336C105.581 126.165 105.001 125.973 104.559 125.995C103.307 126.069 102.137 126.5 101.081 127.278C99.5065 129.277 98.4453 131.11 97.7422 133.047C97.135 134.719 97.3298 136.678 98.2505 138.159C98.3919 138.387 98.5511 138.603 98.7237 138.801C101.438 141.912 104.807 143.696 107.967 143.696ZM104.64 125.723C105.114 125.723 105.678 125.912 106.175 126.08C106.347 126.138 106.51 126.192 106.658 126.235C107.361 126.439 108.064 126.678 108.746 126.945C109.951 127.417 111.127 128.034 112.264 128.63L112.509 128.758C113.45 129.252 114.473 129.927 114.922 131.196C115.251 132.13 115.627 133.495 115.084 134.565C114.187 136.334 113.565 138.331 113.234 140.5C113.01 141.976 111.824 143.245 110.283 143.66C109.527 143.863 108.747 143.967 107.967 143.967C104.729 143.967 101.286 142.149 98.5197 138.978C98.3378 138.77 98.1699 138.542 98.0206 138.303C97.0571 136.752 96.8529 134.703 97.4878 132.955C98.2028 130.985 99.2807 129.123 100.88 127.096L100.906 127.071C102.008 126.255 103.232 125.802 104.543 125.725C104.575 125.724 104.607 125.723 104.64 125.723Z" fill="#4285F4" stroke="#4285F4" stroke-width="0.5"></path> <path d="M108.791 129.314C107.282 129.73 106.339 130.322 105.435 131.113C105.71 131.444 105.78 131.973 105.835 132.394C105.847 132.487 105.858 132.575 105.871 132.653C105.994 133.406 106.066 134.173 106.09 134.934C106.168 134.913 106.248 134.906 106.32 134.907C106.368 134.908 106.411 134.91 106.45 134.913C107.084 134.956 107.715 135.034 108.341 135.149C108.989 135.267 109.631 135.422 110.262 135.61C110.918 135.804 111.563 136.034 112.196 136.293C112.351 136.357 112.503 136.428 112.659 136.489C112.501 136.451 112.333 136.435 112.172 136.404C112.007 136.372 111.843 136.338 111.679 136.299C111.351 136.223 111.027 136.134 110.706 136.032C110.168 135.862 109.64 135.671 109.092 135.535C108.631 135.421 108.162 135.342 107.689 135.288C107.494 135.266 107.298 135.248 107.102 135.232C106.881 135.213 106.655 135.185 106.432 135.183C106.299 135.175 106.173 135.171 106.084 135.223C105.988 135.281 105.931 135.404 105.872 135.535L105.85 135.582C105.666 135.979 105.389 136.335 105.049 136.61C104.86 136.764 104.653 136.891 104.453 137.015C104.281 137.121 104.11 137.227 103.948 137.35C103.934 138.603 104.056 139.742 104.488 140.812C104.54 140.942 104.641 141.045 104.766 141.109C104.897 141.175 105.026 141.242 105.15 141.32C105.274 141.398 105.379 141.495 105.489 141.591C105.044 141.387 104.596 141.181 104.12 141.064C103.818 140.99 103.507 140.952 103.198 140.915C103.401 140.864 103.605 140.854 103.814 140.856C103.986 140.857 104.162 140.889 104.336 140.938C104.311 140.931 104.265 140.759 104.254 140.73C104.227 140.658 104.201 140.585 104.175 140.511C104.124 140.364 104.076 140.216 104.033 140.066C103.946 139.763 103.875 139.456 103.821 139.146C103.776 138.89 103.742 138.633 103.718 138.374C103.707 138.245 103.697 138.115 103.691 137.985C103.687 137.919 103.685 137.854 103.683 137.788C103.681 137.725 103.691 137.646 103.675 137.585C103.596 137.618 103.517 137.701 103.454 137.759C103.381 137.825 103.312 137.895 103.249 137.97C103.052 138.199 102.942 138.463 102.794 138.721C102.636 138.997 102.458 139.26 102.261 139.509C102.21 139.574 102.157 139.637 102.104 139.7C102.121 139.549 102.19 139.401 102.244 139.257C102.285 139.149 102.33 139.044 102.387 138.943C102.472 138.795 102.572 138.56 102.683 138.357C102.818 138.11 102.934 137.897 103.041 137.789C103.363 137.465 103.65 137.22 103.945 137.018C104.065 136.937 104.188 136.861 104.311 136.785C104.513 136.66 104.703 136.543 104.879 136.4C105.187 136.15 105.438 135.828 105.605 135.469L105.626 135.423C105.68 135.305 105.739 135.176 105.838 135.076L105.824 135.076C105.806 134.283 105.732 133.482 105.604 132.697C105.591 132.616 105.579 132.525 105.566 132.428C105.495 131.879 105.406 131.196 104.899 131.086L104.579 131.015C103.462 130.767 102.877 130.551 101.739 130.705L100.761 130.815C101.186 130.637 101.973 130.414 102.445 130.418C103.176 130.425 103.935 130.595 104.638 130.751L104.956 130.821C105.06 130.844 105.149 130.883 105.229 130.933C106.153 130.114 107.366 129.507 108.919 129.077C108.489 128.893 108.283 128.797 107.739 128.627L107.001 128.324C107.518 128.407 108.024 128.557 108.51 128.748C109.014 128.946 109.503 129.191 109.954 129.491C110.353 129.757 110.734 130.07 111.02 130.458C111.041 130.486 111.112 130.561 111.101 130.593C110.97 130.543 110.859 130.407 110.756 130.312C110.626 130.193 110.513 130.118 110.398 130.021C110.168 129.828 109.925 129.665 109.674 129.499C109.591 129.445 109.465 129.384 109.34 129.336C109.165 129.27 108.971 129.264 108.791 129.314Z" fill="#4285F4" stroke="#4285F4" stroke-width="0.5"></path> <path d="M109.44 150.856C109.154 151.442 108.665 151.97 107.985 152.425C106.914 153.143 105.62 153.708 104.342 154.016C103.704 154.169 103.086 154.245 102.504 154.239C101.777 154.232 101.104 154.099 100.504 153.845C98.9395 153.181 97.6299 151.978 96.7809 151.13C96.4446 150.794 96.0045 150.347 95.5825 149.867C95.493 149.766 95.3996 149.665 95.3054 149.564C95.088 149.33 94.8633 149.088 94.6883 148.829C94.6054 148.706 94.5298 148.575 94.464 148.44C94.1223 147.741 94.038 146.932 94.2331 146.22C94.6672 144.634 96.2273 143.258 97.7846 143.088C98.203 143.042 98.667 143.023 99.204 143.028C99.5727 143.031 99.9655 143.046 100.478 143.075C101.209 143.117 101.997 143.224 102.817 143.395C104.497 143.744 106.61 144.354 108.052 145.979C108.696 146.704 109.188 147.586 109.473 148.528C109.692 149.252 109.84 150.036 109.44 150.856ZM109.732 148.45C109.435 147.47 108.925 146.554 108.255 145.799C106.76 144.115 104.593 143.488 102.872 143.13C102.038 142.957 101.238 142.847 100.493 142.805C99.9766 142.775 99.5798 142.761 99.2065 142.757C98.6589 142.752 98.1842 142.772 97.7552 142.819C96.0955 143 94.4336 144.463 93.972 146.148C93.7596 146.923 93.8504 147.802 94.2207 148.559C94.2922 148.705 94.3743 148.847 94.464 148.98C94.6507 149.257 94.8828 149.506 95.1073 149.748C95.1995 149.847 95.2915 149.946 95.3795 150.046C95.8065 150.532 96.2505 150.982 96.5897 151.321C97.4546 152.185 98.7904 153.412 100.398 154.094C101.534 154.575 102.915 154.638 104.405 154.279C105.714 153.964 107.039 153.385 108.136 152.65C108.855 152.168 109.376 151.604 109.683 150.974C110.124 150.07 109.967 149.227 109.732 148.45Z" fill="#4285F4" stroke="#4285F4" stroke-width="0.5"></path> <path d="M102.076 146.789C102.089 147.837 101.589 148.739 100.587 149.478C101.537 150.083 102.391 151.009 103.14 152.256L102.708 151.784C101.166 149.954 100.189 149.183 97.9805 148.736L97.2744 148.64C97.4304 148.629 97.5847 148.625 97.7372 148.626C98.6673 148.635 99.5342 148.869 100.335 149.323C101.368 148.596 101.847 147.732 101.797 146.69C100.953 146.344 100.262 145.727 99.7136 144.838L100.256 145.332C100.861 145.925 101.397 146.317 101.999 146.547C101.999 146.547 102.065 146.561 102.066 146.571C102.835 146.848 103.719 146.869 104.998 146.706C105.079 146.696 105.163 146.69 105.245 146.69L105.817 146.687C104.345 147.094 103.105 147.126 102.076 146.789Z" fill="#4285F4" stroke="#4285F4" stroke-width="0.5"></path> <path d="M97.6216 164.595L97.9116 164.548C98.8492 164.403 99.672 164.201 100.428 163.931C101.738 163.461 103.406 162.552 103.905 160.888C104.096 160.251 104.093 159.525 103.896 158.729C103.717 158.003 103.325 156.696 102.72 156.106C101.706 155.117 100.425 154.354 98.9134 153.838C96.7815 153.111 94.5685 152.992 92.495 152.972H92.4947L92.2378 152.97C91.7305 152.968 91.3411 153.283 90.9289 153.616L90.8076 153.714C89.9096 154.431 89.3303 155.149 89.0361 155.911C88.8789 156.317 88.804 156.743 88.8136 157.175C88.8299 157.921 89.0013 158.438 89.4045 158.958C89.5462 159.14 89.6856 159.324 89.8253 159.508C90.0582 159.815 90.2906 160.121 90.5331 160.421C91.4044 161.499 92.2255 162.375 93.0438 163.1C93.6349 163.624 94.2441 164.056 94.9067 164.421C95.1023 164.529 95.3206 164.614 95.555 164.672C95.7117 164.711 95.8868 164.735 96.0747 164.743C96.1157 164.745 96.1573 164.746 96.1988 164.746C96.6671 164.751 97.1524 164.672 97.6216 164.595ZM99.001 153.582C100.551 154.111 101.866 154.895 102.909 155.912C103.561 156.549 103.972 157.91 104.159 158.664C104.368 159.508 104.369 160.282 104.165 160.966C103.633 162.738 101.888 163.695 100.519 164.186C99.7471 164.462 98.9078 164.668 97.9529 164.816L97.6654 164.862C97.1652 164.944 96.5929 165.038 96.0631 165.013C95.8569 165.005 95.6638 164.978 95.4897 164.935C95.2326 164.871 94.9923 164.778 94.7759 164.658C94.0958 164.283 93.4705 163.84 92.8643 163.303C92.0346 162.568 91.2034 161.681 90.3227 160.591C90.0785 160.289 89.8441 159.98 89.6097 159.671C89.4708 159.488 89.3316 159.305 89.1909 159.124C88.7543 158.561 88.5607 157.98 88.5429 157.181C88.5325 156.713 88.6136 156.253 88.7837 155.813C89.0957 155.006 89.7024 154.25 90.6389 153.503L90.7589 153.406C91.1898 153.057 91.6353 152.696 92.2393 152.7L92.4972 152.702C92.4972 152.702 92.4972 152.702 92.4977 152.702C94.594 152.722 96.8327 152.842 99.001 153.582Z" fill="#4285F4" stroke="#4285F4" stroke-width="0.5"></path> <path d="M96.7288 156.427C96.8178 157.903 96.0585 159.09 94.4713 159.964C95.5658 160.56 96.5708 161.382 97.4759 162.432L96.8373 161.974C94.9917 160.504 93.7842 159.774 91.5697 159.099L91.2676 158.911C92.2973 159.054 93.2707 159.356 94.1837 159.812C95.8533 158.946 96.5938 157.795 96.4452 156.3C95.6983 155.933 95.0617 155.355 94.5318 154.555L95.009 155.029C96.5619 156.371 97.8347 156.539 100.002 156.515L100.4 156.558C98.9673 156.885 97.7506 156.841 96.7288 156.427Z" fill="#4285F4" stroke="#4285F4" stroke-width="0.5"></path> <path d="M91.7329 174.833C92.755 174.737 93.5839 174.496 94.2675 174.096C96.3468 172.879 96.647 170.005 96.2348 167.721C96.1468 167.233 96.016 166.801 95.8355 166.401C95.6939 166.087 95.5173 165.731 95.2817 165.471C95.1314 165.304 94.9091 165.164 94.6943 165.028L94.5605 164.943C93.4121 164.199 92.0303 163.843 90.8255 163.566C89.9441 163.365 89.0405 163.2 88.1393 163.078L87.8666 163.04C87.1615 162.94 86.3993 162.859 85.8012 162.977C85.0377 163.129 84.0206 163.518 83.5108 164.508C82.9587 165.581 83.1325 166.869 83.3387 167.991C83.7167 170.048 84.8684 173.65 88.3344 174.656C88.8691 174.811 89.5194 174.894 90.2673 174.901C90.715 174.905 91.2082 174.882 91.7329 174.833ZM87.9044 162.772L88.1756 162.81C89.0847 162.933 89.9968 163.099 90.8863 163.303C92.1134 163.584 93.5224 163.948 94.7076 164.716L94.8387 164.799C95.0582 164.938 95.3074 165.095 95.483 165.289C95.7431 165.577 95.932 165.957 96.0823 166.29C96.2721 166.71 96.4091 167.163 96.5013 167.673C96.9298 170.047 96.6039 173.043 94.4045 174.33C93.6858 174.75 92.8202 175.003 91.7584 175.102C90.3219 175.238 89.148 175.174 88.259 174.916C84.6533 173.869 83.4618 170.159 83.0724 168.04C82.8581 166.874 82.6788 165.533 83.2702 164.384C83.8292 163.298 84.9265 162.875 85.7483 162.712C86.001 162.662 86.2677 162.639 86.5644 162.641C87.0141 162.646 87.4668 162.71 87.9044 162.772Z" fill="#4285F4" stroke="#4285F4" stroke-width="0.5"></path> <path d="M92.0209 171.604C91.0688 172.792 89.6694 173.346 87.8379 173.214L87.8747 173.296C89.8084 173.508 91.0443 173.07 92.009 171.728L92.0209 171.604Z" fill="#4285F4" stroke="#4285F4" stroke-width="0.5"></path> <path d="M94.2058 166.674L94.0928 166.464C94.3742 167.841 94.0644 169.268 93.1152 170.806L93.2703 170.751C94.2938 169.149 94.5378 168.079 94.2058 166.674Z" fill="#4285F4" stroke="#4285F4" stroke-width="0.5"></path> <path d="M85.9056 175.362C85.7555 175.857 85.3058 176.248 84.909 176.593L84.7599 176.723C83.6597 177.696 82.4614 178.456 81.1977 178.981C80.55 179.251 79.8711 179.464 79.18 179.617C78.8312 179.694 78.4702 179.758 78.1075 179.805C78.0321 179.816 77.9409 179.833 77.8415 179.852C77.7107 179.877 77.5688 179.903 77.4358 179.917C77.2654 179.898 77.0943 179.877 76.921 179.85C76.4229 179.662 76.0725 179.389 75.8814 179.034C75.8067 178.895 75.7326 178.742 75.6614 178.581C75.4666 178.141 75.3078 177.671 75.1486 177.188C74.7436 175.959 74.4811 174.681 74.3683 173.391C74.3579 173.272 74.3453 173.148 74.3325 173.019C74.2628 172.329 74.1839 171.547 74.3599 170.961C74.5224 170.42 74.8403 169.861 75.2102 169.466C75.7049 168.937 76.5363 168.6 77.328 168.607C77.6304 168.61 77.911 168.662 78.1627 168.762C80.5547 169.709 82.8631 171.308 85.2203 173.649C85.6282 174.103 86.0836 174.773 85.9056 175.362ZM78.6729 179.993C78.8636 179.959 79.0527 179.923 79.2384 179.882C79.945 179.726 80.6392 179.507 81.3016 179.231C82.5931 178.694 83.8167 177.919 84.9394 176.926L85.0865 176.798C85.1965 176.702 85.3105 176.602 85.4218 176.498C84.2318 178.743 81.7572 180.015 78.6729 179.993ZM85.4161 173.463C83.0273 171.089 80.6892 169.471 78.2623 168.51C77.9797 168.398 77.6662 168.34 77.3307 168.337C76.4666 168.328 75.5565 168.699 75.0124 169.281C74.6153 169.706 74.2746 170.305 74.1008 170.883C73.9092 171.521 73.991 172.331 74.0632 173.046C74.0761 173.174 74.0885 173.297 74.0988 173.414C74.2131 174.725 74.4801 176.024 74.8917 177.273C75.0529 177.763 75.2141 178.239 75.4136 178.691C75.4878 178.858 75.5649 179.017 75.6431 179.162C75.8606 179.566 76.2436 179.876 76.7818 180.088L76.7791 180.105C76.8058 180.109 76.8315 180.111 76.8582 180.115C76.9057 180.133 76.9522 180.151 77.0021 180.166C77.1107 180.201 77.2607 180.203 77.4219 180.188C81.6428 180.662 85.0118 178.911 86.0987 175.614L86.0984 175.614C86.1229 175.557 86.1462 175.5 86.1645 175.44C86.3791 174.731 85.8757 173.973 85.4161 173.463Z" fill="#4285F4" stroke="#4285F4" stroke-width="0.5"></path> <path d="M77.707 178.302C80.4561 177.935 82.5833 176.839 84.0375 174.929C82.6775 177.199 80.5087 178.28 77.707 178.302Z" fill="#4285F4" stroke="#4285F4" stroke-width="0.5"></path> <path d="M74.9906 179.536C74.9637 179.989 74.8987 180.499 74.6237 180.849C74.4054 181.128 74.0615 181.208 73.6976 181.293C73.5455 181.328 73.3885 181.365 73.2397 181.417C72.7017 181.606 72.1561 181.778 71.6183 181.929C70.5364 182.233 69.473 182.458 68.4579 182.599C67.2966 182.76 66.2318 182.83 65.1069 182.82C64.1886 182.811 63.3109 182.751 62.1932 182.657C62.0154 182.642 61.832 182.627 61.6955 182.537C61.3501 182.31 61.2173 181.519 61.1536 181.139C61.0401 180.461 61.1338 179.822 61.2403 179.286C61.8661 176.138 62.8439 173.589 64.2297 171.494C66.0333 169.856 67.8435 169.713 69.701 171.061C71.6238 172.538 73.1502 174.538 74.2346 177.005C74.3045 177.164 74.3762 177.317 74.4465 177.467C74.7644 178.146 75.0391 178.732 74.9906 179.536ZM62.7683 182.975C63.62 183.041 64.3488 183.083 65.1041 183.09C66.2429 183.101 67.3204 183.03 68.4952 182.867C69.5223 182.724 70.5977 182.496 71.6915 182.19C72.2349 182.037 72.786 181.863 73.3292 181.673C73.4644 181.625 73.6076 181.591 73.7591 181.556C73.7591 181.556 73.7594 181.556 73.7596 181.556C70.7411 184.079 67.0516 184.559 62.7683 182.975ZM74.6915 177.352C74.6222 177.205 74.5515 177.053 74.4823 176.896C73.3794 174.387 71.8253 172.351 69.8629 170.845C68.984 170.207 68.1024 169.88 67.2398 169.871C66.1673 169.861 65.0891 170.344 64.0351 171.305L64.0133 171.331C62.6028 173.458 61.6092 176.043 60.9748 179.233C60.8635 179.793 60.7659 180.463 60.8865 181.183C60.9622 181.633 61.1026 182.471 61.5467 182.763C61.6013 182.799 61.6589 182.825 61.7177 182.846L61.7175 182.846C66.7376 185.01 71.0074 184.507 74.4086 181.352C74.5678 181.275 74.7152 181.171 74.8366 181.016C75.1575 180.607 75.2312 180.047 75.2609 179.553C75.3133 178.68 75.0114 178.035 74.6915 177.352Z" fill="#4285F4" stroke="#4285F4" stroke-width="0.5"></path> <path d="M62.5508 180.48L62.8205 180.566C66.2771 181.488 69.907 181.071 73.4222 179.324L73.2633 179.444C69.6541 181.714 66.0343 181.976 62.5508 180.48Z" fill="#4285F4" stroke="#4285F4" stroke-width="0.5"></path> <path d="M2.53378 100.94C2.81143 100.515 3.2975 99.9584 4.03574 99.7198C4.57719 99.5448 5.18218 99.4835 5.76739 99.4244L6.01117 99.3994C7.64564 99.2273 9.41981 99.3117 11.2694 99.6481L11.4734 99.6847C12.1557 99.8059 12.8618 99.9315 13.4307 100.328C13.9198 100.668 14.297 101.172 14.5514 101.825L14.5653 101.861C14.6555 102.099 14.7003 102.385 14.7433 102.661C14.7757 102.868 14.8091 103.082 14.8617 103.279C14.9977 103.785 15.1648 104.311 15.374 104.888C15.4363 105.061 15.504 105.232 15.5718 105.404C15.7209 105.781 15.8749 106.17 15.9656 106.567C16.0779 107.06 16.067 107.574 15.9305 108.236C15.7137 109.284 15.1169 110.178 14.2933 110.688C14.1465 110.779 13.992 110.858 13.8337 110.923C13.339 111.127 12.7706 111.235 12.221 111.34C12.0623 111.37 11.9053 111.4 11.7517 111.431C10.8884 111.61 9.98376 111.747 9.06255 111.837C8.48155 111.894 7.99943 111.92 7.54501 111.92C6.71949 111.92 6.00449 111.829 5.3592 111.641C4.46099 111.38 3.69283 110.916 3.13803 110.299C2.87151 110.002 2.49744 109.55 2.33031 109.048C2.19037 108.628 2.25985 108.156 2.3266 107.699C2.33971 107.612 2.35231 107.526 2.36344 107.441C2.50288 106.373 2.45566 105.296 2.22276 104.24C2.18246 104.056 2.12832 103.872 2.07615 103.693C1.96613 103.318 1.8529 102.929 1.86649 102.545C1.88133 102.135 2.10582 101.595 2.53378 100.94ZM1.8163 103.769C1.86723 103.943 1.9199 104.123 1.95846 104.298C2.18469 105.324 2.23042 106.369 2.09494 107.406C2.08406 107.489 2.0717 107.574 2.05884 107.66C1.98739 108.148 1.91322 108.652 2.07343 109.133C2.25663 109.683 2.65394 110.165 2.93678 110.48C3.52545 111.135 4.33688 111.626 5.28354 111.901C5.95405 112.096 6.69353 112.191 7.54501 112.191C8.00858 112.191 8.4991 112.164 9.08901 112.106C10.0196 112.015 10.9339 111.877 11.8066 111.697C11.9587 111.665 12.1144 111.635 12.2719 111.605C12.8346 111.499 13.4166 111.388 13.9368 111.173C14.1089 111.102 14.2765 111.016 14.4355 110.918C15.3223 110.369 15.9637 109.411 16.1953 108.291C16.3404 107.589 16.3508 107.039 16.2294 106.507C16.1343 106.09 15.976 105.69 15.8235 105.304C15.7567 105.135 15.69 104.966 15.6284 104.796C15.4222 104.226 15.2571 103.707 15.1233 103.209C15.0741 103.026 15.0434 102.828 15.0106 102.619C14.9653 102.329 14.9188 102.029 14.8182 101.765L14.8036 101.727C14.5292 101.023 14.1193 100.477 13.5855 100.105C12.9674 99.6753 12.2319 99.5446 11.5206 99.4182L11.3181 99.3819C10.0765 99.1559 8.86353 99.0414 7.71338 99.0414C7.12595 99.0414 6.54371 99.0713 5.98273 99.1304L5.73994 99.1551C5.14089 99.2157 4.52132 99.2785 3.95268 99.4622C3.30863 99.6704 2.73949 100.13 2.30682 100.792C1.85191 101.488 1.61258 102.075 1.59602 102.536C1.58094 102.964 1.7006 103.373 1.8163 103.769Z" fill="#4285F4" stroke="#4285F4" stroke-width="0.5"></path> <path d="M9.13134 105.209C10.1977 106.761 10.6746 108.245 10.5908 109.738C10.1945 109.829 9.79863 110.006 9.16842 110.378C10.1571 109.982 11.1673 109.778 12.2 109.775C11.9293 109.64 11.4114 109.665 11.2101 109.665C11.0944 109.665 10.9784 109.675 10.8627 109.69C10.9332 108.151 10.4397 106.627 9.34544 105.039C9.3311 104.599 9.30564 104.148 9.25422 103.715C12.228 103.246 13.4011 104.069 14.151 104.525C13.5136 103.916 12.3422 103.37 10.793 103.37C10.3188 103.37 9.7927 103.396 9.21812 103.446C9.04703 102.805 8.86952 102.256 8.69942 101.782C8.63687 101.608 8.60918 101.416 8.71672 101.266C8.95704 100.93 9.52271 100.912 9.67377 100.77C9.66858 100.77 9.29006 100.792 9.28462 100.792C8.91847 100.792 8.63241 101.016 8.423 101.354C8.26626 100.947 8.03584 100.58 7.61751 100.486C7.9315 100.668 8.10457 101.022 8.40397 101.817C8.7909 102.845 9.28166 104.151 9.07027 104.926C8.40941 104.821 7.76363 104.766 7.13565 104.766C5.785 104.766 4.5147 105.008 3.34082 105.491C4.80767 105.112 7.037 104.812 9.13134 105.209Z" fill="#4285F4" stroke="#4285F4" stroke-width="0.5"></path> <path d="M4.66044 116.223C4.78208 115.702 5.00583 115.184 5.3255 114.683C5.52676 114.368 5.98266 114.187 6.38467 114.028C6.50013 113.982 6.61163 113.938 6.71325 113.893C7.95956 113.335 9.25409 112.86 10.5607 112.479C11.3482 112.25 12.3871 111.98 13.4366 111.932C13.5483 111.927 13.6608 111.924 13.7731 111.924C14.7079 111.924 15.5418 112.105 16.2524 112.463C17.4173 113.05 18.3141 114.236 18.5925 115.557C18.6226 115.7 18.6335 115.849 18.6451 116.006C18.6587 116.196 18.6733 116.393 18.7252 116.583C18.749 116.67 18.7732 116.755 18.7977 116.839C18.8684 117.086 18.9354 117.318 18.9779 117.572C19.1203 118.425 19.2081 119.318 19.238 120.228C19.2499 120.587 19.2531 120.954 19.2471 121.328C19.2976 122.807 18.8481 123.792 17.8797 124.336C14.834 125.829 12.1171 126.747 9.57327 127.144C9.47215 127.159 9.36386 127.167 9.25137 127.167C8.39791 127.167 7.46954 126.736 6.93403 126.367C6.07018 125.772 5.40141 124.872 5.18879 124.02C5.04687 123.451 5.08767 122.879 5.13069 122.273C5.16357 121.814 5.19744 121.339 5.14305 120.869C5.13167 120.771 5.125 120.675 5.11808 120.58C5.1025 120.368 5.08667 120.148 5.02289 119.923C4.91732 119.551 4.79766 119.118 4.7089 118.683C4.51037 117.713 4.49504 116.932 4.66044 116.223ZM4.44362 118.737C4.53435 119.181 4.65575 119.62 4.76231 119.997C4.81868 120.196 4.83277 120.392 4.84785 120.6C4.85502 120.699 4.86243 120.798 4.87405 120.901C4.92572 121.345 4.8926 121.807 4.86095 122.254C4.81793 122.854 4.77392 123.474 4.92622 124.085C5.15739 125.013 5.85064 125.949 6.78025 126.59C7.3479 126.981 8.33585 127.438 9.25137 127.438C9.37796 127.438 9.50034 127.429 9.61505 127.411C12.1861 127.011 14.9284 126.084 18.0055 124.576C19.0622 123.983 19.5713 122.887 19.5179 121.325C19.5235 120.954 19.5206 120.582 19.5085 120.219C19.4783 119.297 19.3893 118.392 19.2449 117.528C19.1999 117.258 19.1275 117.007 19.0578 116.765C19.0338 116.681 19.0095 116.597 18.9863 116.512C18.9413 116.347 18.9284 116.172 18.9149 115.986C18.9032 115.827 18.8911 115.662 18.8572 115.501C18.5578 114.08 17.6297 112.854 16.3738 112.221C15.6256 111.845 14.7504 111.653 13.7731 111.653C13.6566 111.653 13.5399 111.656 13.424 111.661C12.3458 111.711 11.2871 111.986 10.4851 112.219C9.16657 112.604 7.86017 113.083 6.60273 113.646C6.50458 113.69 6.39678 113.732 6.28503 113.776C5.8447 113.951 5.34553 114.148 5.09706 114.537C4.76131 115.064 4.52545 115.611 4.39664 116.162C4.22457 116.9 4.24014 117.742 4.44362 118.737Z" fill="#D0111D" stroke="#D0111D" stroke-width="0.5"></path> <path d="M10.977 118.789C11.226 118.813 11.4812 118.832 11.7076 118.938C12.0184 119.083 12.2397 119.353 12.4385 119.623C12.6479 119.907 12.8817 120.178 13.0785 120.47C13.5189 121.123 13.8994 121.876 13.9238 122.679C13.9303 122.89 13.911 123.102 13.8638 123.308C13.8512 123.362 13.6687 123.935 13.6351 123.92C13.6351 123.92 13.397 124.059 13.3352 124.086C13.1977 124.147 12.4155 124.666 12.209 124.899C12.9495 124.523 13.7055 123.952 15.2448 123.939C14.9815 123.874 14.7239 123.841 14.473 123.841C14.2895 123.841 14.1103 123.862 13.934 123.896C14.6967 122.019 13.3181 120.205 11.922 118.64C11.8621 118.573 12.0585 118.051 12.0861 117.961C12.1603 117.718 12.2501 117.48 12.3536 117.248C12.5631 116.779 12.8306 116.345 13.1253 115.925C14.5452 116.293 17.2027 116.08 17.2057 115.887C15.6992 116.024 14.317 115.942 13.0986 115.642C11.9694 115.365 10.9451 114.891 10.0467 114.236C10.463 114.06 10.823 113.769 11.1251 113.35C10.2492 114.165 9.05255 114.42 7.6082 114.242C8.05742 114.334 8.86317 114.418 9.39398 114.389C9.62441 114.376 9.85434 114.436 10.0437 114.568C10.8811 115.15 11.8211 115.581 12.8452 115.854C12.2093 116.757 11.8167 117.666 11.6503 118.622C10.1115 118.369 8.56352 118.69 7.24525 119.535C6.81358 119.812 6.41503 120.141 6.06445 120.515C6.66079 119.898 8.66983 118.56 10.977 118.789Z" fill="#D0111D" stroke="#D0111D" stroke-width="0.5"></path> <path d="M20.6859 127.149C19.6379 126.361 18.4719 125.918 17.2202 125.833C16.7786 125.802 16.1966 125.993 15.6873 126.159C15.5115 126.217 15.3439 126.271 15.1929 126.314C14.4942 126.509 13.797 126.739 13.1205 126.996C11.9254 127.451 10.751 128.052 9.61545 128.634L9.36821 128.761C8.42328 129.244 7.48996 129.854 7.06323 131.027C6.74157 131.911 6.36998 133.199 6.85679 134.182C7.74931 135.984 8.36122 138.015 8.67496 140.216C8.87053 141.589 9.96578 142.781 11.4005 143.181C12.159 143.393 12.942 143.501 13.7272 143.501C16.8602 143.501 20.2157 141.749 22.9331 138.693C23.1076 138.497 23.2688 138.283 23.4127 138.057C24.3475 136.585 24.5609 134.627 23.9697 132.949C23.2849 131.006 22.2411 129.162 20.6859 127.149ZM17.125 125.56C17.125 125.56 17.125 125.56 17.1255 125.56C17.1638 125.56 17.2019 125.561 17.2387 125.563C18.5496 125.652 19.7689 126.117 20.8635 126.944L20.8889 126.969C22.4683 129.011 23.5284 130.883 24.2251 132.859C24.8432 134.614 24.6197 136.661 23.6412 138.202C23.4894 138.441 23.3193 138.667 23.1356 138.873C20.3665 141.986 16.9376 143.771 13.7272 143.771C12.9173 143.771 12.1098 143.66 11.3276 143.442C9.79124 143.013 8.6176 141.732 8.40696 140.254C8.09717 138.081 7.49391 136.078 6.614 134.302C6.0812 133.226 6.47011 131.865 6.80882 130.934C7.26918 129.67 8.29842 129.004 9.24509 128.52L9.49183 128.393C10.6343 127.808 11.8151 127.203 13.0243 126.743C13.7084 126.483 14.4133 126.251 15.1199 126.053C15.2675 126.012 15.4314 125.958 15.6035 125.902C16.0963 125.742 16.6548 125.56 17.125 125.56Z" fill="#4285F4" stroke="#4285F4" stroke-width="0.5"></path> <path d="M12.955 129.111C14.4607 129.541 15.3975 130.143 16.2945 130.942C16.0156 131.271 15.9409 131.799 15.8823 132.219C15.8695 132.312 15.8571 132.4 15.8438 132.478C15.7132 133.23 15.6339 133.996 15.6032 134.757C15.5246 134.735 15.445 134.727 15.3728 134.727C15.3253 134.727 15.2815 134.73 15.243 134.732C14.6083 134.769 13.9766 134.842 13.3504 134.95C12.7006 135.062 12.0578 135.211 11.4242 135.393C10.7668 135.581 10.1195 135.804 9.4841 136.058C9.32859 136.12 9.1753 136.19 9.01855 136.249C9.17753 136.212 9.3454 136.198 9.5066 136.169C9.672 136.139 9.83691 136.105 10.0011 136.069C10.3294 135.996 10.6548 135.91 10.9764 135.811C11.5156 135.646 12.0452 135.46 12.5951 135.329C13.0577 135.219 13.5272 135.145 14.0001 135.096C14.1957 135.076 14.3915 135.059 14.5876 135.045C14.8093 135.029 15.0355 135.002 15.2581 135.002C15.3916 134.995 15.5174 134.993 15.6057 135.046C15.7018 135.105 15.7567 135.228 15.8146 135.359L15.8361 135.408C16.0163 135.806 16.2898 136.164 16.6275 136.443C16.8152 136.598 17.0206 136.728 17.2196 136.853C17.3902 136.961 17.5608 137.068 17.7215 137.194C17.724 138.446 17.5905 139.584 17.1489 140.649C17.095 140.779 16.9929 140.882 16.8673 140.944C16.7365 141.009 16.6062 141.075 16.4819 141.152C16.3573 141.229 16.2507 141.324 16.1399 141.419C16.5867 141.219 17.0369 141.018 17.5136 140.906C17.8172 140.834 18.128 140.8 18.4378 140.766C18.235 140.713 18.0311 140.7 17.8224 140.7C17.6506 140.7 17.474 140.73 17.299 140.778C17.3242 140.771 17.3717 140.599 17.3828 140.571C17.411 140.498 17.4382 140.426 17.4644 140.352C17.5171 140.206 17.5658 140.057 17.6103 139.908C17.7003 139.606 17.7739 139.3 17.8313 138.99C17.8788 138.735 17.9153 138.478 17.9413 138.219C17.9544 138.09 17.9648 137.96 17.9727 137.831C17.9767 137.765 17.9801 137.7 17.9828 137.634C17.9853 137.57 17.9752 137.491 17.992 137.431C18.0711 137.465 18.1487 137.548 18.2118 137.607C18.284 137.673 18.3517 137.745 18.4148 137.819C18.6093 138.051 18.7171 138.315 18.863 138.576C19.018 138.852 19.1938 139.117 19.3881 139.368C19.4386 139.433 19.4902 139.498 19.5434 139.561C19.5281 139.409 19.4598 139.261 19.4072 139.117C19.3671 139.008 19.3236 138.902 19.2672 138.801C19.1839 138.652 19.0858 138.417 18.9767 138.212C18.8447 137.964 18.7305 137.75 18.6237 137.64C18.3052 137.314 18.0207 137.066 17.7277 136.862C17.609 136.779 17.4866 136.702 17.364 136.624C17.1635 136.498 16.9739 136.379 16.7998 136.234C16.494 135.982 16.246 135.657 16.0828 135.296L16.0623 135.25C16.0097 135.131 15.9516 135.002 15.8529 134.901L15.867 134.901C15.8927 134.108 15.9743 133.309 16.11 132.524C16.1244 132.443 16.137 132.353 16.1506 132.256C16.227 131.708 16.3222 131.026 16.8307 130.921L17.1509 130.853C18.2701 130.615 18.8571 130.405 19.9941 130.57L20.9709 130.688C20.5474 130.507 19.7629 130.276 19.2907 130.276C18.5596 130.276 17.7989 130.438 17.0948 130.588L16.7756 130.655C16.6718 130.677 16.582 130.715 16.5021 130.764C15.5854 129.937 14.3781 129.318 12.8295 128.873C13.2614 128.692 13.4688 128.599 14.0145 128.434L14.7544 128.138C14.2375 128.217 13.7304 128.362 13.2421 128.548C12.736 128.741 12.245 128.981 11.7911 129.277C11.3898 129.539 11.0053 129.849 10.7153 130.233C10.6943 130.262 10.6224 130.336 10.6335 130.368C10.7648 130.32 10.8775 130.184 10.9809 130.091C11.1124 129.972 11.2256 129.899 11.3418 129.803C11.5737 129.612 11.818 129.451 12.0714 129.288C12.1547 129.234 12.2806 129.175 12.4067 129.128C12.5817 129.064 12.7758 129.06 12.955 129.111Z" fill="#4285F4" stroke="#4285F4" stroke-width="0.5"></path> <path d="M12.0898 148.318C12.384 147.378 12.8836 146.501 13.5346 145.782C14.9918 144.17 17.1109 143.582 18.7941 143.249C19.6166 143.086 20.4048 142.986 21.1366 142.951C21.6491 142.927 22.042 142.916 22.4109 142.916C22.9476 142.916 23.4114 142.94 23.8293 142.99C25.3851 143.175 26.9318 144.565 27.3509 146.155C27.5391 146.869 27.4471 147.677 27.099 148.373C27.0317 148.508 26.9548 148.637 26.8708 148.759C26.6935 149.017 26.4663 149.257 26.2467 149.489C26.1516 149.589 26.0571 149.689 25.9666 149.789C25.5399 150.265 25.0956 150.708 24.7562 151.04C23.8992 151.88 22.578 153.072 21.0076 153.72C20.4048 153.968 19.7303 154.095 19.0042 154.095C18.422 154.095 17.8041 154.014 17.1682 153.854C15.8927 153.534 14.6041 152.957 13.5403 152.229C12.8653 151.767 12.381 151.234 12.1004 150.645C11.7085 149.822 11.8635 149.04 12.0898 148.318ZM11.8561 150.762C12.1575 151.394 12.6725 151.963 13.3875 152.452C14.4773 153.198 15.7966 153.789 17.1022 154.117C18.5889 154.49 19.9707 154.44 21.1107 153.97C22.7251 153.304 24.0726 152.089 24.9455 151.234C25.288 150.898 25.7364 150.452 26.1679 149.97C26.2571 149.871 26.3498 149.773 26.4431 149.675C26.6698 149.435 26.9044 149.188 27.0935 148.913C27.1848 148.781 27.2681 148.64 27.341 148.494C27.7183 147.741 27.8174 146.863 27.6127 146.086C27.1672 144.396 25.5194 142.918 23.8614 142.721C23.433 142.67 22.9585 142.645 22.4109 142.645C22.0375 142.645 21.6405 142.656 21.124 142.681C20.3786 142.716 19.5771 142.818 18.7416 142.983C17.0174 143.324 14.8445 143.93 13.3336 145.6C12.6567 146.349 12.1375 147.26 11.8314 148.237C11.5886 149.011 11.4237 149.853 11.8561 150.762Z" fill="#4285F4" stroke="#4285F4" stroke-width="0.5"></path> <path d="M19.5039 146.65C19.4806 147.697 19.9721 148.604 20.967 149.352C20.0112 149.949 19.1486 150.866 18.3876 152.106L18.8242 151.639C20.3838 149.823 21.3678 149.062 23.5803 148.636L24.2874 148.546C24.1314 148.534 23.9774 148.528 23.8246 148.528C22.8947 148.528 22.0257 148.754 21.2204 149.201C20.1939 148.463 19.7241 147.594 19.7837 146.553C20.6313 146.215 21.328 145.605 21.8845 144.721L21.3374 145.211C20.7267 145.797 20.1875 146.184 19.583 146.409C19.583 146.409 19.517 146.422 19.516 146.432C18.7444 146.701 17.86 146.714 16.5828 146.539C16.5014 146.528 16.4176 146.521 16.3355 146.52L15.7637 146.512C17.2323 146.933 18.4719 146.977 19.5039 146.65Z" fill="#4285F4" stroke="#4285F4" stroke-width="0.5"></path> <path d="M25.2093 164.662C25.2508 164.662 25.2923 164.661 25.3334 164.66C25.5215 164.654 25.6968 164.631 25.8538 164.594C26.0887 164.538 26.3077 164.456 26.5045 164.35C27.1706 163.991 27.7837 163.564 28.3798 163.046C29.2051 162.329 30.0346 161.461 30.916 160.391C31.1612 160.094 31.3968 159.789 31.6327 159.485C31.7741 159.302 31.9151 159.12 32.0587 158.939C32.4669 158.423 32.6432 157.908 32.6667 157.162C32.6802 156.73 32.6095 156.304 32.4563 155.895C32.1692 155.131 31.5966 154.407 30.7056 153.682L30.5852 153.583C30.1762 153.245 29.7898 152.927 29.2827 152.925L29.0258 152.924H29.0254C26.9518 152.924 24.7378 153.022 22.5992 153.728C21.0822 154.23 19.7943 154.981 18.7715 155.959C18.1608 156.544 17.7563 157.847 17.5694 158.572C17.365 159.366 17.3553 160.092 17.5402 160.73C18.0231 162.399 19.682 163.324 20.9887 163.806C21.7413 164.084 22.5624 164.294 23.4986 164.448L23.7879 164.497C24.2567 164.578 24.741 164.662 25.2093 164.662ZM29.0254 152.653C29.0258 152.653 29.0258 152.653 29.0258 152.653L29.2837 152.654C29.8877 152.656 30.3298 153.021 30.7575 153.374L30.8764 153.472C31.8058 154.229 32.4051 154.99 32.7094 155.8C32.8753 156.242 32.952 156.703 32.9371 157.17C32.9119 157.969 32.7126 158.549 32.2706 159.107C32.1282 159.287 31.9872 159.469 31.8468 159.65C31.6095 159.957 31.3721 160.264 31.1249 160.564C30.2338 161.645 29.3942 162.524 28.5573 163.251C27.9459 163.782 27.3167 164.219 26.6328 164.588C26.4155 164.705 26.1745 164.796 25.9166 164.857C25.7421 164.899 25.5487 164.924 25.3425 164.93C24.8125 164.95 24.2411 164.85 23.7417 164.764L23.4546 164.715C22.5013 164.558 21.6639 164.344 20.895 164.06C19.53 163.556 17.7944 162.583 17.2801 160.806C17.0816 160.12 17.0905 159.346 17.3073 158.505C17.5014 157.752 17.9252 156.395 18.5843 155.764C19.6366 154.757 20.9588 153.986 22.5139 153.472C24.6893 152.753 26.929 152.653 29.0254 152.653Z" fill="#4285F4" stroke="#4285F4" stroke-width="0.5"></path> <path d="M24.7598 156.339C24.6565 157.813 25.4046 159.007 26.9835 159.897C25.8833 160.482 24.8706 161.295 23.9553 162.336L24.5984 161.884C26.4579 160.432 27.6723 159.713 29.893 159.059L30.1968 158.874C29.1661 159.007 28.1898 159.3 27.2725 159.748C25.6111 158.866 24.8815 157.708 25.0447 156.214C25.795 155.854 26.4371 155.282 26.9746 154.487L26.493 154.957C24.9272 156.284 23.653 156.44 21.4859 156.395L21.0879 156.434C22.5169 156.775 23.7341 156.742 24.7598 156.339Z" fill="#4285F4" stroke="#4285F4" stroke-width="0.5"></path> <path d="M31.0432 174.873C31.7909 174.873 32.4419 174.797 32.9784 174.646C36.4538 173.673 37.6398 170.083 38.0373 168.03C38.2544 166.909 38.4405 165.624 37.8986 164.545C37.3982 163.55 36.385 163.151 35.6228 162.993C35.0262 162.868 34.263 162.942 33.5571 163.035L33.2839 163.071C32.3818 163.185 31.4764 163.34 30.593 163.534C29.3858 163.798 28.0008 164.142 26.8452 164.874L26.7107 164.958C26.4946 165.092 26.2708 165.23 26.1188 165.395C25.8809 165.653 25.701 166.008 25.5566 166.321C25.3719 166.719 25.2371 167.149 25.1444 167.636C24.7103 169.916 24.9832 172.793 27.0506 174.03C27.7303 174.437 28.557 174.686 29.5781 174.791C30.1023 174.845 30.5953 174.873 31.0432 174.873ZM34.863 162.65C35.1595 162.65 35.4262 162.675 35.6784 162.728C36.4985 162.899 37.5918 163.332 38.1404 164.424C38.7207 165.578 38.5288 166.917 38.3033 168.081C37.8937 170.196 36.6666 173.895 33.0513 174.907C32.1598 175.157 30.9854 175.209 29.5502 175.06C28.4893 174.951 27.6262 174.69 26.9117 174.262C24.7244 172.954 24.4274 169.955 24.8784 167.585C24.9756 167.076 25.117 166.625 25.3106 166.207C25.4644 165.875 25.6567 165.498 25.9195 165.212C26.097 165.019 26.3475 164.865 26.5685 164.728L26.7003 164.646C27.893 163.89 29.3052 163.539 30.5349 163.269C31.4265 163.074 32.34 162.917 33.2503 162.802L33.5218 162.767C33.9599 162.709 34.4131 162.65 34.863 162.65Z" fill="#4285F4" stroke="#4285F4" stroke-width="0.5"></path> <path d="M29.3213 171.559C30.262 172.757 31.6559 173.323 33.4887 173.209L33.4511 173.291C31.5155 173.485 30.284 173.035 29.3322 171.684L29.3213 171.559Z" fill="#4285F4" stroke="#4285F4" stroke-width="0.5"></path> <path d="M27.184 166.609L27.2989 166.399C27.0042 167.774 27.3004 169.205 28.2347 170.751L28.0805 170.694C27.0722 169.082 26.8383 168.011 27.184 166.609Z" fill="#4285F4" stroke="#4285F4" stroke-width="0.5"></path> <path d="M36.1672 173.543C38.5464 171.224 40.8702 169.648 43.2711 168.723C43.5237 168.626 43.8049 168.577 44.107 168.577C44.8989 168.577 45.7271 168.921 46.2169 169.455C46.5828 169.855 46.8953 170.416 47.0528 170.959C47.2231 171.546 47.1366 172.328 47.0605 173.017C47.0461 173.145 47.0325 173.27 47.0209 173.388C46.896 174.677 46.6211 175.952 46.2045 177.178C46.0406 177.659 45.8774 178.128 45.6784 178.566C45.6057 178.726 45.5301 178.878 45.4542 179.016C45.2593 179.369 44.9065 179.64 44.4066 179.823C44.2331 179.848 44.0617 179.868 43.8911 179.885C43.7584 179.869 43.6169 179.842 43.4862 179.815C43.387 179.796 43.296 179.778 43.2206 179.767C42.8584 179.716 42.4982 179.649 42.1501 179.568C41.4605 179.409 40.7836 179.189 40.1383 178.913C38.8802 178.375 37.6887 177.604 36.5979 176.621L36.4503 176.49C36.0567 176.141 35.6107 175.745 35.4653 175.249C35.293 174.659 35.7548 173.993 36.1672 173.543ZM35.9383 176.39C36.0488 176.495 36.1615 176.595 36.2708 176.692L36.4167 176.822C37.5297 177.825 38.7459 178.612 40.032 179.162C40.6919 179.444 41.3842 179.669 42.089 179.832C42.2742 179.875 42.4631 179.914 42.6535 179.948C39.5692 179.941 37.1067 178.645 35.9383 176.39ZM35.206 175.325C35.2235 175.385 35.2463 175.442 35.2703 175.499L35.2698 175.499C36.3252 178.807 39.6772 180.59 43.9025 180.156C44.0637 180.172 44.2135 180.172 44.3226 180.138C44.3727 180.123 44.4192 180.105 44.4669 180.088C44.4936 180.084 44.5194 180.083 44.5461 180.079L44.5436 180.062C45.084 179.855 45.4697 179.548 45.6913 179.147C45.7706 179.003 45.8492 178.845 45.9249 178.678C46.1289 178.228 46.2948 177.753 46.4604 177.265C46.8842 176.02 47.1636 174.724 47.2904 173.414C47.3018 173.297 47.3154 173.174 47.3294 173.047C47.4086 172.332 47.4981 171.523 47.3126 170.883C47.1443 170.303 46.809 169.701 46.4164 169.272C45.8777 168.685 44.9711 168.306 44.107 168.306C43.7715 168.306 43.4575 168.361 43.1739 168.47C40.7379 169.408 38.3844 171.004 35.9731 173.354C35.5086 173.861 34.998 174.614 35.206 175.325Z" fill="#4285F4" stroke="#4285F4" stroke-width="0.5"></path> <path d="M43.636 178.267C40.8907 177.874 38.7738 176.757 37.3379 174.834C38.6764 177.117 40.8348 178.218 43.636 178.267Z" fill="#4285F4" stroke="#4285F4" stroke-width="0.5"></path> <path d="M46.8406 177.401C46.9123 177.252 46.9852 177.1 47.0569 176.941C48.1648 174.485 49.7103 172.499 51.6471 171.041C53.5172 169.711 55.326 169.871 57.114 171.526C58.4797 173.634 59.4331 176.192 60.0289 179.346C60.13 179.883 60.2178 180.523 60.0979 181.2C60.0304 181.579 59.8902 182.369 59.5426 182.593C59.4054 182.681 59.2217 182.695 59.0439 182.708C57.9249 182.791 57.047 182.843 56.1288 182.843C55.0036 182.843 53.9395 182.762 52.7799 182.59C51.766 182.439 50.7051 182.204 49.626 181.89C49.0897 181.734 48.5458 181.556 48.0095 181.363C47.8612 181.309 47.7044 181.271 47.5529 181.234C47.1897 181.146 46.8468 181.062 46.6312 180.782C46.3595 180.429 46.2994 179.918 46.2766 179.465C46.2361 178.661 46.5162 178.077 46.8406 177.401ZM47.4883 181.497C47.4886 181.497 47.4888 181.497 47.4888 181.497C47.6402 181.534 47.783 181.569 47.9175 181.617C48.459 181.813 49.0084 181.992 49.5503 182.15C50.6411 182.467 51.7144 182.705 52.7401 182.858C53.9133 183.032 54.99 183.113 56.1288 183.113C56.8841 183.113 57.6132 183.078 58.4656 183.02C54.1672 184.563 50.4824 184.049 47.4883 181.497ZM46.0062 179.479C46.0314 179.973 46.0994 180.534 46.4166 180.946C46.5365 181.103 46.6828 181.208 46.8413 181.286C50.2124 184.474 54.477 185.017 59.5174 182.902V182.902C59.5762 182.881 59.6343 182.856 59.6892 182.82C60.136 182.532 60.2843 181.696 60.3644 181.246C60.4917 180.527 60.4008 179.857 60.2947 179.296C59.6909 176.1 58.722 173.505 57.3318 171.365L57.3105 171.339C56.2655 170.368 55.192 169.875 54.1197 169.875C54.1197 169.875 54.1197 169.875 54.1195 169.875C53.2569 169.875 52.3722 170.193 51.4871 170.823C49.5107 172.311 47.9371 174.331 46.8104 176.83C46.7395 176.986 46.6673 177.137 46.5966 177.284C46.2705 177.964 45.9622 178.606 46.0062 179.479Z" fill="#4285F4" stroke="#4285F4" stroke-width="0.5"></path> <path d="M58.7065 180.528L58.4363 180.611C54.971 181.5 51.3451 181.048 47.8467 179.268L48.0044 179.389C51.5918 181.694 55.2089 181.991 58.7065 180.528Z" fill="#4285F4" stroke="#4285F4" stroke-width="0.5"></path> <path d="M112.823 79.2199C114.094 79.2199 115.525 79.1294 116.92 78.6812C117.191 78.5939 117.461 78.4948 117.723 78.3855C118.774 77.9476 119.663 77.1342 120.162 76.1542C120.782 74.9363 120.895 73.7031 120.49 72.587C120.144 71.6374 119.92 70.5667 119.824 69.4039L119.815 69.2877C119.715 68.0755 119.622 66.9308 118.802 66.0148C116.374 63.3009 112.031 64.677 110.758 65.1631C109.968 65.4647 109.165 65.8281 108.37 66.2437C108.271 66.2952 108.171 66.3456 108.071 66.3963C107.763 66.551 107.446 66.7112 107.164 66.9058C106.956 67.0492 106.785 67.1985 106.642 67.3618C106.517 67.5044 106.431 67.7036 106.347 67.8965L106.312 67.9781C106.174 68.29 106.066 68.6338 105.991 68.9992C105.919 69.3531 105.875 69.7389 105.86 70.1446L105.857 70.2391C105.844 70.5822 105.83 70.9367 105.953 71.2491C106.01 71.3919 106.068 71.5334 106.125 71.6745C106.329 72.1754 106.54 72.6932 106.683 73.241C106.787 73.6433 106.85 74.0571 106.91 74.4571C106.969 74.8478 107.029 75.2518 107.129 75.6377C107.319 76.37 107.684 76.9352 108.391 77.5886C109.114 78.2577 109.918 78.7269 110.779 78.9838C111.264 79.1289 111.771 79.2066 112.285 79.2152C112.461 79.2182 112.64 79.2199 112.823 79.2199ZM114.709 64.1103C116.218 64.1103 117.821 64.5111 119.005 65.8338C119.885 66.8173 119.987 68.0619 120.086 69.2655L120.095 69.3817C120.189 70.5202 120.408 71.5675 120.745 72.4941C121.177 73.6826 121.06 74.9907 120.405 76.2773C119.877 77.3142 118.938 78.1744 117.828 78.6367C117.559 78.7487 117.282 78.8505 117.004 78.9397C115.37 79.4646 113.699 79.5099 112.281 79.4871C111.741 79.4781 111.21 79.3965 110.701 79.2446C109.8 78.9757 108.96 78.4856 108.206 77.7885C107.458 77.0964 107.07 76.4929 106.866 75.7057C106.762 75.3062 106.701 74.895 106.641 74.498C106.582 74.1046 106.521 73.6979 106.42 73.3095C106.282 72.7789 106.083 72.2924 105.873 71.7771C105.815 71.6352 105.757 71.4928 105.7 71.3489C105.556 70.9835 105.571 70.5998 105.585 70.2284L105.589 70.135C105.603 69.7142 105.649 69.3134 105.725 68.9445C105.804 68.5604 105.917 68.1984 106.063 67.8686L106.098 67.7879C106.185 67.5862 106.285 67.3573 106.437 67.1827C106.594 67.0047 106.786 66.8364 107.009 66.6823C107.307 66.4768 107.633 66.3121 107.948 66.1535C108.048 66.1033 108.147 66.0533 108.244 66.0026C109.048 65.5823 109.861 65.2145 110.661 64.9091C111.363 64.6406 112.974 64.1103 114.709 64.1103Z" fill="#4285F4" stroke="#4285F4" stroke-width="0.5"></path> <path d="M117.801 71.0192C117.947 70.9878 118.092 70.9588 118.242 70.9225C118.214 70.9452 118.061 70.9835 117.801 71.0192Z" fill="#4285F4" stroke="#4285F4" stroke-width="0.5"></path> <path d="M117.801 71.0192C116.081 71.3875 114.606 71.4244 113.322 71.1244C113.126 71.0785 112.939 71.2167 112.925 71.4179C112.898 71.7856 113.007 72.1184 113.251 72.4242C114.209 73.5619 114.561 75.0533 114.334 76.9719C114.326 77.0317 114.365 77.0855 114.424 77.0985C114.818 77.183 115.226 77.3682 115.645 77.6565C114.514 77.2876 113.637 77.1595 113 77.2603C113.314 77.1101 113.64 77.0376 113.977 77.0438C114.001 77.0443 114.026 77.0473 114.05 77.0484C114.285 75.235 113.989 73.8231 113.148 72.7394C113.131 72.7162 113.099 72.7107 113.076 72.6939C111.464 72.1438 109.251 72.2758 107.789 73.1944C108.692 72.4622 109.818 72.107 111.152 72.1313C111.622 72.1397 112.12 72.1975 112.642 72.301C112.734 72.3191 112.81 72.2308 112.774 72.1446C112.64 71.8219 112.614 71.4739 112.696 71.1032C112.731 70.9469 112.689 70.7808 112.577 70.6666C111.782 69.8576 111.472 68.8113 111.58 67.3566C111.586 67.2842 111.527 67.2253 111.455 67.2317C111.002 67.2718 110.516 67.2246 109.993 67.0789C111.17 67.1815 112.287 66.9057 113.357 66.3313C112.946 66.7472 112.475 67.0219 111.949 67.1556C111.9 67.168 111.864 67.2092 111.86 67.2587C111.719 68.8356 112.077 69.9055 113.017 70.7044L113.09 70.767L113.085 70.7818C115.287 71.2085 117.023 71.1257 117.801 71.0192Z" fill="#4285F4" stroke="#4285F4" stroke-width="0.5"></path> <path d="M108.57 64.517C109.719 64.517 111.004 64.2387 112.451 63.6794C114.766 62.7846 116.193 61.627 116.814 60.1412C117.362 58.8321 117.185 57.4357 116.941 56.4947C116.735 55.7001 116.28 54.9708 115.84 54.2654C115.614 53.9025 115.38 53.5271 115.18 53.1449C115.052 52.9002 114.929 52.6502 114.805 52.4005C114.15 51.078 113.472 49.7106 112.157 49.0878C110.929 48.5065 109.54 48.6148 108.59 48.8081C107.624 49.0047 106.679 49.3597 105.764 49.7029C105.533 49.7899 105.302 49.8767 105.07 49.9613L104.68 50.1019C103.625 50.4802 102.535 50.8711 101.676 51.5807C101.066 52.0843 100.635 52.7464 100.461 53.4443C100.314 54.0372 100.385 54.7623 100.68 55.6571L100.735 55.6472C100.866 56.3714 101.165 56.9506 101.483 57.564C101.652 57.8909 101.827 58.2283 101.982 58.5994C102.091 58.861 102.197 59.1391 102.305 59.4235C102.634 60.2875 102.974 61.1813 103.486 61.8454C104.376 63.0003 105.462 63.8189 106.627 64.2119C107.229 64.4152 107.874 64.517 108.57 64.517ZM110.051 48.3817C110.875 48.3817 111.627 48.5359 112.273 48.842C113.674 49.5054 114.373 50.9156 115.048 52.2796C115.172 52.5278 115.294 52.7758 115.421 53.0191C115.616 53.3919 115.847 53.763 116.071 54.1215C116.522 54.8444 116.988 55.5916 117.204 56.4262C117.459 57.4078 117.641 58.867 117.065 60.2458C116.414 61.8041 114.937 63.0101 112.548 63.9333C110.165 64.8543 108.2 65.03 106.54 64.4696C105.324 64.0591 104.193 63.2092 103.27 62.0113C102.734 61.3153 102.387 60.403 102.051 59.5201C101.943 59.2388 101.839 58.9632 101.731 58.7043C101.58 58.3433 101.408 58.0107 101.242 57.6891C100.94 57.1072 100.654 56.5551 100.504 55.8742L100.47 55.8858C100.118 54.8751 100.029 54.055 100.197 53.3788C100.385 52.6247 100.848 51.9115 101.503 51.3708C102.398 50.631 103.511 50.232 104.588 49.846L104.977 49.7059C105.207 49.6216 105.438 49.535 105.669 49.4485C106.593 49.1014 107.549 48.7424 108.536 48.5416C109.06 48.4348 109.568 48.3817 110.051 48.3817Z" fill="#4285F4" stroke="#4285F4" stroke-width="0.5"></path> <path d="M109.809 62.5755C109.351 62.5671 108.91 62.7137 108.494 63.015C109.201 62.7597 109.962 62.7107 110.758 62.8017C110.434 62.6563 110.118 62.5809 109.809 62.5755Z" fill="#4285F4" stroke="#4285F4" stroke-width="0.5"></path> <path d="M104.365 51.4049C105.044 51.4259 105.701 51.3288 106.309 51.1122C106.905 50.9001 107.473 50.5693 107.998 50.1284C107.48 50.5742 105.124 51.4019 104.365 51.4049Z" fill="#4285F4" stroke="#4285F4" stroke-width="0.5"></path> <path d="M105.999 51.0125C105.822 52.5513 106.373 53.9769 107.637 55.2504L107.83 55.0588C106.627 53.8471 106.102 52.4962 106.269 51.0434L105.999 51.0125Z" fill="#4285F4" stroke="#4285F4" stroke-width="0.5"></path> <path d="M113.895 53.6006C111.543 53.5944 109.447 54.1059 107.664 55.1216L107.798 55.3577C109.943 54.0003 112.483 53.7346 113.895 53.6006Z" fill="#4285F4" stroke="#4285F4" stroke-width="0.5"></path> <path d="M107.715 55.0671C107.323 55.5213 107.221 56.0625 107.41 56.6778C105.985 56.4575 104.495 56.7614 102.747 57.6292C103.731 57.2217 106.101 56.438 107.591 56.9857L107.839 57.0346L107.743 56.8007C107.491 56.1848 107.549 55.676 107.921 55.2451L107.715 55.0671Z" fill="#4285F4" stroke="#4285F4" stroke-width="0.5"></path> <path d="M107.747 56.8107L107.488 56.894C107.929 58.2622 108.677 59.3171 109.712 60.0294L109.757 60.0605L109.811 60.0515C111.903 59.5364 114.238 59.9236 114.527 59.9558C113.009 59.5726 111.426 59.5115 109.821 59.7743C108.86 59.0974 108.162 58.1007 107.747 56.8107Z" fill="#4285F4" stroke="#4285F4" stroke-width="0.5"></path> <path d="M109.651 59.9375C109.258 60.6651 109.165 61.5784 109.367 62.729L109.635 62.6823C109.444 61.5939 109.528 60.7386 109.89 60.0666L109.651 59.9375Z" fill="#4285F4" stroke="#4285F4" stroke-width="0.5"></path> <path d="M111.634 40.1355C111.615 40.4341 111.555 40.7368 111.497 41.029C111.452 41.2577 111.405 41.494 111.376 41.7326C111.31 42.2793 111.252 42.8271 111.196 43.375C111.173 43.5903 111.161 43.8064 111.148 44.0218C111.106 44.7128 111.067 45.3653 110.735 45.967C110.67 46.0847 110.593 46.198 110.518 46.308C110.128 46.883 109.436 47.308 108.879 47.6495C108.243 48.0401 107.56 48.3645 106.849 48.6137C105.685 49.0214 104.495 49.2172 103.31 49.1959C103.014 49.1905 102.718 49.171 102.429 49.1378C101.244 49.0031 99.6109 48.6725 98.5555 47.8623L98.5253 47.8401C98.5112 47.8297 98.4966 47.8196 98.4838 47.8075C96.8634 46.2677 96.0136 43.8089 95.2637 41.6394C95.0155 40.9212 94.7809 40.2423 94.5329 39.64C93.9049 38.1151 94.2691 35.8702 95.953 34.903L96.138 34.7967C97.474 34.0287 98.7359 33.3028 100.162 32.7757C100.91 32.4996 101.682 32.2667 102.459 32.0837C102.63 32.0434 102.801 31.9977 102.974 31.9515C103.487 31.8142 104.018 31.6721 104.537 31.6815L104.565 31.6822C105.134 31.6985 105.728 31.8815 106.331 32.2256C107.385 32.8267 108.23 33.7147 109.175 34.8629C109.799 35.6202 110.359 36.4618 110.889 37.4366C111.382 38.3435 111.698 39.1495 111.634 40.1355ZM111.128 37.3066C110.589 36.3169 110.019 35.4607 109.385 34.6903C108.551 33.6764 107.62 32.6477 106.466 31.9895C105.824 31.6229 105.187 31.4281 104.572 31.4105L104.542 31.4098C103.985 31.3996 103.435 31.5465 102.904 31.6889C102.733 31.7344 102.565 31.7796 102.397 31.8192C101.609 32.0046 100.826 32.2405 100.068 32.5206C98.6205 33.0559 97.3487 33.7872 96.0025 34.561L95.8176 34.6673C94.0058 35.708 93.6097 38.1123 94.2815 39.7438C94.5265 40.3385 94.7596 41.0137 95.0066 41.7284C95.7666 43.9271 96.628 46.4192 98.2963 48.0045C98.3179 48.0248 98.3416 48.0426 98.3653 48.0601L98.3896 48.0779C99.4949 48.9262 101.179 49.2694 102.398 49.4083C103.888 49.5777 105.446 49.3935 106.939 48.8703C107.668 48.6147 108.369 48.2819 109.022 47.8811C109.6 47.5261 110.32 47.084 110.743 46.4608C110.821 46.3458 110.902 46.2269 110.973 46.0983C111.335 45.4429 111.378 44.7289 111.419 44.0383C111.432 43.8265 111.444 43.6143 111.466 43.4027C111.523 42.8563 111.58 42.3102 111.646 41.765C111.673 41.5368 111.719 41.3056 111.764 41.0819C111.824 40.7808 111.885 40.4692 111.905 40.1528C111.973 39.102 111.643 38.2552 111.128 37.3066Z" fill="#D0111D" stroke="#D0111D" stroke-width="0.5"></path> <path d="M107.243 36.7565C107.332 36.7142 107.421 36.6717 107.511 36.6286C107.588 36.6076 107.48 36.6615 107.243 36.7565Z" fill="#4285F4" stroke="#4285F4" stroke-width="0.5"></path> <path d="M104.215 43.4966C103.755 44.4057 103.631 45.3879 103.847 46.4234C103.866 46.5158 103.957 46.5739 104.05 46.5581C104.363 46.5049 104.702 46.4802 105.069 46.4869C105.318 46.4913 105.58 46.5094 105.855 46.5408C104.488 46.655 103.261 46.9327 102.236 47.4462C102.571 47.106 102.98 46.8602 103.466 46.7017C103.552 46.6733 103.604 46.5863 103.585 46.4968C103.351 45.3944 103.481 44.3471 103.971 43.3776C102.927 42.8189 102.086 41.9518 101.434 40.775L101.433 40.7755L101.431 40.7691C101.428 40.7641 101.425 40.7597 101.422 40.7547C99.1041 40.4612 97.3903 41.2717 96.5029 41.7118C97.5495 40.8484 99.0571 40.4298 100.99 40.465C101.106 40.4669 101.226 40.4734 101.345 40.4786C101.08 39.5326 101.151 38.6821 101.557 37.9439C101.478 37.9117 101.398 37.8786 101.322 37.8381C100.454 37.3747 99.9195 36.4172 99.6846 34.9241C99.0403 35.0614 98.3802 35.0611 97.6968 34.9217C99.1827 34.9105 100.598 34.5006 101.964 33.8158C101.304 34.3256 100.635 34.672 99.9491 34.8599C100.093 36.3314 100.645 37.1105 101.45 37.598C102.726 38.3714 106.211 37.171 107.243 36.7564C105.263 37.6991 103.278 38.4485 101.82 38.0329C101.403 38.7615 101.344 39.6162 101.654 40.5794L101.681 40.6585C102.972 43.9139 107.52 43.998 109.105 44.0135C107.156 44.1992 105.536 43.9826 104.215 43.4966Z" fill="#D0111D" stroke="#D0111D" stroke-width="0.5"></path> <path d="M96.4396 32.751C96.6582 32.751 96.8792 32.7399 97.1032 32.7174C98.7792 32.5503 100.419 31.8746 101.941 31.1692C103.028 30.6661 104.008 29.645 104.563 28.4385C105.12 27.2288 105.167 25.907 104.691 24.8123C104.488 24.3445 104.182 23.9212 103.783 23.5546C103.448 23.247 102.58 22.507 101.762 22.2803C97.8719 21.2034 94.4912 22.1879 91.7135 25.2073C91.0521 25.9261 90.7636 26.8611 90.879 27.9111C91.038 29.3587 91.9765 30.9106 93.2142 31.7727C94.1403 32.4177 95.245 32.751 96.4396 32.751ZM98.8054 21.5841C99.7781 21.5841 100.788 21.7287 101.835 22.0185C102.71 22.2608 103.617 23.0331 103.967 23.3543C104.394 23.7469 104.722 24.2008 104.94 24.7037C105.447 25.8697 105.399 27.2723 104.81 28.5522C104.229 29.8158 103.199 30.8866 102.055 31.4162C100.511 32.1312 98.8462 32.8165 97.1302 32.9879C95.6156 33.1394 94.2081 32.7963 93.0587 31.9957C91.7604 31.0916 90.7757 29.462 90.6086 27.9408C90.4844 26.8104 90.7975 25.8017 91.5134 25.0229C93.6189 22.7342 96.0626 21.5841 98.8054 21.5841Z" fill="#4285F4" stroke="#4285F4" stroke-width="0.5"></path> <path d="M95.8647 29.2523C96.2811 29.8543 96.9476 30.2388 97.8431 30.398C98.5062 29.9117 99.6927 29.5284 101.205 29.147C99.3431 29.8026 97.8107 30.4981 97.2581 31.3123C97.2663 31.0583 97.38 30.8309 97.5818 30.622C96.7194 30.4274 96.066 30.0209 95.6412 29.4068C95.6093 29.3606 95.5846 29.3082 95.5549 29.2597C95.1438 29.81 94.4891 30.1307 93.6952 30.3206C94.3687 30.0486 94.92 29.6674 95.3213 29.1514C95.3824 29.073 95.3893 28.9677 95.3502 28.8765C94.9754 28.0013 94.9304 26.8274 95.2036 25.3239C94.5843 25.502 93.9588 25.5887 93.3211 25.5774C93.2927 25.5769 93.264 25.5759 93.2354 25.5751C94.8889 25.2718 96.4546 24.6871 97.9531 23.8863C97.135 24.511 96.3199 24.9541 95.4953 25.232C95.1472 27.0383 95.2701 28.3919 95.8647 29.2523Z" fill="#4285F4" stroke="#4285F4" stroke-width="0.5"></path> <path d="M95.1659 21.9818C96.5882 21.5007 97.5339 20.8423 98.057 19.9696C98.7293 18.8474 99.3681 17.5138 99.0111 16.1325C98.8074 15.3465 98.3218 14.6545 97.5673 14.0755C97.1183 13.7308 96.4364 13.2707 95.7352 13.0353C94.6637 12.6758 93.676 12.4855 92.7996 12.4694C89.7964 12.415 87.9582 14.3239 87.1794 18.3047C86.994 19.2516 86.8731 20.4544 87.5905 21.3608C88.2467 22.19 89.3244 22.596 90.9819 22.6382L91.064 22.64C92.4225 22.6647 93.8026 22.4432 95.1659 21.9818ZM95.8218 12.7777C96.5585 13.0247 97.2679 13.5024 97.7327 13.8596C98.5367 14.4765 99.0551 15.2182 99.2742 16.0645C99.6567 17.5429 98.9916 18.9388 98.2904 20.1092C97.7324 21.0398 96.739 21.7366 95.2531 22.2394C93.8602 22.7109 92.4492 22.9371 91.059 22.9119L90.975 22.9102C89.8775 22.8823 88.31 22.7084 87.3772 21.5296C86.591 20.5362 86.7158 19.2563 86.9126 18.2525C87.7095 14.1783 89.6918 12.1413 92.8048 12.1977C93.7087 12.214 94.7238 12.4093 95.8218 12.7777Z" fill="#4285F4" stroke="#4285F4" stroke-width="0.5"></path> <path d="M89.6652 17.4745C90.1337 19.1303 91.1048 20.0233 92.6253 20.1951C92.725 20.2062 92.8236 20.1706 92.903 20.1096C93.5431 19.6188 94.7456 19.3014 95.8624 19.0541C95.8624 19.0541 93.4523 19.9217 92.925 20.4475C92.681 20.6911 92.4852 21.3517 92.4852 21.3517C92.385 21.0899 92.3853 20.8444 92.4824 20.6174C92.5168 20.5368 92.4639 20.4483 92.3771 20.4342C90.9313 20.1973 89.952 19.2883 89.4577 17.7255C89.4276 17.6305 89.3181 17.5823 89.2335 17.6347C88.9764 17.7942 88.7141 17.8817 88.4453 17.8958C89.5191 17.1272 90.4002 16.0959 91.1543 14.8917C90.6917 15.959 90.2197 16.7343 89.7307 17.2305C89.6671 17.2948 89.6407 17.3875 89.6652 17.4745Z" fill="#4285F4" stroke="#4285F4" stroke-width="0.5"></path> <path d="M82.7752 15.8021C85.3405 15.2347 87.513 14.2237 89.232 12.7982C89.6753 12.4303 90.0773 11.8715 90.3352 11.2633C90.4467 10.9993 90.5735 10.7001 90.5612 10.4368C90.5382 9.93911 90.3409 9.44217 90.15 8.96204L90.1371 8.9289C89.947 8.45075 89.7178 8.01092 89.4555 7.62202C88.851 6.72529 88.135 6.14354 87.2662 5.84414C86.8993 5.71755 86.4627 5.65105 85.9314 5.6414C85.6179 5.63572 85.3044 5.65005 85.0391 5.66464C84.0321 5.71978 83.0585 5.91954 82.1484 6.25751C81.3224 6.58659 80.8403 7.26204 80.6732 8.33109C80.3382 9.83824 80.2477 11.5078 80.4032 13.2889C80.6074 14.9558 81.3341 15.7773 82.6251 15.8008C82.6822 15.8018 82.7396 15.8011 82.7752 15.8021ZM87.355 5.58701C88.2683 5.90224 89.051 6.53541 89.681 7.46996C89.9542 7.87518 90.1928 8.33232 90.3896 8.82852L90.4027 8.86141C90.5925 9.33956 90.8077 9.88101 90.8329 10.4242C90.8477 10.7491 90.7023 11.0932 90.5849 11.3706C90.3114 12.0161 89.8815 12.6127 89.4058 13.0073C87.6529 14.4608 85.4419 15.4906 82.8093 16.0708C81.2564 16.1287 80.3631 15.1991 80.133 13.3171C79.9742 11.5039 80.0667 9.80659 80.4062 8.2804C80.5876 7.11691 81.1246 6.37273 82.0508 6.0036C82.9895 5.655 83.9899 5.44955 85.0243 5.39293C85.2945 5.3781 85.6142 5.36376 85.9363 5.36969C86.4966 5.37983 86.9604 5.45079 87.355 5.58701Z" fill="#4285F4" stroke="#4285F4" stroke-width="0.5"></path> <path d="M82.5342 7.03634C85.1307 7.70932 87.3939 9.00188 89.2004 11.182C87.9506 9.00262 85.7077 7.60771 82.5342 7.03634Z" fill="#4285F4" stroke="#4285F4" stroke-width="0.5"></path> <path d="M80.4207 4.02851C78.5452 2.85859 76.2783 2.22072 73.6647 2.12677C74.5761 1.86891 75.4149 1.74405 76.172 1.75789C77.938 1.79003 79.3307 2.53397 80.4207 4.02851ZM72.5873 2.48032C72.5907 2.47909 72.5942 2.47785 72.5977 2.47661C72.765 2.41431 72.944 2.38415 73.1225 2.38514C76.0357 2.40343 78.5279 3.09174 80.5344 4.42384C80.6652 4.51087 80.7533 4.64834 80.7839 4.80212C80.8999 5.3804 80.7921 6.08997 80.4568 6.91525C79.0861 8.77026 77.5154 10.3397 75.788 11.5801C75.7121 11.6268 75.6266 11.675 75.5388 11.7193C75.1524 11.9141 74.7593 12.0091 74.3708 12.0021C73.796 11.9917 73.2556 11.7537 72.8078 11.3138C72.6479 11.1566 72.5104 10.941 72.388 10.6552C72.2681 10.3753 72.1816 10.0732 72.103 9.78788C71.9519 9.23828 71.8599 8.66221 71.7709 8.10519L71.7593 8.033C71.566 6.82574 71.4312 5.53443 71.3472 4.08488C71.4438 3.20992 71.8495 2.67787 72.5873 2.48032ZM80.8492 4.16894C79.6874 2.4195 78.118 1.52129 76.1769 1.48593C75.0807 1.46616 73.8791 1.70672 72.5042 2.22171C71.6698 2.44447 71.1852 3.07047 71.0762 4.07796C71.1602 5.55915 71.2962 6.85962 71.4908 8.07577L71.5024 8.14797C71.5927 8.71241 71.6859 9.29613 71.8409 9.86008C71.9217 10.1543 72.0115 10.4663 72.1381 10.7622C72.2748 11.0812 72.4315 11.3252 72.6172 11.5079C73.4499 12.326 74.5998 12.4971 75.6612 11.9621C75.7556 11.9144 75.8486 11.862 75.9391 11.8058C77.7014 10.541 79.2958 8.94703 80.6858 7.0626L80.7021 7.03343C81.1778 5.87141 81.2272 4.90768 80.8492 4.16894Z" fill="#4285F4" stroke="#4285F4" stroke-width="0.5"></path> <path d="M79.8437 5.80493C77.7311 4.80931 75.5025 4.0718 73.1396 3.63469C73.1495 3.63494 73.1592 3.63494 73.1691 3.63519C75.7492 3.68191 77.9951 4.412 79.8437 5.80493Z" fill="#4285F4" stroke="#4285F4" stroke-width="0.5"></path> <path d="M70.5729 3.22675C70.6784 3.7504 70.6023 4.38876 70.5345 4.8637C70.5232 4.94282 70.5017 5.0202 70.471 5.09388C69.4685 7.51185 68.547 9.1357 67.5754 10.1976C67.0171 10.8115 66.4732 11.1175 65.9584 11.1081C65.3403 11.097 64.724 10.6293 64.1267 9.71819C63.3041 8.46272 62.7144 6.90834 62.3747 5.09808C62.3184 4.79769 62.2687 4.48864 62.2274 4.1791C62.1789 3.81517 62.1673 3.56052 62.2457 3.25741C62.2937 3.07247 62.3572 2.91152 62.4408 2.76961C62.5651 2.55798 62.7797 2.41211 63.019 2.35598C65.2983 1.82195 67.6125 1.87461 69.91 2.51223C70.2468 2.60569 70.5036 2.88408 70.5729 3.22675ZM69.7436 2.18737C68.6313 1.89835 67.5153 1.74135 66.4015 1.72108C65.4326 1.70352 64.4654 1.78857 63.5034 1.97474C64.5183 1.53961 65.3933 1.31561 66.2356 1.27754C67.3153 1.22908 68.3151 1.48102 69.5928 2.10924C69.6405 2.13273 69.692 2.15943 69.7436 2.18737ZM70.8693 4.37986C70.9333 3.73531 70.9553 2.9454 70.5021 2.42447C70.2712 2.15919 69.959 1.98612 69.7127 1.86522C68.5334 1.28545 67.5677 1.01893 66.5817 1.00088C66.4633 0.998903 66.3441 1.00039 66.2232 1.00582C65.285 1.0481 64.3156 1.30696 63.1728 1.82096C62.5095 2.11888 62.1535 2.52806 61.9824 3.18966C61.884 3.56991 61.9146 3.89157 61.9579 4.2152C61.9999 4.52919 62.0501 4.84343 62.1075 5.14852C62.4539 6.99414 63.0569 8.58188 63.8994 9.86702C65.0919 11.6867 66.4299 11.8605 67.7764 10.381C67.8315 10.3202 67.8861 10.2589 67.9398 10.1968C68.328 9.74538 68.6681 9.25388 68.9784 8.7463C69.3626 8.11783 69.7018 7.46265 70.0163 6.79733C70.2099 6.38841 70.3761 5.96439 70.5763 5.55967C70.6599 5.39031 70.72 5.21329 70.7645 5.03207C70.8169 4.81846 70.8475 4.59916 70.8693 4.37986Z" fill="#4285F4" stroke="#4285F4" stroke-width="0.5"></path> <path d="M63.2734 3.96499C64.3979 3.51181 65.4644 3.29449 66.4665 3.31279C67.4725 3.33108 68.4135 3.58673 69.282 4.07947C67.3373 3.52887 65.3317 3.51453 63.2734 3.96499Z" fill="#4285F4" stroke="#4285F4" stroke-width="0.5"></path> <path d="M9.62461 78.9957C10.1389 78.9957 10.6452 78.9269 11.1293 78.792H11.1295C11.9954 78.5504 12.8073 78.0955 13.5423 77.4399C14.2613 76.799 14.6366 76.2405 14.8393 75.5124C14.9461 75.1279 15.0141 74.7252 15.0799 74.3356C15.1474 73.9367 15.2168 73.5243 15.3288 73.1238C15.4811 72.5789 15.7017 72.0655 15.9145 71.5688C15.9749 71.4283 16.0352 71.2876 16.0943 71.1455C16.2233 70.8359 16.2162 70.4814 16.2092 70.1384L16.2075 70.043C16.2003 69.6297 16.1643 69.2544 16.0973 68.8953C16.0285 68.5279 15.9267 68.1823 15.7954 67.8686L15.7625 67.7889C15.6819 67.5937 15.5988 67.3919 15.4762 67.2465C15.3358 67.0804 15.1679 66.9279 14.9632 66.781C14.6853 66.5817 14.3713 66.4161 14.0677 66.2564C13.9673 66.2032 13.8674 66.1505 13.7693 66.0969C12.9806 65.6667 12.1838 65.2887 11.4012 64.9734C10.1371 64.4642 5.81988 63.0101 3.34233 65.6796C2.50667 66.58 2.39221 67.723 2.27081 68.9332L2.25895 69.0493C2.142 70.2096 1.89897 71.2765 1.53652 72.22C1.11053 73.3283 1.20102 74.5635 1.79859 75.7922C2.2802 76.7817 3.15419 77.6109 4.19678 78.0678C4.45564 78.1808 4.72364 78.2849 4.99461 78.3776C6.58137 78.9193 8.22253 78.994 9.61892 78.9957C9.6209 78.9957 9.62263 78.9957 9.62461 78.9957ZM7.3174 63.848C9.11035 63.848 10.7844 64.4317 11.5026 64.7213C12.2953 65.0405 13.1017 65.4229 13.8996 65.8586C13.9967 65.9115 14.0951 65.9633 14.1945 66.0158C14.5063 66.1802 14.8284 66.3498 15.1217 66.5602C15.3417 66.7182 15.5308 66.89 15.6839 67.0713C15.8342 67.249 15.9294 67.481 16.0137 67.6854L16.0461 67.7632C16.1853 68.0948 16.2921 68.4587 16.3645 68.8454C16.4342 69.2197 16.4721 69.6099 16.4795 70.0383L16.4812 70.133C16.4886 70.5039 16.4963 70.8873 16.3455 71.25C16.2859 71.3929 16.2251 71.5349 16.1645 71.6758C15.9454 72.187 15.7383 72.6694 15.5907 73.1972C15.4829 73.5834 15.4141 73.9889 15.3481 74.3811C15.2809 74.7776 15.2119 75.1873 15.1011 75.5851C14.8836 76.3678 14.4845 76.9642 13.7235 77.6428C12.9571 78.3264 12.1088 78.8011 11.2022 79.0538C10.6944 79.1955 10.1636 79.2675 9.62461 79.2675C9.62238 79.2675 9.62065 79.2675 9.61842 79.2675C8.20003 79.2659 6.53094 79.1895 4.90659 78.635C4.6287 78.5398 4.35328 78.433 4.088 78.3167C2.98681 77.8346 2.06338 76.9577 1.55432 75.9111C0.922881 74.613 0.828931 73.3029 1.28261 72.1222C1.63665 71.2014 1.87399 70.1584 1.98846 69.0224L2.00009 68.9057C2.12049 67.7044 2.24535 66.4621 3.14306 65.4947C4.30977 64.2371 5.85351 63.848 7.3174 63.848Z" fill="#4285F4" stroke="#4285F4" stroke-width="0.5"></path> <path d="M4.25354 70.7008C4.10768 70.6669 3.96378 70.635 3.81445 70.5962C3.84115 70.6195 3.9937 70.6605 4.25354 70.7008Z" fill="#4285F4" stroke="#4285F4" stroke-width="0.5"></path> <path d="M4.25195 70.7008C5.96505 71.1001 7.43908 71.1639 8.72742 70.8872C8.92497 70.845 9.1094 70.9864 9.12003 71.1879C9.13956 71.556 9.02534 71.8868 8.77514 72.1879C7.79707 73.3084 7.41757 74.7931 7.61066 76.7154C7.61659 76.7754 7.57728 76.8286 7.51819 76.8402C7.12187 76.9176 6.71121 77.0954 6.2872 77.3762C7.42424 77.0276 8.30391 76.9156 8.93881 77.0282C8.6273 76.8719 8.30292 76.7938 7.96594 76.7938C7.94146 76.7938 7.91674 76.7965 7.89226 76.7971C7.69101 74.9795 8.01242 73.5732 8.87231 72.5052C8.8906 72.4824 8.92175 72.4775 8.94598 72.461C10.5674 71.94 12.7772 72.1123 14.2225 73.0572C13.3329 72.3088 12.2135 71.9331 10.8796 71.9331C10.4089 71.9331 9.9102 71.9817 9.38655 72.076C9.29458 72.0925 9.22041 72.0028 9.2575 71.9172C9.39694 71.5971 9.42983 71.2495 9.35417 70.8774C9.32203 70.7203 9.36727 70.555 9.4815 70.443C10.2907 69.6487 10.62 68.608 10.5377 67.1516C10.5335 67.0791 10.5936 67.0213 10.6658 67.0289C11.1172 67.0774 11.6043 67.0388 12.1296 66.9026C10.9511 66.9842 9.83925 66.688 8.77959 66.0943C9.18308 66.5176 9.64887 66.8007 10.1733 66.9441C10.2212 66.9572 10.2566 66.9992 10.26 67.0487C10.3725 68.6277 9.995 69.6911 9.04117 70.4729L8.96625 70.5343L8.97169 70.549C6.76214 70.9357 5.02778 70.8215 4.25195 70.7008Z" fill="#4285F4" stroke="#4285F4" stroke-width="0.5"></path> <path d="M21.6491 55.6517C21.9597 54.7622 22.044 54.0385 21.9075 53.4432C21.7466 52.742 21.3272 52.0725 20.727 51.5575C19.8819 50.8334 18.8005 50.4232 17.7549 50.0261L17.3631 49.8771C17.1314 49.7878 16.9 49.6961 16.6686 49.6046C15.7622 49.2451 14.8249 48.874 13.8644 48.6604C12.9182 48.45 11.531 48.3163 10.2928 48.8755C8.96642 49.4743 8.26427 50.8287 7.58536 52.1388C7.4568 52.3867 7.32848 52.6342 7.19621 52.877C6.98977 53.2555 6.74896 53.6269 6.51557 53.9859C6.06313 54.6831 5.59536 55.404 5.37482 56.1942C5.11374 57.131 4.91224 58.5239 5.43564 59.8422C6.02975 61.3392 7.43603 62.5224 9.73483 63.4592C12.0401 64.3983 13.9413 64.6069 15.5476 64.097C16.7195 63.7255 17.8204 62.9269 18.7313 61.7882C19.2549 61.1332 19.6109 60.2463 19.9556 59.3887C20.0688 59.1059 20.1798 58.8293 20.2938 58.5697C20.4555 58.2012 20.6365 57.867 20.811 57.5435C21.1398 56.9362 21.4504 56.3623 21.5938 55.6406L21.6491 55.6517ZM12.2927 48.2065C12.8112 48.2062 13.3578 48.269 13.9233 48.3949C14.9048 48.6132 15.8524 48.9887 16.7687 49.3517C16.9994 49.4427 17.2298 49.5341 17.461 49.6231L17.8511 49.772C18.9187 50.1772 20.0226 50.596 20.9037 51.3511C21.548 51.9036 21.9987 52.6248 22.1725 53.3824C22.3283 54.0613 22.2242 54.8799 21.8544 55.8842L21.8212 55.8718C21.658 56.5495 21.3621 57.0966 21.0503 57.6732C20.878 57.9915 20.6998 58.3209 20.5428 58.6792C20.43 58.936 20.32 59.21 20.2078 59.4898C19.8562 60.3658 19.4923 61.2717 18.9436 61.9583C17.9989 63.139 16.853 63.9683 15.6299 64.3564C13.9608 64.887 11.9985 64.6756 9.63223 63.7111C7.26148 62.7447 5.80576 61.512 5.18297 59.9425C4.63163 58.554 4.84054 57.0978 5.113 56.121C5.34466 55.2905 5.8238 54.552 6.28762 53.838C6.51779 53.4832 6.75613 53.1163 6.95738 52.7467C7.08866 52.5057 7.21624 52.2597 7.34406 52.0137C8.04423 50.6625 8.76863 49.2654 10.1808 48.6275C10.8012 48.3476 11.5152 48.2065 12.2927 48.2065Z" fill="#4285F4" stroke="#4285F4" stroke-width="0.5"></path> <path d="M12.3957 62.4036C12.8546 62.4036 13.2919 62.5581 13.7028 62.8668C13.0002 62.5988 12.2409 62.536 11.4434 62.6124C11.7697 62.473 12.0874 62.4036 12.3957 62.4036Z" fill="#4285F4" stroke="#4285F4" stroke-width="0.5"></path> <path d="M18.0408 51.3335C17.3616 51.3424 16.7072 51.2331 16.103 51.0056C15.5111 50.7826 14.9486 50.4415 14.4316 49.9912C14.9419 50.4464 17.2818 51.3169 18.0408 51.3335Z" fill="#4285F4" stroke="#4285F4" stroke-width="0.5"></path> <path d="M16.415 50.9114C16.564 52.4534 15.9872 53.8686 14.7004 55.1189L14.5107 54.9241C15.7356 53.7344 16.2852 52.3931 16.1442 50.9376L16.415 50.9114Z" fill="#4285F4" stroke="#4285F4" stroke-width="0.5"></path> <path d="M8.47266 53.3558C10.8246 53.3926 12.9115 53.942 14.6753 54.9895L14.5366 55.2231C12.4168 53.8275 9.88215 53.5155 8.47266 53.3558Z" fill="#4285F4" stroke="#4285F4" stroke-width="0.5"></path> <path d="M14.6249 54.9343C15.0091 55.3954 15.1014 55.9384 14.9008 56.5503C16.3299 56.3557 17.8138 56.6867 19.5459 57.5862C18.5696 57.161 16.2147 56.3342 14.7144 56.8548L14.4655 56.8991L14.5656 56.667C14.8294 56.056 14.7804 55.546 14.416 55.1084L14.6249 54.9343Z" fill="#4285F4" stroke="#4285F4" stroke-width="0.5"></path> <path d="M14.5619 56.6771L14.819 56.7653C14.354 58.1251 13.5868 59.1665 12.5393 59.8598L12.4933 59.8899L12.4391 59.8801C10.3567 59.3272 8.0151 59.6718 7.72559 59.6988C9.25029 59.3433 10.8346 59.3109 12.4342 59.6027C13.4078 58.9432 14.1236 57.9595 14.5619 56.6771Z" fill="#4285F4" stroke="#4285F4" stroke-width="0.5"></path> <path d="M12.6019 59.7689C12.9812 60.5035 13.0576 61.4182 12.8355 62.5652L12.5685 62.5138C12.7787 61.4289 12.7102 60.5719 12.3604 59.8938L12.6019 59.7689Z" fill="#4285F4" stroke="#4285F4" stroke-width="0.5"></path> <path d="M11.772 37.2492C12.3196 36.2842 12.8955 35.4528 13.5323 34.7069C14.498 33.576 15.3592 32.7035 16.4235 32.1215C17.0327 31.7882 17.6305 31.6162 18.1999 31.6105L18.2276 31.6102C18.7468 31.6102 19.2746 31.7618 19.7852 31.9084C19.957 31.9578 20.1279 32.0065 20.2975 32.0498C21.0708 32.2469 21.839 32.4936 22.5814 32.7834C23.9981 33.3362 25.2466 34.0848 26.5686 34.877L26.7516 34.9867C28.4177 35.9841 28.7411 38.2352 28.0854 39.7487C27.8268 40.3461 27.5798 41.0208 27.3185 41.7345C26.5295 43.89 25.6355 46.3329 23.9875 47.843C23.9744 47.8551 23.9595 47.8648 23.9452 47.8749L23.9148 47.8967C22.8447 48.6876 21.2058 48.9885 20.0191 49.1019C19.7291 49.1296 19.4324 49.1437 19.1367 49.1437C17.9519 49.1437 16.7652 48.9264 15.6091 48.4977C14.9028 48.2356 14.2256 47.8989 13.5966 47.4969C13.0465 47.1453 12.3622 46.7077 11.9824 46.1257C11.9097 46.0145 11.8346 45.8997 11.7718 45.7811C11.4504 45.1731 11.4229 44.5202 11.3942 43.8286C11.3851 43.613 11.3762 43.3965 11.3579 43.1809C11.3114 42.632 11.2632 42.0834 11.2073 41.5355C11.1831 41.2964 11.1403 41.0593 11.0993 40.8299C11.0464 40.5364 10.992 40.2331 10.9781 39.9339C10.9326 38.9472 11.2627 38.1471 11.772 37.2492ZM10.7067 39.9465C10.721 40.2632 10.7771 40.5757 10.8315 40.8781C10.8718 41.1024 10.9136 41.3345 10.9369 41.5632C10.9925 42.1094 11.0404 42.6565 11.0869 43.2039C11.1047 43.4158 11.1136 43.6281 11.1225 43.84C11.1512 44.5313 11.1811 45.246 11.5312 45.9079C11.5999 46.0379 11.6786 46.1581 11.7547 46.2745C12.1666 46.9055 12.8782 47.3604 13.45 47.7256C14.0955 48.1385 14.7903 48.4838 15.5147 48.7526C16.9971 49.3024 18.5515 49.5151 20.045 49.3727C21.2659 49.256 22.956 48.9432 24.0767 48.1152L24.1012 48.0977C24.1252 48.0809 24.1494 48.0635 24.1712 48.0435C25.8682 46.4887 26.7746 44.0126 27.5741 41.828C27.834 41.1179 28.0795 40.4469 28.3351 39.857C29.0363 38.2379 28.6837 35.8266 26.8913 34.7536L26.7083 34.6438C25.3762 33.8457 24.118 33.0914 22.6801 32.5299C21.9277 32.2362 21.1487 31.9863 20.3647 31.7865C20.1976 31.744 20.0297 31.6958 19.8601 31.6471C19.3318 31.4953 18.7849 31.3383 18.2276 31.3383L18.1972 31.3385C17.5826 31.3449 16.942 31.5281 16.293 31.8832C15.1278 32.5203 14.1781 33.532 13.3256 34.5306C12.6774 35.2893 12.0919 36.1349 11.5357 37.1149C11.0031 38.0539 10.6582 38.8945 10.7067 39.9465Z" fill="#4285F4" stroke="#4285F4" stroke-width="0.5"></path> <path d="M15.4286 36.6353C15.3401 36.5912 15.2516 36.5472 15.1633 36.5025C15.0864 36.4802 15.1935 36.5359 15.4286 36.6353Z" fill="#4285F4" stroke="#4285F4" stroke-width="0.5"></path> <path d="M18.3338 43.4291C18.7781 44.3464 18.8839 45.3306 18.6495 46.3621C18.6285 46.454 18.5365 46.5104 18.4436 46.4931C18.1316 46.4345 17.7936 46.4036 17.4259 46.4036C17.177 46.4036 16.9149 46.4167 16.6397 46.4432C18.004 46.5821 19.2258 46.8818 20.2415 47.4138C19.9131 47.0677 19.5079 46.8145 19.0256 46.6474C18.9393 46.6175 18.8896 46.5292 18.9101 46.4402C19.1643 45.3422 19.0533 44.293 18.58 43.3146C19.6348 42.7749 20.4912 41.9232 21.1639 40.7582L21.1654 40.7587L21.1676 40.7525C21.1703 40.7476 21.1733 40.7431 21.176 40.7384C23.4993 40.487 25.1983 41.3283 26.0775 41.7845C25.0468 40.9024 23.547 40.4563 21.6141 40.4563C21.4982 40.4563 21.378 40.4605 21.2586 40.4638C21.5404 39.5228 21.4851 38.671 21.0922 37.9256C21.1726 37.8947 21.2527 37.8631 21.3293 37.824C22.2058 37.3765 22.7576 36.4286 23.0194 34.9403C23.6612 35.0891 24.3211 35.1007 25.0069 34.9736C23.5213 34.9356 22.1138 34.5002 20.7602 33.7906C21.4114 34.3123 22.0737 34.6708 22.7559 34.871C22.586 36.3399 22.0191 37.1088 21.2057 37.5817C19.9159 38.3316 16.4538 37.0685 15.429 36.6353C17.3918 37.6136 19.3628 38.3988 20.8277 38.0097C21.2314 38.7457 21.2752 39.6014 20.9476 40.5589L20.9196 40.6376C19.5695 43.8689 15.0213 43.8704 13.4355 43.8573C15.3808 44.0784 17.0044 43.8912 18.3338 43.4291Z" fill="#4285F4" stroke="#4285F4" stroke-width="0.5"></path> <path d="M31.1653 25.3694C28.443 22.2999 25.0803 21.2544 21.1715 22.2611C20.3487 22.4728 19.4681 23.1969 19.1276 23.4983C18.7217 23.8578 18.4087 24.2751 18.197 24.7389C17.7018 25.8253 17.7243 27.1478 18.2588 28.3674C18.7919 29.5838 19.7536 30.6222 20.8316 31.1453C22.3407 31.8779 23.968 32.5832 25.6403 32.7808C27.0859 32.9514 28.4363 32.6495 29.5459 31.9066C30.7989 31.0672 31.7654 29.5326 31.9505 28.088C32.0848 27.04 31.8136 26.1002 31.1653 25.3694ZM23.9611 21.6166C26.7774 21.6166 29.2601 22.8115 31.3685 25.1889C32.0704 25.9803 32.3649 26.9947 32.2203 28.1224C32.0257 29.6404 31.0118 31.2519 29.6972 32.1323C28.533 32.9121 27.1188 33.2305 25.6084 33.0505C23.8961 32.8485 22.2435 32.133 20.7127 31.3901C19.5786 30.8392 18.5681 29.7502 18.0099 28.4767C17.4442 27.1863 17.4224 25.7828 17.9495 24.6264C18.1773 24.1273 18.5128 23.6793 18.9474 23.2948C19.3027 22.9801 20.2239 22.224 21.1035 21.9976C22.0903 21.7434 23.0436 21.6166 23.9611 21.6166Z" fill="#4285F4" stroke="#4285F4" stroke-width="0.5"></path> <path d="M26.9421 29.3383C26.5151 29.9327 25.8416 30.305 24.9434 30.4481C24.2895 29.95 23.1102 29.545 21.6045 29.1363C23.4546 29.8256 24.9741 30.5488 25.5118 31.3728C25.5081 31.1189 25.3986 30.8892 25.2005 30.6768C26.0664 30.4978 26.7272 30.1032 27.1629 29.497C27.1957 29.4513 27.2215 29.3994 27.2519 29.3514C27.6529 29.9089 28.3019 30.2414 29.0923 30.4459C28.4238 30.1616 27.8793 29.7705 27.4875 29.2476C27.4279 29.168 27.423 29.0626 27.4635 28.9721C27.8544 28.1038 27.9204 26.931 27.6744 25.4228C28.2905 25.612 28.9145 25.7101 29.5521 25.7101C29.5806 25.7101 29.6093 25.7099 29.6379 25.7096C27.9901 25.3763 26.4352 24.7632 24.9516 23.9354C25.7581 24.5748 26.565 25.0327 27.3844 25.3254C27.6999 27.1376 27.5523 28.489 26.9421 29.3383Z" fill="#4285F4" stroke="#4285F4" stroke-width="0.5"></path> <path d="M31.8616 22.8142L31.9437 22.814C33.6019 22.8019 34.6868 22.4154 35.3578 21.5983C36.0914 20.7048 35.9925 19.5 35.8244 18.5499C35.1177 14.5558 33.3144 12.614 30.3105 12.614C29.4343 12.614 28.4431 12.7866 27.3654 13.1265C26.66 13.349 25.9698 13.7968 25.5146 14.1333C24.7499 14.6984 24.2517 15.3816 24.0339 16.1636C23.6517 17.5384 24.2666 18.8832 24.9183 20.0175C25.4253 20.8996 26.3592 21.5748 27.7724 22.0819C29.127 22.5677 30.5028 22.8142 31.8616 22.8142ZM30.3105 12.342C33.4239 12.342 35.3689 14.4146 36.0921 18.5027C36.2704 19.5099 36.3722 20.7918 35.568 21.7709C34.6139 22.9326 33.0437 23.078 31.946 23.0859L31.8616 23.0862C30.4712 23.0862 29.0647 22.8345 27.6806 22.3378C26.2041 21.808 25.2234 21.0935 24.6824 20.1527C24.0025 18.9699 23.3629 17.5624 23.7721 16.0909C24.0062 15.2488 24.5383 14.5167 25.3532 13.9145C25.8246 13.5656 26.5424 13.101 27.2836 12.8672C28.388 12.5188 29.4063 12.342 30.3105 12.342Z" fill="#4285F4" stroke="#4285F4" stroke-width="0.5"></path> <path d="M33.3546 17.675C32.8561 19.3221 31.8692 20.1971 30.3454 20.3415C30.2458 20.3508 30.1479 20.3133 30.0695 20.251C29.4383 19.7488 28.242 19.4094 27.1299 19.1419C27.1299 19.1419 29.5236 20.0532 30.0413 20.5884C30.2809 20.8362 30.4646 21.5002 30.4646 21.5002C30.5694 21.2404 30.5739 20.9949 30.4809 20.7664C30.4478 20.6851 30.5024 20.5976 30.5895 20.585C32.0393 20.3743 33.0351 19.4833 33.5575 17.9297C33.5892 17.8355 33.6997 17.789 33.7833 17.8429C34.0374 18.007 34.298 18.0993 34.5665 18.1183C33.5068 17.3301 32.6447 16.2831 31.9124 15.0657C32.3557 16.1409 32.8134 16.9246 33.2935 17.4297C33.3558 17.4953 33.3808 17.5885 33.3546 17.675Z" fill="#4285F4" stroke="#4285F4" stroke-width="0.5"></path> <path d="M40.4225 16.1292C41.7135 16.1292 42.4552 15.3207 42.6894 13.6578C42.8773 11.8799 42.8169 10.2091 42.5096 8.69601C42.3618 7.62424 41.892 6.94014 41.0719 6.59598C40.1683 6.24169 39.1984 6.02412 38.1924 5.95094C37.9276 5.93141 37.6143 5.91163 37.3008 5.91163C36.7695 5.91163 36.3317 5.96998 35.9626 6.09013C35.0886 6.37371 34.362 6.94211 33.7414 7.82771C33.4721 8.21216 33.235 8.64755 33.0363 9.12224L33.0227 9.15513C32.8232 9.6318 32.617 10.1248 32.5848 10.6222C32.5678 10.885 32.6892 11.1867 32.796 11.4527C33.0427 12.0653 33.4343 12.6315 33.8709 13.0073C35.5638 14.4638 37.7177 15.5138 40.2724 16.1277C40.308 16.1272 40.3653 16.1292 40.4225 16.1292ZM37.3008 5.63967C37.623 5.63967 37.9424 5.6597 38.2124 5.67948C39.2454 5.75488 40.242 5.97838 41.174 6.3438C42.0935 6.72973 42.6169 7.48356 42.7774 8.65027C43.0889 10.1821 43.1507 11.8809 42.9593 13.6909C42.695 15.5684 41.785 16.4817 40.2333 16.3957C37.6119 15.768 35.4196 14.6982 33.6937 13.2133C33.2252 12.8103 32.8061 12.2058 32.5443 11.5553C32.432 11.2757 32.2928 10.9293 32.3136 10.6047C32.3485 10.062 32.5734 9.5245 32.7717 9.0498L32.7856 9.01717C32.9915 8.52467 33.2383 8.07174 33.5189 7.67171C34.1654 6.74878 34.9595 6.12994 35.8785 5.83128C36.2753 5.70222 36.7406 5.63967 37.3008 5.63967Z" fill="#4285F4" stroke="#4285F4" stroke-width="0.5"></path> <path d="M40.6728 7.36758C38.0647 7.99333 35.7785 9.2446 33.9326 11.3918C35.2217 9.23545 37.4896 7.88134 40.6728 7.36758Z" fill="#4285F4" stroke="#4285F4" stroke-width="0.5"></path> <path d="M47.1302 2.20537C47.8873 2.20537 48.7239 2.34531 49.6303 2.6195C47.0155 2.66622 44.7375 3.26305 42.8412 4.39861C43.958 2.92409 45.3637 2.20537 47.1302 2.20537ZM51.912 4.61939C51.8018 6.0672 51.6435 7.3558 51.4285 8.55935L51.4156 8.63129C51.3165 9.18658 51.2141 9.76092 51.0529 10.3078C50.9693 10.5916 50.8774 10.892 50.7523 11.1699C50.6247 11.4535 50.4835 11.6664 50.3206 11.8206C49.8652 12.2526 49.3205 12.4805 48.7454 12.4805C48.3568 12.4805 47.9657 12.3784 47.5827 12.1764C47.4959 12.1309 47.4114 12.081 47.3362 12.0328C45.6315 10.7615 44.0895 9.16384 42.7527 7.2841C42.4323 6.45314 42.3376 5.74159 42.4637 5.16553C42.4973 5.01225 42.5878 4.87652 42.7203 4.79196C44.7506 3.49645 47.2548 2.85338 50.1678 2.888C50.3463 2.88997 50.5248 2.92359 50.6909 2.98862C50.6944 2.9901 50.6979 2.99134 50.7013 2.99282C51.4354 3.20372 51.8314 3.74293 51.912 4.61939ZM42.5052 7.39808L42.5213 7.4275C43.8766 9.33666 45.4419 10.9593 47.1812 12.256C47.2704 12.3136 47.3624 12.3678 47.4561 12.4172C48.5076 12.9713 49.6602 12.821 50.5077 12.0182C50.6966 11.8389 50.8578 11.5979 51.0005 11.2814C51.1323 10.988 51.2277 10.6774 51.3137 10.3849C51.4791 9.82372 51.583 9.24197 51.6834 8.67926L51.6962 8.60731C51.9128 7.39462 52.0723 6.09688 52.183 4.61741C52.0923 3.60819 51.6191 2.97354 50.7891 2.7357C49.4236 2.19598 48.2267 1.93341 47.1302 1.93341C45.1887 1.93341 43.6034 2.80319 42.4103 4.53138C42.0186 5.26295 42.0508 6.22766 42.5052 7.39808Z" fill="#4285F4" stroke="#4285F4" stroke-width="0.5"></path> <path d="M43.3848 6.18542C45.5152 5.22813 47.7566 4.53117 50.1271 4.13683C50.117 4.13683 50.1076 4.13683 50.0975 4.13683C47.5168 4.13683 45.2581 4.82587 43.3848 6.18542Z" fill="#4285F4" stroke="#4285F4" stroke-width="0.5"></path> <path d="M53.3759 3.07278C55.6843 2.47694 57.9992 2.46631 60.2686 3.04163C60.5067 3.10196 60.7185 3.25178 60.8392 3.46564C60.92 3.60904 60.9809 3.77098 61.0254 3.9569C61.098 4.26125 61.082 4.51565 61.0268 4.87859C60.9799 5.18764 60.9247 5.4957 60.8629 5.79485C60.4903 7.59869 59.8727 9.14219 59.0274 10.3823C58.4138 11.2825 57.789 11.7392 57.1709 11.7392C56.656 11.7392 56.1177 11.4232 55.5708 10.7994C54.6185 9.71998 53.7265 8.07957 52.7682 5.64404C52.7387 5.56962 52.7185 5.49199 52.7088 5.41263C52.6495 4.9367 52.585 4.29685 52.7002 3.77518C52.7756 3.43399 53.0374 3.16031 53.3759 3.07278ZM53.7002 2.67572C54.9891 2.07073 55.9934 1.8371 57.0721 1.90509C57.9136 1.95824 58.7842 2.19831 59.7912 2.65174C58.8326 2.44802 57.8672 2.34566 56.898 2.34566C55.7842 2.34566 54.6654 2.48214 53.5482 2.75113C53.6004 2.72393 53.652 2.69822 53.7002 2.67572ZM52.4757 5.57679C52.517 5.75876 52.5738 5.93702 52.6544 6.10761C52.8473 6.51629 53.0058 6.94302 53.1917 7.35541C53.4943 8.02641 53.8216 8.68752 54.1942 9.32267C54.4951 9.83593 54.8264 10.3334 55.2064 10.792C55.2588 10.855 55.3125 10.9173 55.3666 10.9791C56.6859 12.4826 58.0269 12.3333 59.2522 10.5354C60.1177 9.2658 60.7494 7.68918 61.1294 5.85023C61.1922 5.54613 61.2481 5.23289 61.2958 4.91964C61.3448 4.59699 61.3811 4.27583 61.2899 3.89385C61.1307 3.22928 60.7821 2.81368 60.1244 2.50389C58.9911 1.96937 58.0266 1.69295 57.0891 1.63362C56.9685 1.62595 56.8493 1.62224 56.7309 1.62224C55.7446 1.62224 54.7742 1.87122 53.5848 2.42947C53.3363 2.54617 53.0211 2.7133 52.7855 2.97438C52.3226 3.48715 52.3303 4.27732 52.3827 4.92285C52.4008 5.1424 52.4272 5.36244 52.4757 5.57679Z" fill="#4285F4" stroke="#4285F4" stroke-width="0.5"></path> <path d="M59.9864 4.64593C58.8704 4.17247 57.8077 3.93586 56.8054 3.93586C55.7994 3.93586 54.8538 4.17469 53.9766 4.65161C55.9312 4.13612 57.9365 4.15813 59.9864 4.64593Z" fill="#4285F4" stroke="#4285F4" stroke-width="0.5"></path> </svg> 