<?xml version="1.0" encoding="UTF-8"?> <svg xmlns="http://www.w3.org/2000/svg" width="25" height="17" viewBox="0 0 25 17" fill="none"> <path d="M23 0H2C0.89543 0 0 0.89543 0 2V14.6667C0 15.7712 0.89543 16.6667 2 16.6667H23C24.1046 16.6667 25 15.7712 25 14.6667V2C25 0.895431 24.1046 0 23 0Z" fill="white"></path> <path d="M18.6606 12.6034L17.7109 14.0278L18.2293 14.3734L19.1789 12.9489L18.6606 12.6034Z" fill="black"></path> <path d="M17.8949 12.0848L16.9453 13.5093L17.4636 13.8548L18.4132 12.4304L17.8949 12.0848Z" fill="black"></path> <path d="M17.0041 11.5234L16.0625 12.9443L16.5795 13.287L17.5211 11.866L17.0041 11.5234Z" fill="black"></path> <path d="M19.7856 10.9174L18.8359 12.3418L19.3543 12.6873L20.3039 11.2629L19.7856 10.9174Z" fill="black"></path> <path d="M19.0043 10.3988L18.0547 11.8232L18.573 12.1688L19.5226 10.7444L19.0043 10.3988Z" fill="black"></path> <path d="M18.2387 9.8827L17.2891 11.3071L17.8074 11.6527L18.757 10.2282L18.2387 9.8827Z" fill="black"></path> <path d="M6.83863 9.88297L6.32031 10.2285L8.3917 13.3356L8.91002 12.9901L6.83863 9.88297Z" fill="black"></path> <path d="M7.18238 12.0846L6.66406 12.4302L7.61368 13.8546L8.132 13.5091L7.18238 12.0846Z" fill="black"></path> <path d="M6.05738 10.4015L5.53906 10.7471L6.48868 12.1715L7.007 11.826L6.05738 10.4015Z" fill="black"></path> <path d="M5.20454 10.9181L4.6875 11.2607L6.74134 14.3602L7.25838 14.0176L5.20454 10.9181Z" fill="black"></path> <path d="M19.2827 4.04752L18.7656 4.39014L19.7072 5.81106L20.2242 5.46844L19.2827 4.04752Z" fill="black"></path> <path d="M18.2293 2.28678L17.7109 2.63232L18.6606 4.05676L19.1789 3.71121L18.2293 2.28678Z" fill="black"></path> <path d="M17.4636 2.80729L16.9453 3.15283L19.0167 6.25992L19.535 5.91438L17.4636 2.80729Z" fill="black"></path> <path d="M17.8074 5.00456L17.2891 5.3501L18.2387 6.77453L18.757 6.42899L17.8074 5.00456Z" fill="black"></path> <path d="M16.6108 3.38248L16.0938 3.7251L17.0353 5.14602L17.5524 4.8034L16.6108 3.38248Z" fill="black"></path> <path d="M8.3917 3.31967L6.32031 6.42676L6.83863 6.7723L8.91002 3.66521L8.3917 3.31967Z" fill="black"></path> <path d="M7.61045 2.80356L5.53906 5.91064L6.05738 6.25619L8.12876 3.1491L7.61045 2.80356Z" fill="black"></path> <path d="M6.84483 2.28988L4.77344 5.39697L5.29175 5.74252L7.36314 2.63543L6.84483 2.28988Z" fill="black"></path> <path d="M9.43246 6.25684C8.88274 7.08112 8.68298 8.09001 8.87713 9.06158C9.07127 10.0331 9.64342 10.8878 10.4677 11.4375C11.292 11.9872 12.3009 12.187 13.2724 11.9928C14.244 11.7987 15.0987 11.2266 15.6484 10.4023C15.9234 9.99013 16.0234 9.48563 15.9264 8.99974C15.8295 8.51385 15.5435 8.08638 15.1313 7.81138C14.7192 7.53637 14.2147 7.43634 13.7288 7.53331C13.2429 7.63028 12.8154 7.91629 12.5404 8.32843C12.2629 8.73392 11.8367 9.0137 11.3543 9.10714C10.8719 9.20058 10.3722 9.10016 9.96329 8.82763C9.55443 8.5551 9.26943 8.13243 9.17007 7.65122C9.0707 7.17 9.16498 6.66902 9.43246 6.25684Z" fill="#003478"></path> <path d="M9.4338 6.25754C9.16632 6.66972 9.07204 7.17071 9.17141 7.65192C9.27077 8.13313 9.55577 8.55581 9.96463 8.82833C10.3735 9.10086 10.8733 9.20128 11.3557 9.10784C11.8381 9.0144 12.2642 8.73462 12.5418 8.32914C12.8193 7.92365 13.2454 7.64387 13.7278 7.55043C14.2102 7.45699 14.71 7.55741 15.1189 7.82994C15.5277 8.10247 15.8127 8.52514 15.9121 9.00635C16.0115 9.48757 15.9172 9.98855 15.6497 10.4007C16.1994 9.57645 16.3992 8.56756 16.205 7.59599C16.0109 6.62443 15.4388 5.76978 14.6145 5.22006C13.7902 4.67034 12.7813 4.47058 11.8097 4.66472C10.8382 4.85887 9.98352 5.43101 9.4338 6.2553V6.25754Z" fill="#C60C30"></path> </svg> 