<svg xmlns="http://www.w3.org/2000/svg" xmlns:xlink="http://www.w3.org/1999/xlink" viewBox="0 0 377.76 146.12"><defs><style>.cls-1{fill:#0aa0ea;}.cls-2{fill:#fa4a7d;}.cls-3{fill:url(#Безымянный_градиент_32);}.cls-4{fill:url(#Безымянный_градиент_32-2);}</style><linearGradient id="Безымянный_градиент_32" x1="418.45" y1="443.43" x2="467.69" y2="443.43" gradientTransform="translate(-80.02 529.63) rotate(-90)" gradientUnits="userSpaceOnUse"><stop offset="0" stop-color="#fa4a7d"/><stop offset="0.14" stop-color="#e5448f"/><stop offset="0.28" stop-color="#cb3ca6"/><stop offset="0.47" stop-color="#a152b3"/><stop offset="0.77" stop-color="#577ac9"/><stop offset="1" stop-color="#0aa0ea"/></linearGradient><linearGradient id="Безымянный_градиент_32-2" x1="429.01" y1="431.83" x2="457.13" y2="431.83" xlink:href="#Безымянный_градиент_32"/></defs><title>aksiomasmile_logo_02</title><g id="Слой_2" data-name="Слой 2"><g id="Слой_1-2" data-name="Слой 1"><path class="cls-1" d="M0,46.81,16.7,1H32.41L49,46.81H34.11l-2.55-8.18H17.09l-2.55,8.18ZM19.9,27.7h8.78L24.36,14.6Z"/><path class="cls-1" d="M57.22,46.81V1H70.45V17.15h8.77V29.2H70.45V46.81Zm28.09,0L67.11,23.44,83.74,1h16.57L83.22,23.44l19,23.37Z"/><path class="cls-1" d="M128.33,47.8a26.75,26.75,0,0,1-12.62-2.88,21.11,21.11,0,0,1-8.58-8.2A24.72,24.72,0,0,1,104,24.1a25.66,25.66,0,0,1,1.8-9.76,22.26,22.26,0,0,1,5.09-7.63,23,23,0,0,1,7.78-5A26.71,26.71,0,0,1,128.53,0a27.69,27.69,0,0,1,10,1.54,25.86,25.86,0,0,1,7.26,4.35l-6.48,10.87a11.14,11.14,0,0,0-4.3-2.9,15.91,15.91,0,0,0-5.65-1,14.46,14.46,0,0,0-4.91.77,9.68,9.68,0,0,0-3.59,2.21,9.47,9.47,0,0,0-2.21,3.47,13,13,0,0,0-.75,4.55,11.85,11.85,0,0,0,1.38,5.89,9.16,9.16,0,0,0,4,3.78,13.48,13.48,0,0,0,6.25,1.33,19.45,19.45,0,0,0,5.71-.89,18.77,18.77,0,0,0,5.55-2.78l6,11.07a27.18,27.18,0,0,1-7.63,3.93A33.56,33.56,0,0,1,128.33,47.8Z"/><path class="cls-1" d="M155.93,46.81V1H169V26.19L184.67,1H198V46.81H184.87V21.21l-15.72,25.6Z"/><path class="cls-1" d="M233.12,47.8A26.24,26.24,0,0,1,223.24,46a23.78,23.78,0,0,1-7.84-5.06,22.62,22.62,0,0,1-5.14-7.59,24.31,24.31,0,0,1-1.82-9.43,24.31,24.31,0,0,1,1.82-9.46,22.66,22.66,0,0,1,5.14-7.6,23.58,23.58,0,0,1,7.84-5A26.43,26.43,0,0,1,233.12,0,26,26,0,0,1,243,1.83a24,24,0,0,1,7.83,5.11A23.52,23.52,0,0,1,256,14.55a23.8,23.8,0,0,1,1.83,9.35A24.13,24.13,0,0,1,256,33.33a23.12,23.12,0,0,1-5.16,7.59A23.84,23.84,0,0,1,243,46,26.15,26.15,0,0,1,233.12,47.8Zm0-12.38a11.41,11.41,0,0,0,4.37-.8,9.62,9.62,0,0,0,3.43-2.31,10.26,10.26,0,0,0,2.22-3.63,13.58,13.58,0,0,0,.79-4.78,12.8,12.8,0,0,0-1.38-6.12,9.8,9.8,0,0,0-3.81-4,11,11,0,0,0-5.62-1.4,11.45,11.45,0,0,0-4.37.8,9.69,9.69,0,0,0-3.42,2.3,10.39,10.39,0,0,0-2.22,3.64,13.58,13.58,0,0,0-.79,4.78A12.8,12.8,0,0,0,223.7,30a9.65,9.65,0,0,0,3.81,4A11,11,0,0,0,233.12,35.42Z"/><path class="cls-1" d="M268.28,46.81V1H281l16.56,27.89-5.3.07L307.83,1h12.7V46.81H307.77l.26-29.2,2.29.85L298.67,39h-8.52L277.84,18.46l2.3-.85.26,29.2Z"/><path class="cls-1" d="M328.72,46.81,345.41,1h15.72l16.63,45.83H362.83l-2.55-8.18H345.81l-2.56,8.18Zm19.9-19.11h8.78l-4.33-13.1Z"/><path d="M4.75,146.12a4.9,4.9,0,0,1-2.47-.62,4.42,4.42,0,0,1-1.67-1.68A4.7,4.7,0,0,1,0,141.4a4.82,4.82,0,0,1,.36-1.89,4.34,4.34,0,0,1,1-1.5,4.64,4.64,0,0,1,1.56-1,5.42,5.42,0,0,1,2-.35,5.15,5.15,0,0,1,1.46.2,4.17,4.17,0,0,1,1.26.64l-.63.85a2.75,2.75,0,0,0-1-.51,4,4,0,0,0-1.2-.18,4.18,4.18,0,0,0-2,.44,3.1,3.1,0,0,0-1.29,1.27,4,4,0,0,0-.46,2,3.7,3.7,0,0,0,1,2.75,3.66,3.66,0,0,0,2.7,1,3.57,3.57,0,0,0,1.35-.26,2.67,2.67,0,0,0,1-.63l.71.8a6.26,6.26,0,0,1-1.45.8A4.62,4.62,0,0,1,4.75,146.12Z"/><path d="M22,146.12a5,5,0,0,1-2.45-.59,4.22,4.22,0,0,1-1.66-1.64,4.86,4.86,0,0,1-.6-2.45,5.08,5.08,0,0,1,.34-1.89,4.64,4.64,0,0,1,1-1.51,4.61,4.61,0,0,1,5.08-1,3.61,3.61,0,0,1,1.35,1,4.1,4.1,0,0,1,.79,1.54,4.94,4.94,0,0,1,.15,1.9H18.44a3.61,3.61,0,0,0,.38,1.89,3.1,3.1,0,0,0,1.29,1.27,4.28,4.28,0,0,0,2,.45,4.38,4.38,0,0,0,1.42-.25,3.5,3.5,0,0,0,1.21-.73l.6.87a4.37,4.37,0,0,1-1,.63,5.2,5.2,0,0,1-1.16.36A5.91,5.91,0,0,1,22,146.12Zm-3.53-5.57h6.38a3,3,0,0,0-.81-2.11,3,3,0,0,0-2.2-.76,3.48,3.48,0,0,0-2.31.76A3.06,3.06,0,0,0,18.48,140.55Z"/><path d="M36.64,145.84V137h1L42,143l-.46,0L45.79,137h1v8.88h-1v-7.42l.18.1-3.77,5.27h-.85l-3.89-5.29.17-.1v7.44Z"/><path d="M62.11,146.12a5,5,0,0,1-2.45-.59A4.25,4.25,0,0,1,58,143.89a4.86,4.86,0,0,1-.6-2.45,5.29,5.29,0,0,1,.34-1.89,4.5,4.5,0,0,1,1-1.51,4.39,4.39,0,0,1,1.44-1,4.72,4.72,0,0,1,3.64,0,3.61,3.61,0,0,1,1.35,1,4.25,4.25,0,0,1,.79,1.54,4.94,4.94,0,0,1,.15,1.9H58.54a3.51,3.51,0,0,0,.38,1.89,3.13,3.13,0,0,0,1.28,1.27,4.33,4.33,0,0,0,2,.45,4.43,4.43,0,0,0,1.42-.25,3.59,3.59,0,0,0,1.21-.73l.6.87a4.59,4.59,0,0,1-1,.63,5.37,5.37,0,0,1-1.16.36A6,6,0,0,1,62.11,146.12Zm-3.53-5.57H65a3,3,0,0,0-.82-2.11,3,3,0,0,0-2.2-.76,3.43,3.43,0,0,0-2.3.76A3.06,3.06,0,0,0,58.58,140.55Z"/><path d="M76.73,145.84V137h1v7.18L83.65,137h.83v8.88h-1v-7.25l-5.94,7.25Zm3.87-10.73a3.1,3.1,0,0,1-1.6-.41,2.86,2.86,0,0,1-1.07-1.14,3.13,3.13,0,0,1-.35-1.63h1a2.24,2.24,0,0,0,.53,1.66,2,2,0,0,0,1.54.63,1.93,1.93,0,0,0,1.53-.63,2.22,2.22,0,0,0,.5-1.66h1a3.37,3.37,0,0,1-.36,1.63,2.94,2.94,0,0,1-1.07,1.14A3.06,3.06,0,0,1,80.6,135.11Z"/><path d="M96,145.84V137h1v3.66h5.57V137h1v8.88h-1v-4.25H97v4.25Z"/><path d="M118.89,146.12a4.67,4.67,0,0,1-2.44-.64,4.49,4.49,0,0,1-1.63-1.72,4.75,4.75,0,0,1-.59-2.36,4.83,4.83,0,0,1,.34-1.82,4.51,4.51,0,0,1,1-1.5,4.39,4.39,0,0,1,1.47-1,4.91,4.91,0,0,1,1.9-.37,4.22,4.22,0,0,1,2.3.58,5.14,5.14,0,0,1,1.46,1.44l-.17.22v-2h1v8.88h-1v-2l.17.22a5,5,0,0,1-1.46,1.44A4.13,4.13,0,0,1,118.89,146.12Zm0-1a3.63,3.63,0,0,0,1.85-.46,3.13,3.13,0,0,0,1.26-1.29,4.45,4.45,0,0,0,0-3.94,3.13,3.13,0,0,0-1.26-1.29,4,4,0,0,0-3.7,0,3.13,3.13,0,0,0-1.26,1.29,4.45,4.45,0,0,0,0,3.94,3.13,3.13,0,0,0,1.26,1.29A3.63,3.63,0,0,0,118.91,145.12Z"/><path d="M134.43,145.84l3.77-4.36.08.77a4.58,4.58,0,0,1-2-.33,2.33,2.33,0,0,1-1.12-.93,2.7,2.7,0,0,1-.36-1.4,2.25,2.25,0,0,1,.45-1.42,2.91,2.91,0,0,1,1.28-.9,5.28,5.28,0,0,1,1.89-.31h3.31v8.88h-1v-7.92H138.5a3.61,3.61,0,0,0-1.92.41,1.39,1.39,0,0,0-.63,1.26,1.46,1.46,0,0,0,.59,1.27,3.05,3.05,0,0,0,1.79.43H141v.94h-2.15l-3.07,3.61Z"/><path d="M170.3,146.12a4.87,4.87,0,0,1-2.47-.62,4.37,4.37,0,0,1-1.68-1.68,5.12,5.12,0,0,1-.25-4.31,4.37,4.37,0,0,1,1-1.5,4.7,4.7,0,0,1,1.55-1,5.47,5.47,0,0,1,2-.35,5.2,5.2,0,0,1,1.46.2,4.23,4.23,0,0,1,1.25.64l-.62.85a2.89,2.89,0,0,0-1-.51,3.87,3.87,0,0,0-1.2-.18,4.21,4.21,0,0,0-2,.44,3.22,3.22,0,0,0-1.29,1.27,4.12,4.12,0,0,0-.46,2,3.74,3.74,0,0,0,1,2.75,3.68,3.68,0,0,0,2.7,1,3.57,3.57,0,0,0,1.35-.26,2.63,2.63,0,0,0,1-.63l.7.8a6,6,0,0,1-1.44.8A4.7,4.7,0,0,1,170.3,146.12Z"/><path d="M186.08,145.84v-7.92h-3.31v-1h7.65v1h-3.31v7.92Z"/><path d="M204.65,146.12a4.58,4.58,0,0,1-2.4-.64A4.72,4.72,0,0,1,200,141.4a4.83,4.83,0,0,1,.35-1.82,4.46,4.46,0,0,1,1-1.5,4.53,4.53,0,0,1,1.48-1,4.75,4.75,0,0,1,1.86-.37,4.54,4.54,0,0,1,2.4.65,4.72,4.72,0,0,1,1.67,1.71,4.67,4.67,0,0,1,.61,2.36,4.83,4.83,0,0,1-.35,1.82,4.91,4.91,0,0,1-1,1.51,4.7,4.7,0,0,1-1.49,1A4.58,4.58,0,0,1,204.65,146.12Zm0-1a3.63,3.63,0,0,0,1.85-.46,3.13,3.13,0,0,0,1.26-1.29,4.45,4.45,0,0,0,0-3.94,3.13,3.13,0,0,0-1.26-1.29,4,4,0,0,0-3.7,0,3.13,3.13,0,0,0-1.26,1.29,4.45,4.45,0,0,0,0,3.94,3.13,3.13,0,0,0,1.26,1.29A3.63,3.63,0,0,0,204.65,145.12Z"/><path d="M220,145.84V137h1l4.39,6-.46,0,4.23-6.07h1v8.88h-1v-7.42l.18.1-3.77,5.27h-.85l-3.89-5.29.17-.1v7.44Z"/><path d="M245.38,146.12a4.64,4.64,0,0,1-2.43-.64,4.51,4.51,0,0,1-1.64-1.72,5,5,0,0,1-.25-4.18,4.51,4.51,0,0,1,.95-1.5,4.33,4.33,0,0,1,1.48-1,4.83,4.83,0,0,1,1.89-.37,4.19,4.19,0,0,1,2.3.58,5,5,0,0,1,1.46,1.44l-.17.22v-2h1v8.88h-1v-2l.17.22a4.89,4.89,0,0,1-1.46,1.44A4.11,4.11,0,0,1,245.38,146.12Zm0-1a3.6,3.6,0,0,0,1.85-.46,3.13,3.13,0,0,0,1.26-1.29,4.45,4.45,0,0,0,0-3.94,3.13,3.13,0,0,0-1.26-1.29,4,4,0,0,0-3.7,0,3.2,3.2,0,0,0-1.26,1.29,4.45,4.45,0,0,0,0,3.94,3.2,3.2,0,0,0,1.26,1.29A3.63,3.63,0,0,0,245.4,145.12Z"/><path d="M263.7,145.84v-7.92h-3.31v-1H268v1h-3.31v7.92Z"/><path d="M282.27,146.12a4.61,4.61,0,0,1-2.4-.64,4.72,4.72,0,0,1-2.28-4.08,4.83,4.83,0,0,1,.35-1.82,4.46,4.46,0,0,1,1-1.5,4.53,4.53,0,0,1,1.48-1,4.75,4.75,0,0,1,1.86-.37,4.54,4.54,0,0,1,2.4.65,4.72,4.72,0,0,1,1.67,1.71,4.67,4.67,0,0,1,.61,2.36,4.83,4.83,0,0,1-.35,1.82,4.91,4.91,0,0,1-1,1.51,4.7,4.7,0,0,1-1.49,1A4.58,4.58,0,0,1,282.27,146.12Zm0-1a3.63,3.63,0,0,0,1.85-.46,3.13,3.13,0,0,0,1.26-1.29,4.45,4.45,0,0,0,0-3.94,3.13,3.13,0,0,0-1.26-1.29,4,4,0,0,0-3.7,0,3.13,3.13,0,0,0-1.26,1.29,4.45,4.45,0,0,0,0,3.94,3.13,3.13,0,0,0,1.26,1.29A3.63,3.63,0,0,0,282.27,145.12Z"/><path d="M296.92,145.93l-.44-1a2.46,2.46,0,0,0,1.38-.8,3.3,3.3,0,0,0,.56-1.64,23.26,23.26,0,0,0,.13-2.79V137h6.57v8.88h-1v-7.92h-4.5v1.78c0,1,0,1.85-.1,2.57a6.81,6.81,0,0,1-.39,1.79,2.93,2.93,0,0,1-.81,1.17A3.63,3.63,0,0,1,296.92,145.93Z"/><path d="M320.43,146.12a4.63,4.63,0,0,1-2.4-.64,4.72,4.72,0,0,1-2.28-4.08,4.83,4.83,0,0,1,.35-1.82,4.78,4.78,0,0,1,1-1.5,4.64,4.64,0,0,1,1.48-1,4.75,4.75,0,0,1,1.86-.37,4.49,4.49,0,0,1,2.4.65A4.72,4.72,0,0,1,324.5,139a4.67,4.67,0,0,1,.61,2.36,4.83,4.83,0,0,1-.35,1.82,4.74,4.74,0,0,1-1,1.51,4.57,4.57,0,0,1-3.35,1.39Zm0-1a3.6,3.6,0,0,0,1.85-.46,3.13,3.13,0,0,0,1.26-1.29,4.45,4.45,0,0,0,0-3.94,3.13,3.13,0,0,0-1.26-1.29,4,4,0,0,0-3.7,0,3.2,3.2,0,0,0-1.26,1.29,4.45,4.45,0,0,0,0,3.94,3.2,3.2,0,0,0,1.26,1.29A3.63,3.63,0,0,0,320.43,145.12Z"/><path d="M335.75,145.84V137h5.57v1h-4.54v7.92Z"/><path d="M351.75,145.84V137h1v7.18l5.88-7.18h.83v8.88h-1v-7.25l-5.93,7.25Z"/><path d="M370.41,145.84l3.78-4.36.07.77a4.64,4.64,0,0,1-2-.33,2.37,2.37,0,0,1-1.12-.93,2.7,2.7,0,0,1-.36-1.4,2.2,2.2,0,0,1,.46-1.42,2.85,2.85,0,0,1,1.28-.9,5.2,5.2,0,0,1,1.89-.31h3.31v8.88h-1v-7.92h-2.24a3.59,3.59,0,0,0-1.91.41,1.38,1.38,0,0,0-.64,1.26,1.47,1.47,0,0,0,.6,1.27,3,3,0,0,0,1.79.43H377v.94h-2.14l-3.07,3.61Z"/><path class="cls-2" d="M17.81,97.39,0,63.15H16l10.8,23.31ZM6.15,110,1.7,98a28.63,28.63,0,0,0,8.12-2.4,18.14,18.14,0,0,0,5.89-4.64,34.14,34.14,0,0,0,4.72-7.69l9.3-20.1H45.05L31.89,89.6a59.69,59.69,0,0,1-5.49,9.15,30.7,30.7,0,0,1-5.87,6.11,23,23,0,0,1-6.63,3.55A33,33,0,0,1,6.15,110Z"/><path class="cls-2" d="M49.63,110,45.54,97.88a20.89,20.89,0,0,0,3.76-1.44,6.92,6.92,0,0,0,2.52-2.11,9.71,9.71,0,0,0,1.53-3.53,32.45,32.45,0,0,0,.73-5.68q.2-3.48.2-8.61V63.15H90.49V109H77.26V75.2H66.72v.65q0,7-.46,12.23a46.43,46.43,0,0,1-1.57,9,19.2,19.2,0,0,1-3.06,6.34,14.76,14.76,0,0,1-4.9,4.12A25.27,25.27,0,0,1,49.63,110Z"/><path class="cls-2" d="M103.78,109V63.15H117V77.29h6a22.38,22.38,0,0,1,9.36,1.87,15.24,15.24,0,0,1,6.52,5.42,15,15,0,0,1,2.39,8.56,17.12,17.12,0,0,1-1.25,6.71,13.3,13.3,0,0,1-3.63,5,15.8,15.8,0,0,1-5.85,3.09,27,27,0,0,1-7.87,1ZM117,98.05h5.18a7.89,7.89,0,0,0,4.32-1c1-.69,1.57-1.92,1.57-3.69s-.55-3.08-1.64-3.76a7.81,7.81,0,0,0-4.19-1H117ZM147.06,109V63.15h13.22V109Z"/><path class="cls-2" d="M173.57,109V63.15h32.74V74.54H186.8V80.7h6.09q8.15,0,12.88,3.55t4.73,10.59a13.22,13.22,0,0,1-2.14,7.61,13.61,13.61,0,0,1-6.09,4.85,23.86,23.86,0,0,1-9.38,1.68Zm13.23-9.49h4.32a6.27,6.27,0,0,0,4.16-1.2,4.27,4.27,0,0,0,1.41-3.45,4.55,4.55,0,0,0-1.28-3.41,5,5,0,0,0-3.63-1.24h-5Z"/><path class="cls-2" d="M221,109V63.15H234.2V79.32H243V91.37H234.2V109Zm28.09,0L230.86,85.61,247.5,63.15h16.56L247,85.61,266,109Z"/><path class="cls-2" d="M273.88,109V63.15H287V88.36l15.65-25.21h13.29V109h-13.1V83.38L287.11,109Z"/><path class="cls-3" d="M361.76,111.18l-5.54-1.57a32.56,32.56,0,0,0,3.8-5.07,31.77,31.77,0,0,0,2.71-5.64,32.32,32.32,0,0,0,1.57-6,35.28,35.28,0,0,0-2-18.47,33.34,33.34,0,0,0-6.82-10.86L361,61.94a38.49,38.49,0,0,1,7.64,11.79,35.29,35.29,0,0,1,2.65,12.81,34.32,34.32,0,0,1-1,8.59,35.68,35.68,0,0,1-3.17,8.33A38.47,38.47,0,0,1,361.76,111.18Z"/><path class="cls-4" d="M351.71,72.49a4,4,0,0,1,2,.47A3.29,3.29,0,0,1,355,74.24a3.7,3.7,0,0,1,.45,1.83,3.75,3.75,0,0,1-.45,1.85,3.33,3.33,0,0,1-1.3,1.28,4.08,4.08,0,0,1-2,.46,4.15,4.15,0,0,1-2-.45,3.33,3.33,0,0,1-1.3-1.28,3.72,3.72,0,0,1-.46-1.86,3.65,3.65,0,0,1,.46-1.85,3.31,3.31,0,0,1,1.3-1.27A4.15,4.15,0,0,1,351.71,72.49Zm-3.09,22.69a4,4,0,0,0,0,3.7,3.27,3.27,0,0,0,1.3,1.28,4,4,0,0,0,2,.46,4.08,4.08,0,0,0,2-.47,3.31,3.31,0,0,0,1.3-1.27,3.75,3.75,0,0,0,.45-1.85,3.72,3.72,0,0,0-.45-1.84,3.36,3.36,0,0,0-1.31-1.28,4.53,4.53,0,0,0-4,0A3.24,3.24,0,0,0,348.62,95.18Z"/></g></g></svg>