<?xml version="1.0" encoding="UTF-8"?> <svg xmlns="http://www.w3.org/2000/svg" width="96" height="34" viewBox="0 0 96 34" fill="none"> <path fill-rule="evenodd" clip-rule="evenodd" d="M2.90793 3.42801C4.51379 3.42801 5.81568 4.71628 5.81568 6.30517C5.81568 7.89425 4.51379 9.18247 2.90793 9.18247C1.30189 9.18247 0 7.89425 0 6.30517C0 4.71628 1.30189 3.42801 2.90793 3.42801ZM14.8395 18.3007C16.0706 18.3007 17.0685 19.2882 17.0685 20.5062C17.0685 21.7241 16.0706 22.7115 14.8395 22.7115C13.6087 22.7115 12.6108 21.7241 12.6108 20.5062C12.6108 19.2882 13.6087 18.3007 14.8395 18.3007ZM17.5024 24.5736C17.0863 24.0951 15.9305 23.5325 14.9883 23.5168C13.8421 23.4975 13.0216 24.1149 12.5371 24.6741C10.3101 27.245 13.2679 32.1911 10.8605 30.3098C10.1183 29.7296 9.40902 28.838 8.88066 28.0593C6.53925 24.6092 4.98111 18.6168 5.56975 14.4712C5.8506 12.493 6.69679 11.8482 8.758 12.431C11.4134 13.1819 14.6602 15.3406 17.8031 14.1921C19.2126 13.6769 20.2616 12.6356 20.902 11.6281C15.9518 14.9784 10.9421 10.5496 7.80588 9.61539C5.05402 8.79567 3.62961 11.2675 3.22386 13.5385C2.76364 16.1159 3.09473 18.9856 3.74975 21.3752C5.23031 26.7756 8.0363 30.6731 11.9037 32.9716C12.5579 33.3604 13.0568 32.9554 13.2317 32.355C13.5885 31.1303 12.2065 26.7508 14.0498 24.8336C14.9798 23.8665 16.2832 24.2808 17.5024 24.5736Z" fill="#4285F4"></path> <path fill-rule="evenodd" clip-rule="evenodd" d="M23.4768 0C25.0826 0 26.3845 1.28809 26.3845 2.87717C26.3845 4.46624 25.0826 5.75428 23.4768 5.75428C21.8707 5.75428 20.5689 4.46624 20.5689 2.87717C20.5689 1.28809 21.8707 0 23.4768 0ZM7.07458 8.14112C7.26064 8.24695 8.04343 8.32501 8.32158 8.39955C8.74452 8.51318 9.12468 8.64823 9.49252 8.81909C11.6074 9.80192 13.2535 11.5056 16.5439 11.1698C20.2526 10.7912 23.0149 7.0382 24.3546 12.698C25.1479 16.0495 23.756 20.4593 22.7255 23.2285C22.1769 24.7024 21.4906 26.2503 20.7822 27.5694C20.2918 28.4826 18.8924 31.132 18.1023 31.2441C17.4311 30.8505 17.8068 29.3022 17.8954 28.5736C18.0093 27.6357 18.0859 26.5052 17.6555 25.7496C17.363 25.2358 16.3933 24.6203 15.5308 24.7438C15.1152 24.8033 14.7307 25.0609 14.486 25.2701C14.3321 25.4013 13.8764 25.9495 13.8428 26.2084C14.1574 25.6755 15.9093 24.917 16.6254 26.5427C17.0214 27.4416 16.5333 29.6622 16.4537 30.7065C16.3454 32.1299 16.5344 33.869 18.2334 33.1348C19.2285 32.7046 20.0713 31.7624 20.6973 31.0107C24.1498 26.8649 28.304 16.452 26.1188 10.2901C25.2477 7.83351 23.0179 6.16461 20.5938 7.16035C19.5455 7.59092 18.6431 8.29519 17.7455 8.84057C16.7141 9.46731 15.6125 9.90387 14.12 9.53451C12.3461 9.09548 11.0228 7.85928 8.99374 7.77693C8.42958 7.75398 7.42182 7.85464 7.07458 8.14112Z" fill="#005DA9"></path> <path fill-rule="evenodd" clip-rule="evenodd" d="M82.5962 21.478H95.4427C95.674 21.478 95.8632 21.6672 95.8632 21.8984C95.8632 22.1297 95.674 22.319 95.4427 22.319H82.5962C82.3649 22.319 82.1757 22.1299 82.1757 21.8986C82.1757 21.6673 82.3649 21.478 82.5962 21.478ZM34.6684 21.478H47.1564C47.3877 21.478 47.5768 21.6672 47.5768 21.8984C47.5768 22.1297 47.3877 22.319 47.1564 22.319H34.6684C34.4371 22.319 34.2479 22.1299 34.2479 21.8986C34.2479 21.6673 34.4371 21.478 34.6684 21.478ZM48.9433 22.004C48.9433 21.4399 49.1035 20.9571 49.4236 20.5581C49.7638 20.1292 50.209 19.9141 50.7592 19.9141C50.9843 19.9141 51.2095 19.9515 51.4346 20.0254C51.7348 20.1242 51.8848 20.2605 51.8848 20.4344C51.8848 20.6232 51.8022 20.717 51.6359 20.717C51.5259 20.717 51.4033 20.6819 51.267 20.6119C51.132 20.5418 50.9719 20.5069 50.7855 20.5069C50.419 20.5069 50.1252 20.6694 49.9051 20.9945C49.7088 21.2847 49.6111 21.6199 49.6111 22.0001C49.6111 22.4254 49.6988 22.7731 49.8751 23.0431C50.0801 23.3634 50.3841 23.5234 50.7855 23.5234C50.9456 23.5234 51.127 23.4747 51.3271 23.377C51.5284 23.2795 51.6435 23.2308 51.6735 23.2308C51.8648 23.2308 51.9598 23.3283 51.9598 23.5234C51.9598 23.6434 51.8848 23.751 51.7348 23.8461C51.4797 24.0111 51.1645 24.0938 50.7892 24.0938C50.1989 24.0938 49.7387 23.8887 49.4086 23.4797C49.0983 23.0945 48.9433 22.6029 48.9433 22.004ZM54.1322 23.501C54.5375 23.501 54.919 23.3634 55.2754 23.0869C55.3753 23.0082 55.4604 22.9681 55.5304 22.9681C55.7118 22.9681 55.8019 23.0633 55.8019 23.2532C55.8019 23.3133 55.7568 23.3933 55.6669 23.4933C55.4917 23.6835 55.2566 23.8336 54.9615 23.9437C54.6912 24.0437 54.4162 24.0938 54.136 24.0938C53.5458 24.0938 53.0806 23.8812 52.7403 23.457C52.4202 23.0619 52.26 22.5655 52.26 21.9663C52.26 21.3974 52.4277 20.9184 52.7628 20.5282C53.118 20.1192 53.5757 19.9141 54.136 19.9141C54.6363 19.9141 55.0539 20.1054 55.3892 20.4894C55.7043 20.8596 55.8619 21.2973 55.8619 21.8063C55.8619 22.1102 55.7142 22.2628 55.418 22.2628H52.9278C52.9278 22.6004 53.0443 22.8919 53.2781 23.1358C53.5107 23.3796 53.7958 23.501 54.1322 23.501ZM52.9278 21.7526H55.194C55.194 21.4062 55.109 21.1197 54.9376 20.8921C54.7463 20.6357 54.4787 20.5069 54.136 20.5069C53.7946 20.5069 53.5069 20.6295 53.2755 20.8732C53.0443 21.1185 52.9278 21.4111 52.9278 21.7526ZM58.5182 24.0938C58.3532 24.0938 58.248 24.0163 58.2031 23.861L57.3176 20.9195H57.3L56.9236 23.786C56.8987 23.9911 56.7822 24.0938 56.5759 24.0938C56.4109 24.0938 56.3096 24.0074 56.2746 23.8361C56.2645 23.7785 56.262 23.7372 56.2669 23.7109L56.7847 20.3117C56.8049 20.1992 56.86 20.1041 56.9499 20.0279C57.04 19.9515 57.1449 19.9141 57.265 19.9141C57.4951 19.9141 57.6427 20.0216 57.7078 20.2367L58.5094 22.9006L58.5345 22.9029L59.3311 20.2304C59.3962 20.0189 59.5424 19.914 59.7727 19.914C59.8926 19.914 59.9965 19.9514 60.0865 20.0264C60.1766 20.1015 60.2315 20.1991 60.2517 20.3179L60.7694 23.7108C60.7747 23.731 60.7718 23.7659 60.762 23.816C60.7369 24.001 60.6368 24.0937 60.4641 24.0937C60.2503 24.0937 60.1316 23.991 60.1053 23.7872L59.7301 20.9207L59.7188 20.9195L58.8334 23.8611C58.7884 24.0163 58.6833 24.0938 58.5182 24.0938ZM63.0693 23.501C63.4746 23.501 63.8561 23.3634 64.2124 23.0869C64.3124 23.0082 64.3975 22.9681 64.4675 22.9681C64.6489 22.9681 64.739 23.0633 64.739 23.2532C64.739 23.3133 64.6939 23.3933 64.6039 23.4933C64.4287 23.6835 64.1936 23.8336 63.8985 23.9437C63.6283 24.0437 63.3532 24.0938 63.0731 24.0938C62.4827 24.0938 62.0176 23.8812 61.6774 23.457C61.3572 23.0619 61.197 22.5655 61.197 21.9663C61.197 21.3974 61.3648 20.9184 61.6998 20.5282C62.0551 20.1192 62.5127 19.9141 63.0731 19.9141C63.5734 19.9141 63.991 20.1054 64.3262 20.4894C64.6413 20.8596 64.7989 21.2973 64.7989 21.8063C64.7989 22.1102 64.6513 22.2628 64.355 22.2628H61.8649C61.8649 22.6004 61.9813 22.8919 62.2151 23.1358C62.4476 23.3796 62.7329 23.501 63.0693 23.501ZM61.8649 21.7526H64.1311C64.1311 21.4062 64.0461 21.1197 63.8747 20.8921C63.6833 20.6357 63.4158 20.5069 63.0731 20.5069C62.7317 20.5069 62.444 20.6295 62.2126 20.8732C61.9813 21.1185 61.8649 21.4111 61.8649 21.7526ZM66.1495 22.9393L68.2906 20.1492C68.4157 19.9928 68.542 19.9141 68.6721 19.9141C68.881 19.9141 68.9861 20.0166 68.9861 20.2217V23.7785C68.9861 23.8635 68.9523 23.9374 68.8848 24C68.8172 24.0625 68.741 24.0938 68.6558 24.0938C68.5658 24.0938 68.4858 24.065 68.4157 24.0074C68.3457 23.9499 68.3107 23.8786 68.3107 23.7936V21.0847L66.1346 23.9211C66.0446 24.0362 65.9344 24.0938 65.8045 24.0938C65.5844 24.0938 65.4742 23.9886 65.4742 23.7785V20.2442C65.4742 20.1492 65.5068 20.0703 65.5718 20.0079C65.6368 19.9454 65.7168 19.9141 65.812 19.9141C65.907 19.9141 65.987 19.9454 66.0521 20.0079C66.1171 20.0703 66.1495 20.1492 66.1495 20.2442V22.9393ZM66.1946 18.8559C66.1946 18.6958 66.2847 18.6159 66.4649 18.6159C66.5548 18.6159 66.6761 18.6909 66.8287 18.8409C66.9813 18.991 67.1151 19.066 67.2302 19.066C67.3453 19.066 67.4803 18.991 67.6353 18.8409C67.7905 18.6909 67.9104 18.6159 67.9955 18.6159C68.1757 18.6159 68.2657 18.6958 68.2657 18.8559C68.2657 19.0561 68.1405 19.2362 67.8905 19.3963C67.6654 19.5364 67.4453 19.6064 67.2302 19.6064C67.015 19.6064 66.7949 19.5364 66.5699 19.3963C66.3198 19.2362 66.1946 19.0561 66.1946 18.8559ZM72.5955 22.1651H70.5543V23.7497C70.5543 23.9786 70.4406 24.0938 70.213 24.0938C70.1241 24.0938 70.0479 24.0587 69.9828 23.9886C69.9191 23.9186 69.8865 23.8385 69.8865 23.7486V20.273C69.8865 20.1741 69.9166 20.0891 69.9754 20.019C70.0354 19.949 70.1141 19.9141 70.213 19.9141C70.4406 19.9141 70.5543 20.029 70.5543 20.258V21.5724H72.5955V20.273C72.5955 20.1729 72.6254 20.088 72.6843 20.019C72.7442 19.949 72.8231 19.9141 72.9218 19.9141C73.1495 19.9141 73.2633 20.029 73.2633 20.2592V23.7486C73.2633 23.9786 73.1495 24.0938 72.9218 24.0938C72.833 24.0938 72.7569 24.0587 72.6918 23.9886C72.6279 23.9199 72.5955 23.8399 72.5955 23.7497V22.1651ZM74.6665 22.0413C74.6665 22.4091 74.7515 22.7318 74.9229 23.0093C75.123 23.3371 75.3994 23.501 75.7508 23.501C76.1523 23.501 76.4537 23.3446 76.6537 23.032C76.8251 22.7731 76.9101 22.4328 76.9101 22.0114C76.9101 21.5986 76.8276 21.2585 76.6614 20.9908C76.4612 20.6683 76.1672 20.5069 75.7809 20.5069C75.4044 20.5069 75.1155 20.6758 74.9154 21.0133C74.749 21.296 74.6665 21.6388 74.6665 22.0413ZM76.9252 20.4618C76.9252 20.2154 76.9577 20.0617 77.0227 20.0029C77.0878 19.944 77.1603 19.9141 77.2404 19.9141C77.4505 19.9141 77.5554 20.029 77.5554 20.2592V23.7486C77.5554 23.9786 77.4492 24.0938 77.2365 24.0938C77.1503 24.0938 77.0778 24.0662 77.0164 24.0111C76.9552 23.9562 76.9203 23.8736 76.9101 23.7635C76.9203 23.8086 76.9252 23.7135 76.9252 23.4783C76.6287 23.8887 76.2561 24.0938 75.8084 24.0938C75.4069 24.0938 75.048 23.9661 74.734 23.7123C74.4201 23.457 74.205 23.132 74.0887 22.738C74.0287 22.5279 73.9986 22.2815 73.9986 21.9964C73.9986 21.6612 74.0488 21.3649 74.1499 21.1047C74.295 20.7508 74.504 20.4681 74.7753 20.2592C75.0617 20.029 75.3919 19.9141 75.7633 19.9141C76.2212 19.9141 76.6088 20.0966 76.9252 20.4618ZM80.6846 19.9515C80.8896 19.9515 80.9923 20.0617 80.9923 20.2818V23.7336C80.9923 23.8336 80.9622 23.9186 80.9034 23.9886C80.8434 24.0587 80.7647 24.0938 80.6659 24.0938C80.567 24.0938 80.4857 24.0612 80.4208 23.9961C80.3569 23.931 80.3245 23.8485 80.3245 23.7486V22.4354H79.9191L78.8086 23.8762C78.6986 24.0213 78.586 24.0938 78.471 24.0938C78.3908 24.0938 78.3196 24.07 78.2571 24.0224C78.1945 23.9748 78.1632 23.9136 78.1632 23.8399C78.1632 23.7247 78.2121 23.6047 78.3083 23.4797L79.1513 22.3741C78.5622 22.1939 78.2684 21.7988 78.2684 21.1885C78.2684 20.3643 78.7036 19.9515 79.5741 19.9515H80.6846ZM80.3245 21.8425V20.5144H79.7253C79.1987 20.5144 78.9362 20.7383 78.9362 21.1861C78.9362 21.6237 79.1987 21.8425 79.7253 21.8425H80.3245Z" fill="#4285F4"></path> <path fill-rule="evenodd" clip-rule="evenodd" d="M37.1334 33.5052C36.2728 33.5052 35.5867 33.2182 35.0755 32.6444C34.5852 32.0966 34.34 31.3872 34.34 30.5161C34.34 29.6657 34.593 28.9563 35.099 28.3876C35.6206 27.7981 36.304 27.5035 37.1491 27.5035C37.4517 27.5035 37.7386 27.5452 38.0097 27.6286C38.3488 27.7329 38.5914 27.8817 38.7375 28.0747C38.821 28.1841 38.8628 28.2965 38.8628 28.4111C38.8628 28.5625 38.808 28.6967 38.6984 28.814C38.5889 28.9315 38.4585 28.9902 38.3073 28.9902C38.1663 28.9902 37.9967 28.9511 37.7986 28.8728C37.6003 28.7946 37.3865 28.7555 37.1569 28.7555C36.6874 28.7555 36.3275 28.9431 36.0771 29.3188C35.858 29.6422 35.7484 30.0517 35.7484 30.5474C35.7484 31.0325 35.8658 31.4289 36.1006 31.7368C36.3562 32.081 36.7213 32.2532 37.196 32.2532C37.4047 32.2532 37.6369 32.2061 37.8925 32.1123C38.148 32.0185 38.3202 31.9713 38.4089 31.9713C38.555 31.9713 38.6789 32.0301 38.7806 32.1475C38.8822 32.2649 38.9332 32.3966 38.9332 32.5427C38.9332 32.6678 38.8914 32.7878 38.808 32.9026C38.5159 33.3042 37.9577 33.5052 37.1334 33.5052ZM42.4358 8.36193L37.265 15.1992C36.784 15.8291 36.2344 16.144 35.6159 16.144C34.7569 16.144 34.3275 15.5772 34.3275 14.4461V5.33556C34.3275 3.98707 34.8027 3.31126 35.7534 3.31126C36.7039 3.31126 37.1792 3.98707 37.1792 5.33837V11.2108L42.4532 4.23899C42.9227 3.62053 43.4266 3.31126 43.9648 3.31126C44.8466 3.31126 45.2877 3.95262 45.2877 5.23255V14.1197C45.2877 15.4683 44.8123 16.144 43.8617 16.144C42.9112 16.144 42.4358 15.4712 42.4358 14.1225V8.36193ZM50.3727 10.9216V14.1169C50.3727 15.4683 49.8973 16.144 48.9468 16.144C47.9961 16.144 47.5209 15.4683 47.5209 14.1197V5.33556C47.5209 3.98707 47.9961 3.31126 48.9468 3.31126C49.8973 3.31126 50.3727 3.98707 50.3727 5.33837V8.2932H55.6293V5.33837C55.6293 3.98707 56.1047 3.31126 57.0552 3.31126C58.0058 3.31126 58.4812 3.98707 58.4812 5.33556V14.1197C58.4812 15.4683 58.0058 16.144 57.0552 16.144C56.1047 16.144 55.6293 15.4683 55.6293 14.1169V10.9216H50.3727ZM63.5661 10.0798V13.3781H64.803C66.1085 13.3781 66.7614 12.8341 66.7614 11.7462C66.7614 10.6353 66.1085 10.0798 64.803 10.0798H63.5661ZM63.5661 7.48581H65.4901C66.853 7.48581 67.921 7.85517 68.694 8.59383C69.467 9.33255 69.8536 10.3834 69.8536 11.7462C69.8536 13.0976 69.4241 14.1569 68.5652 14.9243C67.7405 15.6459 66.6411 16.0066 65.2669 16.0066H62.69C61.9455 16.0066 61.4302 15.8577 61.1439 15.5598C60.8575 15.2622 60.7144 14.7411 60.7144 13.9966V5.47578C60.7144 4.73142 60.8575 4.21033 61.1439 3.91252C61.4302 3.61471 61.9455 3.46599 62.69 3.46599H67.1565C68.5193 3.46599 69.2008 3.91253 69.2008 4.80579C69.2008 5.68778 68.5193 6.12863 67.1565 6.12863H63.5661V7.48581ZM79.5081 8.36193L74.3373 15.1992C73.8563 15.8291 73.3066 16.144 72.6882 16.144C71.8292 16.144 71.3998 15.5772 71.3998 14.4461V5.33556C71.3998 3.98707 71.875 3.31126 72.8256 3.31126C73.7762 3.31126 74.2514 3.98707 74.2514 5.33837V11.2108L79.5254 4.23899C79.9949 3.62053 80.4989 3.31126 81.0371 3.31126C81.9189 3.31126 82.36 3.95262 82.36 5.23255V14.1197C82.36 15.4683 81.8846 16.144 80.934 16.144C79.9834 16.144 79.5081 15.4712 79.5081 14.1225V8.36193ZM83.9919 9.74482C83.9919 7.86943 84.5187 6.34345 85.5724 5.16382C86.6603 3.92967 88.1321 3.31126 89.9873 3.31126C91.8542 3.31126 93.3315 3.92403 94.4196 5.14656C95.4733 6.32613 96 7.85799 96 9.74482C96 11.6203 95.4733 13.1462 94.4196 14.3259C93.3202 15.5371 91.8427 16.144 89.9873 16.144C88.1321 16.144 86.6603 15.5313 85.5724 14.3087C84.5187 13.1406 83.9919 11.6203 83.9919 9.74482ZM87.0154 9.77909C87.0154 10.807 87.2501 11.6575 87.7198 12.3332C88.2465 13.1205 89.0024 13.5156 89.9873 13.5156C90.9723 13.5156 91.7339 13.1263 92.2722 12.3503C92.7417 11.6632 92.9764 10.807 92.9764 9.77909C92.9764 8.71697 92.7531 7.84084 92.3066 7.15653C91.7682 6.34627 90.9952 5.93963 89.9873 5.93963C88.9795 5.93963 88.2122 6.34627 87.6853 7.15653C87.2388 7.84084 87.0154 8.71697 87.0154 9.77909ZM40.4043 28.865C39.9347 28.865 39.6425 28.852 39.5279 28.8259C39.1784 28.7528 39.0036 28.565 39.0036 28.2625C39.0036 27.8555 39.3115 27.6521 39.9269 27.6521H42.1883C42.8039 27.6521 43.1117 27.8555 43.1117 28.2625C43.1117 28.565 42.937 28.7528 42.5875 28.8259C42.4727 28.852 42.1804 28.865 41.711 28.865V32.5047C41.711 33.119 41.4945 33.4268 41.0616 33.4268C40.6234 33.4268 40.4043 33.119 40.4043 32.5047V28.865ZM43.0647 30.5121C43.0647 29.6579 43.3047 28.9628 43.7847 28.4255C44.2801 27.8634 44.9504 27.5817 45.7956 27.5817C46.6458 27.5817 47.3188 27.8609 47.8145 28.4177C48.2943 28.9549 48.5344 29.6528 48.5344 30.5121C48.5344 31.3663 48.2943 32.0614 47.8145 32.5988C47.3137 33.1503 46.6406 33.4268 45.7956 33.4268C44.9504 33.4268 44.2801 33.1478 43.7847 32.591C43.3047 32.0588 43.0647 31.3663 43.0647 30.5121ZM44.4419 30.5277C44.4419 30.9959 44.5488 31.3832 44.7628 31.691C45.0027 32.0497 45.3469 32.2298 45.7956 32.2298C46.2442 32.2298 46.5911 32.0522 46.8363 31.6988C47.0501 31.3859 47.1571 30.9959 47.1571 30.5277C47.1571 30.0439 47.0555 29.6449 46.852 29.3331C46.6067 28.9641 46.2547 28.7789 45.7956 28.7789C45.3366 28.7789 44.9871 28.9641 44.7471 29.3331C44.5436 29.6449 44.4419 30.0439 44.4419 30.5277ZM52.2655 31.5568H52.2982L53.0507 28.3485C53.1027 28.1242 53.2137 27.9404 53.3832 27.7968C53.5528 27.6534 53.7522 27.5817 53.9817 27.5817C54.2412 27.5817 54.4657 27.6652 54.6534 27.8321C54.8412 27.9989 54.956 28.2129 54.9978 28.4738L55.6237 32.3705C55.6549 32.5621 55.6706 32.7069 55.6706 32.8061C55.6706 33.2195 55.4762 33.4268 55.0864 33.4268C54.8568 33.4268 54.6913 33.3395 54.587 33.1635C54.5151 33.0487 54.4579 32.8608 54.4161 32.5961L53.9218 29.474L53.9021 29.4752L53.1666 32.3625C53.0884 32.6573 52.9997 32.8698 52.9006 32.9989C52.7545 33.1802 52.5485 33.2702 52.2825 33.2702C52.0165 33.2702 51.8103 33.1802 51.6643 32.9989C51.5652 32.8751 51.4765 32.6625 51.3982 32.3625L50.6548 29.4752H50.6432L50.1567 32.5972C50.1149 32.8659 50.0575 33.0576 49.9845 33.1711C49.875 33.3419 49.7042 33.4266 49.4747 33.4266C49.0821 33.4266 48.8864 33.2193 48.8864 32.8059C48.8864 32.7433 48.9047 32.5986 48.9414 32.3703L49.5672 28.4736C49.609 28.2128 49.7225 27.9988 49.9076 27.8319C50.0915 27.665 50.3146 27.5815 50.5753 27.5815C50.8087 27.5815 51.0083 27.6519 51.1726 27.7928C51.3356 27.9335 51.4464 28.1189 51.5038 28.3497L52.2655 31.5568ZM58.3311 27.5739C58.7954 27.5739 59.1162 27.8243 59.2936 28.3237L60.7334 32.4266C60.7959 32.6039 60.8272 32.7395 60.8272 32.8335C60.8272 33.0096 60.7647 33.153 60.6394 33.2626C60.5143 33.3721 60.3628 33.4268 60.1855 33.4268C59.8569 33.4268 59.6275 33.2222 59.4971 32.8125L59.2858 32.1435H57.2669L57.0322 32.8597C56.9069 33.2378 56.6983 33.4268 56.4061 33.4268C56.2236 33.4268 56.0749 33.3708 55.9602 33.2586C55.8454 33.1465 55.788 32.9991 55.788 32.8179C55.788 32.6821 55.8089 32.557 55.8506 32.4422L57.3373 28.4177C57.546 27.8555 57.8772 27.5739 58.3311 27.5739ZM58.292 28.9902L57.6425 30.9934H58.9336L58.3076 28.9902H58.292ZM61.6801 28.865C61.2106 28.865 60.9184 28.852 60.8038 28.8259C60.4543 28.7528 60.2795 28.565 60.2795 28.2625C60.2795 27.8555 60.5873 27.6521 61.2027 27.6521H63.4641C64.0797 27.6521 64.3876 27.8555 64.3876 28.2625C64.3876 28.565 64.2128 28.7528 63.8633 28.8259C63.7485 28.852 63.4563 28.865 62.9868 28.865V32.5047C62.9868 33.119 62.7704 33.4268 62.3374 33.4268C61.8992 33.4268 61.6801 33.119 61.6801 32.5047V28.865ZM64.3406 30.5121C64.3406 29.6579 64.5805 28.9628 65.0605 28.4255C65.556 27.8634 66.2263 27.5817 67.0715 27.5817C67.9217 27.5817 68.5947 27.8609 69.0903 28.4177C69.5702 28.9549 69.8102 29.6528 69.8102 30.5121C69.8102 31.3663 69.5702 32.0614 69.0903 32.5988C68.5895 33.1503 67.9165 33.4268 67.0715 33.4268C66.2263 33.4268 65.556 33.1478 65.0605 32.591C64.5805 32.0588 64.3406 31.3663 64.3406 30.5121ZM65.7177 30.5277C65.7177 30.9959 65.8247 31.3832 66.0387 31.691C66.2786 32.0497 66.6228 32.2298 67.0715 32.2298C67.52 32.2298 67.8669 32.0522 68.1122 31.6988C68.326 31.3859 68.433 30.9959 68.433 30.5277C68.433 30.0439 68.3313 29.6449 68.1278 29.3331C67.8826 28.9641 67.5305 28.7789 67.0715 28.7789C66.6124 28.7789 66.2629 28.9641 66.023 29.3331C65.8195 29.6449 65.7177 30.0439 65.7177 30.5277ZM73.7148 28.732H72.322C72.129 28.732 72.0325 28.8493 72.0325 29.0841V32.27C72.0325 33.0408 71.649 33.4268 70.8822 33.4268C70.1937 33.4268 69.8493 33.226 69.8493 32.8257C69.8493 32.5856 69.9145 32.4266 70.045 32.3484C70.1231 32.3014 70.2614 32.2753 70.4598 32.27C70.6371 32.2647 70.7517 32.2362 70.804 32.184C70.8563 32.1319 70.8822 32.0171 70.8822 31.8411V29.0814C70.8822 28.5245 70.984 28.1348 71.1873 27.9143C71.3908 27.6925 71.7689 27.5817 72.322 27.5817H74.3642C74.7972 27.5817 75.0138 27.8895 75.0138 28.5038V32.5047C75.0138 33.119 74.7972 33.4268 74.3642 33.4268C74.0931 33.4268 73.9104 33.3357 73.8165 33.153C73.7487 33.0225 73.7148 32.8074 73.7148 32.5047V28.732ZM75.7493 30.5121C75.7493 29.6579 75.9893 28.9628 76.4693 28.4255C76.9648 27.8634 77.635 27.5817 78.4802 27.5817C79.3304 27.5817 80.0034 27.8609 80.499 28.4177C80.9789 28.9549 81.2189 29.6528 81.2189 30.5121C81.2189 31.3663 80.9789 32.0614 80.499 32.5988C79.9983 33.1503 79.3253 33.4268 78.4802 33.4268C77.635 33.4268 76.9648 33.1478 76.4693 32.591C75.9893 32.0588 75.7493 31.3663 75.7493 30.5121ZM77.1264 30.5277C77.1264 30.9959 77.2335 31.3832 77.4474 31.691C77.6873 32.0497 78.0315 32.2298 78.4802 32.2298C78.9288 32.2298 79.2757 32.0522 79.5209 31.6988C79.7347 31.3859 79.8417 30.9959 79.8417 30.5277C79.8417 30.0439 79.74 29.6449 79.5366 29.3331C79.2913 28.9641 78.9393 28.7789 78.4802 28.7789C78.0212 28.7789 77.6716 28.9641 77.4317 29.3331C77.2283 29.6449 77.1264 30.0439 77.1264 30.5277ZM81.9623 32.5047V28.5663C81.9623 28.2273 82.0276 27.9911 82.158 27.8555C82.2885 27.72 82.5232 27.6521 82.8622 27.6521H84.3254C84.9409 27.6521 85.2487 27.8555 85.2487 28.2625C85.2487 28.6641 84.9409 28.865 84.3254 28.865H83.2612V32.5047C83.2612 33.119 83.0448 33.4268 82.6119 33.4268C82.1788 33.4268 81.9623 33.119 81.9623 32.5047ZM89.5446 29.8822L87.1892 32.9966C86.9701 33.2834 86.7197 33.4268 86.438 33.4268C86.0469 33.4268 85.8512 33.1686 85.8512 32.6535V28.5038C85.8512 27.8895 86.0677 27.5817 86.5007 27.5817C86.9337 27.5817 87.1501 27.8895 87.1501 28.505V31.1799L89.5524 28.0043C89.7662 27.7226 89.9958 27.5817 90.2409 27.5817C90.6427 27.5817 90.8435 27.8739 90.8435 28.4568V32.5047C90.8435 33.119 90.627 33.4268 90.194 33.4268C89.7611 33.4268 89.5446 33.1204 89.5446 32.5061V29.8822ZM94.6698 30.2422V28.8493H94.0517C93.5092 28.8493 93.2378 29.0763 93.2378 29.5301C93.2378 30.0048 93.5144 30.2422 94.0674 30.2422H94.6698ZM95.9687 28.5663V32.5047C95.9687 33.119 95.7522 33.4268 95.3193 33.4268C94.8862 33.4268 94.6698 33.1204 94.6698 32.5061V31.1029L93.1518 33.0056C92.9275 33.2861 92.6979 33.4268 92.4631 33.4268C92.2911 33.4268 92.1437 33.3734 92.0211 33.2664C91.8985 33.1595 91.8372 33.0225 91.8372 32.857C91.8372 32.6484 91.965 32.4004 92.2205 32.1136L93.2457 30.9738C92.8283 30.9059 92.4971 30.7364 92.252 30.4651C92.0068 30.194 91.8842 29.8509 91.8842 29.4336C91.8842 28.908 92.0707 28.4789 92.4437 28.1477C92.8167 27.8178 93.3553 27.6521 94.0596 27.6521H95.069C95.4131 27.6521 95.6493 27.7186 95.7771 27.8517C95.9048 27.9847 95.9687 28.2221 95.9687 28.5663Z" fill="#005DA9"></path> </svg> 