<?xml version="1.0" encoding="UTF-8"?> <svg xmlns="http://www.w3.org/2000/svg" width="40" height="40" viewBox="0 0 40 40" fill="none"><path d="M18.9297 0.579743C19.4355 -0.193248 20.5645 -0.193247 21.0703 0.579744L22.3444 2.52648C22.7434 3.13622 23.5672 3.29084 24.1587 2.867L26.0471 1.51379C26.797 0.976477 27.8496 1.38592 28.0432 2.29019L28.5308 4.56754C28.6835 5.28083 29.3961 5.7238 30.1001 5.5431L32.3479 4.96619C33.2404 4.73711 34.0747 5.5007 33.9299 6.41412L33.5651 8.71452C33.4509 9.43503 33.9559 10.1065 34.6774 10.1934L36.981 10.4707C37.8957 10.5808 38.3989 11.5954 37.9352 12.3946L36.7674 14.4073C36.4016 15.0378 36.6309 15.8471 37.2725 16.1898L39.3207 17.2838C40.134 17.7182 40.2382 18.8468 39.5182 19.4239L37.7051 20.8772C37.1372 21.3323 37.0599 22.1702 37.5348 22.7224L39.0511 24.4855C39.6532 25.1855 39.3442 26.2757 38.4653 26.5527L36.2517 27.2502C35.5583 27.4687 35.1848 28.2219 35.4289 28.9091L36.2085 31.103C36.518 31.9742 35.8377 32.8787 34.9185 32.8181L32.6034 32.6657C31.8782 32.618 31.2589 33.1849 31.2393 33.9142L31.1769 36.2427C31.1521 37.1673 30.1922 37.764 29.3568 37.3741L27.2529 36.3924C26.5939 36.0849 25.8124 36.3888 25.5318 37.0618L24.6357 39.2104C24.2799 40.0636 23.1702 40.2719 22.5315 39.6054L20.9229 37.9268C20.419 37.4011 19.581 37.4011 19.0771 37.9268L17.4685 39.6054C16.8298 40.2719 15.7201 40.0636 15.3643 39.2104L14.4682 37.0618C14.1876 36.3888 13.4061 36.0849 12.7471 36.3924L10.6432 37.3742C9.80777 37.764 8.84795 37.1673 8.82315 36.2427L8.76069 33.9142C8.74112 33.1849 8.12177 32.618 7.39665 32.6657L5.08155 32.8181C4.16229 32.8787 3.48197 31.9742 3.79151 31.103L4.57107 28.9091C4.81524 28.2219 4.44167 27.4687 3.74834 27.2502L1.53474 26.5527C0.655779 26.2757 0.346837 25.1855 0.948915 24.4855L2.46522 22.7224C2.94014 22.1702 2.86281 21.3323 2.29491 20.8772L0.481761 19.4239C-0.238186 18.8468 -0.134024 17.7182 0.679276 17.2838L2.72753 16.1898C3.36906 15.8471 3.59842 15.0378 3.23265 14.4073L2.06483 12.3946C1.60113 11.5954 2.10433 10.5808 3.01901 10.4707L5.32259 10.1934C6.04409 10.1065 6.54916 9.43503 6.43491 8.71452L6.07015 6.41412C5.92531 5.5007 6.75959 4.73711 7.65212 4.96619L9.89991 5.5431C10.6039 5.7238 11.3165 5.28083 11.4692 4.56754L11.9568 2.29019C12.1504 1.38592 13.203 0.976476 13.9529 1.51379L15.8413 2.867C16.4328 3.29084 17.2566 3.13622 17.6556 2.52648L18.9297 0.579743Z" fill="#E7B047"></path><path d="M22.4815 24.8546C21.8082 24.8518 21.233 24.6742 20.7557 24.322C20.2784 23.9697 19.9134 23.4569 19.6605 22.7836C19.4077 22.1103 19.2812 21.2992 19.2812 20.3504C19.2812 19.4044 19.4077 18.5961 19.6605 17.9257C19.9162 17.2552 20.2827 16.7438 20.7599 16.3916C21.2401 16.0393 21.8139 15.8632 22.4815 15.8632C23.1491 15.8632 23.7216 16.0407 24.1989 16.3958C24.6761 16.7481 25.0412 17.2595 25.294 17.9299C25.5497 18.5975 25.6776 19.4044 25.6776 20.3504C25.6776 21.3021 25.5511 22.1146 25.2983 22.7879C25.0455 23.4583 24.6804 23.9711 24.2031 24.3262C23.7259 24.6785 23.152 24.8546 22.4815 24.8546ZM22.4815 23.7169C23.0724 23.7169 23.5341 23.4285 23.8665 22.8518C24.2017 22.2751 24.3693 21.4413 24.3693 20.3504C24.3693 19.6259 24.2926 19.0137 24.1392 18.5137C23.9886 18.0109 23.7713 17.6302 23.4872 17.3717C23.206 17.1103 22.8707 16.9796 22.4815 16.9796C21.8935 16.9796 21.4318 17.2694 21.0966 17.849C20.7614 18.4285 20.5923 19.2623 20.5895 20.3504C20.5895 21.0776 20.6648 21.6927 20.8153 22.1955C20.9687 22.6955 21.1861 23.0748 21.4673 23.3333C21.7486 23.589 22.0866 23.7169 22.4815 23.7169Z" fill="white"></path><path d="M17.802 15.9824V24.7097H16.481V17.3034H16.4299L14.3418 18.6671V17.4057L16.5194 15.9824H17.802Z" fill="white"></path></svg> 