<?xml version="1.0" encoding="UTF-8"?> <svg xmlns="http://www.w3.org/2000/svg" width="160" height="15" viewBox="0 0 160 15" fill="none"> <path fill-rule="evenodd" clip-rule="evenodd" d="M34.5745 0.0496653C32.8731 0.181359 31.3998 0.704886 30.7114 1.42239C29.978 2.18676 29.7984 3.56881 29.8686 7.90602C29.9209 11.1379 29.9838 11.5592 30.5178 12.2593C31.5535 13.6171 34.4616 14.3816 37.4961 14.0936C40.2378 13.8334 41.6414 13.2353 42.1363 12.1165C42.427 11.4596 42.5569 9.24959 42.501 5.91383C42.4632 3.66297 42.42 3.02767 42.2731 2.56874C41.9097 1.43277 41.3435 0.828401 40.299 0.461209C39.2725 0.100414 36.4966 -0.0991197 34.5745 0.0496653ZM4.62151 0.139209C3.50368 0.246473 2.77591 0.425245 1.95166 0.795163C0.852919 1.28828 0.406249 1.84064 0.186375 2.97797C0.0193455 3.84269 -0.0435656 6.75023 0.031089 10.1603L0.0976701 13.201L0.437286 13.5418C0.724266 13.8297 0.853339 13.8826 1.26971 13.8826C1.69037 13.8826 1.81473 13.8304 2.11901 13.5261L2.4755 13.1696V8.58766C2.4755 3.47151 2.47037 3.51083 3.18808 3.10746C3.82222 2.75107 4.80437 2.63941 6.90152 2.68512C9.02928 2.73157 9.48811 2.84093 9.97284 3.41699L10.2346 3.72798V8.33864C10.2346 13.3969 10.235 13.4002 10.8602 13.7235C11.5705 14.0908 12.44 13.7754 12.6483 13.075C12.7311 12.7962 12.7551 11.2614 12.7285 7.95844C12.6914 3.37316 12.6836 3.21976 12.4502 2.51904C11.9992 1.16466 11.0048 0.480502 9.16569 0.259264C7.89919 0.106809 5.5938 0.0458907 4.62151 0.139209ZM15.6118 0.111738C15.3139 0.174439 14.8492 0.724388 14.8442 1.02007C14.8421 1.14537 14.8349 3.87498 14.8283 7.08576C14.8152 13.4139 14.8173 13.4383 15.3818 13.7302C15.9543 14.0262 16.8971 13.8403 17.1148 13.3884C17.1645 13.2853 17.2292 12.3282 17.2586 11.2613L17.3121 9.32152L20.877 9.25913C24.6184 9.1937 25.0911 9.13792 26.0489 8.64931C26.707 8.31358 27.2819 7.5967 27.5408 6.78924C27.857 5.80248 27.953 3.3869 27.7092 2.54829C27.3628 1.35675 26.6369 0.652355 25.3818 0.289881C24.8405 0.133652 24.158 0.106285 20.3004 0.0861538C17.8494 0.0733618 15.7396 0.0847906 15.6118 0.111738ZM24.607 2.66384C24.8132 2.72109 25.0817 2.87417 25.2037 3.00408C25.6997 3.53201 25.7529 5.25683 25.2941 5.93752C25.171 6.12007 24.9055 6.36637 24.7038 6.48485C24.3536 6.69057 24.179 6.70022 20.8246 6.70022H17.3121L17.2834 4.76381C17.2676 3.69883 17.278 2.76691 17.3063 2.69298C17.3469 2.5874 18.0956 2.55867 20.7951 2.55919C22.7467 2.55951 24.3943 2.6047 24.607 2.66384ZM38.3592 2.65817C39.1627 2.78987 39.681 3.0499 39.9196 3.44142C40.1017 3.73972 40.1166 4.02261 40.117 7.15633L40.1174 10.5483L39.7703 10.8953C39.2288 11.4369 38.7866 11.5127 36.133 11.5184C33.5381 11.5239 33.2106 11.4683 32.6728 10.9305L32.3583 10.616V7.16765V3.71928L32.6781 3.35502C33.2006 2.75988 33.9737 2.59495 36.3427 2.57293C37.1212 2.56569 38.0287 2.60407 38.3592 2.65817Z" fill="#FF4A37"></path> <path fill-rule="evenodd" clip-rule="evenodd" d="M66.9357 0.0791608C64.704 0.338879 63.1913 1.17602 62.8078 2.36347C62.4265 3.5441 62.3762 10.3965 62.741 11.462C62.9888 12.186 63.3447 12.6217 64.0725 13.092C65.3064 13.8896 67.0047 14.2451 69.2948 14.1852C72.257 14.1078 74.1959 13.4395 74.7442 12.307C74.8693 12.0485 75.0145 11.5403 75.0669 11.1777C75.2067 10.2114 75.192 3.67621 75.0487 3.00034C74.7059 1.38499 73.7812 0.565674 71.9281 0.23539C70.9374 0.0588197 67.9215 -0.0355473 66.9357 0.0791608ZM106.793 0.0841937C105.753 0.216098 105.083 0.389523 104.368 0.711523C102.956 1.34756 102.561 2.02364 102.423 4.03712C102.303 5.79077 102.305 8.9789 102.427 10.3295C102.536 11.5451 102.736 12.0388 103.366 12.6499C104.486 13.7371 106.489 14.2599 109.243 14.184C111.536 14.1206 113.43 13.6186 114.171 12.8781C114.93 12.1194 114.958 11.9135 114.958 7.16307C114.958 3.10613 114.95 2.94917 114.729 2.36326C114.236 1.05942 113.349 0.449918 111.568 0.18999C110.555 0.0423579 107.634 -0.0224408 106.793 0.0841937ZM120.4 0.0810483C117.637 0.14333 117.622 0.14679 117.353 0.789953C117.14 1.29964 117.147 12.7284 117.361 13.2397C117.637 13.9019 118.354 14.1435 119.078 13.8191C119.303 13.7183 119.529 13.5479 119.581 13.4402C119.632 13.3326 119.698 12.3716 119.728 11.3047L119.781 9.36496L123.346 9.30383C126.22 9.25455 127.029 9.20894 127.517 9.06844C129.602 8.469 130.268 7.30588 130.261 4.27964C130.258 2.9519 130.227 2.68348 130.02 2.16079C129.692 1.33225 128.961 0.684576 128.03 0.397177C127.314 0.175939 124.95 -0.0339744 123.608 0.00461116C123.233 0.0154109 121.79 0.0498024 120.4 0.0810483ZM136.362 0.0879685C134.851 0.261394 133.636 0.734696 132.909 1.43312C132.616 1.71412 132.45 2.0098 132.28 2.54947C132.059 3.2501 132.049 3.45791 132.049 7.11064C132.049 10.5129 132.07 10.9972 132.236 11.4734C132.87 13.2908 135.264 14.2779 138.812 14.1852C141.536 14.114 143.378 13.5504 144.104 12.5664C144.586 11.9136 144.631 11.4415 144.631 7.05822C144.631 2.98964 144.63 2.96584 144.38 2.33988C143.885 1.10052 142.858 0.40913 141.18 0.186634C140.056 0.0377444 137.292 -0.0189805 136.362 0.0879685ZM51.9418 0.17898C51.8265 0.229309 51.6558 0.358696 51.5625 0.466379C51.4075 0.645257 50.3103 2.7078 48.1676 6.84851C47.7199 7.71354 47.0019 9.0936 46.572 9.91543L45.7904 11.4096H45.2172C44.2559 11.4096 43.7109 11.8372 43.7109 12.5915C43.7109 12.8122 43.7825 13.1311 43.87 13.3004C44.2058 13.9498 43.8776 13.926 52.5148 13.926H60.3855L60.7574 13.5851C61.6742 12.745 61.1329 11.4096 59.8756 11.4096H59.4631L57.8888 8.39508C54.7819 2.44578 53.7652 0.554245 53.5669 0.354712C53.3428 0.129175 52.3116 0.0177177 51.9418 0.17898ZM77.882 0.325144C77.6784 0.461976 77.472 0.720436 77.4005 0.928043C77.2054 1.49466 77.2123 12.6568 77.4082 13.1254C77.8578 14.2015 79.2907 14.2015 79.7403 13.1254C79.845 12.8748 79.8849 12.2582 79.8849 10.8887C79.8849 9.84875 79.9202 8.99955 79.9635 9.00144C80.0068 9.00343 81.5985 10.1089 83.5007 11.458C85.4028 12.8071 87.0778 13.9341 87.223 13.9622C87.8937 14.0925 88.6254 13.6039 88.7494 12.9428C88.8951 12.1662 88.7663 12.0425 85.1389 9.47631C83.2872 8.16629 81.7722 7.05413 81.7722 7.00485C81.7722 6.95557 81.9019 6.82545 82.0606 6.71577C82.2192 6.60609 83.7346 5.53356 85.4284 4.33227C87.9435 2.54843 88.5355 2.08204 88.6585 1.78751C88.9049 1.19793 88.6454 0.450756 88.1094 0.206556C87.7822 0.0574564 87.1731 0.0495925 86.9089 0.190933C86.8006 0.248916 85.2355 1.3399 83.431 2.61532C81.6265 3.89074 80.0904 4.95719 80.0174 4.98519C79.9136 5.02503 79.8849 4.62408 79.8849 3.13413C79.8849 0.99043 79.8059 0.645571 79.2359 0.297987C78.7806 0.0203388 78.3214 0.0295659 77.882 0.325144ZM90.6128 0.23906C89.7862 0.598493 89.7163 1.91491 90.4985 2.39188C90.8076 2.5803 91.0279 2.60127 92.7031 2.60159L94.5642 2.60201V7.79742C94.5642 13.4969 94.5583 13.4404 95.1898 13.767C95.593 13.9754 96.1832 13.9692 96.513 13.7532C97.0844 13.3788 97.0806 13.4185 97.0806 7.79742V2.60201H99.0123C100.933 2.60201 100.946 2.60043 101.264 2.33316C101.916 1.78395 101.875 0.792889 101.181 0.325354L100.824 0.0855569L95.8855 0.089646C91.9148 0.0930013 90.8813 0.122255 90.6128 0.23906ZM147.651 0.291067C146.962 0.710894 146.982 0.493641 147.014 7.17083L147.043 13.2083L147.434 13.5671C147.891 13.9853 147.262 13.9444 153.344 13.9514L157.339 13.9559L157.905 13.692C158.654 13.3429 159.321 12.6609 159.702 11.8556C159.984 11.258 160.01 11.1082 160 10.145C159.988 8.94943 159.879 8.32242 159.56 7.62106L159.338 7.13539L159.636 6.41526C159.916 5.73561 159.933 5.60675 159.936 4.12236C159.939 2.55461 159.938 2.5478 159.614 1.97289C159.072 1.01213 158.099 0.435029 156.614 0.194079C156.249 0.134837 154.177 0.0869199 151.971 0.0867102C148.203 0.0863956 147.968 0.0975099 147.651 0.291067ZM71.4803 2.82188C71.7307 2.87829 72.0516 3.00044 72.1934 3.09334C72.7359 3.4489 72.755 3.58814 72.755 7.1961C72.755 10.4309 72.7476 10.5518 72.536 10.8208C72.0403 11.4511 71.1462 11.6124 68.2987 11.585C66.4647 11.5674 66.3946 11.5587 65.8176 11.2753C65.368 11.0544 65.1962 10.9043 65.1099 10.6567C65.0375 10.4492 64.996 9.17623 64.9961 7.17366C64.9962 3.49933 65.0041 3.46295 65.8871 3.02141C66.358 2.78602 66.577 2.75352 68.0366 2.70287C69.8686 2.63923 70.815 2.67194 71.4803 2.82188ZM111.503 2.87001C111.794 2.94969 112.147 3.13801 112.289 3.28858L112.546 3.56235L112.576 6.99677C112.595 9.10524 112.566 10.5374 112.502 10.7064C112.245 11.3814 110.691 11.6777 107.828 11.5976C106.532 11.5614 106.172 11.516 105.783 11.3395C104.855 10.9186 104.896 11.0946 104.864 7.33566C104.831 3.47731 104.832 3.47081 105.731 3.02141C106.202 2.78581 106.42 2.75362 107.88 2.70382C109.861 2.63619 110.807 2.6796 111.503 2.87001ZM127.344 2.83394C127.98 3.18247 128.211 4.55959 127.824 5.69514C127.667 6.15523 127.581 6.25128 127.121 6.47985L126.596 6.74041L123.189 6.74198L119.781 6.74366L119.752 4.80725C119.737 3.74227 119.748 2.8071 119.778 2.72909C119.823 2.61281 120.48 2.5933 123.424 2.62088C126.576 2.65034 127.056 2.67645 127.344 2.83394ZM140.735 2.76631C140.956 2.7943 141.321 2.91079 141.545 3.02519C142.263 3.39154 142.272 3.44051 142.272 7.1961C142.272 10.4309 142.265 10.5518 142.053 10.8208C141.579 11.4228 140.767 11.5839 138.078 11.6094C136.074 11.6284 135.361 11.4799 134.854 10.9376L134.513 10.5738L134.513 7.29571C134.513 3.48444 134.517 3.46483 135.404 3.02141C135.874 2.78644 136.096 2.7532 137.554 2.70078C139.128 2.64416 139.894 2.65988 140.735 2.76631ZM156.899 2.82974C157.146 2.92296 157.419 3.13444 157.564 3.34541C157.778 3.65535 157.803 3.79187 157.759 4.37107C157.717 4.91242 157.655 5.0914 157.432 5.31474L157.156 5.59029L153.489 5.62153L149.821 5.65278V4.19733C149.821 3.39678 149.857 2.70612 149.9 2.66251C149.943 2.61889 151.441 2.60305 153.229 2.62738C155.787 2.66219 156.569 2.70528 156.899 2.82974ZM53.6769 5.82621C56.0696 10.4321 56.5029 11.2777 56.5029 11.3415C56.5029 11.379 54.7571 11.4096 52.6234 11.4096C50.4896 11.4096 48.7438 11.3801 48.7438 11.344C48.7438 11.2819 50.5501 7.75936 51.1566 6.63881C51.3127 6.35047 51.6873 5.63097 51.9892 5.03982C52.291 4.44866 52.5767 3.96508 52.624 3.96508C52.6713 3.96508 53.1451 4.80254 53.6769 5.82621ZM157.284 8.71656C158.03 9.22268 157.94 10.8364 157.143 11.2716C156.826 11.4447 156.479 11.462 153.334 11.462H149.874L149.844 10.1045C149.828 9.35783 149.839 8.68258 149.869 8.60394C149.915 8.4863 150.55 8.4668 153.464 8.49354C156.679 8.52321 157.029 8.54366 157.284 8.71656Z" fill="#3981F1"></path> </svg> 