<?xml version="1.0" encoding="UTF-8"?> <svg xmlns="http://www.w3.org/2000/svg" width="150" height="24" viewBox="0 0 150 24" fill="none"> <path fill-rule="evenodd" clip-rule="evenodd" d="M72.5476 19.4727C74.0305 19.4727 75.0571 19.2409 75.8556 18.6614V15.9955C75.0571 16.575 74.0305 16.9227 72.6616 16.9227C70.3803 16.9227 69.3536 15.0682 69.3536 12.2864C69.3536 9.27274 70.4943 7.76592 72.6616 7.76592C73.9164 7.76592 75.1711 8.22955 75.7415 8.57728V5.67955C75.0571 5.33182 73.9164 4.9841 72.3194 4.9841C68.213 4.9841 66.0457 7.99774 66.0457 12.1705C66.1597 16.8068 68.213 19.4727 72.5476 19.4727ZM52.3574 18.1977V15.5318C51.3308 16.2273 49.6198 16.8068 48.1369 16.8068C45.7415 16.8068 44.8289 15.6477 44.7148 13.3296H52.4715V11.5909C52.4715 6.72273 50.4183 4.9841 47.1103 4.9841C43.2319 4.9841 41.2928 7.99774 41.2928 12.1705C41.2928 17.0387 43.5742 19.3568 47.7947 19.3568C49.8479 19.4727 51.4449 18.8932 52.3574 18.1977ZM62.6236 19.125L57.8327 12.4023V19.125H54.6388V5.21591H57.8327V11.7068L62.3955 5.21591H65.7035L61.1407 11.7068L66.2738 19.125H62.6236ZM40.6084 16.575H39.1255V5.33182H29.7719V6.49092C29.7719 9.85228 29.5437 14.2568 28.403 16.575H27.3764V22.3705H30.3422V19.2409H37.5285V22.3705H40.4943V16.575H40.6084ZM22.8137 5.33182V10.7796H18.4791V5.33182H15.2852V19.2409H18.4791V13.4455H22.8137V19.2409H26.0076V5.33182H22.8137ZM47.1103 7.65001C48.7072 7.65001 49.1635 9.04092 49.1635 10.7796V11.0114H44.7148C44.8289 8.8091 45.5133 7.65001 47.1103 7.65001ZM35.9316 16.575H31.3688C32.2814 14.4887 32.5095 10.6636 32.5095 8.34546V7.88183H35.9316V16.575ZM92.7377 19.125H96.616L89.886 9.04092L95.9316 0H92.6236L86.6921 8.8091V0H83.3841V19.125H86.6921V10.2L92.7377 19.125ZM107.567 9.73637C107.567 6.37501 105.856 5.10001 102.434 5.10001C100.266 5.10001 98.5552 5.79546 97.6426 6.37501V9.15683C98.5552 8.46137 100.38 7.76592 102.091 7.76592C103.688 7.76592 104.373 8.34546 104.373 9.85228V10.6636H103.802C98.8974 10.6636 96.7301 12.2864 96.7301 15.1841C96.7301 17.9659 98.4411 19.5887 100.951 19.5887C102.89 19.5887 103.688 19.0091 104.259 18.3137H104.373C104.373 18.6614 104.487 19.125 104.601 19.4727H107.795C107.681 18.3137 107.681 17.2705 107.681 16.1114V9.73637H107.567ZM104.259 15.8796C103.802 16.4591 103.118 17.0387 101.977 17.0387C100.608 17.0387 99.924 16.2273 99.924 15.0682C99.924 13.4455 101.065 12.8659 103.802 12.8659H104.259V15.8796ZM113.156 5.33182H110.19V23.1818H113.384V17.6182C114.183 18.8932 115.437 19.4727 116.806 19.4727C120 19.4727 122.167 16.9227 122.167 12.2864C122.167 7.65001 120 5.10001 117.034 5.10001C115.551 5.10001 114.297 5.79546 113.384 7.18637L113.156 5.33182ZM115.894 16.8068C114.183 16.8068 113.27 15.4159 113.27 12.1705C113.27 8.92501 114.183 7.5341 116.008 7.5341C117.719 7.5341 118.631 8.92501 118.631 12.1705C118.745 15.4159 117.833 16.8068 115.894 16.8068ZM133.46 7.88183V5.33182H122.624V7.88183H126.388V19.125H129.582V7.88183H133.46ZM135.285 5.33182V19.2409H140.19C143.384 19.2409 145.666 17.6182 145.666 14.3727C145.666 11.2432 143.612 9.62046 140.304 9.62046H138.593V5.33182H135.285ZM146.806 5.33182V19.2409H150V5.33182H146.806ZM140.076 16.575H138.593V12.1705H140.19C141.559 12.1705 142.358 12.75 142.358 14.3727C142.358 15.9955 141.445 16.575 140.076 16.575Z" fill="#121212"></path> <path fill-rule="evenodd" clip-rule="evenodd" d="M9.23955 19.125H12.5475V0H7.75666C2.96578 0 0.456274 2.55 0.456274 6.14319C0.456274 9.04092 1.8251 10.7796 4.3346 12.6341L0 19.125H3.53612L8.327 11.8227L6.73004 10.6636C4.67681 9.38865 3.65019 8.34546 3.65019 6.02728C3.65019 3.94091 5.01902 2.66591 7.75666 2.66591H9.23955V19.125Z" fill="#FF3333"></path> </svg> 