<?xml version="1.0" encoding="UTF-8"?> <svg xmlns="http://www.w3.org/2000/svg" width="32" height="30" viewBox="0 0 32 30" fill="none"> <path d="M31.2626 15C31.2626 13.1553 30.8991 11.3953 30.2633 9.76193C30.0938 15.1348 24.403 19.2961 21.0616 22.05H29.4261C30.5958 19.9466 31.2626 17.5489 31.2626 15ZM25.2156 3.16835C22.5683 1.18881 19.2478 3.97611e-07 15.6304 3.97611e-07C6.99806 3.97611e-07 0 6.71566 0 15C0 23.2843 6.99806 30 15.6304 30C19.5849 30 23.185 28.5816 25.9362 26.2587H14.6192L14.5855 23.0684C21.4041 17.3804 25.5845 13.5333 25.5845 9.8175C25.5845 8.43648 25.0361 6.69379 22.5701 6.69379C20.617 6.69379 18.7322 7.77967 19.0738 12.3163H15.1002C14.1054 7.05636 17.087 2.87866 22.7751 2.87866C23.6551 2.87866 24.4722 2.98069 25.2156 3.16835" fill="#CCEB0C"></path> </svg> 