<?xml version="1.0" encoding="UTF-8"?> <svg xmlns="http://www.w3.org/2000/svg" width="169" height="167" viewBox="0 0 169 167" fill="none"> <line x1="6" y1="18.8" x2="101" y2="18.8" stroke="#0B75D6" stroke-opacity="0.2" stroke-width="0.4"></line> <line x1="1.74846e-08" y1="76.8" x2="169" y2="76.8" stroke="#0B75D6" stroke-opacity="0.2" stroke-width="0.4"></line> <line x1="1.74846e-08" y1="121.8" x2="127" y2="121.8" stroke="#0B75D6" stroke-opacity="0.2" stroke-width="0.4"></line> <line x1="1.74846e-08" y1="166.8" x2="132" y2="166.8" stroke="#0B75D6" stroke-opacity="0.2" stroke-width="0.4"></line> <path d="M77.7173 10V2.72727H80.5014C81.027 2.72727 81.4638 2.81013 81.8118 2.97585C82.1622 3.1392 82.4238 3.36293 82.5966 3.64702C82.7718 3.93111 82.8594 4.25308 82.8594 4.61293C82.8594 4.90885 82.8026 5.16217 82.6889 5.37287C82.5753 5.5812 82.4226 5.75047 82.2308 5.88068C82.0391 6.01089 81.8248 6.1044 81.5881 6.16122V6.23224C81.8461 6.24645 82.0935 6.32576 82.3303 6.47017C82.5694 6.61222 82.7647 6.81345 82.9162 7.07386C83.0677 7.33428 83.1435 7.64915 83.1435 8.01847C83.1435 8.39489 83.0523 8.73343 82.87 9.03409C82.6877 9.33239 82.4131 9.56795 82.0462 9.74077C81.6792 9.91359 81.2176 10 80.6612 10H77.7173ZM79.0348 8.89915H80.4517C80.9299 8.89915 81.2744 8.808 81.4851 8.62571C81.6982 8.44105 81.8047 8.20431 81.8047 7.91548C81.8047 7.70005 81.7514 7.50592 81.6449 7.3331C81.5384 7.15791 81.3868 7.0206 81.1903 6.92116C80.9938 6.81937 80.7595 6.76847 80.4872 6.76847H79.0348V8.89915ZM79.0348 5.82031H80.3381C80.5653 5.82031 80.7701 5.77888 80.9524 5.69602C81.1347 5.6108 81.2779 5.49124 81.3821 5.33736C81.4886 5.18111 81.5419 4.99645 81.5419 4.78338C81.5419 4.50166 81.4425 4.26965 81.2436 4.08736C81.0471 3.90507 80.7547 3.81392 80.3665 3.81392H79.0348V5.82031ZM85.4721 8.25994L87.6561 4.54545H88.9771V10H87.7342V6.28196L85.5574 10H84.2328V4.54545H85.4721V8.25994ZM94.0437 6.74006V7.79474H91.1388V6.74006H94.0437ZM91.5366 4.54545V10H90.2972V4.54545H91.5366ZM94.8853 4.54545V10H93.6495V4.54545H94.8853ZM95.5751 5.60014V4.54545H100.348V5.60014H98.5829V10H97.34V5.60014H95.5751Z" fill="#121212"></path> <path d="M82.0746 55L79.6811 51.8217H79.0348V55H77.7173V47.7273H79.0348V50.7173H79.3651L81.9503 47.7273H83.5732L80.7003 51.044L83.6974 55H82.0746ZM86.5144 55.1065C85.9817 55.1065 85.5201 54.9893 85.1294 54.755C84.7388 54.5206 84.4358 54.1927 84.2203 53.7713C84.0073 53.3499 83.9007 52.8575 83.9007 52.294C83.9007 51.7306 84.0073 51.237 84.2203 50.8132C84.4358 50.3894 84.7388 50.0604 85.1294 49.826C85.5201 49.5916 85.9817 49.4744 86.5144 49.4744C87.0471 49.4744 87.5087 49.5916 87.8993 49.826C88.29 50.0604 88.5918 50.3894 88.8049 50.8132C89.0203 51.237 89.128 51.7306 89.128 52.294C89.128 52.8575 89.0203 53.3499 88.8049 53.7713C88.5918 54.1927 88.29 54.5206 87.8993 54.755C87.5087 54.9893 87.0471 55.1065 86.5144 55.1065ZM86.5215 54.0767C86.8103 54.0767 87.0518 53.9974 87.2459 53.8388C87.44 53.6778 87.5845 53.4624 87.6792 53.1925C87.7762 52.9226 87.8248 52.6219 87.8248 52.2905C87.8248 51.9567 87.7762 51.6548 87.6792 51.3849C87.5845 51.1127 87.44 50.8961 87.2459 50.7351C87.0518 50.5741 86.8103 50.4936 86.5215 50.4936C86.2256 50.4936 85.9793 50.5741 85.7828 50.7351C85.5887 50.8961 85.4431 51.1127 85.3461 51.3849C85.2514 51.6548 85.204 51.9567 85.204 52.2905C85.204 52.6219 85.2514 52.9226 85.3461 53.1925C85.4431 53.4624 85.5887 53.6778 85.7828 53.8388C85.9793 53.9974 86.2256 54.0767 86.5215 54.0767ZM90.2191 57.0455V49.5455H91.4833V50.4474H91.5579C91.6242 50.3149 91.7177 50.174 91.8384 50.0249C91.9592 49.8733 92.1225 49.7443 92.3285 49.6378C92.5344 49.5289 92.7972 49.4744 93.1168 49.4744C93.5382 49.4744 93.9182 49.5821 94.2567 49.7976C94.5977 50.0107 94.8675 50.3267 95.0664 50.7457C95.2676 51.1624 95.3683 51.6738 95.3683 52.2798C95.3683 52.8788 95.27 53.3878 95.0735 53.8068C94.877 54.2259 94.6095 54.5455 94.271 54.7656C93.9324 54.9858 93.5489 55.0959 93.1204 55.0959C92.8079 55.0959 92.5487 55.0438 92.3427 54.9396C92.1367 54.8355 91.971 54.71 91.8455 54.5632C91.7224 54.4141 91.6265 54.2732 91.5579 54.1406H91.5046V57.0455H90.2191ZM91.4798 52.2727C91.4798 52.6255 91.5295 52.9344 91.6289 53.1996C91.7307 53.4647 91.8763 53.6719 92.0657 53.821C92.2575 53.9678 92.4895 54.0412 92.7617 54.0412C93.0458 54.0412 93.2837 53.9654 93.4755 53.8139C93.6673 53.66 93.8117 53.4505 93.9087 53.1854C94.0082 52.9179 94.0579 52.6136 94.0579 52.2727C94.0579 51.9342 94.0094 51.6335 93.9123 51.3707C93.8152 51.108 93.6708 50.902 93.479 50.7528C93.2873 50.6037 93.0482 50.5291 92.7617 50.5291C92.4871 50.5291 92.2539 50.6013 92.0621 50.7457C91.8704 50.8902 91.7248 51.0926 91.6254 51.353C91.5283 51.6134 91.4798 51.92 91.4798 52.2727ZM98.8484 55.1065C98.3157 55.1065 97.854 54.9893 97.4634 54.755C97.0728 54.5206 96.7698 54.1927 96.5543 53.7713C96.3413 53.3499 96.2347 52.8575 96.2347 52.294C96.2347 51.7306 96.3413 51.237 96.5543 50.8132C96.7698 50.3894 97.0728 50.0604 97.4634 49.826C97.854 49.5916 98.3157 49.4744 98.8484 49.4744C99.381 49.4744 99.8427 49.5916 100.233 49.826C100.624 50.0604 100.926 50.3894 101.139 50.8132C101.354 51.237 101.462 51.7306 101.462 52.294C101.462 52.8575 101.354 53.3499 101.139 53.7713C100.926 54.1927 100.624 54.5206 100.233 54.755C99.8427 54.9893 99.381 55.1065 98.8484 55.1065ZM98.8555 54.0767C99.1443 54.0767 99.3858 53.9974 99.5799 53.8388C99.774 53.6778 99.9184 53.4624 100.013 53.1925C100.11 52.9226 100.159 52.6219 100.159 52.2905C100.159 51.9567 100.11 51.6548 100.013 51.3849C99.9184 51.1127 99.774 50.8961 99.5799 50.7351C99.3858 50.5741 99.1443 50.4936 98.8555 50.4936C98.5595 50.4936 98.3133 50.5741 98.1168 50.7351C97.9227 50.8961 97.7771 51.1127 97.68 51.3849C97.5853 51.6548 97.538 51.9567 97.538 52.2905C97.538 52.6219 97.5853 52.9226 97.68 53.1925C97.7771 53.4624 97.9227 53.6778 98.1168 53.8388C98.3133 53.9974 98.5595 54.0767 98.8555 54.0767ZM106.3 51.7401V52.7947H103.395V51.7401H106.3ZM103.792 49.5455V55H102.553V49.5455H103.792ZM107.141 49.5455V55H105.905V49.5455H107.141ZM108.442 55V49.5455H109.727V51.7472H110.196L111.837 49.5455H113.385L111.364 52.223L113.406 55H111.851L110.356 52.9439H109.727V55H108.442ZM115.705 55.1101C115.359 55.1101 115.048 55.0485 114.771 54.9254C114.496 54.8 114.278 54.6153 114.117 54.3714C113.959 54.1276 113.879 53.8269 113.879 53.4695C113.879 53.1617 113.936 52.9072 114.05 52.706C114.164 52.5047 114.319 52.3438 114.515 52.223C114.712 52.1023 114.933 52.0111 115.179 51.9496C115.428 51.8857 115.685 51.8395 115.95 51.8111C116.269 51.7779 116.529 51.7483 116.727 51.7223C116.926 51.6939 117.071 51.6513 117.161 51.5945C117.253 51.5353 117.299 51.4441 117.299 51.321V51.2997C117.299 51.0322 117.22 50.825 117.061 50.6783C116.903 50.5315 116.674 50.4581 116.376 50.4581C116.061 50.4581 115.811 50.5268 115.627 50.6641C115.444 50.8014 115.321 50.9635 115.257 51.1506L114.057 50.9801C114.152 50.6487 114.308 50.3717 114.526 50.1491C114.744 49.9242 115.01 49.7562 115.325 49.6449C115.64 49.5312 115.988 49.4744 116.369 49.4744C116.632 49.4744 116.893 49.5052 117.154 49.5668C117.414 49.6283 117.652 49.7301 117.867 49.8722C118.083 50.0118 118.256 50.2024 118.386 50.4439C118.518 50.6854 118.585 50.9872 118.585 51.3494V55H117.349V54.2507H117.306C117.228 54.4022 117.118 54.5443 116.976 54.6768C116.836 54.8071 116.66 54.9124 116.447 54.9929C116.236 55.071 115.989 55.1101 115.705 55.1101ZM116.039 54.1655C116.297 54.1655 116.52 54.1146 116.71 54.0128C116.899 53.9086 117.045 53.7713 117.146 53.6009C117.251 53.4304 117.303 53.2446 117.303 53.0433V52.4006C117.262 52.4337 117.194 52.4645 117.097 52.4929C117.002 52.5213 116.896 52.5462 116.777 52.5675C116.659 52.5888 116.542 52.6077 116.426 52.6243C116.31 52.6409 116.209 52.6551 116.124 52.6669C115.932 52.6929 115.76 52.7356 115.609 52.7947C115.457 52.8539 115.338 52.9368 115.25 53.0433C115.163 53.1475 115.119 53.2824 115.119 53.4482C115.119 53.6849 115.205 53.8636 115.378 53.9844C115.551 54.1051 115.771 54.1655 116.039 54.1655ZM124.737 55.1065C124.193 55.1065 123.725 54.987 123.334 54.7479C122.946 54.5088 122.647 54.1785 122.436 53.7571C122.228 53.3333 122.123 52.8456 122.123 52.294C122.123 51.7401 122.23 51.2512 122.443 50.8274C122.656 50.4013 122.957 50.0698 123.345 49.8331C123.736 49.594 124.197 49.4744 124.73 49.4744C125.173 49.4744 125.564 49.5561 125.905 49.7195C126.249 49.8804 126.522 50.1089 126.726 50.4048C126.929 50.6984 127.045 51.0417 127.074 51.4347H125.845C125.795 51.1719 125.677 50.9529 125.49 50.7777C125.305 50.6001 125.058 50.5114 124.748 50.5114C124.485 50.5114 124.254 50.5824 124.055 50.7244C123.856 50.8641 123.701 51.0653 123.59 51.3281C123.481 51.5909 123.427 51.9058 123.427 52.2727C123.427 52.6444 123.481 52.964 123.59 53.2315C123.699 53.4967 123.852 53.7015 124.048 53.8459C124.247 53.9879 124.48 54.0589 124.748 54.0589C124.937 54.0589 125.106 54.0234 125.256 53.9524C125.407 53.879 125.534 53.7737 125.635 53.6364C125.737 53.4991 125.807 53.3321 125.845 53.1357H127.074C127.043 53.5215 126.929 53.8636 126.733 54.1619C126.536 54.4579 126.269 54.6899 125.93 54.858C125.592 55.0237 125.194 55.1065 124.737 55.1065ZM130.61 49.5455H131.849V53.9418H133.564V49.5455H134.804V53.9418H136.519V49.5455H137.758V55H130.61V49.5455ZM140.627 55.1101C140.281 55.1101 139.97 55.0485 139.693 54.9254C139.418 54.8 139.2 54.6153 139.039 54.3714C138.881 54.1276 138.801 53.8269 138.801 53.4695C138.801 53.1617 138.858 52.9072 138.972 52.706C139.085 52.5047 139.24 52.3438 139.437 52.223C139.633 52.1023 139.855 52.0111 140.101 51.9496C140.35 51.8857 140.606 51.8395 140.872 51.8111C141.191 51.7779 141.45 51.7483 141.649 51.7223C141.848 51.6939 141.993 51.6513 142.083 51.5945C142.175 51.5353 142.221 51.4441 142.221 51.321V51.2997C142.221 51.0322 142.142 50.825 141.983 50.6783C141.825 50.5315 141.596 50.4581 141.298 50.4581C140.983 50.4581 140.733 50.5268 140.548 50.6641C140.366 50.8014 140.243 50.9635 140.179 51.1506L138.979 50.9801C139.074 50.6487 139.23 50.3717 139.448 50.1491C139.665 49.9242 139.932 49.7562 140.247 49.6449C140.561 49.5312 140.91 49.4744 141.291 49.4744C141.553 49.4744 141.815 49.5052 142.075 49.5668C142.336 49.6283 142.574 49.7301 142.789 49.8722C143.005 50.0118 143.177 50.2024 143.308 50.4439C143.44 50.6854 143.507 50.9872 143.507 51.3494V55H142.271V54.2507H142.228C142.15 54.4022 142.04 54.5443 141.898 54.6768C141.758 54.8071 141.582 54.9124 141.369 54.9929C141.158 55.071 140.911 55.1101 140.627 55.1101ZM140.96 54.1655C141.218 54.1655 141.442 54.1146 141.632 54.0128C141.821 53.9086 141.967 53.7713 142.068 53.6009C142.173 53.4304 142.225 53.2446 142.225 53.0433V52.4006C142.184 52.4337 142.116 52.4645 142.019 52.4929C141.924 52.5213 141.817 52.5462 141.699 52.5675C141.581 52.5888 141.463 52.6077 141.347 52.6243C141.231 52.6409 141.131 52.6551 141.046 52.6669C140.854 52.6929 140.682 52.7356 140.531 52.7947C140.379 52.8539 140.26 52.9368 140.172 53.0433C140.084 53.1475 140.041 53.2824 140.041 53.4482C140.041 53.6849 140.127 53.8636 140.3 53.9844C140.473 54.1051 140.693 54.1655 140.96 54.1655ZM145.85 49.5455L146.951 51.5589L148.07 49.5455H149.43L147.786 52.2727L149.458 55H148.105L146.951 53.0362L145.808 55H144.444L146.106 52.2727L144.487 49.5455H145.85ZM150.126 50.6001V49.5455H154.899V50.6001H153.134V55H151.891V50.6001H150.126ZM158.077 55.1065C157.544 55.1065 157.083 54.9893 156.692 54.755C156.301 54.5206 155.998 54.1927 155.783 53.7713C155.57 53.3499 155.463 52.8575 155.463 52.294C155.463 51.7306 155.57 51.237 155.783 50.8132C155.998 50.3894 156.301 50.0604 156.692 49.826C157.083 49.5916 157.544 49.4744 158.077 49.4744C158.61 49.4744 159.071 49.5916 159.462 49.826C159.852 50.0604 160.154 50.3894 160.367 50.8132C160.583 51.237 160.691 51.7306 160.691 52.294C160.691 52.8575 160.583 53.3499 160.367 53.7713C160.154 54.1927 159.852 54.5206 159.462 54.755C159.071 54.9893 158.61 55.1065 158.077 55.1065ZM158.084 54.0767C158.373 54.0767 158.614 53.9974 158.808 53.8388C159.003 53.6778 159.147 53.4624 159.242 53.1925C159.339 52.9226 159.387 52.6219 159.387 52.2905C159.387 51.9567 159.339 51.6548 159.242 51.3849C159.147 51.1127 159.003 50.8961 158.808 50.7351C158.614 50.5741 158.373 50.4936 158.084 50.4936C157.788 50.4936 157.542 50.5741 157.345 50.7351C157.151 50.8961 157.006 51.1127 156.909 51.3849C156.814 51.6548 156.767 51.9567 156.767 52.2905C156.767 52.6219 156.814 52.9226 156.909 53.1925C157.006 53.4624 157.151 53.6778 157.345 53.8388C157.542 53.9974 157.788 54.0767 158.084 54.0767ZM163.021 53.2599L165.205 49.5455H166.526V55H165.283V51.282L163.106 55H161.782V49.5455H163.021V53.2599ZM164.853 47.6705H165.816C165.816 48.0848 165.665 48.4209 165.365 48.679C165.066 48.9347 164.662 49.0625 164.15 49.0625C163.644 49.0625 163.24 48.9347 162.939 48.679C162.641 48.4209 162.493 48.0848 162.495 47.6705H163.451C163.451 47.8409 163.503 47.9936 163.607 48.1286C163.713 48.2611 163.895 48.3274 164.15 48.3274C164.401 48.3274 164.58 48.2611 164.686 48.1286C164.795 47.996 164.851 47.8433 164.853 47.6705ZM77.1776 69.5838V66.9418H77.6108C77.7268 66.8518 77.8239 66.7299 77.902 66.576C77.9801 66.4197 78.044 66.2363 78.0938 66.0256C78.1458 65.8125 78.1884 65.5746 78.2216 65.3118C78.2547 65.0466 78.2843 64.7614 78.3104 64.456L78.4666 62.5455H82.4084V66.9418H83.2536V69.5838H82.0107V68H78.4418V69.5838H77.1776ZM78.9318 66.9418H81.1797V63.5824H79.5817L79.4964 64.456C79.4491 65.0336 79.3864 65.5284 79.3082 65.9403C79.2301 66.3523 79.1046 66.6861 78.9318 66.9418ZM86.5925 68.1065C86.0598 68.1065 85.5982 67.9893 85.2076 67.755C84.8169 67.5206 84.5139 67.1927 84.2985 66.7713C84.0854 66.3499 83.9789 65.8575 83.9789 65.294C83.9789 64.7306 84.0854 64.237 84.2985 63.8132C84.5139 63.3894 84.8169 63.0604 85.2076 62.826C85.5982 62.5916 86.0598 62.4744 86.5925 62.4744C87.1252 62.4744 87.5868 62.5916 87.9775 62.826C88.3681 63.0604 88.6699 63.3894 88.883 63.8132C89.0984 64.237 89.2061 64.7306 89.2061 65.294C89.2061 65.8575 89.0984 66.3499 88.883 66.7713C88.6699 67.1927 88.3681 67.5206 87.9775 67.755C87.5868 67.9893 87.1252 68.1065 86.5925 68.1065ZM86.5996 67.0767C86.8884 67.0767 87.1299 66.9974 87.324 66.8388C87.5182 66.6778 87.6626 66.4624 87.7573 66.1925C87.8543 65.9226 87.9029 65.6219 87.9029 65.2905C87.9029 64.9567 87.8543 64.6548 87.7573 64.3849C87.6626 64.1127 87.5182 63.8961 87.324 63.7351C87.1299 63.5741 86.8884 63.4936 86.5996 63.4936C86.3037 63.4936 86.0575 63.5741 85.861 63.7351C85.6668 63.8961 85.5212 64.1127 85.4242 64.3849C85.3295 64.6548 85.2821 64.9567 85.2821 65.2905C85.2821 65.6219 85.3295 65.9226 85.4242 66.1925C85.5212 66.4624 85.6668 66.6778 85.861 66.8388C86.0575 66.9974 86.3037 67.0767 86.5996 67.0767ZM92.6765 68.1065C92.132 68.1065 91.6644 67.987 91.2738 67.7479C90.8855 67.5088 90.5861 67.1785 90.3754 66.7571C90.167 66.3333 90.0629 65.8456 90.0629 65.294C90.0629 64.7401 90.1694 64.2512 90.3825 63.8274C90.5955 63.4013 90.8962 63.0698 91.2844 62.8331C91.6751 62.594 92.1367 62.4744 92.6694 62.4744C93.1121 62.4744 93.5039 62.5561 93.8448 62.7195C94.1881 62.8804 94.4615 63.1089 94.6651 63.4048C94.8687 63.6984 94.9847 64.0417 95.0131 64.4347H93.7844C93.7347 64.1719 93.6164 63.9529 93.4293 63.7777C93.2447 63.6001 92.9973 63.5114 92.6871 63.5114C92.4244 63.5114 92.1935 63.5824 91.9947 63.7244C91.7958 63.8641 91.6407 64.0653 91.5295 64.3281C91.4206 64.5909 91.3661 64.9058 91.3661 65.2727C91.3661 65.6444 91.4206 65.964 91.5295 66.2315C91.6384 66.4967 91.7911 66.7015 91.9876 66.8459C92.1864 66.9879 92.4196 67.0589 92.6871 67.0589C92.8765 67.0589 93.0458 67.0234 93.195 66.9524C93.3465 66.879 93.4731 66.7737 93.5749 66.6364C93.6767 66.4991 93.7466 66.3321 93.7844 66.1357H95.0131C94.9824 66.5215 94.8687 66.8636 94.6722 67.1619C94.4757 67.4579 94.2082 67.6899 93.8697 67.858C93.5311 68.0237 93.1334 68.1065 92.6765 68.1065ZM95.6728 63.6001V62.5455H100.445V63.6001H98.6806V68H97.4377V63.6001H95.6728ZM102.268 70.0455C102.093 70.0455 101.931 70.0313 101.782 70.0028C101.635 69.9768 101.518 69.946 101.43 69.9105L101.728 68.9091C101.915 68.9635 102.082 68.9896 102.229 68.9872C102.376 68.9848 102.505 68.9387 102.616 68.8487C102.73 68.7611 102.826 68.6143 102.904 68.4084L103.014 68.1136L101.036 62.5455H102.4L103.657 66.6648H103.713L104.974 62.5455H106.341L104.157 68.6605C104.056 68.9493 103.921 69.1967 103.752 69.4027C103.584 69.611 103.378 69.7696 103.135 69.8786C102.893 69.9898 102.604 70.0455 102.268 70.0455ZM107.231 68V62.5455H111.837V68H110.597V63.6001H108.46V68H107.231ZM114.728 68.1101C114.383 68.1101 114.071 68.0485 113.794 67.9254C113.52 67.8 113.302 67.6153 113.141 67.3714C112.982 67.1276 112.903 66.8269 112.903 66.4695C112.903 66.1617 112.96 65.9072 113.073 65.706C113.187 65.5047 113.342 65.3438 113.539 65.223C113.735 65.1023 113.956 65.0111 114.203 64.9496C114.451 64.8857 114.708 64.8395 114.973 64.8111C115.293 64.7779 115.552 64.7483 115.751 64.7223C115.95 64.6939 116.094 64.6513 116.184 64.5945C116.276 64.5353 116.323 64.4441 116.323 64.321V64.2997C116.323 64.0322 116.243 63.825 116.085 63.6783C115.926 63.5315 115.698 63.4581 115.399 63.4581C115.084 63.4581 114.835 63.5268 114.65 63.6641C114.468 63.8014 114.345 63.9635 114.281 64.1506L113.08 63.9801C113.175 63.6487 113.331 63.3717 113.549 63.1491C113.767 62.9242 114.033 62.7562 114.348 62.6449C114.663 62.5312 115.011 62.4744 115.392 62.4744C115.655 62.4744 115.917 62.5052 116.177 62.5668C116.437 62.6283 116.675 62.7301 116.891 62.8722C117.106 63.0118 117.279 63.2024 117.409 63.4439C117.542 63.6854 117.608 63.9872 117.608 64.3494V68H116.372V67.2507H116.33C116.252 67.4022 116.142 67.5443 115.999 67.6768C115.86 67.8071 115.683 67.9124 115.47 67.9929C115.26 68.071 115.012 68.1101 114.728 68.1101ZM115.062 67.1655C115.32 67.1655 115.544 67.1146 115.733 67.0128C115.923 66.9086 116.068 66.7713 116.17 66.6009C116.274 66.4304 116.326 66.2446 116.326 66.0433V65.4006C116.286 65.4337 116.217 65.4645 116.12 65.4929C116.026 65.5213 115.919 65.5462 115.801 65.5675C115.682 65.5888 115.565 65.6077 115.449 65.6243C115.333 65.6409 115.232 65.6551 115.147 65.6669C114.955 65.6929 114.784 65.7356 114.632 65.7947C114.481 65.8539 114.361 65.9368 114.274 66.0433C114.186 66.1475 114.142 66.2824 114.142 66.4482C114.142 66.6849 114.229 66.8636 114.401 66.9844C114.574 67.1051 114.794 67.1655 115.062 67.1655ZM121.381 68V62.5455H122.667V64.7472H123.135L124.776 62.5455H126.324L124.304 65.223L126.346 68H124.79L123.295 65.9439H122.667V68H121.381ZM129.555 68V62.5455H131.846C132.492 62.5455 133.002 62.6745 133.376 62.9325C133.752 63.1906 133.941 63.5504 133.941 64.0121C133.941 64.3175 133.834 64.5672 133.621 64.7614C133.41 64.9531 133.123 65.0821 132.758 65.1484C133.045 65.1721 133.296 65.2443 133.511 65.3651C133.729 65.4858 133.899 65.6444 134.022 65.8409C134.145 66.0374 134.207 66.2635 134.207 66.5192C134.207 66.8198 134.128 67.0814 133.969 67.304C133.813 67.5241 133.584 67.6958 133.284 67.8189C132.985 67.9396 132.623 68 132.197 68H129.555ZM130.759 66.9879H132.197C132.434 66.9879 132.62 66.9323 132.755 66.821C132.89 66.7074 132.957 66.5535 132.957 66.3594C132.957 66.1345 132.89 65.9581 132.755 65.8303C132.62 65.7 132.434 65.6349 132.197 65.6349H130.759V66.9879ZM130.759 64.804H131.87C132.046 64.804 132.196 64.7791 132.321 64.7294C132.447 64.6773 132.543 64.6051 132.609 64.5128C132.675 64.4181 132.708 64.3056 132.708 64.1754C132.708 63.9884 132.632 63.8416 132.478 63.7351C132.326 63.6286 132.115 63.5753 131.846 63.5753H130.759V64.804ZM136.507 66.2599L138.691 62.5455H140.012V68H138.769V64.282L136.593 68H135.268V62.5455H136.507V66.2599ZM145.079 64.7401V65.7947H142.174V64.7401H145.079ZM142.572 62.5455V68H141.332V62.5455H142.572ZM145.92 62.5455V68H144.685V62.5455H145.92ZM146.61 63.6001V62.5455H151.383V63.6001H149.618V68H148.375V63.6001H146.61ZM153.206 70.0455C153.03 70.0455 152.868 70.0313 152.719 70.0028C152.572 69.9768 152.455 69.946 152.368 69.9105L152.666 68.9091C152.853 68.9635 153.02 68.9896 153.167 68.9872C153.313 68.9848 153.442 68.9387 153.554 68.8487C153.667 68.7611 153.763 68.6143 153.841 68.4084L153.951 68.1136L151.973 62.5455H153.337L154.594 66.6648H154.651L155.912 62.5455H157.279L155.095 68.6605C154.993 68.9493 154.858 69.1967 154.69 69.4027C154.522 69.611 154.316 69.7696 154.072 69.8786C153.831 69.9898 153.542 70.0455 153.206 70.0455Z" fill="#121212"></path> <path d="M78.6513 113H77.245L79.8054 105.727H81.4318L83.9957 113H82.5895L80.647 107.219H80.5902L78.6513 113ZM78.6974 110.148H82.5327V111.207H78.6974V110.148ZM89.2683 105.528L89.7157 106.359C89.5571 106.497 89.3796 106.596 89.1831 106.658C88.9866 106.719 88.7557 106.759 88.4906 106.778C88.2278 106.795 87.9153 106.807 87.5531 106.814C87.1459 106.823 86.8133 106.9 86.5552 107.045C86.2972 107.189 86.0995 107.408 85.9622 107.702C85.8249 107.993 85.7349 108.365 85.6923 108.817H85.7527C85.9231 108.483 86.1622 108.228 86.47 108.053C86.7778 107.878 87.1388 107.79 87.5531 107.79C88.0053 107.79 88.4042 107.892 88.7498 108.096C89.0978 108.297 89.3689 108.589 89.563 108.973C89.7595 109.357 89.8578 109.821 89.8578 110.365C89.8578 110.926 89.7524 111.413 89.5417 111.825C89.331 112.234 89.0315 112.55 88.6433 112.773C88.2574 112.995 87.7993 113.107 87.269 113.107C86.7411 113.107 86.2818 112.992 85.8912 112.762C85.5029 112.53 85.2022 112.188 84.9892 111.736C84.7785 111.281 84.6731 110.721 84.6731 110.056V109.566C84.6731 108.283 84.9122 107.325 85.3904 106.693C85.8687 106.061 86.5777 105.739 87.5176 105.727C87.7969 105.723 88.0467 105.721 88.2669 105.724C88.4894 105.726 88.6835 105.715 88.8493 105.692C89.015 105.668 89.1547 105.614 89.2683 105.528ZM87.2761 112.077C87.5389 112.077 87.7662 112.009 87.9579 111.874C88.1497 111.737 88.2965 111.543 88.3983 111.292C88.5024 111.041 88.5545 110.744 88.5545 110.401C88.5545 110.062 88.5024 109.774 88.3983 109.538C88.2941 109.299 88.1461 109.116 87.9544 108.991C87.7626 108.865 87.5342 108.803 87.269 108.803C87.0701 108.803 86.8914 108.838 86.7328 108.909C86.5742 108.98 86.4392 109.084 86.3279 109.222C86.2167 109.359 86.1315 109.526 86.0723 109.722C86.0131 109.919 85.9811 110.145 85.9764 110.401C85.9764 110.914 86.0924 111.323 86.3244 111.626C86.5564 111.926 86.8736 112.077 87.2761 112.077ZM92.5211 113.11C92.1755 113.11 91.8642 113.049 91.5872 112.925C91.3126 112.8 91.0948 112.615 90.9338 112.371C90.7752 112.128 90.6958 111.827 90.6958 111.469C90.6958 111.162 90.7527 110.907 90.8663 110.706C90.9799 110.505 91.135 110.344 91.3315 110.223C91.528 110.102 91.7493 110.011 91.9956 109.95C92.2441 109.886 92.501 109.839 92.7662 109.811C93.0858 109.778 93.345 109.748 93.5439 109.722C93.7427 109.694 93.8871 109.651 93.9771 109.594C94.0694 109.535 94.1156 109.444 94.1156 109.321V109.3C94.1156 109.032 94.0363 108.825 93.8777 108.678C93.719 108.531 93.4906 108.458 93.1923 108.458C92.8774 108.458 92.6277 108.527 92.443 108.664C92.2607 108.801 92.1376 108.964 92.0737 109.151L90.8734 108.98C90.9681 108.649 91.1243 108.372 91.3422 108.149C91.56 107.924 91.8263 107.756 92.1412 107.645C92.456 107.531 92.804 107.474 93.1852 107.474C93.448 107.474 93.7096 107.505 93.97 107.567C94.2304 107.628 94.4683 107.73 94.6838 107.872C94.8992 108.012 95.072 108.202 95.2022 108.444C95.3348 108.685 95.4011 108.987 95.4011 109.349V113H94.1653V112.251H94.1227C94.0446 112.402 93.9345 112.544 93.7924 112.677C93.6528 112.807 93.4764 112.912 93.2633 112.993C93.0526 113.071 92.8052 113.11 92.5211 113.11ZM92.8549 112.165C93.113 112.165 93.3367 112.115 93.5261 112.013C93.7155 111.909 93.8611 111.771 93.9629 111.601C94.0671 111.43 94.1191 111.245 94.1191 111.043V110.401C94.0789 110.434 94.0102 110.464 93.9132 110.493C93.8185 110.521 93.7119 110.546 93.5936 110.567C93.4752 110.589 93.358 110.608 93.242 110.624C93.126 110.641 93.0254 110.655 92.9402 110.667C92.7484 110.693 92.5768 110.736 92.4252 110.795C92.2737 110.854 92.1542 110.937 92.0666 111.043C91.979 111.147 91.9352 111.282 91.9352 111.448C91.9352 111.685 92.0216 111.864 92.1944 111.984C92.3672 112.105 92.5874 112.165 92.8549 112.165ZM96.0829 108.6V107.545H100.856V108.6H99.0907V113H97.8478V108.6H96.0829ZM105.018 111.505L106.638 107.545H107.675L105.469 113H104.571L102.415 107.545H103.442L105.018 111.505ZM103.119 107.545V113H101.879V107.545H103.119ZM106.972 113V107.545H108.2V113H106.972ZM111.911 113.107C111.364 113.107 110.892 112.993 110.494 112.766C110.099 112.536 109.795 112.212 109.582 111.793C109.369 111.371 109.262 110.875 109.262 110.305C109.262 109.744 109.369 109.251 109.582 108.827C109.797 108.401 110.098 108.07 110.484 107.833C110.87 107.594 111.323 107.474 111.844 107.474C112.18 107.474 112.497 107.529 112.795 107.638C113.096 107.744 113.361 107.91 113.591 108.135C113.823 108.36 114.005 108.646 114.138 108.994C114.27 109.34 114.337 109.752 114.337 110.23V110.624H109.866V109.758H113.104C113.102 109.512 113.049 109.293 112.945 109.101C112.84 108.907 112.695 108.754 112.508 108.643C112.323 108.531 112.108 108.476 111.862 108.476C111.599 108.476 111.368 108.54 111.169 108.668C110.97 108.793 110.815 108.959 110.704 109.165C110.595 109.368 110.539 109.592 110.537 109.836V110.592C110.537 110.91 110.595 111.182 110.711 111.409C110.827 111.634 110.989 111.807 111.197 111.928C111.406 112.046 111.65 112.105 111.929 112.105C112.116 112.105 112.285 112.079 112.437 112.027C112.588 111.973 112.72 111.893 112.831 111.789C112.942 111.685 113.026 111.556 113.083 111.402L114.283 111.537C114.208 111.854 114.063 112.131 113.85 112.368C113.639 112.602 113.37 112.785 113.04 112.915C112.711 113.043 112.335 113.107 111.911 113.107ZM119.171 109.74V110.795H116.266V109.74H119.171ZM116.664 107.545V113H115.424V107.545H116.664ZM120.012 107.545V113H118.776V107.545H120.012ZM120.702 108.6V107.545H125.475V108.6H123.71V113H122.467V108.6H120.702Z" fill="#121212"></path> <path d="M77.7173 150.727H79.0241V155.685H79.0916L82.5114 150.727H83.6939V158H82.3764V153.046H82.3161L78.8857 158H77.7173V150.727ZM88.2118 156.505L89.8311 152.545H90.8681L88.6628 158H87.7644L85.6088 152.545H86.6351L88.2118 156.505ZM86.312 152.545V158H85.0726V152.545H86.312ZM90.165 158V152.545H91.3936V158H90.165ZM92.6898 158V152.545H97.2956V158H96.0563V153.6H93.9185V158H92.6898ZM98.2411 158L98.234 156.942H98.4222C98.5643 156.942 98.6838 156.91 98.7809 156.846C98.878 156.782 98.9585 156.675 99.0224 156.526C99.0863 156.375 99.136 156.171 99.1715 155.915C99.207 155.66 99.2319 155.341 99.2461 154.96L99.342 152.545H103.319V158H102.076V153.6H100.51L100.425 155.358C100.404 155.812 100.353 156.207 100.272 156.54C100.194 156.872 100.083 157.145 99.9386 157.361C99.7965 157.576 99.6178 157.737 99.4023 157.844C99.1869 157.948 98.9324 158 98.6388 158H98.2411ZM106.183 158.11C105.838 158.11 105.526 158.049 105.249 157.925C104.975 157.8 104.757 157.615 104.596 157.371C104.437 157.128 104.358 156.827 104.358 156.469C104.358 156.162 104.415 155.907 104.528 155.706C104.642 155.505 104.797 155.344 104.994 155.223C105.19 155.102 105.411 155.011 105.658 154.95C105.906 154.886 106.163 154.839 106.428 154.811C106.748 154.778 107.007 154.748 107.206 154.722C107.405 154.694 107.549 154.651 107.639 154.594C107.732 154.535 107.778 154.444 107.778 154.321V154.3C107.778 154.032 107.698 153.825 107.54 153.678C107.381 153.531 107.153 153.458 106.854 153.458C106.54 153.458 106.29 153.527 106.105 153.664C105.923 153.801 105.8 153.964 105.736 154.151L104.536 153.98C104.63 153.649 104.786 153.372 105.004 153.149C105.222 152.924 105.488 152.756 105.803 152.645C106.118 152.531 106.466 152.474 106.847 152.474C107.11 152.474 107.372 152.505 107.632 152.567C107.893 152.628 108.13 152.73 108.346 152.872C108.561 153.012 108.734 153.202 108.864 153.444C108.997 153.685 109.063 153.987 109.063 154.349V158H107.827V157.251H107.785C107.707 157.402 107.597 157.544 107.455 157.677C107.315 157.807 107.138 157.912 106.925 157.993C106.715 158.071 106.467 158.11 106.183 158.11ZM106.517 157.165C106.775 157.165 106.999 157.115 107.188 157.013C107.378 156.909 107.523 156.771 107.625 156.601C107.729 156.43 107.781 156.245 107.781 156.043V155.401C107.741 155.434 107.672 155.464 107.575 155.493C107.481 155.521 107.374 155.546 107.256 155.567C107.137 155.589 107.02 155.608 106.904 155.624C106.788 155.641 106.688 155.655 106.602 155.667C106.411 155.693 106.239 155.736 106.087 155.795C105.936 155.854 105.816 155.937 105.729 156.043C105.641 156.147 105.597 156.282 105.597 156.448C105.597 156.685 105.684 156.864 105.857 156.984C106.029 157.105 106.25 157.165 106.517 157.165ZM114.102 154.74V155.795H111.197V154.74H114.102ZM111.595 152.545V158H110.356V152.545H111.595ZM114.944 152.545V158H113.708V152.545H114.944ZM115.634 153.6V152.545H120.406V153.6H118.642V158H117.399V153.6H115.634ZM122.775 158.11C122.429 158.11 122.118 158.049 121.841 157.925C121.566 157.8 121.349 157.615 121.188 157.371C121.029 157.128 120.95 156.827 120.95 156.469C120.95 156.162 121.007 155.907 121.12 155.706C121.234 155.505 121.389 155.344 121.585 155.223C121.782 155.102 122.003 155.011 122.249 154.95C122.498 154.886 122.755 154.839 123.02 154.811C123.34 154.778 123.599 154.748 123.798 154.722C123.997 154.694 124.141 154.651 124.231 154.594C124.323 154.535 124.369 154.444 124.369 154.321V154.3C124.369 154.032 124.29 153.825 124.132 153.678C123.973 153.531 123.744 153.458 123.446 153.458C123.131 153.458 122.882 153.527 122.697 153.664C122.515 153.801 122.392 153.964 122.328 154.151L121.127 153.98C121.222 153.649 121.378 153.372 121.596 153.149C121.814 152.924 122.08 152.756 122.395 152.645C122.71 152.531 123.058 152.474 123.439 152.474C123.702 152.474 123.963 152.505 124.224 152.567C124.484 152.628 124.722 152.73 124.938 152.872C125.153 153.012 125.326 153.202 125.456 153.444C125.589 153.685 125.655 153.987 125.655 154.349V158H124.419V157.251H124.377C124.298 157.402 124.188 157.544 124.046 157.677C123.907 157.807 123.73 157.912 123.517 157.993C123.307 158.071 123.059 158.11 122.775 158.11ZM123.109 157.165C123.367 157.165 123.591 157.115 123.78 157.013C123.969 156.909 124.115 156.771 124.217 156.601C124.321 156.43 124.373 156.245 124.373 156.043V155.401C124.333 155.434 124.264 155.464 124.167 155.493C124.072 155.521 123.966 155.546 123.847 155.567C123.729 155.589 123.612 155.608 123.496 155.624C123.38 155.641 123.279 155.655 123.194 155.667C123.002 155.693 122.831 155.736 122.679 155.795C122.528 155.854 122.408 155.937 122.32 156.043C122.233 156.147 122.189 156.282 122.189 156.448C122.189 156.685 122.276 156.864 122.448 156.984C122.621 157.105 122.841 157.165 123.109 157.165ZM126.337 153.6V152.545H131.11V153.6H129.345V158H128.102V153.6H126.337Z" fill="#121212"></path> </svg> 