<?xml version="1.0" encoding="UTF-8"?> <svg xmlns="http://www.w3.org/2000/svg" width="79" height="75" viewBox="0 0 79 75" fill="none"> <path d="M14.6915 75C15.7855 71.618 16.8211 68.4 17.8647 65.186C19.8264 59.145 21.7793 53.1015 23.773 47.0709C24.0049 46.3728 23.8138 46.0481 23.262 45.6514C15.7367 40.235 8.22821 34.7938 0.71574 29.359C0.471029 29.1814 0.227917 29.0031 0 28.6152H2.04406C10.8912 28.6152 19.74 28.6024 28.588 28.6352C29.4701 28.6376 29.8452 28.3809 30.1203 27.5228C32.9808 18.5941 35.8902 9.68129 38.7883 0.765322C38.8539 0.563796 38.9411 0.369466 39.0858 0C39.2386 0.388659 39.3521 0.643767 39.4393 0.907671C42.379 9.77805 45.3299 18.6444 48.2329 27.5276C48.5112 28.3793 48.8942 28.6368 49.7755 28.6344C58.9898 28.612 68.2056 28.6352 77.4207 28.6456H78.5547C78.134 28.9791 77.8925 29.1846 77.6374 29.3701C70.1577 34.7986 62.6876 40.2382 55.1824 45.6315C54.4282 46.1745 54.2811 46.6047 54.573 47.4884C57.4879 56.3028 60.3477 65.134 63.2226 73.962C63.305 74.2131 63.3754 74.4682 63.5193 74.9328C63.0539 74.6097 62.7604 74.4122 62.4749 74.2051C55.0536 68.8022 47.6251 63.4066 40.2214 57.979C39.5241 57.468 39.0634 57.4264 38.3341 57.9574C30.7145 63.5026 23.0628 69.0062 15.4192 74.5218C15.2313 74.6577 15.0321 74.7769 14.6915 75Z" fill="#F8C71A"></path> </svg> 