<?xml version="1.0" encoding="UTF-8"?> <svg xmlns="http://www.w3.org/2000/svg" width="169" height="166" viewBox="0 0 169 166" fill="none"> <line x1="6" y1="75.8" x2="101" y2="75.8" stroke="#0B75D6" stroke-opacity="0.2" stroke-width="0.4"></line> <line x1="1.74846e-08" y1="31.8" x2="169" y2="31.8" stroke="#0B75D6" stroke-opacity="0.2" stroke-width="0.4"></line> <line x1="1.74846e-08" y1="120.8" x2="127" y2="120.8" stroke="#0B75D6" stroke-opacity="0.2" stroke-width="0.4"></line> <line x1="1.74846e-08" y1="165.8" x2="132" y2="165.8" stroke="#0B75D6" stroke-opacity="0.2" stroke-width="0.4"></line> <path d="M77.7173 67V59.7273H80.5014C81.027 59.7273 81.4638 59.8101 81.8118 59.9759C82.1622 60.1392 82.4238 60.3629 82.5966 60.647C82.7718 60.9311 82.8594 61.2531 82.8594 61.6129C82.8594 61.9089 82.8026 62.1622 82.6889 62.3729C82.5753 62.5812 82.4226 62.7505 82.2308 62.8807C82.0391 63.0109 81.8248 63.1044 81.5881 63.1612V63.2322C81.8461 63.2464 82.0935 63.3258 82.3303 63.4702C82.5694 63.6122 82.7647 63.8134 82.9162 64.0739C83.0677 64.3343 83.1435 64.6491 83.1435 65.0185C83.1435 65.3949 83.0523 65.7334 82.87 66.0341C82.6877 66.3324 82.4131 66.5679 82.0462 66.7408C81.6792 66.9136 81.2176 67 80.6612 67H77.7173ZM79.0348 65.8991H80.4517C80.9299 65.8991 81.2744 65.808 81.4851 65.6257C81.6982 65.4411 81.8047 65.2043 81.8047 64.9155C81.8047 64.7 81.7514 64.5059 81.6449 64.3331C81.5384 64.1579 81.3868 64.0206 81.1903 63.9212C80.9938 63.8194 80.7595 63.7685 80.4872 63.7685H79.0348V65.8991ZM79.0348 62.8203H80.3381C80.5653 62.8203 80.7701 62.7789 80.9524 62.696C81.1347 62.6108 81.2779 62.4912 81.3821 62.3374C81.4886 62.1811 81.5419 61.9964 81.5419 61.7834C81.5419 61.5017 81.4425 61.2696 81.2436 61.0874C81.0471 60.9051 80.7547 60.8139 80.3665 60.8139H79.0348V62.8203ZM85.4721 65.2599L87.6561 61.5455H88.9771V67H87.7342V63.282L85.5574 67H84.2328V61.5455H85.4721V65.2599ZM94.0437 63.7401V64.7947H91.1388V63.7401H94.0437ZM91.5366 61.5455V67H90.2972V61.5455H91.5366ZM94.8853 61.5455V67H93.6495V61.5455H94.8853ZM95.5751 62.6001V61.5455H100.348V62.6001H98.5829V67H97.34V62.6001H95.5751Z" fill="#121212"></path> <path d="M82.0746 10L79.6811 6.82173H79.0348V10H77.7173V2.72727H79.0348V5.71733H79.3651L81.9503 2.72727H83.5732L80.7003 6.04403L83.6974 10H82.0746ZM86.5144 10.1065C85.9817 10.1065 85.5201 9.98935 85.1294 9.75497C84.7388 9.5206 84.4358 9.19271 84.2203 8.77131C84.0073 8.34991 83.9007 7.85748 83.9007 7.29403C83.9007 6.73059 84.0073 6.23698 84.2203 5.81321C84.4358 5.38944 84.7388 5.06037 85.1294 4.82599C85.5201 4.59162 85.9817 4.47443 86.5144 4.47443C87.0471 4.47443 87.5087 4.59162 87.8993 4.82599C88.29 5.06037 88.5918 5.38944 88.8049 5.81321C89.0203 6.23698 89.128 6.73059 89.128 7.29403C89.128 7.85748 89.0203 8.34991 88.8049 8.77131C88.5918 9.19271 88.29 9.5206 87.8993 9.75497C87.5087 9.98935 87.0471 10.1065 86.5144 10.1065ZM86.5215 9.0767C86.8103 9.0767 87.0518 8.9974 87.2459 8.83878C87.44 8.67779 87.5845 8.46236 87.6792 8.19247C87.7762 7.92259 87.8248 7.62192 87.8248 7.29048C87.8248 6.95668 87.7762 6.65483 87.6792 6.38494C87.5845 6.11269 87.44 5.89607 87.2459 5.73509C87.0518 5.5741 86.8103 5.49361 86.5215 5.49361C86.2256 5.49361 85.9793 5.5741 85.7828 5.73509C85.5887 5.89607 85.4431 6.11269 85.3461 6.38494C85.2514 6.65483 85.204 6.95668 85.204 7.29048C85.204 7.62192 85.2514 7.92259 85.3461 8.19247C85.4431 8.46236 85.5887 8.67779 85.7828 8.83878C85.9793 8.9974 86.2256 9.0767 86.5215 9.0767ZM90.2191 12.0455V4.54545H91.4833V5.44744H91.5579C91.6242 5.31487 91.7177 5.17401 91.8384 5.02486C91.9592 4.87334 92.1225 4.74432 92.3285 4.63778C92.5344 4.52888 92.7972 4.47443 93.1168 4.47443C93.5382 4.47443 93.9182 4.58215 94.2567 4.79759C94.5977 5.01065 94.8675 5.3267 95.0664 5.74574C95.2676 6.16241 95.3683 6.67377 95.3683 7.27983C95.3683 7.87879 95.27 8.38778 95.0735 8.80682C94.877 9.22585 94.6095 9.54545 94.271 9.76562C93.9324 9.9858 93.5489 10.0959 93.1204 10.0959C92.8079 10.0959 92.5487 10.0438 92.3427 9.93963C92.1367 9.83546 91.971 9.70999 91.8455 9.56321C91.7224 9.41406 91.6265 9.2732 91.5579 9.14062H91.5046V12.0455H90.2191ZM91.4798 7.27273C91.4798 7.62547 91.5295 7.93442 91.6289 8.19957C91.7307 8.46473 91.8763 8.67187 92.0657 8.82102C92.2575 8.9678 92.4895 9.04119 92.7617 9.04119C93.0458 9.04119 93.2837 8.96544 93.4755 8.81392C93.6673 8.66004 93.8117 8.45052 93.9087 8.18537C94.0082 7.91785 94.0579 7.61364 94.0579 7.27273C94.0579 6.93419 94.0094 6.63352 93.9123 6.37074C93.8152 6.10795 93.6708 5.90199 93.479 5.75284C93.2873 5.60369 93.0482 5.52912 92.7617 5.52912C92.4871 5.52912 92.2539 5.60133 92.0621 5.74574C91.8704 5.89015 91.7248 6.09257 91.6254 6.35298C91.5283 6.6134 91.4798 6.91998 91.4798 7.27273ZM98.8484 10.1065C98.3157 10.1065 97.854 9.98935 97.4634 9.75497C97.0728 9.5206 96.7698 9.19271 96.5543 8.77131C96.3413 8.34991 96.2347 7.85748 96.2347 7.29403C96.2347 6.73059 96.3413 6.23698 96.5543 5.81321C96.7698 5.38944 97.0728 5.06037 97.4634 4.82599C97.854 4.59162 98.3157 4.47443 98.8484 4.47443C99.381 4.47443 99.8427 4.59162 100.233 4.82599C100.624 5.06037 100.926 5.38944 101.139 5.81321C101.354 6.23698 101.462 6.73059 101.462 7.29403C101.462 7.85748 101.354 8.34991 101.139 8.77131C100.926 9.19271 100.624 9.5206 100.233 9.75497C99.8427 9.98935 99.381 10.1065 98.8484 10.1065ZM98.8555 9.0767C99.1443 9.0767 99.3858 8.9974 99.5799 8.83878C99.774 8.67779 99.9184 8.46236 100.013 8.19247C100.11 7.92259 100.159 7.62192 100.159 7.29048C100.159 6.95668 100.11 6.65483 100.013 6.38494C99.9184 6.11269 99.774 5.89607 99.5799 5.73509C99.3858 5.5741 99.1443 5.49361 98.8555 5.49361C98.5595 5.49361 98.3133 5.5741 98.1168 5.73509C97.9227 5.89607 97.7771 6.11269 97.68 6.38494C97.5853 6.65483 97.538 6.95668 97.538 7.29048C97.538 7.62192 97.5853 7.92259 97.68 8.19247C97.7771 8.46236 97.9227 8.67779 98.1168 8.83878C98.3133 8.9974 98.5595 9.0767 98.8555 9.0767ZM106.3 6.74006V7.79474H103.395V6.74006H106.3ZM103.792 4.54545V10H102.553V4.54545H103.792ZM107.141 4.54545V10H105.905V4.54545H107.141ZM108.442 10V4.54545H109.727V6.74716H110.196L111.837 4.54545H113.385L111.364 7.22301L113.406 10H111.851L110.356 7.94389H109.727V10H108.442ZM115.705 10.1101C115.359 10.1101 115.048 10.0485 114.771 9.92543C114.496 9.79995 114.278 9.61529 114.117 9.37145C113.959 9.1276 113.879 8.82694 113.879 8.46946C113.879 8.1617 113.936 7.9072 114.05 7.70597C114.164 7.50473 114.319 7.34375 114.515 7.22301C114.712 7.10227 114.933 7.01113 115.179 6.94957C115.428 6.88565 115.685 6.83949 115.95 6.81108C116.269 6.77794 116.529 6.74834 116.727 6.7223C116.926 6.69389 117.071 6.65128 117.161 6.59446C117.253 6.53527 117.299 6.44413 117.299 6.32102V6.29972C117.299 6.0322 117.22 5.82505 117.061 5.67827C116.903 5.53149 116.674 5.4581 116.376 5.4581C116.061 5.4581 115.811 5.52675 115.627 5.66406C115.444 5.80137 115.321 5.96354 115.257 6.15057L114.057 5.98011C114.152 5.64867 114.308 5.37169 114.526 5.14915C114.744 4.92424 115.01 4.75616 115.325 4.64489C115.64 4.53125 115.988 4.47443 116.369 4.47443C116.632 4.47443 116.893 4.50521 117.154 4.56676C117.414 4.62831 117.652 4.73011 117.867 4.87216C118.083 5.01184 118.256 5.20241 118.386 5.44389C118.518 5.68537 118.585 5.98722 118.585 6.34943V10H117.349V9.25071H117.306C117.228 9.40223 117.118 9.54427 116.976 9.67685C116.836 9.80705 116.66 9.91241 116.447 9.9929C116.236 10.071 115.989 10.1101 115.705 10.1101ZM116.039 9.16548C116.297 9.16548 116.52 9.11458 116.71 9.01278C116.899 8.90862 117.045 8.77131 117.146 8.60085C117.251 8.4304 117.303 8.24455 117.303 8.04332V7.40057C117.262 7.43371 117.194 7.46449 117.097 7.4929C117.002 7.52131 116.896 7.54616 116.777 7.56747C116.659 7.58878 116.542 7.60772 116.426 7.62429C116.31 7.64086 116.209 7.65507 116.124 7.6669C115.932 7.69294 115.76 7.73556 115.609 7.79474C115.457 7.85393 115.338 7.93679 115.25 8.04332C115.163 8.14749 115.119 8.28243 115.119 8.44815C115.119 8.6849 115.205 8.86364 115.378 8.98438C115.551 9.10511 115.771 9.16548 116.039 9.16548ZM126.729 2.52841L127.177 3.35938C127.018 3.49669 126.84 3.59612 126.644 3.65767C126.448 3.71922 126.217 3.75947 125.952 3.77841C125.689 3.79498 125.376 3.80682 125.014 3.81392C124.607 3.82339 124.274 3.90033 124.016 4.04474C123.758 4.18916 123.56 4.40814 123.423 4.7017C123.286 4.9929 123.196 5.36458 123.153 5.81676H123.214C123.384 5.48295 123.623 5.22846 123.931 5.05327C124.239 4.87808 124.6 4.79048 125.014 4.79048C125.466 4.79048 125.865 4.89228 126.211 5.09588C126.559 5.29711 126.83 5.58949 127.024 5.97301C127.22 6.35653 127.319 6.82055 127.319 7.36506C127.319 7.92614 127.213 8.41264 127.003 8.82457C126.792 9.23414 126.492 9.55019 126.104 9.77273C125.718 9.99527 125.26 10.1065 124.73 10.1065C124.202 10.1065 123.743 9.99171 123.352 9.76207C122.964 9.53007 122.663 9.18797 122.45 8.7358C122.239 8.28125 122.134 7.72135 122.134 7.05611V6.56605C122.134 5.28291 122.373 4.32528 122.851 3.69318C123.33 3.06108 124.039 2.73911 124.979 2.72727C125.258 2.72254 125.508 2.72135 125.728 2.72372C125.95 2.72609 126.144 2.71544 126.31 2.69176C126.476 2.66809 126.616 2.61364 126.729 2.52841ZM124.737 9.0767C125 9.0767 125.227 9.00923 125.419 8.87429C125.611 8.73698 125.757 8.54285 125.859 8.2919C125.963 8.04096 126.015 7.74384 126.015 7.40057C126.015 7.06203 125.963 6.77438 125.859 6.53764C125.755 6.29853 125.607 6.11624 125.415 5.99077C125.224 5.86529 124.995 5.80256 124.73 5.80256C124.531 5.80256 124.352 5.83807 124.194 5.90909C124.035 5.98011 123.9 6.08428 123.789 6.22159C123.678 6.3589 123.592 6.5258 123.533 6.7223C123.474 6.9188 123.442 7.14489 123.437 7.40057C123.437 7.9143 123.553 8.32268 123.785 8.62571C124.017 8.92637 124.335 9.0767 124.737 9.0767ZM130.827 10.1065C130.28 10.1065 129.808 9.9929 129.41 9.76562C129.015 9.53598 128.711 9.21165 128.498 8.79261C128.285 8.37121 128.178 7.87524 128.178 7.30469C128.178 6.74361 128.285 6.25118 128.498 5.82741C128.713 5.40128 129.014 5.06984 129.4 4.8331C129.786 4.59399 130.239 4.47443 130.76 4.47443C131.096 4.47443 131.413 4.52888 131.711 4.63778C132.012 4.74432 132.277 4.91004 132.507 5.13494C132.739 5.35985 132.921 5.64631 133.054 5.99432C133.186 6.33996 133.253 6.75189 133.253 7.23011V7.62429H128.782V6.75781H132.02C132.018 6.5116 131.965 6.29261 131.861 6.10085C131.756 5.90672 131.611 5.75402 131.424 5.64276C131.239 5.53149 131.024 5.47585 130.778 5.47585C130.515 5.47585 130.284 5.53977 130.085 5.66761C129.886 5.79309 129.731 5.95881 129.62 6.16477C129.511 6.36837 129.455 6.59209 129.453 6.83594V7.59233C129.453 7.90956 129.511 8.18182 129.627 8.40909C129.743 8.634 129.905 8.80682 130.113 8.92756C130.322 9.04593 130.566 9.10511 130.845 9.10511C131.032 9.10511 131.201 9.07907 131.353 9.02699C131.504 8.97254 131.636 8.89323 131.747 8.78906C131.858 8.6849 131.942 8.55587 131.999 8.40199L133.199 8.53693C133.124 8.85417 132.979 9.13116 132.766 9.3679C132.555 9.60227 132.286 9.78456 131.956 9.91477C131.627 10.0426 131.251 10.1065 130.827 10.1065ZM134.038 8.50497H135.313C135.325 8.70857 135.416 8.866 135.587 8.97727C135.757 9.08854 135.978 9.14418 136.251 9.14418C136.528 9.14418 136.761 9.08381 136.95 8.96307C137.142 8.83996 137.238 8.65412 137.238 8.40554C137.238 8.25876 137.201 8.12973 137.128 8.01847C137.054 7.90483 136.951 7.81723 136.819 7.75568C136.686 7.69413 136.53 7.66335 136.35 7.66335H135.516V6.75071H136.35C136.618 6.75071 136.82 6.68916 136.957 6.56605C137.097 6.44294 137.167 6.28788 137.167 6.10085C137.167 5.89962 137.094 5.73627 136.947 5.6108C136.802 5.48532 136.602 5.42259 136.347 5.42259C136.091 5.42259 135.878 5.48059 135.707 5.59659C135.539 5.71259 135.452 5.86174 135.445 6.04403H134.177C134.182 5.7268 134.276 5.45099 134.461 5.21662C134.648 4.98224 134.899 4.79995 135.214 4.66974C135.531 4.53954 135.888 4.47443 136.286 4.47443C136.712 4.47443 137.08 4.53835 137.391 4.66619C137.701 4.79403 137.94 4.97277 138.108 5.20241C138.276 5.42969 138.36 5.69721 138.36 6.00497C138.36 6.3009 138.268 6.54593 138.083 6.74006C137.898 6.93182 137.65 7.06913 137.337 7.15199V7.20881C137.553 7.22064 137.747 7.2822 137.92 7.39347C138.093 7.50237 138.23 7.65033 138.332 7.83736C138.433 8.02438 138.484 8.241 138.484 8.48722C138.484 8.82102 138.388 9.10985 138.197 9.35369C138.005 9.59517 137.741 9.78101 137.405 9.91122C137.071 10.0414 136.689 10.1065 136.258 10.1065C135.839 10.1065 135.464 10.0438 135.132 9.91832C134.803 9.79048 134.541 9.60701 134.347 9.3679C134.153 9.12879 134.05 8.84115 134.038 8.50497ZM77.1776 24.5838V21.9418H77.6108C77.7268 21.8518 77.8239 21.7299 77.902 21.576C77.9801 21.4197 78.044 21.2363 78.0938 21.0256C78.1458 20.8125 78.1884 20.5746 78.2216 20.3118C78.2547 20.0466 78.2843 19.7614 78.3104 19.456L78.4666 17.5455H82.4084V21.9418H83.2536V24.5838H82.0107V23H78.4418V24.5838H77.1776ZM78.9318 21.9418H81.1797V18.5824H79.5817L79.4964 19.456C79.4491 20.0336 79.3864 20.5284 79.3082 20.9403C79.2301 21.3523 79.1046 21.6861 78.9318 21.9418ZM86.5925 23.1065C86.0598 23.1065 85.5982 22.9893 85.2076 22.755C84.8169 22.5206 84.5139 22.1927 84.2985 21.7713C84.0854 21.3499 83.9789 20.8575 83.9789 20.294C83.9789 19.7306 84.0854 19.237 84.2985 18.8132C84.5139 18.3894 84.8169 18.0604 85.2076 17.826C85.5982 17.5916 86.0598 17.4744 86.5925 17.4744C87.1252 17.4744 87.5868 17.5916 87.9775 17.826C88.3681 18.0604 88.6699 18.3894 88.883 18.8132C89.0984 19.237 89.2061 19.7306 89.2061 20.294C89.2061 20.8575 89.0984 21.3499 88.883 21.7713C88.6699 22.1927 88.3681 22.5206 87.9775 22.755C87.5868 22.9893 87.1252 23.1065 86.5925 23.1065ZM86.5996 22.0767C86.8884 22.0767 87.1299 21.9974 87.324 21.8388C87.5182 21.6778 87.6626 21.4624 87.7573 21.1925C87.8543 20.9226 87.9029 20.6219 87.9029 20.2905C87.9029 19.9567 87.8543 19.6548 87.7573 19.3849C87.6626 19.1127 87.5182 18.8961 87.324 18.7351C87.1299 18.5741 86.8884 18.4936 86.5996 18.4936C86.3037 18.4936 86.0575 18.5741 85.861 18.7351C85.6668 18.8961 85.5212 19.1127 85.4242 19.3849C85.3295 19.6548 85.2821 19.9567 85.2821 20.2905C85.2821 20.6219 85.3295 20.9226 85.4242 21.1925C85.5212 21.4624 85.6668 21.6778 85.861 21.8388C86.0575 21.9974 86.3037 22.0767 86.5996 22.0767ZM92.6765 23.1065C92.132 23.1065 91.6644 22.987 91.2738 22.7479C90.8855 22.5088 90.5861 22.1785 90.3754 21.7571C90.167 21.3333 90.0629 20.8456 90.0629 20.294C90.0629 19.7401 90.1694 19.2512 90.3825 18.8274C90.5955 18.4013 90.8962 18.0698 91.2844 17.8331C91.6751 17.594 92.1367 17.4744 92.6694 17.4744C93.1121 17.4744 93.5039 17.5561 93.8448 17.7195C94.1881 17.8804 94.4615 18.1089 94.6651 18.4048C94.8687 18.6984 94.9847 19.0417 95.0131 19.4347H93.7844C93.7347 19.1719 93.6164 18.9529 93.4293 18.7777C93.2447 18.6001 92.9973 18.5114 92.6871 18.5114C92.4244 18.5114 92.1935 18.5824 91.9947 18.7244C91.7958 18.8641 91.6407 19.0653 91.5295 19.3281C91.4206 19.5909 91.3661 19.9058 91.3661 20.2727C91.3661 20.6444 91.4206 20.964 91.5295 21.2315C91.6384 21.4967 91.7911 21.7015 91.9876 21.8459C92.1864 21.9879 92.4196 22.0589 92.6871 22.0589C92.8765 22.0589 93.0458 22.0234 93.195 21.9524C93.3465 21.879 93.4731 21.7737 93.5749 21.6364C93.6767 21.4991 93.7466 21.3321 93.7844 21.1357H95.0131C94.9824 21.5215 94.8687 21.8636 94.6722 22.1619C94.4757 22.4579 94.2082 22.6899 93.8697 22.858C93.5311 23.0237 93.1334 23.1065 92.6765 23.1065ZM95.6728 18.6001V17.5455H100.445V18.6001H98.6806V23H97.4377V18.6001H95.6728ZM102.268 25.0455C102.093 25.0455 101.931 25.0313 101.782 25.0028C101.635 24.9768 101.518 24.946 101.43 24.9105L101.728 23.9091C101.915 23.9635 102.082 23.9896 102.229 23.9872C102.376 23.9848 102.505 23.9387 102.616 23.8487C102.73 23.7611 102.826 23.6143 102.904 23.4084L103.014 23.1136L101.036 17.5455H102.4L103.657 21.6648H103.713L104.974 17.5455H106.341L104.157 23.6605C104.056 23.9493 103.921 24.1967 103.752 24.4027C103.584 24.611 103.378 24.7696 103.135 24.8786C102.893 24.9898 102.604 25.0455 102.268 25.0455ZM107.231 23V17.5455H111.837V23H110.597V18.6001H108.46V23H107.231ZM114.728 23.1101C114.383 23.1101 114.071 23.0485 113.794 22.9254C113.52 22.8 113.302 22.6153 113.141 22.3714C112.982 22.1276 112.903 21.8269 112.903 21.4695C112.903 21.1617 112.96 20.9072 113.073 20.706C113.187 20.5047 113.342 20.3438 113.539 20.223C113.735 20.1023 113.956 20.0111 114.203 19.9496C114.451 19.8857 114.708 19.8395 114.973 19.8111C115.293 19.7779 115.552 19.7483 115.751 19.7223C115.95 19.6939 116.094 19.6513 116.184 19.5945C116.276 19.5353 116.323 19.4441 116.323 19.321V19.2997C116.323 19.0322 116.243 18.825 116.085 18.6783C115.926 18.5315 115.698 18.4581 115.399 18.4581C115.084 18.4581 114.835 18.5268 114.65 18.6641C114.468 18.8014 114.345 18.9635 114.281 19.1506L113.08 18.9801C113.175 18.6487 113.331 18.3717 113.549 18.1491C113.767 17.9242 114.033 17.7562 114.348 17.6449C114.663 17.5312 115.011 17.4744 115.392 17.4744C115.655 17.4744 115.917 17.5052 116.177 17.5668C116.437 17.6283 116.675 17.7301 116.891 17.8722C117.106 18.0118 117.279 18.2024 117.409 18.4439C117.542 18.6854 117.608 18.9872 117.608 19.3494V23H116.372V22.2507H116.33C116.252 22.4022 116.142 22.5443 115.999 22.6768C115.86 22.8071 115.683 22.9124 115.47 22.9929C115.26 23.071 115.012 23.1101 114.728 23.1101ZM115.062 22.1655C115.32 22.1655 115.544 22.1146 115.733 22.0128C115.923 21.9086 116.068 21.7713 116.17 21.6009C116.274 21.4304 116.326 21.2446 116.326 21.0433V20.4006C116.286 20.4337 116.217 20.4645 116.12 20.4929C116.026 20.5213 115.919 20.5462 115.801 20.5675C115.682 20.5888 115.565 20.6077 115.449 20.6243C115.333 20.6409 115.232 20.6551 115.147 20.6669C114.955 20.6929 114.784 20.7356 114.632 20.7947C114.481 20.8539 114.361 20.9368 114.274 21.0433C114.186 21.1475 114.142 21.2824 114.142 21.4482C114.142 21.6849 114.229 21.8636 114.401 21.9844C114.574 22.1051 114.794 22.1655 115.062 22.1655ZM121.381 23V17.5455H122.667V19.7472H123.135L124.776 17.5455H126.324L124.304 20.223L126.346 23H124.79L123.295 20.9439H122.667V23H121.381ZM129.555 23V17.5455H131.846C132.492 17.5455 133.002 17.6745 133.376 17.9325C133.752 18.1906 133.941 18.5504 133.941 19.0121C133.941 19.3175 133.834 19.5672 133.621 19.7614C133.41 19.9531 133.123 20.0821 132.758 20.1484C133.045 20.1721 133.296 20.2443 133.511 20.3651C133.729 20.4858 133.899 20.6444 134.022 20.8409C134.145 21.0374 134.207 21.2635 134.207 21.5192C134.207 21.8198 134.128 22.0814 133.969 22.304C133.813 22.5241 133.584 22.6958 133.284 22.8189C132.985 22.9396 132.623 23 132.197 23H129.555ZM130.759 21.9879H132.197C132.434 21.9879 132.62 21.9323 132.755 21.821C132.89 21.7074 132.957 21.5535 132.957 21.3594C132.957 21.1345 132.89 20.9581 132.755 20.8303C132.62 20.7 132.434 20.6349 132.197 20.6349H130.759V21.9879ZM130.759 19.804H131.87C132.046 19.804 132.196 19.7791 132.321 19.7294C132.447 19.6773 132.543 19.6051 132.609 19.5128C132.675 19.4181 132.708 19.3056 132.708 19.1754C132.708 18.9884 132.632 18.8416 132.478 18.7351C132.326 18.6286 132.115 18.5753 131.846 18.5753H130.759V19.804ZM136.507 21.2599L138.691 17.5455H140.012V23H138.769V19.282L136.593 23H135.268V17.5455H136.507V21.2599ZM145.079 19.7401V20.7947H142.174V19.7401H145.079ZM142.572 17.5455V23H141.332V17.5455H142.572ZM145.92 17.5455V23H144.685V17.5455H145.92ZM146.61 18.6001V17.5455H151.383V18.6001H149.618V23H148.375V18.6001H146.61ZM153.206 25.0455C153.03 25.0455 152.868 25.0313 152.719 25.0028C152.572 24.9768 152.455 24.946 152.368 24.9105L152.666 23.9091C152.853 23.9635 153.02 23.9896 153.167 23.9872C153.313 23.9848 153.442 23.9387 153.554 23.8487C153.667 23.7611 153.763 23.6143 153.841 23.4084L153.951 23.1136L151.973 17.5455H153.337L154.594 21.6648H154.651L155.912 17.5455H157.279L155.095 23.6605C154.993 23.9493 154.858 24.1967 154.69 24.4027C154.522 24.611 154.316 24.7696 154.072 24.8786C153.831 24.9898 153.542 25.0455 153.206 25.0455Z" fill="#121212"></path> <path d="M78.6513 112H77.245L79.8054 104.727H81.4318L83.9957 112H82.5895L80.647 106.219H80.5902L78.6513 112ZM78.6974 109.148H82.5327V110.207H78.6974V109.148ZM89.2683 104.528L89.7157 105.359C89.5571 105.497 89.3796 105.596 89.1831 105.658C88.9866 105.719 88.7557 105.759 88.4906 105.778C88.2278 105.795 87.9153 105.807 87.5531 105.814C87.1459 105.823 86.8133 105.9 86.5552 106.045C86.2972 106.189 86.0995 106.408 85.9622 106.702C85.8249 106.993 85.7349 107.365 85.6923 107.817H85.7527C85.9231 107.483 86.1622 107.228 86.47 107.053C86.7778 106.878 87.1388 106.79 87.5531 106.79C88.0053 106.79 88.4042 106.892 88.7498 107.096C89.0978 107.297 89.3689 107.589 89.563 107.973C89.7595 108.357 89.8578 108.821 89.8578 109.365C89.8578 109.926 89.7524 110.413 89.5417 110.825C89.331 111.234 89.0315 111.55 88.6433 111.773C88.2574 111.995 87.7993 112.107 87.269 112.107C86.7411 112.107 86.2818 111.992 85.8912 111.762C85.5029 111.53 85.2022 111.188 84.9892 110.736C84.7785 110.281 84.6731 109.721 84.6731 109.056V108.566C84.6731 107.283 84.9122 106.325 85.3904 105.693C85.8687 105.061 86.5777 104.739 87.5176 104.727C87.7969 104.723 88.0467 104.721 88.2669 104.724C88.4894 104.726 88.6835 104.715 88.8493 104.692C89.015 104.668 89.1547 104.614 89.2683 104.528ZM87.2761 111.077C87.5389 111.077 87.7662 111.009 87.9579 110.874C88.1497 110.737 88.2965 110.543 88.3983 110.292C88.5024 110.041 88.5545 109.744 88.5545 109.401C88.5545 109.062 88.5024 108.774 88.3983 108.538C88.2941 108.299 88.1461 108.116 87.9544 107.991C87.7626 107.865 87.5342 107.803 87.269 107.803C87.0701 107.803 86.8914 107.838 86.7328 107.909C86.5742 107.98 86.4392 108.084 86.3279 108.222C86.2167 108.359 86.1315 108.526 86.0723 108.722C86.0131 108.919 85.9811 109.145 85.9764 109.401C85.9764 109.914 86.0924 110.323 86.3244 110.626C86.5564 110.926 86.8736 111.077 87.2761 111.077ZM92.5211 112.11C92.1755 112.11 91.8642 112.049 91.5872 111.925C91.3126 111.8 91.0948 111.615 90.9338 111.371C90.7752 111.128 90.6958 110.827 90.6958 110.469C90.6958 110.162 90.7527 109.907 90.8663 109.706C90.9799 109.505 91.135 109.344 91.3315 109.223C91.528 109.102 91.7493 109.011 91.9956 108.95C92.2441 108.886 92.501 108.839 92.7662 108.811C93.0858 108.778 93.345 108.748 93.5439 108.722C93.7427 108.694 93.8871 108.651 93.9771 108.594C94.0694 108.535 94.1156 108.444 94.1156 108.321V108.3C94.1156 108.032 94.0363 107.825 93.8777 107.678C93.719 107.531 93.4906 107.458 93.1923 107.458C92.8774 107.458 92.6277 107.527 92.443 107.664C92.2607 107.801 92.1376 107.964 92.0737 108.151L90.8734 107.98C90.9681 107.649 91.1243 107.372 91.3422 107.149C91.56 106.924 91.8263 106.756 92.1412 106.645C92.456 106.531 92.804 106.474 93.1852 106.474C93.448 106.474 93.7096 106.505 93.97 106.567C94.2304 106.628 94.4683 106.73 94.6838 106.872C94.8992 107.012 95.072 107.202 95.2022 107.444C95.3348 107.685 95.4011 107.987 95.4011 108.349V112H94.1653V111.251H94.1227C94.0446 111.402 93.9345 111.544 93.7924 111.677C93.6528 111.807 93.4764 111.912 93.2633 111.993C93.0526 112.071 92.8052 112.11 92.5211 112.11ZM92.8549 111.165C93.113 111.165 93.3367 111.115 93.5261 111.013C93.7155 110.909 93.8611 110.771 93.9629 110.601C94.0671 110.43 94.1191 110.245 94.1191 110.043V109.401C94.0789 109.434 94.0102 109.464 93.9132 109.493C93.8185 109.521 93.7119 109.546 93.5936 109.567C93.4752 109.589 93.358 109.608 93.242 109.624C93.126 109.641 93.0254 109.655 92.9402 109.667C92.7484 109.693 92.5768 109.736 92.4252 109.795C92.2737 109.854 92.1542 109.937 92.0666 110.043C91.979 110.147 91.9352 110.282 91.9352 110.448C91.9352 110.685 92.0216 110.864 92.1944 110.984C92.3672 111.105 92.5874 111.165 92.8549 111.165ZM96.0829 107.6V106.545H100.856V107.6H99.0907V112H97.8478V107.6H96.0829ZM105.018 110.505L106.638 106.545H107.675L105.469 112H104.571L102.415 106.545H103.442L105.018 110.505ZM103.119 106.545V112H101.879V106.545H103.119ZM106.972 112V106.545H108.2V112H106.972ZM111.911 112.107C111.364 112.107 110.892 111.993 110.494 111.766C110.099 111.536 109.795 111.212 109.582 110.793C109.369 110.371 109.262 109.875 109.262 109.305C109.262 108.744 109.369 108.251 109.582 107.827C109.797 107.401 110.098 107.07 110.484 106.833C110.87 106.594 111.323 106.474 111.844 106.474C112.18 106.474 112.497 106.529 112.795 106.638C113.096 106.744 113.361 106.91 113.591 107.135C113.823 107.36 114.005 107.646 114.138 107.994C114.27 108.34 114.337 108.752 114.337 109.23V109.624H109.866V108.758H113.104C113.102 108.512 113.049 108.293 112.945 108.101C112.84 107.907 112.695 107.754 112.508 107.643C112.323 107.531 112.108 107.476 111.862 107.476C111.599 107.476 111.368 107.54 111.169 107.668C110.97 107.793 110.815 107.959 110.704 108.165C110.595 108.368 110.539 108.592 110.537 108.836V109.592C110.537 109.91 110.595 110.182 110.711 110.409C110.827 110.634 110.989 110.807 111.197 110.928C111.406 111.046 111.65 111.105 111.929 111.105C112.116 111.105 112.285 111.079 112.437 111.027C112.588 110.973 112.72 110.893 112.831 110.789C112.942 110.685 113.026 110.556 113.083 110.402L114.283 110.537C114.208 110.854 114.063 111.131 113.85 111.368C113.639 111.602 113.37 111.785 113.04 111.915C112.711 112.043 112.335 112.107 111.911 112.107ZM119.171 108.74V109.795H116.266V108.74H119.171ZM116.664 106.545V112H115.424V106.545H116.664ZM120.012 106.545V112H118.776V106.545H120.012ZM120.702 107.6V106.545H125.475V107.6H123.71V112H122.467V107.6H120.702Z" fill="#121212"></path> <path d="M77.7173 149.727H79.0241V154.685H79.0916L82.5114 149.727H83.6939V157H82.3764V152.046H82.3161L78.8857 157H77.7173V149.727ZM88.2118 155.505L89.8311 151.545H90.8681L88.6628 157H87.7644L85.6088 151.545H86.6351L88.2118 155.505ZM86.312 151.545V157H85.0726V151.545H86.312ZM90.165 157V151.545H91.3936V157H90.165ZM92.6898 157V151.545H97.2956V157H96.0563V152.6H93.9185V157H92.6898ZM98.2411 157L98.234 155.942H98.4222C98.5643 155.942 98.6838 155.91 98.7809 155.846C98.878 155.782 98.9585 155.675 99.0224 155.526C99.0863 155.375 99.136 155.171 99.1715 154.915C99.207 154.66 99.2319 154.341 99.2461 153.96L99.342 151.545H103.319V157H102.076V152.6H100.51L100.425 154.358C100.404 154.812 100.353 155.207 100.272 155.54C100.194 155.872 100.083 156.145 99.9386 156.361C99.7965 156.576 99.6178 156.737 99.4023 156.844C99.1869 156.948 98.9324 157 98.6388 157H98.2411ZM106.183 157.11C105.838 157.11 105.526 157.049 105.249 156.925C104.975 156.8 104.757 156.615 104.596 156.371C104.437 156.128 104.358 155.827 104.358 155.469C104.358 155.162 104.415 154.907 104.528 154.706C104.642 154.505 104.797 154.344 104.994 154.223C105.19 154.102 105.411 154.011 105.658 153.95C105.906 153.886 106.163 153.839 106.428 153.811C106.748 153.778 107.007 153.748 107.206 153.722C107.405 153.694 107.549 153.651 107.639 153.594C107.732 153.535 107.778 153.444 107.778 153.321V153.3C107.778 153.032 107.698 152.825 107.54 152.678C107.381 152.531 107.153 152.458 106.854 152.458C106.54 152.458 106.29 152.527 106.105 152.664C105.923 152.801 105.8 152.964 105.736 153.151L104.536 152.98C104.63 152.649 104.786 152.372 105.004 152.149C105.222 151.924 105.488 151.756 105.803 151.645C106.118 151.531 106.466 151.474 106.847 151.474C107.11 151.474 107.372 151.505 107.632 151.567C107.893 151.628 108.13 151.73 108.346 151.872C108.561 152.012 108.734 152.202 108.864 152.444C108.997 152.685 109.063 152.987 109.063 153.349V157H107.827V156.251H107.785C107.707 156.402 107.597 156.544 107.455 156.677C107.315 156.807 107.138 156.912 106.925 156.993C106.715 157.071 106.467 157.11 106.183 157.11ZM106.517 156.165C106.775 156.165 106.999 156.115 107.188 156.013C107.378 155.909 107.523 155.771 107.625 155.601C107.729 155.43 107.781 155.245 107.781 155.043V154.401C107.741 154.434 107.672 154.464 107.575 154.493C107.481 154.521 107.374 154.546 107.256 154.567C107.137 154.589 107.02 154.608 106.904 154.624C106.788 154.641 106.688 154.655 106.602 154.667C106.411 154.693 106.239 154.736 106.087 154.795C105.936 154.854 105.816 154.937 105.729 155.043C105.641 155.147 105.597 155.282 105.597 155.448C105.597 155.685 105.684 155.864 105.857 155.984C106.029 156.105 106.25 156.165 106.517 156.165ZM114.102 153.74V154.795H111.197V153.74H114.102ZM111.595 151.545V157H110.356V151.545H111.595ZM114.944 151.545V157H113.708V151.545H114.944ZM115.634 152.6V151.545H120.406V152.6H118.642V157H117.399V152.6H115.634ZM122.775 157.11C122.429 157.11 122.118 157.049 121.841 156.925C121.566 156.8 121.349 156.615 121.188 156.371C121.029 156.128 120.95 155.827 120.95 155.469C120.95 155.162 121.007 154.907 121.12 154.706C121.234 154.505 121.389 154.344 121.585 154.223C121.782 154.102 122.003 154.011 122.249 153.95C122.498 153.886 122.755 153.839 123.02 153.811C123.34 153.778 123.599 153.748 123.798 153.722C123.997 153.694 124.141 153.651 124.231 153.594C124.323 153.535 124.369 153.444 124.369 153.321V153.3C124.369 153.032 124.29 152.825 124.132 152.678C123.973 152.531 123.744 152.458 123.446 152.458C123.131 152.458 122.882 152.527 122.697 152.664C122.515 152.801 122.392 152.964 122.328 153.151L121.127 152.98C121.222 152.649 121.378 152.372 121.596 152.149C121.814 151.924 122.08 151.756 122.395 151.645C122.71 151.531 123.058 151.474 123.439 151.474C123.702 151.474 123.963 151.505 124.224 151.567C124.484 151.628 124.722 151.73 124.938 151.872C125.153 152.012 125.326 152.202 125.456 152.444C125.589 152.685 125.655 152.987 125.655 153.349V157H124.419V156.251H124.377C124.298 156.402 124.188 156.544 124.046 156.677C123.907 156.807 123.73 156.912 123.517 156.993C123.307 157.071 123.059 157.11 122.775 157.11ZM123.109 156.165C123.367 156.165 123.591 156.115 123.78 156.013C123.969 155.909 124.115 155.771 124.217 155.601C124.321 155.43 124.373 155.245 124.373 155.043V154.401C124.333 154.434 124.264 154.464 124.167 154.493C124.072 154.521 123.966 154.546 123.847 154.567C123.729 154.589 123.612 154.608 123.496 154.624C123.38 154.641 123.279 154.655 123.194 154.667C123.002 154.693 122.831 154.736 122.679 154.795C122.528 154.854 122.408 154.937 122.32 155.043C122.233 155.147 122.189 155.282 122.189 155.448C122.189 155.685 122.276 155.864 122.448 155.984C122.621 156.105 122.841 156.165 123.109 156.165ZM126.337 152.6V151.545H131.11V152.6H129.345V157H128.102V152.6H126.337Z" fill="#121212"></path> </svg> 