<?xml version="1.0" encoding="UTF-8"?> <svg xmlns="http://www.w3.org/2000/svg" width="25" height="17" viewBox="0 0 25 17" fill="none"> <mask id="mask0_546_1767" style="mask-type:alpha" maskUnits="userSpaceOnUse" x="0" y="0" width="25" height="17"> <path d="M23 0H2C0.89543 0 0 0.89543 0 2V14.6667C0 15.7712 0.89543 16.6667 2 16.6667H23C24.1046 16.6667 25 15.7712 25 14.6667V2C25 0.895431 24.1046 0 23 0Z" fill="#F4F4F4"></path> </mask> <g mask="url(#mask0_546_1767)"> <path d="M24.5689 16.6667H0.431054C0.193017 16.6667 0 16.4703 0 16.2281V0.438616C0 0.196403 0.193017 0 0.431054 0H24.5689C24.807 0 25 0.196403 25 0.438616V16.2281C25 16.4703 24.8069 16.6667 24.5689 16.6667Z" fill="#F5F5F5"></path> <path d="M25 1.28211H0V0.438616C0 0.196403 0.193017 0 0.431054 0H24.5689C24.807 0 25 0.196403 25 0.438616L25 1.28211Z" fill="#FF4B55"></path> <path d="M25 5.12793H0V6.40999H25V5.12793Z" fill="#FF4B55"></path> <path d="M25 2.56396H0V3.84603H25V2.56396Z" fill="#FF4B55"></path> <path d="M25 8.97437H0.431054C0.193017 8.97437 0 8.77797 0 8.53576V7.69226H25V8.97437Z" fill="#FF4B55"></path> <path d="M25 12.8209H0V14.103H25V12.8209Z" fill="#FF4B55"></path> <path d="M24.5689 16.6667H0.431054C0.193017 16.6667 0 16.4703 0 16.2281V15.3846H25V16.2281C25 16.4704 24.8069 16.6667 24.5689 16.6667Z" fill="#FF4B55"></path> <path d="M25 10.2565H0V11.5385H25V10.2565Z" fill="#FF4B55"></path> <path d="M11.2069 0H0.431054C0.193017 0 0 0.196354 0 0.438566V8.53567C0 8.77789 0.193017 8.97429 0.431054 8.97429H11.2069C11.4449 8.97429 11.638 8.77789 11.638 8.53567V0.438566C11.6379 0.196354 11.4449 0 11.2069 0Z" fill="#41479B"></path> <path d="M1.17853 1.0063L1.27394 1.29746L1.57555 1.29979C1.61462 1.30014 1.63078 1.35082 1.59938 1.37442L1.35675 1.55676L1.44777 1.84935C1.45959 1.88721 1.41715 1.91861 1.38537 1.89546L1.14001 1.71704L0.894646 1.89551C0.862859 1.91861 0.820525 1.88726 0.832244 1.8494L0.923259 1.55681L0.680633 1.37447C0.649236 1.35082 0.665398 1.30019 0.704461 1.29984L1.00607 1.29751L1.10148 1.00635C1.11379 0.968593 1.16613 0.968593 1.17853 1.0063Z" fill="#F5F5F5"></path> <path d="M1.17853 2.52934L1.27394 2.82049L1.57555 2.82283C1.61462 2.82317 1.63078 2.87385 1.59938 2.89745L1.35675 3.07979L1.44777 3.37239C1.45959 3.41025 1.41715 3.44165 1.38537 3.41849L1.14001 3.24008L0.894646 3.41854C0.862859 3.44165 0.820525 3.4103 0.832244 3.37244L0.923259 3.07984L0.680633 2.8975C0.649236 2.87385 0.665398 2.82322 0.704461 2.82288L1.00607 2.82054L1.10148 2.52939C1.11379 2.49168 1.16613 2.49168 1.17853 2.52934Z" fill="#F5F5F5"></path> <path d="M1.17853 4.05217L1.27394 4.34332L1.57555 4.34565C1.61462 4.346 1.63078 4.39668 1.59938 4.42028L1.35675 4.60262L1.44777 4.89521C1.45959 4.93307 1.41715 4.96448 1.38537 4.94132L1.14001 4.7629L0.894646 4.94137C0.862859 4.96447 0.820525 4.93312 0.832244 4.89526L0.923259 4.60267L0.680633 4.42033C0.649236 4.39668 0.665398 4.34605 0.704461 4.3457L1.00607 4.34337L1.10148 4.05222C1.11379 4.0145 1.16613 4.0145 1.17853 4.05217Z" fill="#F5F5F5"></path> <path d="M1.17853 5.57552L1.27394 5.86667L1.57555 5.86901C1.61462 5.86935 1.63078 5.92003 1.59938 5.94363L1.35675 6.12597L1.44777 6.41857C1.45959 6.45643 1.41715 6.48783 1.38537 6.46467L1.14001 6.28626L0.894646 6.46472C0.862859 6.48783 0.820525 6.45648 0.832244 6.41862L0.923259 6.12602L0.680633 5.94368C0.649236 5.92003 0.665398 5.8694 0.704461 5.86905L1.00607 5.86672L1.10148 5.57557C1.11379 5.53781 1.16613 5.53781 1.17853 5.57552Z" fill="#F5F5F5"></path> <path d="M1.17853 7.09838L1.27394 7.38953L1.57555 7.39187C1.61462 7.39222 1.63078 7.4429 1.59938 7.4665L1.35675 7.64884L1.44777 7.94143C1.45959 7.97929 1.41715 8.01069 1.38537 7.98754L1.14001 7.80912L0.894646 7.98759C0.862859 8.01069 0.820525 7.97934 0.832244 7.94148L0.923259 7.64889L0.680633 7.46655C0.649236 7.4429 0.665398 7.39227 0.704461 7.39192L1.00607 7.38958L1.10148 7.09843C1.11379 7.06062 1.16613 7.06062 1.17853 7.09838Z" fill="#F5F5F5"></path> <path d="M2.34259 1.7531L2.438 2.04425L2.73962 2.04659C2.77868 2.04693 2.79484 2.09761 2.76344 2.12121L2.52082 2.30356L2.61183 2.59615C2.62365 2.63401 2.58122 2.66541 2.54943 2.64226L2.30407 2.46379L2.05871 2.64226C2.02692 2.66536 1.98459 2.63401 1.99631 2.59615L2.08732 2.30356L1.8447 2.12121C1.8133 2.09756 1.82946 2.04693 1.86852 2.04659L2.17013 2.04425L2.26554 1.7531C2.2778 1.71544 2.33024 1.71544 2.34259 1.7531Z" fill="#F5F5F5"></path> <path d="M2.34259 3.27633L2.438 3.56748L2.73962 3.56982C2.77868 3.57016 2.79484 3.62084 2.76344 3.64444L2.52082 3.82679L2.61183 4.11938C2.62365 4.15724 2.58122 4.18864 2.54943 4.16549L2.30407 3.98702L2.05871 4.16549C2.02692 4.18859 1.98459 4.15729 1.99631 4.11938L2.08732 3.82679L1.8447 3.64444C1.8133 3.62079 1.82946 3.57016 1.86852 3.56982L2.17013 3.56748L2.26554 3.27633C2.2778 3.23862 2.33024 3.23862 2.34259 3.27633Z" fill="#F5F5F5"></path> <path d="M2.34259 4.79928L2.438 5.09043L2.73962 5.09277C2.77868 5.09311 2.79484 5.14379 2.76344 5.16739L2.52082 5.34974L2.61183 5.64233C2.62365 5.68019 2.58122 5.71159 2.54943 5.68844L2.30407 5.50997L2.05871 5.68844C2.02692 5.71154 1.98459 5.68019 1.99631 5.64233L2.08732 5.34974L1.8447 5.16739C1.8133 5.14374 1.82946 5.09311 1.86852 5.09277L2.17013 5.09043L2.26554 4.79928C2.2778 4.76157 2.33024 4.76157 2.34259 4.79928Z" fill="#F5F5F5"></path> <path d="M2.34259 6.32219L2.438 6.61334L2.73962 6.61568C2.77868 6.61603 2.79484 6.6667 2.76344 6.6903L2.52082 6.87265L2.61183 7.16524C2.62365 7.2031 2.58122 7.2345 2.54943 7.21135L2.30407 7.03288L2.05871 7.21135C2.02692 7.23445 1.98459 7.2031 1.99631 7.16524L2.08732 6.87265L1.8447 6.6903C1.8133 6.66665 1.82946 6.61603 1.86852 6.61568L2.17013 6.61334L2.26554 6.32219C2.2778 6.28453 2.33024 6.28453 2.34259 6.32219Z" fill="#F5F5F5"></path> <path d="M3.50666 1.00631L3.60207 1.29746L3.90368 1.2998C3.94274 1.30015 3.9589 1.35082 3.92751 1.37442L3.68488 1.55677L3.77589 1.84936C3.78771 1.88722 3.74528 1.91862 3.71349 1.89547L3.46813 1.717L3.22277 1.89547C3.19098 1.91857 3.14865 1.88722 3.16037 1.84936L3.25138 1.55677L3.00876 1.37442C2.97736 1.35077 2.99352 1.30015 3.03259 1.2998L3.3342 1.29746L3.42961 1.00631C3.44191 0.9686 3.4943 0.9686 3.50666 1.00631Z" fill="#F5F5F5"></path> <path d="M3.50666 2.52922L3.60207 2.82037L3.90368 2.82271C3.94274 2.82306 3.9589 2.87374 3.92751 2.89734L3.68488 3.07968L3.77589 3.37227C3.78771 3.41013 3.74528 3.44153 3.71349 3.41838L3.46813 3.23991L3.22277 3.41838C3.19098 3.44148 3.14865 3.41013 3.16037 3.37227L3.25138 3.07968L3.00876 2.89734C2.97736 2.87369 2.99352 2.82306 3.03259 2.82271L3.3342 2.82037L3.42961 2.52922C3.44191 2.49156 3.4943 2.49156 3.50666 2.52922Z" fill="#F5F5F5"></path> <path d="M3.50666 4.05217L3.60207 4.34332L3.90368 4.34566C3.94274 4.34601 3.9589 4.39669 3.92751 4.42029L3.68488 4.60263L3.77589 4.89522C3.78771 4.93308 3.74528 4.96448 3.71349 4.94133L3.46813 4.76286L3.22277 4.94133C3.19098 4.96443 3.14865 4.93308 3.16037 4.89522L3.25138 4.60263L3.00876 4.42029C2.97736 4.39664 2.99352 4.34601 3.03259 4.34566L3.3342 4.34332L3.42961 4.05217C3.44191 4.01451 3.4943 4.01451 3.50666 4.05217Z" fill="#F5F5F5"></path> <path d="M3.50666 5.57516L3.60207 5.86631L3.90368 5.86865C3.94274 5.86899 3.9589 5.91967 3.92751 5.94327L3.68488 6.12561L3.77589 6.41821C3.78771 6.45607 3.74528 6.48747 3.71349 6.46431L3.46813 6.28585L3.22277 6.46431C3.19098 6.48742 3.14865 6.45607 3.16037 6.41821L3.25138 6.12561L3.00876 5.94327C2.97736 5.91962 2.99352 5.86899 3.03259 5.86865L3.3342 5.86631L3.42961 5.57516C3.44191 5.53745 3.4943 5.53745 3.50666 5.57516Z" fill="#F5F5F5"></path> <path d="M3.50666 7.09839L3.60207 7.38954L3.90368 7.39188C3.94274 7.39222 3.9589 7.4429 3.92751 7.4665L3.68488 7.64884L3.77589 7.94144C3.78771 7.9793 3.74528 8.0107 3.71349 7.98754L3.46813 7.80908L3.22277 7.98754C3.19098 8.01065 3.14865 7.9793 3.16037 7.94144L3.25138 7.64884L3.00876 7.4665C2.97736 7.44285 2.99352 7.39222 3.03259 7.39188L3.3342 7.38954L3.42961 7.09839C3.44191 7.06063 3.4943 7.06063 3.50666 7.09839Z" fill="#F5F5F5"></path> <path d="M4.67072 1.75334L4.76613 2.0445L5.06774 2.04683C5.1068 2.04718 5.12297 2.09786 5.09157 2.12146L4.84894 2.3038L4.93996 2.59639C4.95177 2.63425 4.90934 2.66565 4.87756 2.6425L4.63219 2.46403L4.38683 2.6425C4.35505 2.6656 4.31271 2.63425 4.32443 2.59639L4.41545 2.3038L4.17282 2.12146C4.14142 2.09781 4.15759 2.04718 4.19665 2.04683L4.49826 2.0445L4.59367 1.75334C4.60593 1.71568 4.65837 1.71568 4.67072 1.75334Z" fill="#F5F5F5"></path> <path d="M4.67072 3.27633L4.76613 3.56748L5.06774 3.56982C5.1068 3.57016 5.12297 3.62084 5.09157 3.64444L4.84894 3.82679L4.93996 4.11938C4.95177 4.15724 4.90934 4.18864 4.87756 4.16549L4.63219 3.98702L4.38683 4.16549C4.35505 4.18859 4.31271 4.15729 4.32443 4.11938L4.41545 3.82679L4.17282 3.64444C4.14142 3.62079 4.15759 3.57016 4.19665 3.56982L4.49826 3.56748L4.59367 3.27633C4.60593 3.23862 4.65837 3.23862 4.67072 3.27633Z" fill="#F5F5F5"></path> <path d="M4.67072 4.79928L4.76613 5.09043L5.06774 5.09277C5.1068 5.09311 5.12297 5.14379 5.09157 5.16739L4.84894 5.34974L4.93996 5.64233C4.95177 5.68019 4.90934 5.71159 4.87756 5.68844L4.63219 5.50997L4.38683 5.68844C4.35505 5.71154 4.31271 5.68019 4.32443 5.64233L4.41545 5.34974L4.17282 5.16739C4.14142 5.14374 4.15759 5.09311 4.19665 5.09277L4.49826 5.09043L4.59367 4.79928C4.60593 4.76157 4.65837 4.76157 4.67072 4.79928Z" fill="#F5F5F5"></path> <path d="M4.67072 6.32219L4.76613 6.61334L5.06774 6.61568C5.1068 6.61603 5.12297 6.6667 5.09157 6.6903L4.84894 6.87265L4.93996 7.16524C4.95177 7.2031 4.90934 7.2345 4.87756 7.21135L4.63219 7.03288L4.38683 7.21135C4.35505 7.23445 4.31271 7.2031 4.32443 7.16524L4.41545 6.87265L4.17282 6.6903C4.14142 6.66665 4.15759 6.61603 4.19665 6.61568L4.49826 6.61334L4.59367 6.32219C4.60593 6.28453 4.65837 6.28453 4.67072 6.32219Z" fill="#F5F5F5"></path> <path d="M5.82702 1.00631L5.92243 1.29746L6.22404 1.2998C6.2631 1.30015 6.27926 1.35082 6.24787 1.37442L6.00524 1.55677L6.09626 1.84936C6.10807 1.88722 6.06564 1.91862 6.03385 1.89547L5.78844 1.717L5.54308 1.89547C5.5113 1.91857 5.46896 1.88722 5.48068 1.84936L5.5717 1.55677L5.32907 1.37442C5.29767 1.35077 5.31384 1.30015 5.3529 1.2998L5.65451 1.29746L5.74992 1.00631C5.76227 0.9686 5.81466 0.9686 5.82702 1.00631Z" fill="#F5F5F5"></path> <path d="M5.82702 2.52922L5.92243 2.82037L6.22404 2.82271C6.2631 2.82306 6.27926 2.87374 6.24787 2.89734L6.00524 3.07968L6.09626 3.37227C6.10807 3.41013 6.06564 3.44153 6.03385 3.41838L5.78844 3.23991L5.54308 3.41838C5.5113 3.44148 5.46896 3.41013 5.48068 3.37227L5.5717 3.07968L5.32907 2.89734C5.29767 2.87369 5.31384 2.82306 5.3529 2.82271L5.65451 2.82037L5.74992 2.52922C5.76227 2.49156 5.81466 2.49156 5.82702 2.52922Z" fill="#F5F5F5"></path> <path d="M5.82702 4.05217L5.92243 4.34332L6.22404 4.34566C6.2631 4.34601 6.27926 4.39669 6.24787 4.42029L6.00524 4.60263L6.09626 4.89522C6.10807 4.93308 6.06564 4.96448 6.03385 4.94133L5.78844 4.76286L5.54308 4.94133C5.5113 4.96443 5.46896 4.93308 5.48068 4.89522L5.5717 4.60263L5.32907 4.42029C5.29767 4.39664 5.31384 4.34601 5.3529 4.34566L5.65451 4.34332L5.74992 4.05217C5.76227 4.01451 5.81466 4.01451 5.82702 4.05217Z" fill="#F5F5F5"></path> <path d="M5.82702 5.57516L5.92243 5.86631L6.22404 5.86865C6.2631 5.86899 6.27926 5.91967 6.24787 5.94327L6.00524 6.12561L6.09626 6.41821C6.10807 6.45607 6.06564 6.48747 6.03385 6.46431L5.78844 6.28585L5.54308 6.46431C5.5113 6.48742 5.46896 6.45607 5.48068 6.41821L5.5717 6.12561L5.32907 5.94327C5.29767 5.91962 5.31384 5.86899 5.3529 5.86865L5.65451 5.86631L5.74992 5.57516C5.76227 5.53745 5.81466 5.53745 5.82702 5.57516Z" fill="#F5F5F5"></path> <path d="M5.82702 7.09839L5.92243 7.38954L6.22404 7.39188C6.2631 7.39222 6.27926 7.4429 6.24787 7.4665L6.00524 7.64884L6.09626 7.94144C6.10807 7.9793 6.06564 8.0107 6.03385 7.98754L5.78844 7.80908L5.54308 7.98754C5.5113 8.01065 5.46896 7.9793 5.48068 7.94144L5.5717 7.64884L5.32907 7.4665C5.29767 7.44285 5.31384 7.39222 5.3529 7.39188L5.65451 7.38954L5.74992 7.09839C5.76227 7.06063 5.81466 7.06063 5.82702 7.09839Z" fill="#F5F5F5"></path> <path d="M6.99103 1.75334L7.08644 2.0445L7.38805 2.04683C7.42712 2.04718 7.44328 2.09786 7.41188 2.12146L7.16925 2.3038L7.26027 2.59639C7.27209 2.63425 7.22965 2.66565 7.19787 2.6425L6.95251 2.46403L6.70715 2.6425C6.67536 2.6656 6.63302 2.63425 6.64474 2.59639L6.73576 2.3038L6.49313 2.12146C6.46174 2.09781 6.4779 2.04718 6.51696 2.04683L6.81857 2.0445L6.91398 1.75334C6.92634 1.71568 6.97868 1.71568 6.99103 1.75334Z" fill="#F5F5F5"></path> <path d="M6.99103 3.27633L7.08644 3.56748L7.38805 3.56982C7.42712 3.57016 7.44328 3.62084 7.41188 3.64444L7.16925 3.82679L7.26027 4.11938C7.27209 4.15724 7.22965 4.18864 7.19787 4.16549L6.95251 3.98702L6.70715 4.16549C6.67536 4.18859 6.63302 4.15729 6.64474 4.11938L6.73576 3.82679L6.49313 3.64444C6.46174 3.62079 6.4779 3.57016 6.51696 3.56982L6.81857 3.56748L6.91398 3.27633C6.92634 3.23862 6.97868 3.23862 6.99103 3.27633Z" fill="#F5F5F5"></path> <path d="M6.99103 4.79928L7.08644 5.09043L7.38805 5.09277C7.42712 5.09311 7.44328 5.14379 7.41188 5.16739L7.16925 5.34974L7.26027 5.64233C7.27209 5.68019 7.22965 5.71159 7.19787 5.68844L6.95251 5.50997L6.70715 5.68844C6.67536 5.71154 6.63302 5.68019 6.64474 5.64233L6.73576 5.34974L6.49313 5.16739C6.46174 5.14374 6.4779 5.09311 6.51696 5.09277L6.81857 5.09043L6.91398 4.79928C6.92634 4.76157 6.97868 4.76157 6.99103 4.79928Z" fill="#F5F5F5"></path> <path d="M6.99103 6.32219L7.08644 6.61334L7.38805 6.61568C7.42712 6.61603 7.44328 6.6667 7.41188 6.6903L7.16925 6.87265L7.26027 7.16524C7.27209 7.2031 7.22965 7.2345 7.19787 7.21135L6.95251 7.03288L6.70715 7.21135C6.67536 7.23445 6.63302 7.2031 6.64474 7.16524L6.73576 6.87265L6.49313 6.6903C6.46174 6.66665 6.4779 6.61603 6.51696 6.61568L6.81857 6.61334L6.91398 6.32219C6.92634 6.28453 6.97868 6.28453 6.99103 6.32219Z" fill="#F5F5F5"></path> <path d="M8.15509 1.00631L8.2505 1.29746L8.55211 1.2998C8.59118 1.30015 8.60734 1.35082 8.57594 1.37442L8.33332 1.55677L8.42433 1.84936C8.43615 1.88722 8.39372 1.91862 8.36193 1.89547L8.11657 1.717L7.87121 1.89547C7.83942 1.91857 7.79709 1.88722 7.80881 1.84936L7.89982 1.55677L7.6572 1.37442C7.6258 1.35077 7.64196 1.30015 7.68102 1.2998L7.98263 1.29746L8.07804 1.00631C8.0903 0.9686 8.14274 0.9686 8.15509 1.00631Z" fill="#F5F5F5"></path> <path d="M8.15509 2.52922L8.2505 2.82037L8.55211 2.82271C8.59118 2.82306 8.60734 2.87374 8.57594 2.89734L8.33332 3.07968L8.42433 3.37227C8.43615 3.41013 8.39372 3.44153 8.36193 3.41838L8.11657 3.23991L7.87121 3.41838C7.83942 3.44148 7.79709 3.41013 7.80881 3.37227L7.89982 3.07968L7.6572 2.89734C7.6258 2.87369 7.64196 2.82306 7.68102 2.82271L7.98263 2.82037L8.07804 2.52922C8.0903 2.49156 8.14274 2.49156 8.15509 2.52922Z" fill="#F5F5F5"></path> <path d="M8.15509 4.05217L8.2505 4.34332L8.55211 4.34566C8.59118 4.34601 8.60734 4.39669 8.57594 4.42029L8.33332 4.60263L8.42433 4.89522C8.43615 4.93308 8.39372 4.96448 8.36193 4.94133L8.11657 4.76286L7.87121 4.94133C7.83942 4.96443 7.79709 4.93308 7.80881 4.89522L7.89982 4.60263L7.6572 4.42029C7.6258 4.39664 7.64196 4.34601 7.68102 4.34566L7.98263 4.34332L8.07804 4.05217C8.0903 4.01451 8.14274 4.01451 8.15509 4.05217Z" fill="#F5F5F5"></path> <path d="M8.15509 5.57516L8.2505 5.86631L8.55211 5.86865C8.59118 5.86899 8.60734 5.91967 8.57594 5.94327L8.33332 6.12561L8.42433 6.41821C8.43615 6.45607 8.39372 6.48747 8.36193 6.46431L8.11657 6.28585L7.87121 6.46431C7.83942 6.48742 7.79709 6.45607 7.80881 6.41821L7.89982 6.12561L7.6572 5.94327C7.6258 5.91962 7.64196 5.86899 7.68102 5.86865L7.98263 5.86631L8.07804 5.57516C8.0903 5.53745 8.14274 5.53745 8.15509 5.57516Z" fill="#F5F5F5"></path> <path d="M8.15509 7.09839L8.2505 7.38954L8.55211 7.39188C8.59118 7.39222 8.60734 7.4429 8.57594 7.4665L8.33332 7.64884L8.42433 7.94144C8.43615 7.9793 8.39372 8.0107 8.36193 7.98754L8.11657 7.80908L7.87121 7.98754C7.83942 8.01065 7.79709 7.9793 7.80881 7.94144L7.89982 7.64884L7.6572 7.4665C7.6258 7.44285 7.64196 7.39222 7.68102 7.39188L7.98263 7.38954L8.07804 7.09839C8.0903 7.06063 8.14274 7.06063 8.15509 7.09839Z" fill="#F5F5F5"></path> <path d="M9.31916 1.75334L9.41457 2.0445L9.71618 2.04683C9.75524 2.04718 9.7714 2.09786 9.74001 2.12146L9.49738 2.3038L9.58839 2.59639C9.60021 2.63425 9.55778 2.66565 9.52599 2.6425L9.28063 2.46403L9.03527 2.6425C9.00348 2.6656 8.96115 2.63425 8.97287 2.59639L9.06388 2.3038L8.82126 2.12146C8.78986 2.09781 8.80602 2.04718 8.84509 2.04683L9.1467 2.0445L9.24211 1.75334C9.25441 1.71568 9.30685 1.71568 9.31916 1.75334Z" fill="#F5F5F5"></path> <path d="M9.31916 3.27633L9.41457 3.56748L9.71618 3.56982C9.75524 3.57016 9.7714 3.62084 9.74001 3.64444L9.49738 3.82679L9.58839 4.11938C9.60021 4.15724 9.55778 4.18864 9.52599 4.16549L9.28063 3.98702L9.03527 4.16549C9.00348 4.18859 8.96115 4.15729 8.97287 4.11938L9.06388 3.82679L8.82126 3.64444C8.78986 3.62079 8.80602 3.57016 8.84509 3.56982L9.1467 3.56748L9.24211 3.27633C9.25441 3.23862 9.30685 3.23862 9.31916 3.27633Z" fill="#F5F5F5"></path> <path d="M9.31916 4.79928L9.41457 5.09043L9.71618 5.09277C9.75524 5.09311 9.7714 5.14379 9.74001 5.16739L9.49738 5.34974L9.58839 5.64233C9.60021 5.68019 9.55778 5.71159 9.52599 5.68844L9.28063 5.50997L9.03527 5.68844C9.00348 5.71154 8.96115 5.68019 8.97287 5.64233L9.06388 5.34974L8.82126 5.16739C8.78986 5.14374 8.80602 5.09311 8.84509 5.09277L9.1467 5.09043L9.24211 4.79928C9.25441 4.76157 9.30685 4.76157 9.31916 4.79928Z" fill="#F5F5F5"></path> <path d="M9.31916 6.32219L9.41457 6.61334L9.71618 6.61568C9.75524 6.61603 9.7714 6.6667 9.74001 6.6903L9.49738 6.87265L9.58839 7.16524C9.60021 7.2031 9.55778 7.2345 9.52599 7.21135L9.28063 7.03288L9.03527 7.21135C9.00348 7.23445 8.96115 7.2031 8.97287 7.16524L9.06388 6.87265L8.82126 6.6903C8.78986 6.66665 8.80602 6.61603 8.84509 6.61568L9.1467 6.61334L9.24211 6.32219C9.25441 6.28453 9.30685 6.28453 9.31916 6.32219Z" fill="#F5F5F5"></path> <path d="M10.4832 1.00631L10.5786 1.29746L10.8802 1.2998C10.9193 1.30015 10.9355 1.35082 10.9041 1.37442L10.6614 1.55677L10.7525 1.84936C10.7643 1.88722 10.7218 1.91862 10.6901 1.89547L10.4447 1.717L10.1993 1.89547C10.1675 1.91857 10.1252 1.88722 10.1369 1.84936L10.2279 1.55677L9.98532 1.37442C9.95392 1.35077 9.97009 1.30015 10.0091 1.2998L10.3108 1.29746L10.4062 1.00631C10.4185 0.9686 10.4708 0.9686 10.4832 1.00631Z" fill="#F5F5F5"></path> <path d="M10.4832 2.52922L10.5786 2.82037L10.8802 2.82271C10.9193 2.82306 10.9355 2.87374 10.9041 2.89734L10.6614 3.07968L10.7525 3.37227C10.7643 3.41013 10.7218 3.44153 10.6901 3.41838L10.4447 3.23991L10.1993 3.41838C10.1675 3.44148 10.1252 3.41013 10.1369 3.37227L10.2279 3.07968L9.98532 2.89734C9.95392 2.87369 9.97009 2.82306 10.0091 2.82271L10.3108 2.82037L10.4062 2.52922C10.4185 2.49156 10.4708 2.49156 10.4832 2.52922Z" fill="#F5F5F5"></path> <path d="M10.4832 4.05217L10.5786 4.34332L10.8802 4.34566C10.9193 4.34601 10.9355 4.39669 10.9041 4.42029L10.6614 4.60263L10.7525 4.89522C10.7643 4.93308 10.7218 4.96448 10.6901 4.94133L10.4447 4.76286L10.1993 4.94133C10.1675 4.96443 10.1252 4.93308 10.1369 4.89522L10.2279 4.60263L9.98532 4.42029C9.95392 4.39664 9.97009 4.34601 10.0091 4.34566L10.3108 4.34332L10.4062 4.05217C10.4185 4.01451 10.4708 4.01451 10.4832 4.05217Z" fill="#F5F5F5"></path> <path d="M10.4832 5.57516L10.5786 5.86631L10.8802 5.86865C10.9193 5.86899 10.9355 5.91967 10.9041 5.94327L10.6614 6.12561L10.7525 6.41821C10.7643 6.45607 10.7218 6.48747 10.6901 6.46431L10.4447 6.28585L10.1993 6.46431C10.1675 6.48742 10.1252 6.45607 10.1369 6.41821L10.2279 6.12561L9.98532 5.94327C9.95392 5.91962 9.97009 5.86899 10.0091 5.86865L10.3108 5.86631L10.4062 5.57516C10.4185 5.53745 10.4708 5.53745 10.4832 5.57516Z" fill="#F5F5F5"></path> <path d="M10.4832 7.09839L10.5786 7.38954L10.8802 7.39188C10.9193 7.39222 10.9355 7.4429 10.9041 7.4665L10.6614 7.64884L10.7525 7.94144C10.7643 7.9793 10.7218 8.0107 10.6901 7.98754L10.4447 7.80908L10.1993 7.98754C10.1675 8.01065 10.1252 7.9793 10.1369 7.94144L10.2279 7.64884L9.98532 7.4665C9.95392 7.44285 9.97009 7.39222 10.0091 7.39188L10.3108 7.38954L10.4062 7.09839C10.4185 7.06063 10.4708 7.06063 10.4832 7.09839Z" fill="#F5F5F5"></path> </g> </svg> 