<?xml version="1.0" encoding="UTF-8"?> <svg xmlns="http://www.w3.org/2000/svg" width="26" height="16" viewBox="0 0 26 16" fill="none"><mask id="mask0_1782_502" style="mask-type:alpha" maskUnits="userSpaceOnUse" x="0" y="0" width="26" height="16"><path d="M23.1429 0H2C0.89543 0 0 0.895431 0 2V14C0 15.1045 0.895428 16 2 16H23.1429C24.2474 16 25.1429 15.1045 25.1429 14V2C25.1429 0.895431 24.2474 0 23.1429 0Z" fill="black"></path></mask><g mask="url(#mask0_1782_502)"><path d="M-9.17938e-07 0L0 16L8 16L8 -2.66432e-07L-9.17938e-07 0Z" fill="#19087A"></path><path d="M8 0L8 16L17 16L17 -1.91831e-07L8 0Z" fill="white"></path><path d="M17 0L17 16L25 16L25 -1.70516e-07L17 0Z" fill="#F71008"></path></g></svg> 