<?xml version="1.0" encoding="UTF-8"?> <svg xmlns="http://www.w3.org/2000/svg" width="379" height="379" viewBox="0 0 379 379" fill="none"><circle cx="189.5" cy="189.5" r="189.5" fill="white"></circle><path d="M151.378 208.654C143.412 225.737 126.616 261.757 123.157 269.173C120.744 274.349 140.428 269.053 145.352 271.349" stroke="#005DA9" stroke-width="13.265"></path><path d="M189.5 226.438C181.534 243.521 164.738 279.541 161.279 286.957C158.866 292.133 150.27 273.65 145.346 271.354" stroke="#005DA9" stroke-width="13.265"></path><path d="M227.622 208.654C235.588 225.737 252.384 261.757 255.843 269.173C258.256 274.349 238.572 269.053 233.648 271.349" stroke="#005DA9" stroke-width="13.265"></path><path d="M189.5 226.438C197.466 243.521 214.262 279.541 217.721 286.957C220.134 292.133 228.73 273.65 233.654 271.354" stroke="#005DA9" stroke-width="13.265"></path><path d="M181.982 100.544C185.763 95.6008 193.209 95.6008 196.991 100.544V100.544C199.756 104.159 204.705 105.289 208.765 103.232V103.232C214.317 100.419 221.026 103.649 222.288 109.744V109.744C223.211 114.201 227.18 117.366 231.73 117.274V117.274C237.953 117.149 242.596 122.97 241.088 129.009V129.009C239.986 133.425 242.189 137.999 246.329 139.89V139.89C251.99 142.477 253.647 149.736 249.668 154.523V154.523C246.759 158.023 246.759 163.1 249.668 166.6V166.6C253.647 171.387 251.99 178.646 246.329 181.233V181.233C242.189 183.124 239.986 187.698 241.088 192.114V192.114C242.596 198.153 237.953 203.974 231.73 203.849V203.849C227.18 203.757 223.211 206.922 222.288 211.379V211.379C221.026 217.474 214.317 220.704 208.765 217.891V217.891C204.705 215.834 199.756 216.964 196.991 220.579V220.579C193.209 225.522 185.763 225.522 181.982 220.579V220.579C179.217 216.964 174.267 215.834 170.207 217.891V217.891C164.655 220.704 157.947 217.474 156.685 211.379V211.379C155.762 206.922 151.792 203.757 147.242 203.849V203.849C141.019 203.974 136.377 198.153 137.884 192.114V192.114C138.986 187.698 136.783 183.124 132.644 181.233V181.233C126.983 178.646 125.326 171.387 129.304 166.6V166.6C132.213 163.1 132.213 158.023 129.304 154.523V154.523C125.326 149.736 126.983 142.477 132.644 139.89V139.89C136.783 137.999 138.986 133.425 137.884 129.009V129.009C136.377 122.97 141.019 117.149 147.242 117.274V117.274C151.792 117.366 155.762 114.201 156.685 109.744V109.744C157.947 103.649 164.655 100.419 170.207 103.232V103.232C174.267 105.289 179.217 104.159 181.982 100.544V100.544Z" stroke="#005DA9" stroke-width="13.265"></path></svg> 