<?xml version="1.0" encoding="UTF-8"?> <svg xmlns="http://www.w3.org/2000/svg" width="28" height="21" viewBox="0 0 28 21" fill="none"> <rect width="28" height="21" fill="white" fill-opacity="0.5"></rect> <path d="M6.30682 16.1136V13.0625H6.86932C7.0625 12.8864 7.24432 12.6378 7.41477 12.3168C7.58807 11.9929 7.73438 11.5611 7.85369 11.0213C7.97585 10.4787 8.05682 9.78977 8.09659 8.95455L8.28409 5.27273H13.4659V13.0625H14.4716V16.0966H13.4659V14H7.3125V16.1136H6.30682ZM8.13068 13.0625H12.4602V6.21023H9.23864L9.10227 8.95455C9.06818 9.59091 9.00852 10.1676 8.9233 10.6847C8.83807 11.1989 8.72869 11.6548 8.59517 12.0526C8.46165 12.4474 8.30682 12.7841 8.13068 13.0625ZM18.5913 14.1364C18.0004 14.1364 17.4819 13.9957 17.0359 13.7145C16.5927 13.4332 16.2461 13.0398 15.9961 12.5341C15.7489 12.0284 15.6254 11.4375 15.6254 10.7614C15.6254 10.0795 15.7489 9.48437 15.9961 8.97585C16.2461 8.46733 16.5927 8.07244 17.0359 7.79119C17.4819 7.50994 18.0004 7.36932 18.5913 7.36932C19.1822 7.36932 19.6992 7.50994 20.1424 7.79119C20.5884 8.07244 20.935 8.46733 21.1822 8.97585C21.4322 9.48437 21.5572 10.0795 21.5572 10.7614C21.5572 11.4375 21.4322 12.0284 21.1822 12.5341C20.935 13.0398 20.5884 13.4332 20.1424 13.7145C19.6992 13.9957 19.1822 14.1364 18.5913 14.1364ZM18.5913 13.233C19.0401 13.233 19.4094 13.1179 19.6992 12.8878C19.989 12.6577 20.2035 12.3551 20.3427 11.9801C20.4819 11.6051 20.5515 11.1989 20.5515 10.7614C20.5515 10.3239 20.4819 9.91619 20.3427 9.53835C20.2035 9.16051 19.989 8.85511 19.6992 8.62216C19.4094 8.3892 19.0401 8.27273 18.5913 8.27273C18.1424 8.27273 17.7731 8.3892 17.4833 8.62216C17.1935 8.85511 16.979 9.16051 16.8398 9.53835C16.7006 9.91619 16.631 10.3239 16.631 10.7614C16.631 11.1989 16.7006 11.6051 16.8398 11.9801C16.979 12.3551 17.1935 12.6577 17.4833 12.8878C17.7731 13.1179 18.1424 13.233 18.5913 13.233Z" fill="white"></path> </svg> 