<?xml version="1.0" encoding="UTF-8"?> <svg xmlns="http://www.w3.org/2000/svg" width="100" height="16" viewBox="0 0 100 16" fill="none"> <path fill-rule="evenodd" clip-rule="evenodd" d="M48.3646 12.9819C49.3532 12.9819 50.0376 12.8274 50.5699 12.441V10.6637C50.0376 11.0501 49.3532 11.2819 48.4406 11.2819C46.9197 11.2819 46.2353 10.0455 46.2353 8.19098C46.2353 6.18187 46.9957 5.17732 48.4406 5.17732C49.2771 5.17732 50.1136 5.48641 50.4939 5.71823V3.7864C50.0376 3.55458 49.2771 3.32276 48.2125 3.32276C45.4748 3.32276 44.0299 5.33186 44.0299 8.11371C44.106 11.2046 45.4748 12.9819 48.3646 12.9819ZM34.9044 12.1319V10.3546C34.22 10.8183 33.0793 11.2046 32.0907 11.2046C30.4937 11.2046 29.8853 10.4319 29.8093 8.88644H34.9804V7.72734C34.9804 4.48186 33.6116 3.32276 31.4062 3.32276C28.8207 3.32276 27.5279 5.33186 27.5279 8.11371C27.5279 11.3592 29.0488 12.9047 31.8625 12.9047C33.2314 12.9819 34.296 12.5956 34.9044 12.1319ZM41.7485 12.7501L38.5546 8.26825V12.7501H36.4253V3.4773H38.5546V7.80461L41.5964 3.4773H43.8018L40.7599 7.80461L44.182 12.7501H41.7485ZM27.0716 11.0501H26.083V3.55458H19.8472V4.32731C19.8472 6.56824 19.6951 9.50463 18.9347 11.0501H18.2502V14.9138H20.2274V12.8274H25.0184V14.9138H26.9956V11.0501H27.0716ZM15.2084 3.55458V7.18643H12.3186V3.55458H10.1893V12.8274H12.3186V8.96372H15.2084V12.8274H17.3377V3.55458H15.2084ZM31.4062 5.10004C32.4709 5.10004 32.7751 6.02733 32.7751 7.18643V7.34097H29.8093C29.8853 5.87278 30.3416 5.10004 31.4062 5.10004ZM23.9537 11.0501H20.9119C21.5202 9.65918 21.6723 7.10915 21.6723 5.56368V5.25459H23.9537V11.0501ZM61.8248 12.7501H64.4103L59.9236 6.02733L63.9541 0H61.7487L57.7943 5.87278V0H55.589V12.7501H57.7943V6.80006L61.8248 12.7501ZM71.7108 6.49097C71.7108 4.25004 70.5701 3.40003 68.2887 3.40003C66.8438 3.40003 65.7031 3.86367 65.0947 4.25004V6.1046C65.7031 5.64096 66.9199 5.17732 68.0606 5.17732C69.1252 5.17732 69.5815 5.56369 69.5815 6.56824V7.10915H69.2013C65.9313 7.10915 64.4864 8.19098 64.4864 10.1228C64.4864 11.9774 65.6271 13.0592 67.3001 13.0592C68.5929 13.0592 69.1252 12.6728 69.5054 12.2092H69.5815C69.5815 12.441 69.6575 12.7501 69.7336 12.9819H71.8629C71.7868 12.2092 71.7868 11.5137 71.7868 10.741V6.49097H71.7108ZM69.5054 10.5865C69.2012 10.9728 68.745 11.3592 67.9845 11.3592C67.072 11.3592 66.6157 10.8183 66.6157 10.0455C66.6157 8.96371 67.3761 8.57735 69.2013 8.57735H69.5054V10.5865ZM75.437 3.55458H73.4598V15.4547H75.5891V11.7456C76.1215 12.5956 76.958 12.9819 77.8705 12.9819C79.9998 12.9819 81.4447 11.2819 81.4447 8.19098C81.4447 5.10004 79.9998 3.40003 78.0226 3.40003C77.034 3.40003 76.1975 3.86367 75.5891 4.79095L75.437 3.55458ZM77.2622 11.2046C76.1215 11.2046 75.5131 10.2774 75.5131 8.11371C75.5131 5.95005 76.1215 5.02277 77.3382 5.02277C78.4789 5.02277 79.0873 5.95005 79.0873 8.11371C79.1633 10.2774 78.5549 11.2046 77.2622 11.2046ZM88.9733 5.25459V3.55458H81.7489V5.25459H84.2584V12.7501H86.3877V5.25459H88.9733ZM90.19 3.55458V12.8274H93.46C95.5893 12.8274 97.1102 11.7456 97.1102 9.5819C97.1102 7.49552 95.7414 6.41369 93.5361 6.41369H92.3954V3.55458H90.19ZM97.8707 3.55458V12.8274H100V3.55458H97.8707ZM93.384 11.0501H92.3954V8.11371H93.46C94.3726 8.11371 94.9049 8.50007 94.9049 9.5819C94.9049 10.6637 94.2965 11.0501 93.384 11.0501Z" fill="#121212"></path> <path fill-rule="evenodd" clip-rule="evenodd" d="M6.15975 12.7501H8.36509V0H5.17115C1.9772 0 0.304185 1.70002 0.304185 4.09549C0.304185 6.02733 1.21674 7.18643 2.88976 8.4228L0 12.7501H2.35743L5.55138 7.88189L4.48673 7.10915C3.1179 6.25915 2.43348 5.56369 2.43348 4.01822C2.43348 2.6273 3.34604 1.77729 5.17115 1.77729H6.15975V12.7501Z" fill="#FF3333"></path> </svg> 