<?xml version="1.0" encoding="UTF-8"?> <svg xmlns="http://www.w3.org/2000/svg" width="125" height="12" viewBox="0 0 125 12" fill="none"> <path fill-rule="evenodd" clip-rule="evenodd" d="M27.0113 0.038801C25.6821 0.141687 24.5311 0.550692 23.9933 1.11124C23.4203 1.70841 23.28 2.78814 23.3349 6.17658C23.3757 8.70146 23.4248 9.0306 23.842 9.57755C24.6512 10.6384 26.9231 11.2356 29.2938 11.0107C31.4357 10.8073 32.5323 10.3401 32.919 9.46598C33.1461 8.95278 33.2476 7.22624 33.2039 4.62018C33.1744 2.8617 33.1407 2.36537 33.0259 2.00682C32.742 1.11935 32.2996 0.647188 31.4836 0.36032C30.6816 0.0784481 28.513 -0.0774373 27.0113 0.038801ZM3.61056 0.108757C2.73725 0.192557 2.16868 0.332223 1.52474 0.621221C0.666343 1.00647 0.317382 1.438 0.145605 2.32654C0.0151136 3.0021 -0.0340356 5.27362 0.0242883 7.93776L0.0763047 10.3133L0.34163 10.5795C0.565833 10.8045 0.666671 10.8458 0.991958 10.8458C1.3206 10.8458 1.41776 10.805 1.65547 10.5673L1.93399 10.2887V6.70911C1.93399 2.71212 1.92997 2.74284 2.49069 2.42771C2.98611 2.14928 3.75342 2.06204 5.39181 2.09775C7.05412 2.13404 7.41259 2.21948 7.79128 2.66952L7.99575 2.91248V6.51456C7.99575 10.4663 7.99607 10.4689 8.48454 10.7215C9.03943 11.0085 9.71876 10.762 9.88144 10.2149C9.94616 9.99704 9.96492 8.79796 9.94411 6.21753C9.91519 2.63528 9.90905 2.51544 9.7267 1.968C9.37439 0.909892 8.5975 0.375392 7.1607 0.20255C6.17124 0.0834449 4.37016 0.0358521 3.61056 0.108757ZM12.1967 0.087295C11.964 0.136281 11.6009 0.565928 11.597 0.79693C11.5954 0.894819 11.5898 3.02733 11.5846 5.53575C11.5744 10.4796 11.576 10.4987 12.0171 10.7267C12.4643 10.958 13.2008 10.8128 13.371 10.4597C13.4098 10.3792 13.4603 9.63137 13.4833 8.79788L13.5251 7.28244L16.3102 7.2337C19.2331 7.18258 19.6025 7.139 20.3507 6.75728C20.8649 6.49498 21.314 5.93492 21.5162 5.30409C21.7633 4.53318 21.8383 2.64601 21.6478 1.99085C21.3772 1.05996 20.8101 0.509652 19.8295 0.22647C19.4067 0.104415 18.8734 0.0830354 15.8596 0.0673076C13.9449 0.0573139 12.2966 0.0662427 12.1967 0.087295ZM19.2243 2.08112C19.3853 2.12585 19.5951 2.24544 19.6904 2.34694C20.0779 2.75938 20.1194 4.10689 19.761 4.63869C19.6649 4.78131 19.4574 4.97373 19.2999 5.06629C19.0263 5.22701 18.8899 5.23455 16.2692 5.23455H13.5251L13.5027 3.72173C13.4903 2.88971 13.4984 2.16164 13.5205 2.10389C13.5522 2.02141 14.1372 1.99896 16.2462 1.99937C17.7708 1.99962 19.058 2.03492 19.2243 2.08112ZM29.9681 2.0767C30.5959 2.17958 31.0008 2.38274 31.1872 2.68861C31.3294 2.92166 31.3411 3.14267 31.3414 5.59088L31.3417 8.24085L31.0706 8.51199C30.6475 8.93508 30.302 8.99431 28.2289 8.99873C26.2017 9.00307 25.9458 8.95958 25.5256 8.53943L25.2799 8.29377V5.59973V2.90568L25.5298 2.62111C25.938 2.15616 26.5419 2.0273 28.3927 2.0101C29.001 2.00445 29.7099 2.03443 29.9681 2.0767Z" fill="#FF4A37"></path> <path fill-rule="evenodd" clip-rule="evenodd" d="M52.2928 0.0618444C50.5493 0.264749 49.3675 0.918764 49.0679 1.84646C48.77 2.76883 48.7306 8.12226 49.0156 8.95469C49.2093 9.52032 49.4873 9.86068 50.0559 10.2281C51.0199 10.8513 52.3467 11.129 54.1359 11.0822C56.4501 11.0217 57.9648 10.4996 58.3932 9.61485C58.4909 9.41292 58.6043 9.01588 58.6453 8.73262C58.7545 7.97768 58.743 2.87204 58.6311 2.34401C58.3633 1.08202 57.6409 0.441933 56.1931 0.183899C55.4191 0.0459529 53.0629 -0.0277713 52.2928 0.0618444ZM83.4313 0.0657764C82.6189 0.168826 82.0951 0.304315 81.5366 0.555878C80.4336 1.05278 80.1247 1.58097 80.0171 3.154C79.9235 4.52403 79.9249 7.01476 80.0201 8.06992C80.1058 9.01965 80.2619 9.40531 80.7538 9.88271C81.629 10.7321 83.194 11.1405 85.3457 11.0812C87.1367 11.0317 88.6168 10.6395 89.1953 10.061C89.788 9.4683 89.8101 9.30742 89.8101 5.59615C89.8101 2.42667 89.8043 2.30404 89.6312 1.84629C89.2461 0.827674 88.5535 0.351498 87.1617 0.148429C86.3707 0.0330921 84.0881 -0.0175318 83.4313 0.0657764ZM94.0616 0.063319C91.9033 0.111977 91.8915 0.11468 91.6815 0.61715C91.515 1.01534 91.5204 9.94407 91.6873 10.3435C91.9036 10.8609 92.463 11.0496 93.0292 10.7962C93.2048 10.7174 93.3815 10.5843 93.4216 10.5002C93.4618 10.4161 93.5135 9.66531 93.5365 8.83181L93.5782 7.31638L96.3634 7.26862C98.6086 7.23012 99.2403 7.19448 99.622 7.08472C101.251 6.61641 101.771 5.70772 101.766 3.34347C101.763 2.30617 101.739 2.09647 101.577 1.68812C101.321 1.04082 100.75 0.534825 100.023 0.310295C99.4631 0.137453 97.6164 -0.0265425 96.5682 0.00360247C96.2753 0.0120398 95.1473 0.0389081 94.0616 0.063319ZM106.532 0.0687254C105.352 0.204214 104.403 0.573981 103.834 1.11962C103.606 1.33916 103.476 1.57016 103.343 1.99178C103.171 2.53914 103.162 2.70149 103.162 5.55519C103.162 8.21319 103.179 8.59156 103.309 8.96362C103.804 10.3835 105.674 11.1546 108.446 11.0822C110.574 11.0266 112.013 10.5863 112.581 9.81751C112.957 9.3075 112.992 8.93863 112.992 5.51423C112.992 2.33566 112.991 2.31706 112.796 1.82803C112.41 0.859785 111.607 0.319633 110.296 0.145808C109.418 0.0294878 107.259 -0.0148285 106.532 0.0687254ZM40.5788 0.139828C40.4887 0.179148 40.3553 0.280232 40.2824 0.364359C40.1614 0.504107 39.3042 2.11547 37.6302 5.3504C37.2804 6.0262 36.7195 7.10438 36.3837 7.74643L35.773 8.91373H35.3252C34.5742 8.91373 34.1484 9.24778 34.1484 9.83708C34.1484 10.0095 34.2044 10.2587 34.2727 10.3909C34.5351 10.8983 34.2786 10.8797 41.0265 10.8797H47.1754L47.466 10.6134C48.1822 9.95701 47.7594 8.91373 46.777 8.91373H46.4548L45.2249 6.55866C42.7977 1.91076 42.0033 0.433004 41.8484 0.277119C41.6733 0.100918 40.8677 0.0138419 40.5788 0.139828ZM60.8446 0.254019C60.6855 0.360918 60.5243 0.56284 60.4684 0.725033C60.316 1.16771 60.3214 9.88812 60.4744 10.2542C60.8257 11.0949 61.9451 11.0949 62.2964 10.2542C62.3782 10.0584 62.4093 9.57676 62.4093 8.50677C62.4093 7.69433 62.4369 7.0309 62.4708 7.03237C62.5046 7.03393 63.7481 7.89757 65.2342 8.95158C66.7202 10.0056 68.0288 10.886 68.1422 10.908C68.6662 11.0098 69.2378 10.6281 69.3347 10.1116C69.4486 9.50483 69.3479 9.40817 66.514 7.40337C65.0674 6.37992 63.8838 5.51104 63.8838 5.47254C63.8838 5.43404 63.9851 5.33238 64.1091 5.2467C64.233 5.16101 65.4169 4.3231 66.7402 3.38459C68.7051 1.99096 69.1676 1.6266 69.2637 1.3965C69.4562 0.935884 69.2535 0.352153 68.8347 0.161372C68.5791 0.0448878 68.1033 0.0387442 67.8969 0.149166C67.8122 0.194466 66.5895 1.0468 65.1797 2.04322C63.77 3.03964 62.5699 3.87281 62.5129 3.89468C62.4318 3.92581 62.4093 3.61256 62.4093 2.44854C62.4093 0.773773 62.3476 0.504353 61.9023 0.232802C61.5466 0.0158897 61.1879 0.0230983 60.8446 0.254019ZM70.7905 0.186766C70.1447 0.467573 70.0902 1.49602 70.7012 1.86866C70.9427 2.01586 71.1148 2.03224 72.4235 2.03249L73.8775 2.03282V6.09174C73.8775 10.5444 73.8729 10.5003 74.3663 10.7554C74.6813 10.9183 75.1424 10.9135 75.4 10.7447C75.8464 10.4522 75.8435 10.4832 75.8435 6.09174V2.03282H77.3526C78.853 2.03282 78.8632 2.03159 79.1114 1.82278C79.6214 1.39371 79.5893 0.619444 79.0466 0.254182L78.7682 0.0668413L74.9098 0.070036C71.8077 0.0726573 71.0003 0.0955118 70.7905 0.186766ZM115.351 0.227396C114.813 0.555386 114.829 0.385657 114.854 5.60221L114.876 10.319L115.182 10.5993C115.539 10.926 115.048 10.894 119.799 10.8995L122.92 10.9031L123.363 10.6969C123.948 10.4242 124.469 9.89131 124.766 9.2622C124.987 8.79528 125.007 8.6783 125 7.92575C124.99 6.99174 124.904 6.50189 124.655 5.95395L124.482 5.57452L124.715 5.01192C124.934 4.48095 124.947 4.38027 124.949 3.22059C124.952 1.99579 124.951 1.99047 124.698 1.54132C124.274 0.79073 123.514 0.339866 122.354 0.151624C122.069 0.105342 120.45 0.0679062 118.726 0.0677423C115.783 0.0674966 115.599 0.0761796 115.351 0.227396ZM55.8432 2.20459C56.0388 2.24866 56.2896 2.3441 56.4003 2.41667C56.8242 2.69445 56.8391 2.80323 56.8391 5.62195C56.8391 8.14913 56.8333 8.24358 56.668 8.45377C56.2807 8.94617 55.5822 9.07215 53.3577 9.05078C51.9248 9.03701 51.8701 9.03021 51.4193 8.8088C51.068 8.63628 50.9338 8.51898 50.8664 8.32558C50.8098 8.16346 50.7774 7.16893 50.7775 5.60442C50.7776 2.73385 50.7837 2.70543 51.4736 2.36048C51.8415 2.17658 52.0125 2.15119 53.1529 2.11162C54.5841 2.0619 55.3235 2.08745 55.8432 2.20459ZM87.1107 2.24219C87.3381 2.30445 87.6144 2.45157 87.725 2.5692L87.9261 2.78308L87.9496 5.46623C87.9641 7.11347 87.9417 8.23236 87.8916 8.3644C87.691 8.8917 86.477 9.12319 84.2399 9.06061C83.2275 9.03234 82.9462 8.99687 82.6425 8.85901C81.9175 8.53012 81.9492 8.66766 81.9241 5.73098C81.8984 2.71665 81.8994 2.71157 82.6015 2.36048C82.9697 2.17641 83.1396 2.15127 84.2808 2.11236C85.8279 2.05952 86.5675 2.09343 87.1107 2.24219ZM99.4865 2.21401C99.9838 2.4863 100.164 3.56218 99.8617 4.44933C99.739 4.80877 99.6718 4.88381 99.3123 5.06239L98.9027 5.26594L96.2405 5.26717L93.5782 5.26848L93.5559 3.75567C93.5435 2.92365 93.5526 2.19304 93.5759 2.1321C93.6108 2.04125 94.1239 2.02602 96.4245 2.04756C98.8864 2.07058 99.2618 2.09098 99.4865 2.21401ZM109.948 2.16118C110.122 2.18305 110.406 2.27406 110.582 2.36343C111.143 2.64964 111.149 2.6879 111.149 5.62195C111.149 8.14913 111.143 8.24358 110.978 8.45377C110.608 8.92405 109.974 9.04996 107.873 9.06986C106.307 9.08469 105.75 8.9687 105.354 8.54503L105.087 8.26078L105.088 5.69977C105.088 2.72222 105.091 2.7069 105.784 2.36048C106.151 2.17691 106.325 2.15094 107.463 2.10998C108.693 2.06575 109.292 2.07803 109.948 2.16118ZM122.576 2.21074C122.77 2.28356 122.983 2.44878 123.096 2.6136C123.263 2.85574 123.283 2.9624 123.248 3.4149C123.216 3.83783 123.167 3.97766 122.993 4.15214L122.778 4.36741L119.912 4.39182L117.047 4.41623V3.27916C117.047 2.65374 117.075 2.11416 117.109 2.08008C117.142 2.04601 118.313 2.03364 119.709 2.05264C121.708 2.07984 122.319 2.1135 122.576 2.21074ZM41.9344 4.55172C43.8037 8.15011 44.1421 8.81068 44.1421 8.86057C44.1421 8.88981 42.7783 8.91373 41.1113 8.91373C39.4443 8.91373 38.0804 8.89071 38.0804 8.86253C38.0804 8.81396 39.4915 6.062 39.9653 5.18657C40.0873 4.9613 40.38 4.3992 40.6158 3.93736C40.8516 3.47552 41.0748 3.09772 41.1118 3.09772C41.1487 3.09772 41.5189 3.75198 41.9344 4.55172ZM122.877 6.80981C123.46 7.20522 123.39 8.4659 122.767 8.80593C122.519 8.94117 122.249 8.95469 119.791 8.95469H117.088L117.065 7.89413C117.052 7.31081 117.061 6.78327 117.085 6.72183C117.12 6.62992 117.616 6.61469 119.893 6.63557C122.405 6.65876 122.678 6.67473 122.877 6.80981Z" fill="white"></path> </svg> 