<?xml version="1.0" encoding="UTF-8"?> <svg xmlns="http://www.w3.org/2000/svg" width="62" height="20" viewBox="0 0 62 20" fill="none"> <path d="M58.9429 7.35614H61.7772C61.4187 4.59749 59.404 3.14746 56.6037 3.14746C53.7694 3.14746 51.8742 4.65057 51.8742 7.23236C51.8742 10.1678 54.3158 10.822 55.6134 11.0874C57.2867 11.4234 58.9258 11.4587 58.9258 12.9441C58.9258 13.9521 58.1062 14.4472 56.9452 14.4472C55.511 14.4472 54.5549 13.7045 54.3158 12.3606H51.5156C51.6863 15.2607 53.7182 16.8168 56.7062 16.8168C59.4722 16.8168 61.743 15.5083 61.743 12.6789C61.743 9.63729 59.1307 9.08913 57.3038 8.80617C56.0573 8.61169 54.6914 8.43482 54.6914 7.07319C54.6914 6.11829 55.3914 5.53476 56.5696 5.53476C57.9355 5.53476 58.755 6.33056 58.9429 7.35614Z" fill="white"></path> <path d="M49.962 3.58983H47.2812V16.4103H49.962V3.58983Z" fill="white"></path> <path d="M39.1843 11.9364H42.6846C42.1382 13.3158 40.9088 13.97 39.4916 13.97C36.9989 13.97 35.8378 11.9718 35.8378 9.99124C35.8378 7.99298 36.9305 5.95942 39.4746 5.95942C41.0284 5.95942 42.1893 6.70212 42.6333 8.02837L45.5188 8.02838C45.0237 5.03993 42.4967 3.32463 39.5088 3.32463C35.8207 3.32463 33.0547 5.92403 33.0547 10.0266C33.0547 14.1822 36.0597 16.6402 39.4916 16.6402C42.8724 16.6402 45.5188 14.3591 45.5188 10.787V9.74367H39.1843V11.9364Z" fill="white"></path> <path d="M26.9288 3.32471C23.8555 3.32471 21.5846 5.32289 21.6017 8.64738H24.3677C24.3335 7.19735 25.2214 5.87111 26.7922 5.87111C28.1582 5.87111 28.9606 6.86139 28.9606 7.99307C28.9606 9.12483 28.1582 9.76145 26.6727 10.4512C24.6408 11.3883 23.1896 11.9896 21.7041 12.5201V16.4104H32.0511V13.7933H24.9478C24.9478 13.7933 24.9714 13.7856 24.9831 13.782C26.1912 13.4028 27.0989 12.9909 28.1753 12.5024C30.4802 11.4414 31.795 10.1151 31.795 7.85166C31.795 5.07531 29.8144 3.32471 26.9288 3.32471Z" fill="white"></path> <path d="M14.3253 11.901C10.8421 11.9187 10.2787 14.0938 10.0909 15.9329L10.0055 16.7463H9.30542L9.22006 15.9329C9.03228 14.0938 8.45176 11.9187 5.08811 11.901C4.52467 10.6985 4.28563 9.72592 4.28563 8.62956C4.28563 5.88867 6.45407 3.32449 9.66397 3.32449C12.8739 3.32449 15.0082 5.87089 15.0082 8.64732C15.0082 9.72592 14.9058 10.6985 14.3253 11.901ZM9.62988 0C4.3369 0 0 4.49164 0 9.99112C0 15.5084 4.3369 20 9.62988 20C14.974 20 19.2939 15.5084 19.2939 9.99112C19.2939 4.49166 14.974 0 9.62988 0Z" fill="#29B24A"></path> </svg> 