<?xml version="1.0" encoding="UTF-8"?> <svg xmlns="http://www.w3.org/2000/svg" width="128" height="80" viewBox="0 0 128 80" fill="none"> <rect width="128" height="80" rx="5" fill="black" fill-opacity="0.02"></rect> <path fill-rule="evenodd" clip-rule="evenodd" d="M15.9045 23.9232C17.6174 23.9232 19.0061 25.2974 19.0061 26.9922C19.0061 28.6872 17.6174 30.0613 15.9045 30.0613C14.1914 30.0613 12.8027 28.6872 12.8027 26.9922C12.8027 25.2974 14.1914 23.9232 15.9045 23.9232ZM28.6316 39.7875C29.9447 39.7875 31.0091 40.8408 31.0091 42.14C31.0091 43.4391 29.9447 44.4923 28.6316 44.4923C27.3186 44.4923 26.2542 43.4391 26.2542 42.14C26.2542 40.8408 27.3186 39.7875 28.6316 39.7875ZM31.472 46.4786C31.0281 45.9681 29.7953 45.368 28.7902 45.3513C27.5676 45.3307 26.6924 45.9893 26.1756 46.5857C23.8002 49.328 26.9552 54.6039 24.3873 52.5971C23.5956 51.9782 22.839 51.0272 22.2754 50.1966C19.7779 46.5165 18.1159 40.1247 18.7438 35.7027C19.0434 33.5926 19.946 32.9047 22.1446 33.5264C24.977 34.3273 28.4403 36.6299 31.7927 35.4049C33.2962 34.8554 34.4151 33.7446 35.0982 32.6699C29.818 36.2436 24.4743 31.5196 21.129 30.5231C18.1937 29.6487 16.6743 32.2854 16.2415 34.7078C15.7506 37.457 16.1038 40.518 16.8025 43.0669C18.3817 48.8273 21.3748 52.9847 25.5 55.4364C26.1978 55.8512 26.73 55.4192 26.9165 54.7787C27.2972 53.4723 25.823 48.8009 27.7891 46.7559C28.7812 45.7243 30.1715 46.1662 31.472 46.4786Z" fill="#73B61C"></path> <path fill-rule="evenodd" clip-rule="evenodd" d="M37.8365 20.2666C39.5494 20.2666 40.9381 21.6405 40.9381 23.3355C40.9381 25.0306 39.5494 26.4045 37.8365 26.4045C36.1234 26.4045 34.7347 25.0306 34.7347 23.3355C34.7347 21.6405 36.1234 20.2666 37.8365 20.2666ZM20.3408 28.9504C20.5393 29.0633 21.3743 29.1466 21.6709 29.2261C22.1221 29.3473 22.5276 29.4914 22.9199 29.6736C25.1758 30.722 26.9317 32.5392 30.4414 32.1811C34.3973 31.7772 37.3439 27.774 38.7729 33.8111C39.619 37.3861 38.1343 42.0898 37.0351 45.0436C36.45 46.6158 35.7179 48.2669 34.9622 49.6739C34.4392 50.6481 32.9465 53.4741 32.1037 53.5936C31.3878 53.1737 31.7886 51.5222 31.883 50.7451C32.0046 49.7447 32.0862 48.5388 31.6271 47.7328C31.3151 47.1848 30.2808 46.5283 29.3608 46.66C28.9175 46.7235 28.5073 46.9982 28.2463 47.2213C28.0822 47.3613 27.596 47.9461 27.5602 48.2222C27.8958 47.6538 29.7646 46.8447 30.5284 48.5788C30.9508 49.5376 30.4301 51.9063 30.3453 53.0202C30.2297 54.5385 30.4313 56.3935 32.2436 55.6104C33.305 55.1515 34.2039 54.1465 34.8717 53.3447C38.5544 48.9225 42.9855 37.8154 40.6547 31.2427C39.7255 28.6223 37.3471 26.8422 34.7614 27.9043C33.6431 28.3636 32.6806 29.1148 31.7231 29.6965C30.623 30.365 29.448 30.8307 27.8559 30.4367C25.9637 29.9684 24.5523 28.6498 22.3879 28.562C21.7861 28.5375 20.7112 28.6449 20.3408 28.9504Z" fill="#005DA9"></path> <path fill-rule="evenodd" clip-rule="evenodd" d="M100.898 43.1765H114.601C114.847 43.1765 115.049 43.3783 115.049 43.6249C115.049 43.8716 114.847 44.0736 114.601 44.0736H100.898C100.651 44.0736 100.449 43.8718 100.449 43.6251C100.449 43.3785 100.651 43.1765 100.898 43.1765ZM49.7746 43.1765H63.0952C63.3419 43.1765 63.5437 43.3783 63.5437 43.6249C63.5437 43.8716 63.3419 44.0736 63.0952 44.0736H49.7746C49.528 44.0736 49.3262 43.8718 49.3262 43.6251C49.3262 43.3785 49.528 43.1765 49.7746 43.1765ZM65.0012 43.7375C65.0012 43.1359 65.1721 42.6209 65.5135 42.1953C65.8764 41.7378 66.3514 41.5083 66.9383 41.5083C67.1784 41.5083 67.4185 41.5482 67.6586 41.627C67.9788 41.7325 68.1388 41.8778 68.1388 42.0633C68.1388 42.2647 68.0508 42.3648 67.8733 42.3648C67.756 42.3648 67.6252 42.3274 67.4799 42.2526C67.3358 42.1779 67.1651 42.1407 66.9663 42.1407C66.5753 42.1407 66.2619 42.314 66.0272 42.6608C65.8177 42.9703 65.7136 43.3279 65.7136 43.7334C65.7136 44.187 65.8071 44.5579 65.9952 44.846C66.2138 45.1876 66.5381 45.3583 66.9663 45.3583C67.137 45.3583 67.3305 45.3063 67.544 45.2021C67.7587 45.0981 67.8815 45.0461 67.9134 45.0461C68.1175 45.0461 68.2189 45.1501 68.2189 45.3583C68.2189 45.4862 68.1388 45.6011 67.9788 45.7024C67.7067 45.8785 67.3706 45.9667 66.9702 45.9667C66.3406 45.9667 65.8496 45.7479 65.4975 45.3116C65.1666 44.9008 65.0012 44.3763 65.0012 43.7375ZM70.5361 45.3344C70.9684 45.3344 71.3753 45.1876 71.7555 44.8926C71.8621 44.8087 71.9528 44.7659 72.0275 44.7659C72.221 44.7659 72.3171 44.8674 72.3171 45.0701C72.3171 45.1341 72.269 45.2195 72.173 45.3261C71.9862 45.529 71.7354 45.6891 71.4206 45.8066C71.1324 45.9132 70.8391 45.9667 70.5402 45.9667C69.9105 45.9667 69.4143 45.7399 69.0514 45.2875C68.7099 44.866 68.5391 44.3365 68.5391 43.6974C68.5391 43.0905 68.7179 42.5795 69.0753 42.1633C69.4542 41.7271 69.9425 41.5083 70.5402 41.5083C71.0738 41.5083 71.5193 41.7124 71.8769 42.122C72.2129 42.5169 72.381 42.9838 72.381 43.5266C72.381 43.8509 72.2236 44.0136 71.9076 44.0136H69.2514C69.2514 44.3737 69.3756 44.6846 69.625 44.9448C69.8731 45.2048 70.1772 45.3344 70.5361 45.3344ZM69.2514 43.4694H71.6686C71.6686 43.0999 71.578 42.7943 71.3952 42.5515C71.1911 42.278 70.9057 42.1407 70.5402 42.1407C70.176 42.1407 69.8691 42.2715 69.6223 42.5314C69.3756 42.793 69.2514 43.1052 69.2514 43.4694ZM75.2145 45.9667C75.0385 45.9667 74.9262 45.884 74.8784 45.7184L73.9339 42.5807H73.915L73.5136 45.6384C73.487 45.8572 73.3628 45.9667 73.1427 45.9667C72.9667 45.9667 72.8586 45.8745 72.8214 45.6918C72.8105 45.6304 72.8078 45.5863 72.8131 45.5583L73.3655 41.9324C73.3869 41.8125 73.4457 41.711 73.5417 41.6297C73.6377 41.5482 73.7497 41.5083 73.8778 41.5083C74.1232 41.5083 74.2807 41.623 74.35 41.8524L75.2051 44.6939L75.2319 44.6964L76.0816 41.8457C76.151 41.6202 76.307 41.5082 76.5526 41.5082C76.6805 41.5082 76.7913 41.5481 76.8873 41.6282C76.9834 41.7082 77.042 41.8124 77.0635 41.9391L77.6158 45.5582C77.6214 45.5796 77.6183 45.6169 77.6078 45.6704C77.581 45.8677 77.4743 45.9666 77.2901 45.9666C77.0621 45.9666 76.9354 45.8571 76.9073 45.6396L76.5071 42.582L76.4951 42.5808L75.5507 45.7184C75.5027 45.884 75.3906 45.9667 75.2145 45.9667ZM80.069 45.3344C80.5013 45.3344 80.9082 45.1876 81.2883 44.8926C81.395 44.8087 81.4857 44.7659 81.5604 44.7659C81.7538 44.7659 81.85 44.8674 81.85 45.0701C81.85 45.1341 81.8019 45.2195 81.7059 45.3261C81.519 45.529 81.2683 45.6891 80.9534 45.8066C80.6653 45.9132 80.3718 45.9667 80.073 45.9667C79.4433 45.9667 78.9472 45.7399 78.5842 45.2875C78.2428 44.866 78.0719 44.3365 78.0719 43.6974C78.0719 43.0905 78.2508 42.5795 78.6082 42.1633C78.9871 41.7271 79.4753 41.5083 80.073 41.5083C80.6067 41.5083 81.0521 41.7124 81.4097 42.122C81.7458 42.5169 81.9139 42.9838 81.9139 43.5266C81.9139 43.8509 81.7565 44.0136 81.4404 44.0136H78.7843C78.7843 44.3737 78.9085 44.6846 79.1578 44.9448C79.4059 45.2048 79.7101 45.3344 80.069 45.3344ZM78.7843 43.4694H81.2015C81.2015 43.0999 81.1109 42.7943 80.9281 42.5515C80.724 42.278 80.4386 42.1407 80.073 42.1407C79.7088 42.1407 79.402 42.2715 79.1552 42.5314C78.9085 42.793 78.7843 43.1052 78.7843 43.4694ZM83.3546 44.7352L85.6384 41.7591C85.7719 41.5922 85.9066 41.5083 86.0453 41.5083C86.2681 41.5083 86.3802 41.6176 86.3802 41.8365V45.6304C86.3802 45.721 86.3442 45.7998 86.2722 45.8666C86.2001 45.9333 86.1188 45.9667 86.0279 45.9667C85.9319 45.9667 85.8466 45.9359 85.7719 45.8745C85.6972 45.8132 85.6599 45.7372 85.6599 45.6465V42.757L83.3386 45.7824C83.2426 45.9053 83.1251 45.9667 82.9865 45.9667C82.7517 45.9667 82.6342 45.8545 82.6342 45.6304V41.8604C82.6342 41.7591 82.669 41.6749 82.7383 41.6084C82.8076 41.5417 82.893 41.5083 82.9945 41.5083C83.0958 41.5083 83.1812 41.5417 83.2506 41.6084C83.32 41.6749 83.3546 41.7591 83.3546 41.8604V44.7352ZM83.4026 40.3796C83.4026 40.2089 83.4987 40.1235 83.6909 40.1235C83.7869 40.1235 83.9163 40.2035 84.079 40.3636C84.2418 40.5237 84.3845 40.6037 84.5072 40.6037C84.6301 40.6037 84.774 40.5237 84.9394 40.3636C85.1049 40.2035 85.2329 40.1235 85.3236 40.1235C85.5158 40.1235 85.6118 40.2089 85.6118 40.3796C85.6118 40.5931 85.4783 40.7853 85.2116 40.956C84.9715 41.1055 84.7367 41.1801 84.5072 41.1801C84.2778 41.1801 84.043 41.1055 83.8029 40.956C83.5361 40.7853 83.4026 40.5931 83.4026 40.3796ZM90.2302 43.9094H88.053V45.5997C88.053 45.8438 87.9317 45.9667 87.6889 45.9667C87.5941 45.9667 87.5128 45.9292 87.4434 45.8545C87.3755 45.7798 87.3407 45.6944 87.3407 45.5984V41.8911C87.3407 41.7857 87.3728 41.695 87.4355 41.6203C87.4995 41.5456 87.5835 41.5083 87.6889 41.5083C87.9317 41.5083 88.053 41.6309 88.053 41.8751V43.2772H90.2302V41.8911C90.2302 41.7844 90.2622 41.6938 90.325 41.6203C90.3889 41.5456 90.473 41.5083 90.5784 41.5083C90.8212 41.5083 90.9426 41.6309 90.9426 41.8764V45.5984C90.9426 45.8438 90.8212 45.9667 90.5784 45.9667C90.4837 45.9667 90.4024 45.9292 90.333 45.8545C90.2649 45.7812 90.2302 45.6958 90.2302 45.5997V43.9094ZM92.4394 43.7774C92.4394 44.1696 92.53 44.5139 92.7128 44.8099C92.9263 45.1596 93.2211 45.3344 93.5959 45.3344C94.0241 45.3344 94.3457 45.1675 94.559 44.8341C94.7418 44.5579 94.8325 44.195 94.8325 43.7455C94.8325 43.3051 94.7445 42.9424 94.5672 42.6569C94.3537 42.3128 94.0401 42.1407 93.628 42.1407C93.2264 42.1407 92.9183 42.3208 92.7048 42.6808C92.5274 42.9823 92.4394 43.348 92.4394 43.7774ZM94.8487 42.0925C94.8487 41.8297 94.8832 41.6657 94.9527 41.6031C95.022 41.5403 95.0994 41.5083 95.1848 41.5083C95.4089 41.5083 95.5209 41.6309 95.5209 41.8764V45.5984C95.5209 45.8438 95.4075 45.9667 95.1807 45.9667C95.0888 45.9667 95.0114 45.9372 94.9459 45.8785C94.8806 45.8199 94.8434 45.7318 94.8325 45.6144C94.8434 45.6625 94.8487 45.561 94.8487 45.3102C94.5324 45.7479 94.1349 45.9667 93.6573 45.9667C93.2291 45.9667 92.8463 45.8305 92.5114 45.5597C92.1765 45.2875 91.947 44.9407 91.823 44.5205C91.759 44.2963 91.727 44.0335 91.727 43.7295C91.727 43.3719 91.7804 43.0559 91.8883 42.7783C92.0431 42.4008 92.266 42.0993 92.5554 41.8764C92.8609 41.6309 93.2131 41.5083 93.6092 41.5083C94.0976 41.5083 94.5111 41.703 94.8487 42.0925ZM98.8587 41.5482C99.0774 41.5482 99.1869 41.6657 99.1869 41.9005V45.5825C99.1869 45.6891 99.1547 45.7798 99.0921 45.8545C99.028 45.9292 98.9441 45.9667 98.8387 45.9667C98.7332 45.9667 98.6465 45.9319 98.5773 45.8625C98.5091 45.7931 98.4745 45.705 98.4745 45.5984V44.1977H98.0422L96.8576 45.7345C96.7403 45.8893 96.6201 45.9667 96.4975 45.9667C96.412 45.9667 96.336 45.9413 96.2693 45.8906C96.2025 45.8398 96.1692 45.7745 96.1692 45.6958C96.1692 45.573 96.2214 45.4449 96.3239 45.3116L97.2232 44.1324C96.5948 43.9402 96.2813 43.5187 96.2813 42.8677C96.2813 41.9885 96.7456 41.5482 97.6741 41.5482H98.8587ZM98.4745 43.5653V42.1486H97.8354C97.2737 42.1486 96.9937 42.3875 96.9937 42.8651C96.9937 43.3319 97.2737 43.5653 97.8354 43.5653H98.4745Z" fill="#73B61C"></path> <path fill-rule="evenodd" clip-rule="evenodd" d="M52.4158 56.0055C51.4978 56.0055 50.766 55.6994 50.2207 55.0873C49.6978 54.5031 49.4362 53.7464 49.4362 52.8172C49.4362 51.9101 49.7061 51.1534 50.2457 50.5468C50.8021 49.918 51.5311 49.6038 52.4326 49.6038C52.7554 49.6038 53.0613 49.6483 53.3506 49.7372C53.7122 49.8485 53.971 50.0071 54.1268 50.213C54.2159 50.3297 54.2605 50.4496 54.2605 50.5718C54.2605 50.7333 54.2021 50.8765 54.0851 51.0016C53.9684 51.127 53.8292 51.1896 53.6679 51.1896C53.5176 51.1896 53.3367 51.1479 53.1253 51.0643C52.9138 50.9809 52.6858 50.9392 52.4409 50.9392C51.9401 50.9392 51.5562 51.1394 51.2891 51.5401C51.0554 51.8851 50.9385 52.3218 50.9385 52.8505C50.9385 53.368 51.0637 53.7909 51.3142 54.1193C51.5868 54.4864 51.9763 54.6701 52.4826 54.6701C52.7051 54.6701 52.9529 54.6199 53.2255 54.5198C53.498 54.4197 53.6818 54.3694 53.7764 54.3694C53.9321 54.3694 54.0643 54.4321 54.1728 54.5574C54.2812 54.6825 54.3356 54.8231 54.3356 54.9789C54.3356 55.1123 54.291 55.2403 54.2021 55.3628C53.8904 55.7912 53.295 56.0055 52.4158 56.0055ZM58.0717 29.1861L52.5562 36.4791C52.0431 37.151 51.4568 37.487 50.7972 37.487C49.8809 37.487 49.4229 36.8823 49.4229 35.6759V25.958C49.4229 24.5196 49.9297 23.7987 50.9438 23.7987C51.9576 23.7987 52.4647 24.5196 52.4647 25.961V32.2249L58.0902 24.7883C58.5911 24.1286 59.1286 23.7987 59.7027 23.7987C60.6432 23.7987 61.1137 24.4828 61.1137 25.8481V35.3277C61.1137 36.7662 60.6067 37.487 59.5926 37.487C58.5788 37.487 58.0717 36.7692 58.0717 35.3307V29.1861ZM66.5377 31.9164V35.3247C66.5377 36.7663 66.0307 37.487 65.0168 37.487C64.0027 37.487 63.4958 36.7662 63.4958 35.3277V25.958C63.4958 24.5196 64.0027 23.7987 65.0168 23.7987C66.0307 23.7987 66.5377 24.5196 66.5377 25.961V29.1128H72.1448V25.961C72.1448 24.5196 72.6518 23.7987 73.6657 23.7987C74.6797 23.7987 75.1868 24.5196 75.1868 25.958V35.3277C75.1868 36.7662 74.6797 37.487 73.6657 37.487C72.6518 37.487 72.1448 36.7663 72.1448 35.3247V31.9164H66.5377ZM80.6107 31.0185V34.5367H81.93C83.3226 34.5367 84.019 33.9564 84.019 32.7959C84.019 31.611 83.3226 31.0185 81.93 31.0185H80.6107ZM80.6107 28.2516H82.663C84.1168 28.2516 85.256 28.6455 86.0804 29.4334C86.905 30.2214 87.3174 31.3423 87.3174 32.7959C87.3174 34.2375 86.8592 35.3674 85.9431 36.186C85.0634 36.9556 83.8907 37.3403 82.4248 37.3403H79.6762C78.882 37.3403 78.3324 37.1815 78.027 36.8639C77.7216 36.5464 77.5689 35.9905 77.5689 35.1964V26.1075C77.5689 25.3135 77.7216 24.7577 78.027 24.44C78.3324 24.1224 78.882 23.9637 79.6762 23.9637H84.4405C85.8941 23.9637 86.621 24.4401 86.621 25.3929C86.621 26.3337 85.8941 26.8039 84.4405 26.8039H80.6107V28.2516ZM97.6155 29.1861L92.1 36.4791C91.5869 37.151 91.0005 37.487 90.3409 37.487C89.4247 37.487 88.9666 36.8823 88.9666 35.6759V25.958C88.9666 24.5196 89.4735 23.7987 90.4875 23.7987C91.5014 23.7987 92.0084 24.5196 92.0084 25.961V32.2249L97.634 24.7883C98.1348 24.1286 98.6723 23.7987 99.2464 23.7987C100.187 23.7987 100.657 24.4828 100.657 25.8481V35.3277C100.657 36.7662 100.15 37.487 99.1364 37.487C98.1225 37.487 97.6155 36.7692 97.6155 35.3307V29.1861ZM102.398 30.6612C102.398 28.6607 102.96 27.033 104.084 25.7748C105.245 24.4583 106.814 23.7987 108.793 23.7987C110.785 23.7987 112.36 24.4523 113.521 25.7564C114.645 27.0146 115.207 28.6485 115.207 30.6612C115.207 32.6616 114.645 34.2893 113.521 35.5476C112.348 36.8396 110.772 37.487 108.793 37.487C106.814 37.487 105.245 36.8334 104.084 35.5293C102.96 34.2833 102.398 32.6616 102.398 30.6612ZM105.623 30.6977C105.623 31.7941 105.874 32.7014 106.375 33.422C106.936 34.2619 107.743 34.6833 108.793 34.6833C109.844 34.6833 110.656 34.268 111.23 33.4403C111.731 32.7074 111.982 31.7941 111.982 30.6977C111.982 29.5648 111.744 28.6303 111.267 27.9003C110.693 27.036 109.868 26.6023 108.793 26.6023C107.718 26.6023 106.9 27.036 106.338 27.9003C105.862 28.6303 105.623 29.5648 105.623 30.6977ZM55.9047 51.056C55.4039 51.056 55.0922 51.0421 54.97 51.0143C54.5971 50.9363 54.4107 50.736 54.4107 50.4134C54.4107 49.9793 54.7391 49.7622 55.3955 49.7622H57.8077C58.4643 49.7622 58.7927 49.9793 58.7927 50.4134C58.7927 50.736 58.6063 50.9363 58.2335 51.0143C58.111 51.0421 57.7993 51.056 57.2985 51.056V54.9384C57.2985 55.5936 57.0676 55.922 56.6059 55.922C56.1384 55.922 55.9047 55.5936 55.9047 54.9384V51.056ZM58.7426 52.8129C58.7426 51.9018 58.9985 51.1603 59.5105 50.5872C60.039 49.9876 60.754 49.6871 61.6555 49.6871C62.5624 49.6871 63.2802 49.985 63.809 50.5789C64.3208 51.1519 64.5768 51.8963 64.5768 52.8129C64.5768 53.724 64.3208 54.4655 63.809 55.0387C63.2748 55.627 62.5569 55.922 61.6555 55.922C60.754 55.922 60.039 55.6243 59.5105 55.0304C58.9985 54.4628 58.7426 53.724 58.7426 52.8129ZM60.2115 52.8296C60.2115 53.329 60.3256 53.7421 60.5539 54.0704C60.8097 54.4531 61.1769 54.6451 61.6555 54.6451C62.1339 54.6451 62.504 54.4557 62.7656 54.0788C62.9936 53.7449 63.1078 53.329 63.1078 52.8296C63.1078 52.3135 62.9993 51.888 62.7823 51.5553C62.5207 51.1617 62.1452 50.9642 61.6555 50.9642C61.1659 50.9642 60.7931 51.1617 60.5371 51.5553C60.3201 51.888 60.2115 52.3135 60.2115 52.8296ZM68.5567 53.9272H68.5915L69.3942 50.5051C69.4498 50.2659 69.5681 50.0698 69.7489 49.9166C69.9298 49.7636 70.1426 49.6871 70.3873 49.6871C70.6641 49.6871 70.9035 49.7762 71.1038 49.9542C71.3041 50.1322 71.4266 50.3605 71.4711 50.6388L72.1388 54.7952C72.1721 54.9996 72.1888 55.154 72.1888 55.2598C72.1888 55.7008 71.9815 55.922 71.5657 55.922C71.3208 55.922 71.1442 55.8288 71.033 55.641C70.9563 55.5186 70.8952 55.3182 70.8507 55.0359L70.3234 51.7057L70.3025 51.7069L69.5179 54.7867C69.4345 55.1012 69.3399 55.3278 69.2341 55.4655C69.0783 55.6589 68.8586 55.7549 68.5748 55.7549C68.2911 55.7549 68.0711 55.6589 67.9154 55.4655C67.8098 55.3335 67.7152 55.1066 67.6316 54.7867L66.8387 51.7069H66.8262L66.3073 55.0371C66.2628 55.3237 66.2015 55.5282 66.1236 55.6492C66.0069 55.8314 65.8246 55.9218 65.5799 55.9218C65.1611 55.9218 64.9523 55.7006 64.9523 55.2596C64.9523 55.1929 64.9719 55.0385 65.011 54.795L65.6786 50.6386C65.7231 50.3603 65.8441 50.132 66.0416 49.954C66.2378 49.776 66.4757 49.687 66.7538 49.687C67.0028 49.687 67.2157 49.762 67.3909 49.9123C67.5648 50.0625 67.683 50.2602 67.7443 50.5064L68.5567 53.9272ZM75.0267 49.6788C75.522 49.6788 75.8641 49.9459 76.0533 50.4787L77.5891 54.855C77.6559 55.0442 77.6892 55.1888 77.6892 55.2891C77.6892 55.4769 77.6225 55.6298 77.4889 55.7468C77.3554 55.8635 77.1939 55.922 77.0047 55.922C76.6542 55.922 76.4095 55.7036 76.2704 55.2667L76.045 54.5531H73.8916L73.6412 55.317C73.5075 55.7204 73.2851 55.922 72.9734 55.922C72.7787 55.922 72.62 55.8622 72.4978 55.7425C72.3753 55.6229 72.3141 55.4657 72.3141 55.2724C72.3141 55.1276 72.3363 54.9941 72.3808 54.8717L73.9667 50.5789C74.1892 49.9793 74.5426 49.6788 75.0267 49.6788ZM74.985 51.1896L74.2921 53.3263H75.6693L75.0017 51.1896H74.985ZM78.5989 51.056C78.0981 51.056 77.7865 51.0421 77.6642 51.0143C77.2914 50.9363 77.105 50.736 77.105 50.4134C77.105 49.9793 77.4333 49.7622 78.0898 49.7622H80.5019C81.1585 49.7622 81.4869 49.9793 81.4869 50.4134C81.4869 50.736 81.3005 50.9363 80.9277 51.0143C80.8052 51.0421 80.4936 51.056 79.9928 51.056V54.9384C79.9928 55.5936 79.7619 55.922 79.3001 55.922C78.8327 55.922 78.5989 55.5936 78.5989 54.9384V51.056ZM81.4368 52.8129C81.4368 51.9018 81.6928 51.1603 82.2048 50.5872C82.7332 49.9876 83.4482 49.6871 84.3498 49.6871C85.2566 49.6871 85.9745 49.985 86.5032 50.5789C87.015 51.1519 87.2711 51.8963 87.2711 52.8129C87.2711 53.724 87.015 54.4655 86.5032 55.0387C85.969 55.627 85.2511 55.922 84.3498 55.922C83.4482 55.922 82.7332 55.6243 82.2048 55.0304C81.6928 54.4628 81.4368 53.724 81.4368 52.8129ZM82.9058 52.8296C82.9058 53.329 83.0198 53.7421 83.2481 54.0704C83.504 54.4531 83.8711 54.6451 84.3498 54.6451C84.8282 54.6451 85.1982 54.4557 85.4599 54.0788C85.6879 53.7449 85.802 53.329 85.802 52.8296C85.802 52.3135 85.6936 51.888 85.4765 51.5553C85.215 51.1617 84.8394 50.9642 84.3498 50.9642C83.8601 50.9642 83.4873 51.1617 83.2314 51.5553C83.0143 51.888 82.9058 52.3135 82.9058 52.8296ZM91.4359 50.9142H89.9503C89.7445 50.9142 89.6415 51.0393 89.6415 51.2897V54.688C89.6415 55.5103 89.2325 55.922 88.4145 55.922C87.6802 55.922 87.3128 55.7078 87.3128 55.2807C87.3128 55.0247 87.3823 54.855 87.5215 54.7716C87.6049 54.7215 87.7524 54.6937 87.9639 54.688C88.1531 54.6824 88.2754 54.652 88.3311 54.5963C88.3869 54.5407 88.4145 54.4183 88.4145 54.2305V51.2869C88.4145 50.6929 88.5231 50.2771 88.74 50.0419C88.957 49.8053 89.3604 49.6871 89.9503 49.6871H92.1287C92.5905 49.6871 92.8215 50.0155 92.8215 50.6707V54.9384C92.8215 55.5936 92.5905 55.922 92.1287 55.922C91.8395 55.922 91.6446 55.8247 91.5445 55.6298C91.4721 55.4907 91.4359 55.2613 91.4359 54.9384V50.9142ZM93.6061 52.8129C93.6061 51.9018 93.8621 51.1603 94.3741 50.5872C94.9026 49.9876 95.6176 49.6871 96.5191 49.6871C97.426 49.6871 98.1439 49.985 98.6725 50.5789C99.1843 51.1519 99.4404 51.8963 99.4404 52.8129C99.4404 53.724 99.1843 54.4655 98.6725 55.0387C98.1383 55.627 97.4205 55.922 96.5191 55.922C95.6176 55.922 94.9026 55.6243 94.3741 55.0304C93.8621 54.4628 93.6061 53.724 93.6061 52.8129ZM95.0751 52.8296C95.0751 53.329 95.1892 53.7421 95.4174 54.0704C95.6733 54.4531 96.0405 54.6451 96.5191 54.6451C96.9976 54.6451 97.3676 54.4557 97.6292 54.0788C97.8572 53.7449 97.9713 53.329 97.9713 52.8296C97.9713 52.3135 97.8629 51.888 97.6459 51.5553C97.3843 51.1617 97.0087 50.9642 96.5191 50.9642C96.0295 50.9642 95.6566 51.1617 95.4007 51.5553C95.1837 51.888 95.0751 52.3135 95.0751 52.8296ZM100.233 54.9384V50.7374C100.233 50.3758 100.303 50.1239 100.442 49.9793C100.581 49.8346 100.832 49.7622 101.193 49.7622H102.754C103.411 49.7622 103.739 49.9793 103.739 50.4134C103.739 50.8417 103.411 51.056 102.754 51.056H101.619V54.9384C101.619 55.5936 101.388 55.922 100.926 55.922C100.464 55.922 100.233 55.5936 100.233 54.9384ZM108.321 52.141L105.809 55.463C105.575 55.7689 105.308 55.922 105.007 55.922C104.59 55.922 104.382 55.6465 104.382 55.097V50.6707C104.382 50.0155 104.612 49.6871 105.074 49.6871C105.536 49.6871 105.767 50.0155 105.767 50.6721V53.5252L108.329 50.1379C108.557 49.8375 108.802 49.6871 109.064 49.6871C109.492 49.6871 109.707 49.9988 109.707 50.6206V54.9384C109.707 55.5936 109.476 55.922 109.014 55.922C108.552 55.922 108.321 55.5951 108.321 54.9398V52.141ZM113.788 52.525V51.0393H113.129C112.55 51.0393 112.261 51.2814 112.261 51.7655C112.261 52.2718 112.556 52.525 113.145 52.525H113.788ZM115.173 50.7374V54.9384C115.173 55.5936 114.943 55.922 114.481 55.922C114.019 55.922 113.788 55.5951 113.788 54.9398V53.4431L112.169 55.4726C111.93 55.7718 111.685 55.922 111.434 55.922C111.251 55.922 111.093 55.865 110.963 55.7508C110.832 55.6368 110.767 55.4907 110.767 55.3141C110.767 55.0916 110.903 54.8272 111.175 54.5212L112.269 53.3054C111.824 53.2329 111.47 53.0521 111.209 52.7628C110.947 52.4736 110.817 52.1076 110.817 51.6626C110.817 51.1019 111.016 50.6442 111.413 50.2909C111.811 49.939 112.386 49.7622 113.137 49.7622H114.214C114.581 49.7622 114.833 49.8332 114.969 49.9752C115.105 50.117 115.173 50.3702 115.173 50.7374Z" fill="#005DA9"></path> </svg> 