<?xml version="1.0" encoding="UTF-8"?> <svg xmlns="http://www.w3.org/2000/svg" width="23" height="15" viewBox="0 0 23 15" fill="none"> <path d="M20.5 0H2C0.895431 0 0 0.89543 0 2V13C0 14.1046 0.89543 15 2 15H20.5C21.6046 15 22.5 14.1046 22.5 13V2C22.5 0.895431 21.6046 0 20.5 0Z" fill="#F4F4F4"></path> <path d="M16.8 11.3429L15.9453 12.6249L16.4118 12.9359L17.2665 11.6539L16.8 11.3429Z" fill="black"></path> <path d="M16.1047 10.8762L15.25 12.1582L15.7165 12.4692L16.5711 11.1872L16.1047 10.8762Z" fill="black"></path> <path d="M15.3005 10.3708L14.4531 11.6497L14.9185 11.958L15.7659 10.6792L15.3005 10.3708Z" fill="black"></path> <path d="M17.8156 9.82568L16.9609 11.1077L17.4274 11.4187L18.2821 10.1367L17.8156 9.82568Z" fill="black"></path> <path d="M17.1125 9.359L16.2578 10.641L16.7243 10.952L17.579 9.66999L17.1125 9.359Z" fill="black"></path> <path d="M16.4172 8.89452L15.5625 10.1765L16.029 10.4875L16.8836 9.20551L16.4172 8.89452Z" fill="black"></path> <path d="M6.1618 8.89446L5.69531 9.20544L7.55956 12.0018L8.02605 11.6908L6.1618 8.89446Z" fill="black"></path> <path d="M6.47039 10.8763L6.00391 11.1873L6.85856 12.4692L7.32505 12.1583L6.47039 10.8763Z" fill="black"></path> <path d="M5.45867 9.36113L4.99219 9.67212L5.84684 10.9541L6.31333 10.6431L5.45867 9.36113Z" fill="black"></path> <path d="M4.68799 9.82629L4.22266 10.1346L6.07111 12.9241L6.53645 12.6158L4.68799 9.82629Z" fill="black"></path> <path d="M17.356 3.64257L16.8906 3.95093L17.738 5.22976L18.2034 4.9214L17.356 3.64257Z" fill="black"></path> <path d="M16.4118 2.05791L15.9453 2.3689L16.8 3.65089L17.2665 3.3399L16.4118 2.05791Z" fill="black"></path> <path d="M15.7165 2.52666L15.25 2.83765L17.1142 5.63403L17.5807 5.32304L15.7165 2.52666Z" fill="black"></path> <path d="M16.029 4.5042L15.5625 4.81519L16.4172 6.09717L16.8836 5.78619L16.029 4.5042Z" fill="black"></path> <path d="M14.9575 3.04406L14.4922 3.35242L15.3396 4.63125L15.8049 4.32289L14.9575 3.04406Z" fill="black"></path> <path d="M7.55956 2.98768L5.69531 5.78406L6.1618 6.09505L8.02605 3.29866L7.55956 2.98768Z" fill="black"></path> <path d="M6.85644 2.52308L4.99219 5.31946L5.45867 5.63045L7.32292 2.83407L6.85644 2.52308Z" fill="black"></path> <path d="M6.16112 2.06068L4.29688 4.85706L4.76336 5.16804L6.62761 2.37166L6.16112 2.06068Z" fill="black"></path> <path d="M8.48687 5.63123C7.99212 6.37308 7.81234 7.28109 7.98707 8.15549C8.1618 9.0299 8.67673 9.79909 9.41858 10.2938C10.1604 10.7886 11.0684 10.9684 11.9429 10.7936C12.8173 10.6189 13.5864 10.104 14.0812 9.36212C14.3287 8.99119 14.4187 8.53714 14.3315 8.09984C14.2442 7.66254 13.9868 7.27782 13.6158 7.03031C13.2449 6.7828 12.7909 6.69278 12.3536 6.78005C11.9163 6.86732 11.5315 7.12474 11.284 7.49566C11.0343 7.8606 10.6507 8.1124 10.2166 8.1965C9.78241 8.2806 9.3326 8.19021 8.96462 7.94494C8.59664 7.69967 8.34014 7.31926 8.25072 6.88617C8.16129 6.45308 8.24614 6.00219 8.48687 5.63123V5.63123Z" fill="#003478"></path> <path d="M8.48964 5.63166C8.2489 6.00263 8.16406 6.45351 8.25348 6.88661C8.34291 7.3197 8.59941 7.7001 8.96739 7.94538C9.33536 8.19065 9.78517 8.28103 10.2193 8.19694C10.6535 8.11284 11.037 7.86104 11.2868 7.4961C11.5366 7.13117 11.9201 6.87936 12.3543 6.79527C12.7884 6.71117 13.2382 6.80155 13.6062 7.04682C13.9742 7.2921 14.2307 7.6725 14.3201 8.10559C14.4095 8.53869 14.3247 8.98958 14.084 9.36054C14.5787 8.61869 14.7585 7.71068 14.5838 6.83627C14.409 5.96186 13.8941 5.19268 13.1522 4.69793C12.4104 4.20318 11.5024 4.0234 10.628 4.19813C9.75357 4.37286 8.98438 4.88779 8.48964 5.62964V5.63166Z" fill="#C60C30"></path> </svg> 