<?xml version="1.0" encoding="UTF-8"?> <svg xmlns="http://www.w3.org/2000/svg" width="374" height="373" viewBox="0 0 374 373" fill="none"><circle cx="187" cy="186.5" r="186.5" fill="white"></circle><path d="M256.022 142.802L256.027 142.809C261.433 149.975 264.397 159.063 264.397 169.238C264.397 183.17 256.112 199.691 237.414 218.422C222.271 233.591 204.25 246.114 194.789 252.266C192.457 253.775 189.755 254.572 187 254.572C184.245 254.572 181.541 253.775 179.209 252.265C169.744 246.115 151.73 233.592 136.587 218.423C117.888 199.683 109.602 183.169 109.602 169.238C109.602 159.063 112.567 149.975 117.973 142.809L117.978 142.802C123.111 135.98 130.35 131.115 138.523 128.972C146.695 126.828 155.342 127.525 163.08 130.954L163.103 130.964L163.125 130.974C170.075 133.991 176.457 139.187 181.75 146.351L186.994 153.45L192.246 146.357C197.539 139.209 203.926 134.008 210.887 130.968L210.903 130.961L210.92 130.954C218.658 127.525 227.305 126.828 235.477 128.972C243.65 131.115 250.889 135.98 256.022 142.802Z" stroke="#005DA9" stroke-width="13.055"></path></svg> 