<?xml version="1.0" encoding="UTF-8"?> <svg xmlns="http://www.w3.org/2000/svg" width="142" height="204" viewBox="0 0 142 204" fill="none"> <path d="M39.332 151.162C45.6115 159.007 51.982 168.835 55.331 174.787C59.4081 182.523 61.0826 187.747 64.1223 197.066C65.906 202.199 67.5805 203.764 71.1298 203.764C75.0067 203.764 76.7722 201.143 78.1373 197.066C80.9585 188.275 83.1609 181.595 86.6009 175.206C93.39 162.975 101.981 152.09 110.335 141.643C112.629 138.712 127.281 121.457 133.87 107.77C133.87 107.77 141.915 92.8085 141.915 71.8951C141.915 52.3469 133.961 38.7505 133.961 38.7505L110.954 44.9207L96.9393 81.7239L93.481 86.7474L92.753 87.6939L91.8065 88.8406L90.2412 90.7153L87.9478 93.0087L75.4981 103.147L44.4466 121.13L39.332 151.162Z" fill="#34A853"></path> <path d="M7.17188 105.259C14.7982 122.623 29.3411 137.785 39.279 151.163L91.8809 88.8418C91.8809 88.8418 84.4548 98.5613 71.0768 98.5613C56.1153 98.5613 43.9932 86.6394 43.9932 71.5869C43.9932 61.2304 50.1634 54.1318 50.1634 54.1318L14.4888 63.6511L7.17188 105.259Z" fill="#FBBC04"></path> <path d="M92.542 3.93604C109.997 9.57845 124.959 21.3911 133.95 38.8644L91.905 88.9545C91.905 88.9545 98.0752 81.7468 98.0752 71.4994C98.0752 56.1193 85.1159 44.525 71.1008 44.525C57.8139 44.525 50.1875 54.1535 50.1875 54.1535V22.556L92.542 3.93604Z" fill="#4285F4"></path> <path d="M16.8125 25.9942C27.2601 13.5445 45.5706 0.694336 70.8705 0.694336C83.1018 0.694336 92.4027 3.93417 92.4027 3.93417L50.1755 54.1335H20.2708L16.8125 25.9942Z" fill="#1A73E8"></path> <path d="M7.2694 105.253C7.2694 105.253 0.371094 91.5472 0.371094 71.7988C0.371094 53.0878 7.68803 36.7612 16.9889 26.0952L50.352 54.2163L7.2694 105.253Z" fill="#EA4335"></path> </svg> 