<?xml version="1.0" encoding="UTF-8"?> <svg xmlns="http://www.w3.org/2000/svg" width="30" height="30" viewBox="0 0 30 30" fill="none"> <path d="M12.4434 19.1094C11.8548 19.1094 11.3535 18.9492 10.9395 18.6289C10.5254 18.306 10.209 17.8385 9.99023 17.2266C9.77148 16.612 9.66211 15.8698 9.66211 15C9.66211 14.1354 9.77148 13.3971 9.99023 12.7852C10.2116 12.1706 10.5293 11.7018 10.9434 11.3789C11.36 11.0534 11.86 10.8906 12.4434 10.8906C13.0267 10.8906 13.5254 11.0534 13.9395 11.3789C14.3561 11.7018 14.6738 12.1706 14.8926 12.7852C15.1139 13.3971 15.2246 14.1354 15.2246 15C15.2246 15.8698 15.1152 16.612 14.8965 17.2266C14.6777 17.8385 14.3613 18.306 13.9473 18.6289C13.5332 18.9492 13.0319 19.1094 12.4434 19.1094ZM12.4434 18.25C13.0267 18.25 13.4798 17.9687 13.8027 17.4062C14.1257 16.8437 14.2871 16.0417 14.2871 15C14.2871 14.3073 14.2129 13.7174 14.0645 13.2305C13.9186 12.7435 13.7077 12.3724 13.4316 12.1172C13.1582 11.862 12.8288 11.7344 12.4434 11.7344C11.8652 11.7344 11.4134 12.0195 11.0879 12.5898C10.7624 13.1576 10.5996 13.9609 10.5996 15C10.5996 15.6927 10.6725 16.2812 10.8184 16.7656C10.9642 17.25 11.1738 17.6185 11.4473 17.8711C11.7233 18.1237 12.0553 18.25 12.4434 18.25ZM19.5215 11V19H18.5527V12.0156H18.5059L16.5527 13.3125V12.3281L18.5527 11H19.5215Z" fill="white"></path> <circle cx="15" cy="15" r="14.5" stroke="#5990BE"></circle> </svg> 