<?xml version="1.0" encoding="UTF-8"?> <svg xmlns="http://www.w3.org/2000/svg" width="122" height="185" viewBox="0 0 122 185" fill="none"> <path d="M120.134 102.855C120.144 103.24 120.027 103.627 119.914 104.001C119.86 104.179 119.804 104.363 119.762 104.547C119.519 105.6 119.461 106.677 119.59 107.746C119.601 107.831 119.612 107.917 119.625 108.005C119.687 108.462 119.752 108.935 119.608 109.353C119.436 109.853 119.058 110.302 118.788 110.597C118.228 111.208 117.455 111.665 116.555 111.918C115.908 112.099 115.192 112.183 114.366 112.175C113.912 112.171 113.43 112.14 112.85 112.077C111.929 111.979 111.026 111.833 110.165 111.647C110.011 111.613 109.855 111.582 109.696 111.55C109.147 111.441 108.58 111.327 108.088 111.118C107.93 111.051 107.776 110.971 107.63 110.879C106.811 110.361 106.223 109.462 106.016 108.411C105.886 107.748 105.88 107.233 105.997 106.742C106.092 106.346 106.25 105.958 106.402 105.582C106.472 105.412 106.541 105.241 106.605 105.069C106.819 104.494 106.992 103.969 107.132 103.465C107.187 103.268 107.222 103.054 107.257 102.848C107.302 102.572 107.35 102.286 107.443 102.05L107.457 102.014C107.717 101.363 108.099 100.863 108.592 100.527C109.164 100.136 109.871 100.018 110.555 99.9029L110.759 99.8683C112.612 99.5496 114.387 99.4823 116.02 99.6697L116.263 99.6972C116.848 99.7619 117.452 99.8292 117.992 100.009C118.728 100.255 119.209 100.816 119.482 101.244C119.904 101.902 120.123 102.444 120.134 102.855ZM120.405 102.848C120.392 102.387 120.159 101.799 119.711 101.098C119.284 100.432 118.72 99.9667 118.077 99.7523C117.511 99.5632 116.892 99.4947 116.293 99.4282L116.051 99.401C115.49 99.3367 114.908 99.3011 114.321 99.2957C113.171 99.2845 111.957 99.3876 110.713 99.6017L110.51 99.6361C109.798 99.7555 109.061 99.8794 108.439 100.303C107.902 100.67 107.487 101.212 107.205 101.913L107.191 101.951C107.087 102.214 107.038 102.514 106.99 102.803C106.955 103.012 106.923 103.209 106.872 103.392C106.733 103.889 106.563 104.407 106.351 104.975C106.288 105.144 106.22 105.312 106.151 105.481C105.995 105.865 105.833 106.263 105.734 106.679C105.608 107.21 105.613 107.761 105.751 108.464C105.972 109.587 106.604 110.55 107.486 111.108C107.644 111.207 107.811 111.295 107.982 111.367C108.5 111.587 109.081 111.703 109.643 111.816C109.8 111.847 109.955 111.878 110.107 111.911C110.978 112.1 111.891 112.247 112.821 112.347C113.41 112.41 113.9 112.441 114.364 112.446C115.215 112.454 115.956 112.366 116.628 112.178C117.577 111.912 118.393 111.429 118.988 110.779C119.274 110.467 119.676 109.989 119.864 109.441C120.029 108.962 119.96 108.456 119.893 107.968C119.881 107.882 119.869 107.797 119.859 107.713C119.734 106.675 119.789 105.63 120.025 104.608C120.066 104.433 120.12 104.253 120.173 104.079C120.292 103.685 120.416 103.276 120.405 102.848Z" fill="#73B61C" stroke="#73B61C" stroke-width="0.5"></path> <path d="M112.844 105.449C111.763 106.991 111.272 108.47 111.342 109.965C111.737 110.06 112.131 110.24 112.758 110.618C111.773 110.212 110.765 109.999 109.732 109.986C110.004 109.853 110.522 109.884 110.723 109.886C110.839 109.887 110.955 109.898 111.07 109.914C111.014 108.374 111.523 106.855 112.632 105.278C112.65 104.838 112.68 104.387 112.736 103.954C109.766 103.456 108.586 104.269 107.832 104.718C108.475 104.115 109.651 103.58 111.2 103.595C111.675 103.6 112.2 103.631 112.774 103.686C112.952 103.047 113.134 102.499 113.309 102.026C113.373 101.853 113.403 101.662 113.296 101.51C113.06 101.172 112.494 101.149 112.344 101.006C112.35 101.006 112.728 101.032 112.733 101.032C113.099 101.036 113.383 101.262 113.59 101.601C113.75 101.196 113.984 100.832 114.403 100.741C114.088 100.921 113.911 101.272 113.604 102.065C113.207 103.09 112.704 104.39 112.908 105.167C113.57 105.068 114.216 105.02 114.844 105.026C116.195 105.039 117.463 105.293 118.632 105.787C117.169 105.394 114.942 105.072 112.844 105.449Z" fill="#73B61C" stroke="#73B61C" stroke-width="0.5"></path> <path d="M117.138 118.965C117.045 119.399 116.921 119.831 116.812 120.202C116.746 120.427 116.728 120.646 116.71 120.858C116.703 120.953 116.695 121.049 116.683 121.147C116.624 121.616 116.653 122.092 116.682 122.551C116.719 123.157 116.754 123.729 116.607 124.297C116.386 125.147 115.709 126.04 114.839 126.628C114.3 126.992 113.368 127.414 112.514 127.405C112.402 127.404 112.294 127.395 112.193 127.379C109.653 126.958 106.945 126.014 103.914 124.492C102.95 123.939 102.51 122.95 102.575 121.471C102.573 121.097 102.579 120.73 102.595 120.371C102.633 119.462 102.729 118.569 102.88 117.718C102.925 117.464 102.994 117.232 103.067 116.987C103.092 116.903 103.117 116.818 103.142 116.731C103.196 116.542 103.212 116.345 103.228 116.155C103.241 115.998 103.253 115.85 103.285 115.707C103.576 114.388 104.484 113.211 105.654 112.635C106.368 112.284 107.204 112.111 108.139 112.12C108.251 112.121 108.363 112.124 108.475 112.131C109.524 112.189 110.56 112.469 111.345 112.706C112.648 113.099 113.938 113.587 115.179 114.156C115.28 114.202 115.391 114.248 115.506 114.294C115.907 114.457 116.361 114.642 116.559 114.959C116.874 115.463 117.093 115.984 117.209 116.506C117.368 117.216 117.345 117.997 117.138 118.965ZM117.474 116.447C117.35 115.895 117.12 115.346 116.789 114.816C116.544 114.425 116.047 114.222 115.609 114.044C115.497 113.998 115.39 113.955 115.292 113.91C114.04 113.335 112.738 112.843 111.424 112.447C110.624 112.205 109.568 111.921 108.49 111.861C108.374 111.854 108.258 111.85 108.141 111.849C107.164 111.84 106.287 112.022 105.535 112.392C104.273 113.013 103.333 114.23 103.02 115.648C102.985 115.809 102.971 115.973 102.958 116.132C102.943 116.318 102.928 116.493 102.882 116.658C102.858 116.743 102.832 116.826 102.808 116.909C102.736 117.152 102.661 117.402 102.614 117.67C102.461 118.534 102.363 119.438 102.324 120.359C102.308 120.722 102.302 121.095 102.304 121.465C102.236 123.026 102.734 124.127 103.785 124.731C106.848 126.268 109.581 127.221 112.148 127.646C112.263 127.665 112.385 127.675 112.512 127.676C113.427 127.685 114.419 127.238 114.991 126.852C115.926 126.22 116.629 125.29 116.869 124.365C117.027 123.755 116.989 123.135 116.952 122.534C116.924 122.087 116.895 121.625 116.951 121.181C116.964 121.079 116.972 120.979 116.98 120.881C116.997 120.673 117.014 120.476 117.072 120.278C117.182 119.903 117.307 119.465 117.402 119.021C117.616 118.028 117.639 117.186 117.474 116.447Z" fill="#73B61C" stroke="#73B61C" stroke-width="0.5"></path> <path d="M110.868 119.011C110.619 119.033 110.364 119.049 110.137 119.153C109.825 119.295 109.601 119.563 109.399 119.831C109.187 120.114 108.951 120.382 108.751 120.672C108.305 121.321 107.917 122.07 107.885 122.873C107.876 123.084 107.894 123.296 107.939 123.502C107.951 123.557 108.128 124.131 108.162 124.116C108.162 124.116 108.399 124.258 108.46 124.285C108.597 124.347 109.374 124.874 109.578 125.109C108.842 124.726 108.091 124.148 106.552 124.12C106.816 124.057 107.074 124.028 107.325 124.03C107.508 124.032 107.687 124.054 107.863 124.09C107.118 122.205 108.514 120.405 109.925 118.854C109.986 118.787 109.794 118.263 109.767 118.173C109.696 117.929 109.608 117.69 109.507 117.457C109.302 116.986 109.038 116.55 108.748 116.127C107.325 116.481 104.669 116.243 104.668 116.05C106.173 116.201 107.556 116.132 108.777 115.845C109.909 115.578 110.938 115.114 111.842 114.468C111.428 114.287 111.071 113.993 110.772 113.571C111.641 114.394 112.835 114.66 114.281 114.497C113.831 114.585 113.024 114.661 112.494 114.626C112.264 114.611 112.033 114.67 111.842 114.8C110.999 115.373 110.055 115.795 109.028 116.059C109.656 116.967 110.04 117.88 110.197 118.838C111.738 118.599 113.283 118.935 114.593 119.793C115.022 120.074 115.418 120.407 115.764 120.785C115.174 120.161 113.178 118.804 110.868 119.011Z" fill="#73B61C" stroke="#73B61C" stroke-width="0.5"></path> <path d="M107.967 143.696C108.723 143.696 109.479 143.596 110.213 143.398C111.651 143.011 112.758 141.83 112.966 140.459C113.301 138.261 113.932 136.237 114.842 134.443C115.338 133.465 114.979 132.173 114.666 131.286C114.25 130.108 113.323 129.49 112.383 128.998L112.138 128.869C111.007 128.276 109.838 127.663 108.647 127.197C107.972 126.933 107.277 126.697 106.581 126.495C106.431 126.451 106.264 126.395 106.089 126.336C105.581 126.165 105.001 125.973 104.559 125.995C103.306 126.068 102.136 126.5 101.081 127.277C99.506 129.276 98.4448 131.11 97.7417 133.047C97.1345 134.719 97.3293 136.678 98.25 138.159C98.3914 138.387 98.5507 138.603 98.7232 138.8C101.438 141.912 104.807 143.696 107.967 143.696ZM104.639 125.722C105.113 125.722 105.677 125.912 106.175 126.08C106.347 126.137 106.51 126.192 106.657 126.235C107.36 126.439 108.063 126.678 108.746 126.945C109.951 127.417 111.126 128.033 112.263 128.63L112.508 128.758C113.45 129.252 114.473 129.927 114.921 131.196C115.251 132.129 115.627 133.495 115.083 134.565C114.187 136.333 113.564 138.33 113.234 140.5C113.009 141.975 111.823 143.245 110.283 143.66C109.526 143.863 108.747 143.967 107.967 143.967C104.729 143.967 101.285 142.148 98.5193 138.978C98.3373 138.77 98.1694 138.542 98.0201 138.302C97.0566 136.752 96.8524 134.703 97.4873 132.954C98.2023 130.985 99.2802 129.123 100.88 127.096L100.905 127.071C102.007 126.255 103.231 125.802 104.543 125.725C104.575 125.723 104.606 125.722 104.639 125.722Z" fill="#D0111D" stroke="#D0111D" stroke-width="0.5"></path> <path d="M108.791 129.314C107.282 129.73 106.339 130.322 105.435 131.113C105.71 131.444 105.78 131.973 105.835 132.394C105.847 132.487 105.858 132.575 105.871 132.653C105.994 133.406 106.066 134.173 106.09 134.934C106.168 134.913 106.248 134.906 106.32 134.907C106.368 134.908 106.411 134.91 106.45 134.913C107.084 134.956 107.715 135.034 108.341 135.149C108.989 135.267 109.631 135.422 110.262 135.61C110.918 135.804 111.563 136.034 112.196 136.293C112.351 136.357 112.503 136.428 112.659 136.489C112.501 136.451 112.333 136.435 112.172 136.404C112.007 136.372 111.843 136.338 111.679 136.299C111.351 136.223 111.027 136.134 110.706 136.032C110.168 135.862 109.64 135.671 109.092 135.535C108.631 135.421 108.162 135.342 107.689 135.288C107.494 135.266 107.298 135.248 107.102 135.232C106.881 135.213 106.655 135.185 106.432 135.183C106.299 135.175 106.173 135.171 106.084 135.224C105.988 135.281 105.931 135.404 105.872 135.535L105.85 135.583C105.666 135.979 105.389 136.335 105.049 136.61C104.86 136.764 104.653 136.891 104.453 137.015C104.281 137.121 104.11 137.227 103.948 137.35C103.934 138.603 104.056 139.742 104.488 140.812C104.54 140.942 104.641 141.045 104.766 141.109C104.897 141.175 105.026 141.242 105.15 141.32C105.274 141.398 105.379 141.495 105.489 141.591C105.044 141.387 104.596 141.181 104.12 141.064C103.818 140.99 103.507 140.952 103.198 140.915C103.401 140.864 103.605 140.854 103.814 140.856C103.986 140.857 104.162 140.889 104.336 140.938C104.311 140.931 104.265 140.759 104.254 140.73C104.227 140.658 104.201 140.585 104.175 140.511C104.124 140.364 104.076 140.216 104.033 140.066C103.946 139.763 103.875 139.456 103.821 139.146C103.776 138.89 103.742 138.633 103.718 138.374C103.707 138.245 103.697 138.115 103.691 137.985C103.687 137.919 103.685 137.854 103.683 137.788C103.681 137.725 103.691 137.646 103.675 137.585C103.596 137.618 103.517 137.701 103.454 137.759C103.381 137.825 103.312 137.895 103.249 137.97C103.052 138.199 102.942 138.463 102.794 138.721C102.636 138.997 102.458 139.26 102.261 139.509C102.21 139.574 102.157 139.637 102.104 139.7C102.121 139.549 102.19 139.401 102.244 139.257C102.285 139.149 102.33 139.044 102.387 138.943C102.472 138.795 102.572 138.56 102.683 138.357C102.817 138.11 102.934 137.897 103.041 137.789C103.363 137.465 103.65 137.22 103.945 137.018C104.065 136.937 104.188 136.861 104.311 136.785C104.513 136.66 104.703 136.543 104.879 136.4C105.187 136.15 105.438 135.828 105.605 135.469L105.626 135.423C105.68 135.305 105.739 135.176 105.838 135.076L105.824 135.076C105.806 134.283 105.732 133.482 105.604 132.697C105.591 132.616 105.579 132.525 105.566 132.428C105.495 131.879 105.406 131.196 104.899 131.086L104.579 131.015C103.462 130.767 102.877 130.551 101.739 130.706L100.761 130.815C101.186 130.637 101.973 130.414 102.445 130.418C103.176 130.425 103.935 130.595 104.638 130.751L104.956 130.821C105.06 130.844 105.149 130.883 105.229 130.933C106.153 130.114 107.366 129.507 108.919 129.077C108.489 128.893 108.283 128.797 107.739 128.627L107.001 128.324C107.518 128.407 108.024 128.557 108.51 128.748C109.014 128.946 109.503 129.191 109.954 129.491C110.353 129.757 110.734 130.07 111.02 130.458C111.041 130.486 111.112 130.561 111.101 130.593C110.97 130.543 110.859 130.407 110.756 130.312C110.626 130.193 110.513 130.118 110.398 130.021C110.168 129.828 109.925 129.665 109.674 129.499C109.591 129.445 109.465 129.384 109.34 129.336C109.165 129.27 108.971 129.264 108.791 129.314Z" fill="#D0111D" stroke="#D0111D" stroke-width="0.5"></path> <path d="M109.44 150.856C109.153 151.442 108.664 151.97 107.984 152.425C106.914 153.143 105.62 153.708 104.341 154.016C103.704 154.169 103.085 154.244 102.503 154.239C101.777 154.232 101.104 154.099 100.503 153.845C98.939 153.181 97.6294 151.977 96.7804 151.13C96.4441 150.794 96.004 150.347 95.582 149.867C95.4925 149.765 95.3991 149.665 95.3049 149.563C95.0875 149.33 94.8628 149.088 94.6878 148.828C94.6049 148.706 94.5293 148.575 94.4635 148.44C94.1218 147.741 94.0375 146.932 94.2326 146.22C94.6667 144.634 96.2268 143.258 97.7841 143.088C98.2025 143.042 98.6665 143.023 99.2035 143.028C99.5722 143.031 99.965 143.046 100.477 143.075C101.209 143.117 101.996 143.224 102.817 143.395C104.497 143.744 106.61 144.353 108.052 145.979C108.696 146.704 109.187 147.586 109.472 148.528C109.692 149.252 109.839 150.035 109.44 150.856ZM109.732 148.449C109.435 147.47 108.924 146.554 108.255 145.799C106.76 144.114 104.593 143.488 102.872 143.13C102.038 142.957 101.238 142.847 100.493 142.805C99.9761 142.775 99.5793 142.761 99.206 142.757C98.6584 142.752 98.1837 142.772 97.7547 142.819C96.095 143 94.4331 144.463 93.9715 146.148C93.7591 146.923 93.8499 147.801 94.2202 148.559C94.2917 148.705 94.3738 148.847 94.4635 148.98C94.6502 149.257 94.8823 149.506 95.1068 149.748C95.199 149.847 95.291 149.946 95.379 150.046C95.806 150.531 96.25 150.982 96.5893 151.321C97.4541 152.185 98.7899 153.412 100.398 154.094C101.533 154.575 102.915 154.638 104.405 154.279C105.714 153.964 107.038 153.385 108.135 152.65C108.855 152.168 109.375 151.604 109.683 150.974C110.124 150.07 109.967 149.226 109.732 148.449Z" fill="#D0111D" stroke="#D0111D" stroke-width="0.5"></path> <path d="M102.075 146.789C102.088 147.837 101.588 148.739 100.586 149.478C101.536 150.083 102.39 151.009 103.139 152.256L102.707 151.784C101.165 149.954 100.188 149.183 97.9795 148.736L97.2734 148.64C97.4294 148.629 97.5837 148.625 97.7363 148.626C98.6664 148.635 99.5332 148.869 100.334 149.323C101.367 148.596 101.846 147.732 101.796 146.69C100.952 146.344 100.261 145.727 99.7127 144.838L100.255 145.333C100.86 145.925 101.396 146.317 101.998 146.547C101.998 146.547 102.064 146.561 102.065 146.571C102.834 146.848 103.718 146.869 104.997 146.706C105.078 146.696 105.162 146.69 105.244 146.69L105.816 146.687C104.344 147.094 103.104 147.126 102.075 146.789Z" fill="#D0111D" stroke="#D0111D" stroke-width="0.5"></path> <path d="M97.6221 164.595L97.9121 164.548C98.8496 164.403 99.6725 164.201 100.428 163.931C101.739 163.461 103.407 162.552 103.906 160.888C104.097 160.251 104.094 159.525 103.897 158.73C103.717 158.003 103.325 156.696 102.72 156.106C101.707 155.117 100.426 154.354 98.9139 153.838C96.782 153.111 94.569 152.992 92.4954 152.972H92.4952L92.2383 152.97C91.731 152.968 91.3416 153.283 90.9294 153.616L90.808 153.714C89.9101 154.431 89.3308 155.149 89.0366 155.911C88.8794 156.317 88.8045 156.743 88.8141 157.175C88.8304 157.921 89.0017 158.438 89.405 158.958C89.5467 159.14 89.6861 159.324 89.8258 159.508C90.0587 159.815 90.2911 160.121 90.5336 160.421C91.4049 161.499 92.2259 162.375 93.0443 163.1C93.6354 163.624 94.2446 164.056 94.9072 164.421C95.1028 164.529 95.3211 164.614 95.5555 164.672C95.7122 164.711 95.8873 164.735 96.0752 164.743C96.1162 164.745 96.1577 164.746 96.1993 164.746C96.6675 164.751 97.1529 164.672 97.6221 164.595ZM99.0015 153.582C100.552 154.111 101.867 154.895 102.909 155.912C103.562 156.549 103.973 157.91 104.16 158.664C104.368 159.508 104.37 160.282 104.165 160.966C103.634 162.738 101.889 163.695 100.519 164.186C99.7476 164.462 98.9082 164.668 97.9534 164.816L97.6659 164.862C97.1657 164.944 96.5934 165.038 96.0635 165.013C95.8573 165.005 95.6643 164.978 95.4902 164.935C95.2331 164.871 94.9928 164.778 94.7764 164.658C94.0963 164.283 93.471 163.84 92.8648 163.303C92.0351 162.568 91.2039 161.681 90.3232 160.591C90.0789 160.289 89.8446 159.98 89.6102 159.671C89.4712 159.488 89.332 159.305 89.1914 159.124C88.7548 158.561 88.5612 157.98 88.5434 157.181C88.533 156.713 88.6141 156.253 88.7842 155.813C89.0962 155.006 89.7029 154.25 90.6394 153.503L90.7593 153.406C91.1903 153.057 91.6358 152.696 92.2398 152.7L92.4977 152.702C92.4977 152.702 92.4977 152.702 92.4982 152.702C94.5945 152.722 96.8332 152.842 99.0015 153.582Z" fill="#D0111D" stroke="#D0111D" stroke-width="0.5"></path> <path d="M96.7278 156.427C96.8168 157.902 96.0575 159.09 94.4703 159.964C95.5648 160.559 96.5698 161.382 97.4749 162.432L96.8363 161.974C94.9907 160.504 93.7832 159.774 91.5687 159.099L91.2666 158.911C92.2963 159.054 93.2697 159.356 94.1828 159.812C95.8523 158.946 96.5928 157.795 96.4442 156.3C95.6973 155.933 95.0607 155.355 94.5309 154.555L95.008 155.029C96.5609 156.371 97.8337 156.539 100.001 156.515L100.399 156.558C98.9663 156.885 97.7496 156.841 96.7278 156.427Z" fill="#D0111D" stroke="#D0111D" stroke-width="0.5"></path> <path d="M91.7334 174.833C92.7554 174.737 93.5844 174.496 94.268 174.096C96.3473 172.879 96.6474 170.005 96.2353 167.721C96.1473 167.233 96.0165 166.801 95.836 166.401C95.6943 166.087 95.5178 165.731 95.2822 165.471C95.1319 165.304 94.9096 165.164 94.6948 165.028L94.561 164.943C93.4126 164.199 92.0308 163.843 90.826 163.566C89.9446 163.365 89.041 163.2 88.1398 163.078L87.8671 163.04C87.162 162.94 86.3997 162.859 85.8017 162.977C85.0382 163.129 84.0211 163.517 83.5113 164.508C82.9592 165.581 83.133 166.868 83.3392 167.991C83.7172 170.048 84.8689 173.649 88.3349 174.656C88.8696 174.811 89.5199 174.893 90.2678 174.901C90.7155 174.905 91.2087 174.882 91.7334 174.833ZM87.9049 162.772L88.1761 162.81C89.0852 162.933 89.9973 163.099 90.8868 163.303C92.1139 163.584 93.5229 163.948 94.7081 164.716L94.8391 164.799C95.0587 164.938 95.3079 165.095 95.4834 165.289C95.7435 165.577 95.9324 165.957 96.0827 166.29C96.2726 166.71 96.4096 167.162 96.5018 167.672C96.9303 170.047 96.6044 173.042 94.405 174.33C93.6863 174.75 92.8207 175.003 91.7588 175.102C90.3224 175.237 89.1485 175.174 88.2595 174.916C84.6538 173.869 83.4623 170.158 83.0729 168.04C82.8586 166.874 82.6793 165.533 83.2707 164.384C83.8297 163.298 84.927 162.875 85.7488 162.712C86.0015 162.661 86.2682 162.638 86.5649 162.641C87.0146 162.646 87.4673 162.71 87.9049 162.772Z" fill="#D0111D" stroke="#D0111D" stroke-width="0.5"></path> <path d="M92.0214 171.603C91.0693 172.792 89.6699 173.345 87.8384 173.214L87.8752 173.296C89.8089 173.508 91.0448 173.07 92.0095 171.728L92.0214 171.603Z" fill="#D0111D" stroke="#D0111D" stroke-width="0.5"></path> <path d="M94.2053 166.674L94.0923 166.464C94.3737 167.841 94.0639 169.268 93.1147 170.806L93.2698 170.751C94.2933 169.149 94.5373 168.079 94.2053 166.674Z" fill="#D0111D" stroke="#D0111D" stroke-width="0.5"></path> <path d="M85.9056 175.362C85.7555 175.857 85.3058 176.248 84.909 176.593L84.7599 176.723C83.6597 177.696 82.4613 178.456 81.1977 178.981C80.55 179.251 79.8711 179.464 79.18 179.617C78.8312 179.694 78.4702 179.758 78.1075 179.805C78.0321 179.816 77.9409 179.833 77.8415 179.852C77.7107 179.877 77.5688 179.903 77.4358 179.917C77.2654 179.898 77.0943 179.877 76.921 179.85C76.4229 179.662 76.0725 179.389 75.8814 179.034C75.8067 178.895 75.7326 178.742 75.6614 178.581C75.4665 178.141 75.3078 177.671 75.1486 177.188C74.7436 175.959 74.4811 174.681 74.3683 173.391C74.3579 173.272 74.3453 173.148 74.3325 173.019C74.2628 172.329 74.1839 171.547 74.3599 170.961C74.5224 170.42 74.8403 169.861 75.2102 169.466C75.7049 168.937 76.5363 168.6 77.328 168.607C77.6304 168.61 77.911 168.662 78.1627 168.762C80.5547 169.709 82.8631 171.308 85.2203 173.649C85.6282 174.103 86.0836 174.773 85.9056 175.362ZM78.6729 179.993C78.8636 179.959 79.0527 179.923 79.2384 179.882C79.945 179.726 80.6392 179.507 81.3016 179.231C82.5931 178.694 83.8167 177.919 84.9394 176.926L85.0865 176.798C85.1965 176.702 85.3105 176.602 85.4218 176.498C84.2318 178.743 81.7572 180.015 78.6729 179.993ZM85.4161 173.463C83.0273 171.089 80.6892 169.471 78.2623 168.51C77.9797 168.398 77.6662 168.34 77.3307 168.337C76.4666 168.328 75.5565 168.699 75.0124 169.281C74.6153 169.706 74.2746 170.305 74.1008 170.883C73.9092 171.521 73.991 172.331 74.0632 173.046C74.0761 173.174 74.0885 173.297 74.0988 173.414C74.2131 174.725 74.4801 176.024 74.8917 177.273C75.0529 177.763 75.2141 178.239 75.4136 178.691C75.4878 178.858 75.5649 179.017 75.6431 179.162C75.8606 179.566 76.2436 179.876 76.7818 180.088L76.7791 180.105C76.8058 180.109 76.8315 180.111 76.8582 180.115C76.9057 180.133 76.9522 180.151 77.0021 180.166C77.1107 180.201 77.2607 180.203 77.4219 180.188C81.6428 180.662 85.0118 178.911 86.0987 175.614L86.0984 175.614C86.1229 175.557 86.1462 175.5 86.1645 175.44C86.3791 174.731 85.8757 173.973 85.4161 173.463Z" fill="#73B61C" stroke="#73B61C" stroke-width="0.5"></path> <path d="M77.7065 178.302C80.4556 177.935 82.5828 176.838 84.037 174.929C82.677 177.199 80.5082 178.28 77.7065 178.302Z" fill="#73B61C" stroke="#73B61C" stroke-width="0.5"></path> <path d="M74.9911 179.536C74.9642 179.989 74.8991 180.499 74.6242 180.849C74.4059 181.128 74.062 181.208 73.6981 181.293C73.546 181.328 73.389 181.365 73.2402 181.417C72.7022 181.606 72.1565 181.778 71.6188 181.929C70.5369 182.233 69.4735 182.458 68.4584 182.599C67.2971 182.76 66.2323 182.83 65.1073 182.82C64.1891 182.811 63.3114 182.751 62.1937 182.657C62.0159 182.642 61.8325 182.627 61.696 182.537C61.3506 182.31 61.2178 181.519 61.154 181.139C61.0406 180.461 61.1343 179.822 61.2408 179.286C61.8666 176.138 62.8444 173.589 64.2301 171.494C66.0337 169.856 67.844 169.713 69.7015 171.061C71.6242 172.538 73.1507 174.538 74.235 177.005C74.305 177.164 74.3767 177.317 74.4469 177.467C74.7649 178.146 75.0396 178.732 74.9911 179.536ZM62.7687 182.975C63.6205 183.041 64.3493 183.083 65.1046 183.09C66.2434 183.101 67.3209 183.03 68.4957 182.867C69.5227 182.724 70.5982 182.496 71.692 182.19C72.2354 182.037 72.7865 181.863 73.3297 181.673C73.4649 181.625 73.6081 181.591 73.7596 181.556C73.7596 181.556 73.7599 181.556 73.7601 181.556C70.7416 184.079 67.0521 184.559 62.7687 182.975ZM74.6919 177.352C74.6227 177.205 74.552 177.053 74.4828 176.896C73.3799 174.387 71.8257 172.351 69.8634 170.845C68.9845 170.207 68.1029 169.88 67.2402 169.872C66.1677 169.861 65.0895 170.344 64.0356 171.305L64.0138 171.331C62.6033 173.458 61.6097 176.043 60.9753 179.233C60.864 179.793 60.7664 180.463 60.887 181.183C60.9627 181.633 61.1031 182.471 61.5471 182.763C61.6018 182.799 61.6594 182.825 61.7182 182.846L61.718 182.846C66.7381 185.01 71.0079 184.507 74.4091 181.352C74.5683 181.275 74.7157 181.171 74.8371 181.016C75.158 180.607 75.2317 180.047 75.2613 179.553C75.3137 178.68 75.0119 178.035 74.6919 177.352Z" fill="#73B61C" stroke="#73B61C" stroke-width="0.5"></path> <path d="M62.5513 180.48L62.821 180.566C66.2776 181.488 69.9075 181.07 73.4227 179.324L73.2638 179.443C69.6546 181.714 66.0348 181.976 62.5513 180.48Z" fill="#73B61C" stroke="#73B61C" stroke-width="0.5"></path> <path d="M2.53329 100.94C2.81094 100.515 3.29701 99.9583 4.03525 99.7197C4.5767 99.5447 5.18169 99.4834 5.7669 99.4243L6.01067 99.3993C7.64515 99.2272 9.41932 99.3115 11.2689 99.648L11.4729 99.6846C12.1552 99.8058 12.8613 99.9313 13.4302 100.327C13.9193 100.668 14.2965 101.172 14.5509 101.825L14.5648 101.861C14.655 102.099 14.6998 102.384 14.7428 102.661C14.7752 102.868 14.8086 103.082 14.8612 103.279C14.9972 103.785 15.1643 104.311 15.3735 104.888C15.4358 105.061 15.5036 105.232 15.5713 105.403C15.7204 105.78 15.8744 106.17 15.9651 106.567C16.0774 107.059 16.0665 107.574 15.93 108.236C15.7132 109.284 15.1164 110.178 14.2928 110.688C14.146 110.779 13.9915 110.858 13.8332 110.923C13.3385 111.127 12.7701 111.235 12.2205 111.34C12.0618 111.37 11.9048 111.4 11.7512 111.431C10.8879 111.61 9.98326 111.747 9.06206 111.837C8.48106 111.893 7.99894 111.92 7.54452 111.92C6.719 111.92 6.004 111.829 5.35871 111.641C4.4605 111.38 3.69234 110.916 3.13754 110.299C2.87102 110.002 2.49695 109.55 2.32982 109.048C2.18988 108.628 2.25936 108.156 2.32611 107.699C2.33922 107.612 2.35183 107.526 2.36295 107.441C2.50239 106.373 2.45517 105.296 2.22228 104.24C2.18198 104.056 2.12783 103.872 2.07566 103.693C1.96564 103.317 1.85241 102.929 1.866 102.545C1.88084 102.134 2.10533 101.595 2.53329 100.94ZM1.81581 103.769C1.86675 103.943 1.91941 104.123 1.95798 104.298C2.1842 105.324 2.22994 106.369 2.09445 107.406C2.08357 107.489 2.07121 107.574 2.05836 107.66C1.9869 108.148 1.91274 108.652 2.07294 109.133C2.25615 109.683 2.65345 110.165 2.93629 110.48C3.52496 111.135 4.33639 111.626 5.28305 111.901C5.95356 112.096 6.69304 112.191 7.54452 112.191C8.00809 112.191 8.49861 112.164 9.08852 112.106C10.0191 112.015 10.9334 111.877 11.8061 111.697C11.9582 111.665 12.1139 111.635 12.2714 111.605C12.8341 111.499 13.4161 111.388 13.9363 111.173C14.1084 111.102 14.276 111.016 14.435 110.918C15.3218 110.369 15.9632 109.411 16.1948 108.291C16.3399 107.589 16.3503 107.039 16.2289 106.507C16.1338 106.09 15.9755 105.69 15.823 105.304C15.7562 105.135 15.6895 104.966 15.6279 104.796C15.4217 104.226 15.2566 103.707 15.1228 103.208C15.0736 103.026 15.043 102.828 15.0101 102.619C14.9648 102.329 14.9183 102.029 14.8177 101.765L14.8031 101.727C14.5287 101.023 14.1188 100.477 13.585 100.105C12.9669 99.6752 12.2314 99.5444 11.5201 99.4181L11.3176 99.3817C10.076 99.1558 8.86303 99.0413 7.71289 99.0413C7.12546 99.0413 6.54322 99.0712 5.98224 99.1303L5.73945 99.155C5.1404 99.2156 4.52083 99.2784 3.95219 99.4621C3.30814 99.6703 2.739 100.13 2.30633 100.792C1.85142 101.488 1.61209 102.075 1.59553 102.535C1.58045 102.963 1.70011 103.373 1.81581 103.769Z" fill="#D0111D" stroke="#D0111D" stroke-width="0.5"></path> <path d="M9.13036 105.209C10.1967 106.761 10.6736 108.245 10.5898 109.738C10.1935 109.829 9.79765 110.006 9.16744 110.378C10.1561 109.982 11.1663 109.778 12.1991 109.775C11.9283 109.639 11.4104 109.665 11.2091 109.665C11.0934 109.665 10.9775 109.675 10.8618 109.69C10.9322 108.151 10.4387 106.627 9.34446 105.039C9.33012 104.599 9.30466 104.148 9.25323 103.715C12.227 103.245 13.4001 104.069 14.15 104.525C13.5126 103.916 12.3412 103.37 10.792 103.37C10.3178 103.37 9.79172 103.396 9.21714 103.446C9.04605 102.805 8.86854 102.256 8.69844 101.782C8.63589 101.607 8.6082 101.416 8.71574 101.266C8.95606 100.93 9.52173 100.912 9.67279 100.77C9.6676 100.77 9.28908 100.792 9.28364 100.792C8.91749 100.792 8.63143 101.016 8.42202 101.354C8.26528 100.947 8.03486 100.58 7.61653 100.486C7.93052 100.668 8.10359 101.022 8.40299 101.817C8.78992 102.845 9.28068 104.151 9.06929 104.925C8.40843 104.821 7.76265 104.766 7.13467 104.766C5.78402 104.766 4.51372 105.008 3.33984 105.491C4.8067 105.112 7.03602 104.812 9.13036 105.209Z" fill="#D0111D" stroke="#D0111D" stroke-width="0.5"></path> <path d="M4.65995 116.223C4.78159 115.702 5.00534 115.184 5.32502 114.683C5.52627 114.368 5.98217 114.187 6.38418 114.028C6.49964 113.982 6.61114 113.938 6.71275 113.893C7.95907 113.335 9.2536 112.86 10.5602 112.479C11.3477 112.25 12.3866 111.98 13.4361 111.932C13.5478 111.927 13.6603 111.924 13.7726 111.924C14.7074 111.924 15.5413 112.105 16.2519 112.463C17.4168 113.05 18.3136 114.236 18.592 115.557C18.6221 115.7 18.633 115.849 18.6446 116.006C18.6582 116.196 18.6728 116.393 18.7247 116.583C18.7485 116.67 18.7727 116.755 18.7972 116.839C18.8679 117.086 18.9349 117.318 18.9774 117.572C19.1198 118.425 19.2076 119.318 19.2375 120.228C19.2494 120.587 19.2526 120.954 19.2466 121.328C19.2971 122.807 18.8476 123.792 17.8792 124.336C14.8335 125.829 12.1166 126.747 9.57278 127.144C9.47166 127.159 9.36337 127.167 9.25088 127.167C8.39742 127.167 7.46905 126.736 6.93353 126.367C6.06969 125.772 5.40092 124.872 5.1883 124.02C5.04639 123.451 5.08718 122.879 5.1302 122.273C5.16308 121.814 5.19695 121.339 5.14256 120.869C5.13119 120.771 5.12451 120.675 5.11759 120.58C5.10201 120.368 5.08619 120.148 5.0224 119.923C4.91683 119.551 4.79717 119.118 4.70841 118.683C4.50988 117.713 4.49455 116.932 4.65995 116.223ZM4.44313 118.737C4.53386 119.181 4.65526 119.62 4.76182 119.997C4.81819 120.196 4.83228 120.392 4.84736 120.6C4.85453 120.699 4.86194 120.798 4.87356 120.901C4.92523 121.345 4.89211 121.807 4.86046 122.254C4.81745 122.854 4.77343 123.474 4.92573 124.085C5.1569 125.013 5.85015 125.949 6.77975 126.59C7.34741 126.981 8.33536 127.438 9.25088 127.438C9.37746 127.438 9.49984 127.429 9.61456 127.411C12.1856 127.011 14.9279 126.084 18.005 124.576C19.0617 123.983 19.5708 122.887 19.5174 121.325C19.523 120.954 19.5201 120.582 19.508 120.219C19.4778 119.297 19.3888 118.392 19.2444 117.528C19.1994 117.258 19.127 117.007 19.0573 116.765C19.0333 116.681 19.009 116.597 18.9858 116.512C18.9408 116.347 18.9279 116.172 18.9144 115.986C18.9027 115.827 18.8906 115.662 18.8567 115.501C18.5573 114.08 17.6292 112.854 16.3733 112.221C15.6251 111.845 14.7499 111.653 13.7726 111.653C13.6561 111.653 13.5394 111.656 13.4235 111.661C12.3453 111.711 11.2866 111.986 10.4846 112.219C9.16608 112.604 7.85968 113.083 6.60224 113.646C6.50409 113.69 6.39629 113.732 6.28454 113.776C5.84421 113.951 5.34504 114.148 5.09657 114.537C4.76082 115.064 4.52496 115.611 4.39615 116.162C4.22408 116.9 4.23965 117.742 4.44313 118.737Z" fill="#D0111D" stroke="#D0111D" stroke-width="0.5"></path> <path d="M10.9775 118.788C11.2265 118.813 11.4816 118.831 11.7081 118.938C12.0189 119.083 12.2402 119.352 12.4389 119.623C12.6483 119.907 12.8822 120.177 13.079 120.469C13.5194 121.123 13.8999 121.876 13.9243 122.679C13.9308 122.89 13.9115 123.102 13.8643 123.308C13.8516 123.362 13.6692 123.935 13.6356 123.919C13.6356 123.919 13.3975 124.059 13.3357 124.086C13.1982 124.146 12.4159 124.665 12.2095 124.899C12.95 124.522 13.706 123.952 15.2453 123.938C14.982 123.874 14.7244 123.841 14.4734 123.841C14.29 123.841 14.1107 123.862 13.9345 123.896C14.6972 122.019 13.3186 120.205 11.9225 118.64C11.8626 118.573 12.0589 118.051 12.0866 117.96C12.1608 117.718 12.2505 117.48 12.3541 117.248C12.5635 116.779 12.8311 116.345 13.1258 115.925C14.5456 116.293 17.2032 116.08 17.2061 115.887C15.6997 116.024 14.3174 115.941 13.0991 115.642C11.9699 115.365 10.9456 114.891 10.0472 114.236C10.4635 114.06 10.8235 113.769 11.1256 113.35C10.2497 114.164 9.05304 114.419 7.60868 114.242C8.05791 114.334 8.86365 114.418 9.39447 114.388C9.62489 114.376 9.85482 114.436 10.0442 114.568C10.8816 115.15 11.8216 115.58 12.8456 115.854C12.2097 116.757 11.8171 117.666 11.6507 118.622C10.1119 118.368 8.564 118.689 7.24574 119.535C6.81407 119.812 6.41552 120.141 6.06494 120.515C6.66127 119.898 8.67031 118.56 10.9775 118.788Z" fill="#D0111D" stroke="#D0111D" stroke-width="0.5"></path> <path d="M20.6859 127.148C19.6379 126.361 18.4719 125.918 17.2202 125.833C16.7786 125.802 16.1966 125.993 15.6873 126.159C15.5115 126.216 15.3439 126.271 15.1928 126.313C14.4942 126.509 13.7969 126.739 13.1205 126.996C11.9254 127.45 10.751 128.052 9.61545 128.634L9.36821 128.761C8.42328 129.244 7.48995 129.854 7.06322 131.027C6.74157 131.91 6.36998 133.199 6.85679 134.182C7.74931 135.984 8.36122 138.014 8.67496 140.216C8.87053 141.589 9.96578 142.78 11.4005 143.181C12.159 143.393 12.942 143.501 13.7272 143.501C16.8602 143.501 20.2157 141.748 22.9331 138.693C23.1076 138.497 23.2688 138.283 23.4127 138.057C24.3475 136.584 24.5609 134.627 23.9697 132.949C23.2849 131.006 22.241 129.162 20.6859 127.148ZM17.125 125.559C17.125 125.559 17.125 125.559 17.1255 125.559C17.1638 125.559 17.2019 125.56 17.2387 125.563C18.5496 125.652 19.7689 126.117 20.8635 126.943L20.8889 126.969C22.4683 129.011 23.5284 130.883 24.2251 132.859C24.8432 134.614 24.6197 136.661 23.6411 138.202C23.4893 138.441 23.3192 138.666 23.1355 138.873C20.3665 141.986 16.9376 143.771 13.7272 143.771C12.9173 143.771 12.1098 143.66 11.3276 143.442C9.79123 143.012 8.6176 141.732 8.40696 140.254C8.09717 138.081 7.49391 136.078 6.614 134.302C6.0812 133.226 6.47011 131.864 6.80882 130.934C7.26918 129.67 8.29842 129.004 9.24508 128.52L9.49183 128.393C10.6343 127.808 11.8151 127.203 13.0243 126.743C13.7084 126.483 14.4133 126.251 15.1199 126.053C15.2675 126.011 15.4314 125.958 15.6035 125.902C16.0962 125.741 16.6548 125.559 17.125 125.559Z" fill="#D0111D" stroke="#D0111D" stroke-width="0.5"></path> <path d="M12.9555 129.111C14.4612 129.541 15.398 130.142 16.295 130.942C16.0161 131.27 15.9414 131.798 15.8828 132.219C15.87 132.312 15.8576 132.4 15.8442 132.478C15.7137 133.23 15.6343 133.995 15.6037 134.756C15.5251 134.735 15.4455 134.727 15.3733 134.727C15.3258 134.727 15.282 134.73 15.2435 134.732C14.6088 134.769 13.9771 134.841 13.3509 134.95C12.7011 135.062 12.0583 135.211 11.4247 135.392C10.7673 135.581 10.12 135.804 9.48459 136.057C9.32908 136.119 9.17579 136.189 9.01904 136.249C9.17802 136.212 9.34589 136.198 9.50709 136.169C9.67249 136.138 9.83739 136.105 10.0016 136.069C10.3299 135.995 10.6553 135.91 10.9769 135.811C11.5161 135.645 12.0457 135.46 12.5956 135.329C13.0581 135.219 13.5276 135.144 14.0006 135.096C14.1962 135.075 14.392 135.059 14.588 135.045C14.8098 135.028 15.036 135.002 15.2585 135.002C15.392 134.995 15.5179 134.993 15.6062 135.046C15.7023 135.104 15.7572 135.228 15.8151 135.359L15.8366 135.407C16.0168 135.806 16.2903 136.164 16.628 136.443C16.8156 136.598 17.0211 136.728 17.2201 136.853C17.3907 136.961 17.5613 137.068 17.722 137.193C17.7245 138.446 17.591 139.583 17.1494 140.649C17.0955 140.779 16.9934 140.881 16.8678 140.944C16.737 141.008 16.6067 141.075 16.4824 141.151C16.3577 141.228 16.2512 141.324 16.1404 141.419C16.5872 141.219 17.0374 141.018 17.5141 140.905C17.8177 140.834 18.1285 140.799 18.4382 140.765C18.2355 140.712 18.0315 140.7 17.8229 140.7C17.651 140.7 17.4745 140.729 17.2995 140.777C17.3247 140.77 17.3722 140.599 17.3833 140.57C17.4115 140.498 17.4387 140.425 17.4649 140.352C17.5175 140.205 17.5662 140.057 17.6107 139.908C17.7007 139.606 17.7744 139.3 17.8318 138.99C17.8792 138.735 17.9158 138.478 17.9418 138.219C17.9549 138.09 17.9653 137.96 17.9732 137.83C17.9771 137.765 17.9806 137.699 17.9833 137.634C17.9858 137.57 17.9757 137.491 17.9925 137.431C18.0716 137.464 18.1492 137.548 18.2123 137.607C18.2845 137.673 18.3522 137.744 18.4153 137.819C18.6098 138.051 18.7176 138.315 18.8635 138.575C19.0185 138.852 19.1943 139.117 19.3886 139.368C19.4391 139.433 19.4907 139.497 19.5439 139.56C19.5286 139.409 19.4603 139.261 19.4077 139.117C19.3676 139.008 19.3241 138.902 19.2677 138.801C19.1844 138.652 19.0863 138.416 18.9772 138.212C18.8452 137.964 18.731 137.75 18.6242 137.64C18.3057 137.313 18.0212 137.066 17.7282 136.861C17.6095 136.779 17.4871 136.701 17.3645 136.624C17.164 136.498 16.9744 136.378 16.8003 136.234C16.4945 135.981 16.2465 135.657 16.0833 135.296L16.0628 135.25C16.0101 135.131 15.952 135.001 15.8534 134.901L15.8675 134.901C15.8932 134.108 15.9748 133.308 16.1105 132.524C16.1249 132.443 16.1375 132.352 16.1511 132.256C16.2275 131.708 16.3226 131.026 16.8312 130.92L17.1514 130.853C18.2706 130.614 18.8576 130.405 19.9946 130.57L20.9714 130.688C20.5479 130.506 19.7634 130.276 19.2912 130.276C18.5601 130.276 17.7994 130.438 17.0953 130.588L16.7761 130.655C16.6722 130.677 16.5825 130.715 16.5026 130.764C15.5859 129.937 14.3786 129.318 12.8299 128.873C13.2619 128.692 13.4693 128.599 14.0149 128.434L14.7549 128.138C14.2379 128.217 13.7309 128.362 13.2426 128.548C12.7365 128.741 12.2455 128.981 11.7915 129.277C11.3903 129.539 11.0058 129.849 10.7158 130.233C10.6948 130.261 10.6229 130.336 10.634 130.368C10.7653 130.319 10.878 130.184 10.9814 130.091C11.1129 129.972 11.2261 129.899 11.3423 129.803C11.5742 129.612 11.8185 129.451 12.0719 129.288C12.1552 129.234 12.2811 129.174 12.4072 129.128C12.5822 129.063 12.7763 129.059 12.9555 129.111Z" fill="#D0111D" stroke="#D0111D" stroke-width="0.5"></path> <path d="M12.0902 148.318C12.3844 147.378 12.8841 146.501 13.5351 145.782C14.9923 144.17 17.1114 143.581 18.7945 143.248C19.6171 143.086 20.4053 142.986 21.1371 142.951C21.6496 142.927 22.0425 142.916 22.4114 142.916C22.9481 142.916 23.4119 142.94 23.8298 142.99C25.3856 143.175 26.9323 144.565 27.3514 146.155C27.5395 146.869 27.4476 147.677 27.0994 148.373C27.0322 148.507 26.9553 148.637 26.8713 148.759C26.694 149.017 26.4668 149.257 26.2472 149.488C26.152 149.589 26.0576 149.688 25.9671 149.789C25.5404 150.265 25.0961 150.708 24.7566 151.04C23.8997 151.88 22.5785 153.071 21.008 153.72C20.4053 153.968 19.7308 154.095 19.0047 154.095C18.4224 154.095 17.8046 154.014 17.1687 153.854C15.8932 153.534 14.6046 152.957 13.5408 152.229C12.8658 151.767 12.3815 151.234 12.1009 150.645C11.709 149.821 11.864 149.04 12.0902 148.318ZM11.8566 150.761C12.158 151.394 12.673 151.963 13.388 152.452C14.4778 153.198 15.797 153.789 17.1027 154.117C18.5893 154.49 19.9711 154.44 21.1111 153.97C22.7256 153.304 24.073 152.089 24.946 151.234C25.2884 150.898 25.7369 150.451 26.1684 149.97C26.2576 149.871 26.3503 149.773 26.4435 149.675C26.6702 149.435 26.9049 149.188 27.094 148.913C27.1852 148.781 27.2686 148.64 27.3415 148.494C27.7188 147.74 27.8179 146.863 27.6132 146.086C27.1677 144.396 25.5199 142.918 23.8619 142.721C23.4334 142.67 22.959 142.645 22.4114 142.645C22.038 142.645 21.641 142.656 21.1245 142.681C20.3791 142.716 19.5775 142.818 18.7421 142.983C17.0179 143.324 14.8449 143.93 13.3341 145.6C12.6572 146.349 12.138 147.26 11.8319 148.237C11.5891 149.011 11.4242 149.853 11.8566 150.761Z" fill="#D0111D" stroke="#D0111D" stroke-width="0.5"></path> <path d="M19.5043 146.649C19.4811 147.697 19.9726 148.604 20.9675 149.352C20.0117 149.948 19.1491 150.866 18.3881 152.106L18.8247 151.638C20.3843 149.823 21.3683 149.062 23.5808 148.636L24.2879 148.546C24.1319 148.534 23.9778 148.528 23.825 148.528C22.8952 148.528 22.0262 148.753 21.2209 149.2C20.1944 148.463 19.7246 147.594 19.7842 146.553C20.6317 146.215 21.3285 145.605 21.885 144.721L21.3378 145.21C20.7272 145.796 20.188 146.184 19.5835 146.409C19.5835 146.409 19.5175 146.421 19.5165 146.431C18.7448 146.701 17.8605 146.714 16.5833 146.539C16.5019 146.527 16.4181 146.521 16.336 146.52L15.7642 146.512C17.2327 146.932 18.4724 146.977 19.5043 146.649Z" fill="#D0111D" stroke="#D0111D" stroke-width="0.5"></path> <path d="M25.2088 164.662C25.2503 164.662 25.2918 164.661 25.3329 164.66C25.521 164.654 25.6963 164.631 25.8533 164.594C26.0882 164.538 26.3072 164.456 26.504 164.35C27.1701 163.991 27.7832 163.564 28.3793 163.046C29.2046 162.329 30.0341 161.461 30.9155 160.391C31.1607 160.094 31.3963 159.789 31.6322 159.485C31.7736 159.302 31.9146 159.12 32.0582 158.939C32.4664 158.423 32.6427 157.908 32.6662 157.162C32.6797 156.73 32.609 156.304 32.4558 155.895C32.1687 155.131 31.5961 154.407 30.7051 153.682L30.5847 153.583C30.1757 153.245 29.7893 152.927 29.2822 152.925L29.0254 152.924H29.0249C26.9513 152.924 24.7373 153.022 22.5987 153.728C21.0817 154.23 19.7938 154.981 18.771 155.959C18.1603 156.544 17.7558 157.847 17.5689 158.572C17.3645 159.366 17.3548 160.092 17.5398 160.73C18.0226 162.399 19.6816 163.324 20.9882 163.806C21.7408 164.084 22.5619 164.294 23.4981 164.448L23.7874 164.497C24.2562 164.578 24.7405 164.662 25.2088 164.662ZM29.0249 152.653C29.0254 152.653 29.0254 152.653 29.0254 152.653L29.2832 152.654C29.8872 152.656 30.3293 153.021 30.757 153.374L30.8759 153.472C31.8053 154.229 32.4046 154.99 32.7089 155.8C32.8748 156.242 32.9515 156.703 32.9366 157.17C32.9114 157.969 32.7121 158.549 32.2701 159.107C32.1277 159.287 31.9867 159.469 31.8463 159.65C31.609 159.957 31.3716 160.264 31.1244 160.564C30.2334 161.645 29.3937 162.524 28.5568 163.251C27.9454 163.782 27.3162 164.219 26.6324 164.588C26.415 164.705 26.174 164.796 25.9161 164.857C25.7416 164.899 25.5482 164.924 25.342 164.93C24.812 164.95 24.2406 164.85 23.7412 164.764L23.4541 164.715C22.5008 164.558 21.6634 164.344 20.8945 164.06C19.5295 163.556 17.7939 162.583 17.2797 160.806C17.0811 160.12 17.09 159.346 17.3069 158.505C17.5009 157.752 17.9247 156.395 18.5838 155.764C19.6361 154.757 20.9583 153.986 22.5134 153.472C24.6888 152.753 26.9285 152.653 29.0249 152.653Z" fill="#D0111D" stroke="#D0111D" stroke-width="0.5"></path> <path d="M24.7594 156.339C24.656 157.813 25.4041 159.007 26.983 159.897C25.8828 160.482 24.8701 161.295 23.9548 162.336L24.5979 161.884C26.4574 160.432 27.6718 159.713 29.8925 159.059L30.1963 158.874C29.1656 159.007 28.1893 159.3 27.272 159.748C25.6106 158.866 24.881 157.708 25.0442 156.214C25.7945 155.854 26.4366 155.282 26.9741 154.487L26.4925 154.957C24.9267 156.284 23.6525 156.44 21.4855 156.395L21.0874 156.434C22.5164 156.775 23.7336 156.742 24.7594 156.339Z" fill="#D0111D" stroke="#D0111D" stroke-width="0.5"></path> <path d="M31.0437 174.873C31.7914 174.873 32.4423 174.796 32.9788 174.646C36.4542 173.673 37.6402 170.083 38.0378 168.03C38.2549 166.909 38.441 165.624 37.8991 164.545C37.3987 163.55 36.3855 163.151 35.6233 162.992C35.0267 162.868 34.2635 162.942 33.5576 163.035L33.2844 163.071C32.3823 163.184 31.4769 163.34 30.5935 163.534C29.3863 163.798 28.0012 164.142 26.8457 164.874L26.7112 164.958C26.4951 165.092 26.2713 165.23 26.1193 165.395C25.8814 165.653 25.7014 166.008 25.5571 166.32C25.3724 166.719 25.2376 167.149 25.1449 167.636C24.7108 169.916 24.9837 172.793 27.0511 174.03C27.7308 174.436 28.5575 174.685 29.5786 174.791C30.1027 174.845 30.5957 174.873 31.0437 174.873ZM34.8635 162.649C35.16 162.649 35.4267 162.675 35.6789 162.728C36.499 162.899 37.5923 163.332 38.1409 164.424C38.7211 165.578 38.5293 166.917 38.3038 168.081C37.8941 170.196 36.6671 173.895 33.0518 174.907C32.1602 175.157 30.9859 175.209 29.5507 175.06C28.4898 174.95 27.6267 174.689 26.9122 174.262C24.7249 172.954 24.4279 169.955 24.8789 167.585C24.9761 167.076 25.1175 166.625 25.3111 166.207C25.4648 165.875 25.6572 165.497 25.92 165.212C26.0975 165.019 26.348 164.864 26.569 164.728L26.7008 164.646C27.8934 163.89 29.3057 163.539 30.5354 163.269C31.4269 163.074 32.3405 162.917 33.2508 162.802L33.5223 162.767C33.9604 162.709 34.4136 162.649 34.8635 162.649Z" fill="#D0111D" stroke="#D0111D" stroke-width="0.5"></path> <path d="M29.3218 171.558C30.2625 172.757 31.6564 173.323 33.4892 173.209L33.4516 173.291C31.516 173.485 30.2845 173.035 29.3327 171.684L29.3218 171.558Z" fill="#D0111D" stroke="#D0111D" stroke-width="0.5"></path> <path d="M27.184 166.609L27.2989 166.399C27.0042 167.774 27.3004 169.204 28.2347 170.751L28.0805 170.694C27.0722 169.082 26.8383 168.011 27.184 166.609Z" fill="#D0111D" stroke="#D0111D" stroke-width="0.5"></path> <path d="M36.1677 173.543C38.5469 171.224 40.8706 169.647 43.2716 168.723C43.5242 168.626 43.8053 168.576 44.1075 168.576C44.8994 168.576 45.7276 168.921 46.2174 169.455C46.5833 169.854 46.8958 170.416 47.0533 170.958C47.2236 171.546 47.1371 172.327 47.0609 173.017C47.0466 173.145 47.033 173.27 47.0214 173.388C46.8965 174.677 46.6216 175.952 46.205 177.178C46.0411 177.659 45.8779 178.127 45.6789 178.566C45.6062 178.726 45.5305 178.878 45.4546 179.016C45.2598 179.369 44.907 179.64 44.4071 179.823C44.2335 179.848 44.0622 179.867 43.8916 179.885C43.7588 179.869 43.6174 179.842 43.4866 179.815C43.3875 179.795 43.2965 179.777 43.2211 179.767C42.8589 179.715 42.4987 179.649 42.1506 179.568C41.461 179.409 40.7841 179.188 40.1388 178.913C38.8806 178.375 37.6892 177.604 36.5984 176.621L36.4508 176.49C36.0572 176.141 35.6112 175.745 35.4658 175.248C35.2935 174.659 35.7553 173.992 36.1677 173.543ZM35.9388 176.389C36.0493 176.495 36.162 176.595 36.2713 176.692L36.4172 176.822C37.5302 177.825 38.7464 178.612 40.0325 179.162C40.6924 179.443 41.3846 179.669 42.0895 179.832C42.2747 179.875 42.4636 179.913 42.654 179.948C39.5697 179.941 37.1072 178.645 35.9388 176.389ZM35.2065 175.324C35.224 175.384 35.2468 175.442 35.2707 175.499L35.2702 175.499C36.3257 178.806 39.6777 180.589 43.903 180.156C44.0642 180.172 44.214 180.172 44.323 180.138C44.3732 180.123 44.4197 180.105 44.4674 180.088C44.4941 180.084 44.5198 180.083 44.5465 180.078L44.5441 180.061C45.0845 179.855 45.4702 179.548 45.6917 179.146C45.7711 179.002 45.8497 178.844 45.9254 178.678C46.1293 178.228 46.2952 177.753 46.4609 177.265C46.8847 176.02 47.164 174.724 47.2909 173.414C47.3022 173.297 47.3158 173.174 47.3299 173.046C47.409 172.332 47.4985 171.522 47.3131 170.883C47.1447 170.303 46.8095 169.7 46.4169 169.272C45.8782 168.685 44.9715 168.306 44.1075 168.306C43.772 168.306 43.458 168.361 43.1744 168.47C40.7384 169.408 38.3849 171.004 35.9736 173.354C35.5091 173.86 34.9985 174.613 35.2065 175.324Z" fill="#73B61C" stroke="#73B61C" stroke-width="0.5"></path> <path d="M43.6365 178.267C40.8912 177.874 38.7743 176.757 37.3384 174.834C38.6769 177.117 40.8353 178.218 43.6365 178.267Z" fill="#73B61C" stroke="#73B61C" stroke-width="0.5"></path> <path d="M46.8411 177.401C46.9128 177.252 46.9857 177.1 47.0574 176.941C48.1653 174.485 49.7107 172.499 51.6476 171.041C53.5177 169.71 55.3265 169.871 57.1145 171.526C58.4802 173.634 59.4336 176.192 60.0294 179.346C60.1305 179.883 60.2183 180.523 60.0984 181.2C60.0309 181.579 59.8907 182.369 59.5431 182.593C59.4059 182.681 59.2222 182.695 59.0444 182.708C57.9254 182.791 57.0475 182.842 56.1292 182.842C55.0041 182.842 53.94 182.762 52.7804 182.59C51.7665 182.439 50.7056 182.204 49.6264 181.89C49.0902 181.734 48.5463 181.556 48.01 181.362C47.8617 181.309 47.7049 181.271 47.5534 181.234C47.1902 181.145 46.8472 181.062 46.6317 180.781C46.3599 180.428 46.2999 179.918 46.2771 179.465C46.2366 178.661 46.5167 178.077 46.8411 177.401ZM47.4888 181.497C47.4891 181.497 47.4893 181.497 47.4893 181.497C47.6406 181.534 47.7835 181.568 47.918 181.617C48.4595 181.813 49.0088 181.992 49.5508 182.15C50.6416 182.467 51.7148 182.705 52.7406 182.857C53.9138 183.032 54.9905 183.113 56.1292 183.113C56.8845 183.113 57.6136 183.078 58.4661 183.02C54.1677 184.563 50.4829 184.048 47.4888 181.497ZM46.0066 179.479C46.0319 179.973 46.0999 180.534 46.4171 180.946C46.537 181.103 46.6833 181.207 46.8418 181.286C50.2129 184.474 54.4774 185.017 59.5178 182.902V182.901C59.5767 182.881 59.6348 182.856 59.6897 182.82C60.1364 182.532 60.2848 181.696 60.3649 181.246C60.4922 180.527 60.4012 179.857 60.2952 179.296C59.6914 176.1 58.7225 173.505 57.3323 171.365L57.311 171.339C56.266 170.368 55.1925 169.875 54.1202 169.875C54.1202 169.875 54.1202 169.875 54.12 169.875C53.2573 169.875 52.3727 170.193 51.4876 170.823C49.5112 172.31 47.9376 174.331 46.8109 176.83C46.7399 176.986 46.6678 177.137 46.597 177.284C46.2709 177.964 45.9626 178.606 46.0066 179.479Z" fill="#73B61C" stroke="#73B61C" stroke-width="0.5"></path> <path d="M58.7065 180.528L58.4363 180.611C54.971 181.5 51.3451 181.048 47.8467 179.268L48.0044 179.389C51.5918 181.694 55.2089 181.991 58.7065 180.528Z" fill="#73B61C" stroke="#73B61C" stroke-width="0.5"></path> <path d="M112.822 79.2198C114.093 79.2198 115.524 79.1293 116.919 78.6811C117.19 78.5938 117.46 78.4947 117.722 78.3854C118.773 77.9475 119.662 77.1341 120.161 76.1541C120.781 74.9361 120.894 73.703 120.489 72.5869C120.143 71.6373 119.919 70.5665 119.823 69.4037L119.814 69.2876C119.714 68.0753 119.621 66.9307 118.801 66.0147C116.373 63.3008 112.03 64.6769 110.757 65.163C109.967 65.4646 109.164 65.828 108.369 66.2436C108.27 66.295 108.17 66.3455 108.07 66.3962C107.762 66.5509 107.445 66.7111 107.163 66.9057C106.955 67.0491 106.784 67.1984 106.641 67.3616C106.516 67.5043 106.43 67.7035 106.346 67.8964L106.311 67.978C106.173 68.2899 106.065 68.6337 105.99 68.9991C105.918 69.353 105.874 69.7388 105.859 70.1445L105.856 70.239C105.843 70.5821 105.829 70.9366 105.952 71.2489C106.009 71.3918 106.067 71.5333 106.124 71.6744C106.328 72.1753 106.539 72.693 106.682 73.2409C106.786 73.6432 106.849 74.057 106.909 74.457C106.968 74.8477 107.029 75.2517 107.128 75.6376C107.318 76.3699 107.683 76.9351 108.39 77.5885C109.113 78.2576 109.917 78.7268 110.778 78.9837C111.263 79.1288 111.77 79.2065 112.285 79.2151C112.46 79.2181 112.639 79.2198 112.822 79.2198ZM114.708 64.1102C116.217 64.1102 117.82 64.511 119.004 65.8337C119.884 66.8172 119.986 68.0618 120.085 69.2654L120.094 69.3815C120.188 70.5201 120.407 71.5674 120.744 72.494C121.176 73.6825 121.059 74.9906 120.404 76.2772C119.876 77.314 118.937 78.1742 117.827 78.6366C117.558 78.7486 117.281 78.8504 117.003 78.9396C115.369 79.4645 113.698 79.5098 112.28 79.487C111.74 79.4779 111.209 79.3963 110.7 79.2445C109.799 78.9756 108.959 78.4855 108.205 77.7883C107.457 77.0963 107.069 76.4928 106.865 75.7056C106.762 75.306 106.7 74.8949 106.64 74.4979C106.581 74.1045 106.52 73.6977 106.419 73.3094C106.281 72.7788 106.082 72.2923 105.872 71.777C105.814 71.635 105.756 71.4927 105.699 71.3488C105.555 70.9834 105.57 70.5996 105.584 70.2283L105.588 70.1348C105.602 69.714 105.648 69.3133 105.724 68.9444C105.803 68.5602 105.916 68.1983 106.062 67.8685L106.097 67.7878C106.184 67.5861 106.284 67.3572 106.436 67.1826C106.593 67.0046 106.785 66.8363 107.008 66.6822C107.306 66.4767 107.632 66.312 107.947 66.1534C108.047 66.1031 108.146 66.0532 108.243 66.0025C109.047 65.5822 109.86 65.2144 110.66 64.909C111.362 64.6405 112.973 64.1102 114.708 64.1102Z" fill="#D0111D" stroke="#D0111D" stroke-width="0.5"></path> <path d="M117.801 71.0193C117.947 70.9879 118.092 70.9589 118.242 70.9226C118.214 70.9453 118.061 70.9837 117.801 71.0193Z" fill="#D0111D" stroke="#D0111D" stroke-width="0.5"></path> <path d="M117.801 71.0192C116.081 71.3875 114.606 71.4244 113.322 71.1244C113.126 71.0785 112.939 71.2167 112.925 71.4179C112.898 71.7856 113.007 72.1184 113.251 72.4242C114.209 73.5619 114.561 75.0533 114.334 76.9719C114.326 77.0317 114.365 77.0855 114.424 77.0985C114.818 77.183 115.226 77.3682 115.645 77.6565C114.514 77.2876 113.637 77.1595 113 77.2603C113.314 77.1101 113.64 77.0376 113.977 77.0438C114.001 77.0443 114.026 77.0473 114.05 77.0484C114.285 75.235 113.989 73.8231 113.148 72.7394C113.131 72.7162 113.099 72.7107 113.076 72.6939C111.464 72.1438 109.251 72.2758 107.789 73.1944C108.692 72.4622 109.818 72.107 111.152 72.1313C111.622 72.1397 112.12 72.1975 112.642 72.301C112.734 72.3191 112.81 72.2308 112.774 72.1446C112.64 71.8219 112.614 71.4739 112.696 71.1032C112.731 70.9469 112.689 70.7808 112.577 70.6666C111.782 69.8577 111.472 68.8114 111.58 67.3566C111.586 67.2842 111.527 67.2254 111.455 67.2317C111.002 67.2718 110.516 67.2246 109.993 67.0789C111.17 67.1815 112.287 66.9057 113.357 66.3314C112.946 66.7472 112.475 67.0219 111.949 67.1556C111.9 67.168 111.864 67.2092 111.86 67.2587C111.719 68.8356 112.077 69.9055 113.017 70.7044L113.09 70.767L113.085 70.7818C115.287 71.2086 117.023 71.1257 117.801 71.0192Z" fill="#D0111D" stroke="#D0111D" stroke-width="0.5"></path> <path d="M108.57 64.517C109.72 64.517 111.004 64.2387 112.451 63.6794C114.766 62.7846 116.194 61.627 116.815 60.1412C117.362 58.8321 117.186 57.4357 116.942 56.4947C116.736 55.7001 116.281 54.9708 115.841 54.2654C115.614 53.9025 115.38 53.5272 115.181 53.1449C115.053 52.9002 114.929 52.6502 114.805 52.4005C114.15 51.078 113.473 49.7106 112.157 49.0878C110.93 48.5065 109.54 48.6148 108.59 48.8082C107.624 49.0047 106.679 49.3597 105.765 49.7029C105.533 49.7899 105.302 49.8767 105.07 49.9613L104.68 50.102C103.626 50.4802 102.536 50.8711 101.676 51.5807C101.067 52.0843 100.635 52.7464 100.462 53.4443C100.314 54.0372 100.386 54.7624 100.68 55.6571L100.736 55.6472C100.866 56.3714 101.166 56.9506 101.484 57.564C101.653 57.8909 101.828 58.2283 101.982 58.5995C102.091 58.861 102.197 59.1391 102.305 59.4235C102.634 60.2875 102.974 61.1813 103.486 61.8454C104.376 63.0003 105.462 63.8189 106.627 64.2119C107.229 64.4152 107.875 64.517 108.57 64.517ZM110.052 48.3817C110.875 48.3817 111.627 48.536 112.273 48.842C113.674 49.5054 114.373 50.9156 115.049 52.2796C115.172 52.5278 115.295 52.7758 115.422 53.0191C115.617 53.3919 115.848 53.763 116.072 54.1215C116.522 54.8444 116.988 55.5916 117.205 56.4263C117.46 57.4078 117.642 58.867 117.066 60.2458C116.414 61.8041 114.937 63.0101 112.549 63.9333C110.166 64.8543 108.2 65.03 106.541 64.4696C105.324 64.0591 104.194 63.2092 103.271 62.0113C102.734 61.3153 102.387 60.403 102.051 59.5201C101.944 59.2388 101.839 58.9632 101.731 58.7043C101.581 58.3433 101.409 58.0107 101.242 57.6891C100.941 57.1072 100.655 56.5551 100.504 55.8742L100.47 55.8858C100.119 54.8751 100.03 54.055 100.198 53.3788C100.385 52.6247 100.849 51.9115 101.503 51.3708C102.399 50.631 103.512 50.232 104.588 49.8461L104.977 49.7059C105.208 49.6216 105.439 49.535 105.669 49.4485C106.593 49.1014 107.549 48.7424 108.536 48.5416C109.061 48.4348 109.569 48.3817 110.052 48.3817Z" fill="#D0111D" stroke="#D0111D" stroke-width="0.5"></path> <path d="M109.81 62.5755C109.352 62.5671 108.911 62.7137 108.495 63.015C109.202 62.7597 109.963 62.7107 110.759 62.8017C110.435 62.6563 110.118 62.5809 109.81 62.5755Z" fill="#D0111D" stroke="#D0111D" stroke-width="0.5"></path> <path d="M104.366 51.4048C105.045 51.4258 105.701 51.3286 106.309 51.1121C106.905 50.8999 107.473 50.5691 107.999 50.1283C107.48 50.5741 105.125 51.4018 104.366 51.4048Z" fill="#D0111D" stroke="#D0111D" stroke-width="0.5"></path> <path d="M105.998 51.0124C105.821 52.5512 106.372 53.9767 107.636 55.2502L107.829 55.0586C106.626 53.8469 106.101 52.496 106.268 51.0433L105.998 51.0124Z" fill="#D0111D" stroke="#D0111D" stroke-width="0.5"></path> <path d="M113.895 53.6004C111.543 53.5943 109.447 54.1058 107.664 55.1214L107.798 55.3575C109.943 54.0002 112.483 53.7344 113.895 53.6004Z" fill="#D0111D" stroke="#D0111D" stroke-width="0.5"></path> <path d="M107.715 55.0671C107.322 55.5213 107.22 56.0625 107.41 56.6778C105.984 56.4575 104.495 56.7614 102.747 57.6292C103.73 57.2217 106.1 56.438 107.59 56.9857L107.838 57.0346L107.743 56.8007C107.49 56.1848 107.548 55.676 107.92 55.2451L107.715 55.0671Z" fill="#D0111D" stroke="#D0111D" stroke-width="0.5"></path> <path d="M107.746 56.8107L107.488 56.894C107.928 58.2622 108.676 59.3171 109.711 60.0294L109.756 60.0605L109.811 60.0515C111.903 59.5364 114.238 59.9236 114.527 59.9558C113.009 59.5726 111.425 59.5115 109.821 59.7743C108.859 59.0974 108.162 58.1007 107.746 56.8107Z" fill="#D0111D" stroke="#D0111D" stroke-width="0.5"></path> <path d="M109.651 59.9373C109.258 60.6649 109.165 61.5783 109.366 62.7289L109.634 62.6822C109.444 61.5938 109.528 60.7384 109.89 60.0664L109.651 59.9373Z" fill="#D0111D" stroke="#D0111D" stroke-width="0.5"></path> <path d="M111.634 40.1354C111.614 40.434 111.555 40.7366 111.497 41.0289C111.451 41.2576 111.404 41.4939 111.376 41.7325C111.31 42.2791 111.252 42.827 111.195 43.3749C111.173 43.5902 111.16 43.8063 111.147 44.0217C111.106 44.7127 111.067 45.3651 110.734 45.9669C110.669 46.0846 110.592 46.1978 110.517 46.3079C110.127 46.8829 109.435 47.3079 108.879 47.6494C108.242 48.04 107.559 48.3644 106.848 48.6136C105.685 49.0213 104.494 49.2171 103.31 49.1958C103.014 49.1904 102.718 49.1708 102.428 49.1377C101.244 49.003 99.6104 48.6724 98.555 47.8622L98.5248 47.84C98.5107 47.8296 98.4961 47.8195 98.4833 47.8073C96.8629 46.2676 96.0131 43.8088 95.2633 41.6393C95.015 40.9211 94.7804 40.2422 94.5324 39.6399C93.9044 38.1149 94.2686 35.87 95.9526 34.9029L96.1375 34.7965C97.4736 34.0286 98.7354 33.3027 100.162 32.7756C100.909 32.4995 101.682 32.2666 102.459 32.0836C102.629 32.0433 102.801 31.9976 102.973 31.9513C103.487 31.8141 104.017 31.672 104.536 31.6814L104.564 31.6821C105.133 31.6984 105.728 31.8814 106.331 32.2255C107.384 32.8266 108.23 33.7146 109.175 34.8628C109.798 35.6201 110.359 36.4617 110.889 37.4365C111.382 38.3434 111.697 39.1494 111.634 40.1354ZM111.127 37.3065C110.589 36.3168 110.019 35.4606 109.384 34.6902C108.55 33.6763 107.619 32.6476 106.466 31.9894C105.823 31.6228 105.186 31.4279 104.571 31.4104L104.541 31.4097C103.984 31.3995 103.434 31.5464 102.903 31.6888C102.733 31.7343 102.564 31.7795 102.396 31.8191C101.609 32.0045 100.825 32.2404 100.068 32.5205C98.62 33.0558 97.3482 33.7871 96.002 34.5609L95.8171 34.6672C94.0053 35.7079 93.6092 38.1122 94.281 39.7437C94.526 40.3383 94.7591 41.0135 95.0061 41.7283C95.7661 43.927 96.6275 46.4191 98.2959 48.0044C98.3174 48.0247 98.3411 48.0425 98.3648 48.06L98.3891 48.0778C99.4945 48.9261 101.179 49.2692 102.397 49.4082C103.888 49.5775 105.446 49.3934 106.938 48.8702C107.667 48.6146 108.368 48.2818 109.021 47.881C109.599 47.526 110.319 47.0839 110.742 46.4606C110.821 46.3457 110.901 46.2268 110.972 46.0982C111.335 45.4428 111.377 44.7288 111.418 44.0382C111.431 43.8263 111.444 43.6142 111.466 43.4026C111.522 42.8562 111.58 42.31 111.645 41.7649C111.673 41.5367 111.719 41.3055 111.763 41.0818C111.823 40.7806 111.885 40.4691 111.905 40.1527C111.972 39.1019 111.643 38.2551 111.127 37.3065Z" fill="#D0111D" stroke="#D0111D" stroke-width="0.5"></path> <path d="M107.242 36.7563C107.331 36.7141 107.42 36.6715 107.51 36.6285C107.587 36.6075 107.479 36.6614 107.242 36.7563Z" fill="#D0111D" stroke="#D0111D" stroke-width="0.5"></path> <path d="M104.215 43.4966C103.755 44.4057 103.631 45.3879 103.847 46.4234C103.866 46.5158 103.957 46.5739 104.05 46.5581C104.363 46.5049 104.702 46.4802 105.069 46.4869C105.318 46.4913 105.58 46.5094 105.855 46.5408C104.488 46.655 103.261 46.9327 102.236 47.4462C102.571 47.106 102.98 46.8602 103.466 46.7017C103.552 46.6733 103.604 46.5863 103.585 46.4968C103.351 45.3944 103.481 44.3471 103.971 43.3777C102.927 42.8189 102.086 41.9518 101.434 40.775L101.433 40.7755L101.431 40.7691C101.428 40.7641 101.425 40.7597 101.422 40.7547C99.1041 40.4613 97.3903 41.2717 96.5029 41.7118C97.5495 40.8484 99.0571 40.4299 100.99 40.465C101.106 40.4669 101.226 40.4734 101.345 40.4786C101.08 39.5326 101.151 38.6821 101.557 37.9439C101.478 37.9118 101.398 37.8786 101.322 37.8381C100.454 37.3748 99.9195 36.4172 99.6846 34.9242C99.0403 35.0614 98.3802 35.0611 97.6968 34.9217C99.1827 34.9106 100.598 34.5006 101.964 33.8158C101.304 34.3256 100.635 34.672 99.9491 34.8599C100.093 36.3314 100.645 37.1105 101.45 37.598C102.726 38.3714 106.211 37.171 107.243 36.7564C105.263 37.6991 103.278 38.4485 101.82 38.0329C101.403 38.7615 101.344 39.6162 101.654 40.5794L101.681 40.6585C102.972 43.9139 107.52 43.998 109.105 44.0135C107.156 44.1992 105.536 43.9826 104.215 43.4966Z" fill="#D0111D" stroke="#D0111D" stroke-width="0.5"></path> <path d="M96.4401 32.751C96.6587 32.751 96.8797 32.7399 97.1037 32.7174C98.7797 32.5503 100.419 31.8746 101.941 31.1692C103.028 30.6661 104.009 29.645 104.564 28.4385C105.121 27.2288 105.167 25.907 104.691 24.8123C104.488 24.3445 104.183 23.9212 103.783 23.5546C103.449 23.247 102.581 22.507 101.762 22.2803C97.8724 21.2034 94.4916 22.1879 91.7139 25.2074C91.0526 25.9261 90.7641 26.8611 90.8795 27.9111C91.0385 29.3587 91.977 30.9106 93.2147 31.7727C94.1408 32.4177 95.2455 32.751 96.4401 32.751ZM98.8059 21.5841C99.7785 21.5841 100.789 21.7287 101.835 22.0185C102.711 22.2608 103.618 23.0332 103.967 23.3543C104.395 23.7469 104.722 24.2009 104.941 24.7037C105.447 25.8697 105.4 27.2723 104.811 28.5522C104.23 29.8158 103.2 30.8866 102.056 31.4162C100.512 32.1312 98.8467 32.8165 97.1306 32.9879C95.6161 33.1394 94.2086 32.7963 93.0592 31.9957C91.7609 31.0916 90.7762 29.462 90.609 27.9408C90.4849 26.8104 90.7979 25.8017 91.5139 25.0229C93.6194 22.7342 96.0631 21.5841 98.8059 21.5841Z" fill="#D0111D" stroke="#D0111D" stroke-width="0.5"></path> <path d="M95.8642 29.2524C96.2806 29.8544 96.9471 30.2389 97.8426 30.3981C98.5057 29.9118 99.6922 29.5286 101.205 29.1471C99.3426 29.8028 97.8102 30.4982 97.2576 31.3124C97.2658 31.0585 97.3795 30.831 97.5813 30.6221C96.7189 30.4275 96.0655 30.0211 95.6407 29.4069C95.6088 29.3607 95.5841 29.3083 95.5544 29.2598C95.1433 29.8102 94.4886 30.1308 93.6947 30.3207C94.3682 30.0488 94.9195 29.6675 95.3208 29.1515C95.3819 29.0732 95.3888 28.9678 95.3497 28.8766C94.9749 28.0014 94.9299 26.8275 95.2031 25.3241C94.5838 25.5021 93.9583 25.5889 93.3207 25.5775C93.2922 25.577 93.2635 25.576 93.2349 25.5753C94.8884 25.2719 96.4541 24.6872 97.9526 23.8864C97.1345 24.5112 96.3194 24.9542 95.4949 25.2321C95.1467 27.0384 95.2696 28.392 95.8642 29.2524Z" fill="#D0111D" stroke="#D0111D" stroke-width="0.5"></path> <path d="M95.1654 21.9817C96.5877 21.5006 97.5334 20.8422 98.0565 19.9694C98.7288 18.8472 99.3676 17.5136 99.0106 16.1323C98.8069 15.3464 98.3213 14.6544 97.5668 14.0753C97.1178 13.7307 96.4359 13.2706 95.7347 13.0352C94.6632 12.6757 93.6755 12.4854 92.7991 12.4693C89.7959 12.4149 87.9577 14.3238 87.1789 18.3046C86.9935 19.2515 86.8726 20.4543 87.59 21.3606C88.2462 22.1899 89.3239 22.5958 90.9814 22.6381L91.0635 22.6398C92.422 22.6646 93.8021 22.443 95.1654 21.9817ZM95.8213 12.7776C96.558 13.0246 97.2674 13.5022 97.7322 13.8595C98.5362 14.4763 99.0546 15.2181 99.2737 16.0643C99.6562 17.5428 98.9911 18.9387 98.2899 20.1091C97.7319 21.0397 96.7385 21.7364 95.2526 22.2393C93.8597 22.7108 92.4487 22.937 91.0585 22.9118L90.9745 22.9101C89.877 22.8821 88.3095 22.7083 87.3767 21.5295C86.5905 20.5361 86.7153 19.2562 86.9121 18.2524C87.709 14.1782 89.6913 12.1412 92.8043 12.1976C93.7082 12.2139 94.7233 12.4092 95.8213 12.7776Z" fill="#D0111D" stroke="#D0111D" stroke-width="0.5"></path> <path d="M89.6647 17.4745C90.1332 19.1303 91.1043 20.0233 92.6248 20.1951C92.7245 20.2062 92.8231 20.1706 92.9025 20.1096C93.5426 19.6188 94.7451 19.3014 95.8619 19.0541C95.8619 19.0541 93.4518 19.9217 92.9245 20.4475C92.6805 20.6911 92.4847 21.3517 92.4847 21.3517C92.3845 21.0899 92.3848 20.8444 92.4819 20.6174C92.5163 20.5368 92.4634 20.4483 92.3766 20.4342C90.9308 20.1973 89.9515 19.2883 89.4572 17.7255C89.4271 17.6305 89.3176 17.5823 89.233 17.6347C88.9759 17.7942 88.7136 17.8817 88.4448 17.8958C89.5186 17.1272 90.3997 16.0959 91.1538 14.8917C90.6912 15.959 90.2192 16.7343 89.7302 17.2305C89.6667 17.2948 89.6402 17.3875 89.6647 17.4745Z" fill="#D0111D" stroke="#D0111D" stroke-width="0.5"></path> <path d="M82.7752 15.8021C85.3405 15.2347 87.513 14.2237 89.232 12.7982C89.6753 12.4303 90.0773 11.8715 90.3352 11.2633C90.4467 10.9993 90.5735 10.7001 90.5611 10.4368C90.5382 9.93912 90.3409 9.44217 90.15 8.96204L90.1371 8.92891C89.947 8.45075 89.7178 8.01093 89.4555 7.62202C88.851 6.7253 88.135 6.14355 87.2662 5.84414C86.8993 5.71756 86.4627 5.65105 85.9314 5.64141C85.6179 5.63573 85.3044 5.65006 85.0391 5.66465C84.0321 5.71978 83.0585 5.91955 82.1484 6.25752C81.3224 6.58659 80.8403 7.26205 80.6732 8.33109C80.3382 9.83825 80.2477 11.5078 80.4032 13.2889C80.6074 14.9558 81.3341 15.7773 82.6251 15.8008C82.6822 15.8018 82.7396 15.8011 82.7752 15.8021ZM87.355 5.58702C88.2683 5.90225 89.051 6.53542 89.681 7.46997C89.9542 7.87519 90.1928 8.33233 90.3896 8.82853L90.4027 8.86141C90.5925 9.33957 90.8076 9.88101 90.8329 10.4242C90.8477 10.7491 90.7023 11.0932 90.5849 11.3706C90.3114 12.0161 89.8815 12.6127 89.4058 13.0073C87.6529 14.4608 85.4419 15.4906 82.8093 16.0708C81.2564 16.1287 80.3631 15.1991 80.133 13.3171C79.9742 11.5039 80.0667 9.8066 80.4062 8.28041C80.5876 7.11692 81.1246 6.37273 82.0508 6.00361C82.9895 5.65501 83.9899 5.44956 85.0243 5.39294C85.2945 5.3781 85.6142 5.36377 85.9363 5.3697C86.4966 5.37984 86.9604 5.45079 87.355 5.58702Z" fill="#D0111D" stroke="#D0111D" stroke-width="0.5"></path> <path d="M82.5342 7.03623C85.1307 7.7092 87.3938 9.00176 89.2004 11.1819C87.9506 9.0025 85.7077 7.60759 82.5342 7.03623Z" fill="#D0111D" stroke="#D0111D" stroke-width="0.5"></path> <path d="M80.4197 4.02852C78.5442 2.8586 76.2773 2.22073 73.6638 2.12678C74.5751 1.86891 75.414 1.74406 76.171 1.7579C77.937 1.79004 79.3297 2.53398 80.4197 4.02852ZM72.5863 2.48033C72.5898 2.47909 72.5932 2.47785 72.5967 2.47662C72.7641 2.41431 72.9431 2.38415 73.1216 2.38514C76.0348 2.40344 78.5269 3.09174 80.5335 4.42385C80.6642 4.51088 80.7523 4.64834 80.7829 4.80212C80.8989 5.38041 80.7911 6.08997 80.4558 6.91525C79.0852 8.77026 77.5145 10.3397 75.787 11.5801C75.7111 11.6268 75.6256 11.675 75.5378 11.7193C75.1514 11.9141 74.7583 12.0091 74.3699 12.0021C73.795 11.9917 73.2546 11.7537 72.8068 11.3138C72.6469 11.1566 72.5094 10.941 72.387 10.6552C72.2671 10.3753 72.1806 10.0732 72.102 9.78788C71.9509 9.23828 71.8589 8.66222 71.7699 8.10519L71.7583 8.033C71.565 6.82575 71.4302 5.53444 71.3462 4.08489C71.4428 3.20992 71.8486 2.67787 72.5863 2.48033ZM80.8482 4.16895C79.6864 2.41951 78.117 1.5213 76.1759 1.48594C75.0797 1.46616 73.8781 1.70672 72.5032 2.22172C71.6688 2.44448 71.1842 3.07048 71.0752 4.07797C71.1593 5.55916 71.2952 6.85962 71.4898 8.07577L71.5014 8.14797C71.5917 8.71241 71.6849 9.29614 71.8399 9.86008C71.9207 10.1543 72.0105 10.4663 72.1371 10.7622C72.2738 11.0812 72.4305 11.3252 72.6162 11.5079C73.4489 12.326 74.5988 12.4971 75.6602 11.9621C75.7546 11.9144 75.8476 11.862 75.9381 11.8058C77.7004 10.541 79.2948 8.94703 80.6848 7.0626L80.7011 7.03343C81.1768 5.87142 81.2262 4.90769 80.8482 4.16895Z" fill="#D0111D" stroke="#D0111D" stroke-width="0.5"></path> <path d="M79.8442 5.80493C77.7316 4.80931 75.503 4.07181 73.1401 3.63469C73.15 3.63494 73.1597 3.63494 73.1696 3.63519C75.7497 3.68192 77.9956 4.412 79.8442 5.80493Z" fill="#D0111D" stroke="#D0111D" stroke-width="0.5"></path> <path d="M70.5738 3.22663C70.6794 3.75028 70.6032 4.38864 70.5355 4.86358C70.5241 4.9427 70.5026 5.02009 70.472 5.09376C69.4694 7.51173 68.548 9.13558 67.5763 10.1975C67.0181 10.8113 66.4742 11.1174 65.9594 11.108C65.3413 11.0969 64.725 10.6291 64.1276 9.71807C63.3051 8.4626 62.7154 6.90823 62.3757 5.09796C62.3194 4.79757 62.2697 4.48853 62.2284 4.17899C62.1799 3.81506 62.1683 3.5604 62.2467 3.25729C62.2946 3.07236 62.3582 2.91141 62.4417 2.7695C62.5661 2.55786 62.7807 2.41199 63.02 2.35587C65.2993 1.82184 67.6134 1.8745 69.911 2.51212C70.2477 2.60557 70.5046 2.88397 70.5738 3.22663ZM69.7446 2.18725C68.6323 1.89823 67.5163 1.74124 66.4025 1.72096C65.4335 1.70341 64.4663 1.78846 63.5044 1.97463C64.5193 1.53949 65.3942 1.3155 66.2366 1.27742C67.3162 1.22897 68.3161 1.4809 69.5938 2.10913C69.6415 2.13262 69.6929 2.15932 69.7446 2.18725ZM70.8703 4.37974C70.9343 3.7352 70.9563 2.94528 70.5031 2.42436C70.2722 2.15907 69.9599 1.986 69.7137 1.8651C68.5344 1.28534 67.5687 1.01882 66.5827 1.00077C66.4643 0.99879 66.3451 1.00027 66.2242 1.00571C65.2859 1.04799 64.3165 1.30684 63.1738 1.82085C62.5105 2.11877 62.1544 2.52795 61.9834 3.18955C61.885 3.5698 61.9156 3.89145 61.9589 4.21508C62.0009 4.52907 62.0511 4.84331 62.1085 5.1484C62.4548 6.99402 63.0578 8.58176 63.9004 9.8669C65.0928 11.6866 66.4309 11.8604 67.7773 10.3809C67.8325 10.3201 67.8871 10.2588 67.9408 10.1967C68.3289 9.74526 68.6691 9.25376 68.9794 8.74618C69.3636 8.11771 69.7028 7.46253 70.0173 6.79722C70.2109 6.38829 70.377 5.96428 70.5773 5.55955C70.6608 5.39019 70.7209 5.21318 70.7654 5.03195C70.8179 4.81834 70.8485 4.59904 70.8703 4.37974Z" fill="#D0111D" stroke="#D0111D" stroke-width="0.5"></path> <path d="M63.2739 3.96499C64.3984 3.51181 65.4649 3.29449 66.467 3.31279C67.473 3.33108 68.414 3.58673 69.2825 4.07947C67.3378 3.52887 65.3322 3.51453 63.2739 3.96499Z" fill="#D0111D" stroke="#D0111D" stroke-width="0.5"></path> <path d="M9.6246 78.9958C10.1389 78.9958 10.6452 78.9271 11.1293 78.7921H11.1295C11.9953 78.5505 12.8073 78.0956 13.5423 77.44C14.2613 76.7991 14.6366 76.2406 14.8393 75.5125C14.9461 75.128 15.0141 74.7253 15.0799 74.3357C15.1474 73.9368 15.2168 73.5244 15.3288 73.1239C15.4811 72.5791 15.7017 72.0656 15.9145 71.5689C15.9749 71.4285 16.0352 71.2878 16.0943 71.1456C16.2233 70.8361 16.2162 70.4815 16.2092 70.1386L16.2075 70.0432C16.2003 69.6298 16.1642 69.2545 16.0972 68.8954C16.0285 68.5281 15.9266 68.1824 15.7954 67.8687L15.7625 67.7891C15.6819 67.5938 15.5988 67.392 15.4762 67.2467C15.3358 67.0805 15.1679 66.928 14.9632 66.7811C14.6853 66.5819 14.3713 66.4162 14.0677 66.2565C13.9673 66.2034 13.8674 66.1506 13.7693 66.097C12.9806 65.6668 12.1837 65.2888 11.4012 64.9736C10.1371 64.4643 5.81988 63.0103 3.34233 65.6797C2.50667 66.5801 2.3922 67.7231 2.27081 68.9333L2.25894 69.0495C2.142 70.2098 1.89897 71.2766 1.53652 72.2201C1.11053 73.3284 1.20102 74.5636 1.79859 75.7924C2.2802 76.7818 3.15418 77.611 4.19678 78.0679C4.45563 78.1809 4.72364 78.285 4.99461 78.3777C6.58137 78.9194 8.22252 78.9941 9.61891 78.9958C9.62089 78.9958 9.62262 78.9958 9.6246 78.9958ZM7.31739 63.8482C9.11035 63.8482 10.7844 64.4319 11.5026 64.7214C12.2952 65.0406 13.1017 65.423 13.8996 65.8587C13.9967 65.9116 14.0951 65.9635 14.1945 66.0159C14.5063 66.1803 14.8284 66.35 15.1216 66.5603C15.3417 66.7183 15.5308 66.8901 15.6839 67.0714C15.8342 67.2491 15.9294 67.4811 16.0137 67.6855L16.0461 67.7634C16.1853 68.0949 16.2921 68.4588 16.3645 68.8455C16.4342 69.2198 16.472 69.61 16.4795 70.0384L16.4812 70.1332C16.4886 70.504 16.4963 70.8874 16.3455 71.2502C16.2859 71.393 16.2251 71.535 16.1645 71.6759C15.9454 72.1872 15.7383 72.6696 15.5907 73.1974C15.4829 73.5836 15.4141 73.989 15.3481 74.3812C15.2809 74.7777 15.2119 75.1874 15.1011 75.5852C14.8836 76.368 14.4845 76.9643 13.7235 77.643C12.9571 78.3265 12.1088 78.8012 11.2022 79.054C10.6944 79.1956 10.1636 79.2676 9.6246 79.2676C9.62237 79.2676 9.62064 79.2676 9.61842 79.2676C8.20003 79.266 6.53093 79.1896 4.90659 78.6351C4.6287 78.5399 4.35328 78.4331 4.088 78.3169C2.98681 77.8348 2.06338 76.9579 1.55432 75.9112C0.922881 74.6131 0.828931 73.303 1.28261 72.1223C1.63665 71.2015 1.87399 70.1586 1.98846 69.0226L2.00009 68.9059C2.12049 67.7046 2.24535 66.4622 3.14306 65.4948C4.30977 64.2373 5.85351 63.8482 7.31739 63.8482Z" fill="#D0111D" stroke="#D0111D" stroke-width="0.5"></path> <path d="M4.25306 70.7007C4.10719 70.6668 3.9633 70.6349 3.81396 70.5961C3.84067 70.6194 3.99321 70.6604 4.25306 70.7007Z" fill="#D0111D" stroke="#D0111D" stroke-width="0.5"></path> <path d="M4.25195 70.7008C5.96505 71.1001 7.43907 71.1639 8.72742 70.8872C8.92496 70.845 9.1094 70.9864 9.12003 71.1879C9.13956 71.556 9.02534 71.8868 8.77514 72.1879C7.79707 73.3084 7.41757 74.7931 7.61066 76.7154C7.61659 76.7754 7.57728 76.8286 7.51819 76.8402C7.12187 76.9176 6.71121 77.0954 6.2872 77.3762C7.42424 77.0276 8.30391 76.9156 8.93881 77.0282C8.62729 76.8719 8.30292 76.7938 7.96593 76.7938C7.94146 76.7938 7.91673 76.7965 7.89226 76.7971C7.69101 74.9795 8.01242 73.5732 8.8723 72.5052C8.8906 72.4824 8.92175 72.4775 8.94598 72.461C10.5674 71.94 12.7771 72.1123 14.2225 73.0572C13.3329 72.3088 12.2135 71.9331 10.8796 71.9331C10.4089 71.9331 9.9102 71.9818 9.38655 72.076C9.29458 72.0925 9.22041 72.0028 9.25749 71.9172C9.39694 71.5971 9.42982 71.2495 9.35417 70.8774C9.32203 70.7204 9.36727 70.555 9.48149 70.443C10.2907 69.6487 10.62 68.608 10.5377 67.1516C10.5335 67.0791 10.5936 67.0213 10.6658 67.0289C11.1172 67.0774 11.6043 67.0388 12.1296 66.9026C10.9511 66.9842 9.83924 66.688 8.77959 66.0943C9.18308 66.5176 9.64887 66.8007 10.1733 66.9441C10.2212 66.9572 10.2566 66.9993 10.26 67.0487C10.3725 68.6277 9.995 69.6911 9.04116 70.4729L8.96625 70.5343L8.97169 70.549C6.76214 70.9357 5.02778 70.8215 4.25195 70.7008Z" fill="#D0111D" stroke="#D0111D" stroke-width="0.5"></path> <path d="M21.6486 55.6518C21.9592 54.7622 22.0435 54.0385 21.907 53.4432C21.7461 52.742 21.3267 52.0725 20.7265 51.5575C19.8814 50.8334 18.8 50.4232 17.7544 50.0261L17.3626 49.8771C17.1309 49.7878 16.8995 49.6961 16.6681 49.6046C15.7617 49.2451 14.8244 48.874 13.8639 48.6604C12.9178 48.45 11.5305 48.3163 10.2924 48.8755C8.96593 49.4743 8.26378 50.8287 7.58487 52.1388C7.45631 52.3868 7.32799 52.6342 7.19572 52.877C6.98928 53.2555 6.74847 53.6269 6.51508 53.9859C6.06264 54.6831 5.59487 55.404 5.37433 56.1942C5.11325 57.131 4.91176 58.5239 5.43515 59.8422C6.02926 61.3392 7.43554 62.5224 9.73434 63.4593C12.0396 64.3983 13.9408 64.6069 15.5471 64.097C16.719 63.7255 17.82 62.9269 18.7308 61.7882C19.2544 61.1332 19.6104 60.2463 19.9551 59.3887C20.0683 59.1059 20.1793 58.8293 20.2933 58.5697C20.455 58.2012 20.636 57.867 20.8105 57.5435C21.1393 56.9362 21.4499 56.3623 21.5933 55.6406L21.6486 55.6518ZM12.2922 48.2065C12.8107 48.2062 13.3573 48.269 13.9228 48.3949C14.9043 48.6132 15.8519 48.9887 16.7682 49.3517C16.9989 49.4427 17.2293 49.5341 17.4605 49.6232L17.8506 49.772C18.9182 50.1772 20.0221 50.596 20.9032 51.3511C21.5475 51.9037 21.9982 52.6248 22.172 53.3824C22.3278 54.0613 22.2237 54.8799 21.8538 55.8842L21.8207 55.8718C21.6575 56.5495 21.3616 57.0966 21.0498 57.6732C20.8775 57.9916 20.6993 58.3209 20.5423 58.6792C20.4295 58.936 20.3195 59.21 20.2073 59.4899C19.8557 60.3658 19.4918 61.2717 18.9431 61.9583C17.9985 63.139 16.8525 63.9683 15.6294 64.3564C13.9603 64.887 11.998 64.6756 9.63174 63.7111C7.26099 62.7447 5.80527 61.512 5.18248 59.9425C4.63114 58.554 4.84006 57.0978 5.11251 56.121C5.34417 55.2905 5.82331 54.5521 6.28713 53.838C6.51731 53.4832 6.75564 53.1164 6.95689 52.7467C7.08817 52.5057 7.21575 52.2597 7.34357 52.0137C8.04374 50.6625 8.76814 49.2654 10.1804 48.6275C10.8007 48.3477 11.5147 48.2065 12.2922 48.2065Z" fill="#D0111D" stroke="#D0111D" stroke-width="0.5"></path> <path d="M12.3947 62.4036C12.8536 62.4036 13.291 62.5581 13.7019 62.8668C12.9992 62.5988 12.24 62.536 11.4424 62.6124C11.7687 62.473 12.0864 62.4036 12.3947 62.4036Z" fill="#D0111D" stroke="#D0111D" stroke-width="0.5"></path> <path d="M18.0413 51.3334C17.3621 51.3423 16.7077 51.233 16.1034 51.0055C15.5116 50.7825 14.9491 50.4413 14.4321 49.9911C14.9424 50.4463 17.2823 51.3168 18.0413 51.3334Z" fill="#D0111D" stroke="#D0111D" stroke-width="0.5"></path> <path d="M16.4154 50.9113C16.5645 52.4533 15.9877 53.8685 14.7009 55.1188L14.5112 54.924C15.736 53.7343 16.2856 52.393 16.1447 50.9375L16.4154 50.9113Z" fill="#D0111D" stroke="#D0111D" stroke-width="0.5"></path> <path d="M8.47266 53.3556C10.8246 53.3925 12.9115 53.9418 14.6753 54.9894L14.5366 55.223C12.4168 53.8274 9.88215 53.5154 8.47266 53.3556Z" fill="#D0111D" stroke="#D0111D" stroke-width="0.5"></path> <path d="M14.6259 54.9342C15.0101 55.3953 15.1023 55.9382 14.9018 56.5501C16.3308 56.3556 17.8148 56.6866 19.5469 57.5861C18.5706 57.1608 16.2156 56.3341 14.7154 56.8547L14.4664 56.899L14.5666 56.6668C14.8304 56.0559 14.7814 55.5459 14.417 55.1083L14.6259 54.9342Z" fill="#D0111D" stroke="#D0111D" stroke-width="0.5"></path> <path d="M14.5634 56.677L14.8205 56.7652C14.3554 58.125 13.5883 59.1664 12.5407 59.8596L12.4948 59.8898L12.4406 59.8799C10.3581 59.3271 8.01656 59.6717 7.72705 59.6986C9.25176 59.3432 10.836 59.3108 12.4357 59.6026C13.4093 58.9431 14.125 57.9594 14.5634 56.677Z" fill="#D0111D" stroke="#D0111D" stroke-width="0.5"></path> <path d="M12.6014 59.7688C12.9807 60.5033 13.0571 61.4181 12.8351 62.5651L12.568 62.5137C12.7782 61.4287 12.7097 60.5718 12.3599 59.8937L12.6014 59.7688Z" fill="#D0111D" stroke="#D0111D" stroke-width="0.5"></path> <path d="M11.772 37.2492C12.3196 36.2842 12.8955 35.4528 13.5323 34.7069C14.498 33.576 15.3592 32.7035 16.4235 32.1215C17.0327 31.7882 17.6305 31.6162 18.1999 31.6105L18.2276 31.6102C18.7468 31.6102 19.2746 31.7618 19.7852 31.9084C19.957 31.9578 20.1279 32.0066 20.2975 32.0498C21.0708 32.2469 21.839 32.4936 22.5814 32.7834C23.9981 33.3362 25.2466 34.0848 26.5686 34.877L26.7516 34.9867C28.4177 35.9841 28.7411 38.2352 28.0854 39.7488C27.8268 40.3461 27.5798 41.0208 27.3185 41.7346C26.5295 43.89 25.6355 46.3329 23.9875 47.843C23.9744 47.8551 23.9595 47.8648 23.9452 47.8749L23.9148 47.8967C22.8447 48.6876 21.2058 48.9885 20.0191 49.1019C19.7291 49.1296 19.4324 49.1437 19.1367 49.1437C17.9519 49.1437 16.7652 48.9264 15.6091 48.4977C14.9028 48.2356 14.2256 47.8989 13.5966 47.4969C13.0465 47.1453 12.3622 46.7077 11.9824 46.1257C11.9097 46.0145 11.8346 45.8997 11.7718 45.7811C11.4504 45.1731 11.4229 44.5202 11.3942 43.8286C11.3851 43.6131 11.3762 43.3965 11.3579 43.1809C11.3114 42.632 11.2632 42.0834 11.2073 41.5355C11.1831 41.2964 11.1403 41.0593 11.0993 40.8299C11.0464 40.5364 10.992 40.2331 10.9781 39.9339C10.9326 38.9472 11.2627 38.1472 11.772 37.2492ZM10.7067 39.9465C10.721 40.2632 10.7771 40.5758 10.8315 40.8781C10.8718 41.1024 10.9136 41.3345 10.9369 41.5632C10.9925 42.1094 11.0404 42.6565 11.0869 43.2039C11.1047 43.4158 11.1136 43.6281 11.1225 43.84C11.1512 44.5313 11.1811 45.246 11.5312 45.9079C11.5999 46.0379 11.6786 46.1581 11.7547 46.2745C12.1666 46.9055 12.8781 47.3604 13.45 47.7256C14.0955 48.1385 14.7903 48.4838 15.5147 48.7526C16.9971 49.3024 18.5515 49.5151 20.045 49.3727C21.2659 49.256 22.956 48.9432 24.0767 48.1152L24.1012 48.0977C24.1252 48.0809 24.1494 48.0635 24.1712 48.0435C25.8682 46.4887 26.7745 44.0126 27.5741 41.828C27.834 41.1179 28.0795 40.4469 28.3351 39.857C29.0363 38.2379 28.6837 35.8266 26.8912 34.7536L26.7083 34.6438C25.3762 33.8457 24.118 33.0914 22.6801 32.53C21.9277 32.2362 21.1487 31.9863 20.3647 31.7865C20.1976 31.744 20.0297 31.6958 19.8601 31.6471C19.3318 31.4953 18.7849 31.3383 18.2276 31.3383L18.1972 31.3385C17.5826 31.3449 16.942 31.5282 16.293 31.8832C15.1277 32.5203 14.1781 33.532 13.3256 34.5306C12.6774 35.2894 12.0919 36.1349 11.5357 37.1149C11.0031 38.0539 10.6582 38.8946 10.7067 39.9465Z" fill="#73B61C" stroke="#73B61C" stroke-width="0.5"></path> <path d="M15.4291 36.6351C15.3406 36.5911 15.2521 36.5471 15.1638 36.5024C15.0869 36.4801 15.194 36.5357 15.4291 36.6351Z" fill="#73B61C" stroke="#73B61C" stroke-width="0.5"></path> <path d="M18.3343 43.4289C18.7786 44.3461 18.8844 45.3304 18.65 46.3618C18.629 46.4538 18.537 46.5102 18.4441 46.4929C18.132 46.4343 17.7941 46.4034 17.4264 46.4034C17.1775 46.4034 16.9154 46.4165 16.6402 46.4429C18.0045 46.5819 19.2263 46.8815 20.242 47.4136C19.9136 47.0674 19.5084 46.8143 19.026 46.6471C18.9398 46.6172 18.8901 46.529 18.9106 46.44C19.1647 45.342 19.0537 44.2927 18.5805 43.3144C19.6352 42.7747 20.4917 41.923 21.1644 40.758L21.1659 40.7585L21.1681 40.7523C21.1708 40.7473 21.1738 40.7429 21.1765 40.7382C23.4998 40.4868 25.1988 41.3281 26.078 41.7843C25.0472 40.9021 23.5475 40.4561 21.6146 40.4561C21.4987 40.4561 21.3785 40.4603 21.2591 40.4635C21.5409 39.5225 21.4856 38.6708 21.0927 37.9254C21.173 37.8945 21.2531 37.8628 21.3298 37.8238C22.2062 37.3763 22.7581 36.4284 23.0199 34.94C23.6617 35.0889 24.3216 35.1005 25.0074 34.9734C23.5218 34.9353 22.1143 34.4999 20.7607 33.7904C21.4119 34.312 22.0742 34.6705 22.7563 34.8708C22.5865 36.3396 22.0196 37.1085 21.2062 37.5815C19.9163 38.3314 16.4543 37.0682 15.4295 36.6351C17.3923 37.6134 19.3633 38.3986 20.8281 38.0095C21.2319 38.7455 21.2756 39.6012 20.9481 40.5587L20.9201 40.6373C19.57 43.8687 15.0218 43.8702 13.436 43.8571C15.3813 44.0781 17.0049 43.891 18.3343 43.4289Z" fill="#73B61C" stroke="#73B61C" stroke-width="0.5"></path> <path d="M31.1663 25.3694C28.444 22.3 25.0813 21.2544 21.1725 22.2611C20.3497 22.4728 19.469 23.1969 19.1286 23.4983C18.7226 23.8578 18.4096 24.2751 18.198 24.7389C17.7028 25.8253 17.7253 27.1478 18.2598 28.3674C18.7929 29.5838 19.7546 30.6222 20.8326 31.1453C22.3417 31.8779 23.969 32.5832 25.6413 32.7808C27.0869 32.9514 28.4373 32.6495 29.5469 31.9066C30.7999 31.0672 31.7663 29.5326 31.9515 28.088C32.0858 27.04 31.8145 26.1002 31.1663 25.3694ZM23.9621 21.6166C26.7783 21.6166 29.2611 22.8115 31.3695 25.1889C32.0714 25.9803 32.3659 26.9947 32.2212 28.1224C32.0267 29.6404 31.0127 31.2519 29.6982 32.1323C28.534 32.9121 27.1198 33.2305 25.6094 33.0505C23.897 32.8485 22.2445 32.133 20.7136 31.3901C19.5796 30.8392 18.5691 29.7502 18.0108 28.4767C17.4452 27.1863 17.4234 25.7828 17.9505 24.6264C18.1782 24.1273 18.5137 23.6793 18.9484 23.2948C19.3036 22.9801 20.2248 22.2241 21.1045 21.9976C22.0912 21.7434 23.0446 21.6166 23.9621 21.6166Z" fill="#D0111D" stroke="#D0111D" stroke-width="0.5"></path> <path d="M26.9421 29.3381C26.5151 29.9324 25.8416 30.3047 24.9434 30.4479C24.2895 29.9497 23.1102 29.5447 21.6045 29.1361C23.4546 29.8254 24.9741 30.5485 25.5118 31.3726C25.5081 31.1186 25.3986 30.889 25.2005 30.6766C26.0664 30.4976 26.7272 30.103 27.1629 29.4968C27.1957 29.451 27.2214 29.3991 27.2519 29.3512C27.6529 29.9087 28.3019 30.2412 29.0923 30.4457C28.4238 30.1613 27.8793 29.7702 27.4875 29.2473C27.4279 29.1677 27.4229 29.0624 27.4635 28.9719C27.8544 28.1036 27.9204 26.9307 27.6744 25.4226C28.2905 25.6117 28.9145 25.7099 29.5521 25.7099C29.5806 25.7099 29.6093 25.7096 29.6379 25.7094C27.9901 25.3761 26.4352 24.7629 24.9516 23.9352C25.7581 24.5746 26.565 25.0324 27.3844 25.3252C27.6999 27.1374 27.5522 28.4888 26.9421 29.3381Z" fill="#D0111D" stroke="#D0111D" stroke-width="0.5"></path> <path d="M31.8616 22.8143L31.9437 22.8141C33.6019 22.802 34.6868 22.4155 35.3578 21.5984C36.0914 20.7049 35.9925 19.5001 35.8243 18.55C35.1177 14.5559 33.3144 12.6141 30.3105 12.6141C29.4343 12.6141 28.4431 12.7867 27.3654 13.1266C26.66 13.3492 25.9698 13.7969 25.5146 14.1334C24.7499 14.6986 24.2517 15.3817 24.0339 16.1637C23.6517 17.5386 24.2666 18.8833 24.9183 20.0176C25.4253 20.8997 26.3592 21.5749 27.7724 22.082C29.127 22.5678 30.5028 22.8143 31.8616 22.8143ZM30.3105 12.3422C33.4239 12.3422 35.3689 14.4147 36.0921 18.5028C36.2704 19.51 36.3722 20.792 35.568 21.771C34.6139 22.9328 33.0437 23.0781 31.946 23.0861L31.8616 23.0863C30.4712 23.0863 29.0647 22.8346 27.6806 22.3379C26.2041 21.8081 25.2234 21.0936 24.6824 20.1528C24.0025 18.9701 23.3629 17.5626 23.7721 16.091C24.0062 15.2489 24.5383 14.5169 25.3532 13.9146C25.8246 13.5657 26.5424 13.1012 27.2836 12.8673C28.388 12.5189 29.4063 12.3422 30.3105 12.3422Z" fill="#D0111D" stroke="#D0111D" stroke-width="0.5"></path> <path d="M33.3545 17.6749C32.8561 19.322 31.8692 20.1969 30.3454 20.3413C30.2458 20.3507 30.1479 20.3131 30.0695 20.2508C29.4383 19.7487 28.242 19.4092 27.1299 19.1417C27.1299 19.1417 29.5236 20.0531 30.0413 20.5883C30.2809 20.836 30.4646 21.5001 30.4646 21.5001C30.5694 21.2403 30.5739 20.9948 30.4809 20.7663C30.4478 20.685 30.5024 20.5975 30.5895 20.5849C32.0392 20.3742 33.0351 19.4832 33.5575 17.9295C33.5892 17.8353 33.6997 17.7889 33.7833 17.8428C34.0374 18.0069 34.298 18.0991 34.5665 18.1182C33.5068 17.33 32.6447 16.2829 31.9124 15.0656C32.3557 16.1408 32.8133 16.9245 33.2935 17.4296C33.3558 17.4951 33.3808 17.5884 33.3545 17.6749Z" fill="#D0111D" stroke="#D0111D" stroke-width="0.5"></path> <path d="M40.4229 16.1292C41.714 16.1292 42.4557 15.3207 42.6898 13.6578C42.8777 11.8799 42.8174 10.2091 42.5101 8.69602C42.3623 7.62425 41.8925 6.94015 41.0724 6.59599C40.1688 6.2417 39.1989 6.02413 38.1929 5.95095C37.9281 5.93142 37.6148 5.91164 37.3013 5.91164C36.77 5.91164 36.3322 5.96999 35.963 6.09014C35.0891 6.37372 34.3624 6.94212 33.7419 7.82772C33.4726 8.21217 33.2355 8.64756 33.0368 9.12225L33.0232 9.15513C32.8236 9.63181 32.6174 10.1248 32.5853 10.6222C32.5682 10.885 32.6896 11.1867 32.7964 11.4527C33.0432 12.0653 33.4348 12.6315 33.8714 13.0073C35.5643 14.4638 37.7182 15.5138 40.2729 16.1277C40.3085 16.1272 40.3658 16.1292 40.4229 16.1292ZM37.3013 5.63968C37.6235 5.63968 37.9429 5.65971 38.2129 5.67949C39.2458 5.75489 40.2425 5.97839 41.1745 6.34381C42.094 6.72974 42.6174 7.48357 42.7779 8.65027C43.0894 10.1821 43.1512 11.8809 42.9598 13.6909C42.6955 15.5684 41.7855 16.4817 40.2338 16.3957C37.6124 15.768 35.4201 14.6982 33.6942 13.2133C33.2256 12.8103 32.8066 12.2058 32.5448 11.5553C32.4325 11.2757 32.2933 10.9293 32.3141 10.6047C32.3489 10.062 32.5739 9.5245 32.7722 9.04981L32.7861 9.01717C32.992 8.52468 33.2388 8.07175 33.5194 7.67172C34.1659 6.74879 34.96 6.12995 35.879 5.83129C36.2758 5.70223 36.7411 5.63968 37.3013 5.63968Z" fill="#D0111D" stroke="#D0111D" stroke-width="0.5"></path> <path d="M40.6728 7.36771C38.0647 7.99346 35.7785 9.24472 33.9326 11.392C35.2217 9.23557 37.4896 7.88146 40.6728 7.36771Z" fill="#D0111D" stroke="#D0111D" stroke-width="0.5"></path> <path d="M47.1298 2.20538C47.8868 2.20538 48.7234 2.34532 49.6298 2.6195C47.015 2.66623 44.737 3.26306 42.8407 4.39861C43.9575 2.9241 45.3633 2.20538 47.1298 2.20538ZM51.9116 4.61939C51.8013 6.06721 51.6431 7.35581 51.428 8.55935L51.4151 8.63129C51.316 9.18659 51.2136 9.76092 51.0524 10.3078C50.9688 10.5916 50.8769 10.892 50.7518 11.1699C50.6242 11.4535 50.483 11.6664 50.3201 11.8206C49.8647 12.2526 49.32 12.4805 48.745 12.4805C48.3563 12.4805 47.9652 12.3784 47.5822 12.1764C47.4954 12.1309 47.4109 12.081 47.3357 12.0328C45.631 10.7615 44.089 9.16384 42.7522 7.28411C42.4318 6.45314 42.3371 5.7416 42.4632 5.16554C42.4968 5.01225 42.5873 4.87653 42.7198 4.79197C44.7501 3.49645 47.2544 2.85339 50.1673 2.888C50.3458 2.88998 50.5243 2.9236 50.6904 2.98863C50.6939 2.99011 50.6974 2.99135 50.7008 2.99283C51.4349 3.20372 51.831 3.74294 51.9116 4.61939ZM42.5047 7.39808L42.5208 7.4275C43.8761 9.33666 45.4414 10.9593 47.1807 12.256C47.2699 12.3136 47.3619 12.3678 47.4556 12.4172C48.5071 12.9713 49.6597 12.821 50.5072 12.0182C50.6961 11.8389 50.8573 11.5979 51 11.2814C51.1318 10.988 51.2272 10.6774 51.3132 10.3849C51.4786 9.82372 51.5825 9.24197 51.6829 8.67926L51.6957 8.60731C51.9123 7.39462 52.0718 6.09688 52.1825 4.61742C52.0918 3.6082 51.6186 2.97354 50.7886 2.7357C49.4231 2.19599 48.2262 1.93342 47.1298 1.93342C45.1882 1.93342 43.6029 2.8032 42.4098 4.53138C42.0181 5.26295 42.0503 6.22767 42.5047 7.39808Z" fill="#D0111D" stroke="#D0111D" stroke-width="0.5"></path> <path d="M43.3843 6.18542C45.5147 5.22813 47.7562 4.53117 50.1267 4.13683C50.1165 4.13683 50.1071 4.13683 50.097 4.13683C47.5163 4.13683 45.2576 4.82587 43.3843 6.18542Z" fill="#D0111D" stroke="#D0111D" stroke-width="0.5"></path> <path d="M53.3754 3.07279C55.6838 2.47695 57.9987 2.46632 60.2681 3.04164C60.5062 3.10196 60.718 3.25179 60.8387 3.46565C60.9195 3.60904 60.9804 3.77099 61.0249 3.95691C61.0976 4.26125 61.0815 4.51566 61.0263 4.8786C60.9794 5.18764 60.9242 5.4957 60.8624 5.79486C60.4899 7.59869 59.8722 9.14219 59.0269 10.3823C58.4133 11.2825 57.7885 11.7392 57.1705 11.7392C56.6555 11.7392 56.1172 11.4232 55.5703 10.7994C54.618 9.71998 53.726 8.07957 52.7677 5.64405C52.7383 5.56963 52.718 5.49199 52.7083 5.41263C52.649 4.9367 52.5845 4.29685 52.6997 3.77519C52.7751 3.434 53.0369 3.16031 53.3754 3.07279ZM53.6997 2.67573C54.9886 2.07074 55.9929 1.8371 57.0716 1.90509C57.9132 1.95825 58.7837 2.19832 59.7907 2.65175C58.8321 2.44802 57.8667 2.34566 56.8975 2.34566C55.7837 2.34566 54.665 2.48214 53.5477 2.75114C53.5999 2.72394 53.6515 2.69823 53.6997 2.67573ZM52.4752 5.5768C52.5165 5.75876 52.5733 5.93702 52.6539 6.10761C52.8468 6.5163 53.0053 6.94302 53.1912 7.35541C53.4938 8.02641 53.8212 8.68752 54.1937 9.32267C54.4946 9.83593 54.8259 10.3334 55.2059 10.792C55.2583 10.855 55.312 10.9173 55.3661 10.9791C56.6854 12.4826 58.0264 12.3333 59.2517 10.5354C60.1173 9.2658 60.7489 7.68918 61.129 5.85024C61.1917 5.54614 61.2476 5.23289 61.2953 4.91964C61.3443 4.597 61.3806 4.27584 61.2894 3.89386C61.1302 3.22929 60.7816 2.81369 60.1239 2.5039C58.9906 1.96938 58.0261 1.69296 57.0886 1.63362C56.968 1.62596 56.8488 1.62225 56.7304 1.62225C55.7441 1.62225 54.7737 1.87122 53.5843 2.42948C53.3358 2.54618 53.0206 2.71331 52.785 2.97439C52.3221 3.48716 52.3298 4.27732 52.3822 4.92285C52.4003 5.1424 52.4267 5.36244 52.4752 5.5768Z" fill="#D0111D" stroke="#D0111D" stroke-width="0.5"></path> <path d="M59.9859 4.64593C58.8699 4.17247 57.8072 3.93586 56.8049 3.93586C55.7989 3.93586 54.8533 4.17469 53.9761 4.65161C55.9307 4.13612 57.9361 4.15813 59.9859 4.64593Z" fill="#D0111D" stroke="#D0111D" stroke-width="0.5"></path> </svg> 