<?xml version="1.0" encoding="UTF-8"?> <svg xmlns="http://www.w3.org/2000/svg" width="220" height="140" viewBox="0 0 220 140" fill="none"><path d="M204.144 138.479C206.453 138.479 209.053 138.32 211.587 137.532C212.079 137.379 212.57 137.205 213.046 137.013C214.955 136.243 216.57 134.814 217.477 133.091C218.603 130.95 218.808 128.783 218.071 126.821C217.444 125.152 217.037 123.27 216.863 121.227L216.846 121.022C216.665 118.892 216.495 116.88 215.006 115.27C210.594 110.5 202.704 112.919 200.391 113.773C198.957 114.303 197.498 114.942 196.053 115.672C195.874 115.763 195.692 115.851 195.51 115.94C194.952 116.212 194.375 116.494 193.863 116.836C193.485 117.088 193.175 117.35 192.915 117.637C192.689 117.888 192.531 118.238 192.379 118.577L192.314 118.721C192.065 119.269 191.869 119.873 191.733 120.515C191.601 121.137 191.521 121.815 191.495 122.528L191.488 122.695C191.464 123.298 191.439 123.921 191.664 124.47C191.766 124.721 191.871 124.969 191.976 125.217C192.347 126.098 192.73 127.008 192.989 127.971C193.179 128.678 193.292 129.405 193.401 130.108C193.508 130.795 193.619 131.505 193.8 132.183C194.144 133.47 194.808 134.464 196.092 135.612C197.406 136.788 198.866 137.613 200.431 138.064C201.311 138.319 202.232 138.456 203.167 138.471C203.486 138.476 203.812 138.479 204.144 138.479ZM207.57 111.923C210.311 111.923 213.224 112.627 215.374 114.952C216.974 116.68 217.159 118.868 217.338 120.983L217.355 121.187C217.526 123.189 217.923 125.029 218.535 126.658C219.321 128.747 219.107 131.046 217.918 133.307C216.958 135.13 215.252 136.642 213.236 137.454C212.747 137.651 212.244 137.83 211.738 137.987C208.771 138.909 205.736 138.989 203.159 138.949C202.179 138.933 201.213 138.79 200.289 138.523C198.651 138.05 197.127 137.189 195.757 135.963C194.397 134.747 193.691 133.686 193.321 132.303C193.134 131.6 193.021 130.878 192.913 130.18C192.806 129.489 192.695 128.774 192.511 128.091C192.261 127.159 191.9 126.303 191.518 125.398C191.413 125.148 191.307 124.898 191.204 124.645C190.941 124.003 190.968 123.328 190.994 122.676L191.001 122.512C191.028 121.772 191.111 121.067 191.249 120.419C191.392 119.744 191.598 119.108 191.863 118.528L191.926 118.386C192.085 118.032 192.266 117.629 192.543 117.323C192.827 117.01 193.176 116.714 193.582 116.443C194.122 116.082 194.715 115.792 195.287 115.514C195.468 115.425 195.648 115.338 195.825 115.248C197.286 114.51 198.763 113.863 200.215 113.326C201.492 112.855 204.418 111.923 207.57 111.923Z" fill="#E4E7E9" stroke="#E4E7E9" stroke-width="0.5"></path><path d="M213.189 124.066C213.455 124.011 213.718 123.96 213.99 123.896C213.941 123.936 213.662 124.004 213.189 124.066Z" fill="#E4E7E9" stroke="#E4E7E9" stroke-width="0.5"></path><path d="M213.189 124.067C210.064 124.714 207.385 124.779 205.053 124.252C204.696 124.171 204.356 124.414 204.331 124.767C204.283 125.414 204.48 125.999 204.924 126.536C206.664 128.536 207.304 131.157 206.89 134.529C206.877 134.634 206.947 134.729 207.054 134.752C207.771 134.9 208.512 135.226 209.272 135.732C207.219 135.084 205.625 134.859 204.468 135.036C205.039 134.772 205.631 134.645 206.243 134.656C206.287 134.656 206.332 134.662 206.376 134.664C206.801 131.476 206.264 128.995 204.737 127.09C204.705 127.049 204.648 127.04 204.605 127.01C201.677 126.043 197.657 126.275 195.001 127.89C196.641 126.603 198.687 125.979 201.11 126.021C201.965 126.036 202.869 126.138 203.817 126.32C203.983 126.351 204.122 126.196 204.057 126.045C203.814 125.477 203.766 124.866 203.916 124.214C203.979 123.94 203.902 123.648 203.698 123.447C202.255 122.025 201.691 120.186 201.889 117.629C201.899 117.502 201.792 117.399 201.66 117.41C200.839 117.48 199.955 117.397 199.005 117.141C201.143 117.321 203.172 116.837 205.117 115.827C204.37 116.558 203.515 117.041 202.557 117.276C202.47 117.298 202.404 117.37 202.396 117.457C202.14 120.229 202.791 122.109 204.498 123.513L204.632 123.623L204.621 123.649C208.622 124.399 211.776 124.254 213.189 124.067Z" fill="#E4E7E9" stroke="#E4E7E9" stroke-width="0.5"></path><path d="M196.419 112.639C198.508 112.639 200.841 112.15 203.47 111.167C207.676 109.594 210.269 107.56 211.398 104.948C212.392 102.647 212.071 100.193 211.628 98.539C211.253 97.1423 210.427 95.8604 209.628 94.6207C209.217 93.9828 208.791 93.3231 208.429 92.6513C208.197 92.2211 207.972 91.7818 207.747 91.3429C206.557 89.0185 205.326 86.615 202.936 85.5204C200.706 84.4988 198.182 84.6891 196.456 85.029C194.701 85.3744 192.984 85.9984 191.323 86.6016C190.903 86.7545 190.483 86.9071 190.061 87.0557L189.353 87.3029C187.437 87.9678 185.457 88.6548 183.896 89.9019C182.788 90.7871 182.005 91.9508 181.689 93.1775C181.422 94.2196 181.551 95.4941 182.086 97.0667L182.187 97.0493C182.424 98.3221 182.968 99.3402 183.546 100.418C183.853 100.993 184.17 101.586 184.451 102.238C184.65 102.698 184.842 103.187 185.039 103.687C185.636 105.205 186.253 106.776 187.184 107.943C188.8 109.973 190.773 111.412 192.89 112.103C193.984 112.46 195.156 112.639 196.419 112.639ZM199.111 84.2794C200.607 84.2794 201.974 84.5505 203.147 85.0885C205.692 86.2544 206.962 88.733 208.189 91.1304C208.413 91.5667 208.636 92.0025 208.867 92.4301C209.221 93.0854 209.641 93.7377 210.047 94.3678C210.866 95.6384 211.713 96.9516 212.106 98.4186C212.569 100.144 212.9 102.708 211.854 105.132C210.67 107.871 207.986 109.99 203.648 111.613C199.318 113.232 195.747 113.541 192.732 112.556C190.523 111.834 188.469 110.34 186.792 108.235C185.818 107.012 185.187 105.408 184.577 103.856C184.382 103.362 184.191 102.878 183.996 102.422C183.722 101.788 183.409 101.204 183.107 100.638C182.56 99.6154 182.04 98.645 181.766 97.4483L181.705 97.4687C181.066 95.6923 180.905 94.2509 181.21 93.0624C181.55 91.737 182.393 90.4834 183.581 89.533C185.208 88.2329 187.23 87.5315 189.185 86.8532L189.892 86.6068C190.312 86.4586 190.731 86.3065 191.149 86.1544C192.828 85.5443 194.565 84.9134 196.358 84.5605C197.311 84.3728 198.234 84.2794 199.111 84.2794Z" fill="#E4E7E9" stroke="#E4E7E9" stroke-width="0.5"></path><path d="M198.673 109.224C197.84 109.209 197.041 109.467 196.284 109.996C197.569 109.547 198.95 109.461 200.397 109.621C199.809 109.366 199.233 109.233 198.673 109.224Z" fill="#E4E7E9" stroke="#E4E7E9" stroke-width="0.5"></path><path d="M188.784 89.5898C190.017 89.6267 191.21 89.456 192.314 89.0753C193.397 88.7025 194.43 88.121 195.383 87.3462C194.442 88.1297 190.163 89.5846 188.784 89.5898Z" fill="#E4E7E9" stroke="#E4E7E9" stroke-width="0.5"></path><path d="M191.748 88.9001C191.426 91.6047 192.427 94.1103 194.724 96.3486L195.074 96.0119C192.889 93.8822 191.935 91.5078 192.239 88.9544L191.748 88.9001Z" fill="#E4E7E9" stroke="#E4E7E9" stroke-width="0.5"></path><path d="M206.095 93.4508C201.822 93.4399 198.014 94.339 194.775 96.1241L195.019 96.5391C198.916 94.1534 203.53 93.6863 206.095 93.4508Z" fill="#E4E7E9" stroke="#E4E7E9" stroke-width="0.5"></path><path d="M194.867 96.0291C194.154 96.8274 193.969 97.7786 194.313 98.8602C191.723 98.473 189.017 99.0071 185.841 100.532C187.628 99.8161 191.934 98.4387 194.641 99.4012L195.092 99.4873L194.918 99.0762C194.459 97.9937 194.564 97.0994 195.24 96.342L194.867 96.0291Z" fill="#E4E7E9" stroke="#E4E7E9" stroke-width="0.5"></path><path d="M194.925 99.0936L194.455 99.2401C195.255 101.645 196.614 103.499 198.494 104.751L198.576 104.806L198.675 104.79C202.476 103.884 206.718 104.565 207.243 104.622C204.485 103.948 201.608 103.841 198.693 104.303C196.946 103.113 195.679 101.361 194.925 99.0936Z" fill="#E4E7E9" stroke="#E4E7E9" stroke-width="0.5"></path><path d="M198.384 104.588C197.671 105.867 197.502 107.472 197.868 109.494L198.355 109.412C198.009 107.499 198.161 105.996 198.819 104.815L198.384 104.588Z" fill="#E4E7E9" stroke="#E4E7E9" stroke-width="0.5"></path><path d="M201.988 69.7831C201.953 70.3081 201.844 70.8399 201.738 71.3536C201.656 71.7555 201.57 72.171 201.519 72.5903C201.399 73.5511 201.293 74.514 201.191 75.477C201.15 75.8555 201.127 76.2353 201.104 76.6137C201.029 77.8283 200.957 78.9751 200.353 80.0327C200.235 80.2396 200.095 80.4386 199.96 80.632C199.251 81.6427 197.993 82.3897 196.983 82.9898C195.827 83.6764 194.586 84.2465 193.294 84.6846C191.18 85.4011 189.018 85.7453 186.865 85.7079C186.328 85.6983 185.79 85.664 185.264 85.6058C183.112 85.369 180.145 84.788 178.228 83.364L178.173 83.3249C178.147 83.3066 178.121 83.2888 178.097 83.2675C175.154 80.5612 173.61 76.2396 172.248 72.4265C171.797 71.1641 171.371 69.9708 170.92 68.9123C169.779 66.232 170.441 62.2863 173.5 60.5864L173.836 60.3995C176.263 59.0499 178.556 57.774 181.147 56.8476C182.505 56.3622 183.909 55.9528 185.319 55.6313C185.629 55.5605 185.941 55.4801 186.254 55.3988C187.187 55.1576 188.151 54.9078 189.094 54.9243L189.144 54.9256C190.178 54.9543 191.258 55.2758 192.354 55.8807C194.268 56.9371 195.803 58.498 197.52 60.516C198.653 61.847 199.671 63.3262 200.634 65.0396C201.529 66.6335 202.103 68.0502 201.988 69.7831ZM201.067 64.8111C200.089 63.0716 199.054 61.5667 197.901 60.2127C196.386 58.4306 194.694 56.6225 192.599 55.4657C191.432 54.8213 190.274 54.4789 189.158 54.448L189.103 54.4467C188.091 54.4289 187.092 54.687 186.127 54.9373C185.818 55.0173 185.511 55.0968 185.206 55.1663C183.776 55.4922 182.352 55.9068 180.976 56.3991C178.346 57.3399 176.035 58.6253 173.59 59.9854L173.254 60.1723C169.962 62.0013 169.243 66.2272 170.463 69.0948C170.908 70.1399 171.332 71.3266 171.781 72.5829C173.161 76.4473 174.726 80.8275 177.757 83.6138C177.796 83.6495 177.839 83.6808 177.882 83.7116L177.926 83.7429C179.934 85.2338 182.994 85.837 185.208 86.0812C187.916 86.3788 190.746 86.0551 193.457 85.1356C194.782 84.6863 196.055 84.1014 197.241 83.397C198.292 82.773 199.599 81.996 200.368 80.9005C200.51 80.6985 200.657 80.4895 200.786 80.2635C201.444 79.1115 201.522 77.8565 201.596 76.6429C201.62 76.2705 201.643 75.8976 201.682 75.5256C201.785 74.5653 201.89 73.6054 202.009 72.6472C202.059 72.2461 202.142 71.8398 202.223 71.4466C202.332 70.9173 202.444 70.3698 202.48 69.8135C202.603 67.9667 202.004 66.4784 201.067 64.8111Z" fill="#E4E7E9" stroke="#E4E7E9" stroke-width="0.5"></path><path d="M194.007 63.8447C194.169 63.7704 194.331 63.6957 194.493 63.6201C194.633 63.5831 194.437 63.6779 194.007 63.8447Z" fill="#E4E7E9" stroke="#E4E7E9" stroke-width="0.5"></path><path d="M188.509 75.6919C187.672 77.2897 187.447 79.0162 187.839 80.8361C187.874 80.9986 188.039 81.1007 188.209 81.0729C188.777 80.9795 189.392 80.936 190.06 80.9478C190.512 80.9556 190.988 80.9873 191.487 81.0425C189.004 81.2432 186.775 81.7312 184.913 82.6338C185.521 82.0359 186.265 81.6039 187.146 81.3254C187.304 81.2754 187.398 81.1224 187.363 80.9651C186.938 79.0275 187.174 77.1868 188.065 75.4829C186.168 74.5008 184.64 72.9769 183.456 70.9085L183.454 70.9093L183.45 70.898C183.445 70.8893 183.44 70.8815 183.435 70.8728C179.223 70.357 176.11 71.7815 174.498 72.5549C176.399 71.0375 179.138 70.3018 182.649 70.3635C182.859 70.367 183.077 70.3783 183.294 70.3874C182.813 68.7249 182.942 67.23 183.68 65.9325C183.535 65.876 183.39 65.8178 183.252 65.7465C181.675 64.9321 180.704 63.2492 180.278 60.6249C179.107 60.8661 177.908 60.8657 176.666 60.6206C179.366 60.601 181.937 59.8806 184.419 58.6769C183.219 59.5729 182.004 60.1817 180.758 60.512C181.019 63.0984 182.023 64.4676 183.485 65.3245C185.803 66.6838 192.133 64.5741 194.009 63.8453C190.411 65.5023 186.806 66.8194 184.157 66.0889C183.4 67.3695 183.292 68.8717 183.856 70.5647L183.904 70.7038C186.25 76.4254 194.511 76.5732 197.392 76.6006C193.851 76.9269 190.909 76.5462 188.509 75.6919Z" fill="#E4E7E9" stroke="#E4E7E9" stroke-width="0.5"></path><path d="M174.384 56.8045C174.781 56.8045 175.183 56.7849 175.59 56.7454C178.634 56.4516 181.613 55.264 184.378 54.0243C186.352 53.14 188.134 51.3453 189.142 49.2247C190.154 47.0985 190.238 44.7754 189.374 42.8512C189.005 42.0291 188.45 41.2851 187.724 40.6407C187.116 40.1001 185.54 38.7995 184.053 38.4011C176.986 36.5082 170.844 38.2385 165.798 43.5456C164.597 44.8089 164.072 46.4523 164.282 48.2978C164.571 50.8421 166.276 53.5697 168.524 55.085C170.207 56.2187 172.214 56.8045 174.384 56.8045ZM178.682 37.1774C180.449 37.1774 182.284 37.4316 184.185 37.9409C185.775 38.3667 187.424 39.7242 188.059 40.2887C188.835 40.9788 189.43 41.7766 189.827 42.6605C190.747 44.7098 190.661 47.175 189.591 49.4246C188.535 51.6456 186.664 53.5276 184.586 54.4584C181.781 55.7151 178.756 56.9196 175.638 57.2208C172.887 57.4872 170.33 56.884 168.242 55.477C165.883 53.8878 164.094 51.0237 163.791 48.35C163.565 46.3632 164.134 44.5903 165.435 43.2215C169.26 39.1989 173.699 37.1774 178.682 37.1774Z" fill="#E4E7E9" stroke="#E4E7E9" stroke-width="0.5"></path><path d="M173.338 50.6548C174.095 51.7129 175.305 52.3886 176.932 52.6684C178.137 51.8137 180.292 51.1401 183.04 50.4696C179.657 51.6221 176.873 52.8444 175.87 54.2754C175.884 53.8291 176.091 53.4293 176.458 53.0621C174.891 52.7202 173.704 52.0058 172.932 50.9263C172.874 50.8451 172.829 50.753 172.775 50.6678C172.029 51.6351 170.839 52.1987 169.397 52.5324C170.62 52.0544 171.622 51.3844 172.351 50.4775C172.462 50.3397 172.475 50.1546 172.404 49.9942C171.723 48.456 171.641 46.3927 172.137 43.7503C171.012 44.0631 169.876 44.2157 168.717 44.1957C168.666 44.1948 168.614 44.1931 168.562 44.1918C171.565 43.6586 174.41 42.6309 177.132 41.2234C175.646 42.3215 174.165 43.1002 172.667 43.5886C172.035 46.7634 172.258 49.1425 173.338 50.6548Z" fill="#E4E7E9" stroke="#E4E7E9" stroke-width="0.5"></path><path d="M172.069 37.8765C174.653 37.0309 176.371 35.8737 177.321 34.3398C178.543 32.3674 179.703 30.0235 179.055 27.5956C178.684 26.2142 177.802 24.9979 176.432 23.9802C175.616 23.3745 174.377 22.5658 173.103 22.1521C171.157 21.5203 169.362 21.1857 167.77 21.1574C162.314 21.0618 158.975 24.4169 157.56 31.4136C157.223 33.0779 157.004 35.1919 158.307 36.785C159.499 38.2424 161.457 38.956 164.468 39.0303L164.617 39.0333C167.085 39.0768 169.592 38.6874 172.069 37.8765ZM173.261 21.6993C174.599 22.1334 175.888 22.9729 176.732 23.6009C178.193 24.6851 179.134 25.9887 179.532 27.4761C180.227 30.0747 179.019 32.5282 177.745 34.5853C176.732 36.2209 174.927 37.4455 172.227 38.3294C169.697 39.158 167.134 39.5556 164.608 39.5113L164.455 39.5083C162.462 39.4592 159.614 39.1537 157.919 37.0818C156.491 35.3358 156.718 33.0861 157.075 31.3219C158.523 24.161 162.124 20.5808 167.78 20.6799C169.422 20.7085 171.266 21.0518 173.261 21.6993Z" fill="#E4E7E9" stroke="#E4E7E9" stroke-width="0.5"></path><path d="M162.075 29.955C162.926 32.8651 164.69 34.4347 167.453 34.7367C167.634 34.7563 167.813 34.6937 167.957 34.5864C169.12 33.7238 171.305 33.1658 173.333 32.7313C173.333 32.7313 168.955 34.2561 167.997 35.1804C167.554 35.6084 167.198 36.7695 167.198 36.7695C167.016 36.3093 167.017 35.8778 167.193 35.4789C167.255 35.3373 167.159 35.1817 167.002 35.1569C164.375 34.7406 162.596 33.1428 161.698 30.3961C161.643 30.2292 161.444 30.1445 161.291 30.2366C160.824 30.5169 160.347 30.6707 159.859 30.6955C161.81 29.3445 163.41 27.532 164.78 25.4153C163.94 27.2912 163.082 28.654 162.194 29.5261C162.079 29.6391 162.031 29.802 162.075 29.955Z" fill="#E4E7E9" stroke="#E4E7E9" stroke-width="0.5"></path><path d="M149.56 27.0154C154.22 26.0181 158.167 24.2412 161.289 21.7356C162.095 21.089 162.825 20.107 163.294 19.038C163.496 18.5739 163.727 18.0481 163.704 17.5853C163.662 16.7106 163.304 15.8371 162.957 14.9932L162.934 14.935C162.588 14.0946 162.172 13.3215 161.696 12.638C160.597 11.0619 159.297 10.0394 157.718 9.51318C157.052 9.29069 156.259 9.1738 155.293 9.15685C154.724 9.14686 154.154 9.17206 153.672 9.1977C151.843 9.2946 150.074 9.64571 148.421 10.2397C146.92 10.8181 146.044 12.0053 145.741 13.8843C145.132 16.5333 144.968 19.4677 145.25 22.5982C145.621 25.5279 146.941 26.9719 149.287 27.0132C149.391 27.0149 149.495 27.0136 149.56 27.0154ZM157.88 9.06125C159.539 9.6153 160.961 10.7282 162.105 12.3707C162.601 13.083 163.035 13.8864 163.392 14.7586L163.416 14.8164C163.761 15.6568 164.152 16.6084 164.198 17.5631C164.225 18.1341 163.961 18.739 163.747 19.2266C163.25 20.3612 162.469 21.4097 161.605 22.1033C158.421 24.658 154.404 26.4678 149.621 27.4877C146.8 27.5894 145.178 25.9555 144.759 22.6477C144.471 19.4608 144.639 16.4776 145.256 13.7952C145.585 11.7502 146.561 10.4422 148.244 9.79346C149.949 9.18075 151.766 8.81964 153.645 8.72013C154.136 8.69406 154.717 8.66886 155.302 8.67929C156.32 8.6971 157.163 8.82182 157.88 9.06125Z" fill="#E4E7E9" stroke="#E4E7E9" stroke-width="0.5"></path><path d="M149.122 11.6081C153.839 12.7909 157.95 15.0627 161.232 18.8945C158.962 15.064 154.887 12.6123 149.122 11.6081Z" fill="#E4E7E9" stroke="#E4E7E9" stroke-width="0.5"></path><path d="M145.28 6.32235C141.873 4.26608 137.754 3.14495 133.006 2.97983C134.662 2.5266 136.186 2.30714 137.561 2.33148C140.769 2.38797 143.299 3.69552 145.28 6.32235ZM131.049 3.60123C131.055 3.59906 131.061 3.59688 131.068 3.5947C131.372 3.4852 131.697 3.43219 132.021 3.43392C137.314 3.46608 141.841 4.67585 145.486 7.01718C145.724 7.17014 145.884 7.41175 145.94 7.68204C146.15 8.69844 145.954 9.94559 145.345 11.3961C142.855 14.6565 140.002 17.415 136.864 19.5951C136.726 19.6772 136.57 19.762 136.411 19.8398C135.709 20.1822 134.995 20.349 134.289 20.3369C133.245 20.3186 132.263 19.9001 131.45 19.1271C131.159 18.8507 130.909 18.4718 130.687 17.9695C130.469 17.4776 130.312 16.9465 130.169 16.4451C129.895 15.4791 129.728 14.4666 129.566 13.4876L129.545 13.3607C129.193 11.2388 128.949 8.96916 128.796 6.42142C128.972 4.88357 129.709 3.94843 131.049 3.60123ZM146.058 6.56917C143.948 3.49432 141.096 1.91562 137.57 1.85348C135.579 1.81871 133.396 2.24153 130.898 3.14669C129.382 3.53821 128.502 4.63848 128.304 6.40926C128.456 9.01262 128.703 11.2983 129.057 13.4359L129.078 13.5627C129.242 14.5548 129.411 15.5808 129.693 16.572C129.84 17.0891 130.003 17.6375 130.233 18.1576C130.481 18.7182 130.766 19.1471 131.103 19.4682C132.616 20.9061 134.705 21.2068 136.633 20.2665C136.805 20.1826 136.974 20.0905 137.138 19.9918C140.34 17.7687 143.236 14.9672 145.761 11.6551L145.791 11.6038C146.655 9.56145 146.745 7.86759 146.058 6.56917Z" fill="#E4E7E9" stroke="#E4E7E9" stroke-width="0.5"></path><path d="M144.236 9.44434C140.398 7.69442 136.349 6.39817 132.057 5.6299C132.075 5.63033 132.092 5.63033 132.11 5.63077C136.797 5.71289 140.877 6.99611 144.236 9.44434Z" fill="#E4E7E9" stroke="#E4E7E9" stroke-width="0.5"></path><path d="M127.393 4.91356C127.585 5.83393 127.446 6.95592 127.323 7.79068C127.303 7.92974 127.264 8.06575 127.208 8.19525C125.387 12.4451 123.713 15.2992 121.947 17.1656C120.933 18.2445 119.945 18.7825 119.01 18.766C117.887 18.7464 116.767 17.9243 115.682 16.323C114.188 14.1164 113.117 11.3844 112.5 8.20263C112.397 7.67466 112.307 7.13148 112.232 6.58743C112.144 5.94778 112.123 5.5002 112.265 4.96745C112.352 4.64241 112.468 4.35952 112.619 4.11009C112.845 3.73812 113.235 3.48174 113.67 3.38309C117.811 2.44448 122.015 2.53703 126.189 3.65772C126.8 3.82198 127.267 4.31128 127.393 4.91356ZM125.886 3.08673C123.866 2.57875 121.838 2.30281 119.815 2.26717C118.055 2.23632 116.298 2.38581 114.55 2.71302C116.394 1.94822 117.983 1.55452 119.513 1.4876C121.475 1.40243 123.291 1.84524 125.612 2.94942C125.699 2.9907 125.793 3.03763 125.886 3.08673ZM127.931 6.94028C128.048 5.80742 128.088 4.41905 127.264 3.50346C126.845 3.0372 126.278 2.73301 125.83 2.52052C123.688 1.50151 121.933 1.03307 120.142 1.00135C119.927 0.997873 119.711 1.00048 119.491 1.01004C117.786 1.08435 116.025 1.53931 113.949 2.44273C112.744 2.96636 112.098 3.68554 111.787 4.84838C111.608 5.51671 111.664 6.08205 111.742 6.65087C111.819 7.20275 111.91 7.75505 112.014 8.29128C112.643 11.5352 113.739 14.3258 115.269 16.5846C117.436 19.7828 119.866 20.0883 122.313 17.488C122.413 17.3811 122.512 17.2733 122.609 17.1643C123.315 16.3708 123.933 15.5069 124.496 14.6148C125.194 13.5102 125.811 12.3586 126.382 11.1893C126.734 10.4705 127.035 9.72528 127.399 9.01393C127.551 8.71626 127.66 8.40513 127.741 8.08661C127.836 7.71117 127.892 7.32572 127.931 6.94028Z" fill="#E4E7E9" stroke="#E4E7E9" stroke-width="0.5"></path><path d="M114.133 6.20896C116.176 5.41243 118.113 5.03047 119.934 5.06263C121.761 5.09479 123.471 5.54411 125.048 6.41016C121.515 5.44242 117.872 5.41721 114.133 6.20896Z" fill="#E4E7E9" stroke="#E4E7E9" stroke-width="0.5"></path><path d="M16.6681 138.085C17.6023 138.085 18.5222 137.964 19.4016 137.727H19.4021C20.975 137.302 22.45 136.503 23.7853 135.35C25.0914 134.224 25.7732 133.242 26.1415 131.963C26.3356 131.287 26.4591 130.579 26.5786 129.894C26.7012 129.193 26.8274 128.468 27.0309 127.764C27.3075 126.807 27.7082 125.904 28.0949 125.031C28.2045 124.784 28.3141 124.537 28.4214 124.287C28.6559 123.743 28.6429 123.12 28.6303 122.517L28.6271 122.35C28.6141 121.623 28.5485 120.963 28.4268 120.332C28.302 119.687 28.1169 119.079 27.8784 118.528L27.8187 118.388C27.6722 118.045 27.5213 117.69 27.2986 117.434C27.0434 117.142 26.7385 116.874 26.3666 116.616C25.8617 116.266 25.2913 115.975 24.7398 115.694C24.5574 115.601 24.3759 115.508 24.1976 115.414C22.7648 114.658 21.3173 113.993 19.8957 113.439C17.5992 112.544 9.75617 109.988 5.25526 114.68C3.73713 116.263 3.52919 118.272 3.30865 120.399L3.2871 120.603C3.07465 122.642 2.63314 124.517 1.97469 126.176C1.2008 128.124 1.36519 130.295 2.45078 132.454C3.32572 134.193 4.91346 135.651 6.80751 136.454C7.27777 136.653 7.76465 136.836 8.25692 136.998C11.1396 137.951 14.121 138.082 16.6578 138.085C16.6614 138.085 16.6645 138.085 16.6681 138.085ZM12.4767 111.461C15.7339 111.461 18.7751 112.487 20.0798 112.996C21.5198 113.557 22.9849 114.229 24.4343 114.995C24.6108 115.088 24.7896 115.179 24.9702 115.271C25.5366 115.56 26.1218 115.858 26.6545 116.228C27.0542 116.506 27.3978 116.808 27.6758 117.126C27.9489 117.439 28.1218 117.846 28.275 118.206L28.3338 118.343C28.5867 118.925 28.7807 119.565 28.9124 120.245C29.039 120.902 29.1077 121.588 29.1212 122.341L29.1243 122.508C29.1378 123.16 29.1517 123.833 28.8778 124.471C28.7695 124.722 28.659 124.972 28.549 125.219C28.151 126.118 27.7747 126.966 27.5065 127.893C27.3107 128.572 27.1858 129.285 27.0659 129.974C26.9437 130.671 26.8184 131.391 26.6172 132.09C26.2219 133.466 25.497 134.514 24.1145 135.707C22.7222 136.909 21.1812 137.743 19.5341 138.187C18.6116 138.436 17.6473 138.562 16.6681 138.562C16.6641 138.562 16.6609 138.562 16.6569 138.562C14.0801 138.56 11.0479 138.426 8.09702 137.451C7.59218 137.283 7.09183 137.096 6.60989 136.892C4.60939 136.044 2.93182 134.503 2.00702 132.663C0.859899 130.382 0.689223 128.079 1.51341 126.004C2.15659 124.385 2.58776 122.552 2.79572 120.556L2.81684 120.351C3.03557 118.239 3.26239 116.056 4.89325 114.355C7.01278 112.145 9.81726 111.461 12.4767 111.461Z" fill="#E4E7E9" stroke="#E4E7E9" stroke-width="0.5"></path><path d="M6.91097 123.508C6.64597 123.448 6.38457 123.392 6.11328 123.324C6.16179 123.365 6.43891 123.437 6.91097 123.508Z" fill="#E4E7E9" stroke="#E4E7E9" stroke-width="0.5"></path><path d="M6.90869 123.506C10.0208 124.207 12.6987 124.32 15.0392 123.833C15.398 123.759 15.7331 124.008 15.7524 124.362C15.7879 125.009 15.5804 125.59 15.1259 126.119C13.349 128.089 12.6596 130.698 13.0104 134.077C13.0212 134.182 12.9497 134.276 12.8424 134.296C12.1224 134.432 11.3764 134.745 10.6061 135.238C12.6717 134.626 14.2698 134.429 15.4232 134.627C14.8573 134.352 14.268 134.215 13.6558 134.215C13.6113 134.215 13.5664 134.219 13.5219 134.22C13.1563 131.026 13.7402 128.554 15.3024 126.677C15.3356 126.637 15.3922 126.628 15.4362 126.599C18.3817 125.684 22.3962 125.986 25.0219 127.647C23.4059 126.332 21.3722 125.671 18.949 125.671C18.0938 125.671 17.1879 125.757 16.2366 125.923C16.0695 125.952 15.9348 125.794 16.0021 125.643C16.2555 125.081 16.3152 124.47 16.1778 123.816C16.1194 123.54 16.2016 123.249 16.4091 123.052C17.8791 121.656 18.4774 119.827 18.3278 117.267C18.3202 117.14 18.4293 117.038 18.5605 117.052C19.3806 117.137 20.2655 117.069 21.2199 116.83C19.0788 116.973 17.059 116.453 15.1339 115.409C15.867 116.153 16.7131 116.651 17.6658 116.903C17.7529 116.926 17.8172 117 17.8234 117.086C18.0278 119.862 17.342 121.731 15.6091 123.105L15.473 123.213L15.4829 123.239C11.4689 123.918 8.31812 123.718 6.90869 123.506Z" fill="#E4E7E9" stroke="#E4E7E9" stroke-width="0.5"></path><path d="M38.5131 97.0548C39.0772 95.4913 39.2304 94.2194 38.9824 93.173C38.6901 91.9406 37.9283 90.7639 36.8378 89.8587C35.3026 88.5859 33.338 87.865 31.4386 87.1671L30.7267 86.9051C30.3058 86.7482 29.8854 86.587 29.465 86.4262C27.8184 85.7944 26.1157 85.1422 24.3708 84.7667C22.6519 84.3969 20.1317 84.1618 17.8824 85.1448C15.4727 86.1972 14.1971 88.5777 12.9637 90.8803C12.7302 91.3162 12.4971 91.7512 12.2568 92.1779C11.8817 92.8432 11.4443 93.4959 11.0203 94.1268C10.1983 95.3522 9.34855 96.6194 8.94791 98.0082C8.47361 99.6547 8.10755 102.103 9.0584 104.42C10.1377 107.051 12.6925 109.131 16.8686 110.777C21.0565 112.428 24.5104 112.794 27.4286 111.898C29.5575 111.245 31.5576 109.842 33.2122 107.84C34.1635 106.689 34.8103 105.13 35.4364 103.623C35.6421 103.126 35.8438 102.64 36.0509 102.183C36.3446 101.536 36.6734 100.948 36.9905 100.38C37.5878 99.3123 38.152 98.3037 38.4125 97.0352L38.5131 97.0548ZM21.5155 83.9689C22.4574 83.9684 23.4504 84.0788 24.4776 84.3C26.2608 84.6837 27.9824 85.3438 29.6469 85.9817C30.066 86.1416 30.4846 86.3024 30.9045 86.4588L31.6133 86.7204C33.5527 87.4326 35.5581 88.1688 37.1589 89.4959C38.3294 90.4671 39.1482 91.7346 39.4639 93.0661C39.7469 94.2593 39.5578 95.6981 38.8859 97.4633L38.8257 97.4415C38.5293 98.6326 37.9916 99.5942 37.4252 100.608C37.1122 101.167 36.7884 101.746 36.5032 102.376C36.2983 102.827 36.0985 103.309 35.8946 103.801C35.2559 105.34 34.5947 106.932 33.5981 108.139C31.8819 110.214 29.8001 111.672 27.5781 112.354C24.5459 113.287 20.981 112.915 16.6822 111.22C12.3754 109.521 9.73078 107.355 8.59937 104.596C7.59777 102.156 7.9773 99.5964 8.47226 97.8795C8.89311 96.4199 9.76356 95.1219 10.6062 93.867C11.0243 93.2434 11.4573 92.5985 11.8229 91.9489C12.0614 91.5252 12.2932 91.0928 12.5254 90.6604C13.7974 88.2857 15.1134 85.83 17.6789 84.7089C18.8058 84.217 20.1029 83.9689 21.5155 83.9689Z" fill="#E4E7E9" stroke="#E4E7E9" stroke-width="0.5"></path><path d="M21.7013 108.924C22.5349 108.924 23.3295 109.196 24.076 109.738C22.7995 109.267 21.4201 109.157 19.9712 109.291C20.5641 109.046 21.1412 108.924 21.7013 108.924Z" fill="#E4E7E9" stroke="#E4E7E9" stroke-width="0.5"></path><path d="M31.959 89.4659C30.7252 89.4816 29.5363 89.2895 28.4386 88.8897C27.3633 88.4977 26.3415 87.8981 25.4023 87.1068C26.3294 87.9068 30.5801 89.4368 31.959 89.4659Z" fill="#E4E7E9" stroke="#E4E7E9" stroke-width="0.5"></path><path d="M29.0043 88.7241C29.2751 91.4343 28.2272 93.9216 25.8894 96.1191L25.5449 95.7767C27.77 93.6857 28.7685 91.3283 28.5124 88.7701L29.0043 88.7241Z" fill="#E4E7E9" stroke="#E4E7E9" stroke-width="0.5"></path><path d="M14.5757 93.0196C18.8484 93.0844 22.6397 94.0499 25.8439 95.8911L25.5919 96.3018C21.7409 93.8487 17.1363 93.3004 14.5757 93.0196Z" fill="#E4E7E9" stroke="#E4E7E9" stroke-width="0.5"></path><path d="M25.7545 95.7941C26.4525 96.6046 26.62 97.5588 26.2558 98.6343C28.8519 98.2923 31.5476 98.8742 34.6944 100.455C32.9207 99.7077 28.6425 98.2545 25.9171 99.1696L25.4648 99.2475L25.6467 98.8394C26.126 97.7657 26.037 96.8692 25.375 96.1001L25.7545 95.7941Z" fill="#E4E7E9" stroke="#E4E7E9" stroke-width="0.5"></path><path d="M25.6411 98.858L26.1082 99.0131C25.2633 101.403 23.8696 103.233 21.9666 104.452L21.8831 104.505L21.7847 104.488C18.0015 103.516 13.7476 104.122 13.2217 104.169C15.9916 103.544 18.8697 103.487 21.7757 104C23.5445 102.841 24.8447 101.112 25.6411 98.858Z" fill="#E4E7E9" stroke="#E4E7E9" stroke-width="0.5"></path><path d="M22.077 104.293C22.766 105.584 22.9048 107.192 22.5014 109.208L22.0164 109.118C22.3981 107.211 22.2737 105.705 21.6382 104.513L22.077 104.293Z" fill="#E4E7E9" stroke="#E4E7E9" stroke-width="0.5"></path><path d="M20.5686 64.7128C21.5635 63.0167 22.6095 61.5554 23.7665 60.2443C25.5209 58.2567 27.0853 56.7232 29.0189 55.7003C30.1256 55.1145 31.2116 54.8121 32.246 54.8021L32.2963 54.8016C33.2395 54.8016 34.1984 55.068 35.1259 55.3257C35.4381 55.4126 35.7485 55.4982 36.0566 55.5743C37.4615 55.9206 38.857 56.3543 40.2058 56.8636C42.7794 57.8352 45.0476 59.151 47.4492 60.5433L47.7816 60.7362C50.8084 62.4892 51.3959 66.4457 50.2047 69.106C49.7349 70.1559 49.2862 71.3417 48.8115 72.5963C47.3783 76.3846 45.7541 80.6784 42.7601 83.3326C42.7363 83.3539 42.7094 83.3708 42.6833 83.3886L42.6281 83.4269C40.6842 84.817 37.7067 85.3458 35.5508 85.5453C35.024 85.594 34.485 85.6187 33.9478 85.6187C31.7955 85.6187 29.6396 85.2368 27.5394 84.4833C26.2562 84.0227 25.0259 83.4308 23.8833 82.7242C22.884 82.1063 21.6407 81.3372 20.9508 80.3142C20.8188 80.1187 20.6822 79.9171 20.5682 79.7085C19.9843 78.6399 19.9344 77.4923 19.8823 76.2769C19.8657 75.898 19.8495 75.5173 19.8163 75.1384C19.7318 74.1737 19.6443 73.2094 19.5427 72.2465C19.4987 71.8263 19.421 71.4095 19.3465 71.0063C19.2503 70.4905 19.1515 69.9573 19.1264 69.4315C19.0437 67.6972 19.6434 66.291 20.5686 64.7128ZM18.6332 69.4536C18.6593 70.0103 18.7612 70.5596 18.86 71.091C18.9333 71.4851 19.0092 71.8932 19.0514 72.2951C19.1524 73.2551 19.2396 74.2167 19.324 75.1788C19.3563 75.5512 19.3725 75.9245 19.3887 76.2969C19.4408 77.5119 19.4951 78.7681 20.1311 79.9314C20.256 80.16 20.3988 80.3712 20.5372 80.5758C21.2854 81.6848 22.5781 82.4844 23.617 83.1262C24.7897 83.8519 26.0518 84.4589 27.3678 84.9313C30.0609 85.8977 32.8847 86.2714 35.598 86.0211C37.8159 85.816 40.8863 85.2663 42.9223 83.811L42.9667 83.7802C43.0103 83.7506 43.0543 83.7202 43.0938 83.685C46.1768 80.9522 47.8234 76.6002 49.2759 72.7605C49.748 71.5125 50.194 70.3332 50.6584 69.2963C51.9322 66.4505 51.2917 62.2124 48.0354 60.3265L47.703 60.1335C45.283 58.7308 42.9973 57.405 40.385 56.4182C39.0183 55.9019 37.603 55.4626 36.1787 55.1115C35.8751 55.0367 35.5701 54.952 35.262 54.8664C34.3022 54.5996 33.3087 54.3236 32.2963 54.3236L32.2411 54.3241C31.1245 54.3354 29.9607 54.6574 28.7817 55.2814C26.6649 56.4012 24.9397 58.1794 23.391 59.9345C22.2134 61.2681 21.1498 62.7543 20.1392 64.4768C19.1718 66.1272 18.5452 67.6047 18.6332 69.4536Z" fill="#E4E7E9" stroke="#E4E7E9" stroke-width="0.5"></path><path d="M27.2113 63.6318C27.0505 63.5545 26.8897 63.4771 26.7293 63.3985C26.5897 63.3594 26.7841 63.4571 27.2113 63.6318Z" fill="#E4E7E9" stroke="#E4E7E9" stroke-width="0.5"></path><path d="M32.4923 75.5726C33.2994 77.1848 33.4916 78.9147 33.0658 80.7276C33.0277 80.8893 32.8606 80.9883 32.6917 80.9579C32.1249 80.8549 31.5109 80.8006 30.843 80.8006C30.3907 80.8006 29.9146 80.8237 29.4147 80.8701C31.8931 81.1144 34.1128 81.641 35.9579 82.5762C35.3614 81.9678 34.6253 81.5228 33.749 81.2291C33.5922 81.1765 33.502 81.0214 33.5392 80.8649C34.001 78.9351 33.7993 77.0909 32.9396 75.3714C34.8557 74.4228 36.4115 72.9258 37.6337 70.8782L37.6364 70.8791L37.6404 70.8682C37.6454 70.8595 37.6507 70.8517 37.6557 70.8434C41.8763 70.4015 44.9629 71.8803 46.5601 72.682C44.6876 71.1315 41.963 70.3476 38.4516 70.3476C38.2409 70.3476 38.0226 70.355 37.8057 70.3607C38.3177 68.7068 38.2171 67.2098 37.5034 65.8996C37.6494 65.8453 37.7949 65.7897 37.9342 65.721C39.5264 64.9345 40.5289 63.2685 41.0045 60.6525C42.1705 60.9141 43.3693 60.9345 44.6152 60.7112C41.9163 60.6442 39.3593 59.879 36.9002 58.6319C38.0833 59.5487 39.2865 60.1788 40.5257 60.5308C40.2172 63.1124 39.1873 64.4639 37.7096 65.2952C35.3664 66.6131 29.077 64.3931 27.2152 63.6317C30.781 65.3512 34.3616 66.7313 37.0228 66.0474C37.7563 67.341 37.8358 68.845 37.2407 70.528L37.1899 70.6661C34.7371 76.3457 26.4746 76.3483 23.5938 76.3252C27.1276 76.7137 30.0772 76.3848 32.4923 75.5726Z" fill="#E4E7E9" stroke="#E4E7E9" stroke-width="0.5"></path><path d="M55.802 43.8324C50.8565 38.4375 44.7476 36.5998 37.6466 38.3693C36.1518 38.7413 34.5519 40.0141 33.9334 40.5438C33.1959 41.1756 32.6273 41.9091 32.2429 42.7243C31.3432 44.6337 31.3841 46.9581 32.3551 49.1017C33.3235 51.2397 35.0707 53.0648 37.029 53.9843C39.7706 55.2718 42.7269 56.5116 45.7649 56.8588C48.3911 57.1586 50.8443 56.628 52.8601 55.3222C55.1364 53.847 56.8921 51.1497 57.2285 48.6107C57.4724 46.7686 56.9797 45.1169 55.802 43.8324ZM42.7143 37.2365C47.8305 37.2365 52.3409 39.3366 56.1712 43.5152C57.4464 44.9062 57.9813 46.6891 57.7185 48.6711C57.3651 51.3392 55.5231 54.1716 53.135 55.719C51.0199 57.0895 48.4508 57.6492 45.707 57.3329C42.5962 56.9779 39.5941 55.7203 36.8129 54.4145C34.7527 53.4463 32.917 51.5321 31.9028 49.2938C30.8752 47.0259 30.8357 44.559 31.7933 42.5266C32.2069 41.6493 32.8164 40.8619 33.606 40.1862C34.2515 39.633 35.925 38.3041 37.523 37.9061C39.3156 37.4594 41.0475 37.2365 42.7143 37.2365Z" fill="#E4E7E9" stroke="#E4E7E9" stroke-width="0.5"></path><path d="M48.1288 50.8079C47.3531 51.8526 46.1296 52.507 44.4979 52.7586C43.3099 51.883 41.1674 51.1712 38.4321 50.4529C41.7931 51.6644 44.5536 52.9354 45.5305 54.3838C45.5237 53.9375 45.3248 53.5338 44.965 53.1605C46.5379 52.8459 47.7385 52.1524 48.5299 51.0869C48.5896 51.0065 48.6363 50.9152 48.6916 50.8309C49.4201 51.8108 50.5991 52.3953 52.035 52.7547C50.8205 52.255 49.8315 51.5675 49.1196 50.6484C49.0114 50.5085 49.0024 50.3234 49.076 50.1643C49.7861 48.6382 49.9061 46.5767 49.4592 43.926C50.5784 44.2584 51.7121 44.431 52.8704 44.431C52.9221 44.431 52.9742 44.4305 53.0263 44.4301C50.0327 43.8443 47.208 42.7666 44.5127 41.3118C45.9778 42.4355 47.4438 43.2403 48.9323 43.7548C49.5054 46.94 49.2373 49.3152 48.1288 50.8079Z" fill="#E4E7E9" stroke="#E4E7E9" stroke-width="0.5"></path><path d="M57.0658 39.3394L57.215 39.3389C60.2274 39.3177 62.1983 38.6385 63.4173 37.2023C64.7499 35.6318 64.5702 33.5143 64.2648 31.8443C62.9811 24.8243 59.705 21.4113 54.2479 21.4113C52.6561 21.4113 50.8555 21.7147 48.8976 22.3122C47.6162 22.7032 46.3622 23.4902 45.5353 24.0816C44.1461 25.075 43.2411 26.2756 42.8454 27.6501C42.151 30.0666 43.268 32.4301 44.452 34.4238C45.3732 35.9743 47.0696 37.161 49.6369 38.0523C52.0978 38.9061 54.5973 39.3394 57.0658 39.3394ZM54.2479 20.9333C59.904 20.9333 63.4375 24.5761 64.7512 31.7613C65.0751 33.5317 65.2601 35.7848 63.799 37.5056C62.0658 39.5475 59.2132 39.803 57.219 39.8169L57.0658 39.8174C54.5398 39.8174 51.9846 39.375 49.4703 38.502C46.788 37.5708 45.0062 36.3149 44.0235 34.6615C42.7883 32.5826 41.6264 30.1088 42.3697 27.5223C42.7951 26.0423 43.7616 24.7556 45.242 23.6971C46.0985 23.0839 47.4024 22.2674 48.749 21.8563C50.7553 21.244 52.6054 20.9333 54.2479 20.9333Z" fill="#E4E7E9" stroke="#E4E7E9" stroke-width="0.5"></path><path d="M59.7779 30.307C58.8725 33.2019 57.0795 34.7398 54.3114 34.9936C54.1303 35.0101 53.9525 34.944 53.8101 34.8345C52.6634 33.952 50.49 33.3553 48.4697 32.8851C48.4697 32.8851 52.8184 34.4869 53.7589 35.4277C54.1941 35.8631 54.5278 37.0303 54.5278 37.0303C54.7183 36.5736 54.7264 36.1421 54.5575 35.7405C54.4973 35.5976 54.5966 35.4437 54.7547 35.4216C57.3885 35.0514 59.1976 33.4853 60.1467 30.7546C60.2042 30.589 60.4049 30.5073 60.5568 30.602C61.0185 30.8906 61.4919 31.0527 61.9797 31.0861C60.0546 29.7008 58.4884 27.8605 57.158 25.7208C57.9634 27.6106 58.7948 28.9881 59.667 29.8759C59.7802 29.9911 59.8255 30.1549 59.7779 30.307Z" fill="#E4E7E9" stroke="#E4E7E9" stroke-width="0.5"></path><path d="M72.6182 27.5901C74.9637 27.5901 76.3111 26.1692 76.7365 23.2464C77.0778 20.1216 76.9682 17.185 76.4099 14.5255C76.1414 12.6418 75.288 11.4394 73.7982 10.8345C72.1565 10.2118 70.3945 9.82941 68.5669 9.70079C68.0859 9.66646 67.5168 9.63169 66.9473 9.63169C65.9821 9.63169 65.1866 9.73424 64.5161 9.94543C62.9283 10.4439 61.6083 11.4429 60.4809 12.9994C59.9918 13.6751 59.561 14.4404 59.1999 15.2747L59.1752 15.3325C58.8128 16.1703 58.4382 17.0368 58.3798 17.9111C58.3488 18.373 58.5693 18.9032 58.7634 19.3707C59.2116 20.4475 59.9231 21.4426 60.7163 22.1031C63.7916 24.6631 67.7046 26.5086 72.3456 27.5875C72.4103 27.5867 72.5145 27.5901 72.6182 27.5901ZM66.9473 9.15369C67.5325 9.15369 68.1128 9.18889 68.6033 9.22366C70.4798 9.35619 72.2904 9.74902 73.9836 10.3913C75.654 11.0696 76.6049 12.3945 76.8964 14.4452C77.4623 17.1376 77.5746 20.1234 77.2269 23.3047C76.7468 26.6046 75.0935 28.2098 72.2746 28.0586C67.5123 26.9553 63.5297 25.075 60.3942 22.4651C59.5431 21.7568 58.7818 20.6943 58.3061 19.5511C58.1022 19.0596 57.8493 18.4508 57.8871 17.8802C57.9504 16.9264 58.3591 15.9817 58.7193 15.1474L58.7445 15.09C59.1186 14.2244 59.5669 13.4283 60.0767 12.7252C61.2512 11.1031 62.6939 10.0154 64.3633 9.49046C65.0842 9.26363 65.9295 9.15369 66.9473 9.15369Z" fill="#E4E7E9" stroke="#E4E7E9" stroke-width="0.5"></path><path d="M73.0718 12.1886C68.3338 13.2885 64.1805 15.4877 60.8271 19.2617C63.169 15.4716 67.289 13.0916 73.0718 12.1886Z" fill="#E4E7E9" stroke="#E4E7E9" stroke-width="0.5"></path><path d="M84.8039 3.11687C86.1792 3.11687 87.6991 3.36282 89.3457 3.84474C84.5955 3.92686 80.4571 4.97586 77.0121 6.97172C79.0409 4.38009 81.5947 3.11687 84.8039 3.11687ZM93.4909 7.35977C93.2906 9.90447 93.0031 12.1693 92.6124 14.2847L92.589 14.4111C92.4089 15.3871 92.223 16.3966 91.9301 17.3578C91.7783 17.8567 91.6112 18.3846 91.3839 18.8731C91.1522 19.3715 90.8957 19.7456 90.5997 20.0168C89.7724 20.7759 88.7829 21.1766 87.7382 21.1766C87.0321 21.1766 86.3216 20.9971 85.6258 20.6421C85.4682 20.5621 85.3146 20.4744 85.1781 20.3896C82.0812 18.1552 79.2798 15.3471 76.8513 12.0433C76.2692 10.5828 76.0972 9.33217 76.3262 8.31968C76.3873 8.05027 76.5517 7.81171 76.7925 7.66309C80.4809 5.38607 85.0303 4.25582 90.3221 4.31666C90.6464 4.32013 90.9707 4.37922 91.2725 4.49351C91.2788 4.49612 91.2851 4.4983 91.2914 4.5009C92.6249 4.87157 93.3445 5.8193 93.4909 7.35977ZM76.4017 12.2436L76.4309 12.2953C78.8931 15.6509 81.7367 18.5028 84.8964 20.782C85.0586 20.8833 85.2257 20.9784 85.3959 21.0653C87.3061 22.0392 89.4 21.7749 90.9397 20.364C91.2829 20.0489 91.5757 19.6253 91.8349 19.069C92.0743 18.5532 92.2476 18.0074 92.404 17.4934C92.7044 16.507 92.8931 15.4845 93.0754 14.4954L93.0988 14.369C93.4922 12.2375 93.7819 9.95662 93.9832 7.3563C93.8183 5.58248 92.9587 4.467 91.4509 4.04897C88.9702 3.10036 86.7959 2.63887 84.8039 2.63887C81.2768 2.63887 78.3968 4.16761 76.2292 7.20508C75.5178 8.4909 75.5762 10.1865 76.4017 12.2436Z" fill="#E4E7E9" stroke="#E4E7E9" stroke-width="0.5"></path><path d="M77.9985 10.1143C81.8688 8.4317 85.9408 7.20672 90.2473 6.51362C90.2288 6.51362 90.2118 6.51362 90.1933 6.51362C85.5051 6.51362 81.4017 7.72469 77.9985 10.1143Z" fill="#E4E7E9" stroke="#E4E7E9" stroke-width="0.5"></path><path d="M96.1507 4.64101C100.344 3.59376 104.55 3.57507 108.672 4.58626C109.105 4.69229 109.49 4.95562 109.709 5.3315C109.856 5.58354 109.966 5.86817 110.047 6.19495C110.179 6.72987 110.15 7.17701 110.05 7.81492C109.965 8.35811 109.865 8.89955 109.752 9.42535C109.075 12.5958 107.953 15.3087 106.418 17.4883C105.303 19.0705 104.168 19.8731 103.045 19.8731C102.11 19.8731 101.132 19.3178 100.138 18.2214C98.4081 16.3242 96.7876 13.441 95.0467 9.16029C94.9932 9.02949 94.9564 8.89304 94.9389 8.75355C94.8311 7.91705 94.7138 6.79244 94.9231 5.87555C95.0601 5.27588 95.5358 4.79484 96.1507 4.64101ZM96.7399 3.94313C99.0813 2.8798 100.906 2.46916 102.865 2.58866C104.394 2.68208 105.976 3.10402 107.805 3.90098C106.064 3.54292 104.31 3.36301 102.549 3.36301C100.526 3.36301 98.4934 3.60288 96.4637 4.07567C96.5585 4.02787 96.6523 3.98267 96.7399 3.94313ZM94.5153 9.04209C94.5903 9.36192 94.6936 9.67522 94.84 9.97506C95.1904 10.6934 95.4783 11.4434 95.816 12.1682C96.3658 13.3476 96.9605 14.5095 97.6374 15.6259C98.184 16.528 98.7858 17.4023 99.4762 18.2084C99.5714 18.3192 99.6688 18.4287 99.7672 18.5373C102.164 21.1798 104.6 20.9173 106.826 17.7573C108.398 15.5259 109.546 12.7548 110.236 9.52269C110.35 8.9882 110.452 8.43763 110.539 7.88707C110.628 7.31998 110.694 6.75551 110.528 6.08414C110.239 4.91608 109.605 4.18561 108.411 3.64112C106.352 2.70164 104.6 2.21581 102.896 2.11151C102.677 2.09804 102.461 2.09153 102.246 2.09153C100.454 2.09153 98.691 2.52912 96.5302 3.51032C96.0788 3.71543 95.5061 4.00918 95.0781 4.46806C94.2373 5.36931 94.2512 6.75811 94.3464 7.89271C94.3792 8.27859 94.4273 8.66534 94.5153 9.04209Z" fill="#E4E7E9" stroke="#E4E7E9" stroke-width="0.5"></path><path d="M108.16 7.40505C106.132 6.57289 104.202 6.15703 102.381 6.15703C100.553 6.15703 98.8353 6.5768 97.2417 7.41504C100.793 6.50901 104.436 6.54769 108.16 7.40505Z" fill="#E4E7E9" stroke="#E4E7E9" stroke-width="0.5"></path></svg> 