<?xml version="1.0" encoding="UTF-8"?> <svg xmlns="http://www.w3.org/2000/svg" width="25" height="25" viewBox="0 0 25 25" fill="none"> <circle cx="12.5" cy="12.5" r="12.5" fill="url(#paint0_linear_285_859)"></circle> <path d="M7.46658 7H18.5312C18.7888 7 18.9977 7.20889 18.9977 7.46658V9.64242C18.9977 9.93225 18.872 10.2067 18.653 10.3966L12.4656 15.5727H18.5312C18.7888 15.5727 18.9977 15.7778 18.9977 16.0355V18.5334C18.9977 18.7911 18.7888 19 18.5312 19H7.46658C7.20889 19 7 18.7911 7 18.5334V16.3611C7 16.0713 7.12577 15.7969 7.34471 15.607L13.5321 10.4308H7.46658C7.20889 10.4308 7 10.2172 7 9.9595V7.46658C7 7.20889 7.20889 7 7.46658 7Z" fill="white"></path> <defs> <linearGradient id="paint0_linear_285_859" x1="21.5" y1="22" x2="3" y2="4.5" gradientUnits="userSpaceOnUse"> <stop stop-color="#6339F5"></stop> <stop offset="1" stop-color="#3D3F55"></stop> </linearGradient> </defs> </svg> 