<?xml version="1.0" encoding="UTF-8"?> <svg xmlns="http://www.w3.org/2000/svg" width="100" height="25" viewBox="0 0 100 25" fill="none"> <path d="M0.878112 0.800936H21.7019C22.1869 0.800936 22.58 1.19408 22.58 1.67905V5.77403C22.58 6.3195 22.3433 6.83595 21.9313 7.19335L10.2865 16.935H21.7019C22.1869 16.935 22.58 17.321 22.58 17.806V22.5071C22.58 22.9921 22.1869 23.3852 21.7019 23.3852H0.878112C0.393144 23.3852 0 22.9921 0 22.5071V18.4188C0 17.8734 0.236695 17.3569 0.648754 16.9995L12.2936 7.25787H0.878112C0.393144 7.25787 0 6.85576 0 6.37079V1.67905C0 1.19408 0.393144 0.800936 0.878112 0.800936ZM37.0958 0C39.5035 0 41.6502 0.541453 43.4423 1.53092C45.2343 2.52039 46.6718 3.95788 47.6613 5.74994C48.6507 7.54201 49.1922 9.68865 49.1922 12.0964C49.1922 14.5042 48.6507 16.6509 47.6613 18.4429C46.6718 20.235 45.2343 21.6725 43.4423 22.662C41.6502 23.6514 39.5035 24.1929 37.0958 24.1929C34.688 24.1929 32.5413 23.6514 30.7493 22.662C28.9572 21.6725 27.5197 20.235 26.5302 18.4429C25.5408 16.6509 24.9993 14.5042 24.9993 12.0964C24.9993 9.68865 25.5408 7.54201 26.5302 5.74994C27.5197 3.95788 28.9572 2.52039 30.7493 1.53092C32.5413 0.541453 34.688 0 37.0958 0ZM37.0958 6.45144C35.944 6.45144 34.9328 6.69474 34.0965 7.14711C33.2602 7.59948 32.5988 8.26093 32.1464 9.09722C31.694 9.93352 31.4508 10.9447 31.4508 12.0964C31.4508 13.2482 31.694 14.2594 32.1464 15.0957C32.5988 15.932 33.2602 16.5934 34.0965 17.0458C34.9328 17.4982 35.944 17.7414 37.0958 17.7414C38.2475 17.7414 39.2587 17.4982 40.095 17.0458C40.9313 16.5934 41.5927 15.932 42.0451 15.0957C42.4975 14.2594 42.7408 13.2482 42.7408 12.0964C42.7408 10.9447 42.4975 9.93352 42.0451 9.09722C41.5927 8.26093 40.9313 7.59948 40.095 7.14711C39.2587 6.69474 38.2475 6.45144 37.0958 6.45144ZM62.9015 0C65.3093 0 67.4559 0.541453 69.248 1.53092C71.0401 2.52039 72.4775 3.95788 73.467 5.74994C74.4565 7.54201 74.9979 9.68865 74.9979 12.0964C74.9979 14.5042 74.4565 16.6509 73.467 18.4429C72.4775 20.235 71.0401 21.6725 69.248 22.662C67.4559 23.6514 65.3093 24.1929 62.9015 24.1929C60.4937 24.1929 58.3471 23.6514 56.555 22.662C54.7629 21.6725 53.3255 20.235 52.336 18.4429C51.3465 16.6509 50.8051 14.5042 50.8051 12.0964C50.8051 9.68865 51.3465 7.54201 52.336 5.74994C53.3255 3.95788 54.7629 2.52039 56.555 1.53092C58.3471 0.541453 60.4937 0 62.9015 0ZM62.9015 6.45144C61.7497 6.45144 60.7386 6.69474 59.9023 7.14711C59.066 7.59948 58.4045 8.26093 57.9522 9.09722C57.4998 9.93352 57.2565 10.9447 57.2565 12.0964C57.2565 13.2482 57.4998 14.2594 57.9522 15.0957C58.4045 15.932 59.066 16.5934 59.9023 17.0458C60.7386 17.4982 61.7497 17.7414 62.9015 17.7414C64.0533 17.7414 65.0644 17.4982 65.9007 17.0458C66.737 16.5934 67.3985 15.932 67.8508 15.0957C68.3032 14.2594 68.5465 13.2482 68.5465 12.0964C68.5465 10.9447 68.3032 9.93352 67.8508 9.09722C67.3985 8.26093 66.737 7.59948 65.9007 7.14711C65.0644 6.69474 64.0533 6.45144 62.9015 6.45144ZM100 1.68184V22.5068C100 22.9918 99.6068 23.3849 99.1218 23.3849H95.0296C94.4842 23.3849 93.9678 23.1483 93.6103 22.7363L83.8687 11.0928V22.5068C83.8687 22.9918 83.4666 23.3849 82.9816 23.3849H78.2926C77.8076 23.3849 77.4145 22.9918 77.4145 22.5068V1.68184C77.4145 1.19685 77.8076 0.803683 78.2926 0.803683H82.3848C82.9304 0.803683 83.4467 1.04044 83.8042 1.45259L93.5458 13.1001V1.68184C93.5458 1.19685 93.9318 0.803683 94.4168 0.803683H99.1218C99.6068 0.803683 100 1.19685 100 1.68184Z" fill="url(#paint0_linear_503_4269)"></path> <defs> <linearGradient id="paint0_linear_503_4269" x1="77.3431" y1="12.0964" x2="21.8113" y2="12.0964" gradientUnits="userSpaceOnUse"> <stop stop-color="#6339F5"></stop> <stop offset="1" stop-color="#3D3F55"></stop> </linearGradient> </defs> </svg> 