<?xml version="1.0" encoding="UTF-8"?> <svg xmlns="http://www.w3.org/2000/svg" width="79" height="75" viewBox="0 0 79 75" fill="none"> <path d="M14.9649 75C16.0589 71.618 17.0945 68.4 18.1382 65.186C20.0998 59.145 22.0527 53.1015 24.0464 47.0709C24.2783 46.3728 24.0872 46.0481 23.5354 45.6514C16.0101 40.235 8.50165 34.7938 0.989178 29.359C0.744466 29.1814 0.501355 29.0031 0.273438 28.6152H2.3175C11.1647 28.6152 20.0135 28.6024 28.8615 28.6352C29.7435 28.6376 30.1186 28.3809 30.3937 27.5228C33.2543 18.5941 36.1636 9.68129 39.0618 0.765322C39.1273 0.563796 39.2145 0.369466 39.3592 0C39.512 0.388659 39.6256 0.643767 39.7127 0.907671C42.6525 9.77805 45.6034 18.6444 48.5063 27.5276C48.7846 28.3793 49.1677 28.6368 50.049 28.6344C59.2632 28.612 68.4791 28.6352 77.6941 28.6456H78.8281C78.4075 28.9791 78.166 29.1846 77.9109 29.3701C70.4312 34.7986 62.9611 40.2382 55.4558 45.6315C54.7017 46.1745 54.5545 46.6047 54.8464 47.4884C57.7614 56.3028 60.6211 65.134 63.4961 73.962C63.5785 74.2131 63.6488 74.4682 63.7928 74.9328C63.3273 74.6097 63.0339 74.4122 62.7484 74.2051C55.3271 68.8022 47.8985 63.4066 40.4948 57.979C39.7975 57.468 39.3369 57.4264 38.6075 57.9574C30.9879 63.5026 23.3363 69.0062 15.6926 74.5218C15.5047 74.6577 15.3056 74.7769 14.9649 75Z" fill="#0B75D6" fill-opacity="0.05"></path> </svg> 