<?xml version="1.0" encoding="UTF-8"?> <svg xmlns="http://www.w3.org/2000/svg" width="25" height="16" viewBox="0 0 25 16" fill="none"><path d="M23 0H2C0.89543 0 0 0.895431 0 2V13.9091C0 15.0137 0.89543 15.9091 2 15.9091H23C24.1046 15.9091 25 15.0137 25 13.9091V2C25 0.895431 24.1046 0 23 0Z" fill="#F2F3F7"></path><path d="M18.6645 12.0309L17.7148 13.3906L18.2332 13.7205L19.1828 12.3608L18.6645 12.0309Z" fill="black"></path><path d="M17.891 11.5348L16.9414 12.8945L17.4597 13.2244L18.4093 11.8647L17.891 11.5348Z" fill="black"></path><path d="M17.0002 10.9991L16.0586 12.3555L16.5756 12.6825L17.5172 11.3262L17.0002 10.9991Z" fill="black"></path><path d="M19.7973 10.4216L18.8477 11.7812L19.366 12.1111L20.3156 10.7514L19.7973 10.4216Z" fill="black"></path><path d="M19.016 9.92547L18.0664 11.2852L18.5847 11.615L19.5343 10.2553L19.016 9.92547Z" fill="black"></path><path d="M18.2426 9.43328L17.293 10.793L17.8113 11.1228L18.7609 9.76312L18.2426 9.43328Z" fill="black"></path><path d="M6.84644 9.43188L6.32812 9.76172L8.39951 12.7276L8.91783 12.3977L6.84644 9.43188Z" fill="black"></path><path d="M7.19019 11.5374L6.67188 11.8672L7.62149 13.2269L8.13981 12.897L7.19019 11.5374Z" fill="black"></path><path d="M6.06519 9.92798L5.54688 10.2578L6.49649 11.6175L7.01481 11.2877L6.06519 9.92798Z" fill="black"></path><path d="M5.20844 10.423L4.69141 10.75L6.74525 13.7085L7.26228 13.3815L5.20844 10.423Z" fill="black"></path><path d="M19.2827 3.86241L18.7656 4.18945L19.7072 5.54579L20.2242 5.21874L19.2827 3.86241Z" fill="black"></path><path d="M18.2332 2.18384L17.7148 2.51367L18.6645 3.87336L19.1828 3.54352L18.2332 2.18384Z" fill="black"></path><path d="M17.4597 2.67993L16.9414 3.00977L19.0128 5.97562L19.5311 5.64579L17.4597 2.67993Z" fill="black"></path><path d="M17.8113 4.77759L17.293 5.10742L18.2426 6.46711L18.7609 6.13727L17.8113 4.77759Z" fill="black"></path><path d="M16.6225 3.2296L16.1055 3.55664L17.047 4.91297L17.5641 4.58593L16.6225 3.2296Z" fill="black"></path><path d="M8.39951 3.16891L6.32812 6.13477L6.84644 6.4646L8.91783 3.49874L8.39951 3.16891Z" fill="black"></path><path d="M7.61826 2.67477L5.54688 5.64062L6.06519 5.97046L8.13658 3.0046L7.61826 2.67477Z" fill="black"></path><path d="M6.84873 2.18453L4.77734 5.15039L5.29566 5.48023L7.36705 2.51437L6.84873 2.18453Z" fill="black"></path><path d="M9.42855 5.9707C8.87883 6.75752 8.67907 7.72055 8.87322 8.64796C9.06736 9.57536 9.63951 10.3912 10.4638 10.9159C11.2881 11.4406 12.297 11.6313 13.2685 11.446C14.2401 11.2607 15.0948 10.7145 15.6445 9.92771C15.9195 9.5343 16.0195 9.05273 15.9225 8.58893C15.8256 8.12513 15.5396 7.71709 15.1274 7.45458C14.7153 7.19207 14.2108 7.0966 13.7249 7.18916C13.239 7.28172 12.8115 7.55473 12.5365 7.94814C12.259 8.33519 11.8328 8.60225 11.3504 8.69145C10.868 8.78064 10.3682 8.68478 9.95939 8.42464C9.55052 8.1645 9.26553 7.76105 9.16616 7.3017C9.0668 6.84236 9.16107 6.36415 9.42855 5.9707V5.9707Z" fill="#003478"></path><path d="M9.42989 5.97237C9.16241 6.36582 9.06814 6.84403 9.1675 7.30337C9.26686 7.76271 9.55186 8.16617 9.96072 8.42631C10.3696 8.68645 10.8694 8.78231 11.3518 8.69312C11.8342 8.60392 12.2603 8.33686 12.5378 7.94981C12.8154 7.56275 13.2415 7.29569 13.7239 7.2065C14.2063 7.1173 14.7061 7.21316 15.115 7.4733C15.5238 7.73344 15.8088 8.1369 15.9082 8.59624C16.0076 9.05558 15.9133 9.5338 15.6458 9.92724C16.1955 9.14043 16.3953 8.17739 16.2011 7.24999C16.007 6.32258 15.4348 5.50678 14.6106 4.98205C13.7863 4.45732 12.7774 4.26664 11.8058 4.45196C10.8343 4.63728 9.97961 5.18342 9.42989 5.97023V5.97237Z" fill="#C60C30"></path></svg> 