<?xml version="1.0" encoding="UTF-8"?> <svg xmlns="http://www.w3.org/2000/svg" width="48" height="21" viewBox="0 0 48 21" fill="none"> <rect width="48" height="21" fill="white" fill-opacity="0.5"></rect> <path d="M13.2923 5.27273V14H12.2354V6.21023H7.83771V14H6.78089V5.27273H13.2923ZM17.9467 14.1364C17.3558 14.1364 16.8374 13.9957 16.3913 13.7145C15.9482 13.4332 15.6016 13.0398 15.3516 12.5341C15.1044 12.0284 14.9808 11.4375 14.9808 10.7614C14.9808 10.0795 15.1044 9.48437 15.3516 8.97585C15.6016 8.46733 15.9482 8.07244 16.3913 7.79119C16.8374 7.50994 17.3558 7.36932 17.9467 7.36932C18.5376 7.36932 19.0547 7.50994 19.4979 7.79119C19.9439 8.07244 20.2905 8.46733 20.5376 8.97585C20.7876 9.48437 20.9126 10.0795 20.9126 10.7614C20.9126 11.4375 20.7876 12.0284 20.5376 12.5341C20.2905 13.0398 19.9439 13.4332 19.4979 13.7145C19.0547 13.9957 18.5376 14.1364 17.9467 14.1364ZM17.9467 13.233C18.3956 13.233 18.7649 13.1179 19.0547 12.8878C19.3445 12.6577 19.5589 12.3551 19.6982 11.9801C19.8374 11.6051 19.907 11.1989 19.907 10.7614C19.907 10.3239 19.8374 9.91619 19.6982 9.53835C19.5589 9.16051 19.3445 8.85511 19.0547 8.62216C18.7649 8.3892 18.3956 8.27273 17.9467 8.27273C17.4979 8.27273 17.1286 8.3892 16.8388 8.62216C16.549 8.85511 16.3345 9.16051 16.1953 9.53835C16.0561 9.91619 15.9865 10.3239 15.9865 10.7614C15.9865 11.1989 16.0561 11.6051 16.1953 11.9801C16.3345 12.3551 16.549 12.6577 16.8388 12.8878C17.1286 13.1179 17.4979 13.233 17.9467 13.233ZM25.1069 14.1364C24.4933 14.1364 23.9648 13.9915 23.5217 13.7017C23.0785 13.4119 22.7376 13.0128 22.4989 12.5043C22.2603 11.9957 22.141 11.4148 22.141 10.7614C22.141 10.0966 22.2631 9.50994 22.5075 9.00142C22.7546 8.49006 23.0984 8.09091 23.5387 7.80398C23.9819 7.5142 24.4989 7.36932 25.0898 7.36932C25.5501 7.36932 25.9648 7.45455 26.3342 7.625C26.7035 7.79545 27.006 8.03409 27.2418 8.34091C27.4776 8.64773 27.6239 9.00568 27.6808 9.41477H26.6751C26.5984 9.11648 26.4279 8.85227 26.1637 8.62216C25.9023 8.3892 25.5501 8.27273 25.1069 8.27273C24.7148 8.27273 24.3711 8.375 24.0756 8.57955C23.783 8.78125 23.5543 9.06676 23.3896 9.43608C23.2276 9.80256 23.1467 10.233 23.1467 10.7273C23.1467 11.233 23.2262 11.6733 23.3853 12.0483C23.5472 12.4233 23.7745 12.7145 24.0671 12.9219C24.3626 13.1293 24.7092 13.233 25.1069 13.233C25.3683 13.233 25.6055 13.1875 25.8185 13.0966C26.0316 13.0057 26.212 12.875 26.3597 12.7045C26.5075 12.5341 26.6126 12.3295 26.6751 12.0909H27.6808C27.6239 12.4773 27.4833 12.8253 27.2589 13.1349C27.0373 13.4418 26.7433 13.6861 26.3768 13.8679C26.0131 14.0469 25.5898 14.1364 25.1069 14.1364ZM28.5714 14V13.0625H28.81C29.006 13.0625 29.1694 13.0241 29.3001 12.9474C29.4308 12.8679 29.5359 12.7301 29.6154 12.5341C29.6978 12.3352 29.7603 12.0597 29.8029 11.7074C29.8484 11.3523 29.881 10.9006 29.9009 10.3523L30.0202 7.45455H34.3839V14H33.3782V8.39205H30.9748L30.8725 10.7273C30.8498 11.2642 30.8015 11.7372 30.7276 12.1463C30.6566 12.5526 30.5472 12.8935 30.3995 13.169C30.2546 13.4446 30.0614 13.652 29.82 13.7912C29.5785 13.9304 29.2759 14 28.9123 14H28.5714ZM38.9734 14.1364C38.3427 14.1364 37.7987 13.9972 37.3413 13.7188C36.8867 13.4375 36.5359 13.0455 36.2887 12.5426C36.0444 12.0369 35.9222 11.4489 35.9222 10.7784C35.9222 10.108 36.0444 9.51705 36.2887 9.00568C36.5359 8.49148 36.8796 8.09091 37.32 7.80398C37.7631 7.5142 38.2802 7.36932 38.8711 7.36932C39.212 7.36932 39.5487 7.42614 39.881 7.53977C40.2134 7.65341 40.516 7.83807 40.7887 8.09375C41.0614 8.34659 41.2788 8.68182 41.4407 9.09943C41.6026 9.51705 41.6836 10.0312 41.6836 10.642V11.0682H36.6381V10.1989H40.6609C40.6609 9.82955 40.587 9.5 40.4393 9.21023C40.2944 8.92045 40.087 8.69176 39.8171 8.52415C39.5501 8.35653 39.2347 8.27273 38.8711 8.27273C38.4705 8.27273 38.1239 8.37216 37.8313 8.57102C37.5415 8.76705 37.3185 9.02273 37.1623 9.33807C37.006 9.65341 36.9279 9.99148 36.9279 10.3523V10.9318C36.9279 11.4261 37.0131 11.8452 37.1836 12.1889C37.3569 12.5298 37.5969 12.7898 37.9038 12.9688C38.2106 13.1449 38.5671 13.233 38.9734 13.233C39.2376 13.233 39.4762 13.196 39.6893 13.1222C39.9052 13.0455 40.0913 12.9318 40.2475 12.7812C40.4038 12.6278 40.5245 12.4375 40.6097 12.2102L41.5813 12.483C41.479 12.8125 41.3072 13.1023 41.0657 13.3523C40.8242 13.5994 40.5259 13.7926 40.1708 13.9318C39.8157 14.0682 39.4165 14.1364 38.9734 14.1364Z" fill="white"></path> </svg> 