<?xml version="1.0" encoding="UTF-8"?> <svg xmlns="http://www.w3.org/2000/svg" width="23" height="15" viewBox="0 0 23 15" fill="none"> <path d="M0 2C0 0.895431 0.895431 0 2 0H20.5C21.6046 0 22.5 0.895431 22.5 2V13C22.5 14.1046 21.6046 15 20.5 15H2C0.89543 15 0 14.1046 0 13V2Z" fill="#F4F4F4"></path> <path d="M0 1.96497H22.5V3.92994H0V1.96497Z" fill="#DD0000"></path> <path d="M0 11.1321H22.5V13.5397H0V11.1321Z" fill="#0000CC"></path> <path d="M0 1.52234H22.5V3.92995H0V1.52234Z" fill="#0000CC"></path> <path d="M12.7894 7.71925L13.6613 6.18451H11.9256L11.2506 4.97656L10.5756 6.18037H8.83984L9.70368 7.71925L8.83984 9.25814H10.5635L11.2506 10.4619L11.9256 9.25814H13.6613L12.7894 7.71925ZM12.8296 6.71815L12.5403 7.27248L12.2309 6.71815H12.8296ZM12.3032 7.71925L11.7769 8.74104H10.7242L10.1979 7.73994L10.7242 6.73883H11.7769L12.3032 7.71925ZM11.2506 5.70877L11.4997 6.18037H11.0015L11.2506 5.70877ZM9.67154 6.71401H10.2742L9.96484 7.26834L9.67154 6.71401ZM9.67154 8.72036L9.96083 8.16603L10.2742 8.74104L9.67154 8.72036ZM11.2506 9.72973L11.0015 9.25814H11.4956L11.2506 9.72973ZM12.5363 8.16603L12.8296 8.74104H12.2269L12.5363 8.16603Z" fill="#0000CC"></path> </svg> 