<?xml version="1.0" encoding="UTF-8"?> <svg xmlns="http://www.w3.org/2000/svg" width="25" height="17" viewBox="0 0 25 17" fill="none"> <mask id="mask0_761_2285" style="mask-type:alpha" maskUnits="userSpaceOnUse" x="0" y="0" width="25" height="17"> <path d="M23 0H2C0.89543 0 0 0.89543 0 2V14.6667C0 15.7712 0.89543 16.6667 2 16.6667H23C24.1046 16.6667 25 15.7712 25 14.6667V2C25 0.895431 24.1046 0 23 0Z" fill="#F4F4F4"></path> </mask> <g mask="url(#mask0_761_2285)"> <path d="M24.5689 16.6667H0.431054C0.193017 16.6667 0 16.4703 0 16.228V0.438616C0 0.196403 0.193017 0 0.431054 0H24.5689C24.807 0 25 0.196403 25 0.438616V16.228C25 16.4703 24.8069 16.6667 24.5689 16.6667Z" fill="#F5F5F5"></path> <path d="M25 1.28211H0V0.438616C0 0.196403 0.193017 0 0.431054 0H24.5689C24.807 0 25 0.196403 25 0.438616L25 1.28211Z" fill="#FF4B55"></path> <path d="M25 5.12817H0V6.41024H25V5.12817Z" fill="#FF4B55"></path> <path d="M25 2.56396H0V3.84603H25V2.56396Z" fill="#FF4B55"></path> <path d="M25 8.9745H0.431054C0.193017 8.9745 0 8.77809 0 8.53588V7.69238H25V8.9745Z" fill="#FF4B55"></path> <path d="M25 12.8209H0V14.103H25V12.8209Z" fill="#FF4B55"></path> <path d="M24.5689 16.6667H0.431054C0.193017 16.6667 0 16.4703 0 16.2281V15.3846H25V16.2281C25 16.4704 24.8069 16.6667 24.5689 16.6667Z" fill="#FF4B55"></path> <path d="M25 10.2566H0V11.5387H25V10.2566Z" fill="#FF4B55"></path> <path d="M11.2069 0H0.431054C0.193017 0 0 0.196354 0 0.438566V8.53567C0 8.77789 0.193017 8.97429 0.431054 8.97429H11.2069C11.4449 8.97429 11.638 8.77789 11.638 8.53567V0.438566C11.6379 0.196354 11.4449 0 11.2069 0Z" fill="#41479B"></path> <path d="M1.20978 1.00679L1.30519 1.29794L1.6068 1.30028C1.64587 1.30063 1.66203 1.35131 1.63063 1.37491L1.388 1.55725L1.47902 1.84984C1.49084 1.8877 1.4484 1.9191 1.41662 1.89595L1.17126 1.71753L0.925896 1.896C0.894109 1.9191 0.851775 1.88775 0.863494 1.84989L0.954509 1.5573L0.711883 1.37496C0.680486 1.35131 0.696648 1.30068 0.735711 1.30033L1.03732 1.29799L1.13273 1.00684C1.14504 0.969082 1.19738 0.969082 1.20978 1.00679Z" fill="#F5F5F5"></path> <path d="M1.20978 2.5297L1.30519 2.82086L1.6068 2.82319C1.64587 2.82354 1.66203 2.87422 1.63063 2.89782L1.388 3.08016L1.47902 3.37275C1.49084 3.41061 1.4484 3.44201 1.41662 3.41886L1.17126 3.24044L0.925896 3.41891C0.894109 3.44201 0.851775 3.41066 0.863494 3.3728L0.954509 3.08021L0.711883 2.89787C0.680486 2.87422 0.696648 2.82359 0.735711 2.82324L1.03732 2.82091L1.13273 2.52975C1.14504 2.49204 1.19738 2.49204 1.20978 2.5297Z" fill="#F5F5F5"></path> <path d="M1.20978 4.05265L1.30519 4.34381L1.6068 4.34614C1.64587 4.34649 1.66203 4.39717 1.63063 4.42077L1.388 4.60311L1.47902 4.8957C1.49084 4.93356 1.4484 4.96496 1.41662 4.94181L1.17126 4.76339L0.925896 4.94186C0.894109 4.96496 0.851775 4.93361 0.863494 4.89575L0.954509 4.60316L0.711883 4.42082C0.680486 4.39717 0.696648 4.34654 0.735711 4.34619L1.03732 4.34386L1.13273 4.0527C1.14504 4.01499 1.19738 4.01499 1.20978 4.05265Z" fill="#F5F5F5"></path> <path d="M1.20978 5.57576L1.30519 5.86691L1.6068 5.86925C1.64587 5.8696 1.66203 5.92028 1.63063 5.94388L1.388 6.12622L1.47902 6.41881C1.49084 6.45667 1.4484 6.48807 1.41662 6.46492L1.17126 6.2865L0.925896 6.46497C0.894109 6.48807 0.851775 6.45672 0.863494 6.41886L0.954509 6.12627L0.711883 5.94392C0.680486 5.92028 0.696648 5.86965 0.735711 5.8693L1.03732 5.86696L1.13273 5.57581C1.14504 5.53805 1.19738 5.53805 1.20978 5.57576Z" fill="#F5F5F5"></path> <path d="M1.20978 7.09887L1.30519 7.39002L1.6068 7.39236C1.64587 7.39271 1.66203 7.44338 1.63063 7.46698L1.388 7.64933L1.47902 7.94192C1.49084 7.97978 1.4484 8.01118 1.41662 7.98803L1.17126 7.80961L0.925896 7.98808C0.894109 8.01118 0.851775 7.97983 0.863494 7.94197L0.954509 7.64938L0.711883 7.46703C0.680486 7.44338 0.696648 7.39276 0.735711 7.39241L1.03732 7.39007L1.13273 7.09892C1.14504 7.06111 1.19738 7.06111 1.20978 7.09887Z" fill="#F5F5F5"></path> <path d="M2.37384 1.75347L2.46925 2.04462L2.77087 2.04695C2.80993 2.0473 2.82609 2.09798 2.79469 2.12158L2.55207 2.30392L2.64308 2.59651C2.6549 2.63437 2.61247 2.66577 2.58068 2.64262L2.33532 2.46415L2.08996 2.64262C2.05817 2.66573 2.01584 2.63437 2.02756 2.59651L2.11857 2.30392L1.87595 2.12158C1.84455 2.09793 1.86071 2.0473 1.89977 2.04695L2.20138 2.04462L2.29679 1.75347C2.30905 1.7158 2.36149 1.7158 2.37384 1.75347Z" fill="#F5F5F5"></path> <path d="M2.37384 3.27645L2.46925 3.5676L2.77087 3.56994C2.80993 3.57029 2.82609 3.62097 2.79469 3.64457L2.55207 3.82691L2.64308 4.1195C2.6549 4.15736 2.61247 4.18876 2.58068 4.16561L2.33532 3.98714L2.08996 4.16561C2.05817 4.18871 2.01584 4.15741 2.02756 4.1195L2.11857 3.82691L1.87595 3.64457C1.84455 3.62092 1.86071 3.57029 1.89977 3.56994L2.20138 3.5676L2.29679 3.27645C2.30905 3.23874 2.36149 3.23874 2.37384 3.27645Z" fill="#F5F5F5"></path> <path d="M2.37384 4.79952L2.46925 5.09067L2.77087 5.09301C2.80993 5.09336 2.82609 5.14404 2.79469 5.16764L2.55207 5.34998L2.64308 5.64257C2.6549 5.68043 2.61247 5.71183 2.58068 5.68868L2.33532 5.51021L2.08996 5.68868C2.05817 5.71178 2.01584 5.68043 2.02756 5.64257L2.11857 5.34998L1.87595 5.16764C1.84455 5.14399 1.86071 5.09336 1.89977 5.09301L2.20138 5.09067L2.29679 4.79952C2.30905 4.76181 2.36149 4.76181 2.37384 4.79952Z" fill="#F5F5F5"></path> <path d="M2.37384 6.32256L2.46925 6.61371L2.77087 6.61604C2.80993 6.61639 2.82609 6.66707 2.79469 6.69067L2.55207 6.87301L2.64308 7.16561C2.6549 7.20347 2.61247 7.23487 2.58068 7.21171L2.33532 7.03325L2.08996 7.21171C2.05817 7.23482 2.01584 7.20347 2.02756 7.16561L2.11857 6.87301L1.87595 6.69067C1.84455 6.66702 1.86071 6.61639 1.89977 6.61604L2.20138 6.61371L2.29679 6.32256C2.30905 6.2849 2.36149 6.2849 2.37384 6.32256Z" fill="#F5F5F5"></path> <path d="M3.53791 1.00668L3.63332 1.29783L3.93493 1.30016C3.97399 1.30051 3.99015 1.35119 3.95876 1.37479L3.71613 1.55713L3.80714 1.84973C3.81896 1.88759 3.77653 1.91899 3.74474 1.89583L3.49938 1.71737L3.25402 1.89583C3.22223 1.91894 3.1799 1.88759 3.19162 1.84973L3.28263 1.55713L3.04001 1.37479C3.00861 1.35114 3.02477 1.30051 3.06384 1.30016L3.36545 1.29783L3.46086 1.00668C3.47316 0.968966 3.52555 0.968966 3.53791 1.00668Z" fill="#F5F5F5"></path> <path d="M3.53791 2.52971L3.63332 2.82086L3.93493 2.8232C3.97399 2.82355 3.99015 2.87422 3.95876 2.89782L3.71613 3.08017L3.80714 3.37276C3.81896 3.41062 3.77653 3.44202 3.74474 3.41887L3.49938 3.2404L3.25402 3.41887C3.22223 3.44197 3.1799 3.41062 3.19162 3.37276L3.28263 3.08017L3.04001 2.89782C3.00861 2.87417 3.02477 2.82355 3.06384 2.8232L3.36545 2.82086L3.46086 2.52971C3.47316 2.49205 3.52555 2.49205 3.53791 2.52971Z" fill="#F5F5F5"></path> <path d="M3.53791 4.05266L3.63332 4.34381L3.93493 4.34615C3.97399 4.3465 3.99015 4.39717 3.95876 4.42077L3.71613 4.60312L3.80714 4.89571C3.81896 4.93357 3.77653 4.96497 3.74474 4.94182L3.49938 4.76335L3.25402 4.94182C3.22223 4.96492 3.1799 4.93357 3.19162 4.89571L3.28263 4.60312L3.04001 4.42077C3.00861 4.39712 3.02477 4.3465 3.06384 4.34615L3.36545 4.34381L3.46086 4.05266C3.47316 4.015 3.52555 4.015 3.53791 4.05266Z" fill="#F5F5F5"></path> <path d="M3.53791 5.57577L3.63332 5.86692L3.93493 5.86926C3.97399 5.8696 3.99015 5.92028 3.95876 5.94388L3.71613 6.12622L3.80714 6.41882C3.81896 6.45668 3.77653 6.48808 3.74474 6.46492L3.49938 6.28646L3.25402 6.46492C3.22223 6.48803 3.1799 6.45668 3.19162 6.41882L3.28263 6.12622L3.04001 5.94388C3.00861 5.92023 3.02477 5.8696 3.06384 5.86926L3.36545 5.86692L3.46086 5.57577C3.47316 5.53806 3.52555 5.53806 3.53791 5.57577Z" fill="#F5F5F5"></path> <path d="M3.53791 7.09888L3.63332 7.39003L3.93493 7.39236C3.97399 7.39271 3.99015 7.44339 3.95876 7.46699L3.71613 7.64933L3.80714 7.94193C3.81896 7.97979 3.77653 8.01119 3.74474 7.98803L3.49938 7.80957L3.25402 7.98803C3.22223 8.01114 3.1799 7.97979 3.19162 7.94193L3.28263 7.64933L3.04001 7.46699C3.00861 7.44334 3.02477 7.39271 3.06384 7.39236L3.36545 7.39003L3.46086 7.09888C3.47316 7.06112 3.52555 7.06112 3.53791 7.09888Z" fill="#F5F5F5"></path> <path d="M4.70197 1.75347L4.79738 2.04462L5.09899 2.04695C5.13805 2.0473 5.15422 2.09798 5.12282 2.12158L4.88019 2.30392L4.97121 2.59651C4.98302 2.63437 4.94059 2.66577 4.90881 2.64262L4.66344 2.46415L4.41808 2.64262C4.3863 2.66573 4.34396 2.63437 4.35568 2.59651L4.4467 2.30392L4.20407 2.12158C4.17267 2.09793 4.18884 2.0473 4.2279 2.04695L4.52951 2.04462L4.62492 1.75347C4.63718 1.7158 4.68962 1.7158 4.70197 1.75347Z" fill="#F5F5F5"></path> <path d="M4.70197 3.27645L4.79738 3.5676L5.09899 3.56994C5.13805 3.57029 5.15422 3.62097 5.12282 3.64457L4.88019 3.82691L4.97121 4.1195C4.98302 4.15736 4.94059 4.18876 4.90881 4.16561L4.66344 3.98714L4.41808 4.16561C4.3863 4.18871 4.34396 4.15741 4.35568 4.1195L4.4467 3.82691L4.20407 3.64457C4.17267 3.62092 4.18884 3.57029 4.2279 3.56994L4.52951 3.5676L4.62492 3.27645C4.63718 3.23874 4.68962 3.23874 4.70197 3.27645Z" fill="#F5F5F5"></path> <path d="M4.70197 4.79952L4.79738 5.09067L5.09899 5.09301C5.13805 5.09336 5.15422 5.14404 5.12282 5.16764L4.88019 5.34998L4.97121 5.64257C4.98302 5.68043 4.94059 5.71183 4.90881 5.68868L4.66344 5.51021L4.41808 5.68868C4.3863 5.71178 4.34396 5.68043 4.35568 5.64257L4.4467 5.34998L4.20407 5.16764C4.17267 5.14399 4.18884 5.09336 4.2279 5.09301L4.52951 5.09067L4.62492 4.79952C4.63718 4.76181 4.68962 4.76181 4.70197 4.79952Z" fill="#F5F5F5"></path> <path d="M4.70197 6.32256L4.79738 6.61371L5.09899 6.61604C5.13805 6.61639 5.15422 6.66707 5.12282 6.69067L4.88019 6.87301L4.97121 7.16561C4.98302 7.20347 4.94059 7.23487 4.90881 7.21171L4.66344 7.03325L4.41808 7.21171C4.3863 7.23482 4.34396 7.20347 4.35568 7.16561L4.4467 6.87301L4.20407 6.69067C4.17267 6.66702 4.18884 6.61639 4.2279 6.61604L4.52951 6.61371L4.62492 6.32256C4.63718 6.2849 4.68962 6.2849 4.70197 6.32256Z" fill="#F5F5F5"></path> <path d="M5.85046 1.00668L5.94587 1.29783L6.24748 1.30016C6.28654 1.30051 6.3027 1.35119 6.2713 1.37479L6.02868 1.55713L6.11969 1.84973C6.13151 1.88759 6.08908 1.91899 6.05729 1.89583L5.81188 1.71737L5.56652 1.89583C5.53473 1.91894 5.4924 1.88759 5.50412 1.84973L5.59513 1.55713L5.35251 1.37479C5.32111 1.35114 5.33727 1.30051 5.37634 1.30016L5.67795 1.29783L5.77336 1.00668C5.78571 0.968966 5.8381 0.968966 5.85046 1.00668Z" fill="#F5F5F5"></path> <path d="M5.85046 2.52971L5.94587 2.82086L6.24748 2.8232C6.28654 2.82355 6.3027 2.87422 6.2713 2.89782L6.02868 3.08017L6.11969 3.37276C6.13151 3.41062 6.08908 3.44202 6.05729 3.41887L5.81188 3.2404L5.56652 3.41887C5.53473 3.44197 5.4924 3.41062 5.50412 3.37276L5.59513 3.08017L5.35251 2.89782C5.32111 2.87417 5.33727 2.82355 5.37634 2.8232L5.67795 2.82086L5.77336 2.52971C5.78571 2.49205 5.8381 2.49205 5.85046 2.52971Z" fill="#F5F5F5"></path> <path d="M5.85046 4.05266L5.94587 4.34381L6.24748 4.34615C6.28654 4.3465 6.3027 4.39717 6.2713 4.42077L6.02868 4.60312L6.11969 4.89571C6.13151 4.93357 6.08908 4.96497 6.05729 4.94182L5.81188 4.76335L5.56652 4.94182C5.53473 4.96492 5.4924 4.93357 5.50412 4.89571L5.59513 4.60312L5.35251 4.42077C5.32111 4.39712 5.33727 4.3465 5.37634 4.34615L5.67795 4.34381L5.77336 4.05266C5.78571 4.015 5.8381 4.015 5.85046 4.05266Z" fill="#F5F5F5"></path> <path d="M5.85046 5.57577L5.94587 5.86692L6.24748 5.86926C6.28654 5.8696 6.3027 5.92028 6.2713 5.94388L6.02868 6.12622L6.11969 6.41882C6.13151 6.45668 6.08908 6.48808 6.05729 6.46492L5.81188 6.28646L5.56652 6.46492C5.53473 6.48803 5.4924 6.45668 5.50412 6.41882L5.59513 6.12622L5.35251 5.94388C5.32111 5.92023 5.33727 5.8696 5.37634 5.86926L5.67795 5.86692L5.77336 5.57577C5.78571 5.53806 5.8381 5.53806 5.85046 5.57577Z" fill="#F5F5F5"></path> <path d="M5.85046 7.09888L5.94587 7.39003L6.24748 7.39236C6.28654 7.39271 6.3027 7.44339 6.2713 7.46699L6.02868 7.64933L6.11969 7.94193C6.13151 7.97979 6.08908 8.01119 6.05729 7.98803L5.81188 7.80957L5.56652 7.98803C5.53473 8.01114 5.4924 7.97979 5.50412 7.94193L5.59513 7.64933L5.35251 7.46699C5.32111 7.44334 5.33727 7.39271 5.37634 7.39236L5.67795 7.39003L5.77336 7.09888C5.78571 7.06112 5.8381 7.06112 5.85046 7.09888Z" fill="#F5F5F5"></path> <path d="M7.01447 1.75347L7.10988 2.04462L7.41149 2.04695C7.45055 2.0473 7.46671 2.09798 7.43532 2.12158L7.19269 2.30392L7.28371 2.59651C7.29552 2.63437 7.25309 2.66577 7.22131 2.64262L6.97594 2.46415L6.73058 2.64262C6.6988 2.66573 6.65646 2.63437 6.66818 2.59651L6.7592 2.30392L6.51657 2.12158C6.48517 2.09793 6.50134 2.0473 6.5404 2.04695L6.84201 2.04462L6.93742 1.75347C6.94977 1.7158 7.00212 1.7158 7.01447 1.75347Z" fill="#F5F5F5"></path> <path d="M7.01447 3.27645L7.10988 3.5676L7.41149 3.56994C7.45055 3.57029 7.46671 3.62097 7.43532 3.64457L7.19269 3.82691L7.28371 4.1195C7.29552 4.15736 7.25309 4.18876 7.22131 4.16561L6.97594 3.98714L6.73058 4.16561C6.6988 4.18871 6.65646 4.15741 6.66818 4.1195L6.7592 3.82691L6.51657 3.64457C6.48517 3.62092 6.50134 3.57029 6.5404 3.56994L6.84201 3.5676L6.93742 3.27645C6.94977 3.23874 7.00212 3.23874 7.01447 3.27645Z" fill="#F5F5F5"></path> <path d="M7.01447 4.79952L7.10988 5.09067L7.41149 5.09301C7.45055 5.09336 7.46671 5.14404 7.43532 5.16764L7.19269 5.34998L7.28371 5.64257C7.29552 5.68043 7.25309 5.71183 7.22131 5.68868L6.97594 5.51021L6.73058 5.68868C6.6988 5.71178 6.65646 5.68043 6.66818 5.64257L6.7592 5.34998L6.51657 5.16764C6.48517 5.14399 6.50134 5.09336 6.5404 5.09301L6.84201 5.09067L6.93742 4.79952C6.94977 4.76181 7.00212 4.76181 7.01447 4.79952Z" fill="#F5F5F5"></path> <path d="M7.01447 6.32256L7.10988 6.61371L7.41149 6.61604C7.45055 6.61639 7.46671 6.66707 7.43532 6.69067L7.19269 6.87301L7.28371 7.16561C7.29552 7.20347 7.25309 7.23487 7.22131 7.21171L6.97594 7.03325L6.73058 7.21171C6.6988 7.23482 6.65646 7.20347 6.66818 7.16561L6.7592 6.87301L6.51657 6.69067C6.48517 6.66702 6.50134 6.61639 6.5404 6.61604L6.84201 6.61371L6.93742 6.32256C6.94977 6.2849 7.00212 6.2849 7.01447 6.32256Z" fill="#F5F5F5"></path> <path d="M8.17853 1.00668L8.27394 1.29783L8.57555 1.30016C8.61461 1.30051 8.63078 1.35119 8.59938 1.37479L8.35675 1.55713L8.44777 1.84973C8.45959 1.88759 8.41715 1.91899 8.38537 1.89583L8.14001 1.71737L7.89465 1.89583C7.86286 1.91894 7.82052 1.88759 7.83224 1.84973L7.92326 1.55713L7.68063 1.37479C7.64924 1.35114 7.6654 1.30051 7.70446 1.30016L8.00607 1.29783L8.10148 1.00668C8.11374 0.968966 8.16618 0.968966 8.17853 1.00668Z" fill="#F5F5F5"></path> <path d="M8.17853 2.52971L8.27394 2.82086L8.57555 2.8232C8.61461 2.82355 8.63078 2.87422 8.59938 2.89782L8.35675 3.08017L8.44777 3.37276C8.45959 3.41062 8.41715 3.44202 8.38537 3.41887L8.14001 3.2404L7.89465 3.41887C7.86286 3.44197 7.82052 3.41062 7.83224 3.37276L7.92326 3.08017L7.68063 2.89782C7.64924 2.87417 7.6654 2.82355 7.70446 2.8232L8.00607 2.82086L8.10148 2.52971C8.11374 2.49205 8.16618 2.49205 8.17853 2.52971Z" fill="#F5F5F5"></path> <path d="M8.17853 4.05266L8.27394 4.34381L8.57555 4.34615C8.61461 4.3465 8.63078 4.39717 8.59938 4.42077L8.35675 4.60312L8.44777 4.89571C8.45959 4.93357 8.41715 4.96497 8.38537 4.94182L8.14001 4.76335L7.89465 4.94182C7.86286 4.96492 7.82052 4.93357 7.83224 4.89571L7.92326 4.60312L7.68063 4.42077C7.64924 4.39712 7.6654 4.3465 7.70446 4.34615L8.00607 4.34381L8.10148 4.05266C8.11374 4.015 8.16618 4.015 8.17853 4.05266Z" fill="#F5F5F5"></path> <path d="M8.17853 5.57577L8.27394 5.86692L8.57555 5.86926C8.61461 5.8696 8.63078 5.92028 8.59938 5.94388L8.35675 6.12622L8.44777 6.41882C8.45959 6.45668 8.41715 6.48808 8.38537 6.46492L8.14001 6.28646L7.89465 6.46492C7.86286 6.48803 7.82052 6.45668 7.83224 6.41882L7.92326 6.12622L7.68063 5.94388C7.64924 5.92023 7.6654 5.8696 7.70446 5.86926L8.00607 5.86692L8.10148 5.57577C8.11374 5.53806 8.16618 5.53806 8.17853 5.57577Z" fill="#F5F5F5"></path> <path d="M8.17853 7.09888L8.27394 7.39003L8.57555 7.39236C8.61461 7.39271 8.63078 7.44339 8.59938 7.46699L8.35675 7.64933L8.44777 7.94193C8.45959 7.97979 8.41715 8.01119 8.38537 7.98803L8.14001 7.80957L7.89465 7.98803C7.86286 8.01114 7.82052 7.97979 7.83224 7.94193L7.92326 7.64933L7.68063 7.46699C7.64924 7.44334 7.6654 7.39271 7.70446 7.39236L8.00607 7.39003L8.10148 7.09888C8.11374 7.06112 8.16618 7.06112 8.17853 7.09888Z" fill="#F5F5F5"></path> <path d="M9.34259 1.75347L9.438 2.04462L9.73962 2.04695C9.77868 2.0473 9.79484 2.09798 9.76344 2.12158L9.52082 2.30392L9.61183 2.59651C9.62365 2.63437 9.58122 2.66577 9.54943 2.64262L9.30407 2.46415L9.05871 2.64262C9.02692 2.66573 8.98459 2.63437 8.99631 2.59651L9.08732 2.30392L8.8447 2.12158C8.8133 2.09793 8.82946 2.0473 8.86852 2.04695L9.17013 2.04462L9.26554 1.75347C9.27785 1.7158 9.33029 1.7158 9.34259 1.75347Z" fill="#F5F5F5"></path> <path d="M9.34259 3.27645L9.438 3.5676L9.73962 3.56994C9.77868 3.57029 9.79484 3.62097 9.76344 3.64457L9.52082 3.82691L9.61183 4.1195C9.62365 4.15736 9.58122 4.18876 9.54943 4.16561L9.30407 3.98714L9.05871 4.16561C9.02692 4.18871 8.98459 4.15741 8.99631 4.1195L9.08732 3.82691L8.8447 3.64457C8.8133 3.62092 8.82946 3.57029 8.86852 3.56994L9.17013 3.5676L9.26554 3.27645C9.27785 3.23874 9.33029 3.23874 9.34259 3.27645Z" fill="#F5F5F5"></path> <path d="M9.34259 4.79952L9.438 5.09067L9.73962 5.09301C9.77868 5.09336 9.79484 5.14404 9.76344 5.16764L9.52082 5.34998L9.61183 5.64257C9.62365 5.68043 9.58122 5.71183 9.54943 5.68868L9.30407 5.51021L9.05871 5.68868C9.02692 5.71178 8.98459 5.68043 8.99631 5.64257L9.08732 5.34998L8.8447 5.16764C8.8133 5.14399 8.82946 5.09336 8.86852 5.09301L9.17013 5.09067L9.26554 4.79952C9.27785 4.76181 9.33029 4.76181 9.34259 4.79952Z" fill="#F5F5F5"></path> <path d="M9.34259 6.32256L9.438 6.61371L9.73962 6.61604C9.77868 6.61639 9.79484 6.66707 9.76344 6.69067L9.52082 6.87301L9.61183 7.16561C9.62365 7.20347 9.58122 7.23487 9.54943 7.21171L9.30407 7.03325L9.05871 7.21171C9.02692 7.23482 8.98459 7.20347 8.99631 7.16561L9.08732 6.87301L8.8447 6.69067C8.8133 6.66702 8.82946 6.61639 8.86852 6.61604L9.17013 6.61371L9.26554 6.32256C9.27785 6.2849 9.33029 6.2849 9.34259 6.32256Z" fill="#F5F5F5"></path> <path d="M10.5067 1.00668L10.6021 1.29783L10.9037 1.30016C10.9427 1.30051 10.9589 1.35119 10.9275 1.37479L10.6849 1.55713L10.7759 1.84973C10.7877 1.88759 10.7453 1.91899 10.7135 1.89583L10.4681 1.71737L10.2228 1.89583C10.191 1.91894 10.1487 1.88759 10.1604 1.84973L10.2514 1.55713L10.0088 1.37479C9.97736 1.35114 9.99352 1.30051 10.0326 1.30016L10.3342 1.29783L10.4296 1.00668C10.4419 0.968966 10.4943 0.968966 10.5067 1.00668Z" fill="#F5F5F5"></path> <path d="M10.5067 2.52971L10.6021 2.82086L10.9037 2.8232C10.9427 2.82355 10.9589 2.87422 10.9275 2.89782L10.6849 3.08017L10.7759 3.37276C10.7877 3.41062 10.7453 3.44202 10.7135 3.41887L10.4681 3.2404L10.2228 3.41887C10.191 3.44197 10.1487 3.41062 10.1604 3.37276L10.2514 3.08017L10.0088 2.89782C9.97736 2.87417 9.99352 2.82355 10.0326 2.8232L10.3342 2.82086L10.4296 2.52971C10.4419 2.49205 10.4943 2.49205 10.5067 2.52971Z" fill="#F5F5F5"></path> <path d="M10.5067 4.05266L10.6021 4.34381L10.9037 4.34615C10.9427 4.3465 10.9589 4.39717 10.9275 4.42077L10.6849 4.60312L10.7759 4.89571C10.7877 4.93357 10.7453 4.96497 10.7135 4.94182L10.4681 4.76335L10.2228 4.94182C10.191 4.96492 10.1487 4.93357 10.1604 4.89571L10.2514 4.60312L10.0088 4.42077C9.97736 4.39712 9.99352 4.3465 10.0326 4.34615L10.3342 4.34381L10.4296 4.05266C10.4419 4.015 10.4943 4.015 10.5067 4.05266Z" fill="#F5F5F5"></path> <path d="M10.5067 5.57577L10.6021 5.86692L10.9037 5.86926C10.9427 5.8696 10.9589 5.92028 10.9275 5.94388L10.6849 6.12622L10.7759 6.41882C10.7877 6.45668 10.7453 6.48808 10.7135 6.46492L10.4681 6.28646L10.2228 6.46492C10.191 6.48803 10.1487 6.45668 10.1604 6.41882L10.2514 6.12622L10.0088 5.94388C9.97736 5.92023 9.99352 5.8696 10.0326 5.86926L10.3342 5.86692L10.4296 5.57577C10.4419 5.53806 10.4943 5.53806 10.5067 5.57577Z" fill="#F5F5F5"></path> <path d="M10.5067 7.09888L10.6021 7.39003L10.9037 7.39236C10.9427 7.39271 10.9589 7.44339 10.9275 7.46699L10.6849 7.64933L10.7759 7.94193C10.7877 7.97979 10.7453 8.01119 10.7135 7.98803L10.4681 7.80957L10.2228 7.98803C10.191 8.01114 10.1487 7.97979 10.1604 7.94193L10.2514 7.64933L10.0088 7.46699C9.97736 7.44334 9.99352 7.39271 10.0326 7.39236L10.3342 7.39003L10.4296 7.09888C10.4419 7.06112 10.4943 7.06112 10.5067 7.09888Z" fill="#F5F5F5"></path> </g> </svg> 