<?xml version="1.0" encoding="UTF-8"?> <svg xmlns="http://www.w3.org/2000/svg" width="25" height="25" viewBox="0 0 25 25" fill="none"> <path d="M11.3373 15.0071V14.8778C11.3406 14.2779 11.3969 13.8007 11.5063 13.446C11.619 13.0914 11.7781 12.8063 11.9836 12.5909C12.1891 12.3722 12.4393 12.1716 12.7343 11.9893C12.9365 11.8634 13.1171 11.7259 13.2762 11.5767C13.4386 11.4242 13.5662 11.2552 13.659 11.0696C13.7518 10.8807 13.7982 10.6702 13.7982 10.4382C13.7982 10.1764 13.7369 9.94934 13.6143 9.7571C13.4916 9.56487 13.3259 9.41572 13.1171 9.30966C12.9116 9.2036 12.6813 9.15057 12.426 9.15057C12.1907 9.15057 11.967 9.20194 11.7549 9.30469C11.5461 9.40412 11.3721 9.55658 11.2329 9.76207C11.097 9.96425 11.0207 10.2211 11.0042 10.5327H9.23429C9.25086 9.90294 9.40332 9.37595 9.69167 8.9517C9.98334 8.52746 10.3678 8.20928 10.8451 7.99716C11.3257 7.78504 11.856 7.67898 12.436 7.67898C13.069 7.67898 13.6259 7.79001 14.1064 8.01207C14.5903 8.23414 14.9665 8.55066 15.235 8.96165C15.5068 9.36932 15.6427 9.85322 15.6427 10.4134C15.6427 10.7912 15.5814 11.1293 15.4587 11.4276C15.3394 11.7259 15.1687 11.991 14.9466 12.223C14.7246 12.455 14.4611 12.6622 14.1562 12.8445C13.8877 13.0102 13.6673 13.1825 13.4949 13.3615C13.3259 13.5405 13.2 13.7509 13.1171 13.9929C13.0376 14.2315 12.9961 14.5265 12.9928 14.8778V15.0071H11.3373ZM12.2023 18.1094C11.904 18.1094 11.6472 18.0033 11.4317 17.7912C11.2163 17.5791 11.1086 17.3205 11.1086 17.0156C11.1086 16.7173 11.2163 16.4621 11.4317 16.25C11.6472 16.0379 11.904 15.9318 12.2023 15.9318C12.4973 15.9318 12.7525 16.0379 12.968 16.25C13.1867 16.4621 13.2961 16.7173 13.2961 17.0156C13.2961 17.2178 13.2447 17.4018 13.142 17.5675C13.0425 17.7332 12.9099 17.8658 12.7442 17.9652C12.5818 18.0613 12.4012 18.1094 12.2023 18.1094Z" fill="#71B716"></path> <circle cx="12.5" cy="12.5" r="12" stroke="#71B716"></circle> </svg> 