<?xml version="1.0" encoding="UTF-8"?> <svg xmlns="http://www.w3.org/2000/svg" width="148" height="154" viewBox="0 0 148 154" fill="none"> <path d="M109.686 91.3948C83.071 91.5301 78.7658 108.149 77.3309 122.202L76.6787 128.417H71.3292L70.677 122.202C69.2422 108.149 64.8064 91.53 39.1047 91.3948C34.7995 82.2062 32.973 74.7747 32.973 66.3974C32.973 45.4543 49.5421 25.8614 74.0689 25.8614C98.5962 25.8614 114.904 45.3184 114.904 66.5331C114.904 74.7747 114.122 82.2062 109.686 91.3948ZM73.8084 0.458984C33.3648 0.458984 0.226562 34.7796 0.226562 76.801C0.226562 118.959 33.3648 153.279 73.8084 153.279C114.643 153.279 147.651 118.959 147.651 76.801C147.651 34.7797 114.643 0.458984 73.8084 0.458984Z" fill="#29B24A"></path> </svg> 