<?xml version="1.0" encoding="UTF-8"?> <svg xmlns="http://www.w3.org/2000/svg" width="78" height="24" viewBox="0 0 78 24" fill="none"><ellipse cx="39" cy="12" rx="12" ry="12" fill="white"></ellipse><path fill-rule="evenodd" clip-rule="evenodd" d="M40.4304 18.4952H42.6768V5.50781H39.4234C36.17 5.50781 34.4659 7.23947 34.4659 9.67952C34.4659 11.6473 35.3954 12.828 37.0995 14.0874L34.156 18.4952H36.5573L39.8107 13.5364L38.7262 12.7493C37.3319 11.8834 36.6348 11.175 36.6348 9.60081C36.6348 8.184 37.5643 7.31818 39.4234 7.31818H40.4304V18.4952Z" fill="#FF3333"></path><circle cx="12" cy="12" r="12" fill="#29B24A"></circle><path d="M17.8195 14.2813C13.4867 14.3025 12.7858 16.9125 12.5522 19.1194L12.4461 20.0955H11.5752L11.469 19.1194C11.2354 16.9125 10.5133 14.3025 6.32919 14.2813C5.62832 12.8382 5.33097 11.6711 5.33097 10.3555C5.33097 7.06641 8.02834 3.98939 12.0212 3.98939C16.0141 3.98939 18.669 7.04507 18.669 10.3768C18.669 11.6711 18.5416 12.8382 17.8195 14.2813ZM11.9788 0C5.39475 0 0 5.38997 0 11.9893C0 18.6101 5.39475 24 11.9788 24C18.6265 24 24 18.6101 24 11.9893C24 5.38999 18.6265 0 11.9788 0Z" fill="white"></path><circle cx="66" cy="12" r="12" fill="white"></circle><path fill-rule="evenodd" clip-rule="evenodd" d="M61.8623 5.62098C61.0234 5.71086 60.536 5.9007 60.1649 6.28209C59.9196 6.53421 59.7801 6.79263 59.6769 7.1865L59.6191 7.4071V10.9857C59.6191 14.3918 59.6213 14.5699 59.6639 14.6803C59.7207 14.8274 59.8874 14.9779 60.0347 15.0149C60.1742 15.0501 60.5588 15.0503 60.6978 15.0153C60.8428 14.9788 60.9849 14.8513 61.056 14.6941C61.1133 14.5673 61.1148 14.5464 61.122 13.7861L61.1294 13.0079H62.8626H64.5958V14.8278C64.5958 16.2374 64.603 16.6754 64.6276 16.7704C64.8617 17.6748 65.4949 18.1575 66.6919 18.3441C66.9394 18.3827 67.1506 18.3881 68.4203 18.3881C69.7214 18.3881 69.8914 18.3836 70.1119 18.3429C71.1042 18.1598 71.8454 17.6517 72.2051 16.9082C72.404 16.497 72.3919 16.7553 72.3919 12.9221C72.3919 9.72017 72.3892 9.50852 72.3485 9.40645C72.2842 9.24549 72.1989 9.1471 72.0677 9.08249C71.9629 9.03092 71.917 9.02484 71.6319 9.02484C71.2695 9.02484 71.1728 9.05695 71.0361 9.22274C70.9021 9.38532 70.8841 9.51197 70.8841 10.2949V10.998H69.1078H67.3314L67.3239 9.19029L67.3163 7.38259L67.2479 7.1629C66.9917 6.34043 66.4051 5.88232 65.3436 5.67566C65.0715 5.62272 65.0069 5.62061 63.5049 5.61627C62.6487 5.6138 61.9095 5.6159 61.8623 5.62098ZM65.2654 7.32734C65.4894 7.39502 65.6194 7.47625 65.7052 7.60214L65.7849 7.71903V9.25149C65.7849 10.3288 65.7765 10.8117 65.7569 10.8773C65.6937 11.0881 65.4917 11.2302 65.139 11.3118C64.9837 11.3478 64.7438 11.3525 63.0513 11.3529L61.1391 11.3534L61.1322 9.6131C61.1272 8.35421 61.1331 7.84419 61.1536 7.76933C61.2186 7.5315 61.4967 7.36703 61.9491 7.29881C62.0295 7.28668 62.7792 7.2793 63.6152 7.28239C64.9288 7.28724 65.1529 7.29335 65.2654 7.32734ZM63.1862 8.1931C62.8284 8.27056 62.5081 8.50846 62.3633 8.80424C62.2991 8.93552 62.2914 8.97631 62.2914 9.18416C62.2914 9.38567 62.3002 9.43594 62.3573 9.55759C62.4462 9.74725 62.5349 9.85871 62.686 9.97028C63.1287 10.2973 63.7487 10.3051 64.2191 9.98967C64.3823 9.88023 64.486 9.75598 64.5778 9.56006C64.6361 9.43567 64.6449 9.38662 64.6449 9.18416C64.6449 8.97631 64.6371 8.93552 64.5729 8.80424C64.4258 8.50376 64.1064 8.26943 63.7378 8.19173C63.5285 8.14761 63.3947 8.14793 63.1862 8.1931ZM70.8841 14.3574C70.8841 15.5665 70.8759 16.0825 70.8555 16.1637C70.7842 16.4469 70.4312 16.6344 69.8306 16.7081C69.5675 16.7404 67.1137 16.7406 66.8635 16.7084C66.4973 16.6612 66.2847 16.5313 66.1744 16.2872L66.1158 16.1576L66.1082 14.7924C66.1001 13.3427 66.1079 13.2127 66.2119 13.0555C66.3248 12.885 66.6253 12.7397 66.9693 12.6894C67.0393 12.6792 67.9487 12.6695 68.9903 12.6678L70.8841 12.6647V14.3574ZM68.1754 13.7965C67.6195 13.9025 67.2056 14.4501 67.3039 14.9496C67.3774 15.3229 67.6163 15.5928 68.0094 15.7464C68.1534 15.8027 68.2105 15.8111 68.4448 15.8105C68.659 15.81 68.7444 15.799 68.8596 15.7569C69.4796 15.5305 69.7674 14.9207 69.5066 14.3859C69.4213 14.211 69.1752 13.9751 68.991 13.8916C68.7344 13.7753 68.4567 13.7429 68.1754 13.7965Z" fill="#FF3333"></path></svg> 