<?xml version="1.0" encoding="UTF-8"?> <svg xmlns="http://www.w3.org/2000/svg" width="120" height="61" viewBox="0 0 120 61" fill="none"> <rect width="120" height="61" rx="5" fill="white"></rect> <path fill-rule="evenodd" clip-rule="evenodd" d="M14.9079 15.4282C16.5138 15.4282 17.8157 16.7165 17.8157 18.3054C17.8157 19.8945 16.5138 21.1827 14.9079 21.1827C13.3019 21.1827 12 19.8945 12 18.3054C12 16.7165 13.3019 15.4282 14.9079 15.4282ZM26.8395 30.3009C28.0706 30.3009 29.0685 31.2884 29.0685 32.5064C29.0685 33.7243 28.0706 34.7117 26.8395 34.7117C25.6087 34.7117 24.6108 33.7243 24.6108 32.5064C24.6108 31.2884 25.6087 30.3009 26.8395 30.3009ZM29.5024 36.5738C29.0863 36.0953 27.9305 35.5327 26.9883 35.517C25.8421 35.4977 25.0216 36.1151 24.5371 36.6743C22.3101 39.2452 25.2679 44.1913 22.8605 42.31C22.1183 41.7298 21.409 40.8382 20.8807 40.0595C18.5392 36.6094 16.9811 30.6171 17.5698 26.4715C17.8506 24.4932 18.6968 23.8484 20.758 24.4312C23.4134 25.1821 26.6602 27.3408 29.8031 26.1923C31.2126 25.6772 32.2616 24.6358 32.902 23.6283C27.9518 26.9786 22.9421 22.5498 19.8059 21.6156C17.054 20.7959 15.6296 23.2677 15.2239 25.5388C14.7636 28.1161 15.0947 30.9858 15.7498 33.3754C17.2303 38.7758 20.0363 42.6734 23.9037 44.9718C24.5579 45.3607 25.0568 44.9557 25.2317 44.3552C25.5885 43.1305 24.2065 38.751 26.0498 36.8338C26.9798 35.8667 28.2832 36.281 29.5024 36.5738Z" fill="#73B61C"></path> <path fill-rule="evenodd" clip-rule="evenodd" d="M35.4764 12C37.0823 12 38.3842 13.2881 38.3842 14.8772C38.3842 16.4662 37.0823 17.7543 35.4764 17.7543C33.8704 17.7543 32.5685 16.4662 32.5685 14.8772C32.5685 13.2881 33.8704 12 35.4764 12ZM19.0742 20.1411C19.2603 20.2469 20.0431 20.325 20.3212 20.3995C20.7442 20.5132 21.1243 20.6482 21.4921 20.8191C23.607 21.8019 25.2531 23.5056 28.5435 23.1698C32.2522 22.7912 35.0146 19.0382 36.3542 24.698C37.1475 28.0495 35.7556 32.4593 34.7251 35.2285C34.1765 36.7024 33.4902 38.2503 32.7818 39.5694C32.2915 40.4826 30.8921 43.132 30.1019 43.2441C29.4308 42.8505 29.8065 41.3022 29.895 40.5736C30.009 39.6357 30.0855 38.5052 29.6551 37.7496C29.3626 37.2358 28.393 36.6203 27.5305 36.7438C27.1149 36.8033 26.7303 37.0609 26.4856 37.2701C26.3317 37.4013 25.876 37.9495 25.8424 38.2084C26.157 37.6755 27.909 36.917 28.625 38.5427C29.021 39.4416 28.5329 41.6622 28.4534 42.7065C28.3451 44.1299 28.5341 45.869 30.2331 45.1348C31.2282 44.7046 32.0709 43.7624 32.6969 43.0107C36.1494 38.8649 40.3036 28.452 38.1185 22.2901C37.2473 19.8335 35.0176 18.1646 32.5935 19.1603C31.5451 19.5909 30.6427 20.2952 29.7451 20.8406C28.7137 21.4673 27.6122 21.9039 26.1196 21.5345C24.3457 21.0955 23.0225 19.8593 20.9934 19.7769C20.4292 19.754 19.4215 19.8546 19.0742 20.1411Z" fill="#005DA9"></path> <path fill-rule="evenodd" clip-rule="evenodd" d="M94.5963 33.4779H107.443C107.674 33.4779 107.863 33.667 107.863 33.8983C107.863 34.1295 107.674 34.3189 107.443 34.3189H94.5963C94.365 34.3189 94.1758 34.1297 94.1758 33.8985C94.1758 33.6672 94.365 33.4779 94.5963 33.4779ZM46.6685 33.4779H59.1565C59.3878 33.4779 59.577 33.667 59.577 33.8983C59.577 34.1295 59.3878 34.3189 59.1565 34.3189H46.6685C46.4372 34.3189 46.248 34.1297 46.248 33.8985C46.248 33.6672 46.4372 33.4779 46.6685 33.4779ZM60.9434 34.0038C60.9434 33.4398 61.1036 32.957 61.4237 32.558C61.7639 32.1291 62.2092 31.914 62.7594 31.914C62.9845 31.914 63.2096 31.9514 63.4347 32.0253C63.7349 32.1241 63.8849 32.2603 63.8849 32.4342C63.8849 32.623 63.8024 32.7169 63.636 32.7169C63.526 32.7169 63.4034 32.6818 63.2671 32.6117C63.1321 32.5417 62.972 32.5068 62.7857 32.5068C62.4191 32.5068 62.1253 32.6693 61.9052 32.9944C61.7089 33.2845 61.6112 33.6198 61.6112 33.9999C61.6112 34.4252 61.6989 34.7729 61.8753 35.043C62.0802 35.3633 62.3842 35.5233 62.7857 35.5233C62.9457 35.5233 63.1271 35.4746 63.3272 35.3769C63.5286 35.2794 63.6437 35.2306 63.6736 35.2306C63.8649 35.2306 63.96 35.3281 63.96 35.5233C63.96 35.6433 63.8849 35.7509 63.7349 35.8459C63.4798 36.011 63.1647 36.0937 62.7893 36.0937C62.199 36.0937 61.7388 35.8885 61.4087 35.4796C61.0984 35.0944 60.9434 34.6027 60.9434 34.0038ZM66.1323 35.5009C66.5376 35.5009 66.9191 35.3633 67.2755 35.0867C67.3755 35.0081 67.4605 34.9679 67.5305 34.9679C67.7119 34.9679 67.802 35.0631 67.802 35.2531C67.802 35.3132 67.757 35.3932 67.667 35.4932C67.4918 35.6833 67.2567 35.8334 66.9616 35.9436C66.6914 36.0436 66.4164 36.0937 66.1362 36.0937C65.5459 36.0937 65.0807 35.881 64.7404 35.4569C64.4203 35.0618 64.2601 34.5653 64.2601 33.9662C64.2601 33.3972 64.4278 32.9182 64.7629 32.528C65.1181 32.1191 65.5758 31.914 66.1362 31.914C66.6365 31.914 67.0541 32.1053 67.3893 32.4893C67.7044 32.8595 67.862 33.2972 67.862 33.8061C67.862 34.1101 67.7144 34.2627 67.4181 34.2627H64.9279C64.9279 34.6003 65.0444 34.8917 65.2782 35.1357C65.5108 35.3794 65.7959 35.5009 66.1323 35.5009ZM64.9279 33.7524H67.1941C67.1941 33.406 67.1091 33.1195 66.9377 32.8919C66.7464 32.6356 66.4789 32.5068 66.1362 32.5068C65.7947 32.5068 65.5071 32.6294 65.2756 32.8731C65.0444 33.1184 64.9279 33.411 64.9279 33.7524ZM70.5183 36.0937C70.3533 36.0937 70.2481 36.0161 70.2032 35.8609L69.3177 32.9193H69.3001L68.9238 35.7859C68.8988 35.991 68.7824 36.0937 68.576 36.0937C68.411 36.0937 68.3097 36.0073 68.2748 35.8359C68.2646 35.7784 68.2621 35.7371 68.2671 35.7108L68.7849 32.3116C68.805 32.1991 68.8601 32.104 68.9501 32.0278C69.0401 31.9514 69.1451 31.914 69.2652 31.914C69.4952 31.914 69.6429 32.0214 69.7079 32.2366L70.5095 34.9004L70.5346 34.9028L71.3313 32.2303C71.3963 32.0188 71.5425 31.9139 71.7728 31.9139C71.8928 31.9139 71.9966 31.9512 72.0866 32.0263C72.1767 32.1013 72.2317 32.199 72.2518 32.3178L72.7696 35.7107C72.7748 35.7308 72.7719 35.7658 72.7621 35.8159C72.737 36.0009 72.6369 36.0936 72.4643 36.0936C72.2504 36.0936 72.1317 35.9909 72.1054 35.7871L71.7302 32.9206L71.7189 32.9194L70.8335 35.861C70.7885 36.0162 70.6834 36.0937 70.5183 36.0937ZM75.0694 35.5009C75.4747 35.5009 75.8562 35.3633 76.2125 35.0867C76.3125 35.0081 76.3976 34.9679 76.4676 34.9679C76.649 34.9679 76.7391 35.0631 76.7391 35.2531C76.7391 35.3132 76.694 35.3932 76.604 35.4932C76.4289 35.6833 76.1938 35.8334 75.8986 35.9436C75.6284 36.0436 75.3534 36.0937 75.0732 36.0937C74.4829 36.0937 74.0177 35.881 73.6775 35.4569C73.3574 35.0618 73.1971 34.5653 73.1971 33.9662C73.1971 33.3972 73.3649 32.9182 73.7 32.528C74.0552 32.1191 74.5129 31.914 75.0732 31.914C75.5735 31.914 75.9911 32.1053 76.3263 32.4893C76.6415 32.8595 76.7991 33.2972 76.7991 33.8061C76.7991 34.1101 76.6514 34.2627 76.3552 34.2627H73.865C73.865 34.6003 73.9814 34.8917 74.2152 35.1357C74.4478 35.3794 74.733 35.5009 75.0694 35.5009ZM73.865 33.7524H76.1312C76.1312 33.406 76.0462 33.1195 75.8748 32.8919C75.6835 32.6356 75.4159 32.5068 75.0732 32.5068C74.7318 32.5068 74.4441 32.6294 74.2127 32.8731C73.9815 33.1184 73.865 33.411 73.865 33.7524ZM78.1497 34.9392L80.2907 32.149C80.4159 31.9926 80.5421 31.914 80.6723 31.914C80.8811 31.914 80.9862 32.0165 80.9862 32.2216V35.7784C80.9862 35.8634 80.9525 35.9373 80.8849 35.9998C80.8174 36.0624 80.7411 36.0937 80.6559 36.0937C80.5659 36.0937 80.4859 36.0649 80.4159 36.0073C80.3458 35.9498 80.3109 35.8785 80.3109 35.7935V33.0846L78.1347 35.9209C78.0447 36.0361 77.9345 36.0937 77.8046 36.0937C77.5845 36.0937 77.4743 35.9885 77.4743 35.7784V32.2441C77.4743 32.149 77.507 32.0702 77.5719 32.0078C77.6369 31.9453 77.7169 31.914 77.8121 31.914C77.9071 31.914 77.9871 31.9453 78.0522 32.0078C78.1172 32.0702 78.1497 32.149 78.1497 32.2441V34.9392ZM78.1947 30.8558C78.1947 30.6957 78.2848 30.6157 78.465 30.6157C78.555 30.6157 78.6763 30.6907 78.8288 30.8408C78.9814 30.9909 79.1152 31.0659 79.2303 31.0659C79.3454 31.0659 79.4804 30.9909 79.6354 30.8408C79.7906 30.6907 79.9106 30.6157 79.9956 30.6157C80.1758 30.6157 80.2658 30.6957 80.2658 30.8558C80.2658 31.0559 80.1407 31.2361 79.8906 31.3962C79.6655 31.5363 79.4454 31.6063 79.2303 31.6063C79.0152 31.6063 78.7951 31.5363 78.57 31.3962C78.3199 31.2361 78.1947 31.0559 78.1947 30.8558ZM84.5956 34.165H82.5544V35.7496C82.5544 35.9785 82.4407 36.0937 82.2131 36.0937C82.1242 36.0937 82.048 36.0586 81.9829 35.9885C81.9193 35.9185 81.8866 35.8384 81.8866 35.7484V32.2728C81.8866 32.174 81.9167 32.089 81.9755 32.0189C82.0355 31.9489 82.1142 31.914 82.2131 31.914C82.4407 31.914 82.5544 32.0289 82.5544 32.2579V33.5722H84.5956V32.2728C84.5956 32.1728 84.6255 32.0878 84.6845 32.0189C84.7443 31.9489 84.8232 31.914 84.922 31.914C85.1496 31.914 85.2634 32.0289 85.2634 32.259V35.7484C85.2634 35.9785 85.1496 36.0937 84.922 36.0937C84.8332 36.0937 84.757 36.0586 84.6919 35.9885C84.6281 35.9198 84.5956 35.8398 84.5956 35.7496V34.165ZM86.6667 34.0412C86.6667 34.4089 86.7516 34.7317 86.923 35.0092C87.1232 35.337 87.3995 35.5009 87.7509 35.5009C88.1524 35.5009 88.4538 35.3444 88.6538 35.0318C88.8252 34.7729 88.9102 34.4327 88.9102 34.0113C88.9102 33.5985 88.8277 33.2584 88.6615 32.9907C88.4613 32.6681 88.1673 32.5068 87.781 32.5068C87.4045 32.5068 87.1156 32.6756 86.9155 33.0132C86.7492 33.2959 86.6667 33.6386 86.6667 34.0412ZM88.9254 32.4616C88.9254 32.2152 88.9578 32.0615 89.0229 32.0028C89.0879 31.9439 89.1604 31.914 89.2405 31.914C89.4506 31.914 89.5556 32.0289 89.5556 32.259V35.7484C89.5556 35.9785 89.4493 36.0937 89.2366 36.0937C89.1505 36.0937 89.0779 36.066 89.0165 36.011C88.9553 35.956 88.9204 35.8735 88.9102 35.7634C88.9204 35.8085 88.9254 35.7133 88.9254 35.4782C88.6288 35.8885 88.2562 36.0937 87.8085 36.0937C87.407 36.0937 87.0481 35.966 86.7342 35.7122C86.4202 35.4569 86.2051 35.1319 86.0888 34.7378C86.0288 34.5277 85.9988 34.2813 85.9988 33.9963C85.9988 33.6611 86.0489 33.3648 86.15 33.1045C86.2951 32.7507 86.5041 32.468 86.7754 32.259C87.0618 32.0289 87.3921 31.914 87.7634 31.914C88.2213 31.914 88.6089 32.0965 88.9254 32.4616ZM92.6847 31.9514C92.8898 31.9514 92.9924 32.0615 92.9924 32.2816V35.7335C92.9924 35.8334 92.9623 35.9185 92.9036 35.9885C92.8435 36.0586 92.7648 36.0937 92.666 36.0937C92.5671 36.0937 92.4858 36.061 92.4209 35.996C92.357 35.9309 92.3246 35.8484 92.3246 35.7484V34.4352H91.9193L90.8087 35.876C90.6987 36.0211 90.5861 36.0937 90.4711 36.0937C90.3909 36.0937 90.3197 36.0698 90.2572 36.0223C90.1946 35.9747 90.1633 35.9135 90.1633 35.8398C90.1633 35.7246 90.2123 35.6045 90.3084 35.4796L91.1515 34.374C90.5623 34.1938 90.2685 33.7987 90.2685 33.1884C90.2685 32.3642 90.7037 31.9514 91.5742 31.9514H92.6847ZM92.3246 33.8424V32.5142H91.7255C91.1989 32.5142 90.9363 32.7382 90.9363 33.1859C90.9363 33.6236 91.1989 33.8424 91.7255 33.8424H92.3246Z" fill="#73B61C"></path> <path fill-rule="evenodd" clip-rule="evenodd" d="M49.1331 45.5049C48.2724 45.5049 47.5863 45.2179 47.0752 44.6441C46.5849 44.0964 46.3397 43.387 46.3397 42.5158C46.3397 41.6655 46.5927 40.9561 47.0986 40.3874C47.6202 39.7979 48.3037 39.5033 49.1487 39.5033C49.4514 39.5033 49.7382 39.545 50.0094 39.6284C50.3484 39.7327 50.591 39.8814 50.7371 40.0744C50.8206 40.1839 50.8624 40.2962 50.8624 40.4109C50.8624 40.5622 50.8077 40.6965 50.698 40.8138C50.5886 40.9313 50.4581 40.99 50.3069 40.99C50.166 40.99 49.9964 40.9509 49.7982 40.8725C49.5999 40.7944 49.3862 40.7553 49.1566 40.7553C48.6871 40.7553 48.3271 40.9429 48.0767 41.3186C47.8576 41.642 47.748 42.0515 47.748 42.5471C47.748 43.0323 47.8655 43.4287 48.1002 43.7366C48.3558 44.0807 48.721 44.253 49.1956 44.253C49.4043 44.253 49.6365 44.2059 49.8921 44.112C50.1476 44.0182 50.3199 43.9711 50.4086 43.9711C50.5546 43.9711 50.6785 44.0299 50.7802 44.1473C50.8819 44.2646 50.9328 44.3964 50.9328 44.5425C50.9328 44.6676 50.891 44.7875 50.8077 44.9023C50.5155 45.304 49.9573 45.5049 49.1331 45.5049ZM54.4355 20.3617L49.2647 27.1989C48.7837 27.8288 48.234 28.1438 47.6156 28.1438C46.7566 28.1438 46.3271 27.5769 46.3271 26.4459V17.3353C46.3271 15.9868 46.8023 15.311 47.753 15.311C48.7035 15.311 49.1788 15.9868 49.1788 17.3381V23.2106L54.4528 16.2388C54.9223 15.6203 55.4263 15.311 55.9645 15.311C56.8462 15.311 57.2873 15.9524 57.2873 17.2323V26.1194C57.2873 27.4681 56.812 28.1438 55.8613 28.1438C54.9108 28.1438 54.4355 27.4709 54.4355 26.1223V20.3617ZM62.3723 22.9214V26.1166C62.3723 27.4681 61.897 28.1438 60.9464 28.1438C59.9958 28.1438 59.5206 27.4681 59.5206 26.1194V17.3353C59.5206 15.9868 59.9958 15.311 60.9464 15.311C61.897 15.311 62.3723 15.9868 62.3723 17.3381V20.293H67.6289V17.3381C67.6289 15.9868 68.1043 15.311 69.0548 15.311C70.0055 15.311 70.4808 15.9868 70.4808 17.3353V26.1194C70.4808 27.4681 70.0055 28.1438 69.0548 28.1438C68.1043 28.1438 67.6289 27.4681 67.6289 26.1166V22.9214H62.3723ZM75.5658 22.0795V25.3779H76.8026C78.1081 25.3779 78.761 24.8339 78.761 23.7459C78.761 22.635 78.1081 22.0795 76.8026 22.0795H75.5658ZM75.5658 19.4856H77.4897C78.8527 19.4856 79.9207 19.8549 80.6936 20.5936C81.4666 21.3323 81.8533 22.3832 81.8533 23.7459C81.8533 25.0974 81.4237 26.1567 80.5648 26.9241C79.7401 27.6457 78.6407 28.0063 77.2665 28.0063H74.6896C73.9451 28.0063 73.4299 27.8574 73.1435 27.5596C72.8572 27.262 72.7141 26.7409 72.7141 25.9964V17.4755C72.7141 16.7312 72.8572 16.2101 73.1435 15.9123C73.4299 15.6145 73.9451 15.4658 74.6896 15.4658H79.1562C80.5189 15.4658 81.2004 15.9123 81.2004 16.8056C81.2004 17.6876 80.5189 18.1284 79.1562 18.1284H75.5658V19.4856ZM91.5078 20.3617L86.3369 27.1989C85.8559 27.8288 85.3062 28.1438 84.6878 28.1438C83.8288 28.1438 83.3994 27.5769 83.3994 26.4459V17.3353C83.3994 15.9868 83.8746 15.311 84.8252 15.311C85.7758 15.311 86.2511 15.9868 86.2511 17.3381V23.2106L91.5251 16.2388C91.9946 15.6203 92.4985 15.311 93.0367 15.311C93.9185 15.311 94.3596 15.9524 94.3596 17.2323V26.1194C94.3596 27.4681 93.8843 28.1438 92.9336 28.1438C91.9831 28.1438 91.5078 27.4709 91.5078 26.1223V20.3617ZM95.9915 21.7446C95.9915 19.8692 96.5183 18.3432 97.572 17.1636C98.66 15.9294 100.132 15.311 101.987 15.311C103.854 15.311 105.331 15.9238 106.419 17.1463C107.473 18.3259 108 19.8578 108 21.7446C108 23.62 107.473 25.146 106.419 26.3256C105.32 27.5368 103.842 28.1438 101.987 28.1438C100.132 28.1438 98.66 27.531 97.572 26.3085C96.5183 25.1404 95.9915 23.62 95.9915 21.7446ZM99.015 21.7789C99.015 22.8068 99.2497 23.6573 99.7194 24.3329C100.246 25.1202 101.002 25.5154 101.987 25.5154C102.972 25.5154 103.734 25.126 104.272 24.3501C104.741 23.6629 104.976 22.8068 104.976 21.7789C104.976 20.7167 104.753 19.8406 104.306 19.1563C103.768 18.346 102.995 17.9394 101.987 17.9394C100.979 17.9394 100.212 18.346 99.685 19.1563C99.2384 19.8406 99.015 20.7167 99.015 21.7789ZM52.4039 40.8647C51.9344 40.8647 51.6422 40.8518 51.5276 40.8256C51.178 40.7526 51.0033 40.5648 51.0033 40.2623C51.0033 39.8553 51.3111 39.6518 51.9265 39.6518H54.1879C54.8035 39.6518 55.1113 39.8553 55.1113 40.2623C55.1113 40.5648 54.9366 40.7526 54.5871 40.8256C54.4723 40.8518 54.1801 40.8647 53.7106 40.8647V44.5045C53.7106 45.1188 53.4941 45.4266 53.0612 45.4266C52.623 45.4266 52.4039 45.1188 52.4039 44.5045V40.8647ZM55.0644 42.5119C55.0644 41.6577 55.3043 40.9626 55.7843 40.4253C56.2798 39.8631 56.9501 39.5815 57.7953 39.5815C58.6454 39.5815 59.3184 39.8607 59.8141 40.4175C60.2939 40.9547 60.534 41.6525 60.534 42.5119C60.534 43.366 60.2939 44.0611 59.8141 44.5985C59.3133 45.1501 58.6403 45.4266 57.7953 45.4266C56.9501 45.4266 56.2798 45.1476 55.7843 44.5907C55.3043 44.0586 55.0644 43.366 55.0644 42.5119ZM56.4415 42.5275C56.4415 42.9957 56.5485 43.383 56.7625 43.6908C57.0023 44.0495 57.3465 44.2295 57.7953 44.2295C58.2438 44.2295 58.5908 44.052 58.836 43.6986C59.0497 43.3856 59.1567 42.9957 59.1567 42.5275C59.1567 42.0437 59.0551 41.6447 58.8516 41.3329C58.6064 40.9639 58.2543 40.7787 57.7953 40.7787C57.3362 40.7787 56.9867 40.9639 56.7468 41.3329C56.5433 41.6447 56.4415 42.0437 56.4415 42.5275ZM64.2652 43.5565H64.2978L65.0503 40.3483C65.1024 40.124 65.2133 39.9402 65.3829 39.7966C65.5524 39.6532 65.7519 39.5815 65.9813 39.5815C66.2408 39.5815 66.4653 39.665 66.653 39.8318C66.8408 39.9987 66.9556 40.2127 66.9974 40.4736L67.6233 44.3703C67.6545 44.5619 67.6702 44.7066 67.6702 44.8058C67.6702 45.2193 67.4759 45.4266 67.086 45.4266C66.8565 45.4266 66.6909 45.3393 66.5866 45.1632C66.5147 45.0484 66.4575 44.8605 66.4158 44.5959L65.9214 41.4738L65.9018 41.475L65.1663 44.3623C65.088 44.6571 64.9993 44.8695 64.9002 44.9987C64.7541 45.18 64.5482 45.27 64.2821 45.27C64.0161 45.27 63.8099 45.18 63.6639 44.9987C63.5649 44.8749 63.4762 44.6622 63.3978 44.3623L62.6545 41.475H62.6428L62.1563 44.597C62.1146 44.8657 62.0572 45.0574 61.9841 45.1709C61.8747 45.3417 61.7038 45.4264 61.4744 45.4264C61.0817 45.4264 60.886 45.2191 60.886 44.8057C60.886 44.7431 60.9044 44.5984 60.941 44.3701L61.5669 40.4734C61.6086 40.2125 61.7221 39.9985 61.9072 39.8317C62.0911 39.6648 62.3142 39.5813 62.5749 39.5813C62.8084 39.5813 63.008 39.6516 63.1722 39.7926C63.3353 39.9333 63.4461 40.1187 63.5035 40.3495L64.2652 43.5565ZM70.3307 39.5736C70.7951 39.5736 71.1158 39.824 71.2932 40.3235L72.733 44.4263C72.7956 44.6037 72.8269 44.7393 72.8269 44.8333C72.8269 45.0093 72.7643 45.1527 72.6391 45.2624C72.5139 45.3718 72.3625 45.4266 72.1852 45.4266C71.8565 45.4266 71.6271 45.2219 71.4967 44.8123L71.2854 44.1433H69.2666L69.0318 44.8594C68.9065 45.2376 68.698 45.4266 68.4058 45.4266C68.2232 45.4266 68.0745 45.3705 67.9599 45.2584C67.8451 45.1463 67.7877 44.9988 67.7877 44.8176C67.7877 44.6819 67.8085 44.5567 67.8502 44.4419L69.337 40.4175C69.5456 39.8553 69.8769 39.5736 70.3307 39.5736ZM70.2917 40.99L69.6421 42.9931H70.9332L70.3073 40.99H70.2917ZM73.6797 40.8647C73.2102 40.8647 72.918 40.8518 72.8034 40.8256C72.4539 40.7526 72.2791 40.5648 72.2791 40.2623C72.2791 39.8553 72.5869 39.6518 73.2024 39.6518H75.4638C76.0793 39.6518 76.3872 39.8553 76.3872 40.2623C76.3872 40.5648 76.2124 40.7526 75.8629 40.8256C75.7481 40.8518 75.4559 40.8647 74.9864 40.8647V44.5045C74.9864 45.1188 74.77 45.4266 74.3371 45.4266C73.8989 45.4266 73.6797 45.1188 73.6797 44.5045V40.8647ZM76.3402 42.5119C76.3402 41.6577 76.5802 40.9626 77.0602 40.4253C77.5556 39.8631 78.2259 39.5815 79.0711 39.5815C79.9213 39.5815 80.5943 39.8607 81.09 40.4175C81.5698 40.9547 81.8098 41.6525 81.8098 42.5119C81.8098 43.366 81.5698 44.0611 81.09 44.5985C80.5891 45.1501 79.9161 45.4266 79.0711 45.4266C78.2259 45.4266 77.5556 45.1476 77.0602 44.5907C76.5802 44.0586 76.3402 43.366 76.3402 42.5119ZM77.7174 42.5275C77.7174 42.9957 77.8243 43.383 78.0383 43.6908C78.2782 44.0495 78.6224 44.2295 79.0711 44.2295C79.5197 44.2295 79.8666 44.052 80.1118 43.6986C80.3256 43.3856 80.4326 42.9957 80.4326 42.5275C80.4326 42.0437 80.3309 41.6447 80.1275 41.3329C79.8822 40.9639 79.5302 40.7787 79.0711 40.7787C78.6121 40.7787 78.2626 40.9639 78.0226 41.3329C77.8191 41.6447 77.7174 42.0437 77.7174 42.5275ZM85.7144 40.7318H84.3216C84.1287 40.7318 84.0321 40.8491 84.0321 41.0838V44.2698C84.0321 45.0406 83.6487 45.4266 82.8818 45.4266C82.1934 45.4266 81.8489 45.2258 81.8489 44.8254C81.8489 44.5854 81.9141 44.4263 82.0446 44.3482C82.1228 44.3012 82.2611 44.2751 82.4594 44.2698C82.6367 44.2645 82.7514 44.236 82.8036 44.1838C82.8559 44.1317 82.8818 44.0169 82.8818 43.8409V41.0812C82.8818 40.5243 82.9837 40.1345 83.1869 39.9141C83.3904 39.6923 83.7686 39.5815 84.3216 39.5815H86.3639C86.7968 39.5815 87.0134 39.8892 87.0134 40.5035V44.5045C87.0134 45.1188 86.7968 45.4266 86.3639 45.4266C86.0927 45.4266 85.91 45.3354 85.8162 45.1527C85.7483 45.0223 85.7144 44.8072 85.7144 44.5045V40.7318ZM87.7489 42.5119C87.7489 41.6577 87.9889 40.9626 88.4689 40.4253C88.9644 39.8631 89.6347 39.5815 90.4799 39.5815C91.33 39.5815 92.0031 39.8607 92.4987 40.4175C92.9785 40.9547 93.2186 41.6525 93.2186 42.5119C93.2186 43.366 92.9785 44.0611 92.4987 44.5985C91.9979 45.1501 91.3249 45.4266 90.4799 45.4266C89.6347 45.4266 88.9644 45.1476 88.4689 44.5907C87.9889 44.0586 87.7489 43.366 87.7489 42.5119ZM89.1261 42.5275C89.1261 42.9957 89.2331 43.383 89.447 43.6908C89.6869 44.0495 90.0312 44.2295 90.4799 44.2295C90.9285 44.2295 91.2753 44.052 91.5205 43.6986C91.7344 43.3856 91.8413 42.9957 91.8413 42.5275C91.8413 42.0437 91.7397 41.6447 91.5362 41.3329C91.291 40.9639 90.9389 40.7787 90.4799 40.7787C90.0209 40.7787 89.6713 40.9639 89.4313 41.3329C89.2279 41.6447 89.1261 42.0437 89.1261 42.5275ZM93.962 44.5045V40.5661C93.962 40.227 94.0272 39.9909 94.1576 39.8553C94.2881 39.7197 94.5228 39.6518 94.8619 39.6518H96.325C96.9406 39.6518 97.2484 39.8553 97.2484 40.2623C97.2484 40.6639 96.9406 40.8647 96.325 40.8647H95.2609V44.5045C95.2609 45.1188 95.0444 45.4266 94.6115 45.4266C94.1785 45.4266 93.962 45.1188 93.962 44.5045ZM101.544 41.882L99.1889 44.9964C98.9698 45.2831 98.7193 45.4266 98.4376 45.4266C98.0465 45.4266 97.8509 45.1684 97.8509 44.6532V40.5035C97.8509 39.8892 98.0673 39.5815 98.5004 39.5815C98.9333 39.5815 99.1497 39.8892 99.1497 40.5048V43.1797L101.552 40.004C101.766 39.7224 101.995 39.5815 102.241 39.5815C102.642 39.5815 102.843 39.8736 102.843 40.4566V44.5045C102.843 45.1188 102.627 45.4266 102.194 45.4266C101.761 45.4266 101.544 45.1202 101.544 44.5059V41.882ZM106.669 42.242V40.8491H106.051C105.509 40.8491 105.237 41.076 105.237 41.5299C105.237 42.0046 105.514 42.242 106.067 42.242H106.669ZM107.968 40.5661V44.5045C107.968 45.1188 107.752 45.4266 107.319 45.4266C106.886 45.4266 106.669 45.1202 106.669 44.5059V43.1027L105.151 45.0053C104.927 45.2858 104.698 45.4266 104.463 45.4266C104.291 45.4266 104.143 45.3732 104.021 45.2662C103.898 45.1592 103.837 45.0223 103.837 44.8567C103.837 44.6481 103.965 44.4002 104.22 44.1134L105.245 42.9735C104.828 42.9056 104.497 42.7361 104.252 42.4649C104.006 42.1937 103.884 41.8507 103.884 41.4334C103.884 40.9078 104.07 40.4787 104.443 40.1475C104.816 39.8176 105.355 39.6518 106.059 39.6518H107.069C107.413 39.6518 107.649 39.7184 107.777 39.8515C107.904 39.9844 107.968 40.2219 107.968 40.5661Z" fill="#005DA9"></path> </svg> 