<?xml version="1.0" encoding="UTF-8"?> <svg xmlns="http://www.w3.org/2000/svg" width="1680" height="1178" viewBox="0 0 1680 1178" fill="none"> <mask id="mask0_40_2764" style="mask-type:alpha" maskUnits="userSpaceOnUse" x="0" y="0" width="1680" height="1178"> <rect width="1680" height="1177.57" fill="#0B75D6"></rect> </mask> <g mask="url(#mask0_40_2764)"> <path fill-rule="evenodd" clip-rule="evenodd" d="M1083.92 487.667L1129.1 499.771L1199.17 238.248L1133.75 220.718C1068.33 203.188 1024.72 228.876 1011.55 278.01C1000.93 317.635 1013.25 346.419 1040.73 380.961L957.754 453.86L1006.04 466.799L1098.22 384.474L1080.66 362.781C1057.29 337.833 1047.1 319.812 1055.59 288.112C1063.23 259.582 1086.6 247.156 1123.98 257.173L1144.23 262.599L1083.92 487.667Z" fill="#FF3333"></path> <path d="M370.599 529.532C352.545 551.888 363.508 566.834 374.283 577.627L379.037 582.415L375.386 586.89L369.741 583.193C357.007 574.8 340.077 567.166 322.42 588.574C311.795 585.903 304.331 582.358 297.324 576.639C279.805 562.344 274.725 535.109 291.468 514.593C308.21 494.075 335.618 493.715 353.364 508.196C360.258 513.822 365.94 519.55 370.599 529.532ZM270.041 497.47C242.433 531.302 248.522 582.449 283.674 611.134C318.939 639.911 370.268 635.618 397.875 601.786C425.749 567.628 419.571 516.59 384.306 487.813C349.155 459.129 297.915 463.312 270.041 497.47Z" fill="#29B24A"></path> <path d="M171.692 981.68C179.09 986.633 187.095 993.237 191.512 997.372C197.021 1002.82 199.829 1006.79 204.884 1013.85C207.76 1017.71 209.593 1018.58 212.591 1017.64C215.867 1016.6 216.659 1013.92 216.724 1010.11C216.762 1001.93 216.841 995.698 218.043 989.383C220.515 977.237 224.869 965.749 229.14 954.694C230.296 951.606 238.071 933.119 239.986 919.797C239.986 919.797 242.791 905.01 237.211 887.341C231.995 870.825 221.648 861.46 221.648 861.46L203.857 872.812L201.835 907.645L200.254 912.811L199.891 913.805L199.398 915.027L198.575 917.028L197.25 919.578L189.436 931.465L168 954.943L171.692 981.68Z" fill="#34A853"></path> <path d="M132.272 951.479C143.348 964.115 159.68 973.044 171.646 981.695L199.46 915.007C199.46 915.007 195.779 925.2 184.476 928.77C171.836 932.762 158.413 925.923 154.397 913.206C151.634 904.456 154.953 896.813 154.953 896.813L127.353 914.373L132.272 951.479Z" fill="#FBBC04"></path> <path d="M177.361 843.101C193.613 843.211 209.405 849.199 221.664 861.562L199.506 915.1C199.506 915.1 202.796 907.364 200.062 898.706C195.958 885.712 181.916 879.374 170.075 883.114C158.85 886.659 154.975 896.828 154.975 896.828L146.545 870.133L177.361 843.101Z" fill="#4285F4"></path> <path d="M119.271 881.94C124.776 868.634 136.817 852.892 158.192 846.142C168.526 842.879 177.249 843.134 177.249 843.134L154.966 896.812L129.701 904.791L119.271 881.94Z" fill="#1A73E8"></path> <path d="M132.324 951.463C132.324 951.463 122.839 941.724 117.57 925.04C112.577 909.231 114.403 893.485 119.415 881.992L155.106 896.849L132.324 951.463Z" fill="#EA4335"></path> </g> </svg> 