<?xml version="1.0" encoding="UTF-8"?> <svg xmlns="http://www.w3.org/2000/svg" width="95" height="20" viewBox="0 0 95 20" fill="none"> <rect x="0.25" y="0.25" width="94.5" height="19.5" rx="9.75" fill="white" stroke="#0B75D6" stroke-width="0.5"></rect> <path d="M12.0779 12.5703V7.65554H13.1929V12.5703H12.0779ZM10.178 10.6705V9.5554H15.0928V10.6705H10.178ZM21.5567 13.1065C21.0099 13.1065 20.5376 12.9929 20.1398 12.7656C19.7445 12.536 19.4403 12.2116 19.2272 11.7926C19.0141 11.3712 18.9076 10.8752 18.9076 10.3047C18.9076 9.74361 19.0141 9.25118 19.2272 8.82741C19.4426 8.40128 19.7433 8.06984 20.1292 7.8331C20.5151 7.59399 20.9684 7.47443 21.4893 7.47443C21.8254 7.47443 22.1427 7.52888 22.441 7.63778C22.7416 7.74432 23.0068 7.91004 23.2364 8.13494C23.4684 8.35985 23.6507 8.64631 23.7833 8.99432C23.9159 9.33996 23.9822 9.75189 23.9822 10.2301V10.6243H19.5113V9.75781H22.7499C22.7475 9.5116 22.6943 9.29261 22.5901 9.10085C22.4859 8.90672 22.3403 8.75402 22.1533 8.64276C21.9687 8.53149 21.7532 8.47585 21.507 8.47585C21.2442 8.47585 21.0134 8.53977 20.8145 8.66761C20.6157 8.79309 20.4606 8.95881 20.3493 9.16477C20.2404 9.36837 20.1848 9.59209 20.1824 9.83594V10.5923C20.1824 10.9096 20.2404 11.1818 20.3564 11.4091C20.4724 11.634 20.6346 11.8068 20.843 11.9276C21.0513 12.0459 21.2951 12.1051 21.5745 12.1051C21.7615 12.1051 21.9308 12.0791 22.0823 12.027C22.2338 11.9725 22.3652 11.8932 22.4765 11.7891C22.5877 11.6849 22.6718 11.5559 22.7286 11.402L23.9289 11.5369C23.8531 11.8542 23.7087 12.1312 23.4957 12.3679C23.2849 12.6023 23.0151 12.7846 22.686 12.9148C22.3569 13.0426 21.9805 13.1065 21.5567 13.1065ZM33.2622 11.9453L33.1556 14.5625H31.9447V13H31.3019V11.9453H33.2622ZM25.0697 7.54545H26.309V11.9418H28.0242V7.54545H29.2636V11.9418H30.9788V7.54545H32.2181V13H25.0697V7.54545ZM36.6349 13.1065C36.088 13.1065 35.6157 12.9929 35.218 12.7656C34.8226 12.536 34.5184 12.2116 34.3053 11.7926C34.0922 11.3712 33.9857 10.8752 33.9857 10.3047C33.9857 9.74361 34.0922 9.25118 34.3053 8.82741C34.5207 8.40128 34.8214 8.06984 35.2073 7.8331C35.5932 7.59399 36.0465 7.47443 36.5674 7.47443C36.9036 7.47443 37.2208 7.52888 37.5191 7.63778C37.8198 7.74432 38.0849 7.91004 38.3145 8.13494C38.5465 8.35985 38.7288 8.64631 38.8614 8.99432C38.994 9.33996 39.0603 9.75189 39.0603 10.2301V10.6243H34.5894V9.75781H37.828C37.8257 9.5116 37.7724 9.29261 37.6682 9.10085C37.5641 8.90672 37.4185 8.75402 37.2314 8.64276C37.0468 8.53149 36.8314 8.47585 36.5851 8.47585C36.3224 8.47585 36.0915 8.53977 35.8927 8.66761C35.6938 8.79309 35.5387 8.95881 35.4275 9.16477C35.3186 9.36837 35.2629 9.59209 35.2606 9.83594V10.5923C35.2606 10.9096 35.3186 11.1818 35.4346 11.4091C35.5506 11.634 35.7127 11.8068 35.9211 11.9276C36.1294 12.0459 36.3733 12.1051 36.6526 12.1051C36.8396 12.1051 37.0089 12.0791 37.1604 12.027C37.3119 11.9725 37.4433 11.8932 37.5546 11.7891C37.6659 11.6849 37.7499 11.5559 37.8067 11.402L39.007 11.5369C38.9313 11.8542 38.7868 12.1312 38.5738 12.3679C38.3631 12.6023 38.0932 12.7846 37.7641 12.9148C37.435 13.0426 37.0586 13.1065 36.6349 13.1065ZM45.1425 13.0994C44.669 13.0994 44.2452 13.0107 43.8712 12.8331C43.4971 12.6532 43.2 12.407 42.9798 12.0945C42.762 11.782 42.646 11.4245 42.6318 11.022H43.9102C43.9339 11.3203 44.0629 11.5642 44.2973 11.7536C44.5317 11.9406 44.8134 12.0341 45.1425 12.0341C45.4005 12.0341 45.6302 11.9749 45.8314 11.8565C46.0326 11.7382 46.1913 11.5736 46.3073 11.3629C46.4233 11.1522 46.4801 10.9119 46.4777 10.642C46.4801 10.3674 46.4221 10.1236 46.3037 9.91051C46.1853 9.69744 46.0232 9.53054 45.8172 9.4098C45.6112 9.28669 45.3745 9.22514 45.107 9.22514C44.8892 9.22277 44.6749 9.26302 44.4642 9.34588C44.2535 9.42874 44.0866 9.53764 43.9635 9.67259L42.7739 9.47727L43.1539 5.72727H47.3726V6.82812H44.2441L44.0345 8.75639H44.0771C44.2121 8.59777 44.4027 8.46638 44.6489 8.36222C44.8951 8.25568 45.165 8.20241 45.4585 8.20241C45.8989 8.20241 46.2919 8.30658 46.6375 8.51491C46.9832 8.72088 47.2554 9.00497 47.4543 9.36719C47.6531 9.7294 47.7526 10.1437 47.7526 10.6101C47.7526 11.0907 47.6413 11.5192 47.4188 11.8956C47.1986 12.2696 46.892 12.5644 46.499 12.7798C46.1084 12.9929 45.6562 13.0994 45.1425 13.0994ZM55.8083 5.52841L56.2558 6.35938C56.0972 6.49669 55.9196 6.59612 55.7231 6.65767C55.5266 6.71922 55.2958 6.75947 55.0306 6.77841C54.7678 6.79498 54.4553 6.80682 54.0931 6.81392C53.6859 6.82339 53.3533 6.90033 53.0953 7.04474C52.8372 7.18916 52.6395 7.40814 52.5022 7.7017C52.3649 7.9929 52.2749 8.36458 52.2323 8.81676H52.2927C52.4632 8.48295 52.7023 8.22846 53.01 8.05327C53.3178 7.87808 53.6788 7.79048 54.0931 7.79048C54.5453 7.79048 54.9442 7.89228 55.2899 8.09588C55.6379 8.29711 55.9089 8.58949 56.1031 8.97301C56.2996 9.35653 56.3978 9.82055 56.3978 10.3651C56.3978 10.9261 56.2925 11.4126 56.0818 11.8246C55.8711 12.2341 55.5716 12.5502 55.1833 12.7727C54.7974 12.9953 54.3393 13.1065 53.809 13.1065C53.2811 13.1065 52.8218 12.9917 52.4312 12.7621C52.0429 12.5301 51.7423 12.188 51.5292 11.7358C51.3185 11.2812 51.2132 10.7214 51.2132 10.0561V9.56605C51.2132 8.28291 51.4523 7.32528 51.9305 6.69318C52.4087 6.06108 53.1177 5.73911 54.0576 5.72727C54.337 5.72254 54.5867 5.72135 54.8069 5.72372C55.0294 5.72609 55.2236 5.71544 55.3893 5.69176C55.555 5.66809 55.6947 5.61364 55.8083 5.52841ZM53.8161 12.0767C54.0789 12.0767 54.3062 12.0092 54.498 11.8743C54.6897 11.737 54.8365 11.5429 54.9383 11.2919C55.0425 11.041 55.0945 10.7438 55.0945 10.4006C55.0945 10.062 55.0425 9.77438 54.9383 9.53764C54.8341 9.29853 54.6862 9.11624 54.4944 8.99077C54.3026 8.86529 54.0742 8.80256 53.809 8.80256C53.6102 8.80256 53.4314 8.83807 53.2728 8.90909C53.1142 8.98011 52.9793 9.08428 52.868 9.22159C52.7567 9.3589 52.6715 9.5258 52.6123 9.7223C52.5531 9.9188 52.5212 10.1449 52.5164 10.4006C52.5164 10.9143 52.6324 11.3227 52.8644 11.6257C53.0964 11.9264 53.4137 12.0767 53.8161 12.0767ZM59.0612 13.1101C58.7155 13.1101 58.4042 13.0485 58.1272 12.9254C57.8526 12.8 57.6348 12.6153 57.4738 12.3714C57.3152 12.1276 57.2359 11.8269 57.2359 11.4695C57.2359 11.1617 57.2927 10.9072 57.4063 10.706C57.52 10.5047 57.675 10.3438 57.8715 10.223C58.068 10.1023 58.2894 10.0111 58.5356 9.94957C58.7842 9.88565 59.041 9.83949 59.3062 9.81108C59.6258 9.77794 59.885 9.74834 60.0839 9.7223C60.2828 9.69389 60.4272 9.65128 60.5171 9.59446C60.6095 9.53527 60.6556 9.44413 60.6556 9.32102V9.29972C60.6556 9.0322 60.5763 8.82505 60.4177 8.67827C60.2591 8.53149 60.0306 8.4581 59.7323 8.4581C59.4175 8.4581 59.1677 8.52675 58.983 8.66406C58.8008 8.80137 58.6776 8.96354 58.6137 9.15057L57.4134 8.98011C57.5081 8.64867 57.6644 8.37169 57.8822 8.14915C58.1 7.92424 58.3663 7.75616 58.6812 7.64489C58.9961 7.53125 59.3441 7.47443 59.7252 7.47443C59.988 7.47443 60.2496 7.50521 60.51 7.56676C60.7704 7.62831 61.0084 7.73011 61.2238 7.87216C61.4392 8.01184 61.6121 8.20241 61.7423 8.44389C61.8749 8.68537 61.9411 8.98722 61.9411 9.34943V13H60.7053V12.2507H60.6627C60.5846 12.4022 60.4745 12.5443 60.3325 12.6768C60.1928 12.8071 60.0164 12.9124 59.8034 12.9929C59.5927 13.071 59.3453 13.1101 59.0612 13.1101ZM59.395 12.1655C59.653 12.1655 59.8767 12.1146 60.0661 12.0128C60.2555 11.9086 60.4011 11.7713 60.5029 11.6009C60.6071 11.4304 60.6592 11.2446 60.6592 11.0433V10.4006C60.6189 10.4337 60.5503 10.4645 60.4532 10.4929C60.3585 10.5213 60.252 10.5462 60.1336 10.5675C60.0152 10.5888 59.8981 10.6077 59.782 10.6243C59.666 10.6409 59.5654 10.6551 59.4802 10.6669C59.2884 10.6929 59.1168 10.7356 58.9653 10.7947C58.8138 10.8539 58.6942 10.9368 58.6066 11.0433C58.519 11.1475 58.4752 11.2824 58.4752 11.4482C58.4752 11.6849 58.5616 11.8636 58.7345 11.9844C58.9073 12.1051 59.1275 12.1655 59.395 12.1655ZM66.9802 9.74006V10.7947H64.0754V9.74006H66.9802ZM64.4731 7.54545V13H63.2338V7.54545H64.4731ZM67.8218 7.54545V13H66.586V7.54545H67.8218ZM69.1224 13V7.54545H70.4079V9.74716H70.8767L72.5173 7.54545H74.0656L72.045 10.223L74.0869 13H72.5315L71.0365 10.9439H70.4079V13H69.1224ZM76.9704 13.1065C76.4378 13.1065 75.9761 12.9893 75.5855 12.755C75.1949 12.5206 74.8918 12.1927 74.6764 11.7713C74.4633 11.3499 74.3568 10.8575 74.3568 10.294C74.3568 9.73059 74.4633 9.23698 74.6764 8.81321C74.8918 8.38944 75.1949 8.06037 75.5855 7.82599C75.9761 7.59162 76.4378 7.47443 76.9704 7.47443C77.5031 7.47443 77.9648 7.59162 78.3554 7.82599C78.746 8.06037 79.0479 8.38944 79.2609 8.81321C79.4764 9.23698 79.5841 9.73059 79.5841 10.294C79.5841 10.8575 79.4764 11.3499 79.2609 11.7713C79.0479 12.1927 78.746 12.5206 78.3554 12.755C77.9648 12.9893 77.5031 13.1065 76.9704 13.1065ZM76.9775 12.0767C77.2664 12.0767 77.5078 11.9974 77.702 11.8388C77.8961 11.6778 78.0405 11.4624 78.1352 11.1925C78.2323 10.9226 78.2808 10.6219 78.2808 10.2905C78.2808 9.95668 78.2323 9.65483 78.1352 9.38494C78.0405 9.11269 77.8961 8.89607 77.702 8.73509C77.5078 8.5741 77.2664 8.49361 76.9775 8.49361C76.6816 8.49361 76.4354 8.5741 76.2389 8.73509C76.0448 8.89607 75.8992 9.11269 75.8021 9.38494C75.7074 9.65483 75.6601 9.95668 75.6601 10.2905C75.6601 10.6219 75.7074 10.9226 75.8021 11.1925C75.8992 11.4624 76.0448 11.6778 76.2389 11.8388C76.4354 11.9974 76.6816 12.0767 76.9775 12.0767ZM80.6752 13V7.54545H82.9656C83.6119 7.54545 84.1221 7.67448 84.4962 7.93253C84.8726 8.19058 85.0608 8.55043 85.0608 9.01207C85.0608 9.31747 84.9543 9.56723 84.7412 9.76136C84.5305 9.95312 84.2429 10.0821 83.8783 10.1484C84.1647 10.1721 84.4157 10.2443 84.6311 10.3651C84.8489 10.4858 85.0194 10.6444 85.1425 10.8409C85.2656 11.0374 85.3271 11.2635 85.3271 11.5192C85.3271 11.8198 85.2478 12.0814 85.0892 12.304C84.933 12.5241 84.7045 12.6958 84.4039 12.8189C84.1056 12.9396 83.7433 13 83.3172 13H80.6752ZM81.879 11.9879H83.3172C83.5539 11.9879 83.7398 11.9323 83.8747 11.821C84.0097 11.7074 84.0771 11.5535 84.0771 11.3594C84.0771 11.1345 84.0097 10.9581 83.8747 10.8303C83.7398 10.7 83.5539 10.6349 83.3172 10.6349H81.879V11.9879ZM81.879 9.80398H82.9905C83.1657 9.80398 83.316 9.77912 83.4415 9.7294C83.567 9.67732 83.6628 9.60511 83.7291 9.51278C83.7954 9.41809 83.8286 9.30563 83.8286 9.17543C83.8286 8.9884 83.7516 8.84162 83.5977 8.73509C83.4462 8.62855 83.2355 8.57528 82.9656 8.57528H81.879V9.80398Z" fill="#121212"></path> </svg> 