<?xml version="1.0" encoding="UTF-8"?> <svg xmlns="http://www.w3.org/2000/svg" width="23" height="15" viewBox="0 0 23 15" fill="none"> <path d="M22.5 2C22.5 0.89543 21.6046 0 20.5 0H2C0.89543 0 0 0.895431 0 2V13C0 14.1046 0.895431 15 2 15H20.5C21.6046 15 22.5 14.1046 22.5 13V2Z" fill="#32AB45"></path> <path d="M11.25 2.25L2.8125 7.6117L11.25 12.75L19.6875 7.6117L11.25 2.25Z" fill="#FFE70E"></path> <path d="M14.4637 7.5C14.4637 9.15684 13.0246 10.5 11.2494 10.5C9.47425 10.5 8.03516 9.15684 8.03516 7.5C8.03516 5.84316 9.47425 4.5 11.2494 4.5C13.0246 4.5 14.4637 5.84316 14.4637 7.5Z" fill="#2A2FAF"></path> <path fill-rule="evenodd" clip-rule="evenodd" d="M8.50823 5.9325C8.87265 5.85398 9.25224 5.8125 9.64222 5.8125C11.694 5.8125 13.4585 6.96084 14.2379 8.60653C14.0495 9.0495 13.7513 9.44063 13.3746 9.7507C13.0059 8.14299 11.4749 6.9375 9.64222 6.9375C9.07194 6.9375 8.53088 7.05422 8.04492 7.26347C8.08545 6.77827 8.24968 6.32545 8.50823 5.9325Z" fill="#FBFBFB"></path> </svg> 