<?xml version="1.0" encoding="UTF-8"?> <svg xmlns="http://www.w3.org/2000/svg" width="60" height="20" viewBox="0 0 60 20" fill="none"> <path d="M57.2472 7.14487H60C59.6518 4.46549 57.695 3.05713 54.9752 3.05713C52.2224 3.05713 50.3816 4.51704 50.3816 7.02464C50.3816 9.87573 52.753 10.5112 54.0133 10.7689C55.6385 11.0952 57.2306 11.1296 57.2306 12.5722C57.2306 13.5512 56.4346 14.0321 55.3069 14.0321C53.9139 14.0321 52.9853 13.3108 52.753 12.0055H50.0333C50.1991 14.8223 52.1726 16.3337 55.0748 16.3337C57.7613 16.3337 59.9668 15.0627 59.9668 12.3147C59.9668 9.36045 57.4296 8.82805 55.6551 8.55323C54.4445 8.36433 53.1178 8.19255 53.1178 6.87004C53.1178 5.94259 53.7978 5.37583 54.942 5.37583C56.2688 5.37583 57.0647 6.14875 57.2472 7.14487Z" fill="#121212"></path> <path d="M48.5243 3.48669H45.9207V15.9387H48.5243V3.48669Z" fill="#121212"></path> <path d="M38.0599 11.5934H41.4596C40.9289 12.9332 39.7348 13.5686 38.3584 13.5686C35.9373 13.5686 34.8096 11.6278 34.8096 9.70416C34.8096 7.76332 35.8709 5.7882 38.3419 5.7882C39.851 5.7882 40.9786 6.50956 41.4098 7.7977L44.2124 7.79771C43.7315 4.89513 41.2771 3.22913 38.3751 3.22913C34.793 3.22913 32.1064 5.75383 32.1064 9.73853C32.1064 13.7747 35.0251 16.1621 38.3584 16.1621C41.642 16.1621 44.2124 13.9465 44.2124 10.4771V9.4637H38.0599V11.5934Z" fill="#121212"></path> <path d="M26.1532 3.22925C23.1681 3.22925 20.9625 5.17001 20.9791 8.39896H23.6657C23.6325 6.9906 24.4948 5.70247 26.0205 5.70247C27.3472 5.70247 28.1266 6.6643 28.1266 7.76346C28.1266 8.86269 27.3472 9.48102 25.9044 10.1509C23.9309 11.0612 22.5214 11.6451 21.0786 12.1604V15.9389H31.1282V13.397H24.229C24.229 13.397 24.252 13.3895 24.2633 13.386C25.4368 13.0177 26.3184 12.6177 27.3638 12.1432C29.6025 11.1127 30.8795 9.82451 30.8795 7.62611C30.8795 4.92954 28.9558 3.22925 26.1532 3.22925Z" fill="#121212"></path> <path d="M13.9136 11.559C10.5305 11.5762 9.98328 13.6888 9.8009 15.475L9.71799 16.265H9.03801L8.9551 15.475C8.77272 13.6888 8.20888 11.5762 4.94189 11.559C4.39464 10.3911 4.16247 9.44643 4.16247 8.38157C4.16247 5.71945 6.2686 3.22896 9.38625 3.22896C12.504 3.22896 14.5769 5.70218 14.5769 8.39882C14.5769 9.44643 14.4774 10.3911 13.9136 11.559ZM9.35315 0C4.21227 0 0 4.36257 0 9.704C0 15.0628 4.21227 19.4253 9.35315 19.4253C14.5437 19.4253 18.7394 15.0628 18.7394 9.704C18.7394 4.36258 14.5437 0 9.35315 0Z" fill="#29B24A"></path> </svg> 