<?xml version="1.0" encoding="UTF-8"?> <svg xmlns="http://www.w3.org/2000/svg" width="49" height="30" viewBox="0 0 49 30" fill="none"> <path d="M30.8291 26.7923H17.7051V3.20654H30.8294L30.8291 26.7923Z" fill="#FF5F00"></path> <path d="M18.5386 15C18.5386 10.2156 20.7787 5.95371 24.2671 3.20714C21.6266 1.12506 18.3607 -0.0049522 14.998 1.63146e-05C6.71465 1.63146e-05 0 6.71564 0 15C0 23.2844 6.71465 30 14.998 30C18.3608 30.005 21.6268 28.875 24.2673 26.7929C20.7792 24.0468 18.5386 19.7846 18.5386 15Z" fill="#EB001B"></path> <path d="M48.5361 15C48.5361 23.2844 41.8215 30 33.5381 30C30.175 30.0049 26.9087 28.8749 24.2676 26.7929C27.7569 24.0463 29.9971 19.7846 29.9971 15C29.9971 10.2154 27.7569 5.95371 24.2676 3.20714C26.9086 1.12513 30.1748 -0.00486511 33.5378 1.57455e-05C41.8212 1.57455e-05 48.5359 6.71564 48.5359 15" fill="#F79E1B"></path> </svg> 