<?xml version="1.0" encoding="UTF-8"?> <svg xmlns="http://www.w3.org/2000/svg" width="30" height="30" viewBox="0 0 30 30" fill="none"> <circle cx="15" cy="15" r="15" fill="url(#paint0_linear_855_2076)"></circle> <path d="M8.95052 8.40039H22.228C22.5372 8.40039 22.7879 8.65106 22.7879 8.96028V11.5713C22.7879 11.9191 22.637 12.2484 22.3743 12.4763L14.9494 18.6877H22.228C22.5372 18.6877 22.7879 18.9338 22.7879 19.243V22.2405C22.7879 22.5497 22.5372 22.8004 22.228 22.8004H8.95052C8.6413 22.8004 8.39062 22.5497 8.39062 22.2405V19.6338C8.39062 19.286 8.54154 18.9567 8.80428 18.7288L16.2291 12.5174H8.95052C8.6413 12.5174 8.39062 12.261 8.39062 11.9518V8.96028C8.39062 8.65106 8.6413 8.40039 8.95052 8.40039Z" fill="white"></path> <defs> <linearGradient id="paint0_linear_855_2076" x1="25.8" y1="26.4" x2="3.6" y2="5.4" gradientUnits="userSpaceOnUse"> <stop stop-color="#6339F5"></stop> <stop offset="1" stop-color="#3D3F55"></stop> </linearGradient> </defs> </svg> 