<?xml version="1.0" encoding="UTF-8"?> <svg xmlns="http://www.w3.org/2000/svg" width="100" height="16" viewBox="0 0 100 16" fill="none"> <path fill-rule="evenodd" clip-rule="evenodd" d="M48.3647 12.9819C49.3533 12.9819 50.0377 12.8274 50.57 12.441V10.6637C50.0377 11.0501 49.3533 11.2819 48.4407 11.2819C46.9198 11.2819 46.2354 10.0455 46.2354 8.19098C46.2354 6.18187 46.9959 5.17732 48.4407 5.17732C49.2772 5.17732 50.1138 5.48641 50.494 5.71823V3.7864C50.0377 3.55458 49.2772 3.32276 48.2126 3.32276C45.4749 3.32276 44.0301 5.33186 44.0301 8.11371C44.1061 11.2046 45.4749 12.9819 48.3647 12.9819ZM34.9045 12.1319V10.3546C34.2201 10.8183 33.0794 11.2046 32.0908 11.2046C30.4938 11.2046 29.8854 10.4319 29.8094 8.88644H34.9805V7.72734C34.9805 4.48186 33.6117 3.32276 31.4064 3.32276C28.8208 3.32276 27.528 5.33186 27.528 8.11371C27.528 11.3592 29.0489 12.9047 31.8626 12.9047C33.2315 12.9819 34.2961 12.5956 34.9045 12.1319ZM41.7487 12.7501L38.5547 8.26825V12.7501H36.4254V3.4773H38.5547V7.80461L41.5966 3.4773H43.8019L40.7601 7.80461L44.1821 12.7501H41.7487ZM27.0717 11.0501H26.0831V3.55458H19.8473V4.32731C19.8473 6.56824 19.6952 9.50463 18.9348 11.0501H18.2504V14.9138H20.2276V12.8274H25.0185V14.9138H26.9957V11.0501H27.0717ZM15.2085 3.55458V7.18643H12.3187V3.55458H10.1895V12.8274H12.3187V8.96372H15.2085V12.8274H17.3378V3.55458H15.2085ZM31.4064 5.10004C32.471 5.10004 32.7752 6.02733 32.7752 7.18643V7.34097H29.8094C29.8854 5.87278 30.3417 5.10004 31.4064 5.10004ZM23.9538 11.0501H20.912C21.5203 9.65918 21.6724 7.10915 21.6724 5.56368V5.25459H23.9538V11.0501ZM61.8249 12.7501H64.4105L59.9237 6.02733L63.9542 0H61.7488L57.7944 5.87278V0H55.5891V12.7501H57.7944V6.80006L61.8249 12.7501ZM71.7109 6.49097C71.7109 4.25004 70.5702 3.40003 68.2888 3.40003C66.8439 3.40003 65.7032 3.86367 65.0949 4.25004V6.1046C65.7032 5.64096 66.92 5.17732 68.0607 5.17732C69.1253 5.17732 69.5816 5.56369 69.5816 6.56824V7.10915H69.2014C65.9314 7.10915 64.4865 8.19098 64.4865 10.1228C64.4865 11.9774 65.6272 13.0592 67.3002 13.0592C68.593 13.0592 69.1253 12.6728 69.5056 12.2092H69.5816C69.5816 12.441 69.6576 12.7501 69.7337 12.9819H71.863C71.7869 12.2092 71.7869 11.5137 71.7869 10.741V6.49097H71.7109ZM69.5056 10.5865C69.2014 10.9728 68.7451 11.3592 67.9846 11.3592C67.0721 11.3592 66.6158 10.8183 66.6158 10.0455C66.6158 8.96371 67.3763 8.57735 69.2014 8.57735H69.5056V10.5865ZM75.4372 3.55458H73.46V15.4547H75.5893V11.7456C76.1216 12.5956 76.9581 12.9819 77.8707 12.9819C79.9999 12.9819 81.4448 11.2819 81.4448 8.19098C81.4448 5.10004 79.9999 3.40003 78.0227 3.40003C77.0341 3.40003 76.1976 3.86367 75.5893 4.79095L75.4372 3.55458ZM77.2623 11.2046C76.1216 11.2046 75.5132 10.2774 75.5132 8.11371C75.5132 5.95005 76.1216 5.02277 77.3383 5.02277C78.479 5.02277 79.0874 5.95005 79.0874 8.11371C79.1634 10.2774 78.5551 11.2046 77.2623 11.2046ZM88.9734 5.25459V3.55458H81.749V5.25459H84.2585V12.7501H86.3878V5.25459H88.9734ZM90.1901 3.55458V12.8274H93.4601C95.5894 12.8274 97.1104 11.7456 97.1104 9.5819C97.1104 7.49552 95.7415 6.41369 93.5362 6.41369H92.3955V3.55458H90.1901ZM97.8708 3.55458V12.8274H100V3.55458H97.8708ZM93.3841 11.0501H92.3955V8.11371H93.4601C94.3727 8.11371 94.905 8.50007 94.905 9.5819C94.905 10.6637 94.2966 11.0501 93.3841 11.0501Z" fill="#121212"></path> <path fill-rule="evenodd" clip-rule="evenodd" d="M6.15975 12.7501H8.36509V0H5.17115C1.9772 0 0.304185 1.70002 0.304185 4.09549C0.304185 6.02733 1.21674 7.18643 2.88976 8.4228L0 12.7501H2.35743L5.55138 7.88189L4.48673 7.10915C3.1179 6.25915 2.43348 5.56369 2.43348 4.01822C2.43348 2.6273 3.34604 1.77729 5.17115 1.77729H6.15975V12.7501Z" fill="#FF3333"></path> </svg> 