<?xml version="1.0" encoding="UTF-8"?> <svg xmlns="http://www.w3.org/2000/svg" width="62" height="20" viewBox="0 0 62 20" fill="none"> <path d="M58.9409 7.35614H61.7753C61.4168 4.59749 59.402 3.14746 56.6017 3.14746C53.7675 3.14746 51.8722 4.65057 51.8722 7.23236C51.8722 10.1678 54.3138 10.822 55.6115 11.0874C57.2847 11.4234 58.9239 11.4587 58.9239 12.9441C58.9239 13.9521 58.1043 14.4472 56.9433 14.4472C55.509 14.4472 54.5529 13.7045 54.3138 12.3606H51.5137C51.6844 15.2607 53.7163 16.8168 56.7043 16.8168C59.4703 16.8168 61.7411 15.5083 61.7411 12.6789C61.7411 9.63729 59.1288 9.08913 57.3018 8.80617C56.0554 8.61169 54.6895 8.43482 54.6895 7.07319C54.6895 6.11829 55.3895 5.53476 56.5676 5.53476C57.9336 5.53476 58.7531 6.33056 58.9409 7.35614Z" fill="#403F41"></path> <path d="M49.9601 3.58984H47.2794V16.4103H49.9601V3.58984Z" fill="#403F41"></path> <path d="M39.186 11.9364H42.6863C42.1399 13.3158 40.9105 13.9699 39.4933 13.9699C37.0006 13.9699 35.8395 11.9718 35.8395 9.9912C35.8395 7.99294 36.9322 5.95938 39.4763 5.95938C41.0301 5.95938 42.191 6.70208 42.635 8.02833L45.5205 8.02834C45.0254 5.03989 42.4984 3.32458 39.5105 3.32458C35.8225 3.32458 33.0564 5.92399 33.0564 10.0266C33.0564 14.1822 36.0614 16.6402 39.4933 16.6402C42.8741 16.6402 45.5205 14.3591 45.5205 10.787V9.74363H39.186V11.9364Z" fill="#403F41"></path> <path d="M26.9269 3.32471C23.8535 3.32471 21.5826 5.32289 21.5997 8.64738H24.3657C24.3316 7.19735 25.2194 5.87111 26.7902 5.87111C28.1562 5.87111 28.9587 6.86139 28.9587 7.99307C28.9587 9.12483 28.1562 9.76145 26.6707 10.4512C24.6389 11.3883 23.1876 11.9896 21.7021 12.5201V16.4104H32.0491V13.7933H24.9458C24.9458 13.7933 24.9695 13.7856 24.9811 13.782C26.1893 13.4028 27.097 12.9909 28.1733 12.5024C30.4783 11.4414 31.793 10.1151 31.793 7.85166C31.793 5.07531 29.8124 3.32471 26.9269 3.32471Z" fill="#403F41"></path> <path d="M14.3253 11.901C10.8421 11.9187 10.2787 14.0938 10.0909 15.9329L10.0055 16.7463H9.30542L9.22006 15.9329C9.03228 14.0938 8.45176 11.9187 5.08811 11.901C4.52467 10.6985 4.28563 9.72592 4.28563 8.62956C4.28563 5.88867 6.45407 3.32449 9.66397 3.32449C12.8739 3.32449 15.0082 5.87089 15.0082 8.64732C15.0082 9.72592 14.9058 10.6985 14.3253 11.901ZM9.62988 0C4.3369 0 0 4.49164 0 9.99112C0 15.5084 4.3369 20 9.62988 20C14.974 20 19.2939 15.5084 19.2939 9.99112C19.2939 4.49166 14.974 0 9.62988 0Z" fill="#29B24A"></path> </svg> 