<?xml version="1.0" encoding="UTF-8"?> <svg xmlns="http://www.w3.org/2000/svg" width="185" height="185" viewBox="0 0 185 185" fill="none"><circle cx="92.5" cy="92.5" r="92.5" fill="white"></circle><path d="M74.9854 119V113.114L93.1964 94.2457C95.141 92.196 96.744 90.4003 98.0053 88.8587C99.2842 87.2995 100.239 85.8191 100.87 84.4176C101.5 83.0161 101.816 81.527 101.816 79.9503C101.816 78.1633 101.395 76.6217 100.554 75.3253C99.7134 74.0114 98.5659 73.004 97.1119 72.3033C95.6578 71.585 94.0198 71.2258 92.1978 71.2258C90.2707 71.2258 88.5889 71.62 87.1523 72.4084C85.7158 73.1967 84.6121 74.3092 83.8413 75.7457C83.0704 77.1823 82.685 78.8641 82.685 80.7912H74.9329C74.9329 77.5151 75.6862 74.6508 77.1928 72.1982C78.6995 69.7455 80.7667 67.8447 83.3945 66.4957C86.0224 65.1293 89.0094 64.446 92.3555 64.446C95.7366 64.446 98.7148 65.1205 101.29 66.4695C103.883 67.8009 105.906 69.6229 107.36 71.9354C108.815 74.2303 109.542 76.8232 109.542 79.7138C109.542 81.7109 109.165 83.6643 108.412 85.5739C107.676 87.4834 106.388 89.612 104.549 91.9595C102.709 94.2895 100.151 97.1188 96.8754 100.447L86.18 111.642V112.036H110.409V119H74.9854Z" fill="#005DA9"></path></svg> 