<?xml version="1.0" encoding="UTF-8"?> <svg xmlns="http://www.w3.org/2000/svg" width="25" height="17" viewBox="0 0 25 17" fill="none"> <path d="M23 0H2C0.89543 0 0 0.89543 0 2V14.6667C0 15.7712 0.89543 16.6667 2 16.6667H23C24.1046 16.6667 25 15.7712 25 14.6667V2C25 0.895431 24.1046 0 23 0Z" fill="#F4F4F4"></path> <path d="M18.6606 12.6032L17.7109 14.0276L18.2293 14.3731L19.1789 12.9487L18.6606 12.6032Z" fill="black"></path> <path d="M17.8949 12.0847L16.9453 13.5092L17.4636 13.8547L18.4132 12.4303L17.8949 12.0847Z" fill="black"></path> <path d="M17.0041 11.5232L16.0625 12.9441L16.5795 13.2867L17.5211 11.8658L17.0041 11.5232Z" fill="black"></path> <path d="M19.7856 10.9174L18.8359 12.3418L19.3543 12.6873L20.3039 11.2629L19.7856 10.9174Z" fill="black"></path> <path d="M19.0043 10.3989L18.0547 11.8234L18.573 12.1689L19.5226 10.7445L19.0043 10.3989Z" fill="black"></path> <path d="M18.2387 9.88282L17.2891 11.3073L17.8074 11.6528L18.757 10.2284L18.2387 9.88282Z" fill="black"></path> <path d="M6.83863 9.88273L6.32031 10.2283L8.3917 13.3354L8.91002 12.9898L6.83863 9.88273Z" fill="black"></path> <path d="M7.18238 12.0848L6.66406 12.4303L7.61368 13.8547L8.132 13.5092L7.18238 12.0848Z" fill="black"></path> <path d="M6.05738 10.4013L5.53906 10.7468L6.48868 12.1713L7.007 11.8257L6.05738 10.4013Z" fill="black"></path> <path d="M5.20454 10.9181L4.6875 11.2607L6.74134 14.3602L7.25838 14.0176L5.20454 10.9181Z" fill="black"></path> <path d="M19.2827 4.04728L18.7656 4.38989L19.7072 5.81081L20.2242 5.4682L19.2827 4.04728Z" fill="black"></path> <path d="M18.2293 2.28654L17.7109 2.63208L18.6606 4.05651L19.1789 3.71097L18.2293 2.28654Z" fill="black"></path> <path d="M17.4636 2.80741L16.9453 3.15295L19.0167 6.26004L19.535 5.9145L17.4636 2.80741Z" fill="black"></path> <path d="M17.8074 5.00468L17.2891 5.35022L18.2387 6.77465L18.757 6.42911L17.8074 5.00468Z" fill="black"></path> <path d="M16.6108 3.38224L16.0938 3.72485L17.0353 5.14577L17.5524 4.80316L16.6108 3.38224Z" fill="black"></path> <path d="M8.3917 3.31967L6.32031 6.42676L6.83863 6.7723L8.91002 3.66521L8.3917 3.31967Z" fill="black"></path> <path d="M7.61045 2.80343L5.53906 5.91052L6.05738 6.25606L8.12876 3.14898L7.61045 2.80343Z" fill="black"></path> <path d="M6.84483 2.28964L4.77344 5.39673L5.29175 5.74227L7.36314 2.63518L6.84483 2.28964Z" fill="black"></path> <path d="M9.43246 6.25696C8.88274 7.08124 8.68298 8.09014 8.87713 9.0617C9.07127 10.0333 9.64342 10.8879 10.4677 11.4376C11.292 11.9874 12.3009 12.1871 13.2724 11.993C14.244 11.7988 15.0987 11.2267 15.6484 10.4024C15.9234 9.99025 16.0234 9.48575 15.9264 8.99986C15.8295 8.51397 15.5435 8.08651 15.1313 7.8115C14.7192 7.53649 14.2147 7.43647 13.7288 7.53343C13.2429 7.6304 12.8154 7.91642 12.5404 8.32856C12.2629 8.73404 11.8367 9.01382 11.3543 9.10726C10.8719 9.2007 10.3722 9.10028 9.96329 8.82775C9.55443 8.55523 9.26943 8.13255 9.17007 7.65134C9.0707 7.17013 9.16498 6.66914 9.43246 6.25696V6.25696Z" fill="#003478"></path> <path d="M9.4338 6.25742C9.16632 6.6696 9.07204 7.17058 9.17141 7.6518C9.27077 8.13301 9.55577 8.55568 9.96463 8.82821C10.3735 9.10074 10.8733 9.20116 11.3557 9.10772C11.8381 9.01428 12.2642 8.7345 12.5418 8.32901C12.8193 7.92353 13.2454 7.64375 13.7278 7.55031C14.2102 7.45687 14.71 7.55729 15.1189 7.82982C15.5277 8.10234 15.8127 8.52502 15.9121 9.00623C16.0115 9.48744 15.9172 9.98843 15.6497 10.4006C16.1994 9.57633 16.3992 8.56743 16.205 7.59587C16.0109 6.6243 15.4388 5.76965 14.6145 5.21994C13.7902 4.67022 12.7813 4.47046 11.8097 4.6646C10.8382 4.85875 9.98352 5.43089 9.4338 6.25517V6.25742Z" fill="#C60C30"></path> </svg> 