<?xml version="1.0" encoding="UTF-8"?> <svg xmlns="http://www.w3.org/2000/svg" width="36" height="36" viewBox="0 0 36 36" fill="none"><circle cx="18" cy="18" r="18" fill="white" fill-opacity="0.1"></circle><path d="M16.777 20.7145V20.5972C16.7852 19.8316 16.8614 19.2223 17.0054 18.7695C17.1536 18.3167 17.3636 17.9504 17.6352 17.6705C17.9069 17.3906 18.2342 17.1354 18.617 16.9048C18.864 16.7484 19.0863 16.5735 19.2838 16.38C19.4814 16.1865 19.6378 15.9643 19.7531 15.7132C19.8684 15.4621 19.926 15.1842 19.926 14.8796C19.926 14.5132 19.8395 14.1963 19.6667 13.9287C19.4938 13.6612 19.2633 13.4553 18.9751 13.3113C18.6911 13.1631 18.3741 13.089 18.0242 13.089C17.7073 13.089 17.4047 13.1549 17.1166 13.2866C16.8284 13.4183 16.5897 13.6241 16.4003 13.904C16.211 14.1798 16.1019 14.5359 16.0731 14.9722H14.196C14.2249 14.2313 14.4122 13.6056 14.7579 13.0952C15.1037 12.5806 15.5606 12.1916 16.1287 11.9282C16.7008 11.6647 17.3327 11.533 18.0242 11.533C18.7816 11.533 19.4444 11.675 20.0124 11.9591C20.5805 12.239 21.0209 12.6321 21.3338 13.1384C21.6507 13.6406 21.8092 14.2272 21.8092 14.8981C21.8092 15.3592 21.7372 15.7749 21.5931 16.1454C21.449 16.5117 21.2432 16.839 20.9756 17.1271C20.7122 17.4153 20.3952 17.6705 20.0248 17.8928C19.6749 18.1109 19.3909 18.3373 19.1727 18.572C18.9586 18.8066 18.8022 19.0844 18.7034 19.4055C18.6046 19.7266 18.5511 20.1238 18.5429 20.5972V20.7145H16.777ZM17.7093 24.4686C17.3718 24.4686 17.0816 24.3492 16.8387 24.1105C16.5959 23.8676 16.4744 23.5754 16.4744 23.2337C16.4744 22.8962 16.5959 22.608 16.8387 22.3693C17.0816 22.1264 17.3718 22.005 17.7093 22.005C18.0428 22.005 18.3309 22.1264 18.5738 22.3693C18.8207 22.608 18.9442 22.8962 18.9442 23.2337C18.9442 23.4601 18.8866 23.668 18.7714 23.8573C18.6602 24.0426 18.512 24.1908 18.3268 24.3019C18.1416 24.413 17.9357 24.4686 17.7093 24.4686Z" fill="white"></path><path fill-rule="evenodd" clip-rule="evenodd" d="M18.024 11.6676C17.35 11.6676 16.7378 11.7959 16.185 12.0504C15.6392 12.3035 15.2015 12.6763 14.8697 13.1701C14.5623 13.6239 14.3832 14.178 14.3382 14.8368H15.9488C15.9903 14.4387 16.1015 14.1002 16.2885 13.8276C16.4908 13.5288 16.7481 13.3061 17.0602 13.1634C17.366 13.0236 17.6876 12.9536 18.024 12.9536C18.3931 12.9536 18.7315 13.0319 19.0363 13.1907C19.3453 13.3454 19.5938 13.5673 19.7798 13.8551C19.9688 14.1476 20.0607 14.4909 20.0607 14.8792C20.0607 15.2013 19.9997 15.4986 19.8755 15.7691C19.7534 16.0352 19.5874 16.2711 19.378 16.4761C19.1733 16.6765 18.9435 16.8573 18.6889 17.0185L18.6864 17.0201C18.3121 17.2455 17.9943 17.4937 17.7318 17.7641C17.4774 18.0263 17.2768 18.3733 17.1337 18.8106C16.9966 19.2416 16.9211 19.8292 16.9119 20.5791H18.4079C18.4172 20.1044 18.4715 19.6989 18.5741 19.3654C18.6784 19.0264 18.8444 18.7308 19.0727 18.4806L19.0736 18.4797C19.3018 18.2342 19.5958 18.0006 19.9531 17.7778L19.955 17.7766C20.3155 17.5603 20.622 17.3132 20.8757 17.0356L20.8764 17.0349C21.1324 16.7592 21.3291 16.4465 21.467 16.096C21.6041 15.7434 21.6739 15.3447 21.6739 14.8977C21.6739 14.2489 21.521 13.688 21.2193 13.2101L21.2186 13.209C20.92 12.7256 20.4993 12.3492 19.9525 12.0798C19.4065 11.8068 18.7644 11.6676 18.024 11.6676ZM18.6776 20.598V20.8491H16.6417V20.5954C16.65 19.8234 16.7267 19.1992 16.8765 18.7282L16.8769 18.7272C17.03 18.2591 17.2493 17.8736 17.5381 17.5761C17.8186 17.287 18.1549 17.0251 18.5458 16.7896C18.7847 16.6382 18.999 16.4693 19.1891 16.2832C19.3749 16.1012 19.5218 15.8926 19.6301 15.6565C19.7365 15.4248 19.7907 15.1664 19.7907 14.8792C19.7907 14.5349 19.7097 14.2442 19.553 14.0016C19.3934 13.7546 19.1813 13.565 18.9145 13.4316L18.9124 13.4306C18.6494 13.2934 18.3542 13.2236 18.024 13.2236C17.7264 13.2236 17.443 13.2853 17.1724 13.409C16.9083 13.5297 16.6883 13.7185 16.5119 13.9793L16.5114 13.9801C16.3393 14.2306 16.2352 14.5614 16.2075 14.9807L16.1992 15.1068H14.0554L14.0609 14.9666C14.0905 14.2057 14.2833 13.5544 14.6457 13.0193C15.0054 12.4842 15.4815 12.079 16.0716 11.8053C16.6631 11.533 17.3149 11.3976 18.024 11.3976C18.7982 11.3976 19.4822 11.5428 20.0722 11.8378C20.6611 12.128 21.1211 12.5376 21.448 13.0665C21.7801 13.5929 21.9439 14.2049 21.9439 14.8977C21.9439 15.3729 21.8697 15.8056 21.7186 16.1939C21.5685 16.5758 21.3535 16.9178 21.0747 17.2182C20.8018 17.5165 20.4749 17.7795 20.095 18.0075C19.7531 18.2208 19.4796 18.4396 19.2717 18.663C19.0721 18.882 18.9254 19.1419 18.8322 19.4448C18.7384 19.7497 18.6858 20.1331 18.6776 20.598ZM17.7091 22.1396C17.408 22.1396 17.152 22.2463 16.9339 22.4644L16.9331 22.4652C16.7158 22.6788 16.6092 22.9324 16.6092 23.2333C16.6092 23.5388 16.7161 23.7966 16.9335 24.0142C17.1513 24.2281 17.4075 24.3332 17.7091 24.3332C17.9122 24.3332 18.0938 24.2837 18.2571 24.1858C18.4233 24.086 18.5556 23.9537 18.6553 23.7875C18.7574 23.6198 18.809 23.4355 18.809 23.2333C18.809 22.9331 18.7009 22.6798 18.4797 22.466L18.478 22.4644C18.2596 22.246 18.0055 22.1396 17.7091 22.1396ZM16.7434 22.273C17.011 22.0056 17.3352 21.8696 17.7091 21.8696C18.0791 21.8696 18.401 22.0058 18.6681 22.2726C18.9404 22.5362 19.079 22.8588 19.079 23.2333C19.079 23.4838 19.0149 23.7159 18.8867 23.9267C18.7641 24.1308 18.6001 24.2948 18.396 24.4173C18.1887 24.5416 17.9587 24.6032 17.7091 24.6032C17.3358 24.6032 17.0117 24.4697 16.7438 24.2064L16.743 24.2056C16.475 23.9375 16.3392 23.611 16.3392 23.2333C16.3392 22.8594 16.4753 22.5368 16.7434 22.273Z" fill="white"></path></svg> 