<?xml version="1.0" encoding="UTF-8"?> <svg xmlns="http://www.w3.org/2000/svg" width="100" height="16" viewBox="0 0 100 16" fill="none"> <path fill-rule="evenodd" clip-rule="evenodd" d="M48.3627 12.9819C49.3513 12.9819 50.0358 12.8274 50.5681 12.441V10.6637C50.0358 11.0501 49.3513 11.2819 48.4388 11.2819C46.9179 11.2819 46.2334 10.0455 46.2334 8.19098C46.2334 6.18187 46.9939 5.17732 48.4388 5.17732C49.2753 5.17732 50.1118 5.48641 50.492 5.71823V3.7864C50.0358 3.55458 49.2753 3.32276 48.2106 3.32276C45.473 3.32276 44.0281 5.33187 44.0281 8.11371C44.1041 11.2046 45.473 12.9819 48.3627 12.9819ZM34.9025 12.1319V10.3546C34.2181 10.8183 33.0774 11.2046 32.0888 11.2046C30.4919 11.2046 29.8835 10.4319 29.8074 8.88644H34.9786V7.72734C34.9786 4.48186 33.6098 3.32276 31.4044 3.32276C28.8188 3.32276 27.5261 5.33187 27.5261 8.11371C27.5261 11.3592 29.047 12.9047 31.8607 12.9047C33.2295 12.9819 34.2942 12.5956 34.9025 12.1319ZM41.7467 12.7501L38.5528 8.26825V12.7501H36.4235V3.4773H38.5528V7.80461L41.5946 3.4773H43.8L40.7581 7.80461L44.1802 12.7501H41.7467ZM27.0698 11.0501H26.0812V3.55458H19.8454V4.32731C19.8454 6.56824 19.6933 9.50463 18.9328 11.0501H18.2484V14.9138H20.2256V12.8274H25.0165V14.9138H26.9937V11.0501H27.0698ZM15.2066 3.55458V7.18643H12.3168V3.55458H10.1875V12.8274H12.3168V8.96372H15.2066V12.8274H17.3359V3.55458H15.2066ZM31.4044 5.10004C32.4691 5.10004 32.7732 6.02733 32.7732 7.18643V7.34097H29.8074C29.8835 5.87278 30.3398 5.10004 31.4044 5.10004ZM23.9519 11.0501H20.91C21.5184 9.65918 21.6705 7.10915 21.6705 5.56368V5.25459H23.9519V11.0501ZM61.8229 12.7501H64.4085L59.9218 6.02733L63.9522 0H61.7469L57.7925 5.87278V0H55.5871V12.7501H57.7925V6.80006L61.8229 12.7501ZM71.7089 6.49097C71.7089 4.25004 70.5683 3.40003 68.2869 3.40003C66.842 3.40003 65.7013 3.86367 65.0929 4.25004V6.1046C65.7013 5.64096 66.918 5.17732 68.0587 5.17732C69.1234 5.17732 69.5796 5.56369 69.5796 6.56824V7.10915H69.1994C65.9294 7.10915 64.4846 8.19098 64.4846 10.1228C64.4846 11.9774 65.6252 13.0592 67.2983 13.0592C68.591 13.0592 69.1234 12.6728 69.5036 12.2092H69.5796C69.5796 12.441 69.6557 12.7501 69.7317 12.9819H71.861C71.785 12.2092 71.785 11.5137 71.785 10.741V6.49097H71.7089ZM69.5036 10.5865C69.1994 10.9728 68.7431 11.3592 67.9827 11.3592C67.0701 11.3592 66.6138 10.8183 66.6138 10.0455C66.6138 8.96371 67.3743 8.57735 69.1994 8.57735H69.5036V10.5865ZM75.4352 3.55458H73.458V15.4547H75.5873V11.7456C76.1196 12.5956 76.9561 12.9819 77.8687 12.9819C79.998 12.9819 81.4429 11.2819 81.4429 8.19098C81.4429 5.10004 79.998 3.40003 78.0208 3.40003C77.0322 3.40003 76.1957 3.86367 75.5873 4.79095L75.4352 3.55458ZM77.2603 11.2046C76.1196 11.2046 75.5113 10.2774 75.5113 8.11371C75.5113 5.95005 76.1196 5.02277 77.3364 5.02277C78.4771 5.02277 79.0854 5.95005 79.0854 8.11371C79.1615 10.2774 78.5531 11.2046 77.2603 11.2046ZM88.9714 5.25459V3.55458H81.7471V5.25459H84.2566V12.7501H86.3859V5.25459H88.9714ZM90.1882 3.55458V12.8274H93.4582C95.5875 12.8274 97.1084 11.7456 97.1084 9.5819C97.1084 7.49552 95.7396 6.41369 93.5342 6.41369H92.3935V3.55458H90.1882ZM97.8689 3.55458V12.8274H99.9982V3.55458H97.8689ZM93.3821 11.0501H92.3935V8.11371H93.4582C94.3707 8.11371 94.9031 8.50007 94.9031 9.5819C94.9031 10.6637 94.2947 11.0501 93.3821 11.0501Z" fill="white"></path> <path fill-rule="evenodd" clip-rule="evenodd" d="M6.15975 12.7501H8.36509V0H5.17115C1.9772 0 0.304185 1.70002 0.304185 4.09549C0.304185 6.02733 1.21674 7.18643 2.88976 8.4228L0 12.7501H2.35743L5.55138 7.88189L4.48673 7.10915C3.1179 6.25915 2.43348 5.56369 2.43348 4.01822C2.43348 2.6273 3.34604 1.77729 5.17115 1.77729H6.15975V12.7501Z" fill="#FF3333"></path> </svg> 