<?xml version="1.0" encoding="UTF-8"?> <svg xmlns="http://www.w3.org/2000/svg" width="212" height="140" viewBox="0 0 212 140" fill="none"><path d="M210.52 132.821C210.538 132.197 210.331 131.57 210.13 130.963C210.035 130.675 209.936 130.377 209.862 130.079C209.433 128.371 209.331 126.627 209.559 124.894C209.577 124.756 209.598 124.617 209.62 124.475C209.73 123.734 209.845 122.968 209.59 122.29C209.287 121.479 208.618 120.752 208.142 120.274C207.151 119.283 205.785 118.542 204.193 118.133C203.05 117.84 201.784 117.703 200.326 117.716C199.522 117.723 198.67 117.773 197.645 117.874C196.018 118.035 194.421 118.27 192.899 118.573C192.628 118.626 192.351 118.677 192.071 118.729C191.101 118.906 190.099 119.09 189.228 119.428C188.949 119.537 188.677 119.668 188.419 119.817C186.972 120.656 185.932 122.114 185.567 123.816C185.337 124.891 185.326 125.725 185.533 126.521C185.7 127.162 185.979 127.792 186.249 128.401C186.372 128.677 186.494 128.954 186.607 129.232C186.987 130.164 187.291 131.015 187.54 131.833C187.636 132.151 187.699 132.498 187.76 132.833C187.84 133.28 187.924 133.742 188.088 134.126L188.113 134.184C188.574 135.238 189.249 136.049 190.119 136.593C191.131 137.226 192.381 137.419 193.589 137.605L193.95 137.661C197.225 138.178 200.362 138.287 203.248 137.983L203.678 137.938C204.712 137.834 205.78 137.725 206.734 137.433C208.035 137.035 208.885 136.125 209.368 135.432C210.113 134.365 210.501 133.486 210.52 132.821ZM210.999 132.832C210.977 133.579 210.564 134.533 209.772 135.668C209.018 136.748 208.02 137.502 206.885 137.849C205.883 138.156 204.79 138.267 203.732 138.374L203.303 138.418C202.312 138.523 201.284 138.58 200.246 138.589C198.213 138.607 196.067 138.44 193.869 138.093L193.51 138.037C192.251 137.844 190.949 137.643 189.849 136.956C188.899 136.362 188.166 135.483 187.669 134.347L187.642 134.285C187.46 133.859 187.372 133.374 187.288 132.904C187.226 132.566 187.169 132.246 187.079 131.951C186.834 131.145 186.533 130.306 186.159 129.385C186.047 129.111 185.926 128.838 185.806 128.566C185.53 127.942 185.243 127.297 185.068 126.623C184.844 125.762 184.854 124.871 185.098 123.731C185.489 121.911 186.606 120.349 188.164 119.446C188.443 119.285 188.738 119.143 189.041 119.025C189.957 118.669 190.984 118.48 191.977 118.299C192.254 118.248 192.529 118.197 192.797 118.144C194.337 117.838 195.95 117.6 197.594 117.438C198.635 117.336 199.502 117.284 200.321 117.277C201.826 117.264 203.135 117.406 204.323 117.711C206.001 118.142 207.443 118.926 208.495 119.978C209 120.484 209.71 121.259 210.043 122.147C210.335 122.924 210.212 123.743 210.094 124.534C210.073 124.673 210.052 124.811 210.034 124.947C209.812 126.629 209.911 128.323 210.328 129.98C210.399 130.264 210.495 130.555 210.588 130.836C210.799 131.476 211.018 132.138 210.999 132.832Z" fill="#E4E7E9" stroke="#E4E7E9" stroke-width="0.5"></path><path d="M197.636 128.615C195.725 126.116 194.857 123.719 194.98 121.297C195.679 121.143 196.376 120.851 197.483 120.238C195.743 120.896 193.96 121.242 192.135 121.263C192.616 121.478 193.531 121.428 193.887 121.425C194.091 121.423 194.296 121.405 194.5 121.379C194.402 123.875 195.3 126.337 197.261 128.893C197.293 129.605 197.346 130.338 197.444 131.038C192.196 131.845 190.109 130.529 188.776 129.801C189.912 130.777 191.992 131.645 194.73 131.62C195.568 131.613 196.498 131.563 197.512 131.473C197.826 132.508 198.148 133.396 198.457 134.162C198.571 134.444 198.623 134.753 198.435 134.999C198.017 135.547 197.017 135.584 196.752 135.817C196.761 135.816 197.43 135.774 197.44 135.774C198.087 135.768 198.589 135.401 198.953 134.851C199.237 135.508 199.65 136.099 200.392 136.246C199.834 135.954 199.521 135.385 198.979 134.1C198.277 132.44 197.388 130.332 197.749 129.073C198.918 129.233 200.061 129.311 201.171 129.302C203.558 129.281 205.799 128.869 207.865 128.068C205.279 128.705 201.344 129.226 197.636 128.615Z" fill="#E4E7E9" stroke="#E4E7E9" stroke-width="0.5"></path><path d="M205.223 106.712C205.059 106.008 204.84 105.308 204.647 104.707C204.531 104.343 204.499 103.987 204.468 103.643C204.454 103.489 204.441 103.334 204.419 103.175C204.315 102.415 204.367 101.645 204.417 100.901C204.483 99.9181 204.545 98.9905 204.284 98.0701C203.895 96.6922 202.697 95.2453 201.16 94.2933C200.208 93.7034 198.56 93.0195 197.051 93.0327C196.853 93.0347 196.661 93.0491 196.483 93.076C191.993 93.7571 187.207 95.2874 181.849 97.754C180.147 98.6503 179.369 100.254 179.483 102.651C179.479 103.256 179.491 103.852 179.518 104.433C179.586 105.907 179.756 107.353 180.023 108.733C180.102 109.144 180.224 109.52 180.354 109.918C180.398 110.054 180.442 110.192 180.486 110.332C180.581 110.638 180.61 110.958 180.637 111.266C180.66 111.521 180.682 111.761 180.738 111.992C181.252 114.13 182.857 116.037 184.926 116.97C186.188 117.539 187.665 117.82 189.317 117.806C189.516 117.804 189.714 117.798 189.911 117.787C191.766 117.693 193.597 117.24 194.985 116.856C197.288 116.219 199.568 115.428 201.762 114.505C201.94 114.43 202.137 114.357 202.34 114.281C203.048 114.017 203.851 113.718 204.201 113.204C204.758 112.387 205.144 111.544 205.35 110.697C205.63 109.546 205.59 108.28 205.223 106.712ZM205.817 110.793C205.599 111.688 205.192 112.577 204.607 113.436C204.174 114.07 203.296 114.398 202.52 114.687C202.324 114.761 202.134 114.832 201.961 114.904C199.748 115.835 197.447 116.633 195.123 117.276C193.71 117.667 191.843 118.128 189.939 118.225C189.734 118.236 189.528 118.243 189.321 118.244C187.594 118.259 186.044 117.963 184.715 117.364C182.485 116.359 180.824 114.386 180.271 112.087C180.208 111.826 180.184 111.56 180.16 111.302C180.134 111.001 180.108 110.717 180.025 110.451C179.983 110.313 179.938 110.178 179.895 110.043C179.768 109.651 179.636 109.245 179.552 108.81C179.281 107.41 179.109 105.944 179.04 104.452C179.012 103.864 179.001 103.26 179.005 102.66C178.884 100.13 179.765 98.3454 181.623 97.3677C187.036 94.8755 191.867 93.3316 196.405 92.6433C196.607 92.6124 196.823 92.596 197.047 92.594C198.665 92.5799 200.418 93.3048 201.428 93.9299C203.082 94.954 204.323 96.4606 204.748 97.9599C205.027 98.948 204.96 99.9541 204.894 100.927C204.846 101.652 204.795 102.401 204.894 103.121C204.916 103.286 204.931 103.447 204.945 103.607C204.975 103.944 205.004 104.262 205.106 104.584C205.301 105.192 205.523 105.901 205.691 106.62C206.068 108.23 206.109 109.594 205.817 110.793Z" fill="#E4E7E9" stroke="#E4E7E9" stroke-width="0.5"></path><path d="M194.142 106.637C193.702 106.601 193.251 106.575 192.849 106.407C192.297 106.176 191.902 105.743 191.545 105.308C191.17 104.85 190.753 104.415 190.4 103.945C189.611 102.894 188.926 101.679 188.869 100.378C188.854 100.036 188.885 99.6929 188.964 99.358C188.985 99.2698 189.298 98.3386 189.358 98.3631C189.358 98.3631 189.777 98.1339 189.885 98.089C190.127 97.9888 191.501 97.1358 191.862 96.7539C190.56 97.3754 189.233 98.3118 186.513 98.3575C186.979 98.4584 187.435 98.5069 187.879 98.5029C188.203 98.5001 188.519 98.4644 188.83 98.4059C187.514 101.46 189.981 104.378 192.475 106.892C192.582 107 192.244 107.849 192.196 107.996C192.069 108.391 191.915 108.778 191.736 109.155C191.374 109.918 190.908 110.626 190.394 111.31C187.879 110.737 183.185 111.123 183.183 111.435C185.843 111.191 188.288 111.303 190.446 111.769C192.446 112.2 194.265 112.953 195.864 114C195.131 114.293 194.5 114.769 193.973 115.453C195.507 114.12 197.618 113.688 200.174 113.953C199.378 113.811 197.953 113.688 197.015 113.743C196.608 113.767 196.201 113.673 195.864 113.462C194.374 112.533 192.706 111.849 190.89 111.422C191.999 109.949 192.678 108.47 192.956 106.918C195.68 107.304 198.41 106.761 200.726 105.37C201.484 104.915 202.183 104.375 202.796 103.763C201.753 104.773 198.225 106.973 194.142 106.637Z" fill="#E4E7E9" stroke="#E4E7E9" stroke-width="0.5"></path><path d="M189.012 66.6292C190.349 66.6292 191.685 66.7915 192.982 67.1116C195.524 67.7387 197.48 69.6527 197.849 71.8745C198.44 75.437 199.555 78.7178 201.164 81.6252C202.041 83.2103 201.406 85.3042 200.853 86.7415C200.118 88.6495 198.479 89.6513 196.817 90.4494L196.384 90.6578C194.386 91.6186 192.32 92.6123 190.214 93.3676C189.021 93.7955 187.793 94.1786 186.563 94.506C186.297 94.5769 186.003 94.6678 185.692 94.7632C184.794 95.0405 183.77 95.3522 182.988 95.3157C180.774 95.1971 178.706 94.4979 176.841 93.2378C174.057 89.9982 172.182 87.0264 170.939 83.8878C169.866 81.1776 170.21 78.003 171.838 75.6021C172.087 75.2331 172.369 74.8833 172.674 74.5631C177.472 69.5209 183.427 66.6292 189.012 66.6292ZM183.13 95.7577C183.968 95.7577 184.966 95.4504 185.845 95.1787C186.148 95.0853 186.437 94.9964 186.697 94.9271C187.94 94.5961 189.182 94.209 190.389 93.7763C192.519 93.0122 194.596 92.0125 196.606 91.0461L197.039 90.8381C198.703 90.0383 200.512 88.9437 201.304 86.8874C201.886 85.3744 202.551 83.1618 201.591 81.4268C200.006 78.5611 198.906 75.3248 198.321 71.8084C197.925 69.4176 195.828 67.3596 193.106 66.6877C191.768 66.3579 190.391 66.1904 189.012 66.1904C183.288 66.1904 177.202 69.1371 172.313 74.275C171.992 74.6128 171.695 74.9814 171.431 75.3701C169.728 77.8828 169.367 81.204 170.489 84.0373C171.753 87.2291 173.658 90.2463 176.485 93.5323L176.531 93.5728C178.478 94.8954 180.642 95.6295 182.96 95.7533C183.016 95.7561 183.073 95.7577 183.13 95.7577Z" fill="#E4E7E9" stroke="#E4E7E9" stroke-width="0.5"></path><path d="M190.471 89.9405C187.802 89.2658 186.137 88.3065 184.538 87.0243C185.025 86.4878 185.148 85.6308 185.245 84.9488C185.266 84.7977 185.286 84.6555 185.309 84.5281C185.526 83.3076 185.654 82.0655 185.695 80.8322C185.834 80.8654 185.975 80.8766 186.103 80.8754C186.186 80.8746 186.264 80.8702 186.332 80.8662C187.453 80.7965 188.569 80.6691 189.674 80.484C190.82 80.2925 191.954 80.0408 193.07 79.7367C194.229 79.4214 195.369 79.0495 196.488 78.6288C196.762 78.5258 197.032 78.41 197.307 78.3115C197.027 78.3736 196.731 78.3992 196.447 78.4493C196.155 78.5006 195.864 78.5571 195.574 78.6188C194.995 78.7422 194.422 78.8869 193.855 79.0515C192.904 79.328 191.971 79.6373 191.002 79.8577C190.186 80.0432 189.358 80.171 188.523 80.2576C188.177 80.2932 187.831 80.3229 187.485 80.3493C187.093 80.379 186.694 80.4251 186.301 80.4287C186.065 80.4419 185.843 80.4479 185.686 80.3626C185.515 80.2696 185.416 80.0697 185.311 79.8581L185.272 79.7808C184.947 79.1377 184.458 78.5615 183.856 78.1151C183.522 77.8667 183.156 77.6596 182.802 77.4592C182.499 77.2877 182.196 77.1162 181.91 76.9155C181.884 74.8852 182.101 73.0401 182.864 71.3063C182.957 71.0955 183.135 70.9277 183.357 70.8247C183.586 70.7177 183.816 70.6083 184.034 70.4821C184.253 70.3555 184.439 70.1988 184.634 70.043C183.847 70.3743 183.055 70.7073 182.215 70.8968C181.679 71.017 181.13 71.0779 180.583 71.1384C180.943 71.2206 181.304 71.2382 181.672 71.235C181.976 71.2322 182.288 71.1813 182.596 71.1008C182.552 71.1124 182.471 71.3917 182.451 71.4377C182.403 71.5555 182.356 71.6737 182.311 71.7928C182.22 72.0312 182.137 72.272 182.061 72.5148C181.907 73.0052 181.782 73.5032 181.685 74.0057C181.606 74.42 181.546 74.8375 181.504 75.2562C181.483 75.4662 181.467 75.677 181.455 75.8873C181.449 75.9935 181.444 76.0997 181.441 76.2063C181.437 76.3088 181.456 76.4371 181.428 76.5348C181.287 76.4815 181.149 76.3469 181.036 76.2536C180.908 76.147 180.787 76.0328 180.674 75.9122C180.326 75.5399 180.132 75.1128 179.869 74.6937C179.59 74.2477 179.275 73.8206 178.928 73.4171C178.837 73.3125 178.744 73.2092 178.65 73.1078C178.68 73.353 178.803 73.5922 178.898 73.825C178.97 74.0005 179.05 74.1716 179.151 74.3347C179.301 74.5747 179.478 74.9545 179.674 75.2843C179.912 75.6842 180.117 76.0296 180.308 76.2055C180.876 76.73 181.383 77.1267 181.905 77.4536C182.116 77.5858 182.334 77.7093 182.552 77.8327C182.908 78.0342 183.245 78.2249 183.555 78.4557C184.1 78.8604 184.544 79.3821 184.838 79.9651L184.875 80.04C184.97 80.2308 185.075 80.4403 185.251 80.6022L185.226 80.6018C185.194 81.8872 185.064 83.1842 184.837 84.4576C184.813 84.589 184.792 84.7364 184.77 84.8927C184.644 85.7822 184.487 86.8893 183.59 87.068L183.025 87.1826C181.051 87.5857 180.017 87.9351 178.005 87.6847L176.276 87.508C177.028 87.7961 178.419 88.1571 179.253 88.1498C180.545 88.1386 181.887 87.8642 183.129 87.6105L183.692 87.4967C183.876 87.4603 184.033 87.397 184.173 87.3164C185.808 88.6427 187.952 89.6264 190.697 90.3232C189.936 90.6229 189.571 90.7775 188.61 91.0532L187.307 91.5445C188.219 91.409 189.113 91.1662 189.973 90.8573C190.864 90.5367 191.728 90.1397 192.525 89.6528C193.23 89.2225 193.904 88.7144 194.41 88.0861C194.447 88.0405 194.573 87.9187 194.553 87.8674C194.321 87.9479 194.125 88.1691 193.943 88.3217C193.713 88.5157 193.514 88.6363 193.31 88.7934C192.903 89.1071 192.475 89.3716 192.03 89.6396C191.883 89.7278 191.662 89.8267 191.44 89.904C191.131 90.0114 190.788 90.0207 190.471 89.9405Z" fill="#E4E7E9" stroke="#E4E7E9" stroke-width="0.5"></path><path d="M191.617 55.0283C191.111 54.0783 190.246 53.2224 189.045 52.4843C187.153 51.3207 184.866 50.4052 182.605 49.9063C181.479 49.6579 180.386 49.5361 179.357 49.5453C178.073 49.5566 176.884 49.7717 175.822 50.184C173.057 51.2591 170.742 53.21 169.242 54.5839C168.648 55.1285 167.87 55.8529 167.124 56.6302C166.966 56.7949 166.8 56.9584 166.634 57.1222C166.25 57.5013 165.853 57.8932 165.543 58.3135C165.397 58.5126 165.263 58.7242 165.147 58.9434C164.543 60.0761 164.394 61.3875 164.739 62.5411C165.506 65.1115 168.263 67.3409 171.016 67.6166C171.755 67.6907 172.576 67.7227 173.525 67.7143C174.176 67.7087 174.871 67.6851 175.776 67.6378C177.069 67.5701 178.461 67.3958 179.911 67.1189C182.881 66.5531 186.616 65.5659 189.164 62.9322C190.303 61.7562 191.171 60.3273 191.675 58.8003C192.062 57.6267 192.324 56.3574 191.617 55.0283ZM192.133 58.9277C191.609 60.5148 190.706 62.0002 189.523 63.2235C186.881 65.9533 183.05 66.9687 180.008 67.5488C178.534 67.8293 177.12 68.0068 175.803 68.0757C174.89 68.1234 174.189 68.1471 173.529 68.1531C172.561 68.1615 171.722 68.1286 170.964 68.0529C168.031 67.7588 165.093 65.3888 164.277 62.6573C163.902 61.4016 164.062 59.9779 164.717 58.7506C164.843 58.513 164.988 58.2834 165.147 58.0679C165.477 57.6195 165.887 57.2148 166.284 56.8233C166.447 56.6627 166.609 56.502 166.765 56.3401C167.52 55.5536 168.305 54.8227 168.904 54.2738C170.433 52.8738 172.794 50.8848 175.636 49.7801C177.643 49 180.084 48.8986 182.718 49.48C185.031 49.9909 187.373 50.9285 189.312 52.1201C190.583 52.9019 191.504 53.8154 192.047 54.836C192.826 56.3013 192.549 57.6684 192.133 58.9277Z" fill="#E4E7E9" stroke="#E4E7E9" stroke-width="0.5"></path><path d="M178.6 61.6177C178.623 59.92 177.739 58.4571 175.969 57.2607C177.647 56.279 179.156 54.7797 180.481 52.7578L179.717 53.5223C176.991 56.489 175.265 57.7379 171.361 58.4619L170.113 58.6186C170.389 58.6354 170.662 58.643 170.931 58.6406C172.575 58.6262 174.107 58.2472 175.523 57.5107C177.349 58.6903 178.195 60.0903 178.107 61.7792C176.614 62.3398 175.393 63.3391 174.425 64.7803L175.383 63.9786C176.453 63.0189 177.4 62.3834 178.464 62.0096C178.464 62.0096 178.58 61.9875 178.582 61.9715C179.942 61.5224 181.504 61.4883 183.764 61.7519C183.909 61.7688 184.057 61.7784 184.202 61.7792L185.213 61.7832C182.61 61.1241 180.418 61.0712 178.6 61.6177Z" fill="#E4E7E9" stroke="#E4E7E9" stroke-width="0.5"></path><path d="M170.728 32.7607L171.241 32.8361C172.898 33.0717 174.352 33.399 175.687 33.8374C178.004 34.5983 180.952 36.0716 181.834 38.7682C182.172 39.7999 182.167 40.9768 181.819 42.2666C181.501 43.4442 180.808 45.5626 179.739 46.519C177.948 48.1213 175.683 49.3575 173.011 50.1941C169.243 51.3725 165.332 51.5648 161.667 51.5969H161.666L161.212 51.6001C160.315 51.6045 159.627 51.094 158.899 50.5535L158.684 50.3948C157.097 49.2332 156.073 48.0689 155.553 46.8352C155.275 46.1756 155.143 45.4864 155.16 44.7861C155.189 43.5764 155.491 42.739 156.204 41.8967C156.455 41.6014 156.701 41.3033 156.948 41.0052C157.36 40.508 157.77 40.0111 158.199 39.5251C159.739 37.7781 161.19 36.3577 162.637 35.1829C163.682 34.3342 164.758 33.6338 165.929 33.042C166.275 32.8669 166.661 32.7303 167.075 32.6357C167.352 32.5728 167.662 32.534 167.994 32.5207C168.066 32.5179 168.14 32.5163 168.213 32.5155C169.041 32.5083 169.899 32.6365 170.728 32.7607ZM173.166 50.6088C175.906 49.7513 178.23 48.4807 180.073 46.8331C181.227 45.8006 181.953 43.5948 182.283 42.3719C182.652 41.0052 182.655 39.7503 182.293 38.6424C181.353 35.7703 178.27 34.2196 175.848 33.4243C174.485 32.9767 173.001 32.6425 171.314 32.4029L170.805 32.328C169.921 32.1958 168.91 32.0423 167.973 32.0828C167.609 32.0968 167.267 32.1401 166.96 32.2102C166.505 32.314 166.081 32.4642 165.698 32.6578C164.496 33.2656 163.391 33.9844 162.319 34.8547C160.853 36.0459 159.384 37.4832 157.827 39.2494C157.395 39.7387 156.981 40.2395 156.567 40.7404C156.321 41.0369 156.075 41.3334 155.827 41.6279C155.055 42.5394 154.713 43.481 154.681 44.7764C154.663 45.5341 154.806 46.2802 155.107 46.9934C155.658 48.3012 156.731 49.5262 158.386 50.7374L158.598 50.8941C159.36 51.4598 160.147 52.044 161.215 52.0384L161.67 52.0356C161.67 52.0356 161.67 52.0356 161.671 52.0356C165.377 52.0032 169.334 51.8076 173.166 50.6088Z" fill="#E4E7E9" stroke="#E4E7E9" stroke-width="0.5"></path><path d="M169.148 45.997C169.306 43.6066 167.964 41.6825 165.158 40.2653C167.093 39.3004 168.869 37.9669 170.469 36.2656L169.34 37.0081C166.078 39.3902 163.944 40.5738 160.03 41.668L159.496 41.9726C161.316 41.741 163.036 41.2514 164.65 40.5113C167.601 41.9149 168.91 43.7801 168.647 46.203C167.327 46.798 166.202 47.7356 165.265 49.0322L166.109 48.2633C168.853 46.088 171.103 45.8159 174.934 45.8556L175.637 45.7851C173.105 45.2558 170.954 45.3267 169.148 45.997Z" fill="#E4E7E9" stroke="#E4E7E9" stroke-width="0.5"></path><path d="M160.32 16.1691C162.127 16.3241 163.592 16.7148 164.8 17.3631C168.475 19.3348 169.006 23.9932 168.277 27.6951C168.122 28.4857 167.89 29.1853 167.571 29.8336C167.321 30.3428 167.009 30.9198 166.593 31.3417C166.327 31.6118 165.934 31.8394 165.554 32.0594L165.318 32.1972C163.288 33.4021 160.846 33.9802 158.716 34.4278C157.158 34.7548 155.561 35.0212 153.968 35.22L153.486 35.2813C152.24 35.4431 150.893 35.575 149.836 35.3826C148.486 35.137 146.689 34.5071 145.787 32.9016C144.812 31.1622 145.119 29.0763 145.483 27.2572C146.151 23.9235 148.187 18.0867 154.313 16.456C155.258 16.2043 156.408 16.0705 157.73 16.0589C158.521 16.0521 159.393 16.0893 160.32 16.1691ZM153.553 35.716L154.033 35.6543C155.639 35.4544 157.251 35.1855 158.824 34.8553C160.993 34.3998 163.483 33.8092 165.578 32.5654L165.81 32.43C166.198 32.2056 166.638 31.9508 166.948 31.6359C167.408 31.1691 167.742 30.554 168.008 30.0143C168.343 29.3327 168.585 28.5999 168.748 27.7732C169.506 23.9255 168.93 19.0704 165.042 16.9845C163.772 16.3033 162.242 15.8934 160.365 15.7323C157.826 15.5131 155.751 15.6157 154.18 16.0344C147.807 17.7313 145.701 23.7444 145.013 27.1778C144.634 29.0679 144.317 31.24 145.362 33.1023C146.35 34.8633 148.29 35.5485 149.742 35.813C150.189 35.8943 150.66 35.9316 151.185 35.9272C151.98 35.9199 152.78 35.8162 153.553 35.716Z" fill="#E4E7E9" stroke="#E4E7E9" stroke-width="0.5"></path><path d="M160.829 21.4016C159.146 19.4747 156.673 18.5784 153.436 18.7919L153.501 18.6589C156.918 18.3143 159.103 19.0243 160.808 21.1992L160.829 21.4016Z" fill="#E4E7E9" stroke="#E4E7E9" stroke-width="0.5"></path><path d="M164.689 29.3925L164.49 29.7339C164.987 27.5009 164.439 25.1881 162.762 22.6963L163.036 22.786C164.845 25.3825 165.276 27.1154 164.689 29.3925Z" fill="#E4E7E9" stroke="#E4E7E9" stroke-width="0.5"></path><path d="M150.02 15.3114C149.754 14.5092 148.959 13.8753 148.258 13.3156L147.995 13.1048C146.05 11.5285 143.932 10.2976 141.698 9.44575C140.553 9.00901 139.354 8.66242 138.132 8.4148C137.516 8.28978 136.878 8.18721 136.236 8.10988C136.103 8.09345 135.942 8.0654 135.766 8.03495C135.535 7.99448 135.284 7.952 135.049 7.92836C134.748 7.95961 134.446 7.99327 134.139 8.03694C133.259 8.34186 132.64 8.78542 132.302 9.3608C132.17 9.58599 132.039 9.83282 131.913 10.0941C131.569 10.8073 131.288 11.569 131.007 12.3515C130.291 14.3441 129.827 16.4148 129.627 18.506C129.609 18.6975 129.587 18.8991 129.564 19.1078C129.441 20.2262 129.301 21.4935 129.613 22.4435C129.9 23.3198 130.462 24.2258 131.115 24.8669C131.99 25.7243 133.459 26.2705 134.859 26.2584C135.393 26.2536 135.889 26.1695 136.334 26.008C140.562 24.4722 144.642 21.8818 148.808 18.0873C149.529 17.352 150.334 16.265 150.02 15.3114ZM137.236 7.80655C137.573 7.86024 137.907 7.91995 138.235 7.98647C139.484 8.2393 140.711 8.59431 141.882 9.04067C144.165 9.91135 146.327 11.1679 148.312 12.7758L148.572 12.9846C148.766 13.1401 148.968 13.3007 149.164 13.4698C147.061 9.83202 142.687 7.77049 137.236 7.80655ZM149.154 18.3894C144.932 22.2356 140.8 24.8581 136.51 26.4159C136.011 26.597 135.456 26.6916 134.863 26.6968C133.336 26.7104 131.728 26.1094 130.766 25.1662C130.064 24.4782 129.462 23.5074 129.155 22.5694C128.816 21.5364 128.961 20.2229 129.088 19.0638C129.111 18.857 129.133 18.6575 129.151 18.4679C129.353 16.3427 129.825 14.2387 130.552 12.2141C130.837 11.4207 131.122 10.6482 131.475 9.91656C131.606 9.64489 131.742 9.38805 131.881 9.15285C132.265 8.49854 132.942 7.99529 133.893 7.6523L133.889 7.62466C133.936 7.61785 133.981 7.61504 134.028 7.60822C134.112 7.57978 134.194 7.55052 134.283 7.52488C134.475 7.46838 134.74 7.46597 135.025 7.48921C142.485 6.7215 148.44 9.55875 150.361 14.9023L150.36 14.9027C150.404 14.9944 150.445 15.0874 150.477 15.1844C150.856 16.3339 149.967 17.5616 149.154 18.3894Z" fill="#E4E7E9" stroke="#E4E7E9" stroke-width="0.5"></path><path d="M135.529 10.5479C140.388 11.1421 144.148 12.9191 146.718 16.014C144.314 12.3345 140.481 10.5827 135.529 10.5479Z" fill="#E4E7E9" stroke="#E4E7E9" stroke-width="0.5"></path><path d="M130.73 8.54621C130.683 7.81296 130.568 6.98674 130.082 6.41857C129.696 5.9674 129.088 5.83759 128.445 5.69975C128.176 5.64245 127.899 5.58316 127.635 5.49821C126.685 5.19249 125.72 4.91322 124.77 4.6684C122.857 4.17676 120.978 3.81134 119.184 3.58335C117.131 3.3221 115.249 3.2083 113.261 3.22553C111.638 3.23995 110.086 3.33693 108.111 3.48879C107.796 3.51323 107.472 3.53807 107.231 3.68352C106.621 4.05175 106.386 5.33352 106.273 5.94938C106.073 7.04765 106.238 8.08341 106.427 8.9521C107.533 14.0544 109.261 18.1851 111.71 21.58C114.898 24.235 118.098 24.4666 121.381 22.2812C124.779 19.8888 127.477 16.6468 129.394 12.6492C129.518 12.3908 129.644 12.1428 129.768 11.8999C130.33 10.7993 130.816 9.84923 130.73 8.54621ZM109.127 2.97391C110.633 2.86652 111.921 2.7988 113.256 2.78718C115.269 2.76955 117.173 2.88455 119.25 3.1486C121.065 3.3798 122.966 3.74923 124.899 4.24608C125.86 4.4937 126.834 4.77538 127.794 5.08431C128.033 5.16124 128.286 5.21572 128.554 5.27261C128.554 5.27261 128.554 5.27303 128.554 5.27303C123.219 1.18405 116.698 0.407129 109.127 2.97391ZM130.201 12.0858C130.079 12.3254 129.954 12.5703 129.832 12.8259C127.882 16.8916 125.135 20.1913 121.667 22.6326C120.114 23.6668 118.555 24.1961 117.031 24.2097C115.135 24.2262 113.229 23.444 111.366 21.8858L111.328 21.8449C108.835 18.3974 107.079 14.2079 105.957 9.03746C105.761 8.12991 105.588 7.04484 105.801 5.87845C105.935 5.14801 106.183 3.7909 106.968 3.3169C107.065 3.2588 107.166 3.21672 107.27 3.18266L107.27 3.18225C116.143 -0.324131 123.69 0.490857 129.702 5.60398C129.983 5.72899 130.243 5.89689 130.458 6.14772C131.025 6.81085 131.155 7.71919 131.208 8.51976C131.301 9.93417 130.767 10.9792 130.201 12.0858Z" fill="#E4E7E9" stroke="#E4E7E9" stroke-width="0.5"></path><path d="M108.742 7.01661L109.219 6.87757C115.329 5.38302 121.744 6.05978 127.958 8.88981L127.677 8.69669C121.297 5.01681 114.899 4.59168 108.742 7.01661Z" fill="#E4E7E9" stroke="#E4E7E9" stroke-width="0.5"></path><path d="M2.65979 135.923C3.15053 136.611 4.00965 137.514 5.31451 137.9C6.27152 138.184 7.34084 138.283 8.3752 138.379L8.80608 138.42C11.695 138.699 14.8309 138.562 18.1 138.017L18.4605 137.957C19.6666 137.761 20.9147 137.557 21.9202 136.915C22.7846 136.364 23.4514 135.547 23.9011 134.488L23.9255 134.43C24.085 134.045 24.1641 133.582 24.2402 133.134C24.2974 132.799 24.3564 132.452 24.4495 132.132C24.6898 131.313 24.9852 130.459 25.3549 129.524C25.4651 129.244 25.5848 128.967 25.7045 128.689C25.968 128.078 26.2403 127.447 26.4007 126.803C26.5991 126.005 26.5798 125.171 26.3386 124.098C25.9554 122.399 24.9005 120.951 23.4449 120.125C23.1853 119.978 22.9122 119.85 22.6325 119.744C21.7581 119.413 20.7534 119.238 19.782 119.069C19.5014 119.02 19.224 118.971 18.9526 118.92C17.4266 118.63 15.8277 118.409 14.1994 118.263C13.1725 118.171 12.3204 118.128 11.5172 118.128C10.058 118.128 8.79427 118.276 7.65373 118.58C6.06614 119.002 4.7084 119.755 3.72779 120.755C3.25672 121.236 2.59555 121.97 2.30014 122.783C2.05281 123.463 2.17561 124.228 2.29359 124.968C2.31675 125.109 2.33904 125.25 2.35871 125.387C2.60517 127.118 2.52171 128.863 2.11006 130.574C2.03883 130.873 1.94312 131.172 1.85092 131.461C1.65646 132.07 1.45631 132.699 1.48035 133.321C1.50657 133.987 1.90336 134.862 2.65979 135.923ZM1.39164 131.338C1.48166 131.056 1.57474 130.764 1.64291 130.48C2.04276 128.818 2.1236 127.124 1.88413 125.444C1.8649 125.308 1.84305 125.171 1.82033 125.032C1.69404 124.241 1.56295 123.424 1.84612 122.644C2.16993 121.754 2.87217 120.972 3.37209 120.462C4.41256 119.4 5.84676 118.604 7.52 118.159C8.70513 117.843 10.0122 117.689 11.5172 117.689C12.3365 117.689 13.2035 117.733 14.2462 117.826C15.891 117.974 17.507 118.197 19.0496 118.49C19.3183 118.541 19.5936 118.589 19.872 118.638C20.8666 118.811 21.8953 118.99 22.8147 119.338C23.1188 119.453 23.4151 119.593 23.6961 119.752C25.2636 120.641 26.3972 122.194 26.8066 124.01C27.0631 125.147 27.0815 126.039 26.8669 126.901C26.6987 127.577 26.419 128.224 26.1494 128.85C26.0314 129.124 25.9134 129.397 25.8046 129.673C25.4402 130.597 25.1482 131.439 24.9118 132.246C24.8249 132.543 24.7707 132.863 24.7126 133.202C24.6326 133.672 24.5504 134.158 24.3726 134.586L24.3468 134.647C23.8617 135.789 23.1372 136.673 22.1937 137.276C21.1013 137.972 19.8012 138.184 18.544 138.389L18.1861 138.448C15.9915 138.814 13.8476 139 11.8148 139C10.7765 139 9.74735 138.951 8.75582 138.856L8.32669 138.816C7.26786 138.717 6.17277 138.616 5.16769 138.318C4.02933 137.98 3.02337 137.235 2.25863 136.163C1.45457 135.034 1.03156 134.083 1.00228 133.337C0.975626 132.643 1.18713 131.979 1.39164 131.338Z" fill="#E4E7E9" stroke="#E4E7E9" stroke-width="0.5"></path><path d="M14.3188 129.007C16.2035 126.491 17.0465 124.087 16.8983 121.666C16.1978 121.518 15.4982 121.232 14.3843 120.629C16.1318 121.272 17.9174 121.602 19.7427 121.607C19.2642 121.826 18.3487 121.784 17.993 121.784C17.7885 121.784 17.5835 121.768 17.379 121.744C17.5036 124.239 16.6313 126.708 14.6972 129.281C14.6718 129.995 14.6268 130.727 14.5359 131.428C19.7921 132.189 21.8656 130.854 23.191 130.115C22.0644 131.102 19.994 131.987 17.2558 131.987C16.4176 131.987 15.4877 131.944 14.4721 131.864C14.1697 132.902 13.856 133.792 13.5553 134.561C13.4448 134.843 13.3958 135.153 13.5859 135.397C14.0107 135.942 15.0105 135.97 15.2775 136.201C15.2683 136.201 14.5993 136.164 14.5897 136.164C13.9425 136.164 13.4369 135.801 13.0668 135.254C12.7897 135.913 12.3825 136.508 11.6431 136.661C12.198 136.365 12.5039 135.793 13.0331 134.503C13.717 132.837 14.5845 130.721 14.2108 129.466C13.0427 129.636 11.9013 129.724 10.7914 129.724C8.40408 129.724 6.15882 129.332 4.08398 128.55C6.67665 129.164 10.617 129.65 14.3188 129.007Z" fill="#E4E7E9" stroke="#E4E7E9" stroke-width="0.5"></path><path d="M6.41808 111.155C6.63308 112 7.02855 112.84 7.59358 113.651C7.94929 114.163 8.75511 114.455 9.46565 114.713C9.66973 114.787 9.86681 114.859 10.0464 114.932C12.2493 115.835 14.5374 116.606 16.8469 117.223C18.2387 117.594 20.0749 118.032 21.93 118.11C22.1275 118.119 22.3263 118.123 22.5247 118.123C24.177 118.123 25.6509 117.829 26.9069 117.249C28.966 116.298 30.5509 114.377 31.043 112.235C31.0963 112.003 31.1155 111.763 31.1361 111.508C31.1601 111.199 31.1859 110.879 31.2776 110.572C31.3196 110.432 31.3624 110.294 31.4057 110.157C31.5307 109.757 31.6491 109.381 31.7243 108.969C31.976 107.587 32.1311 106.139 32.184 104.666C32.2049 104.084 32.2106 103.488 32.2001 102.883C32.2893 100.485 31.4948 98.8882 29.7831 98.0067C24.3998 95.5873 19.5977 94.0992 15.1015 93.4573C14.9228 93.4321 14.7314 93.4188 14.5326 93.4188C13.0241 93.4188 11.3832 94.1176 10.4366 94.7158C8.9098 95.6807 7.72775 97.1384 7.35193 98.5195C7.1011 99.4423 7.1732 100.369 7.24924 101.351C7.30736 102.095 7.36722 102.864 7.27109 103.625C7.25098 103.785 7.23918 103.94 7.22695 104.094C7.19942 104.438 7.17145 104.794 7.0587 105.16C6.87211 105.762 6.66061 106.464 6.50373 107.169C6.15282 108.741 6.12573 110.007 6.41808 111.155ZM6.03484 107.082C6.19521 106.361 6.40978 105.65 6.59812 105.04C6.69776 104.717 6.72266 104.399 6.74932 104.062C6.76199 103.902 6.77509 103.74 6.79563 103.575C6.88696 102.854 6.82842 102.106 6.77248 101.382C6.69645 100.409 6.61866 99.4038 6.88784 98.4133C7.29643 96.9104 8.52175 95.393 10.1648 94.3544C11.1682 93.7205 12.9144 92.9805 14.5326 92.9805C14.7563 92.9805 14.9726 92.9949 15.1754 93.0237C19.7197 93.6725 24.5668 95.1738 30.0056 97.6184C31.8733 98.58 32.773 100.356 32.6786 102.887C32.6887 103.488 32.6834 104.091 32.662 104.68C32.6087 106.173 32.4514 107.64 32.1962 109.041C32.1167 109.478 31.9886 109.885 31.8654 110.278C31.823 110.413 31.7802 110.549 31.7391 110.687C31.6596 110.954 31.6369 111.238 31.6128 111.54C31.5923 111.798 31.5709 112.064 31.511 112.325C30.9818 114.629 29.3413 116.616 27.1214 117.641C25.7991 118.252 24.2521 118.562 22.5247 118.562C22.3189 118.562 22.1126 118.557 21.9077 118.549C20.002 118.468 18.1308 118.022 16.7132 117.644C14.3827 117.021 12.0736 116.244 9.85108 115.332C9.6776 115.261 9.48707 115.192 9.28955 115.121C8.51126 114.838 7.62898 114.518 7.1898 113.887C6.59637 113.034 6.17948 112.148 5.95181 111.255C5.64767 110.059 5.67519 108.694 6.03484 107.082Z" fill="#E4E7E9" stroke="#E4E7E9" stroke-width="0.5"></path><path d="M17.5849 106.998C18.0249 106.958 18.4759 106.928 18.8762 106.757C19.4255 106.521 19.8166 106.084 20.1679 105.646C20.5381 105.185 20.9515 104.747 21.2993 104.274C22.0776 103.215 22.7501 101.995 22.7934 100.693C22.8047 100.351 22.7707 100.008 22.6872 99.6741C22.6649 99.586 22.3424 98.6576 22.283 98.6828C22.283 98.6828 21.8622 98.4568 21.7529 98.4131C21.5099 98.315 20.1273 97.4739 19.7624 97.0957C21.0712 97.7055 22.4075 98.63 25.1282 98.652C24.6628 98.757 24.2075 98.8094 23.7639 98.8094C23.4397 98.8094 23.1229 98.7766 22.8113 98.7209C24.1594 101.763 21.7227 104.702 19.2551 107.239C19.1493 107.347 19.4963 108.193 19.5452 108.34C19.6763 108.734 19.8349 109.119 20.018 109.495C20.3882 110.255 20.861 110.959 21.3819 111.639C23.8915 111.043 28.5888 111.388 28.594 111.7C25.9314 111.479 23.4882 111.612 21.3347 112.097C19.339 112.546 17.5285 113.315 15.9405 114.376C16.6764 114.662 17.3126 115.133 17.8466 115.812C16.2984 114.492 14.1833 114.079 11.6304 114.367C12.4244 114.217 13.8486 114.082 14.7868 114.129C15.1941 114.15 15.6005 114.052 15.9352 113.838C17.4153 112.895 19.0768 112.198 20.8868 111.754C19.7628 110.291 19.0689 108.818 18.7748 107.268C16.055 107.679 13.319 107.159 10.9889 105.789C10.2259 105.34 9.52151 104.807 8.90186 104.2C9.95588 105.201 13.5069 107.369 17.5849 106.998Z" fill="#E4E7E9" stroke="#E4E7E9" stroke-width="0.5"></path><path d="M34.7438 93.4478C32.8914 94.7244 30.8306 95.4416 28.6181 95.5794C27.8376 95.6295 26.8089 95.3202 25.9087 95.0509C25.598 94.958 25.3017 94.8694 25.0347 94.8009C23.7998 94.484 22.5675 94.1117 21.3719 93.695C19.2595 92.9582 17.1838 91.9833 15.1767 91.0401L14.7397 90.8349C13.0695 90.0512 11.4198 89.0635 10.6656 87.1623C10.0971 85.7302 9.44026 83.6423 10.3007 82.0491C11.8782 79.1282 12.9598 75.8377 13.5143 72.2696C13.86 70.045 15.7959 68.1138 18.3317 67.4642C19.6724 67.1209 21.0564 66.9466 22.4443 66.9466C27.9818 66.9466 33.9127 69.7862 38.7156 74.7379C39.0241 75.0552 39.3091 75.4022 39.5634 75.7688C41.2157 78.1553 41.5928 81.3271 40.5479 84.047C39.3375 87.1963 37.4925 90.1846 34.7438 93.4478ZM28.4498 96.023C28.4498 96.023 28.4498 96.023 28.4507 96.023C28.5184 96.023 28.5857 96.0214 28.6508 96.017C30.9678 95.8727 33.123 95.1199 35.0576 93.78L35.1026 93.7391C37.8941 90.429 39.7679 87.3955 40.9994 84.1924C42.0918 81.3487 41.6968 78.0311 39.9672 75.5336C39.6989 75.1469 39.3982 74.7811 39.0735 74.4462C34.1792 69.4012 28.1186 66.5078 22.4443 66.5078C21.0127 66.5078 19.5855 66.6877 18.2028 67.0419C15.4874 67.7375 13.413 69.8134 13.0406 72.2079C12.4931 75.7299 11.4268 78.9755 9.87157 81.8544C8.92986 83.5986 9.61725 85.8048 10.2159 87.3125C11.0296 89.3612 12.8488 90.4402 14.522 91.2252L14.9582 91.4303C16.9775 92.3788 19.0646 93.3596 21.2019 94.1049C22.411 94.5264 23.6569 94.9027 24.9058 95.2236C25.1667 95.2905 25.4564 95.3771 25.7606 95.468C26.6315 95.7281 27.6187 96.023 28.4498 96.023Z" fill="#E4E7E9" stroke="#E4E7E9" stroke-width="0.5"></path><path d="M21.0798 90.2689C23.7411 89.5709 25.3969 88.5969 26.9823 87.3007C26.4894 86.7685 26.3574 85.9127 26.2538 85.2315C26.2311 85.0809 26.2093 84.9386 26.1857 84.8116C25.9549 83.5931 25.8147 82.3522 25.7605 81.1189C25.6215 81.1538 25.4808 81.1662 25.3532 81.1662C25.2693 81.1662 25.1919 81.1622 25.1238 81.1586C24.002 81.0989 22.8855 80.9811 21.7786 80.806C20.6302 80.6241 19.494 80.3824 18.374 80.0883C17.212 79.783 16.068 79.4212 14.9449 79.0105C14.6701 78.9099 14.3991 78.7966 14.1221 78.7004C14.4031 78.7601 14.6998 78.7829 14.9847 78.8302C15.277 78.8791 15.5685 78.9332 15.8587 78.9925C16.439 79.1111 17.0141 79.2501 17.5826 79.41C18.5357 79.6781 19.4717 79.9794 20.4436 80.1913C21.2612 80.3696 22.091 80.4902 22.927 80.5692C23.2727 80.602 23.6188 80.6284 23.9653 80.6517C24.3573 80.6781 24.7571 80.7206 25.1504 80.7206C25.3864 80.7319 25.6088 80.7359 25.7648 80.6493C25.9348 80.5551 26.0318 80.3544 26.1341 80.142L26.1721 80.0639C26.4907 79.418 26.974 78.8374 27.5709 78.3858C27.9026 78.1346 28.2657 77.9242 28.6175 77.7211C28.919 77.5468 29.2206 77.3725 29.5046 77.1694C29.509 75.1391 29.273 73.296 28.4925 71.569C28.3973 71.359 28.2168 71.1924 27.9948 71.0918C27.7636 70.9868 27.5333 70.879 27.3135 70.7548C27.0933 70.6302 26.9049 70.4752 26.7092 70.3213C27.4988 70.6454 28.2946 70.9716 29.1371 71.1535C29.6737 71.2693 30.223 71.3254 30.7706 71.3807C30.4122 71.4664 30.0517 71.4869 29.6829 71.4869C29.3792 71.4869 29.0672 71.4388 28.7578 71.3611C28.8024 71.3723 28.8863 71.6507 28.9059 71.6964C28.9557 71.8138 29.0038 71.9316 29.0501 72.0502C29.1432 72.2882 29.2293 72.5283 29.308 72.7703C29.467 73.2591 29.5972 73.756 29.6986 74.2576C29.7825 74.6715 29.8472 75.0882 29.8931 75.5069C29.9162 75.7165 29.9346 75.9268 29.9486 76.1372C29.9556 76.2434 29.9617 76.3496 29.9665 76.4561C29.9709 76.5587 29.953 76.6869 29.9827 76.7847C30.1225 76.7302 30.2597 76.5944 30.3712 76.4998C30.4988 76.3921 30.6185 76.2766 30.7299 76.1552C31.0738 75.7798 31.2644 75.3515 31.5222 74.9295C31.7962 74.4812 32.1069 74.0517 32.4504 73.6454C32.5395 73.5396 32.6308 73.4354 32.7248 73.3332C32.6977 73.5788 32.5771 73.8189 32.484 74.0525C32.4132 74.2288 32.3363 74.4002 32.2367 74.5645C32.0894 74.8057 31.9159 75.1876 31.7232 75.5186C31.4899 75.9208 31.288 76.2678 31.0992 76.4453C30.5363 76.975 30.0334 77.3761 29.5155 77.7075C29.3058 77.8417 29.0895 77.9667 28.8727 78.0921C28.5183 78.2969 28.1831 78.4904 27.8755 78.724C27.3349 79.1335 26.8966 79.6592 26.6082 80.2446L26.572 80.3196C26.4789 80.5115 26.3762 80.7218 26.2018 80.8853L26.2267 80.8845C26.2722 82.1695 26.4164 83.4657 26.6563 84.7367C26.6816 84.8681 26.7039 85.0151 26.728 85.171C26.863 86.0597 27.0312 87.1652 27.9301 87.3359L28.496 87.4457C30.4743 87.8316 31.5117 88.1717 33.5214 87.9041L35.248 87.7122C34.4994 88.0067 33.1128 88.3801 32.2782 88.3801C30.986 88.3801 29.6414 88.1172 28.3968 87.8748L27.8327 87.7659C27.6491 87.7306 27.4905 87.6689 27.3494 87.5899C25.729 88.9302 23.5952 89.9327 20.8579 90.6536C21.6213 90.9469 21.9879 91.0979 22.9524 91.3652L24.2603 91.8448C23.3465 91.7174 22.4503 91.4826 21.5872 91.1813C20.6927 90.8683 19.8248 90.4793 19.0225 89.9992C18.3133 89.5749 17.6337 89.0729 17.1211 88.4494C17.084 88.4037 16.9568 88.2827 16.9765 88.2315C17.2085 88.31 17.4078 88.5296 17.5905 88.6806C17.8229 88.8726 18.0231 88.9915 18.2285 89.1466C18.6384 89.4567 19.0701 89.7176 19.518 89.9816C19.6653 90.0686 19.8877 90.1655 20.1106 90.2409C20.42 90.3454 20.763 90.3519 21.0798 90.2689Z" fill="#E4E7E9" stroke="#E4E7E9" stroke-width="0.5"></path><path d="M19.5501 59.1418C20.0701 60.6644 20.9533 62.0853 22.1039 63.2517C24.6795 65.8629 28.425 66.8173 31.4 67.3571C32.8539 67.6207 34.247 67.783 35.5405 67.8395C36.4464 67.8787 37.1408 67.8964 37.7928 67.8964C38.7415 67.8964 39.5613 67.8571 40.2998 67.7766C43.0498 67.4768 45.7836 65.223 46.5243 62.6466C46.8568 61.4898 46.6943 60.1796 46.079 59.0521C45.9601 58.8341 45.8242 58.6237 45.6757 58.4262C45.3623 58.0083 44.9607 57.62 44.5727 57.2442C44.4045 57.0819 44.2375 56.92 44.0776 56.7566C43.3233 55.9856 42.5381 55.268 41.9381 54.7291C40.4235 53.3684 38.0882 51.4375 35.3124 50.3869C34.247 49.9838 33.0549 49.7791 31.7715 49.7791C30.7423 49.7791 29.6503 49.9101 28.5264 50.1689C26.2719 50.6874 23.9943 51.623 22.114 52.803C20.921 53.5515 20.0649 54.415 19.5689 55.3694C18.8763 56.7045 19.1503 57.9714 19.5501 59.1418ZM19.1372 55.1811C19.6699 54.1557 20.5801 53.2337 21.8439 52.4412C23.7702 51.2327 26.1019 50.2743 28.4097 49.7434C31.0373 49.1388 33.4797 49.2189 35.4946 49.9814C38.3482 51.0612 40.7298 53.0294 42.2728 54.4158C42.878 54.9595 43.6707 55.6835 44.4333 56.4633C44.591 56.6239 44.7549 56.783 44.9197 56.9425C45.3204 57.3303 45.7351 57.7314 46.0694 58.177C46.2306 58.3913 46.3779 58.6193 46.5068 58.8557C47.1737 60.077 47.3489 61.4995 46.9871 62.7584C46.1996 65.4971 43.2871 67.8924 40.3566 68.2121C39.5993 68.295 38.7607 68.3351 37.7928 68.3351C37.1329 68.3351 36.4311 68.3175 35.5182 68.2774C34.2007 68.2201 32.784 68.0554 31.3074 67.7874C28.2598 67.2344 24.4191 66.2524 21.7486 63.5457C20.5521 62.3329 19.6345 60.8556 19.0935 59.2728C18.6643 58.0175 18.3729 56.6528 19.1372 55.1811Z" fill="#E4E7E9" stroke="#E4E7E9" stroke-width="0.5"></path><path d="M32.6567 61.8435C32.6156 60.1458 33.4844 58.6753 35.2428 57.4632C33.5534 56.4968 32.0287 55.0102 30.6837 53L31.4554 53.7581C34.2119 56.7007 35.9512 57.934 39.8618 58.624L41.1116 58.7698C40.8359 58.7895 40.5636 58.7991 40.2936 58.7991C38.65 58.7991 37.114 58.4337 35.6907 57.7092C33.8763 58.9049 33.0461 60.3125 33.1514 62.0001C34.6494 62.5475 35.8808 63.5364 36.8645 64.9692L35.8974 64.1755C34.8181 63.2258 33.865 62.5984 32.7965 62.2337C32.7965 62.2337 32.6799 62.2129 32.6781 62.1969C31.3143 61.7597 29.7511 61.7393 27.4936 62.023C27.3499 62.041 27.2017 62.0518 27.0567 62.0538L26.0459 62.0667C28.6416 61.3847 30.8327 61.313 32.6567 61.8435Z" fill="#E4E7E9" stroke="#E4E7E9" stroke-width="0.5"></path><path d="M42.7392 32.6531C42.8126 32.6531 42.886 32.6539 42.9586 32.6563C43.2911 32.6663 43.6009 32.7028 43.8784 32.7633C44.2936 32.8542 44.6808 32.9877 45.0286 33.1592C46.2059 33.741 47.2896 34.4317 48.3432 35.2716C49.8019 36.4336 51.268 37.8408 52.8258 39.5741C53.2593 40.0565 53.6758 40.5502 54.0927 41.0434C54.3426 41.3395 54.5917 41.6352 54.8456 41.9285C55.5671 42.7648 55.8787 43.599 55.9202 44.8086C55.9442 45.5086 55.8192 46.199 55.5483 46.861C55.0409 48.0991 54.0289 49.2723 52.454 50.4479L52.2411 50.6085C51.5184 51.1555 50.8353 51.672 49.9391 51.6752L49.485 51.676H49.4842C45.8191 51.676 41.9059 51.5181 38.1259 50.3725C35.4445 49.5599 33.1682 48.3431 31.3604 46.7568C30.281 45.81 29.5661 43.6976 29.2357 42.5228C28.8743 41.2362 28.8573 40.0593 29.1842 39.0248C30.0376 36.3206 32.9698 34.8216 35.2793 34.0403C36.6095 33.5903 38.0608 33.2501 39.7157 33.0001L40.2269 32.9204C41.0555 32.7885 41.9115 32.6531 42.7392 32.6531ZM49.4842 52.1147C49.485 52.1147 49.485 52.1147 49.485 52.1147L49.9408 52.1139C51.0084 52.1099 51.7897 51.5185 52.5457 50.9467L52.7559 50.788C54.3986 49.562 55.4578 48.3278 55.9958 47.0152C56.289 46.2996 56.4245 45.5523 56.3982 44.7946C56.3537 43.4996 56.0014 42.5608 55.2201 41.6561C54.9684 41.364 54.7193 41.0695 54.4711 40.7754C54.0516 40.2781 53.6321 39.7809 53.1951 39.2952C51.6202 37.543 50.1362 36.1186 48.6569 34.9402C47.5763 34.0795 46.4641 33.3703 45.2554 32.7733C44.8713 32.583 44.4452 32.4363 43.9894 32.3366C43.6809 32.2692 43.3392 32.2292 42.9747 32.218C42.0378 32.1859 41.0279 32.3482 40.1452 32.488L39.6379 32.5674C37.9528 32.8218 36.4727 33.1692 35.1137 33.6288C32.7011 34.445 29.6334 36.0224 28.7244 38.903C28.3735 40.0137 28.3893 41.2686 28.7725 42.6321C29.1156 43.8522 29.8646 46.0516 31.0296 47.0737C32.8894 48.7053 35.2264 49.9554 37.9751 50.7889C41.8202 51.954 45.7789 52.1147 49.4842 52.1147Z" fill="#E4E7E9" stroke="#E4E7E9" stroke-width="0.5"></path><path d="M41.9443 46.1399C41.7616 43.751 43.084 41.8153 45.8746 40.3736C43.93 39.4256 42.1401 38.1082 40.5223 36.4209L41.6589 37.1533C44.9456 39.5066 47.0921 40.6714 51.0171 41.7316L51.5542 42.0313C49.7324 41.8157 48.0067 41.3409 46.3854 40.6149C43.4489 42.0445 42.1593 43.9213 42.4477 46.3418C43.774 46.9248 44.9089 47.8524 45.8589 49.141L45.0076 48.3797C42.2401 46.2284 39.9879 45.976 36.1577 46.0493L35.4541 45.9848C37.9799 45.4335 40.1312 45.4856 41.9443 46.1399Z" fill="#E4E7E9" stroke="#E4E7E9" stroke-width="0.5"></path><path d="M53.0517 16.1049C54.3732 16.1049 55.5238 16.2288 56.4721 16.472C62.6149 18.0491 64.7111 23.8678 65.4138 27.1955C65.7975 29.011 66.1265 31.0945 65.1686 32.8423C64.2842 34.4555 62.4934 35.1014 61.1461 35.359C60.0917 35.5601 58.7427 35.4403 57.4951 35.2897L57.0122 35.232C55.4176 35.0477 53.8173 34.7952 52.256 34.4819C50.1221 34.0532 47.6741 33.4962 45.6316 32.309L45.3939 32.1732C45.012 31.9568 44.6165 31.7328 44.3477 31.4648C43.9273 31.0468 43.6092 30.4722 43.354 29.9654C43.0276 29.3199 42.7894 28.6223 42.6256 27.8333C41.8582 24.1378 42.3406 19.4751 45.9948 17.4713C47.1961 16.8121 48.6574 16.4087 50.4621 16.238C51.3885 16.1498 52.2599 16.1049 53.0517 16.1049ZM59.8033 35.9148C60.3272 35.9148 60.7987 35.8735 61.2445 35.7881C62.694 35.5109 64.6263 34.8089 65.596 33.0394C66.6216 31.1682 66.2825 28.9985 65.884 27.1121C65.1599 23.6847 62.9911 17.6904 56.601 16.0496C55.0252 15.6446 52.9495 15.56 50.4127 15.8012C48.5376 15.9791 47.0121 16.4022 45.7492 17.0946C41.8831 19.2146 41.3583 24.0745 42.1554 27.9155C42.3271 28.7405 42.577 29.4713 42.9192 30.1497C43.191 30.6874 43.531 31.2993 43.9955 31.7621C44.3093 32.0742 44.752 32.325 45.1426 32.5462L45.3755 32.6796C47.4836 33.9049 49.9797 34.4735 52.1533 34.9102C53.7291 35.2264 55.3438 35.4812 56.9528 35.6671L57.4326 35.7244C58.2069 35.8182 59.0079 35.9148 59.8033 35.9148Z" fill="#E4E7E9" stroke="#E4E7E9" stroke-width="0.5"></path><path d="M50.0073 21.4736C51.6701 19.5319 54.1338 18.6139 57.3733 18.799L57.3068 18.6664C53.8856 18.3519 51.709 19.0811 50.0265 21.2708L50.0073 21.4736Z" fill="#E4E7E9" stroke="#E4E7E9" stroke-width="0.5"></path><path d="M46.2301 29.4972L46.4333 29.837C45.9124 27.6084 46.4359 25.2909 48.0873 22.7842L47.8146 22.8767C46.0326 25.4888 45.6192 27.2254 46.2301 29.4972Z" fill="#E4E7E9" stroke="#E4E7E9" stroke-width="0.5"></path><path d="M62.1077 18.2585C66.3128 22.0165 70.4201 24.5713 74.6638 26.0698C75.1104 26.2273 75.6072 26.307 76.1412 26.307C77.5409 26.307 79.0048 25.7481 79.8705 24.883C80.5172 24.2359 81.0696 23.3252 81.348 22.4465C81.6491 21.494 81.4961 20.2279 81.3615 19.1108C81.3362 18.9024 81.3121 18.7009 81.2916 18.5093C81.0709 16.4202 80.585 14.3534 79.8487 12.3673C79.5589 11.5871 79.2705 10.8282 78.9187 10.1174C78.7902 9.85777 78.6565 9.61215 78.5224 9.38816C78.178 8.81559 77.5544 8.37725 76.6708 8.08035C76.3641 8.03948 76.0612 8.00822 75.7597 7.97937C75.525 8.00542 75.2751 8.0499 75.0439 8.09277C74.8687 8.12482 74.7079 8.15407 74.5746 8.1713C73.9344 8.25464 73.2977 8.36283 72.6824 8.49345C71.4636 8.75149 70.2672 9.1085 69.1266 9.55527C66.9028 10.4268 64.7969 11.6761 62.8689 13.2692L62.608 13.4824C61.9123 14.0481 61.124 14.6892 60.867 15.4938C60.5625 16.4498 61.3788 17.5297 62.1077 18.2585ZM61.703 13.6446C61.8984 13.474 62.0976 13.3113 62.2908 13.1542L62.5486 12.9434C64.5159 11.3179 66.6655 10.0425 68.9387 9.15176C70.105 8.69539 71.3286 8.32956 72.5745 8.06591C72.9018 7.99659 73.2357 7.93368 73.5721 7.87719C68.1207 7.88881 63.7682 9.98881 61.703 13.6446ZM60.4086 15.3708C60.4397 15.2734 60.4799 15.18 60.5223 15.0879L60.5214 15.0875C62.3869 9.72755 68.3116 6.83822 75.7798 7.54062C76.0647 7.51457 76.3296 7.51458 76.5223 7.56947C76.611 7.59432 76.6931 7.62317 76.7775 7.65041C76.8247 7.65682 76.8701 7.65921 76.9173 7.66603L76.9129 7.69369C77.8682 8.02826 78.5499 8.5255 78.9414 9.17661C79.0817 9.41021 79.2207 9.66625 79.3544 9.93631C79.7149 10.6651 80.0082 11.4349 80.3009 12.2258C81.0499 14.2441 81.5437 16.344 81.7679 18.4673C81.788 18.6564 81.8121 18.8559 81.837 19.0627C81.9768 20.2203 82.135 21.5325 81.8072 22.5687C81.5097 23.5091 80.9171 24.4851 80.2231 25.1795C79.2709 26.1311 77.6685 26.7458 76.1412 26.7458C75.5482 26.7458 74.9932 26.656 74.492 26.4793C70.1863 24.9591 66.0266 22.3727 61.7646 18.5638C60.9435 17.7432 60.0411 16.5231 60.4086 15.3708Z" fill="#E4E7E9" stroke="#E4E7E9" stroke-width="0.5"></path><path d="M75.3101 10.6035C70.4578 11.2402 66.7163 13.0501 64.1782 16.1674C66.5441 12.4671 70.359 10.682 75.3101 10.6035Z" fill="#E4E7E9" stroke="#E4E7E9" stroke-width="0.5"></path><path d="M80.9725 12.0075C81.0992 12.2491 81.2282 12.4963 81.3549 12.7535C83.313 16.7343 86.0447 19.9522 89.4681 22.315C92.7735 24.4715 95.9705 24.2119 99.1308 21.5289C101.545 18.1131 103.23 13.9672 104.283 8.85529C104.462 7.985 104.617 6.94804 104.405 5.85137C104.286 5.23672 104.038 3.95693 103.423 3.59391C103.181 3.45046 102.856 3.42844 102.542 3.4072C100.564 3.27257 99.0124 3.18923 97.3894 3.18923C95.4007 3.18923 93.5199 3.31944 91.4704 3.59872C89.6783 3.84274 87.8031 4.22418 85.8957 4.73265C84.9478 4.98588 83.9864 5.27358 83.0386 5.58772C82.7764 5.67467 82.4994 5.73636 82.2315 5.79606C81.5896 5.93951 80.9834 6.07495 80.6024 6.52933C80.1221 7.1015 80.0159 7.9289 79.9757 8.66256C79.9041 9.96598 80.3992 10.912 80.9725 12.0075ZM82.1174 5.37014C82.1179 5.37014 82.1183 5.37014 82.1183 5.37014C82.3858 5.31044 82.6383 5.25394 82.8761 5.175C83.8331 4.85766 84.8041 4.56717 85.7619 4.31154C87.69 3.79746 89.5869 3.4116 91.4 3.16478C93.4735 2.88229 95.3766 2.75048 97.3894 2.75048C98.7244 2.75048 100.013 2.80696 101.52 2.90112C93.9223 0.400857 87.4094 1.23468 82.1174 5.37014ZM79.4977 8.64012C79.5422 7.83915 79.6624 6.93001 80.2231 6.26207C80.435 6.00884 80.6937 5.83894 80.9738 5.71152C86.9322 0.54551 94.4699 -0.335197 103.379 3.09305V3.09346C103.483 3.12672 103.586 3.16799 103.683 3.22529C104.472 3.69209 104.734 5.0472 104.876 5.77644C105.101 6.94123 104.94 8.02749 104.753 8.93664C103.686 14.1167 101.973 18.3214 99.5158 21.7906L99.4782 21.8318C97.6311 23.4065 95.7337 24.2051 93.8384 24.2051C93.8384 24.2051 93.8384 24.2051 93.838 24.2051C92.3133 24.2051 90.7498 23.6894 89.1853 22.6689C85.692 20.2579 82.9106 16.9828 80.9192 12.9338C80.7938 12.6798 80.6662 12.4358 80.5412 12.1974C79.9648 11.0959 79.4199 10.0553 79.4977 8.64012Z" fill="#E4E7E9" stroke="#E4E7E9" stroke-width="0.5"></path><path d="M101.945 6.93675L101.468 6.80213C95.3428 5.36087 88.9339 6.09412 82.7505 8.97824L83.0293 8.78272C89.37 5.04714 95.7632 4.56591 101.945 6.93675Z" fill="#E4E7E9" stroke="#E4E7E9" stroke-width="0.5"></path></svg> 