<?xml version="1.0" encoding="UTF-8"?> <svg xmlns="http://www.w3.org/2000/svg" width="20" height="20" viewBox="0 0 20 20" fill="none"> <circle cx="10" cy="10" r="10" fill="#231F20"></circle> <path fill-rule="evenodd" clip-rule="evenodd" d="M17.2499 8.90124L16.6277 8.92091C16.5748 8.92091 16.1926 8.90993 15.8216 8.64222C15.8494 8.6448 15.877 8.64881 15.9053 8.64881C16.2869 8.64881 16.6568 8.42025 16.8047 8.09268L17.0724 7.50133C16.7364 7.50581 16.4295 7.46361 16.4295 7.46361C16.4271 7.46342 16.1849 7.4322 15.9051 7.1476C15.7045 6.94377 15.456 6.83569 15.1872 6.83569C15.0694 6.83569 14.9642 6.85689 14.8734 6.88553C14.8878 6.8377 14.9008 6.78891 14.9087 6.73888C14.9944 6.18543 14.6369 5.76363 14.6367 5.76401L14.1682 5.18669L13.8779 5.86483C13.877 5.86674 13.8035 6.02589 13.6725 6.10323C13.6332 5.90397 13.5358 5.6798 13.3279 5.46595C12.9361 5.06248 12.4594 5.00204 12.2099 5.00204C12.0945 5.00204 12.0119 5.01455 11.9918 5.01789L11.4266 5.12826C11.4592 5.0029 11.5289 4.78379 11.6557 4.58664L11.9677 4.10327L11.1828 4.19206L10.9329 3.66371L10.4488 3.91204L10.0012 3.47229L9.55485 3.91204L9.06972 3.66371L8.82027 4.19206L8.03552 4.10308L8.34805 4.58683C8.47503 4.7838 8.54433 5.00224 8.57662 5.12769L8.03732 5.0219L8.0187 5.01885C7.99189 5.01455 7.90992 5.00204 7.79367 5.00204C7.54436 5.00204 7.06749 5.06248 6.67668 5.46576C6.46869 5.67961 6.37102 5.90397 6.3313 6.10323C6.20114 6.02656 6.1282 5.87008 6.1282 5.87008L5.83738 5.18803L5.36184 5.76879C5.30352 5.84364 5.01725 6.24032 5.09493 6.73945C5.10295 6.78929 5.11608 6.8377 5.13014 6.88553C5.03996 6.8565 4.93468 6.83569 4.81706 6.83569C4.54798 6.83569 4.29964 6.94377 4.09851 7.1476C3.81945 7.43106 3.62958 7.45092 3.5811 7.46295C3.53262 7.47498 3.32653 7.50858 2.93255 7.50133L3.19909 8.09268C3.34704 8.42025 3.71707 8.64881 4.09806 8.64881C4.12686 8.64881 4.15427 8.6448 4.18242 8.64222C3.81217 8.90993 3.43002 8.92091 3.38381 8.9211L2.75 8.90124L2.94195 9.50067C3.03865 9.80954 3.36169 10.3212 3.97992 10.3763C3.9126 10.6568 3.76346 10.9713 3.43587 11.1068L2.9637 11.3004L3.2212 11.7468C3.36643 11.9875 3.70809 12.2691 4.19398 12.2691C4.29885 12.2687 4.40022 12.2583 4.49808 12.2375C4.52315 12.3476 4.55424 12.4579 4.59121 12.5673C4.73587 12.996 4.61119 13.2947 4.60982 13.2981L4.37658 13.7841L4.89713 13.9206C4.90354 13.9226 5.06088 13.9656 5.25776 13.9656C5.34697 13.9656 5.4327 13.9564 5.51233 13.9374C5.57278 13.9234 5.6311 13.9047 5.6869 13.882C5.75441 14.0022 5.83623 14.112 5.93151 14.2104C6.26515 14.551 6.73792 14.7236 7.33656 14.7236H7.3385L7.76585 14.7181L6.88292 15.0837L7.55335 15.4062C7.79718 15.5243 8.08565 15.6638 8.37993 15.7708L8.29598 15.9989L8.52732 16.1036C8.54787 16.113 8.99226 16.3107 9.7308 16.3529C9.7308 16.3529 9.90921 16.3611 10.0075 16.3611C10.1055 16.3611 10.2816 16.3523 10.2816 16.3523C11.0157 16.3091 11.4566 16.113 11.4771 16.1036L11.7088 15.9985L11.6242 15.7702C11.9266 15.6601 12.2262 15.5149 12.4598 15.4013L13.1175 15.0833L12.2375 14.7181L12.6667 14.7236C13.2663 14.7236 13.739 14.5508 14.0721 14.2098C14.167 14.1122 14.2487 14.0028 14.3165 13.882C14.3725 13.9047 14.4312 13.9234 14.4918 13.9378C14.5716 13.9564 14.6568 13.9656 14.7461 13.9656C14.9396 13.9656 15.0985 13.9232 15.1028 13.9218L15.6255 13.7841L15.3977 13.3069C15.3924 13.2947 15.2677 12.996 15.4126 12.5669C15.4491 12.4574 15.4801 12.3472 15.5054 12.2375C15.6036 12.2583 15.7062 12.2687 15.8119 12.2691C16.431 12.2691 16.7276 11.836 16.7849 11.7417L17.0401 11.3L16.5679 11.1072C16.2396 10.9713 16.0908 10.657 16.0243 10.3767C16.6344 10.3238 16.9618 9.8117 17.0619 9.50089L17.2499 8.90124Z" fill="#FEFEFE"></path> <path fill-rule="evenodd" clip-rule="evenodd" d="M10.8521 14.0762C10.7866 14.0762 10.7264 14.077 10.6724 14.0794L10.8145 13.6391C10.8294 13.5982 10.7832 13.5492 10.7373 13.5005C10.7152 13.4771 10.6932 13.4536 10.6781 13.4313C10.7481 13.4749 10.9292 13.5707 11.0164 13.6091C11.0076 13.6233 10.8521 14.0762 10.8521 14.0762ZM8.53307 13.2943C8.53307 13.2943 8.701 13.2256 8.71585 13.1769L8.69332 13.1209C8.67751 13.0848 8.67982 13.0454 8.71036 13.0239L8.89135 12.8995L9.19369 12.9574C9.19369 12.9574 9.13906 12.8892 9.14435 12.7981L8.85554 12.7373L8.58356 12.9021C8.46672 12.9891 8.45833 13.131 8.49689 13.2154L8.53307 13.2943ZM11.1385 12.8588C11.1315 12.8569 11.1241 12.8562 11.1176 12.8562C11.0745 12.8562 11.0557 12.894 11.0557 12.894C11.0846 12.971 11.0918 13.0262 11.0983 13.0763C11.1057 13.132 11.1122 13.1815 11.1467 13.2475C11.1879 13.3263 11.2562 13.3929 11.2981 13.4335C11.3058 13.4411 11.3127 13.4476 11.3182 13.4534C11.3182 13.4534 11.3084 13.5236 11.2982 13.5765L11.2051 14.0581C11.1458 14.0662 11.0835 14.0705 11.019 14.0735L11.1166 13.6101C11.1309 13.5432 11.0499 13.4986 10.942 13.4392C10.8285 13.3768 10.6852 13.2979 10.5912 13.1592C10.5016 13.2596 10.3331 13.2896 10.1637 13.2896C10.009 13.2896 9.85462 13.2648 9.76049 13.2463C9.73684 13.2429 9.71413 13.2399 9.69161 13.2399C9.63745 13.2399 9.58792 13.2566 9.55365 13.3137L9.52688 13.359L9.02102 13.2403L8.89496 13.4481C8.87737 13.4815 8.8762 13.5098 8.90474 13.5412L8.93882 13.5784C8.91533 13.6516 8.81009 13.7626 8.81009 13.7626L8.73494 13.6691C8.67542 13.6029 8.68519 13.4815 8.74688 13.3695L8.94763 13.0325L9.37621 13.0938L9.30986 12.9429C9.24729 12.8034 9.29495 12.6375 9.33433 12.5003L9.33437 12.5002C9.35141 12.4408 9.36692 12.3869 9.37129 12.3427C9.3664 12.3869 9.32545 12.397 9.27794 12.397C9.25486 12.397 9.23021 12.3946 9.20738 12.3924C9.18765 12.3904 9.16934 12.3887 9.1545 12.3887C9.14174 12.3887 9.131 12.39 9.12529 12.3941L9.00908 12.4644L8.91764 12.384C8.90653 12.3686 8.90302 12.332 8.92984 12.3048L9.14174 12.0682L8.89146 11.7771L9.24214 11.9523L9.34939 11.8233C9.37871 11.8517 9.36581 11.9269 9.36581 11.9269C9.475 11.9296 9.78223 12.0982 9.79845 12.4928C9.79905 12.5048 9.79905 12.5183 9.79905 12.5316C9.79905 12.5316 9.80218 12.5362 9.80747 12.5445C9.82918 12.5741 9.88907 12.65 9.96478 12.6572L10.4497 12.7049H10.4515C10.472 12.7049 10.5002 12.6957 10.535 12.6843C10.5906 12.6663 10.6627 12.6428 10.7463 12.6428C10.8201 12.6428 10.9024 12.6615 10.9902 12.7166C10.9902 12.7166 11.0344 12.682 11.1059 12.678C11.1113 12.6777 11.1176 12.6777 11.1225 12.6777C11.3052 12.6777 11.3981 12.8157 11.4924 12.956C11.5103 12.9826 11.5283 13.0093 11.5469 13.0352C11.6344 13.1592 11.752 13.3429 11.752 13.3429C11.7086 13.3938 11.6685 13.4224 11.601 13.4224C11.5826 13.4224 11.5615 13.421 11.5384 13.4161C11.4043 13.3917 11.3362 13.2235 11.2772 13.0778C11.2337 12.9702 11.195 12.8748 11.1385 12.8588ZM9.18236 12.1321C9.18079 12.157 9.19899 12.178 9.22379 12.1786C9.24784 12.1808 9.26861 12.1623 9.27093 12.138C9.2719 12.1146 9.25414 12.0928 9.22912 12.0919C9.20466 12.0897 9.18447 12.1086 9.18236 12.1321ZM8.76108 9.3456L8.74076 10.1107L8.8284 10.124L9.04209 9.38979L8.93372 9.16391L8.76108 9.3456ZM10.1143 9.12705C10.3124 9.10741 10.5339 9.02289 10.7652 8.79489H12.2737C12.208 8.96778 12.1536 9.15495 12.1536 9.34112L12.1542 10.5429C11.9017 10.5007 11.8717 10.2303 11.8708 10.2186L11.8663 10.1634L11.8121 10.1587C11.7021 10.1484 11.6297 10.1022 11.5682 10.0428C11.4446 9.91951 11.4444 9.72011 11.4446 9.71858C11.4446 9.71873 11.4445 9.71899 11.4444 9.71925C11.4442 9.7197 11.4439 9.72022 11.4436 9.72089C11.4429 9.7225 11.4416 9.72469 11.44 9.72761C11.4176 9.76867 11.325 9.93794 11.4646 10.1209C11.53 10.207 11.6252 10.26 11.7483 10.2811C11.7772 10.4308 11.8892 10.6427 12.1542 10.6748V11.2633H11.4096C11.0663 11.0729 11.2119 10.7383 11.2184 10.7241L11.2475 10.6608L11.1818 10.6358C10.8099 10.4987 10.9123 10.1297 10.9172 10.1135L10.9323 10.06L10.8818 10.0362C10.5747 9.89442 10.6162 9.51313 10.6203 9.49712C10.5261 9.57325 10.492 9.72868 10.5569 9.88095C10.5237 9.91904 10.4796 9.96443 10.431 10.0145L10.4308 10.0146H10.4308L10.4229 10.0228C10.1049 9.94193 10.0949 9.65115 10.0949 9.63814L10.0942 9.59334L10.0525 9.57716C9.92842 9.5314 9.84305 9.46285 9.80121 9.37074C9.75404 9.26889 9.77067 9.16174 9.78357 9.11035C9.82001 9.11848 9.85603 9.124 9.89087 9.12705C9.92667 9.13079 9.96306 9.13296 10.0002 9.13296H10.0023H10.0051C10.0421 9.13296 10.0781 9.13079 10.1143 9.12705ZM10.1594 10.4676L10.1411 10.4854C10.1376 10.4888 10.1352 10.4911 10.1342 10.4921L10.1148 10.5113L9.11172 10.4955C9.11112 10.5944 9.0949 10.6785 9.07924 10.7401C9.0767 10.7504 9.07398 10.7611 9.07122 10.7718L10.2645 10.9852C10.3886 10.899 10.7302 10.6506 10.8629 10.5533C10.7665 10.4133 10.7573 10.2467 10.7792 10.1295C10.7156 10.0894 10.6674 10.0439 10.6291 9.99552C10.4912 10.1451 10.2405 10.3888 10.1595 10.4674L10.1595 10.4675L10.1594 10.4676ZM8.93845 10.7567C8.88583 10.7567 8.78253 10.7505 8.69757 10.7197C8.60389 10.6852 8.46414 10.5141 8.49626 10.3255C8.53676 10.3008 8.63071 10.2482 8.71853 10.2482C8.78626 10.2482 8.83239 10.2799 8.86491 10.3478C8.89303 10.4067 8.94393 10.4459 8.97959 10.4683C8.97836 10.5233 8.9731 10.6089 8.95822 10.6846C8.9549 10.7016 8.95061 10.7172 8.9461 10.7326C8.94438 10.7392 8.94233 10.7452 8.94062 10.7502L8.93961 10.7532C8.9392 10.7544 8.93882 10.7556 8.93845 10.7567ZM10.7156 7.21768L10.9451 5.89472L10.0724 6.18915V7.5547L10.7156 7.21768ZM10.2601 6.52483L10.6571 6.35852C10.6571 6.35852 10.6539 6.48598 10.4746 6.62422C10.3778 6.70041 10.3178 6.71979 10.3048 6.72399C10.3033 6.72437 10.3025 6.72466 10.3022 6.72485L10.2601 6.74413V6.52483ZM9.93252 6.18915V7.5547L9.28949 7.21768L9.05917 5.89472L9.93252 6.18915ZM9.745 6.74413V6.52483L9.34797 6.35852C9.34797 6.35852 9.35152 6.48598 9.53016 6.62422C9.62689 6.70012 9.68687 6.7196 9.7 6.7239C9.70163 6.72437 9.70249 6.72466 9.70276 6.72485L9.745 6.74413ZM8.93129 8.04218C8.95494 8.06748 8.97828 8.09488 9.00096 8.12276L9.00409 8.12658C9.00819 8.13154 9.01222 8.13632 9.01661 8.14243C9.03735 8.16983 9.05832 8.19914 9.07864 8.22912C9.08125 8.23246 9.08375 8.23618 9.08643 8.2401L9.08894 8.24382L9.09031 8.24592L9.09128 8.24726L9.09233 8.24878C9.1166 8.28516 9.13951 8.32297 9.16221 8.36192C9.37121 8.7209 9.70544 8.93571 10.0023 8.936C10.2993 8.93571 10.6333 8.7209 10.8429 8.36192C10.8661 8.32201 10.8896 8.28325 10.9138 8.24706C10.9176 8.242 10.9213 8.23666 10.9245 8.23122C10.9451 8.20028 10.9669 8.1703 10.9894 8.14109C10.9924 8.13708 10.9954 8.13336 10.9983 8.12973L11.003 8.12371C11.0263 8.09488 11.0504 8.06729 11.0748 8.04113C11.0766 8.03951 11.0782 8.03788 11.0797 8.03636C11.082 8.03397 11.0842 8.03177 11.0866 8.02967C11.193 7.92141 11.3198 7.83863 11.486 7.79281L11.412 7.74994H11.4081L11.114 7.58019L10.8118 7.40776L10.0047 7.84522L10.0023 7.84331L10.0007 7.84522L9.19332 7.40776L8.89135 7.58019L8.59665 7.74994H8.59334L8.51882 7.79281C8.68515 7.83863 8.8115 7.92045 8.91835 8.02891C8.92022 8.03063 8.92186 8.03244 8.9235 8.03435C8.92589 8.03702 8.92827 8.0397 8.93129 8.04218ZM9.67538 8.00705H10.358V8.2401C10.278 8.14243 10.1215 8.16238 10.1215 8.16238V8.49835C10.1215 8.49835 10.1276 8.6638 10.1857 8.73531H10.0172H9.84775C9.90683 8.6638 9.91216 8.49835 9.91216 8.49835V8.16238C9.91216 8.16238 9.75616 8.14243 9.67538 8.2401V8.00705ZM6.95691 12.3933C6.81233 12.522 6.47869 12.5637 6.47869 12.5637C6.47869 12.5637 7.10352 12.6895 7.17217 13.6072C7.20954 14.1044 7.33615 14.2771 7.33615 14.2771H7.32601C5.87688 14.2771 5.9141 13.0406 5.9141 13.0406C5.9141 13.0406 5.81296 13.4068 5.40925 13.5025C5.36088 13.5148 5.30922 13.5199 5.25877 13.5199C5.1288 13.5199 5.01629 13.4896 5.01629 13.4896C5.01629 13.4896 5.22684 13.0455 5.01684 12.4239C4.84327 11.9081 4.87147 11.5261 4.87147 11.5261C4.87147 11.5261 4.67658 11.8198 4.19242 11.8227H4.18754C3.7848 11.8227 3.60892 11.5184 3.60892 11.5184C4.57424 11.1195 4.47973 9.83169 4.47973 9.83169C4.47973 9.83169 4.35428 9.92478 4.10944 9.93354C4.10046 9.93418 4.09244 9.93418 4.08404 9.93418C3.55157 9.93418 3.37109 9.36682 3.37109 9.36682H3.38187C3.48014 9.36682 4.2707 9.34385 4.82977 8.6365C4.84555 8.61654 4.86117 8.59678 4.87672 8.57711H4.87676C5.22449 8.1366 5.52568 7.75519 6.09513 7.601L6.15498 7.59069L6.1677 7.53121C6.18433 7.44089 6.1219 7.35564 5.98063 7.26427C5.15815 6.72829 5.71663 6.0447 5.71663 6.0447C5.71663 6.0447 5.95008 6.59138 6.47708 6.59138C6.48336 6.59138 6.48943 6.59128 6.4957 6.59119C6.50208 6.591 6.5086 6.59081 6.51546 6.59081L6.53075 6.58995C6.5848 6.58708 6.63801 6.58412 6.69078 6.57305L6.78786 6.55424C6.78786 6.55424 6.63737 6.14858 6.99976 5.77633C7.27197 5.49535 7.60348 5.44743 7.79446 5.44743C7.89131 5.44743 7.9518 5.45984 7.9518 5.45984C7.77059 5.69613 7.63928 6.08833 7.84887 6.33017C7.91902 6.41074 8.02829 6.46163 8.13588 6.51166C8.3062 6.591 8.47232 6.66833 8.47232 6.85823C8.47232 6.9895 8.34902 7.14273 8.12791 7.28021C7.46236 7.69724 6.80192 8.25107 6.52721 8.9925C6.18433 9.91781 6.57103 10.5318 7.12346 10.8839C7.12346 10.8839 6.95008 11.0425 6.69861 11.0627C6.64752 11.0676 6.59822 11.07 6.55066 11.07C6.02132 11.07 5.74717 10.8226 5.74717 10.8226C5.74717 10.8226 5.79275 11.1644 6.06674 11.4819C6.32288 11.7746 6.65651 11.9473 7.16609 11.9544C7.16609 11.9544 7.18213 12.1898 6.95691 12.3933ZM5.10079 10.3901C5.16654 11.4049 5.66419 12.1093 6.24597 12.7873C6.5479 13.139 6.65457 13.4806 6.65457 13.4806C6.65457 13.4806 6.59546 13.0932 6.33324 12.7786C5.7914 12.1292 5.27532 11.3208 5.2374 10.3864C5.21021 9.73394 5.3787 9.20519 5.64207 8.7693C5.4951 9.22346 5.51527 9.7791 6.01523 10.2983C6.01523 10.2983 5.02057 9.11229 6.41148 7.89639C6.80617 7.56806 7.22718 7.329 7.55033 7.14541C7.68254 7.07027 7.79838 7.00449 7.88937 6.94568C6.7575 7.31334 6.20447 6.90844 6.20447 6.90844C6.56574 7.22045 7.03381 7.2152 7.3244 7.17023L7.31773 7.17348C7.24105 7.21061 7.16069 7.24966 7.07566 7.29558C6.12052 7.81152 5.26302 8.66103 5.11605 9.83699V9.82785C4.89433 10.9827 4.40045 11.2791 4.40045 11.2791C4.79319 11.0863 5.04071 10.5743 5.10079 10.3901ZM15.8958 9.93354C15.9048 9.93414 15.9122 9.93414 15.9212 9.93414C16.4535 9.93414 16.6337 9.36682 16.6337 9.36682H16.6234C16.5257 9.36682 15.7344 9.34385 15.1751 8.6365C15.1594 8.61673 15.1439 8.59707 15.1285 8.5775C14.7808 8.1367 14.4798 7.755 13.9092 7.60091L13.8505 7.59088L13.8379 7.53121C13.8213 7.44089 13.8839 7.35583 14.0254 7.26427C14.8479 6.72829 14.2892 6.04451 14.2892 6.04451C14.2892 6.04451 14.0543 6.59138 13.529 6.59138C13.5227 6.59138 13.5163 6.59119 13.5098 6.591C13.5033 6.59081 13.4966 6.59062 13.49 6.59062L13.4784 6.59004C13.4228 6.58708 13.3688 6.58431 13.3147 6.57305L13.218 6.55414C13.218 6.55414 13.3677 6.14848 13.0061 5.77633C12.7337 5.49526 12.4024 5.44762 12.211 5.44762C12.1147 5.44762 12.0534 5.45984 12.0534 5.45984C12.2351 5.69613 12.3664 6.08833 12.1568 6.33045C12.0866 6.41084 11.9772 6.46163 11.8695 6.51166C11.6989 6.591 11.5325 6.66823 11.5325 6.85823C11.5325 6.98969 11.6561 7.14273 11.8772 7.28021C12.5427 7.69714 13.2033 8.25088 13.4783 8.9925C13.8213 9.91758 13.4346 10.5317 12.8828 10.8839C12.8828 10.8839 13.056 11.0425 13.3069 11.0627C13.358 11.0676 13.4078 11.0701 13.4544 11.0701C13.9844 11.0701 14.2585 10.8226 14.2585 10.8226C14.2585 10.8226 14.2133 11.1644 13.9376 11.4817C13.683 11.7746 13.3491 11.9473 12.8395 11.9543C12.8395 11.9543 12.8235 12.1898 13.0489 12.3934C13.1936 12.522 13.5269 12.5637 13.5269 12.5637C13.5269 12.5637 12.9026 12.6897 12.8337 13.6072C12.7963 14.1044 12.6686 14.2773 12.6686 14.2773H12.6796C14.1283 14.2773 14.0914 13.0408 14.0914 13.0408C14.0914 13.0408 14.1919 13.4068 14.5962 13.5025C14.6449 13.5148 14.6971 13.5199 14.7467 13.5199C14.8766 13.5199 14.9898 13.4896 14.9898 13.4896C14.9898 13.4896 14.778 13.0453 14.9883 12.4239C15.1622 11.9081 15.1342 11.5263 15.1342 11.5263C15.1342 11.5263 15.3293 11.8198 15.813 11.8225H15.8181C16.221 11.8225 16.3966 11.5184 16.3966 11.5184C15.4307 11.1193 15.5261 9.83169 15.5261 9.83169C15.5261 9.83169 15.6516 9.92478 15.8958 9.93354ZM15.6052 11.2791C15.212 11.0863 14.9641 10.5744 14.904 10.3902C14.8387 11.4049 14.341 12.1093 13.759 12.7875C13.457 13.139 13.3517 13.4808 13.3517 13.4808C13.3517 13.4808 13.41 13.0935 13.671 12.7783C14.2141 12.1292 14.7301 11.321 14.7685 10.3863C14.7946 9.73413 14.6264 9.20534 14.3634 8.7693C14.5105 9.22332 14.4896 9.7791 13.9902 10.2981C13.9902 10.2981 14.9847 9.11226 13.5945 7.89639C13.1996 7.56787 12.778 7.32862 12.4545 7.14502C12.3224 7.07008 12.2066 7.0043 12.1157 6.94568C13.248 7.31334 13.801 6.90863 13.801 6.90863C13.4395 7.22045 12.9712 7.2151 12.6811 7.17013C12.7599 7.20832 12.8417 7.24833 12.9298 7.29539C13.8845 7.81152 14.7426 8.66084 14.889 9.83699V9.82799C15.1111 10.9829 15.6052 11.2791 15.6052 11.2791ZM4.24578 8.1788C4.19805 8.1958 4.14815 8.20315 4.09881 8.20315C3.88553 8.20315 3.67907 8.06586 3.60881 7.90909C3.60881 7.90909 3.99961 7.88532 4.41976 7.46056C4.55421 7.3227 4.6957 7.28174 4.81799 7.28174C5.00565 7.28174 5.1477 7.38094 5.1477 7.38094C4.87427 7.52596 4.71774 7.71824 4.58617 7.87988C4.47366 8.01822 4.37938 8.13402 4.24578 8.1788ZM15.7582 8.1788C15.8074 8.1958 15.8571 8.20315 15.9064 8.20315C16.1199 8.20315 16.3257 8.06586 16.3969 7.9089C16.3969 7.9089 16.0058 7.88532 15.5851 7.46056C15.4514 7.32289 15.3095 7.28174 15.1881 7.28174C14.9992 7.28174 14.8575 7.38075 14.8575 7.38075C15.1317 7.52606 15.2881 7.71872 15.4195 7.88055C15.5314 8.0186 15.6251 8.13402 15.7582 8.1788ZM8.16255 14.6065L8.28305 14.9978L7.87531 15.1327C8.12145 15.2557 8.42118 15.3706 8.78163 15.4689L8.97828 14.9309C8.74504 14.8602 8.34253 14.7079 8.16255 14.6065ZM11.0271 14.9309C11.2608 14.8602 11.6628 14.7079 11.8429 14.6065L11.7227 14.9978L12.1301 15.1327C11.8838 15.2557 11.5852 15.3706 11.2234 15.4689L11.0271 14.9309ZM10.0124 15.2546H9.99305C9.6903 15.2565 9.27249 15.1946 9.07174 15.1363L8.82989 15.7877C8.98917 15.8441 9.52968 15.9526 10.0032 15.9526C10.4758 15.9526 11.0165 15.8441 11.1756 15.7877L10.934 15.1363C10.7326 15.1946 10.3153 15.2565 10.0124 15.2546ZM10.0023 5.30775C9.50211 5.30832 9.12716 5.4713 9.04553 5.66319L10.0023 6.03926L10.9592 5.66319C10.8784 5.4713 10.5032 5.30832 10.0023 5.30775ZM11.0336 4.93235C10.7488 4.77463 10.3796 4.68489 10.0023 4.68489C9.62693 4.68489 9.25768 4.77463 8.97216 4.93235C8.94614 4.84566 8.90992 4.74036 8.86066 4.63009L8.96788 4.64278L9.08058 4.65472L9.12914 4.55228L9.27119 4.2501L9.53459 4.38587L9.63675 4.43752L9.71793 4.3577L10.0023 4.07701L10.2872 4.3577L10.3687 4.43752L10.471 4.38587L10.733 4.2501L10.877 4.55228L10.9245 4.65472L11.0375 4.64278L11.1451 4.63009C11.0957 4.74036 11.0592 4.84566 11.0336 4.93235Z" fill="white"></path> <path fill-rule="evenodd" clip-rule="evenodd" d="M7.85101 11.3931H12.1534L12.1542 13.0038C12.1542 13.5376 11.8394 13.9104 11.3429 14.0319L11.4261 13.6009L11.4271 13.5949C11.4314 13.5708 11.4361 13.5438 11.4395 13.521C11.463 13.5308 11.4879 13.539 11.5145 13.5438C11.5456 13.5497 11.5741 13.5526 11.6004 13.5526C11.7272 13.5526 11.8012 13.4862 11.8503 13.4295L11.9141 13.3555L11.862 13.2745C11.8573 13.2665 11.7417 13.085 11.6532 12.9607C11.6358 12.9364 11.6192 12.9118 11.6024 12.8857C11.5014 12.7354 11.375 12.5473 11.122 12.5473L11.0991 12.5477C11.0575 12.5504 11.0217 12.5584 10.9926 12.5694C10.9131 12.5327 10.8307 12.5132 10.7456 12.5132C10.641 12.5132 10.5527 12.5419 10.494 12.5619C10.4888 12.5633 10.4838 12.565 10.479 12.5664C10.4681 12.5698 10.4584 12.5728 10.4501 12.5742L9.97699 12.5278C9.9711 12.5269 9.95152 12.5155 9.92806 12.4877V12.4854L10.0304 12.4445C10.0016 12.105 9.67424 11.8962 9.49149 11.8255C9.48347 11.7915 9.46703 11.7576 9.43847 11.7299L9.33668 11.6339L9.24725 11.7404L9.20321 11.795L8.54024 11.5238L8.97173 12.0628L8.8017 12.3192C8.73923 12.3853 8.80794 12.4511 8.80794 12.4511L8.98388 12.5718L9.16606 12.5041C9.17046 12.5041 9.17449 12.5047 9.17856 12.5054C9.18035 12.5057 9.18218 12.506 9.18404 12.5062C9.17901 12.5215 9.17322 12.5622 9.16782 12.6004C9.16353 12.6303 9.15954 12.6586 9.15626 12.6719L8.83981 12.61L8.50753 12.7968C8.33672 12.9218 8.31342 13.1283 8.37681 13.2696L8.41363 13.3499L8.46587 13.4632L8.58249 13.4154C8.58409 13.4152 8.58562 13.4143 8.5864 13.4135C8.54475 13.5463 8.56175 13.6727 8.63611 13.7555L8.70697 13.8437L8.80088 13.9617L8.90404 13.8517C8.93413 13.8218 9.03277 13.7119 9.06313 13.6182L9.08522 13.5463L9.03509 13.4911L9.02651 13.4813L9.08346 13.3882L9.49634 13.4851L9.58913 13.5064L9.63843 13.4253L9.66543 13.3811C9.67054 13.3715 9.6717 13.3701 9.69087 13.3701C9.70538 13.3701 9.72003 13.3715 9.73588 13.3752C9.89185 13.4044 10.0355 13.419 10.1629 13.419C10.2868 13.419 10.3607 13.4143 10.4485 13.3853C10.4485 13.3853 10.6703 13.636 10.6779 13.6452L10.5424 14.0624L10.5361 14.0874C10.2791 14.1082 10.1538 14.1643 10.0026 14.3147C9.78302 14.0979 9.62709 14.075 9.0367 14.075C8.32986 14.075 7.85101 13.6624 7.85101 13.0038V11.3931ZM11.1975 11.2635H7.85101V9.34124C7.85101 9.15507 7.79626 8.9679 7.73145 8.79495H9.23961C9.38308 8.93673 9.52338 9.02518 9.65704 9.07366C9.63981 9.14202 9.61669 9.28322 9.6811 9.42423C9.73372 9.53775 9.82885 9.62521 9.9668 9.68361C9.98149 9.82383 10.0711 10.035 10.3175 10.1282C10.2092 10.2367 10.1043 10.339 10.0619 10.38L9.06075 10.3643C9.03803 10.353 8.99929 10.3274 8.9821 10.2916C8.98101 10.2889 8.97963 10.2869 8.97822 10.2848C8.97699 10.283 8.97576 10.2811 8.97464 10.2788L9.13806 10.3051C9.1416 10.3055 9.14515 10.3055 9.14861 10.3055C9.18013 10.3055 9.20773 10.2839 9.21284 10.2517C9.2181 10.2155 9.19404 10.1824 9.15883 10.1772L8.95763 10.1456L9.18072 9.37906L8.96938 8.93673L8.63101 9.29276L8.61046 10.0897L8.38311 10.0539C8.34787 10.047 8.31438 10.0724 8.30816 10.1078C8.3029 10.1428 8.32676 10.1762 8.36239 10.1824L8.45786 10.1969C8.4238 10.2161 8.40132 10.2315 8.39856 10.2337L8.3792 10.2471L8.37391 10.2709C8.31852 10.4945 8.44357 10.7066 8.57898 10.8016L8.57388 10.8298C8.56843 10.864 8.57644 10.8975 8.59718 10.9258C8.61695 10.9544 8.64671 10.9715 8.68095 10.9776C8.68777 10.979 8.69523 10.9795 8.7021 10.9795C8.76038 10.9795 8.81166 10.9392 8.82576 10.88C8.87626 10.8863 8.92243 10.8872 8.9539 10.8872H8.98034L10.2938 11.1236L10.3164 11.1088C10.4206 11.0362 10.8198 10.747 10.9505 10.6508C10.9863 10.6817 11.0266 10.7094 11.0754 10.7325C11.0327 10.874 11.0301 11.0915 11.1975 11.2635Z" fill="#FFDD2D"></path> <path fill-rule="evenodd" clip-rule="evenodd" d="M10.0031 5.09707C10.625 5.09707 11.1886 5.39685 11.1886 5.73005L11.1765 5.81206L10.928 7.23098L11.1765 7.37514L11.8231 7.75025H11.8208C11.8208 7.75025 11.9661 7.82443 12.0324 7.87026C12.2796 8.03982 12.3313 8.28795 12.1884 8.39039C12.1528 8.18828 11.9925 7.97709 11.6922 7.97709C11.4755 7.97709 11.3108 8.08774 11.1765 8.25501C11.1431 8.29712 11.1105 8.34208 11.0798 8.39039C11.0423 8.4515 11.005 8.50506 10.9679 8.55652H12.631C12.5084 8.80112 12.3926 9.05994 12.3926 9.34137V13.0039C12.3926 13.8906 11.7084 14.3134 10.967 14.3134C10.9238 14.3134 10.8834 14.3132 10.8456 14.3131C10.3808 14.3114 10.2927 14.3111 10.002 14.6009C9.70994 14.3111 9.62186 14.3114 9.1574 14.3131C9.11955 14.3132 9.07923 14.3134 9.03608 14.3134C8.2952 14.3134 7.61011 13.8906 7.61011 13.0039V9.34137C7.61011 9.05994 7.49409 8.80112 7.37176 8.55652H9.03471C8.99738 8.50506 8.95978 8.4515 8.92237 8.39039C8.89224 8.34208 8.85953 8.29712 8.82515 8.25501C8.69224 8.08832 8.5271 7.97709 8.31068 7.97709C8.0099 7.97709 7.84942 8.18828 7.81422 8.39039C7.67158 8.28795 7.72382 8.03982 7.96958 7.87026C8.0369 7.82443 8.18209 7.75025 8.18209 7.75025H8.17974L8.82515 7.37514L9.07483 7.23098L8.82631 5.81206L8.81396 5.73005C8.81396 5.39685 9.37759 5.09707 9.99946 5.09707H10.001H10.0026H10.0031ZM9.93133 6.18966L9.05801 5.89484L9.28812 7.21818L9.93133 7.55501V6.18966ZM9.65624 9.07356C9.52296 9.0253 9.38247 8.93688 9.23885 8.79501H7.73068C7.79542 8.96801 7.85024 9.15519 7.85024 9.34137V11.2633H11.1969C11.0296 11.0916 11.0323 10.8741 11.0744 10.7331C11.0259 10.7097 10.9858 10.6819 10.9499 10.651C10.819 10.7471 10.4202 11.0361 10.3155 11.109L10.2932 11.1236L8.97992 10.8877H8.9531C8.92159 10.8877 8.87565 10.8863 8.82515 10.8803C8.81105 10.9393 8.75981 10.9794 8.7013 10.9794C8.69462 10.9794 8.68717 10.9791 8.6803 10.9777C8.6461 10.9719 8.61634 10.9545 8.59639 10.9259C8.57584 10.8978 8.56783 10.8643 8.57345 10.83L8.57818 10.8016C8.44296 10.7068 8.31792 10.4947 8.3733 10.2709L8.37859 10.2472L8.39795 10.2337C8.40052 10.2316 8.42319 10.2162 8.45706 10.1971L8.36174 10.1825C8.32594 10.1763 8.30188 10.143 8.30755 10.1081C8.31363 10.0727 8.34726 10.047 8.3825 10.0538L8.60989 10.0897L8.63063 9.29307L8.96895 8.93688L9.18007 9.37915L8.95721 10.1455L9.158 10.177C9.19343 10.1827 9.21748 10.2156 9.21223 10.2518C9.20697 10.284 9.17956 10.3056 9.14782 10.3056C9.14427 10.3056 9.141 10.3056 9.13745 10.3052L8.97425 10.2791C8.97525 10.2814 8.97645 10.2832 8.97768 10.285C8.9791 10.287 8.98044 10.2891 8.98153 10.2918C8.99871 10.3278 9.03746 10.353 9.06014 10.3645L10.0611 10.3802L10.0652 10.3762C10.11 10.3326 10.2121 10.2333 10.3169 10.1282C10.0703 10.0352 9.98089 9.82413 9.96578 9.68372C9.82821 9.62532 9.73311 9.53787 9.6803 9.42434C9.61611 9.28352 9.63879 9.14233 9.65624 9.07356ZM10.2632 10.9854C10.3873 10.8992 10.7292 10.6509 10.8617 10.5537C10.7652 10.4135 10.756 10.2469 10.7777 10.1301C10.7145 10.0897 10.6664 10.044 10.6279 9.99573C10.4813 10.1547 10.2077 10.4197 10.1452 10.4801C10.1386 10.4866 10.1344 10.4906 10.1329 10.4922L10.1136 10.5116L9.11063 10.4957C9.10985 10.5948 9.09381 10.6787 9.07816 10.7404C9.07666 10.7466 9.07499 10.7529 9.07331 10.7593C9.07219 10.7636 9.07106 10.7679 9.06994 10.7723L10.2632 10.9854ZM8.97809 10.4686C8.94266 10.4462 8.89179 10.407 8.86345 10.348C8.83134 10.2801 8.78499 10.2485 8.71744 10.2485C8.6294 10.2485 8.53553 10.3011 8.49503 10.3259C8.46291 10.5145 8.60265 10.6856 8.69633 10.7199C8.78129 10.7507 8.88441 10.7572 8.93722 10.7572C8.93792 10.7549 8.93875 10.7524 8.93968 10.7496C8.94132 10.7447 8.94319 10.7391 8.94487 10.733C8.94933 10.7176 8.95363 10.7019 8.95717 10.6851C8.97187 10.6092 8.97713 10.5237 8.97809 10.4686ZM8.75981 9.34603L8.7396 10.1109L8.82705 10.1243L9.04075 9.39003L8.93237 9.16433L8.75981 9.34603ZM10.6713 14.0796C10.7251 14.0775 10.7855 14.0767 10.8507 14.0767C10.8507 14.0767 11.0065 13.6236 11.0153 13.6092C10.928 13.571 10.747 13.4754 10.6769 13.4315C10.692 13.4541 10.7142 13.4776 10.7365 13.5012C10.7823 13.5498 10.8283 13.5986 10.8131 13.6396L10.6713 14.0796ZM11.2039 14.0585L11.2969 13.5767C11.3072 13.524 11.3171 13.4536 11.3171 13.4536C11.3118 13.4483 11.3056 13.4423 11.2986 13.4355C11.2569 13.395 11.1873 13.3275 11.1454 13.2481C11.1108 13.182 11.1043 13.1324 11.097 13.0765C11.0905 13.0263 11.0832 12.9711 11.0546 12.8942C11.0546 12.8942 11.0732 12.8565 11.1163 12.8565C11.1229 12.8565 11.1303 12.8572 11.1374 12.8592C11.1938 12.8751 11.2324 12.9704 11.2759 13.0779C11.3348 13.2236 11.403 13.3919 11.5372 13.4165C11.5602 13.421 11.5812 13.4227 11.5996 13.4227C11.6673 13.4227 11.7074 13.3942 11.7507 13.3431C11.7507 13.3431 11.6333 13.1597 11.5458 13.0358C11.5273 13.01 11.5094 12.9835 11.4916 12.9569C11.3971 12.8163 11.3041 12.6779 11.1213 12.6779C11.1163 12.6779 11.11 12.6779 11.1047 12.6786C11.0331 12.682 10.989 12.7168 10.989 12.7168C10.9012 12.6619 10.819 12.6432 10.7452 12.6432C10.6615 12.6432 10.5892 12.6667 10.5336 12.6848C10.4989 12.6961 10.4707 12.7054 10.4503 12.7054H10.4484L9.96381 12.6574C9.88795 12.6504 9.82783 12.5745 9.80631 12.5445C9.80103 12.5365 9.79811 12.5316 9.79811 12.5316C9.79811 12.5187 9.79811 12.5052 9.79733 12.4932C9.78088 12.0987 9.47384 11.9299 9.36446 11.9271C9.36446 11.9271 9.37737 11.8523 9.34783 11.8235L9.24079 11.9526L8.89007 11.7774L9.14058 12.0685L8.92864 12.3053C8.90183 12.3324 8.90515 12.3686 8.91633 12.384L9.00789 12.4646L9.12417 12.3947C9.12984 12.3902 9.14058 12.3891 9.15311 12.3891C9.16799 12.3891 9.18631 12.3908 9.20595 12.3927C9.22886 12.3949 9.25359 12.3973 9.27678 12.3973C9.32414 12.3973 9.36502 12.3873 9.3699 12.343C9.36554 12.3873 9.35006 12.4412 9.33306 12.5006C9.29371 12.6378 9.24609 12.8036 9.30866 12.9431L9.37524 13.0942L8.94647 13.0326L8.7459 13.3699C8.68384 13.482 8.67426 13.6034 8.73356 13.6695L8.8087 13.763C8.8087 13.763 8.91398 13.6521 8.93744 13.5788L8.90343 13.5416C8.87464 13.51 8.8762 13.482 8.89381 13.4483L9.01945 13.2409L9.52549 13.3593L9.55253 13.3141C9.58673 13.2573 9.63607 13.2403 9.6903 13.2403C9.71278 13.2403 9.73568 13.2429 9.75936 13.2468C9.85331 13.2652 10.0077 13.2897 10.1622 13.2897C10.3317 13.2897 10.5004 13.2596 10.5901 13.1597C10.6839 13.2982 10.8271 13.377 10.9406 13.4394C11.0486 13.4989 11.1295 13.5435 11.1153 13.6106L11.0177 14.0735C11.0822 14.0709 11.1446 14.0666 11.2039 14.0585ZM8.71454 13.177L8.69224 13.1213C8.6762 13.0851 8.67836 13.0457 8.70906 13.0243L8.89005 12.9L9.19235 12.9577C9.19235 12.9577 9.13779 12.8895 9.14308 12.7984L8.85446 12.7376L8.58225 12.9024C8.46545 12.9895 8.45706 13.1314 8.49581 13.2158L8.53179 13.2946C8.53179 13.2946 8.69988 13.2259 8.71454 13.177ZM11.4254 13.601L11.3423 14.032C11.8387 13.9104 12.1536 13.5377 12.1536 13.0039L12.1528 11.3933H7.85021V13.0039C7.85021 13.6628 8.32921 14.075 9.03608 14.075C9.62663 14.075 9.78226 14.098 10.002 14.3147C10.1533 14.1645 10.2783 14.1083 10.5354 14.0875L10.5415 14.0624L10.6774 13.6456C10.6697 13.6358 10.448 13.3854 10.448 13.3854C10.3599 13.4145 10.2859 13.4193 10.1622 13.4193C10.0349 13.4193 9.89105 13.4045 9.73527 13.3753C9.71961 13.3718 9.70495 13.3704 9.6903 13.3704C9.67105 13.3704 9.67008 13.3718 9.66482 13.3811L9.63801 13.4253L9.5887 13.5066L9.49554 13.4851L9.08285 13.3884L9.02631 13.4815L9.03471 13.4914L9.0846 13.5465L9.06231 13.6182C9.03217 13.712 8.93352 13.8218 8.90343 13.8518L8.80023 13.9623L8.70637 13.8439L8.6357 13.7557C8.56151 13.6729 8.54433 13.5465 8.58617 13.4135C8.5852 13.4145 8.58344 13.415 8.58188 13.4154L8.46545 13.4633L8.4132 13.3502L8.3762 13.2699C8.31285 13.1283 8.33608 12.9219 8.50696 12.7968L8.83921 12.6103L9.15561 12.6722C9.15908 12.6587 9.16318 12.6296 9.16751 12.599C9.17284 12.5614 9.17847 12.5216 9.18347 12.5063C9.18138 12.506 9.17944 12.5057 9.17743 12.5053C9.17347 12.5047 9.16956 12.5039 9.16524 12.5039L8.98324 12.5717L8.80732 12.4514C8.80732 12.4514 8.73882 12.3851 8.80087 12.3194L8.97093 12.0628L8.53981 11.524L9.2026 11.795L9.24687 11.7405L9.33626 11.634L9.43785 11.73C9.4666 11.7577 9.48302 11.7915 9.49104 11.8256C9.67344 11.8961 10.001 12.1051 10.03 12.4447L9.92741 12.4857V12.4878C9.95109 12.5157 9.9703 12.5269 9.97638 12.5281L10.4498 12.5745C10.4576 12.573 10.4668 12.5701 10.4769 12.567C10.4821 12.5654 10.4877 12.5637 10.4936 12.562C10.5521 12.5423 10.6404 12.5133 10.7452 12.5133C10.8304 12.5133 10.9125 12.5326 10.992 12.5696C11.0212 12.5587 11.057 12.5505 11.0986 12.5479L11.1213 12.5474C11.3744 12.5474 11.5005 12.7351 11.6014 12.8853L11.6018 12.8859C11.6186 12.9121 11.6352 12.9363 11.6526 12.9609C11.7412 13.0851 11.8566 13.2665 11.8614 13.2746L11.9135 13.3556L11.8497 13.4296C11.8005 13.4863 11.7264 13.5527 11.5996 13.5527C11.5736 13.5527 11.5452 13.5498 11.5139 13.5439C11.4871 13.5388 11.4625 13.5309 11.439 13.5212C11.4352 13.5459 11.4299 13.5755 11.4254 13.601ZM12.1522 9.34137C12.1522 9.15519 12.2066 8.96801 12.2724 8.79501H10.7638C10.533 9.0231 10.3112 9.10787 10.1129 9.12734C10.0771 9.13102 10.0407 9.13333 10.004 9.13333H10.001H9.99886C9.96206 9.13333 9.92528 9.13102 9.88967 9.12734C9.85502 9.12442 9.81862 9.11894 9.78227 9.11055C9.76932 9.16197 9.75269 9.26894 9.79986 9.37097C9.84212 9.46309 9.92704 9.53186 10.0513 9.57739L10.0932 9.59359L10.0937 9.63837C10.0937 9.6518 10.1036 9.94236 10.4215 10.023L10.4235 10.021C10.4745 9.96865 10.521 9.92106 10.5556 9.88142C10.4906 9.72892 10.5246 9.57352 10.6192 9.49732C10.6151 9.51351 10.5736 9.89466 10.8804 10.0363L10.9311 10.0604L10.916 10.1142C10.9112 10.1301 10.8088 10.499 11.1804 10.6363L11.2462 10.6608L11.2172 10.7245C11.2106 10.739 11.065 11.0734 11.4082 11.2633H12.1528V10.6755C11.8883 10.6431 11.7759 10.4314 11.747 10.2813C11.6241 10.2604 11.5287 10.2073 11.4632 10.1212C11.3237 9.93803 11.4162 9.7689 11.4387 9.7278C11.4414 9.72291 11.4431 9.71986 11.4433 9.71878C11.4431 9.72053 11.4433 9.92017 11.5671 10.0432C11.6282 10.1024 11.7011 10.1486 11.8107 10.1589L11.865 10.164L11.8698 10.2189C11.8708 10.2308 11.9004 10.5009 12.1528 10.5432L12.1522 9.34137ZM11.4069 7.75025L11.1127 7.5804L10.8106 7.40808L10.0034 7.84544L10.001 7.84372L9.99946 7.84544L9.19227 7.40808L8.89007 7.5804L8.59542 7.75025H8.59225L8.5177 7.79321C8.68384 7.83885 8.81005 7.92067 8.9173 8.02932C8.91898 8.03084 8.92059 8.03275 8.92211 8.03447C8.92454 8.03724 8.92696 8.04001 8.93006 8.0424C8.95371 8.0677 8.97716 8.09529 8.99969 8.12297C9.00065 8.12412 9.00166 8.12536 9.00264 8.12651C9.00688 8.13166 9.01106 8.13663 9.01535 8.14283C9.03608 8.17014 9.05705 8.19945 9.07737 8.22933C9.0799 8.23258 9.0824 8.2363 9.08494 8.24021C9.08692 8.24317 9.08896 8.24623 9.09105 8.24919C9.11533 8.28537 9.13824 8.32337 9.16095 8.36232C9.3699 8.72121 9.70417 8.93592 10.001 8.93631C10.2983 8.93592 10.6323 8.72121 10.8417 8.36232C10.8648 8.32242 10.8882 8.28346 10.9125 8.24738C10.916 8.24232 10.92 8.23687 10.9233 8.23162C10.9438 8.20069 10.9655 8.17052 10.9881 8.1415C10.9905 8.13825 10.993 8.1351 10.9954 8.13214C10.9976 8.12927 10.9998 8.1266 11.0018 8.12393C11.0251 8.09529 11.0492 8.06741 11.0736 8.04135C11.0755 8.03963 11.0773 8.03781 11.0791 8.036C11.0811 8.0339 11.0832 8.03189 11.0853 8.03008C11.192 7.92162 11.3186 7.83885 11.4847 7.79321L11.4107 7.75025H11.4069ZM10.0713 7.55501L10.7145 7.21818L10.9438 5.89484L10.0713 6.18966V7.55501ZM9.04429 5.66341L10.001 6.03948L10.958 5.66341C10.8771 5.47161 10.502 5.30883 10.001 5.30825C9.5008 5.30883 9.12593 5.47161 9.04429 5.66341ZM10.4734 6.62434C10.6528 6.48629 10.6564 6.35912 10.6564 6.35912L10.2589 6.52524V6.74464L10.3011 6.72535C10.3012 6.72526 10.3021 6.72497 10.3036 6.7244C10.3165 6.72029 10.3766 6.70082 10.4734 6.62434ZM9.69898 6.7244C9.68608 6.72029 9.62603 6.70082 9.52896 6.62434C9.35017 6.48629 9.34663 6.35912 9.34663 6.35912L9.74385 6.52524V6.74464L9.70156 6.72535C9.70137 6.72526 9.70047 6.72497 9.69898 6.7244ZM9.67422 8.00736V8.2405C9.75507 8.14274 9.911 8.16279 9.911 8.16279V8.49866C9.911 8.49866 9.90574 8.66421 9.84663 8.73572H10.0161H10.1845C10.1264 8.66421 10.1204 8.49866 10.1204 8.49866V8.16279C10.1204 8.16279 10.2769 8.14274 10.3569 8.2405V8.00736H10.0161H9.67422ZM5.64081 8.76961C5.37744 9.20565 5.20913 9.73425 5.23631 10.3866C5.27405 11.3213 5.78991 12.1295 6.33193 12.7786C6.59419 13.0935 6.65311 13.4811 6.65311 13.4811C6.65311 13.4811 6.54663 13.1393 6.24489 12.7876C5.66307 12.1096 5.16549 11.4052 5.09971 10.3905C5.03944 10.5747 4.79189 11.0866 4.39932 11.2794C4.39932 11.2794 4.89306 10.9832 5.11477 9.82809V9.8373C5.26174 8.66115 6.11947 7.81183 7.07461 7.2957C7.15311 7.25351 7.22759 7.21704 7.29848 7.18238L7.32313 7.17025C7.03295 7.21541 6.56461 7.22076 6.2032 6.90895C6.2032 6.90895 6.75623 7.31365 7.88829 6.94599C7.79751 7.00451 7.68197 7.0702 7.55011 7.14505C7.22677 7.32864 6.80531 7.56799 6.41021 7.8967C5.01948 9.11257 6.01434 10.2986 6.01434 10.2986C5.51378 9.77941 5.49383 9.22363 5.64081 8.76961ZM4.09754 8.37598C4.16762 8.37598 4.23572 8.36557 4.30027 8.34361C4.48025 8.28423 4.59553 8.14293 4.71621 7.99485L4.7202 7.98998L4.72375 7.98568C4.8479 7.8336 4.98763 7.66251 5.22904 7.53477L5.47951 7.40101L5.24683 7.23833L5.24366 7.23642C5.21316 7.21694 5.04328 7.10867 4.81654 7.10867C4.62256 7.10867 4.44255 7.18773 4.29401 7.33848C3.93278 7.70576 3.60891 7.73545 3.59721 7.73555L3.34513 7.75034L3.44866 7.98062C3.55257 8.21024 3.82593 8.37598 4.09754 8.37598ZM4.41853 7.46078C4.55297 7.32301 4.69447 7.28177 4.8166 7.28177C5.00446 7.28177 5.1467 7.38106 5.1467 7.38106C4.87329 7.52627 4.71681 7.71846 4.58524 7.88009C4.47268 8.01843 4.37837 8.13434 4.24459 8.17902C4.19681 8.19601 4.14714 8.20336 4.09762 8.20336C3.88451 8.20336 3.67805 8.06607 3.60764 7.9095C3.60764 7.9095 3.9986 7.88573 4.41853 7.46078ZM7.47821 14.1776C7.47846 14.178 7.47865 14.1783 7.47865 14.1784L7.65501 14.4464L7.33641 14.4507C6.81019 14.4507 6.40783 14.3062 6.12782 14.0199C5.96325 13.8505 5.86852 13.659 5.81314 13.4898C5.72236 13.5675 5.60299 13.6357 5.44859 13.6718C5.39071 13.6855 5.32667 13.6926 5.25761 13.6926C5.11008 13.6926 4.98499 13.6616 4.97086 13.6581L4.97074 13.658L4.76701 13.6042L4.85722 13.4156L4.85786 13.4142C4.87054 13.3843 5.02971 13.0097 4.85077 12.4805C4.77207 12.2465 4.73199 12.0373 4.7124 11.8743C4.58426 11.9405 4.41305 11.9954 4.19268 11.996C3.69235 11.996 3.46918 11.6277 3.45635 11.6066L3.45612 11.6061L3.3571 11.4342L3.54026 11.3589C4.14025 11.1111 4.27327 10.4453 4.3005 10.0853C4.24531 10.0956 4.18331 10.1051 4.1144 10.1071L4.08289 10.108C3.43006 10.108 3.21225 9.44746 3.20368 9.41923L3.12891 9.18629L3.37467 9.1939C3.46101 9.1939 4.18227 9.175 4.69208 8.5294L4.74019 8.46964L4.74366 8.46524C5.07584 8.04488 5.39145 7.64542 5.95579 7.46288C5.93938 7.44837 5.91689 7.43023 5.88419 7.40932C5.584 7.21322 5.40925 6.97454 5.3658 6.69757C5.3021 6.28885 5.55857 5.96119 5.57804 5.93618L5.57893 5.93513L5.7625 5.71172L5.8756 5.97675C5.88284 5.99356 6.07304 6.41812 6.47578 6.41812H6.50531C6.51206 6.41774 6.51877 6.41736 6.52542 6.41698C6.54544 6.41583 6.56498 6.41478 6.58438 6.41316C6.57069 6.22393 6.60571 5.93121 6.87322 5.65558C7.19432 5.32487 7.58726 5.27503 7.7933 5.27503C7.89109 5.27503 7.95884 5.28572 7.97869 5.28887C7.98122 5.28925 7.98302 5.28954 7.98394 5.28964L8.25966 5.34386L8.08941 5.56584C7.95653 5.73683 7.83596 6.05294 7.97906 6.21763C8.02162 6.2668 8.10635 6.30699 8.19056 6.34709L8.20838 6.35559C8.3931 6.44008 8.64499 6.55828 8.64499 6.85844C8.64499 7.05244 8.49468 7.2557 8.22016 7.42841C7.40667 7.9368 6.90612 8.46744 6.68966 9.05308C6.35521 9.95399 6.79061 10.4677 7.21625 10.7387L7.40667 10.8605L7.23974 11.0127C7.21722 11.0326 7.01329 11.2111 6.712 11.2368C6.6552 11.2403 6.6012 11.2437 6.54933 11.2437C6.35603 11.2437 6.19242 11.2135 6.05894 11.1728C6.09613 11.2368 6.14151 11.3023 6.19772 11.3681C6.44016 11.6474 6.73933 11.7748 7.16691 11.7818L7.32761 11.7843L7.33839 11.9434C7.34032 11.9756 7.35245 12.2706 7.07181 12.5217C7.02877 12.5607 6.97772 12.5925 6.92234 12.6184C7.11332 12.789 7.30669 13.0862 7.34461 13.5949C7.37591 14.004 7.4706 14.1647 7.47821 14.1776ZM5.91264 13.0409C5.91264 13.0409 5.8756 14.2775 7.32448 14.2775H7.33488C7.33488 14.2775 7.20809 14.1046 7.17086 13.6076C7.10202 12.6899 6.47739 12.5639 6.47739 12.5639C6.47739 12.5639 6.81079 12.5222 6.95542 12.3935C7.18086 12.1899 7.16482 11.9545 7.16482 11.9545C6.65505 11.9475 6.32142 11.7747 6.06525 11.482C5.79128 11.1648 5.74586 10.8229 5.74586 10.8229C5.74586 10.8229 6.01986 11.0701 6.54921 11.0701C6.59673 11.0701 6.64606 11.068 6.69735 11.063C6.94863 11.0429 7.12216 10.8841 7.12216 10.8841C6.56976 10.5323 6.18287 9.91796 6.52568 8.9927C6.80046 8.25148 7.4609 7.69755 8.12664 7.28043C8.34775 7.14295 8.47085 6.98981 8.47085 6.85835C8.47085 6.66855 8.30489 6.59131 8.13462 6.51197C8.02694 6.46194 7.91764 6.41106 7.84742 6.33038C7.63801 6.08855 7.76913 5.69625 7.95012 5.46025C7.95012 5.46025 7.89004 5.44774 7.79319 5.44774C7.60183 5.44774 7.2707 5.49547 6.9983 5.77674C6.63566 6.14889 6.7864 6.55455 6.7864 6.55455L6.68951 6.57326C6.63562 6.58463 6.58124 6.58749 6.52634 6.59035L6.51397 6.59093C6.50715 6.59093 6.50073 6.59112 6.49439 6.59131H6.49431C6.48813 6.5915 6.48201 6.59159 6.47563 6.59159C5.94881 6.59159 5.71517 6.04511 5.71517 6.04511C5.71517 6.04511 5.15688 6.7285 5.97917 7.26448C6.12062 7.35595 6.18287 7.44111 6.16624 7.53143L6.15367 7.591L6.09385 7.60141C5.52404 7.7556 5.22281 8.1371 4.87498 8.57761C4.8595 8.59719 4.84398 8.61685 4.82832 8.63671C4.26943 9.34419 3.47887 9.36698 3.3806 9.36698H3.36964C3.36964 9.36698 3.55029 9.93434 4.08273 9.93434C4.09113 9.93434 4.09918 9.93434 4.10799 9.93374C4.35282 9.92497 4.4782 9.83204 4.4782 9.83204C4.4782 9.83204 4.57274 11.1196 3.60758 11.5188C3.60758 11.5188 3.78334 11.8228 4.18626 11.8228H4.19096C4.67527 11.8201 4.86997 11.5265 4.86997 11.5265C4.86997 11.5265 4.84182 11.9086 5.01539 12.424C5.22535 13.0459 5.01482 13.4898 5.01482 13.4898C5.01482 13.4898 5.12712 13.5201 5.25746 13.5201C5.30777 13.5201 5.35942 13.5153 5.40775 13.5025C5.81165 13.407 5.91264 13.0409 5.91264 13.0409ZM14.8877 9.82824V9.837C14.7413 8.66106 13.8835 7.81183 12.9284 7.2957C12.8404 7.24854 12.7586 7.20882 12.6797 7.17064C12.9702 7.21541 13.4385 7.22066 13.7996 6.90895C13.7996 6.90895 13.2468 7.31356 12.1144 6.94589C12.2052 7.00461 12.321 7.07029 12.4532 7.14534C12.7766 7.32893 13.1982 7.56818 13.5932 7.8967C14.9834 9.11253 13.9889 10.2984 13.9889 10.2984C14.4883 9.77938 14.509 9.22373 14.3621 8.76961C14.6253 9.20561 14.7936 9.73441 14.7671 10.3866C14.7288 11.3212 14.2129 12.1293 13.6697 12.7786C13.4087 13.0938 13.3505 13.4811 13.3505 13.4811C13.3505 13.4811 13.456 13.1393 13.758 12.7878C14.3397 12.1096 14.8376 11.4056 14.9025 10.3905C14.9629 10.5747 15.2108 11.0865 15.6039 11.2794C15.6039 11.2794 15.1098 10.9832 14.8877 9.82824ZM15.2829 7.98998C15.1586 7.83665 15.0167 7.66375 14.7734 7.53477L14.5236 7.40101L14.7557 7.23842L14.7586 7.23651C14.7889 7.21723 14.9595 7.10867 15.1867 7.10867C15.3803 7.10867 15.5601 7.18801 15.7087 7.33848C16.0699 7.70557 16.3946 7.73517 16.4063 7.73555L16.6586 7.75044L16.5542 7.98062C16.4507 8.21024 16.1774 8.37598 15.9052 8.37598C15.8351 8.37598 15.7667 8.36538 15.7026 8.34342C15.5233 8.28442 15.4081 8.14321 15.2874 7.99552L15.2829 7.98998ZM15.584 7.46097C15.45 7.32311 15.3083 7.28196 15.1867 7.28196C14.9979 7.28196 14.8564 7.38134 14.8564 7.38134C15.1306 7.52656 15.287 7.71913 15.4184 7.88095C15.5303 8.01881 15.624 8.13434 15.757 8.17902C15.8061 8.19601 15.8556 8.20336 15.9051 8.20336C16.1184 8.20336 16.3243 8.06607 16.3955 7.9095C16.3955 7.9095 16.0046 7.88573 15.584 7.46097ZM15.92 10.108C16.5724 10.108 16.7908 9.44746 16.7996 9.41923L16.8726 9.18629L16.628 9.1939H16.6271C16.5409 9.1939 15.8208 9.175 15.3106 8.5294L15.2625 8.46964L15.26 8.46639C14.9274 8.04555 14.6113 7.64552 14.0472 7.46288C14.0637 7.44837 14.087 7.43023 14.1191 7.40932C14.4192 7.21322 14.5938 6.97454 14.6376 6.69757C14.7018 6.28102 14.4345 5.94849 14.4228 5.93513L14.2412 5.71172L14.1277 5.97675L14.1275 5.97704C14.1178 5.99833 13.9269 6.41812 13.5279 6.41812H13.4977C13.4907 6.41764 13.4837 6.41726 13.4767 6.41688C13.4569 6.41583 13.4373 6.41478 13.4183 6.41316C13.4323 6.22412 13.3978 5.93102 13.1305 5.65577C12.8093 5.32487 12.4156 5.27503 12.2097 5.27503C12.1127 5.27503 12.0445 5.28563 12.0241 5.28878C12.0214 5.28925 12.0195 5.28954 12.0185 5.28964L11.7442 5.34386L11.9137 5.56584C12.0461 5.73702 12.1667 6.05294 12.0238 6.21763C11.9808 6.26728 11.8947 6.30814 11.8096 6.34833L11.7945 6.35559C11.61 6.44008 11.3573 6.55828 11.3573 6.85844C11.3573 7.05235 11.5088 7.2557 11.7833 7.42841C12.5956 7.9368 13.0969 8.46744 13.3134 9.05308C13.6484 9.95399 13.2112 10.4679 12.7872 10.7387L12.5966 10.8603L12.7631 11.0127L12.7633 11.0128C12.7867 11.0333 12.9899 11.2112 13.2905 11.2368C13.3477 11.2403 13.4021 11.2437 13.4532 11.2437C13.6459 11.2437 13.8104 11.2135 13.9441 11.1728C13.9073 11.2368 13.8619 11.3025 13.8054 11.3681C13.5627 11.6476 13.2643 11.7748 12.8354 11.7818L12.6758 11.7843L12.6637 11.9434C12.6622 11.9756 12.65 12.2706 12.9308 12.5217C12.9737 12.5607 13.0255 12.5925 13.0801 12.6184C12.8896 12.789 12.6962 13.0862 12.6588 13.5949C12.6271 14.0199 12.5255 14.1769 12.5242 14.1786L12.3479 14.4464L12.6665 14.4507C13.1927 14.4507 13.5954 14.3063 13.8747 14.0199C14.0398 13.8505 14.1342 13.659 14.1899 13.4898C14.2813 13.5675 14.3995 13.6357 14.5539 13.6718C14.6124 13.6855 14.6762 13.6926 14.7455 13.6926C14.89 13.6926 15.012 13.663 15.031 13.6584L15.0324 13.658L15.2356 13.6042L15.1458 13.4156L15.1454 13.4146C15.1345 13.3892 14.9724 13.0133 15.1521 12.4805C15.2308 12.2466 15.2709 12.0373 15.2904 11.8743C15.4186 11.9405 15.59 11.9954 15.8117 11.9962C16.3076 11.9962 16.5303 11.6328 16.5462 11.607L16.5468 11.6061L16.6459 11.4343L16.4623 11.3589C15.8622 11.1111 15.7296 10.4453 15.703 10.0853C15.7572 10.0956 15.8192 10.1051 15.889 10.1071L15.92 10.108ZM16.3953 11.5188C16.3953 11.5188 16.2199 11.823 15.8168 11.823H15.8118C15.3279 11.8201 15.133 11.5265 15.133 11.5265C15.133 11.5265 15.1608 11.9086 14.9866 12.424C14.7769 13.0459 14.9885 13.4898 14.9885 13.4898C14.9885 13.4898 14.8753 13.5201 14.7454 13.5201C14.6956 13.5201 14.6438 13.5153 14.5946 13.5028C14.1906 13.407 14.09 13.0409 14.09 13.0409C14.09 13.0409 14.127 14.2775 12.6783 14.2775H12.6669C12.6669 14.2775 12.7947 14.1046 12.8323 13.6076C12.9011 12.6901 13.5254 12.5639 13.5254 12.5639C13.5254 12.5639 13.1921 12.5222 13.048 12.3935C12.8219 12.1899 12.8379 11.9545 12.8379 11.9545C13.3478 11.9475 13.6818 11.7747 13.9362 11.482C14.2119 11.1647 14.2569 10.8229 14.2569 10.8229C14.2569 10.8229 13.9829 11.0701 13.453 11.0701C13.4065 11.0701 13.3567 11.068 13.3055 11.063C13.0547 11.0428 12.8814 10.8841 12.8814 10.8841C13.433 10.5323 13.8202 9.91774 13.4769 8.99266C13.202 8.25148 12.5413 7.69755 11.8759 7.28043C11.6546 7.14295 11.5314 6.98981 11.5314 6.85835C11.5314 6.66855 11.6976 6.59131 11.868 6.51197C11.9757 6.46204 12.0851 6.41115 12.1554 6.33057C12.365 6.08855 12.2335 5.69644 12.0521 5.46025C12.0521 5.46025 12.1131 5.44774 12.2096 5.44774C12.4011 5.44774 12.7325 5.49547 13.0047 5.77674C13.3663 6.14889 13.2164 6.55455 13.2164 6.55455L13.3133 6.57326C13.3685 6.58501 13.4236 6.58758 13.4803 6.59035L13.4886 6.59074C13.4951 6.59074 13.5017 6.59093 13.5081 6.59112C13.5147 6.5914 13.5213 6.59159 13.5277 6.59159C14.053 6.59159 14.2878 6.04492 14.2878 6.04492C14.2878 6.04492 14.8463 6.7285 14.024 7.26439C13.8825 7.35614 13.8202 7.4413 13.8366 7.53143L13.8493 7.591L13.9078 7.60141C14.4779 7.75521 14.7787 8.13634 15.1258 8.57609L15.126 8.57637L15.1279 8.57876L15.1291 8.58019L15.1295 8.58067L15.1305 8.58201L15.1316 8.58334L15.1323 8.5843C15.146 8.60167 15.1598 8.61915 15.1737 8.63671C15.7331 9.34419 16.5241 9.36698 16.6218 9.36698H16.6326C16.6326 9.36698 16.4519 9.93434 15.9199 9.93434C15.9108 9.93434 15.9032 9.93434 15.8946 9.93374C15.6502 9.92497 15.5247 9.83204 15.5247 9.83204C15.5247 9.83204 15.4294 11.1196 16.3953 11.5188ZM12.1472 15.0133L11.8992 14.9189L11.9677 14.6638L12.043 14.3861C12.043 14.3861 11.6039 14.6232 10.985 14.8013C10.8095 14.8513 10.6766 14.8741 10.6766 14.8741V15.0633C10.6766 15.0633 10.3454 15.1206 10.0112 15.1206H10.0071H10.002H9.99558H9.99186C9.65702 15.1206 9.32653 15.0633 9.32653 15.0633V14.8741C9.32653 14.8741 9.19347 14.8513 9.01811 14.8013C8.39917 14.6232 7.96064 14.3861 7.96064 14.3861L8.03478 14.6638L8.10444 14.9189L7.85592 15.0133L7.58024 15.116C7.61045 15.1306 7.64181 15.1458 7.67418 15.1614C7.97958 15.3092 8.37258 15.4994 8.73493 15.598L8.64047 15.8551C8.64047 15.8551 9.14886 16.0857 9.99558 16.0878V16.0881H9.99816H10.002H10.0052H10.0071V16.0878C10.8551 16.0857 11.3629 15.8551 11.3629 15.8551L11.268 15.598C11.6334 15.4985 12.0303 15.306 12.3361 15.1577C12.3657 15.1434 12.3946 15.1294 12.4223 15.116L12.1472 15.0133ZM7.87411 15.1329L8.28185 14.9982L8.16113 14.6067C8.34093 14.7081 8.74363 14.8604 8.9769 14.9311L8.78021 15.4691C8.41999 15.3706 8.12007 15.2559 7.87411 15.1329ZM10.002 15.9529C9.52848 15.9529 8.98797 15.8445 8.82869 15.7881L9.07055 15.1366C9.27115 15.195 9.68891 15.2568 9.99186 15.2549H9.99264H10.002H10.0103H10.0112C10.3139 15.2568 10.7311 15.195 10.9329 15.1366L11.1744 15.7881C11.0151 15.8445 10.4747 15.9529 10.002 15.9529ZM11.2223 15.4692L11.0259 14.9311C11.2595 14.8605 11.6616 14.7082 11.8416 14.6067L11.7217 14.9983L12.1289 15.1329C11.8825 15.2559 11.5839 15.3707 11.2223 15.4692ZM9.22796 12.0921C9.2035 12.0898 9.18317 12.1089 9.18124 12.1325C9.17944 12.1573 9.19787 12.1784 9.2227 12.1789C9.24672 12.1809 9.26746 12.1626 9.26984 12.1383C9.27081 12.1149 9.25298 12.093 9.22796 12.0921ZM11.1323 5.18653C10.9094 5.00933 10.5055 4.84282 10.001 4.84282C9.49726 4.84282 9.09497 5.00933 8.8705 5.18653C8.8705 5.18653 8.8046 4.78955 8.57834 4.43964L8.98458 4.48557L9.19693 4.03608L9.60609 4.24564L10.001 3.85621L10.3973 4.24564L10.8055 4.03608L11.0182 4.48557L11.4248 4.43964C11.1984 4.78955 11.1323 5.18653 11.1323 5.18653ZM9.07927 4.65503L8.96657 4.6431L8.85931 4.63021C8.90865 4.74086 8.94483 4.84588 8.97085 4.93266C9.25638 4.77513 9.62566 4.68539 10.001 4.68539C10.3783 4.68539 10.7478 4.77513 11.0323 4.93266C11.058 4.84588 11.0945 4.74086 11.1438 4.63021L11.0362 4.6431L10.9232 4.65503L10.8756 4.55278L10.7319 4.25051L10.4696 4.38627L10.3675 4.43802L10.2859 4.35782L10.001 4.07733L9.71663 4.35782L9.6354 4.43802L9.53329 4.38627L9.26988 4.25051L9.12779 4.55278L9.07927 4.65503Z" fill="#231F20"></path> </svg> 