<?xml version="1.0" encoding="UTF-8"?> <svg xmlns="http://www.w3.org/2000/svg" width="341" height="341" viewBox="0 0 341 341" fill="none"><ellipse cx="170.5" cy="171.843" rx="170.5" ry="169.158" fill="white"></ellipse><path d="M178.486 180.153H127.288V167.462H178.292C182.684 167.462 186.317 166.736 189.191 165.283C192.065 163.797 194.196 161.763 195.585 159.18C196.973 156.564 197.667 153.561 197.667 150.17C197.667 146.812 196.973 143.809 195.585 141.161C194.196 138.513 192.081 136.43 189.239 134.912C186.398 133.362 182.813 132.587 178.486 132.587H157.367V219H142.449V119.8H178.486C186.01 119.8 192.291 121.156 197.328 123.869C202.398 126.581 206.192 130.23 208.711 134.816C211.262 139.401 212.538 144.503 212.538 150.122C212.538 155.805 211.246 160.923 208.663 165.477C206.112 169.997 202.301 173.582 197.231 176.23C192.194 178.845 185.946 180.153 178.486 180.153ZM179.213 188.484V201.223H127.288V188.484H179.213Z" fill="#005DA9"></path></svg> 