<?xml version="1.0" encoding="UTF-8"?> <svg xmlns="http://www.w3.org/2000/svg" width="100" height="33" viewBox="0 0 100 33" fill="none"> <path d="M95.4137 11.9081H100.002C99.4215 7.44248 96.16 5.09521 91.627 5.09521C87.039 5.09521 83.9711 7.52841 83.9711 11.7077C83.9711 16.4596 87.9234 17.5186 90.024 17.9481C92.7327 18.492 95.386 18.5493 95.386 20.9537C95.386 22.5854 94.0593 23.3869 92.1799 23.3869C89.8582 23.3869 88.3105 22.1846 87.9234 20.0092H83.3906C83.667 24.7038 86.9562 27.2228 91.7931 27.2228C96.2705 27.2228 99.9465 25.1045 99.9465 20.5244C99.9465 15.6008 95.7178 14.7134 92.7603 14.2554C90.7426 13.9405 88.5315 13.6542 88.5315 11.4501C88.5315 9.90431 89.6647 8.95971 91.5718 8.95971C93.783 8.95971 95.1096 10.2479 95.4137 11.9081Z" fill="#403F41"></path> <path d="M80.8746 5.81116H76.5352V26.5646H80.8746V5.81116Z" fill="#403F41"></path> <path d="M63.4342 19.3228H69.1003C68.2158 21.5558 66.2257 22.6147 63.9317 22.6147C59.8964 22.6147 58.017 19.3801 58.017 16.174C58.017 12.9393 59.7858 9.64745 63.9041 9.64745C66.4193 9.64745 68.2986 10.8497 69.0173 12.9966L73.6883 12.9966C72.8869 8.159 68.7962 5.38232 63.9594 5.38232C57.9893 5.38232 53.5117 9.59016 53.5117 16.2313C53.5117 22.9583 58.3762 26.9373 63.9317 26.9373C69.4043 26.9373 73.6883 23.2446 73.6883 17.4623V15.7733H63.4342V19.3228Z" fill="#403F41"></path> <path d="M43.5845 5.38232C38.6095 5.38232 34.9334 8.61692 34.9611 13.9985H39.4387C39.3834 11.6513 40.8206 9.50436 43.3634 9.50436C45.5746 9.50436 46.8736 11.1074 46.8736 12.9393C46.8736 14.7714 45.5746 15.8019 43.1699 16.9184C39.8808 18.4355 37.5316 19.4088 35.1269 20.2676V26.5651H51.8763V22.3285H40.3777C40.3777 22.3285 40.416 22.3161 40.4348 22.3103C42.3906 21.6965 43.8599 21.0297 45.6023 20.2389C49.3335 18.5214 51.4617 16.3744 51.4617 12.7104C51.4617 8.21615 48.2556 5.38232 43.5845 5.38232Z" fill="#403F41"></path> <path d="M23.1893 19.2651C17.5509 19.2937 16.6388 22.8146 16.3348 25.7917L16.1967 27.1084H15.0633L14.9252 25.7917C14.6212 22.8146 13.6815 19.2937 8.23648 19.2651C7.3244 17.3184 6.93745 15.744 6.93745 13.9693C6.93745 9.53241 10.4477 5.38159 15.6438 5.38159C20.8399 5.38159 24.2949 9.50363 24.2949 13.998C24.2949 15.744 24.1291 17.3184 23.1893 19.2651ZM15.5886 0C7.02045 0 0 7.27094 0 16.1733C0 25.1046 7.02045 32.3754 15.5886 32.3754C24.2396 32.3754 31.2324 25.1046 31.2324 16.1733C31.2324 7.27096 24.2396 0 15.5886 0Z" fill="#29B24A"></path> </svg> 