<?xml version="1.0" encoding="UTF-8"?> <svg xmlns="http://www.w3.org/2000/svg" width="64" height="20" viewBox="0 0 64 20" fill="none"><ellipse cx="10" cy="10" rx="10" ry="10" fill="#FF3333"></ellipse><path fill-rule="evenodd" clip-rule="evenodd" d="M11.1915 15.4127H13.0635V4.58984H10.3524C7.64122 4.58984 6.2211 6.03289 6.2211 8.06627C6.2211 9.70609 6.99571 10.69 8.41584 11.7395L5.96289 15.4127H7.96398L10.6751 11.2803L9.77142 10.6244C8.60949 9.90287 8.02853 9.31253 8.02853 8.00068C8.02853 6.82 8.80315 6.09848 10.3524 6.09848H11.1915V15.4127Z" fill="white"></path><circle cx="32" cy="10" r="10" fill="white"></circle><path d="M36.8496 11.901C33.2389 11.9187 32.6549 14.0938 32.4602 15.9329L32.3717 16.7463H31.646L31.5575 15.9329C31.3629 14.0938 30.7611 11.9187 27.2743 11.901C26.6903 10.6985 26.4425 9.72592 26.4425 8.62956C26.4425 5.88867 28.6903 3.32449 32.0177 3.32449C35.3451 3.32449 37.5575 5.87089 37.5575 8.64732C37.5575 9.72592 37.4513 10.6985 36.8496 11.901ZM31.9823 0C26.4956 0 22 4.49164 22 9.99112C22 15.5084 26.4956 20 31.9823 20C37.5221 20 42 15.5084 42 9.99112C42 4.49166 37.5221 0 31.9823 0Z" fill="#29B24A"></path><circle cx="54" cy="10" r="10" fill="#FF3333"></circle><path fill-rule="evenodd" clip-rule="evenodd" d="M50.5519 4.68414C49.8529 4.75904 49.4467 4.91724 49.1374 5.23507C48.933 5.44517 48.8168 5.66052 48.7308 5.98874L48.6826 6.17258V9.15476C48.6826 11.9931 48.6844 12.1416 48.7199 12.2336C48.7672 12.3561 48.9062 12.4815 49.0289 12.5124C49.1452 12.5417 49.4657 12.5419 49.5815 12.5127C49.7023 12.4823 49.8208 12.3761 49.88 12.2451C49.9277 12.1394 49.929 12.122 49.935 11.4884L49.9412 10.8399H51.3855H52.8299V12.3565C52.8299 13.5311 52.8358 13.8962 52.8563 13.9753C53.0514 14.729 53.5791 15.1312 54.5766 15.2868C54.7829 15.3189 54.9588 15.3234 56.0169 15.3234C57.1012 15.3234 57.2428 15.3196 57.4266 15.2857C58.2535 15.1331 58.8712 14.7097 59.1709 14.0902C59.3366 13.7475 59.3265 13.9627 59.3265 10.7684C59.3265 8.10013 59.3244 7.92375 59.2904 7.8387C59.2368 7.70456 59.1657 7.62257 59.0564 7.56873C58.9691 7.52575 58.9308 7.52069 58.6932 7.52069C58.3912 7.52069 58.3107 7.54745 58.1968 7.68561C58.0851 7.82109 58.0701 7.92663 58.0701 8.57908V9.16498H56.5898H55.1095L55.1032 7.65856L55.0969 6.15215L55.0399 5.96907C54.8264 5.28368 54.3376 4.90192 53.453 4.72971C53.2263 4.68559 53.1724 4.68383 51.9207 4.68022C51.2072 4.67815 50.5913 4.67991 50.5519 4.68414ZM53.3878 6.10611C53.5745 6.16251 53.6828 6.2302 53.7543 6.33511L53.8207 6.43252V7.70957C53.8207 8.60735 53.8138 9.00972 53.7974 9.06444C53.7448 9.2401 53.5765 9.35845 53.2825 9.42651C53.1531 9.45647 52.9532 9.4604 51.5428 9.46076L49.9493 9.46115L49.9435 8.01091C49.9393 6.96183 49.9443 6.53681 49.9613 6.47443C50.0155 6.27624 50.2472 6.13918 50.6242 6.08233C50.6912 6.07222 51.316 6.06608 52.0127 6.06865C53.1074 6.07269 53.2941 6.07778 53.3878 6.10611ZM51.6552 6.82757C51.357 6.89212 51.0901 7.09037 50.9694 7.33685C50.9159 7.44626 50.9095 7.48024 50.9095 7.65346C50.9095 7.82138 50.9169 7.86327 50.9644 7.96465C51.0385 8.1227 51.1125 8.21558 51.2383 8.30856C51.6073 8.58104 52.1239 8.58758 52.5159 8.32471C52.6519 8.23351 52.7384 8.12997 52.8149 7.96671C52.8634 7.86305 52.8707 7.82217 52.8707 7.65346C52.8707 7.48024 52.8643 7.44626 52.8107 7.33685C52.6882 7.08645 52.422 6.89118 52.1148 6.82643C51.9404 6.78966 51.8289 6.78993 51.6552 6.82757ZM58.0701 11.9645C58.0701 12.9721 58.0633 13.4021 58.0462 13.4698C57.9868 13.7057 57.6926 13.862 57.1922 13.9234C56.9729 13.9503 54.9281 13.9505 54.7196 13.9236C54.4144 13.8843 54.2373 13.7761 54.1453 13.5726L54.0965 13.4646L54.0902 12.327C54.0834 11.1189 54.0899 11.0105 54.1766 10.8796C54.2706 10.7375 54.5211 10.6164 54.8078 10.5745C54.866 10.566 55.6239 10.5579 56.4919 10.5565L58.0701 10.5539V11.9645ZM55.8128 11.4971C55.3496 11.5854 55.0047 12.0417 55.0866 12.458C55.1478 12.7691 55.3469 12.994 55.6745 13.122C55.7945 13.1689 55.8421 13.1759 56.0373 13.1754C56.2158 13.175 56.287 13.1658 56.383 13.1307C56.8997 12.9421 57.1395 12.4339 56.9221 11.9882C56.8511 11.8425 56.646 11.6459 56.4925 11.5763C56.2787 11.4794 56.0472 11.4524 55.8128 11.4971Z" fill="white"></path></svg> 