<?xml version="1.0" encoding="UTF-8"?> <svg xmlns="http://www.w3.org/2000/svg" width="45" height="45" viewBox="0 0 45 45" fill="none"><rect width="45" height="45" fill="#4285F4"></rect><path d="M18.6144 32C17.8339 31.9684 17.2222 31.325 17.2257 30.5445C17.2152 29.8238 17.2363 29.0715 17.2222 28.3438C16.9832 28.3543 16.6949 28.3543 16.4453 28.3473C15.1234 28.3613 14.5187 26.6949 15.4679 25.8195C15.7527 25.5559 16.0832 25.4258 16.4453 25.4328C16.6703 25.4363 16.9972 25.4328 17.2257 25.4328C17.2222 25.2008 17.2257 24.9477 17.2257 24.7051C16.9515 24.698 16.6527 24.698 16.3925 24.7121C15.6437 24.7121 15.0074 24.0441 15.0004 23.2531C14.9828 22.5078 15.6296 21.7766 16.3996 21.7941C16.6668 21.8047 16.9586 21.8012 17.2222 21.7941C17.2328 19.748 17.2187 17.5367 17.2257 15.5012C17.2082 14.5766 17.8726 13.9684 18.7234 14.007H18.9941C20.0945 14.007 21.1949 14 22.2953 14C23.4554 14 24.3519 14.007 25.1992 14.0211C26.5211 14.0457 27.6882 14.5449 28.6656 15.5117C31.9175 18.5211 30.0894 24.125 25.7125 24.6453C25.0234 24.7297 24.3132 24.7051 23.6382 24.7051C22.6398 24.7227 21.1738 24.7016 20.1578 24.7121C20.1578 24.9512 20.1543 25.1938 20.1613 25.4328L20.1718 25.4363C20.214 25.4434 20.2668 25.4328 20.3089 25.4328H25.1113C25.9164 25.4152 26.5843 26.0551 26.5984 26.8602V26.9445C26.5879 27.6336 26.0324 28.3508 25.1254 28.3508C24.4574 28.3438 23.7894 28.3402 23.1214 28.3438C22.1336 28.3438 21.1492 28.3473 20.1613 28.3473V29.8098C20.1613 30.0875 20.1613 30.3723 20.1507 30.6535C20.1191 31.4832 19.3527 32 18.6601 32H18.6144ZM20.1824 21.7977C21.5359 21.7941 23.5293 21.8082 24.8617 21.7941C26.3945 21.8574 27.7621 20.6445 27.5617 19.1152C27.4211 17.9129 26.4894 17.0059 25.3504 16.9602C24.3589 16.918 23.3464 16.9145 22.3972 16.9145C21.7855 16.9215 20.7554 16.9145 20.1543 16.9109C20.1648 17.4172 20.1543 21.207 20.1578 21.7977H20.1824Z" fill="white" stroke="#4285F4" stroke-width="0.3"></path></svg> 