<?xml version="1.0" encoding="UTF-8"?> <svg xmlns="http://www.w3.org/2000/svg" width="67" height="20" viewBox="0 0 67 20" fill="none"> <path d="M29.1015 19.7115H23.7617L27.1016 0.351074H32.4411L29.1015 19.7115Z" fill="white"></path> <path d="M48.4592 0.824299C47.4059 0.432546 45.7354 0 43.6699 0C38.3967 0 34.6834 2.63621 34.6606 6.40508C34.6167 9.1858 37.3192 10.7303 39.3404 11.6574C41.4062 12.605 42.1086 13.2234 42.1086 14.0678C42.0875 15.3649 40.4392 15.9627 38.9018 15.9627C36.7699 15.9627 35.6277 15.6545 33.8917 14.9329L33.1887 14.6236L32.4414 18.9695C33.6938 19.5044 36.0012 19.9791 38.3967 20C43.9996 20 47.6472 17.4046 47.6903 13.3882C47.7116 11.1842 46.2847 9.49541 43.2082 8.11549C41.3405 7.22966 40.1968 6.63228 40.1968 5.72598C40.2188 4.90196 41.1642 4.05802 43.2725 4.05802C45.0083 4.01668 46.2838 4.40788 47.25 4.79935L47.7329 5.00498L48.4592 0.824299Z" fill="white"></path> <path fill-rule="evenodd" clip-rule="evenodd" d="M58.0154 0.351074H62.1456L66.4535 19.7112H61.5093C61.5093 19.7112 61.0255 17.4868 60.8723 16.807H54.0164C53.8182 17.3217 52.8957 19.7112 52.8957 19.7112H47.293L55.2244 1.95736C55.7739 0.700928 56.7416 0.351074 58.0154 0.351074ZM57.6862 7.43595C57.6862 7.43595 55.9941 11.7405 55.5544 12.8527H59.9928C59.7732 11.8849 58.7619 7.25052 58.7619 7.25052L58.3889 5.58242C58.2316 6.01192 58.0044 6.60253 57.8511 7.00092C57.7472 7.27084 57.6773 7.45255 57.6862 7.43595Z" fill="white"></path> <path fill-rule="evenodd" clip-rule="evenodd" d="M0.625001 0.351074H9.21605C10.3807 0.391867 11.3255 0.741997 11.6329 1.97851L13.5 10.8739L13.5006 10.8756L14.072 13.553L19.3014 0.351074H24.9477L16.5545 19.6911H10.9079L6.14863 2.8685C4.50654 1.96842 2.63244 1.24451 0.537109 0.742274L0.625001 0.351074Z" fill="white"></path> </svg> 