<?xml version="1.0" encoding="UTF-8"?> <svg xmlns="http://www.w3.org/2000/svg" width="15" height="19" viewBox="0 0 15 19" fill="none"><path fill-rule="evenodd" clip-rule="evenodd" d="M7.74649 0.977315H3.25772C1.99829 0.977315 0.977315 1.99829 0.977315 3.25772V11.748C0.977315 13.0074 1.99829 14.0284 3.25772 14.0284H7.74649C9.00592 14.0284 10.0269 13.0074 10.0269 11.748V3.25772C10.0269 1.99829 9.00592 0.977315 7.74649 0.977315ZM3.25772 0C1.45853 0 0 1.45853 0 3.25772V11.748C0 13.5472 1.45853 15.0057 3.25772 15.0057H7.74649C9.54568 15.0057 11.0042 13.5472 11.0042 11.748V3.25772C11.0042 1.45853 9.54568 0 7.74649 0H3.25772Z" fill="#005DA9"></path><path d="M3.99609 7.25576C3.99609 5.45658 5.45462 3.99805 7.25381 3.99805H11.7426C13.5418 3.99805 15.0003 5.45658 15.0003 7.25576V15.7461C15.0003 17.5452 13.5418 19.0038 11.7426 19.0038H7.25381C5.45462 19.0038 3.99609 17.5452 3.99609 15.7461V7.25576Z" fill="white"></path><path fill-rule="evenodd" clip-rule="evenodd" d="M11.7426 4.97536H7.25381C5.99438 4.97536 4.97341 5.99633 4.97341 7.25576V15.7461C4.97341 17.0055 5.99438 18.0265 7.25381 18.0265H11.7426C13.002 18.0265 14.023 17.0055 14.023 15.7461V7.25576C14.023 5.99633 13.002 4.97536 11.7426 4.97536ZM7.25381 3.99805C5.45462 3.99805 3.99609 5.45658 3.99609 7.25576V15.7461C3.99609 17.5452 5.45462 19.0038 7.25381 19.0038H11.7426C13.5418 19.0038 15.0003 17.5452 15.0003 15.7461V7.25576C15.0003 5.45658 13.5418 3.99805 11.7426 3.99805H7.25381Z" fill="#73B61C"></path></svg> 