<?xml version="1.0" encoding="UTF-8"?> <svg xmlns="http://www.w3.org/2000/svg" width="28" height="28" viewBox="0 0 28 28" fill="none"> <mask id="mask0_855_2079" style="mask-type:luminance" maskUnits="userSpaceOnUse" x="0" y="0" width="28" height="28"> <path d="M28 0H0V28H28V0Z" fill="white"></path> </mask> <g mask="url(#mask0_855_2079)"> <path d="M0 13.44C0 7.10433 0 3.93649 1.96824 1.96824C3.93649 0 7.10433 0 13.44 0H14.56C20.8957 0 24.0635 0 26.0318 1.96824C28 3.93649 28 7.10433 28 13.44V14.56C28 20.8957 28 24.0635 26.0318 26.0318C24.0635 28 20.8957 28 14.56 28H13.44C7.10433 28 3.93649 28 1.96824 26.0318C0 24.0635 0 20.8957 0 14.56V13.44Z" fill="#0077FF"></path> <path d="M14.8921 20.1726C8.5104 20.1726 4.87043 15.7976 4.71875 8.51758H7.91543C8.02043 13.8609 10.377 16.1242 12.2437 16.5909V8.51758H15.2538V13.1259C17.0971 12.9275 19.0336 10.8276 19.6869 8.51758H22.697C22.1953 11.3643 20.0953 13.4642 18.602 14.3276C20.0953 15.0276 22.4871 16.8592 23.3971 20.1726H20.0837C19.372 17.9559 17.5988 16.2409 15.2538 16.0076V20.1726H14.8921Z" fill="white"></path> </g> </svg> 