<?xml version="1.0" encoding="UTF-8"?> <svg xmlns="http://www.w3.org/2000/svg" width="110" height="10" viewBox="0 0 110 10" fill="none"><path fill-rule="evenodd" clip-rule="evenodd" d="M23.7576 0.0628137C22.5885 0.153306 21.5761 0.513044 21.1031 1.00607C20.5991 1.5313 20.4757 2.48097 20.524 5.46125C20.56 7.68199 20.6031 7.97148 20.9701 8.45255C21.6817 9.38558 23.68 9.91088 25.7652 9.71304C27.6491 9.53421 28.6136 9.12325 28.9537 8.35442C29.1534 7.90304 29.2426 6.38448 29.2042 4.09233C29.1783 2.54567 29.1486 2.10913 29.0477 1.79377C28.798 1.0132 28.4089 0.597916 27.6912 0.345603C26.9858 0.097685 25.0784 -0.0394229 23.7576 0.0628137ZM3.17564 0.124343C2.40753 0.198048 1.90744 0.320891 1.34107 0.575077C0.586077 0.91392 0.279151 1.29347 0.128066 2.07498C0.0132931 2.66916 -0.0299358 4.66706 0.0213626 7.01029L0.0671133 9.09969L0.300478 9.33385C0.497674 9.53169 0.586365 9.568 0.872469 9.568C1.16153 9.568 1.24698 9.53212 1.45606 9.32304L1.70102 9.07807V5.92963C1.70102 2.41411 1.69749 2.44113 2.19067 2.16396C2.62641 1.91907 3.30129 1.84233 4.74233 1.87375C6.2044 1.90567 6.51969 1.98081 6.85277 2.37665L7.0326 2.59034V5.75852C7.0326 9.23427 7.03289 9.23651 7.46251 9.45871C7.95057 9.71109 8.54806 9.49437 8.69115 9.01309C8.74807 8.82151 8.76457 7.76687 8.74627 5.49727C8.72084 2.34653 8.71543 2.24112 8.55505 1.75962C8.24517 0.828975 7.56187 0.35886 6.29814 0.206838C5.42787 0.10208 3.84374 0.06022 3.17564 0.124343ZM10.7275 0.105466C10.5228 0.148551 10.2035 0.526444 10.2001 0.729621C10.1986 0.815718 10.1937 2.69135 10.1892 4.89762C10.1802 9.24595 10.1816 9.26273 10.5695 9.46332C10.9629 9.66671 11.6107 9.53897 11.7603 9.22844C11.7945 9.15762 11.8389 8.49989 11.8591 7.76679L11.8959 6.4339L14.3455 6.39103C16.9163 6.34607 17.2412 6.30774 17.8993 5.972C18.3515 5.7413 18.7466 5.24871 18.9245 4.69386C19.1418 4.01582 19.2077 2.35597 19.0402 1.77972C18.8021 0.960968 18.3033 0.476947 17.4409 0.227876C17.069 0.120524 16.6 0.10172 13.9492 0.0878865C12.2651 0.0790966 10.8154 0.0869498 10.7275 0.105466ZM16.9085 1.85912C17.0502 1.89846 17.2347 2.00365 17.3185 2.09292C17.6594 2.45568 17.6959 3.64088 17.3807 4.10861C17.2961 4.23405 17.1136 4.40329 16.975 4.48471C16.7344 4.62606 16.6144 4.63269 14.3095 4.63269H11.8959L11.8762 3.3021C11.8653 2.57031 11.8724 1.92995 11.8919 1.87915C11.9198 1.8066 12.4343 1.78686 14.2892 1.78722C15.6302 1.78743 16.7624 1.81849 16.9085 1.85912ZM26.3583 1.85523C26.9104 1.94572 27.2665 2.1244 27.4305 2.39343C27.5556 2.59841 27.5659 2.7928 27.5661 4.9461L27.5664 7.27687L27.3279 7.51535C26.9558 7.88748 26.6519 7.93957 24.8285 7.94346C23.0455 7.94728 22.8204 7.90902 22.4509 7.53948L22.2348 7.32341V4.95388V2.58436L22.4545 2.33406C22.8136 1.92512 23.3448 1.81179 24.9726 1.79666C25.5076 1.79168 26.1312 1.81805 26.3583 1.85523Z" fill="#EB2326"></path><path fill-rule="evenodd" clip-rule="evenodd" d="M46.0524 0.0543948C44.519 0.232858 43.4795 0.808092 43.2161 1.62404C42.954 2.4353 42.9194 7.14388 43.1701 7.87603C43.3404 8.37352 43.5849 8.67289 44.085 8.99609C44.9329 9.54417 46.0999 9.78841 47.6735 9.74727C49.709 9.6941 51.0413 9.23486 51.418 8.45667C51.504 8.27907 51.6038 7.92985 51.6398 7.68071C51.7358 7.01671 51.7257 2.52608 51.6273 2.06166C51.3917 0.951684 50.7563 0.388699 49.483 0.161747C48.8022 0.0404175 46.7298 -0.0244261 46.0524 0.0543948ZM73.4402 0.0578531C72.7256 0.14849 72.2648 0.267658 71.7737 0.488918C70.8036 0.925963 70.5319 1.39053 70.4372 2.77407C70.3548 3.97908 70.3561 6.16978 70.4399 7.09784C70.5152 7.93317 70.6525 8.27237 71.0851 8.69227C71.855 9.43933 73.2314 9.79857 75.1239 9.74641C76.6992 9.70289 78.001 9.35792 78.5098 8.84912C79.0311 8.32777 79.0506 8.18627 79.0506 4.92205C79.0506 2.13436 79.0455 2.0265 78.8932 1.6239C78.5545 0.727974 77.9453 0.309158 76.7212 0.13055C76.0255 0.0291059 74.0178 -0.01542 73.4402 0.0578531ZM82.7899 0.0556918C80.8916 0.0984885 80.8812 0.100866 80.6965 0.54281C80.5501 0.893037 80.5549 8.74623 80.7016 9.09754C80.8918 9.5526 81.3839 9.71859 81.8819 9.49568C82.0363 9.42644 82.1917 9.30936 82.227 9.23537C82.2624 9.16137 82.3079 8.50105 82.328 7.76796L82.3648 6.43507L84.8144 6.39306C86.7892 6.3592 87.3448 6.32786 87.6805 6.23131C89.1129 5.81941 89.5708 5.02018 89.5659 2.94072C89.5637 2.02837 89.5428 1.84393 89.4004 1.48477C89.1747 0.915444 88.6726 0.470402 88.033 0.272917C87.5408 0.120895 85.9166 -0.0233452 84.9946 0.00316853C84.737 0.0105895 83.7449 0.0342214 82.7899 0.0556918ZM93.758 0.0604469C92.7201 0.179615 91.8853 0.504841 91.3855 0.984755C91.1844 1.17784 91.0699 1.38102 90.9532 1.75185C90.8016 2.23328 90.7944 2.37608 90.7944 4.88603C90.7944 7.22385 90.8087 7.55664 90.923 7.88388C91.3589 9.1327 93.0038 9.81096 95.4416 9.74727C97.3133 9.69835 98.5793 9.31109 99.0782 8.63492C99.4092 8.18634 99.4402 7.86191 99.4402 4.85C99.4402 2.05431 99.4394 2.03796 99.2678 1.60783C98.9279 0.756217 98.2218 0.281131 97.0686 0.128244C96.2967 0.0259358 94.3974 -0.0130423 93.758 0.0604469ZM35.7495 0.122985C35.6703 0.157568 35.553 0.246476 35.4889 0.320469C35.3824 0.443384 34.6285 1.86065 33.1561 4.70591C32.8484 5.3003 32.3551 6.2486 32.0597 6.81332L31.5226 7.84001H31.1288C30.4682 7.84001 30.0938 8.13382 30.0938 8.65214C30.0938 8.8038 30.143 9.02297 30.203 9.13925C30.4338 9.58552 30.2082 9.56917 36.1433 9.56917H41.5515L41.8071 9.33494C42.4371 8.75761 42.0652 7.84001 41.2011 7.84001H40.9177L39.836 5.76862C37.7011 1.6806 37.0025 0.380846 36.8662 0.243738C36.7122 0.0887618 36.0037 0.0121746 35.7495 0.122985ZM53.5741 0.22342C53.4342 0.317443 53.2924 0.495042 53.2433 0.637698C53.1092 1.02705 53.114 8.69702 53.2486 9.01901C53.5575 9.75844 54.5421 9.75844 54.8511 9.01901C54.923 8.84681 54.9504 8.42317 54.9504 7.48207C54.9504 6.7675 54.9747 6.18398 55.0044 6.18527C55.0342 6.18664 56.1279 6.94625 57.435 7.87329C58.742 8.80034 59.893 9.57471 59.9927 9.59402C60.4536 9.68358 60.9564 9.34783 61.0416 8.89357C61.1417 8.35991 61.0532 8.27489 58.5607 6.51158C57.2883 5.61141 56.2473 4.84719 56.2473 4.81333C56.2473 4.77947 56.3364 4.69006 56.4454 4.61469C56.5544 4.53933 57.5957 3.80235 58.7596 2.97689C60.4878 1.75113 60.8946 1.43066 60.9791 1.22828C61.1484 0.82315 60.9701 0.309734 60.6018 0.141933C60.377 0.0394808 59.9585 0.0340771 59.7769 0.131198C59.7025 0.171041 58.627 0.920704 57.3871 1.7971C56.1471 2.67349 55.0916 3.4063 55.0415 3.42554C54.9702 3.45291 54.9504 3.1774 54.9504 2.15359C54.9504 0.680567 54.8962 0.4436 54.5044 0.20476C54.1916 0.0139757 53.8761 0.020316 53.5741 0.22342ZM62.322 0.164269C61.754 0.41125 61.706 1.31582 62.2435 1.64356C62.4559 1.77304 62.6073 1.78744 63.7583 1.78766L65.0372 1.78795V5.35794C65.0372 9.27427 65.0331 9.23544 65.4671 9.45987C65.7441 9.6031 66.1497 9.59885 66.3763 9.45043C66.7689 9.19315 66.7663 9.22045 66.7663 5.35794V1.78795H68.0937C69.4133 1.78795 69.4223 1.78687 69.6406 1.60322C70.0891 1.22583 70.061 0.544828 69.5836 0.223564L69.3387 0.0587898L65.9451 0.0615996C63.2167 0.0639052 62.5065 0.0840067 62.322 0.164269ZM101.515 0.200004C101.042 0.488486 101.056 0.339202 101.078 4.92738L101.097 9.076L101.366 9.32255C101.68 9.60987 101.248 9.58178 105.427 9.5866L108.172 9.5897L108.561 9.40835C109.076 9.16851 109.535 8.69983 109.796 8.1465C109.99 7.73583 110.008 7.63294 110.001 6.97103C109.993 6.14954 109.918 5.71869 109.698 5.23676L109.546 4.90303L109.751 4.4082C109.944 3.94118 109.955 3.85264 109.957 2.83265C109.959 1.75538 109.959 1.7507 109.736 1.35566C109.363 0.695481 108.695 0.298927 107.674 0.13336C107.424 0.0926525 105.999 0.0597264 104.484 0.0595823C101.895 0.0593661 101.733 0.0670032 101.515 0.200004ZM49.1752 1.93903C49.3473 1.9778 49.5678 2.06173 49.6652 2.12557C50.038 2.36988 50.0511 2.46556 50.0511 4.94475C50.0511 7.16751 50.0461 7.25058 49.9007 7.43546C49.56 7.86854 48.9457 7.97935 46.9891 7.96054C45.7288 7.94844 45.6807 7.94246 45.2842 7.74771C44.9753 7.59598 44.8572 7.49281 44.7979 7.3227C44.7482 7.18012 44.7196 6.30538 44.7197 4.92933C44.7198 2.40454 44.7252 2.37954 45.332 2.07614C45.6555 1.91439 45.806 1.89206 46.809 1.85726C48.0678 1.81353 48.7181 1.83601 49.1752 1.93903ZM76.6763 1.9721C76.8764 2.02686 77.1194 2.15626 77.2167 2.25972L77.3935 2.44784L77.4142 4.80778C77.427 6.2566 77.4072 7.24071 77.3631 7.35685C77.1867 7.82063 76.1189 8.02423 74.1513 7.96919C73.2608 7.94433 73.0135 7.91314 72.7463 7.79188C72.1087 7.50261 72.1365 7.62357 72.1145 5.04064C72.0919 2.38941 72.0928 2.38494 72.7103 2.07614C73.0341 1.91425 73.1835 1.89213 74.1873 1.85791C75.5481 1.81144 76.1985 1.84126 76.6763 1.9721ZM87.5613 1.94732C87.9988 2.18681 88.1576 3.13309 87.8913 3.91337C87.7835 4.22952 87.7243 4.29552 87.4082 4.45258L87.0479 4.63162L84.7064 4.6327L82.3648 4.63386L82.3451 3.30327C82.3342 2.57147 82.3422 1.92888 82.3628 1.87527C82.3935 1.79537 82.8447 1.78197 84.8682 1.80092C87.0335 1.82116 87.3637 1.8391 87.5613 1.94732ZM96.7631 1.90085C96.9153 1.92009 97.1659 2.00013 97.3199 2.07874C97.8133 2.33047 97.8191 2.36412 97.8191 4.94475C97.8191 7.16751 97.8141 7.25058 97.6687 7.43546C97.3433 7.84909 96.7853 7.95982 94.9372 7.97733C93.5601 7.99037 93.0707 7.88835 92.7217 7.51572L92.4876 7.26571L92.4877 5.01319C92.4878 2.39431 92.4906 2.38083 93.1 2.07614C93.423 1.91468 93.5757 1.89184 94.577 1.85582C95.6586 1.81691 96.1853 1.82772 96.7631 1.90085ZM107.87 1.94444C108.04 2.00849 108.227 2.15381 108.327 2.29877C108.474 2.51175 108.492 2.60555 108.461 3.00355C108.432 3.37553 108.39 3.49852 108.236 3.65198L108.047 3.84133L105.527 3.8628L103.007 3.88427V2.88416C103.007 2.33408 103.031 1.85949 103.061 1.82952C103.09 1.79955 104.12 1.78867 105.348 1.80538C107.106 1.8293 107.643 1.85892 107.87 1.94444ZM36.9418 4.00343C38.5859 7.16837 38.8836 7.74937 38.8836 7.79325C38.8836 7.81897 37.684 7.84001 36.2179 7.84001C34.7517 7.84001 33.5521 7.81976 33.5521 7.79498C33.5521 7.75225 34.7932 5.33179 35.21 4.56181C35.3172 4.36368 35.5747 3.86928 35.7821 3.46307C35.9895 3.05686 36.1858 2.72458 36.2183 2.72458C36.2508 2.72458 36.5764 3.30003 36.9418 4.00343ZM108.135 5.98952C108.647 6.3373 108.586 7.44612 108.038 7.74519C107.82 7.86414 107.582 7.87603 105.42 7.87603H103.043L103.022 6.94322C103.011 6.43017 103.019 5.96617 103.04 5.91214C103.071 5.8313 103.507 5.8179 105.51 5.83627C107.719 5.85666 107.96 5.87071 108.135 5.98952Z" fill="#117DC1"></path></svg> 