<?xml version="1.0" encoding="UTF-8"?> <svg xmlns="http://www.w3.org/2000/svg" width="100" height="9" viewBox="0 0 100 9" fill="none"><path fill-rule="evenodd" clip-rule="evenodd" d="M21.5978 0.0571477C20.535 0.139414 19.6147 0.466448 19.1847 0.914654C18.7265 1.39214 18.6143 2.25547 18.6582 4.96482C18.6909 6.98368 18.7301 7.24685 19.0637 7.68418C19.7107 8.53239 21.5273 9.00994 23.4229 8.83008C25.1355 8.66751 26.0124 8.29391 26.3215 7.59497C26.5031 7.18463 26.5842 5.80411 26.5493 3.72035C26.5257 2.31429 26.4987 1.91744 26.407 1.63075C26.18 0.921138 25.8263 0.543605 25.1738 0.314229C24.5325 0.0888489 22.7985 -0.0357946 21.5978 0.0571477ZM2.88694 0.113083C2.18866 0.180088 1.73404 0.291763 1.21916 0.522842C0.532798 0.830881 0.253774 1.17593 0.116424 1.88639C0.0120846 2.42655 -0.0272144 4.24283 0.0194205 6.37303L0.0610121 8.27249L0.273162 8.48536C0.452431 8.66522 0.533059 8.69823 0.793154 8.69823C1.05593 8.69823 1.13361 8.66561 1.32369 8.47553L1.54639 8.25284V5.39062C1.54639 2.19469 1.54318 2.21925 1.99151 1.96728C2.38765 1.74465 3.00117 1.67489 4.31121 1.70345C5.64037 1.73247 5.92699 1.80078 6.22979 2.16063L6.39327 2.3549V5.23506C6.39327 8.39484 6.39353 8.39687 6.7841 8.59887C7.22779 8.82831 7.77097 8.63129 7.90105 8.19376C7.95279 8.0196 7.96779 7.06083 7.95115 4.99757C7.92803 2.13325 7.92312 2.03743 7.77732 1.5997C7.49561 0.753658 6.87442 0.326281 5.72558 0.188079C4.93442 0.0928443 3.49431 0.0547898 2.88694 0.113083ZM9.75229 0.0959228C9.56621 0.135091 9.27592 0.47863 9.27278 0.663336C9.27147 0.741607 9.26702 2.44673 9.26289 4.45242C9.2547 8.40545 9.25601 8.42071 9.60866 8.60306C9.96628 8.78796 10.5552 8.67183 10.6912 8.38953C10.7223 8.32515 10.7627 7.72721 10.781 7.06077L10.8144 5.84905L13.0414 5.81007C15.3785 5.7692 15.6738 5.73436 16.2721 5.42913C16.6832 5.21941 17.0423 4.7716 17.2041 4.26719C17.4016 3.65079 17.4615 2.14183 17.3092 1.61798C17.0928 0.873652 16.6394 0.433633 15.8554 0.207205C15.5173 0.109612 15.0909 0.0925169 12.6811 0.0799412C11.1501 0.0719504 9.83214 0.0790897 9.75229 0.0959228ZM15.3714 1.69016C15.5002 1.72592 15.6679 1.82155 15.7441 1.9027C16.054 2.23248 16.0872 3.30993 15.8006 3.73515C15.7237 3.84918 15.5578 4.00304 15.4319 4.07705C15.2131 4.20556 15.104 4.21158 13.0086 4.21158H10.8144L10.7965 3.00196C10.7866 2.33669 10.7931 1.75454 10.8108 1.70836C10.8362 1.64241 11.3039 1.62446 12.9902 1.62479C14.2093 1.62498 15.2385 1.65321 15.3714 1.69016ZM23.9621 1.68662C24.464 1.76888 24.7877 1.93132 24.9368 2.17589C25.0505 2.36224 25.0599 2.53895 25.0601 4.4965L25.0603 6.61538L24.8435 6.83218C24.5052 7.17048 24.229 7.21783 22.5714 7.22137C20.9504 7.22484 20.7458 7.19006 20.4099 6.85412L20.2134 6.65769V4.50358V2.34946L20.4132 2.12192C20.7396 1.75015 21.2225 1.64712 22.7024 1.63337C23.1887 1.62885 23.7556 1.65282 23.9621 1.68662Z" fill="#EB2326"></path><path fill-rule="evenodd" clip-rule="evenodd" d="M41.8639 0.0494498C40.4698 0.211689 39.5248 0.734629 39.2853 1.4764C39.0471 2.21391 39.0157 6.49443 39.2435 7.16003C39.3984 7.6123 39.6207 7.88444 40.0753 8.17827C40.8461 8.67651 41.907 8.89855 43.3376 8.86116C45.188 8.81282 46.3992 8.39533 46.7417 7.68788C46.8198 7.52643 46.9105 7.20896 46.9433 6.98246C47.0306 6.37883 47.0214 2.29644 46.9319 1.87424C46.7178 0.865168 46.1401 0.353363 44.9825 0.147043C44.3637 0.0367432 42.4797 -0.0222055 41.8639 0.0494498ZM66.7618 0.0525937C66.1122 0.134991 65.6933 0.243325 65.2468 0.444471C64.3649 0.841785 64.1179 1.26412 64.0318 2.52189C63.957 3.61735 63.9581 5.60889 64.0342 6.45258C64.1028 7.21197 64.2275 7.52034 64.6208 7.90206C65.3207 8.58121 66.572 8.90779 68.2925 8.86037C69.7245 8.82081 70.908 8.5072 71.3705 8.04465C71.8445 7.5707 71.8622 7.44207 71.8622 4.47459C71.8622 1.94033 71.8575 1.84227 71.7191 1.47627C71.4112 0.661795 70.8574 0.281052 69.7445 0.118682C69.1121 0.0264599 67.2869 -0.0140182 66.7618 0.0525937ZM75.2616 0.0506289C73.5358 0.089535 73.5264 0.0916963 73.3585 0.493464C73.2254 0.811852 73.2297 7.95112 73.3631 8.27049C73.536 8.68418 73.9833 8.83509 74.4361 8.63243C74.5765 8.56949 74.7178 8.46306 74.7499 8.39579C74.782 8.32852 74.8233 7.72823 74.8417 7.06178L74.8751 5.85006L77.102 5.81187C78.8973 5.78109 79.4024 5.7526 79.7076 5.66483C81.0097 5.29037 81.426 4.5638 81.4215 2.67338C81.4196 1.84398 81.4005 1.6763 81.2711 1.34979C81.0659 0.832222 80.6095 0.427638 80.028 0.248107C79.5806 0.109905 78.104 -0.021223 77.2658 0.00288048C77.0316 0.00962682 76.1297 0.0311103 75.2616 0.0506289ZM85.2326 0.0549518C84.2891 0.163286 83.5301 0.458946 83.0757 0.895232C82.8929 1.07077 82.7888 1.25547 82.6827 1.59259C82.545 2.03025 82.5384 2.16007 82.5384 4.44184C82.5384 6.56714 82.5514 6.86967 82.6553 7.16717C83.0515 8.30245 84.5469 8.91906 86.7631 8.86116C88.4646 8.81668 89.6156 8.46463 90.0691 7.84992C90.37 7.44213 90.3982 7.14719 90.3982 4.40909C90.3982 1.86756 90.3974 1.85269 90.2414 1.46166C89.9325 0.68747 89.2906 0.255574 88.2422 0.116586C87.5405 0.023578 85.8138 -0.0118567 85.2326 0.0549518ZM32.4976 0.111804C32.4255 0.143244 32.3189 0.224069 32.2606 0.291336C32.1638 0.403076 31.4784 1.6915 30.1399 4.2781C29.8602 4.81846 29.4118 5.68055 29.1432 6.19393L28.6549 7.12728H28.2969C27.6964 7.12728 27.356 7.39438 27.356 7.86558C27.356 8.00345 27.4007 8.2027 27.4553 8.30841C27.6651 8.71411 27.46 8.69924 32.8555 8.69924H37.7721L38.0044 8.48631C38.5772 7.96147 38.2391 7.12728 37.4536 7.12728H37.1959L36.2125 5.2442C34.2717 1.52782 33.6366 0.346223 33.5127 0.22158C33.3727 0.0806926 32.7286 0.0110678 32.4976 0.111804ZM48.7018 0.203109C48.5746 0.288585 48.4457 0.450038 48.401 0.579725C48.2791 0.933679 48.2834 7.90638 48.4058 8.1991C48.6866 8.87131 49.5817 8.87131 49.8626 8.1991C49.928 8.04255 49.9529 7.65742 49.9529 6.80188C49.9529 6.15227 49.975 5.6218 50.002 5.62298C50.0291 5.62422 51.0234 6.31477 52.2116 7.15754C53.3998 8.00031 54.4462 8.70429 54.5368 8.72184C54.9558 8.80325 55.4129 8.49803 55.4904 8.08506C55.5814 7.59992 55.5009 7.52263 53.235 5.91962C52.0783 5.10128 51.1319 4.40654 51.1319 4.37575C51.1319 4.34497 51.2129 4.26369 51.312 4.19518C51.4111 4.12666 52.3578 3.45668 53.4158 2.70626C54.9869 1.59194 55.3567 1.3006 55.4336 1.11662C55.5875 0.748318 55.4254 0.281576 55.0906 0.12903C54.8862 0.0358916 54.5057 0.0309792 54.3407 0.119271C54.273 0.155492 53.2953 0.837003 52.1681 1.63373C51.0409 2.43045 50.0813 3.09663 50.0357 3.11412C49.9709 3.13901 49.9529 2.88855 49.9529 1.95781C49.9529 0.618697 49.9036 0.403272 49.5475 0.186145C49.2631 0.0127051 48.9763 0.0184691 48.7018 0.203109ZM56.6544 0.149335C56.138 0.373864 56.0944 1.1962 56.583 1.49415C56.7761 1.61185 56.9137 1.62495 57.9601 1.62515L59.1227 1.62541V4.87086C59.1227 8.43116 59.119 8.39585 59.5135 8.59988C59.7654 8.73009 60.1341 8.72623 60.3401 8.5913C60.697 8.35741 60.6947 8.38223 60.6947 4.87086V1.62541H61.9013C63.101 1.62541 63.1092 1.62443 63.3077 1.45747C63.7154 1.11439 63.6898 0.495298 63.2558 0.20324L63.0332 0.0534453L59.9481 0.0559997C57.4677 0.0580956 56.8221 0.0763698 56.6544 0.149335ZM92.2845 0.181822C91.8544 0.444078 91.8669 0.308365 91.8867 4.47944L91.9047 8.25091L92.1493 8.47504C92.4344 8.73625 92.042 8.7107 95.8411 8.71509L98.3364 8.71791L98.6903 8.55305C99.158 8.33501 99.5749 7.90894 99.8126 7.40591C99.989 7.03257 100.005 6.93904 99.9991 6.3373C99.9915 5.59049 99.9231 5.19881 99.7237 4.76069L99.5856 4.4573L99.7713 4.00746C99.9467 3.5829 99.9572 3.5024 99.959 2.57514C99.961 1.5958 99.9603 1.59155 99.7578 1.23242C99.4193 0.632255 98.8113 0.271752 97.8838 0.121236C97.6558 0.0842295 96.3611 0.0542967 94.9831 0.0541657C92.6296 0.0539692 92.4828 0.060912 92.2845 0.181822ZM44.7028 1.76276C44.8592 1.798 45.0597 1.8743 45.1482 1.93233C45.4871 2.15444 45.499 2.24142 45.499 4.49522C45.499 6.51592 45.4944 6.59144 45.3623 6.75951C45.0526 7.15322 44.4941 7.25395 42.7153 7.23686C41.5696 7.22585 41.5259 7.22042 41.1655 7.04338C40.8846 6.90544 40.7772 6.81164 40.7233 6.657C40.6781 6.52738 40.6522 5.73216 40.6523 4.48121C40.6523 2.18594 40.6573 2.16322 41.2089 1.8874C41.503 1.74036 41.6398 1.72005 42.5516 1.68842C43.696 1.64866 44.2872 1.6691 44.7028 1.76276ZM69.7037 1.79282C69.8856 1.8426 70.1065 1.96024 70.195 2.05429L70.3557 2.22531L70.3745 4.37071C70.3861 5.68782 70.3682 6.58246 70.3281 6.68805C70.1678 7.10966 69.197 7.29476 67.4083 7.24472C66.5988 7.22212 66.3739 7.19376 66.131 7.08353C65.5514 6.82055 65.5767 6.93052 65.5566 4.5824C65.5361 2.17219 65.5369 2.16813 66.0983 1.8874C66.3926 1.74023 66.5285 1.72012 67.441 1.68901C68.6781 1.64676 69.2694 1.67388 69.7037 1.79282ZM79.5992 1.77029C79.9969 1.98801 80.1413 2.84826 79.8992 3.55761C79.8012 3.84502 79.7474 3.90502 79.46 4.0478L79.1325 4.21057L77.0038 4.21155L74.8751 4.2126L74.8572 3.00297C74.8473 2.3377 74.8546 1.75352 74.8733 1.70479C74.9012 1.63215 75.3114 1.61997 77.1509 1.6372C79.1194 1.6556 79.4196 1.67191 79.5992 1.77029ZM87.9644 1.72804C88.1028 1.74553 88.3306 1.8183 88.4707 1.88976C88.9192 2.11861 88.9245 2.1492 88.9245 4.49522C88.9245 6.51592 88.9199 6.59144 88.7877 6.75951C88.492 7.13553 87.9846 7.2362 86.3046 7.25212C85.0526 7.26398 84.6078 7.17123 84.2905 6.83247L84.0776 6.60519L84.0778 4.55745C84.0778 2.17664 84.0804 2.1644 84.6344 1.8874C84.928 1.74062 85.0668 1.71986 85.9771 1.68711C86.9604 1.65174 87.4392 1.66156 87.9644 1.72804ZM98.0615 1.76767C98.2161 1.8259 98.3866 1.95801 98.4773 2.08979C98.6105 2.28341 98.6267 2.36869 98.5988 2.7305C98.5727 3.06867 98.5339 3.18047 98.3945 3.31998L98.2225 3.49212L95.9315 3.51163L93.6404 3.53115V2.62197C93.6404 2.12189 93.6625 1.69045 93.6895 1.6632C93.7165 1.63595 94.6524 1.62606 95.7691 1.64126C97.3669 1.663 97.8554 1.68992 98.0615 1.76767ZM33.5815 3.63949C35.0761 6.5167 35.3468 7.04488 35.3468 7.08477C35.3468 7.10815 34.2562 7.12728 32.9233 7.12728C31.5904 7.12728 30.4999 7.10887 30.4999 7.08634C30.4999 7.0475 31.6282 4.84708 32.0071 4.1471C32.1046 3.96698 32.3386 3.51753 32.5272 3.14825C32.7157 2.77897 32.8942 2.47689 32.9237 2.47689C32.9533 2.47689 33.2492 3.00002 33.5815 3.63949ZM98.3022 5.44502C98.7679 5.76118 98.7123 6.7692 98.2141 7.04108C98.0159 7.14922 97.7996 7.16003 95.8346 7.16003H93.6731L93.6547 6.31202C93.6446 5.84561 93.6517 5.4238 93.6705 5.37467C93.6988 5.30118 94.0955 5.289 95.9159 5.3057C97.9242 5.32424 98.1431 5.33701 98.3022 5.44502Z" fill="#117DC1"></path></svg> 