<?xml version="1.0" encoding="UTF-8"?> <svg xmlns="http://www.w3.org/2000/svg" width="45" height="45" viewBox="0 0 45 45" fill="none"><rect width="45" height="45" fill="#73B61C"></rect><path d="M30.5348 25.8039C31.1133 26.6233 31.4059 28.1726 29.8531 29.7287C26.9918 32.5897 22.0268 30.221 18.4115 26.5923C14.7789 22.9738 12.41 18.0092 15.2713 15.1482C16.8242 13.5955 18.3736 13.8847 19.1965 14.4665C20.4705 15.3686 22.1611 17.2518 20.5393 19.2762C20.3052 19.5689 20.0401 19.8856 19.8231 20.1404C19.5546 20.4571 19.4995 20.9012 19.6854 21.2731C20.5634 23.0186 21.9786 24.4336 23.7242 25.3115C24.0961 25.4975 24.5403 25.4424 24.857 25.1738C25.1118 24.9569 25.4286 24.6918 25.7213 24.4577C27.7527 22.8396 29.6362 24.53 30.5348 25.8039Z" fill="white"></path></svg> 