<?xml version="1.0" encoding="UTF-8"?> <svg xmlns="http://www.w3.org/2000/svg" width="40" height="40" viewBox="0 0 40 40" fill="none"><circle cx="20" cy="20" r="20" fill="white"></circle><rect x="9" y="13" width="22" height="14" rx="2" fill="#F2F3F7"></rect><path d="M24.8908 23.2391L24.1367 24.3188L24.5483 24.5808L25.3024 23.5011L24.8908 23.2391Z" fill="black"></path><path d="M24.2775 22.8452L23.5234 23.9249L23.935 24.1868L24.6891 23.1071L24.2775 22.8452Z" fill="black"></path><path d="M23.57 22.4198L22.8223 23.4968L23.2328 23.7565L23.9805 22.6795L23.57 22.4198Z" fill="black"></path><path d="M25.7912 21.9611L25.0371 23.0408L25.4487 23.3028L26.2028 22.223L25.7912 21.9611Z" fill="black"></path><path d="M25.1701 21.5672L24.416 22.6469L24.8276 22.9088L25.5817 21.8291L25.1701 21.5672Z" fill="black"></path><path d="M24.5549 21.1764L23.8008 22.2561L24.2124 22.518L24.9665 21.4383L24.5549 21.1764Z" fill="black"></path><path d="M15.5053 21.1753L15.0938 21.4372L16.7386 23.7924L17.1502 23.5304L15.5053 21.1753Z" fill="black"></path><path d="M15.7788 22.8472L15.3672 23.1091L16.1213 24.1888L16.5329 23.9269L15.7788 22.8472Z" fill="black"></path><path d="M14.8862 21.5692L14.4746 21.8311L15.2287 22.9108L15.6403 22.6489L14.8862 21.5692Z" fill="black"></path><path d="M14.2055 21.9622L13.7949 22.2219L15.4259 24.5712L15.8364 24.3115L14.2055 21.9622Z" fill="black"></path><path d="M25.3813 16.7526L24.9707 17.0123L25.7184 18.0893L26.129 17.8296L25.3813 16.7526Z" fill="black"></path><path d="M24.5483 15.4196L24.1367 15.6815L24.8908 16.7612L25.3024 16.4993L24.5483 15.4196Z" fill="black"></path><path d="M23.935 15.8136L23.5234 16.0755L25.1683 18.4307L25.5799 18.1687L23.935 15.8136Z" fill="black"></path><path d="M24.2124 17.4793L23.8008 17.7412L24.5549 18.8209L24.9665 18.559L24.2124 17.4793Z" fill="black"></path><path d="M23.27 16.2501L22.8594 16.5098L23.6071 17.5868L24.0176 17.3271L23.27 16.2501Z" fill="black"></path><path d="M16.7386 16.2018L15.0938 18.557L15.5053 18.8189L17.1502 16.4638L16.7386 16.2018Z" fill="black"></path><path d="M16.1195 15.8094L14.4746 18.1646L14.8862 18.4265L16.5311 16.0714L16.1195 15.8094Z" fill="black"></path><path d="M15.5082 15.4202L13.8633 17.7753L14.2749 18.0373L15.9197 15.6821L15.5082 15.4202Z" fill="black"></path><path d="M17.5571 18.4268C17.1206 19.0516 16.9619 19.8163 17.1161 20.5527C17.2703 21.2892 17.7246 21.937 18.3792 22.3537C19.0337 22.7704 19.8349 22.9218 20.6064 22.7746C21.3779 22.6275 22.0566 22.1938 22.4931 21.569C22.7115 21.2566 22.7909 20.8742 22.7139 20.5059C22.6369 20.1376 22.4098 19.8136 22.0825 19.6051C21.7553 19.3966 21.3546 19.3208 20.9688 19.3943C20.5829 19.4678 20.2435 19.6846 20.0251 19.997C19.8047 20.3044 19.4663 20.5165 19.0833 20.5873C18.7002 20.6581 18.3033 20.582 17.9786 20.3754C17.654 20.1688 17.4276 19.8485 17.3487 19.4837C17.2698 19.1189 17.3447 18.7392 17.5571 18.4268Z" fill="#003478"></path><path d="M17.5574 18.4281C17.345 18.7405 17.2701 19.1203 17.349 19.485C17.4279 19.8498 17.6542 20.1702 17.9789 20.3768C18.3036 20.5833 18.7005 20.6594 19.0835 20.5886C19.4666 20.5178 19.805 20.3057 20.0254 19.9984C20.2458 19.691 20.5842 19.4789 20.9672 19.4081C21.3503 19.3373 21.7472 19.4134 22.0719 19.62C22.3965 19.8265 22.6228 20.1469 22.7018 20.5117C22.7807 20.8764 22.7058 21.2562 22.4934 21.5686C22.9299 20.9438 23.0885 20.1791 22.9344 19.4426C22.7802 18.7062 22.3259 18.0584 21.6713 17.6417C21.0168 17.225 20.2156 17.0736 19.4441 17.2207C18.6726 17.3679 17.9939 17.8016 17.5574 18.4264V18.4281Z" fill="#C60C30"></path></svg> 