<?xml version="1.0" encoding="UTF-8"?> <svg xmlns="http://www.w3.org/2000/svg" width="30" height="30" viewBox="0 0 30 30" fill="none"> <path d="M11.6699 19.1094C11.0814 19.1094 10.5801 18.9492 10.166 18.6289C9.75195 18.306 9.43555 17.8385 9.2168 17.2266C8.99805 16.612 8.88867 15.8698 8.88867 15C8.88867 14.1354 8.99805 13.3971 9.2168 12.7852C9.43815 12.1706 9.75586 11.7018 10.1699 11.3789C10.5866 11.0534 11.0866 10.8906 11.6699 10.8906C12.2533 10.8906 12.752 11.0534 13.166 11.3789C13.5827 11.7018 13.9004 12.1706 14.1191 12.7852C14.3405 13.3971 14.4512 14.1354 14.4512 15C14.4512 15.8698 14.3418 16.612 14.123 17.2266C13.9043 17.8385 13.5879 18.306 13.1738 18.6289C12.7598 18.9492 12.2585 19.1094 11.6699 19.1094ZM11.6699 18.25C12.2533 18.25 12.7064 17.9687 13.0293 17.4062C13.3522 16.8437 13.5137 16.0417 13.5137 15C13.5137 14.3073 13.4395 13.7174 13.291 13.2305C13.1452 12.7435 12.9342 12.3724 12.6582 12.1172C12.3848 11.862 12.0553 11.7344 11.6699 11.7344C11.0918 11.7344 10.64 12.0195 10.3145 12.5898C9.98893 13.1576 9.82617 13.9609 9.82617 15C9.82617 15.6927 9.89909 16.2812 10.0449 16.7656C10.1908 17.25 10.4004 17.6185 10.6738 17.8711C10.9499 18.1237 11.2819 18.25 11.6699 18.25ZM15.9355 19V18.2969L18.5762 15.4062C18.8861 15.0677 19.1413 14.7734 19.3418 14.5234C19.5423 14.2708 19.6908 14.0339 19.7871 13.8125C19.8861 13.5885 19.9355 13.3542 19.9355 13.1094C19.9355 12.8281 19.8678 12.5846 19.7324 12.3789C19.5996 12.1732 19.4173 12.0143 19.1855 11.9023C18.9538 11.7904 18.6934 11.7344 18.4043 11.7344C18.097 11.7344 17.8288 11.7982 17.5996 11.9258C17.373 12.0508 17.1973 12.2266 17.0723 12.4531C16.9499 12.6797 16.8887 12.9453 16.8887 13.25H15.9668C15.9668 12.7812 16.0749 12.3698 16.291 12.0156C16.5072 11.6615 16.8014 11.3854 17.1738 11.1875C17.5488 10.9896 17.9694 10.8906 18.4355 10.8906C18.9043 10.8906 19.3197 10.9896 19.6816 11.1875C20.0436 11.3854 20.3275 11.6523 20.5332 11.9883C20.7389 12.3242 20.8418 12.6979 20.8418 13.1094C20.8418 13.4036 20.7884 13.6914 20.6816 13.9727C20.5775 14.2513 20.3952 14.5625 20.1348 14.9062C19.877 15.2474 19.5189 15.6641 19.0605 16.1562L17.2637 18.0781V18.1406H20.9824V19H15.9355Z" fill="white"></path> <circle cx="15" cy="15" r="14.5" stroke="#5990BE"></circle> </svg> 